<?xml version="1.0" encoding="UTF-8"?>
<svg id="Layer_2" data-name="Layer 2" xmlns="http://www.w3.org/2000/svg" viewBox="0 0 640 906.52">
  <g id="Layer_5" data-name="Layer 5">
    <g id="Logo-UGA-Color-FondoTransparente">
      <rect width="640" height="906.52" style="fill: none;"/>
      <g>
        <path d="M139.2,814.45c-19.43,0-34.62-2.62-45.59-7.86-10.97-5.24-18.64-12.89-23.03-22.94-4.39-10.05-6.58-22.38-6.58-36.99v-144.08h55.46v151.04c0,4.3,.42,8.6,1.25,12.89,.83,4.3,2.66,7.82,5.48,10.57,2.82,2.75,7.15,4.12,13,4.12s10.44-1.37,13.16-4.12c2.71-2.75,4.44-6.27,5.17-10.57,.73-4.29,1.1-8.59,1.1-12.89v-151.04h55.77v144.08c0,14.61-2.25,26.94-6.74,36.99-4.49,10.05-12.17,17.7-23.03,22.94-10.86,5.24-26.01,7.86-45.43,7.86Z" style="fill: #666;"/>
        <path d="M311.32,815.87c-17.55,0-31.39-3.01-41.52-9.02-10.13-6.01-17.34-14.47-21.62-25.39-4.28-10.91-6.42-23.5-6.42-37.76v-70.11c0-14.78,2.3-27.58,6.89-38.41,4.59-10.83,12.48-19.2,23.66-25.13,11.17-5.93,26.37-8.89,45.59-8.89s33.58,2.58,44.34,7.73c10.76,5.16,18.43,12.29,23.03,21.39,4.59,9.11,6.89,19.76,6.89,31.96v13.4h-54.83v-17.01c0-4.47-.37-8.59-1.1-12.37-.73-3.78-2.4-6.83-5.01-9.15-2.61-2.32-6.84-3.48-12.69-3.48s-10.45,1.33-13.16,4c-2.72,2.67-4.44,5.97-5.17,9.92-.73,3.95-1.1,8.08-1.1,12.37v96.66c0,4.64,.57,8.98,1.72,13.02,1.15,4.04,3.24,7.31,6.27,9.79,3.03,2.49,7.36,3.74,13,3.74s10.34-1.29,13.47-3.87c3.13-2.58,5.33-5.93,6.58-10.05,1.25-4.12,1.88-8.5,1.88-13.15v-24.49h-22.87v-27.07h73.32v108.26h-36.97l-3.13-17.27c-3.34,5.84-8.25,10.7-14.73,14.56-6.48,3.87-15.25,5.8-26.32,5.8Z" style="fill: #666;"/>
        <path d="M416.83,812.9l47.94-208.78h63.92l47.31,208.78h-51.7l-8.46-44.08h-37.29l-8.77,44.08h-52.95Zm66.74-71.66h26.95l-13.47-81.45-13.47,81.45Z" style="fill: #666;"/>
        <path d="M265.71,545.45l-.23-52.67h-107.71c-25.64,0-35.01-28.95-26.93-44.19l36.79-64.97,25.59,14.85,.94-121.76-106.99,60.11,34.27,19.9-36.57,66.24c-29.4,58.13-2.24,123.35,76.78,122.57l2.44-.04,101.63-.04Z" style="fill: #67cc02;"/>
        <path d="M190.16,226.95l45.14,27.13,55.89-92.08c13.3-21.92,42.92-14.9,51.75-.09l36.46,65.16-25.97,14.18,103.6,63.98,4.12-122.65-34.8,18.97-37.65-65.63c-34.44-55.29-104.29-65.91-144.62,2.04l-1.23,2.1-52.69,86.9Z" style="fill: #67cc02;"/>
        <path d="M500.91,327.34l-45.85,25.91,52.59,94c12.52,22.37-8.18,44.69-25.42,45.08l-74.66-.38,.46-29.58-106.72,58.63,104.7,64.02,.64-39.63,75.66-.43c65.09-2.73,108.74-58.27,69.48-126.85l-1.22-2.11-49.66-88.67Z" style="fill: #67cc02;"/>
        <path d="M295.32,447.96l-.1-23.74h-48.56c-11.56,0-15.78-13.05-12.14-19.92l16.58-29.29,11.54,6.69,.42-54.89-48.24,27.1,15.45,8.97-16.49,29.86c-13.25,26.21-1.01,55.61,34.62,55.26l1.1-.02,45.82-.02Z" style="fill: #1066ea;"/>
        <path d="M261.26,304.37l20.35,12.23,25.2-41.51c6-9.88,19.35-6.72,23.33-.04l16.44,29.38-11.71,6.39,46.71,28.84,1.86-55.3-15.69,8.55-16.97-29.59c-15.53-24.93-47.02-29.72-65.2,.92l-.56,.95-23.76,39.18Z" style="fill: #1066ea;"/>
        <path d="M401.36,349.63l-20.67,11.68,23.71,42.38c5.64,10.09-3.69,20.15-11.46,20.32l-33.66-.17,.21-13.34-48.11,26.43,47.2,28.86,.29-17.87,34.11-.19c29.34-1.23,49.03-26.27,31.33-57.19l-.55-.95-22.39-39.98Z" style="fill: #1066ea;"/>
      </g>
    </g>
  </g>
</svg>