<?xml version="1.0" encoding="UTF-8"?>
<svg id="Layer_2" data-name="Layer 2" xmlns="http://www.w3.org/2000/svg" viewBox="0 0 640 272.06">
  <g id="Layer_2-2" data-name="Layer 2">
    <g id="Logo-CentroEducacionContinuaUACh-Color-TextoBlanco">
      <rect width="640" height="272.06" style="fill: none;"/>
      <g>
        <g>
          <rect x="282.13" y="27.21" width="36.48" height="36.48" style="fill: #ffc900;"/>
          <rect x="282.13" y="72.5" width="36.48" height="36.48" style="fill: #b4deeb;"/>
          <rect x="282.13" y="117.79" width="36.48" height="36.48" style="fill: #006939;"/>
          <rect x="282.13" y="163.09" width="36.48" height="36.48" style="fill: #e3002d;"/>
          <rect x="282.13" y="208.38" width="36.48" height="36.48" style="fill: #00b6e4;"/>
        </g>
        <g>
          <path d="M72.68,151.01v-26.3c0-21.06,12.42-32.75,31.9-32.75,17.65,0,26.79,9.38,30.44,22.64,.24,.97-.12,1.58-1.1,1.95l-11.32,3.29c-.97,.24-1.58,0-1.95-.97-2.44-7.3-6.09-12.54-15.95-12.54-11.32,0-16.44,7.06-16.44,18.63v25.81c0,11.57,5.11,18.63,16.68,18.63,10.47,0,14.49-5.6,16.31-13.63,.24-.97,.97-1.46,1.95-1.1l11.2,3.65c.85,.24,1.34,.85,1.22,1.58-3.04,13.39-12.05,23.86-30.8,23.86-21.06,0-32.14-13.03-32.14-32.75Z" style="fill: #fff;"/>
          <path d="M142.2,180.84V94.88c0-.97,.61-1.58,1.58-1.58h49.19c.97,0,1.58,.61,1.58,1.58v10.84c0,.97-.61,1.58-1.58,1.58h-35.19v23.01h31.66c.97,0,1.58,.61,1.58,1.58v10.35c0,.97-.61,1.58-1.58,1.58h-31.66v24.59h35.31c.97,0,1.58,.61,1.58,1.58v10.84c0,.97-.61,1.58-1.58,1.58h-49.31c-.97,0-1.58-.61-1.58-1.58Z" style="fill: #fff;"/>
          <path d="M201,151.01v-26.3c0-21.06,12.42-32.75,31.9-32.75,17.65,0,26.79,9.38,30.44,22.64,.24,.97-.12,1.58-1.1,1.95l-11.32,3.29c-.97,.24-1.58,0-1.95-.97-2.43-7.3-6.09-12.54-15.95-12.54-11.32,0-16.44,7.06-16.44,18.63v25.81c0,11.57,5.11,18.63,16.68,18.63,10.47,0,14.49-5.6,16.31-13.63,.24-.97,.97-1.46,1.95-1.1l11.2,3.65c.85,.24,1.34,.85,1.22,1.58-3.04,13.39-12.05,23.86-30.8,23.86-21.06,0-32.14-13.03-32.14-32.75Z" style="fill: #fff;"/>
        </g>
        <g>
          <g>
            <path d="M340.46,73.96v-11.93c0-8.33,4.93-12.62,12.22-12.62,6.36,0,10.05,3.25,11.58,8.53,.1,.35-.05,.64-.39,.74l-3.15,.98c-.35,.1-.59-.05-.74-.39-1.18-3.45-3.01-5.57-7.25-5.57-4.83,0-7.64,2.76-7.64,8.43v11.73c0,5.67,2.81,8.43,7.69,8.43,4.58,0,6.51-2.37,7.49-5.96,.1-.39,.39-.49,.74-.39l3.1,1.04c.39,.15,.49,.34,.44,.64-1.43,5.27-4.98,8.97-11.83,8.97-7.64,0-12.27-4.63-12.27-12.62Z" style="fill: #fff;"/>
            <path d="M367.76,85.44V50.55c0-.35,.25-.59,.59-.59h18.88c.34,0,.59,.25,.59,.59v3.01c0,.35-.25,.59-.59,.59h-14.83v11.48h13.41c.34,0,.59,.25,.59,.59v2.91c0,.35-.25,.59-.59,.59h-13.41v12.12h14.83c.34,0,.59,.25,.59,.59v3.01c0,.35-.25,.59-.59,.59h-18.88c-.34,0-.59-.25-.59-.59Z" style="fill: #fff;"/>
            <path d="M392.21,85.44V50.55c0-.35,.25-.59,.59-.59h5.32c.3,0,.54,.15,.69,.44l10.35,20.65c1.63,3.35,3.15,6.8,4.48,9.86h.1c-.25-3.1-.34-6.16-.34-9.46v-20.9c0-.35,.25-.59,.59-.59h3.3c.34,0,.59,.25,.59,.59v34.89c0,.35-.25,.59-.59,.59h-4.93c-.3,0-.54-.15-.69-.44l-10.55-20.65c-1.68-3.35-3.25-7-4.58-10.05h-.1c.15,3.1,.25,6.11,.25,9.36v21.19c0,.35-.25,.59-.59,.59h-3.3c-.34,0-.59-.25-.59-.59Z" style="fill: #fff;"/>
            <path d="M430.6,85.44v-31.2h-9.81c-.34,0-.59-.25-.59-.59v-3.11c0-.35,.25-.59,.59-.59h24.3c.35,0,.59,.25,.59,.59v3.11c0,.34-.25,.59-.59,.59h-9.86v31.2c0,.35-.25,.59-.59,.59h-3.45c-.34,0-.59-.25-.59-.59Z" style="fill: #fff;"/>
            <path d="M447.99,85.44V50.55c0-.35,.25-.59,.59-.59h10.89c7.74,0,11.24,4.24,11.24,10.25v1.04c0,5.03-2.42,8.67-7.29,9.91l8.23,14.19c.25,.45,0,.69-.44,.69h-3.89c-.3,0-.59-.15-.74-.39l-7.89-14h-6.06v13.8c0,.35-.25,.59-.59,.59h-3.45c-.34,0-.59-.25-.59-.59Zm11.14-17.84c5.03,0,6.95-2.32,6.95-6.41v-.74c0-3.89-1.92-6.31-6.95-6.31h-6.5v13.46h6.5Z" style="fill: #fff;"/>
            <path d="M474.11,73.96v-11.83c0-8.38,5.17-12.71,13.01-12.71,8.23,0,13.06,4.83,13.06,12.62v11.83c0,7.88-4.83,12.71-13.06,12.71s-13.01-4.63-13.01-12.62Zm13.01,8.33c5.37,0,8.43-2.76,8.43-8.43v-11.73c0-5.67-3.06-8.43-8.43-8.43s-8.38,2.76-8.38,8.43v11.73c0,5.67,3.06,8.43,8.38,8.43Z" style="fill: #fff;"/>
            <path d="M341.45,131.24v-34.89c0-.35,.25-.59,.59-.59h18.88c.34,0,.59,.25,.59,.59v3.01c0,.35-.25,.59-.59,.59h-14.83v11.48h13.41c.34,0,.59,.25,.59,.59v2.91c0,.35-.25,.59-.59,.59h-13.41v12.12h14.83c.34,0,.59,.25,.59,.59v3.01c0,.35-.25,.59-.59,.59h-18.88c-.34,0-.59-.25-.59-.59Z" style="fill: #fff;"/>
            <path d="M365.89,131.24v-34.89c0-.35,.25-.59,.59-.59h11.04c8.28,0,13.06,4.83,13.06,12.62v10.74c0,7.89-4.78,12.72-13.06,12.72h-11.04c-.34,0-.59-.25-.59-.59Zm11.68-3.7c5.32,0,8.38-2.76,8.38-8.43v-10.64c0-5.67-3.06-8.43-8.38-8.43h-7.05v27.5h7.05Z" style="fill: #fff;"/>
            <path d="M395.01,120.3v-23.95c0-.35,.25-.59,.59-.59h3.45c.34,0,.59,.25,.59,.59v23.85c0,5.32,2.86,7.89,7.84,7.89s7.89-2.56,7.89-7.89v-23.85c0-.35,.25-.59,.59-.59h3.45c.34,0,.59,.25,.59,.59v23.85c0,7.54-4.63,12.17-12.57,12.17s-12.42-4.44-12.42-12.07Z" style="fill: #fff;"/>
            <path d="M424.43,119.76v-11.93c0-8.33,4.93-12.62,12.22-12.62,6.36,0,10.05,3.25,11.58,8.53,.1,.35-.05,.64-.39,.74l-3.15,.98c-.35,.1-.59-.05-.74-.39-1.18-3.45-3.01-5.57-7.25-5.57-4.83,0-7.64,2.76-7.64,8.43v11.73c0,5.67,2.81,8.43,7.69,8.43,4.58,0,6.51-2.37,7.49-5.96,.1-.39,.39-.49,.74-.39l3.1,1.04c.39,.15,.49,.34,.44,.64-1.43,5.27-4.98,8.97-11.83,8.97-7.64,0-12.27-4.63-12.27-12.62Z" style="fill: #fff;"/>
            <path d="M448.14,131.14l11.19-34.89c.1-.3,.3-.49,.64-.49h4.78c.35,0,.54,.2,.64,.49l11.29,34.89c.15,.45-.1,.69-.49,.69h-3.6c-.34,0-.54-.2-.64-.49l-3.06-9.61h-13.11l-3.06,9.61c-.1,.3-.3,.49-.64,.49h-3.45c-.39,0-.64-.25-.49-.69Zm19.42-13.6l-2.12-6.61c-1.68-5.27-1.53-5.22-3.01-10.35h-.15c-.84,3.06-2.02,7-3.1,10.45l-2.07,6.51h10.45Z" style="fill: #fff;"/>
            <path d="M477.36,119.76v-11.93c0-8.33,4.93-12.62,12.22-12.62,6.36,0,10.05,3.25,11.58,8.53,.1,.35-.05,.64-.39,.74l-3.15,.98c-.35,.1-.59-.05-.74-.39-1.18-3.45-3.01-5.57-7.25-5.57-4.83,0-7.64,2.76-7.64,8.43v11.73c0,5.67,2.81,8.43,7.69,8.43,4.58,0,6.51-2.37,7.49-5.96,.1-.39,.39-.49,.74-.39l3.1,1.04c.39,.15,.49,.34,.44,.64-1.43,5.27-4.98,8.97-11.83,8.97-7.64,0-12.27-4.63-12.27-12.62Z" style="fill: #fff;"/>
            <path d="M504.66,131.24v-34.89c0-.35,.25-.59,.59-.59h3.45c.34,0,.59,.25,.59,.59v34.89c0,.35-.25,.59-.59,.59h-3.45c-.34,0-.59-.25-.59-.59Z" style="fill: #fff;"/>
            <path d="M544.77,131.24v-34.89c0-.35,.25-.59,.59-.59h5.32c.3,0,.54,.15,.69,.44l10.35,20.65c1.63,3.35,3.15,6.8,4.48,9.86h.1c-.25-3.1-.34-6.16-.34-9.46v-20.9c0-.35,.25-.59,.59-.59h3.3c.34,0,.59,.25,.59,.59v34.89c0,.35-.25,.59-.59,.59h-4.93c-.3,0-.54-.15-.69-.44l-10.55-20.65c-1.68-3.35-3.25-7-4.58-10.05h-.1c.15,3.1,.25,6.11,.25,9.36v21.19c0,.35-.25,.59-.59,.59h-3.3c-.34,0-.59-.25-.59-.59Z" style="fill: #fff;"/>
            <path d="M340.46,165.56v-11.93c0-8.33,4.93-12.62,12.22-12.62,6.36,0,10.05,3.25,11.58,8.53,.1,.35-.05,.64-.39,.74l-3.15,.98c-.35,.1-.59-.05-.74-.39-1.18-3.45-3.01-5.57-7.25-5.57-4.83,0-7.64,2.76-7.64,8.43v11.73c0,5.67,2.81,8.43,7.69,8.43,4.58,0,6.51-2.37,7.49-5.96,.1-.39,.39-.49,.74-.39l3.1,1.04c.39,.15,.49,.34,.44,.64-1.43,5.27-4.98,8.97-11.83,8.97-7.64,0-12.27-4.63-12.27-12.62Z" style="fill: #fff;"/>
            <path d="M366.78,165.56v-11.83c0-8.38,5.17-12.71,13.01-12.71,8.23,0,13.06,4.83,13.06,12.62v11.83c0,7.88-4.83,12.71-13.06,12.71s-13.01-4.63-13.01-12.62Zm13.01,8.33c5.37,0,8.43-2.76,8.43-8.43v-11.73c0-5.67-3.06-8.43-8.43-8.43s-8.38,2.76-8.38,8.43v11.73c0,5.67,3.06,8.43,8.38,8.43Z" style="fill: #fff;"/>
            <path d="M397.53,177.04v-34.89c0-.35,.25-.59,.59-.59h5.32c.3,0,.54,.15,.69,.44l10.35,20.65c1.63,3.35,3.15,6.8,4.48,9.86h.1c-.25-3.1-.34-6.16-.34-9.46v-20.9c0-.35,.25-.59,.59-.59h3.3c.34,0,.59,.25,.59,.59v34.89c0,.35-.25,.59-.59,.59h-4.93c-.3,0-.54-.15-.69-.44l-10.55-20.65c-1.68-3.35-3.25-7-4.58-10.05h-.1c.15,3.1,.25,6.11,.25,9.36v21.19c0,.35-.25,.59-.59,.59h-3.3c-.34,0-.59-.25-.59-.59Z" style="fill: #fff;"/>
            <path d="M435.92,177.04v-31.2h-9.81c-.34,0-.59-.25-.59-.59v-3.11c0-.35,.25-.59,.59-.59h24.3c.35,0,.59,.25,.59,.59v3.11c0,.34-.25,.59-.59,.59h-9.86v31.2c0,.35-.25,.59-.59,.59h-3.45c-.34,0-.59-.25-.59-.59Z" style="fill: #fff;"/>
            <path d="M453.31,177.04v-34.89c0-.35,.25-.59,.59-.59h3.45c.34,0,.59,.25,.59,.59v34.89c0,.35-.25,.59-.59,.59h-3.45c-.34,0-.59-.25-.59-.59Z" style="fill: #fff;"/>
            <path d="M463.66,177.04v-34.89c0-.35,.25-.59,.59-.59h5.32c.3,0,.54,.15,.69,.44l10.35,20.65c1.63,3.35,3.15,6.8,4.48,9.86h.1c-.25-3.1-.34-6.16-.34-9.46v-20.9c0-.35,.25-.59,.59-.59h3.3c.34,0,.59,.25,.59,.59v34.89c0,.35-.25,.59-.59,.59h-4.93c-.3,0-.54-.15-.69-.44l-10.55-20.65c-1.68-3.35-3.25-7-4.58-10.05h-.1c.15,3.1,.25,6.11,.25,9.36v21.19c0,.35-.25,.59-.59,.59h-3.3c-.34,0-.59-.25-.59-.59Z" style="fill: #fff;"/>
            <path d="M494.76,166.1v-23.95c0-.35,.25-.59,.59-.59h3.45c.34,0,.59,.25,.59,.59v23.85c0,5.32,2.86,7.89,7.84,7.89s7.89-2.56,7.89-7.89v-23.85c0-.35,.25-.59,.59-.59h3.45c.34,0,.59,.25,.59,.59v23.85c0,7.54-4.63,12.17-12.57,12.17s-12.42-4.44-12.42-12.07Z" style="fill: #fff;"/>
            <path d="M521.32,176.94l11.19-34.89c.1-.3,.3-.49,.64-.49h4.78c.35,0,.54,.2,.64,.49l11.29,34.89c.15,.45-.1,.69-.49,.69h-3.6c-.34,0-.54-.2-.64-.49l-3.06-9.61h-13.11l-3.06,9.61c-.1,.3-.3,.49-.64,.49h-3.45c-.39,0-.64-.25-.49-.69Zm19.42-13.6l-2.12-6.61c-1.68-5.27-1.53-5.22-3.01-10.35h-.15c-.84,3.06-2.02,7-3.1,10.45l-2.07,6.51h10.45Z" style="fill: #fff;"/>
            <path d="M341.2,211.9v-23.95c0-.35,.25-.59,.59-.59h3.45c.34,0,.59,.25,.59,.59v23.85c0,5.32,2.86,7.89,7.84,7.89s7.89-2.56,7.89-7.89v-23.85c0-.35,.25-.59,.59-.59h3.45c.34,0,.59,.25,.59,.59v23.85c0,7.54-4.63,12.17-12.57,12.17s-12.42-4.44-12.42-12.07Z" style="fill: #fff;"/>
            <path d="M367.76,222.74l11.19-34.89c.1-.3,.3-.49,.64-.49h4.78c.34,0,.54,.2,.64,.49l11.29,34.89c.15,.45-.1,.69-.49,.69h-3.6c-.34,0-.54-.2-.64-.49l-3.06-9.61h-13.11l-3.06,9.61c-.1,.3-.3,.49-.64,.49h-3.45c-.39,0-.64-.25-.49-.69Zm19.42-13.6l-2.12-6.61c-1.68-5.27-1.53-5.22-3.01-10.35h-.15c-.84,3.06-2.02,7-3.1,10.45l-2.07,6.51h10.45Z" style="fill: #fff;"/>
            <path d="M396.99,211.36v-11.93c0-8.33,4.93-12.62,12.22-12.62,6.36,0,10.05,3.25,11.58,8.53,.1,.35-.05,.64-.39,.74l-3.15,.98c-.35,.1-.59-.05-.74-.39-1.18-3.45-3.01-5.57-7.25-5.57-4.83,0-7.64,2.76-7.64,8.43v11.73c0,5.67,2.81,8.43,7.69,8.43,4.58,0,6.51-2.37,7.49-5.96,.1-.39,.39-.49,.74-.39l3.1,1.04c.39,.15,.49,.34,.44,.64-1.43,5.27-4.98,8.97-11.83,8.97-7.64,0-12.27-4.63-12.27-12.62Z" style="fill: #fff;"/>
            <path d="M423.7,222.84v-36.22c0-.35,.25-.59,.59-.59h3.25c.35,0,.59,.25,.59,.59v13.31c1.82-2.61,4.53-4.09,7.79-4.09,5.17,0,8.48,3.65,8.48,9.81v17.2c0,.35-.25,.59-.59,.59h-3.3c-.35,0-.59-.25-.59-.59v-17.2c0-3.84-2.17-5.82-5.13-5.82s-5.42,1.87-6.65,4.83v18.19c0,.35-.25,.59-.59,.59h-3.25c-.34,0-.59-.25-.59-.59Z" style="fill: #fff;"/>
          </g>
          <path d="M536.99,98.97l-2.98,3.52c.94,1.35,1.45,3.15,1.45,5.44v11.73c0,5.67-3.06,8.43-8.43,8.43s-8.38-2.76-8.38-8.43v-11.73c0-5.67,3.06-8.43,8.38-8.43,1.15,0,2.19,.13,3.12,.39l3-3.55c-1.75-.73-3.8-1.13-6.12-1.13-7.84,0-13.01,4.34-13.01,12.71v11.83c0,7.98,4.88,12.62,13.01,12.62s13.06-4.83,13.06-12.71v-11.83c0-3.68-1.09-6.69-3.1-8.86Z" style="fill: #fff;"/>
        </g>
      </g>
    </g>
  </g>
</svg>