<?xml version="1.0" encoding="UTF-8"?>
<svg id="Layer_2" data-name="Layer 2" xmlns="http://www.w3.org/2000/svg" viewBox="0 0 1023 1236.05">
  <g id="Isotipos-UACh">
    <g id="Isotipo-UACh-Blanco">
      <rect width="1023" height="1236.05" style="fill: none;"/>
      <path id="_Group_" data-name="&amp;lt;Group&amp;gt;" d="M512.09,124.19l-408.61-.59-.58,397.47-.57,397.46v9.32s-.03,9.31-.03,9.31c-.08,4.62,.24,9.24,.91,13.82,.67,4.57,1.69,9.11,3.03,13.59v.05c2.99,10.02,7.59,19.79,13.46,29.08,5.87,9.28,13.02,18.08,21.11,26.15v.04c11.2,11.21,24.21,21.07,38.15,28.96,13.94,7.88,28.82,13.8,43.77,17.16,4.53,1.02,9.07,1.8,13.6,2.33,4.52,.52,9.02,.8,13.48,.79l107.48,.15,107.49,.16c.41-.03,7.96-.48,16.25,2.15,8.28,2.63,17.32,8.33,20.7,20.6l2.8,10.12,2.8,10.13,2.72-10.15,2.72-10.16c3.27-12.16,12.87-17.82,21.81-20.44,8.94-2.61,17.2-2.17,17.79-2.13l110.78,.16,110.78,.16c4.45,.01,8.92-.25,13.4-.77,4.49-.52,8.99-1.28,13.48-2.28v-.02c14.79-3.31,29.46-9.21,43.17-17.06,13.71-7.85,26.46-17.67,37.43-28.84v-.05c7.9-8.06,14.89-16.84,20.66-26.1,5.76-9.26,10.29-19.01,13.3-29.03v.02c1.32-4.47,2.35-8.99,3.05-13.55,.7-4.55,1.07-9.14,1.08-13.75l.58-406.84,.59-406.84-408.61-.58Zm396.58,413.13l-.57,401.11c0,4.56-.43,9.14-1.23,13.69-.8,4.55-1.98,9.09-3.52,13.58v-.03c-3.45,10.14-8.65,20.04-15.21,29.35-6.57,9.31-14.5,18.04-23.4,25.85v.05c-12.77,11.24-27.5,20.63-43.03,27.2-15.52,6.57-31.84,10.33-47.74,10.3l-110.61-.16-110.62-.16c-5.66-.31-11.71,.18-17.6,1.54-5.89,1.37-11.62,3.6-16.63,6.76h0v.02c-2.2,1.39-4.27,2.96-6.15,4.72-1.88,1.76-3.58,3.7-5.06,5.83-1.42-2.12-3.05-4.07-4.87-5.84-1.81-1.76-3.8-3.35-5.92-4.76h0v-.02c-4.67-3.11-9.98-5.36-15.48-6.75-5.5-1.4-11.2-1.94-16.63-1.63l-107.28-.16-107.28-.15c-16.03-.01-32.57-3.82-48.35-10.44-15.79-6.63-30.81-16.08-43.83-27.37v.03c-9.1-7.87-17.22-16.65-23.93-25.98-6.71-9.33-12-19.23-15.46-29.34v-.05c-1.53-4.49-2.7-9.02-3.46-13.57-.77-4.55-1.14-9.11-1.08-13.67l.02-9.37v-9.37s.58-391.74,.58-391.74l.56-391.74,397.18,.57,397.18,.57-.58,401.11Zm-481.88-241.92l17.08-13.33-1.78,24.06-1.78,24.06-15.31-10.74-15.3-10.74,17.08-13.32Zm-11.32,33.13l16.28,11.29-31.18,.39-31.18,.39,14.89-11.67,14.89-11.68,16.28,11.29Zm-60.01-18.84l-1.09-24.47,17.17,12.17,17.17,12.17-16.08,12.3-16.08,12.29-1.09-24.46Zm43.54-8.43c0,.33-8.64-5.86-17.27-12.14-8.63-6.28-17.27-12.64-17.27-12.64l35.89-2.14,35.89-2.14s-9.31,7.1-18.62,14.28c-9.31,7.19-18.61,14.45-18.61,14.78m113.3-58.63l-286.44-.41-.5,311.74-.5,311.74c0,1.18,.02,2.34,.07,3.51,.04,1.16,.11,2.32,.19,3.47,.64,8.55,2.45,16.77,5.29,24.5,2.84,7.72,6.7,14.95,11.43,21.54,8.22,11.47,19.06,20.95,31.64,27.56,12.58,6.62,26.9,10.37,42.1,10.39l195.66,.28,195.66,.28c15.2,.02,29.52-3.69,42.11-10.27,12.59-6.58,23.45-16.03,31.71-27.49,4.74-6.56,8.63-13.78,11.49-21.49,2.87-7.72,4.71-15.93,5.38-24.5l-.03,.02c.1-1.15,.17-2.31,.21-3.47,.04-1.16,.06-2.33,.07-3.51l.45-311.74,.45-311.74-286.44-.41Zm-215.78,630.01l-19.02-11.92-19.06,11.86,5.47-21.77-17.16-14.45,22.39-1.54,8.43-20.8,8.39,20.82,22.38,1.6-17.22,14.4,5.39,21.79Zm-5.29-91.91l5.39,21.79-19.02-11.91-19.06,11.86,5.46-21.76-17.16-14.45,22.39-1.54,8.43-20.79,8.39,20.82,22.38,1.6-17.21,14.39Zm.1-70.1l5.4,21.78-19.02-11.92-19.05,11.86,5.45-21.77-17.15-14.44,22.38-1.54,8.43-20.79,8.39,20.82,22.38,1.61-17.21,14.4Zm.1-70.13l5.39,21.79-19.02-11.91-19.06,11.86,5.46-21.77-17.16-14.44,22.39-1.54,8.43-20.8,8.38,20.83,22.39,1.6-17.22,14.39Zm99.21,302.4l-19.02-11.92-19.05,11.86,5.45-21.76-17.16-14.45,22.39-1.54,8.44-20.8,8.38,20.82,22.39,1.6-17.21,14.4,5.39,21.79Zm-5.29-91.91l5.4,21.79-19.02-11.91-19.06,11.86,5.46-21.76-17.16-14.45,22.39-1.54,8.43-20.79,8.39,20.82,22.38,1.6-17.22,14.39Zm.1-70.12l5.39,21.79-19.02-11.92-19.06,11.86,5.46-21.77-17.16-14.45,22.39-1.54,8.43-20.8,8.39,20.83,22.39,1.6-17.22,14.39Zm.1-70.11l5.4,21.78-19.02-11.91-19.05,11.86,5.45-21.77-17.15-14.44,22.38-1.54,8.43-20.8,8.39,20.82,22.38,1.61-17.21,14.39Zm.1-70.12l5.39,21.79-19.02-11.92-19.06,11.86,5.47-21.76-17.16-14.45,22.39-1.54,8.43-20.8,8.38,20.82,22.39,1.6-17.22,14.4Zm11.28-112.92c-13.66-.28-27.29,13.07-25.65,40.2-.1-.15-10.12,.15-20.31,.41-10.19,.26-20.55,.5-21.34,.21-2.08-.75-2.83-2.19-3.59-3.63-.76-1.45-1.52-2.89-3.61-3.65-2.08-.74-3.51-.18-4.79,.18-1.28,.36-2.43,.5-3.97-1.09-1.55-1.59-1.4-2.83-1.25-4.08,.15-1.24,.3-2.49-1.24-4.08-1.55-1.59-2.75-1.33-3.77-1.19-1.02,.14-1.85,.15-2.67-1.91-.24-.57-.19-1.06,.08-1.48,.28-.42,.78-.77,1.46-1.05,6.27-.73,6.97-2.43,5.83-3.85-1.14-1.42-4.12-2.56-5.2-2.15-.73,.27-1.79-.23-2.54-1.1-.75-.88-1.2-2.12-.68-3.37,.37-.89-.74-2.87-1.94-4.81-1.2-1.93-2.49-3.81-2.48-4.49,0-.26-.02-.88-.03-1.63-.01-.75-.02-1.62,.02-2.38l-.02,.02c.02-.41,.04-.78,.08-1.09,.04-.31,.09-.55,.16-.69,1.19-.45,1.28-2.41,1.08-4.45-.16-1.65-.5-3.32-.61-4.36-.02-.25-.04-.5-.04-.65,.04-.72,.1-1.24,.2-1.64,.19-.84,.48-1.14,.77-1.43,.43-.42,.88-.85,.99-3.07,.1-2.21-.45-3.47-1-4.73-.04-.09-.08-.18-.12-.26-.51-1.18-.99-2.41-.88-4.47,.02-.4,.23-.53,.56-.6,.19-.04,.42-.07,.68-.12,.2-.03,.41-.08,.64-.16,3.02-.37,4.02-1.5,3.95-2.64-.07-1.14-1.21-2.31-2.51-2.8-.72-.28-1.22-.71-1.63-1.21-.76-.92-1.1-2.15-1.14-3.56-.06-2.17,.43-4.7,.62-6.9,.19-2.21-.08-2.15-.34-2.09-.27,.06-.53,.12-.34-2.09,.19-2.21-.18-3.65-.54-5.1-.36-1.45-.73-2.89-.54-5.1,.19-2.22,1.06-4.1,1.89-5.67,.84-1.57,1.65-2.82,1.72-3.78,.06-1.02,.24-1.93,.47-2.74,.24-.81,.53-1.52,.86-2.14v.02c.59-1.1,1.26-1.87,1.78-2.38,.52-.51,.89-.74,.89-.74,8.44-1.28,21.08-2.32,33.33-3.05,12.25-.73,24.11-1.16,31.02-1.24,.37,0,.71-.01,1.03-.04,.32-.03,.61-.07,.89-.11,10.57,.14,24.36,.47,36.99,1.22,12.62,.75,24.08,1.9,30,3.68,0,0,.03,.26,.09,.74,.06,.48,.13,1.19,.23,2.1l7.98,73.57c.57,5.41,1.04,10.04,1.37,13.44,.33,3.4,.51,5.55,.48,5.96-.04,.53,.36,6.36,.8,12.22,.43,5.86,.9,11.76,.99,12.44,.14,1.08,.15,2.24-.14,3.2-.3,.96-.89,1.73-1.95,2.04-.48,.14-7.3-.64-14-1.46-6.7-.81-13.28-1.67-13.28-1.67,1.54-27.31-12.14-41.19-25.79-41.46m-93.44-111.69c-.25-.08-.51-.17-.3-2.37,.21-2.2,.42-4.5,.62-6.81,.2-2.3,.39-4.61,.61-6.81,.21-2.2,.24-2.9,.24-3.61,0-.71-.01-1.43,.09-3.68,.05-1.17,.16-3.74,.36-6.88,.19-3.14,.48-6.85,.88-10.28v.07c.26-2.27,.58-4.42,.95-6.18,.37-1.76,.8-3.14,1.29-3.87,.87-1.3,1.62-2.31,2.73-3.26,1.11-.95,2.56-1.83,4.82-2.87,.59,2.77,1.07,6.1,1.44,8.73,.37,2.64,.63,4.58,.78,4.6,1.39-.2,5.51-.47,9.35-.69,3.84-.23,7.4-.42,7.66-.46,.28-.06,.49-.17,.65-.32,.16-.16,.26-.36,.3-.59,.13-.99,.48-4.22,.83-7.5,.35-3.29,.7-6.62,.83-7.8,1.08-.08,2.05-.14,2.93-.18,.88-.04,1.66-.08,2.36-.12,1.39-.09,4.77,.55,7.91,2.78,3.14,2.23,6.04,6.06,6.48,12.37,.97,0,4.91-.03,9.35-.09,4.43-.07,9.35-.17,12.27-.3,.37,0,.85-.17,1.26-.43,.4-.26,.73-.61,.79-.95,.24-1.91,.63-4.67,1-7.31,.36-2.64,.69-5.14,.81-6.53,3.14,.25,7.42,.67,10.95,1.03,3.52,.37,6.29,.69,6.4,.74,.08,.05,.34,3.07,.61,6.36,.28,3.3,.56,6.89,.7,8.07,.06,.29,.28,.51,.57,.68,.29,.18,.66,.3,1.01,.39,2.14,.3,4.99,.75,7.82,1.19,2.82,.45,5.61,.91,7.6,1.26,.44,.07,.75,0,.96-.15,.21-.16,.32-.41,.35-.71,.3-2.29,.73-5.55,1.11-8.34,.38-2.79,.7-5.12,.79-5.54,1.02,.18,3.08,.69,5.26,1.25,2.18,.56,4.46,1.14,5.91,1.47,.14,.47,.37,2.15,.65,4.55,.29,2.39,.62,5.5,.94,8.85v-.02c.34,3.38,.66,7,.92,10.34,.26,3.34,.46,6.4,.54,8.69l-2.45-.7-2.45-.69c-.7-.13-1.34,.05-1.82,.43-.47,.39-.76,.98-.77,1.68l.52,9.45,.53,9.45,4.01,1.75,4,1.74s.42,3.11,.92,7.5c.51,4.39,1.1,10.06,1.46,15.17-5-1.03-15.02-2.32-26.79-3.35-11.76-1.03-25.28-1.83-37.26-1.89-13.01-.28-25.07-.03-35.86,.51-10.8,.55-20.33,1.4-28.3,2.35-.89-.13-2.28,.02-3.46-.08-1.18-.09-2.14-.44-2.13-1.56,.44-1.33-.04-2.12-.6-2.92-.56-.8-1.19-1.6-1.07-2.91,.2-2.21-.41-2.58-1.03-2.95-.62-.37-1.24-.75-1.02-2.96,.2-2.2,.47-2.7,.74-3.2,.27-.5,.54-1,.75-3.2,.21-2.21-.04-2.29-.3-2.37m14.91-56.6l1.14,.26,1.15,.26,.99,5.33,.99,5.33-1.39-.09-1.39-.1-.75-5.49-.74-5.5Zm40.05-5.69l1.14,.31,1.14,.31,.96,6.49,.96,6.49-1.37-.04-1.37-.04-.73-6.76-.74-6.76Zm121.65,519.15l-19.02-11.91-19.05,11.86,5.45-21.77-17.16-14.44,22.39-1.54,8.44-20.8,8.38,20.82,22.38,1.6-17.21,14.4,5.39,21.78Zm-5.29-91.9l5.4,21.78-19.02-11.91-19.05,11.86,5.46-21.77-17.16-14.44,22.39-1.54,8.43-20.79,8.39,20.82,22.38,1.61-17.22,14.4Zm.1-70.11l5.39,21.79-19.02-11.92-19.06,11.86,5.46-21.77-17.16-14.44,22.39-1.54,8.43-20.8,8.39,20.82,22.39,1.61-17.22,14.39Zm.1-70.12l5.4,21.79-19.02-11.91-19.05,11.86,5.45-21.77-17.15-14.44,22.38-1.54,8.43-20.8,8.39,20.82,22.38,1.61-17.21,14.39Zm31.09-327.94l-.09,63.06-.15,103.12-.15,103.12c-5.59-1.22-16.58-3.54-26.18-5.56-9.6-2.03-17.81-3.74-17.81-3.74l-7.62-61.2-7.62-61.2c.26-.11,.5-.25,.74-.41,.24-.17,.47-.35,.69-.55h0v.02c.56-.51,1.03-1.1,1.35-1.67,.33-.58,.5-1.14,.46-1.59-.11-1.27-1.05-2.18-1.96-2.79-.91-.61-1.79-.91-1.8-.95l-4.05-32.76-4.05-32.76c-.03-.19-.05-.37-.07-.57-.02-.19-.04-.39-.06-.59v.05c-.41-4.51,.13-8.2,.77-10.77,.64-2.57,1.38-4.02,1.36-4.02-.03-.26-1.19-.67-2.38-1.03-1.19-.36-2.4-.67-2.55-.73-1.76-.43-3.94-.95-6.25-1.49-2.31-.55-4.75-1.11-7.07-1.62-.74,.14-1.58,.4-2.31,.63-.73,.24-1.36,.47-1.68,.56-.14,.74-.4,2.49-.61,4.07-.21,1.58-.39,2.97-.37,2.98,.02,0-2.53-.29-5.37-.62-2.84-.32-5.97-.69-7.12-.84-.2-1.2-.37-2.85-.52-4.48-.15-1.62-.28-3.23-.41-4.33-.05-.44-.13-.76-.29-.98-.17-.22-.41-.34-.79-.37-.53-.07-5.63-.5-10.72-.9-5.09-.41-10.19-.8-10.73-.8-.23,0-.48,.03-.7,.14-.22,.12-.4,.32-.46,.67-.13,.88-.34,2.56-.56,4.44-.22,1.87-.47,3.93-.68,5.55-1.2,.02-4.32,.23-7.33,.47-3.02,.24-5.91,.51-6.67,.62-.3-1.55-.58-3.32-.86-5.13-.28-1.8-.56-3.64-.85-5.3-.54-.12-1.5-.47-2.43-.8-.93-.33-1.85-.63-2.33-.66-.39-.03-1.85,.06-3.65,.19-1.81,.13-3.95,.3-5.7,.41,0-.23-.83-18.8-1.66-37.47-.84-18.67-1.68-37.44-1.76-38.09,.49-.15,1.17-.52,1.73-1.12,.57-.61,1.02-1.46,1.07-2.58-.09,.46-.39,.99-.86,1.42-.47,.42-1.13,.73-1.95,.73-.96,0-1.69-.52-2.18-1.13-.49-.62-.74-1.34-.72-1.76,.04-1.48,.81-2.33,1.73-2.71,.91-.38,1.96-.28,2.55,.13-.43-.41-.98-.66-1.47-.81-.48-.14-.93-.18-1.17-.19-1.56,0-2.61,.74-3.27,1.63-.66,.9-.92,1.94-.89,2.53,.04,.7,.26,1.59,.78,2.34,.52,.77,1.35,1.41,2.61,1.65,.01,.96-.02,19.54-.06,38.08-.04,18.54-.09,37.03-.12,37.81-3.45,.27-5.34,.37-6.42,.46-1.08,.09-1.34,.17-1.53,.4-.4,.39-.91,4.22-1.34,8.04-.42,3.83-.77,7.63-.81,7.97-1.17,.15-2.44,.32-3.81,.5-1.37,.18-2.82,.36-4.35,.57-.02,.08-.53-2.81-1.05-5.72-.51-2.91-1.02-5.86-1.03-5.91-.04-.29-.11-.5-.3-.67-.19-.17-.49-.29-1-.39-.86-.15-1.74-.34-2.77-.54-1.02-.2-2.2-.42-3.63-.62-.21-.04-3.33,.61-6.62,1.33-3.29,.73-6.76,1.53-7.68,1.81-.01,0-.2,.1-.39,.27-.19,.17-.37,.4-.37,.69l-4.4,40.22-4.4,40.21s-.95,.43-1.92,1.13c-.97,.7-1.96,1.67-2.05,2.76-.08,.97,.3,1.91,.85,2.71,.56,.8,1.29,1.46,1.92,1.88l-6.41,61.38-6.4,61.38s-8.26,1.52-17.95,3.57c-9.69,2.05-20.81,4.65-26.52,6.79l.24-166.49,.24-166.49,136.63,.19,136.64,.2-.09,63.05Zm7.24-63.04l139.11,.2,139.11,.2-.57,332.23c-15.75-4.2-30.16-7.67-46.32-10.41-16.16-2.74-33.95-4.74-56.21-6.02-3.63-5.64-7.08-12.08-9.57-19.21-2.5-7.14-4.04-14.99-3.86-23.46v-.02c.04-1.95,.17-3.94,.41-5.97,.24-2.02,.58-4.08,1.02-6.16,.24-.18,.71-.45,1.25-.68,.54-.23,1.15-.41,1.66-.41,2.4,0,2.28,.78,2.18,1.57-.12,.79-.23,1.58,2.17,1.58,2.41,0,2.86,.36,3.31,.73,.46,.37,.91,.73,3.31,.74,2.41,0,2.86-.44,3.31-.88,.45-.43,.91-.86,3.32-.87,2.41,0,2.85,.72,3.3,1.44,.45,.72,.89,1.44,3.3,1.45,2.41,0,2.76-1.45,3.09-3.04,.32-1.6,.62-3.35,2.93-3.98,2.32-.62,3.18-.07,4.05,.48,.86,.55,1.72,1.1,4.04,.47,2.33-.63,3.03-.62,3.62-.8,.59-.18,1.08-.57,3.01-2,1.93-1.44,1.92-2.53,1.9-3.62-.02-1.1-.03-2.19,1.9-3.61,1.93-1.44,2.57-1.31,3.05-1.33,.49-.02,.82-.19,2.12-2.22,1.29-2.04,2.15-2.25,3.01-2.45,.86-.21,1.72-.42,3.02-2.45,1.28-2.03,1.17-2.68,.84-3.41-.32-.73-.86-1.55-.42-3.91,.46-2.37,2.26-4.33,4.07-6.29,1.8-1.96,3.61-3.91,4.06-6.28,.46-2.36-.23-3.2-1.15-4.03-.92-.84-2.05-1.68-2.45-4.05-.42-2.38,.08-2.98,.59-3.58,.5-.61,1.01-1.21,.61-3.58-.39-2.27-.63-2.96-1.03-3.52-.4-.56-.95-.99-1.97-2.71v-.04c-.05-.08-.1-.17-.15-.25-.05-.09-.1-.18-.15-.28-1.16-2.1-1.76-2.3-2.34-2.48-.59-.19-1.18-.37-2.34-2.48-1.17-2.11-.96-2.98-.91-3.73,.05-.75-.06-1.38-1.85-3-1.77-1.62-2.31-1.69-2.84-1.75-.53-.07-1.06-.12-2.83-1.74-1.79-1.62-2.55-1.14-3.42-.51-.87,.64-1.84,1.44-4.06,.48-2.2-.96-1.88-2.85-1.56-4.74,.31-1.89,.63-3.79-1.57-4.74-.58-.24-1.06-.34-1.49-.34-.41,0-.76,.1-1.05,.26,.53-1.96-.13-2.45-.75-3-.61-.56-1.18-1.16-.46-3.36,.73-2.29,.91-2.59,1.08-2.9,.18-.3,.36-.61,1.09-2.9,.74-2.29,1.48-2.41,2.21-2.53,.73-.12,1.46-.24,2.19-2.53,.74-2.29,1.02-2.87,.99-3.47-.03-.6-.34-1.22-.78-3.58-.42-2.38-1.88-2.74-3.35-3.1-1.46-.36-2.92-.72-3.34-3.08-.43-2.37,.72-3.21,1.66-3.97,.95-.77,1.71-1.46,.47-3.53-1.23-2.06-2.27-2.08-3.31-2.1-1.04-.02-2.08-.04-3.31-2.12-.97-1.64-.74-2.72-.33-3.63,.41-.9,1-1.63,.71-2.55v.02c-.07-.24-.2-.48-.42-.75s-.51-.56-.9-.87c-1.85-1.52-2.34-1.78-2.83-2.03-.5-.25-.99-.51-2.84-2.03-1.88-1.52-2.1-2.59-2.43-3.47-.33-.88-.76-1.58-3.04-2.37-2.28-.79-3.98-3.04-4.93-5.66-.95-2.62-1.17-5.62-.49-7.93,.68-2.32,.6-2.56,.52-2.8-.07-.23-.15-.47,.53-2.78,.68-2.31,.56-2.86,.15-3.43-.4-.57-1.1-1.15-1.57-3.52-.48-2.36-.03-3.26,.43-4.17,.46-.9,.93-1.81,.46-4.17-.47-2.36-1.81-2.55-3.36-2.66-1.55-.1-3.34-.12-4.68-2.12-1.33-2-1.79-2.56-2.26-3.12s-.94-1.12-2.29-3.12c-1.33-2-.64-3.57-.1-4.99,.53-1.41,.89-2.66-1.1-4.01-1.99-1.35-2.75-1.55-3.5-1.74-.75-.2-1.51-.4-3.5-1.74-1.99-1.35-2.92-.61-3.95,.36-1.02,.96-2.14,2.15-4.51,1.67-2.37-.48-3.08-1-3.79-1.51-.71-.51-1.41-1.03-3.78-1.5-2.35-.48-2.87-.85-3.38-.99-.52-.13-1.03-.01-3.38,.47-2.36,.47-3.47-.97-4.57-2.42-1.11-1.44-2.21-2.88-4.58-2.42-2.35,.47-2.55,2.11-2.66,3.96-.12,1.85-.14,3.92-2.16,5.27-1.99,1.34-3.57,.29-5.15-.76-1.58-1.05-3.16-2.1-5.16-.76-2,1.34-2.71,2.14-3.27,3.1-.56,.96-.96,2.09-2.31,4.08,2.87,.58,3.92,2.32,3.92,4.43,0,2.1-1.06,4.55-2.42,6.55-1.35,1.99-3.51,3.76-5.43,5.62-1.93,1.85-3.64,3.8-4.12,6.16-.49,2.37-.26,2.92,.25,3.47s1.33,1.07,2,3.38c.67,2.32,.85,2.49,1.02,2.65,.18,.17,.36,.34,1.03,2.64,.68,2.32-.48,2.87-1.65,3.42-1.16,.55-2.32,1.1-1.65,3.42,.67,2.31,.72,2.51,.78,2.77,.06,.26,.13,.57,.88,3.08-2,.75-2.32,1.38-2.7,2s-.81,1.25-3.02,2.01c-2.28,.78-2.24,1.72-2.1,2.85,.14,1.13,.4,2.44-1.46,3.96-1.4,1.14-2.07,1.52-2.54,1.73-.47,.2-.76,.21-1.42,.6-.22,.13-.48,.31-.81,.54-.31,.24-.7,.53-1.16,.91-1.88,1.52-1.84,1.84-1.63,2.3,.2,.46,.57,1.06-.68,3.13-1.23,2.06-2.75,1.79-4.26,1.53-1.51-.26-3.02-.53-4.26,1.53-1.24,2.06-.74,2.79-.04,3.59,.69,.8,1.59,1.67,1.14,4.04-.42,2.37-1.49,2.8-2.54,3.23-1.06,.43-2.11,.86-2.54,3.23-.45,2.37-1.46,3.23-2.19,4.07-.72,.84-1.16,1.67-.43,3.96,.74,2.29,0,7.5-1.35,12.53-1.37,5.04-3.36,9.9-5.14,11.51-1.79,1.62-1.24,2.9-.68,4.17,.56,1.27,1.12,2.54-.65,4.15-1.79,1.62-3.29,1.1-4.62,.7-1.35-.41-2.53-.68-3.69,1.41-1.12,2-.59,2.9,.03,3.73,.62,.84,1.33,1.61,.57,3.36v.03c-.05,.09-.1,.19-.15,.29-.06,.1-.12,.2-.19,.31-1.14,2.11-2.62,2.26-3.9,2.48-1.29,.22-2.39,.51-2.8,2.88-.41,2.38,0,2.97,.42,3.55,.41,.59,.83,1.18,.42,3.55-.41,2.38-1.19,3.33-1.75,4.28-.57,.95-.91,1.89-.46,4.25,.47,2.36,.59,4.71,.72,7.05,.12,2.34,.25,4.69,.71,7.05,.47,2.36,.97,3.37,1.68,4.29,.71,.91,1.64,1.74,2.97,3.75,1.32,2,2.41,2.12,3.5,2.25,1.09,.13,2.18,.25,3.5,2.26,.68,1.02,1.08,1.7,1.38,2.2,.29,.5,.48,.82,.72,1.1,.22,.27,.47,.5,.93,.84,.46,.34,1.1,.78,2.07,1.46,1.98,1.38,3.12,.99,4.24,.59,1.13-.39,2.25-.78,4.22,.6,1.97,1.38,2.18,1.99,2.48,2.38,.3,.4,.69,.58,3.02,1.11,2.34,.53,2.83,1.83,3.32,3.13,.49,1.3,.97,2.6,3.32,3.14,1.18,.26,1.94,.45,2.5,.57,.55,.13,.9,.2,1.25,.24,.38,.03,.74,.03,1.31,.03,.57,0,1.35-.02,2.54-.02,2.42,0,2.88-.25,3.33-.5,.46-.25,.9-.5,3.31-.49,2.39,0,3.29-.84,4.15-1.67,.87-.84,1.72-1.67,4.03-1.68,.51,2.12,.88,4.22,1.14,6.27,.26,2.05,.41,4.05,.46,6v.05c.22,8.79-1.59,16.82-4.43,24.08-2.83,7.27-6.69,13.75-10.55,19.46-18.43,1.68-38.46,4.39-55.48,7.22-17.02,2.83-31.03,5.78-37.42,7.95l.48-332.2Zm111.13,242.06c-2.38-1.99-5.79-3.29-7.01-5.37-1.22-2.07-6.79-2.04-10.57-3.12-3.77-1.08-5.75-3.28,.25-9.81,1.62-1.78,.78-3.82-.78-5.93-1.55-2.11-3.81-4.3-5.03-6.37-1.21-2.08,1.34-2.97,3.89-3.87,2.55-.9,5.1-1.8,3.87-3.88-.41-.69-.63-1.35-.72-1.98-.09-.63-.06-1.23,.04-1.82v.02c.17-1.17,.59-2.28,.76-3.44,.17-1.17,.09-2.38-.72-3.76-1.21-2.08-.37-4.5-.69-5.83-.3-1.34-1.77-1.6-7.59,.64-5.17,1.29-6.46-1.3-6.46-4.21,0-2.91,1.3-6.14,1.3-6.14,6.14-1.28,7.09-4.79,7.08-8.16,0-3.37-.97-6.6,1.32-7.33,8.09-2.58,11.72-4.35,12.9-5.88,1.18-1.54-.12-2.83-1.89-4.45-3.54-3.23-2.57-8.08-.38-11.47,2.19-3.39,5.58-5.33,6.86-2.74,2.93,5.87,7.14,6.74,10.13,5.79,2.99-.95,4.76-3.71,2.82-5.12-3.46-2.5-4.27-4.65-3.75-6.54,.51-1.89,2.33-3.52,4.11-4.99v.02c1.22-1,2.42-1.93,3.18-2.8,.76-.87,1.07-1.69,.52-2.48-1.38-1.98-2.34-2.61-3.31-3.24-.96-.63-1.92-1.27-3.3-3.23-1.4-1.97,.42-3,2.26-4.02,1.83-1.03,3.67-2.05,2.28-4.02-1.4-1.97-3.16-2.16-4.5-2.45-1.34-.3-2.26-.7-1.99-3.1,.28-2.38,.4-3.61,.53-4.84,.12-1.23,.24-2.47,.5-4.86,.28-2.39,1.65-3.94,3.02-5.48,1.37-1.54,2.75-3.09,3.02-5.48,.27-2.39,1.45-2.65,2.63-2.9,1.17-.26,2.35-.51,2.63-2.91,.27-2.39,.84-2.64,1.38-2.88,.54-.24,1.06-.5,1.23-2.9,.15-2.4,2.02-1.3,3.89-.2,1.87,1.1,3.75,2.2,3.92-.2,.04-.53,1.27-.96,2.99-.92,1.72,.04,3.94,.56,5.93,1.91,1.99,1.35,3.27-.74,4.55-2.82,1.28-2.09,2.54-4.17,4.52-2.82,2.01,1.34,1.64,2.6,1.11,4.01-.53,1.41-1.23,2.99,.12,4.99,1.33,2,1.79,2.56,2.27,3.12,.47,.57,.94,1.13,2.29,3.13,1.35,2,3.13,2.02,4.68,2.12,1.56,.1,2.89,.3,3.36,2.66,.47,2.36,0,3.26-.46,4.18-.46,.9-.93,1.81-.46,4.17,.47,2.36,1.17,2.93,1.59,3.51,.42,.57,.54,1.12-.14,3.42-.68,2.31-.6,2.55-.53,2.79,.08,.24,.15,.48-.53,2.79-.68,2.31-.46,5.31,.49,7.93,.96,2.63,2.65,4.87,4.94,5.66,2.26,.79,2.69,1.49,3.02,2.37,.32,.88,.55,1.95,2.41,3.47,1.35,1.1,1.99,1.54,2.42,1.79,.43,.25,.66,.31,1.2,.65v.03c.22,.14,.48,.32,.82,.57,.34,.26,.75,.59,1.27,1.02,1.85,1.52,1.48,2.44,.93,3.5-.53,1.06-1.24,2.25-.03,4.32,1.24,2.06,2.28,2.09,3.34,2.1,1.05,.02,2.1,.04,3.32,2.1,1.23,2.07,.48,2.76-.48,3.53-.95,.76-2.1,1.6-1.66,3.97,.41,2.37,1.87,2.73,3.32,3.09,1.46,.36,2.92,.73,3.36,3.09,.43,2.37,.75,2.98,.78,3.58,.02,.6-.25,1.18-.99,3.47-.73,2.29-1.46,2.41-2.2,2.53-.73,.12-1.46,.24-2.21,2.53-.75,2.29-.93,2.59-1.1,2.9-.18,.31-.35,.61-1.08,2.9-.71,2.21-.15,2.81,.45,3.36,.62,.55,1.27,1.03,.76,2.99,.29-.16,.63-.26,1.05-.26,.42,0,.9,.09,1.46,.33,2.21,.96,1.9,2.85,1.58,4.74-.31,1.89-.63,3.79,1.58,4.74,2.22,.96,3.19,.15,4.06-.48,.86-.63,1.61-1.11,3.38,.51,1.79,1.62,2.33,1.68,2.87,1.74,.54,.07,1.07,.13,2.84,1.74,1.79,1.62,1.9,2.25,1.85,3-.05,.75-.25,1.62,.91,3.73,.44,.79,.79,1.31,1.1,1.66,.31,.35,.56,.54,.8,.65h0c.39,.2,.72,.2,1.13,.49,.41,.29,.91,.85,1.63,2.16,1.16,2.11,1.79,2.63,2.22,3.2,.44,.58,.69,1.23,1.11,3.6,.4,2.37-.92,2.38-2.25,2.39-1.32,0-2.65,.01-2.23,2.39,.41,2.38,1.78,4.49,2.94,6.59,1.16,2.11,2.1,4.22,1.64,6.58-1.88-1.02-3.07,1.02-4.13,3.66-1.06,2.65-1.97,5.9-3.29,7.32-4.54,4.83-8.51,8.68-11.59,10.76-3.07,2.09-5.26,2.41-6.22,.2-.96-2.21-3.56,.35-6.15,2.9-2.59,2.55-5.18,5.11-6.13,2.9-.97-2.21-2.6-2.16-4.22-2.11-1.62,.05-3.23,.1-4.19-2.11-.96-2.2-4.28-1.34-7.59-.48-3.32,.85-6.63,1.71-7.59-.5-.96-2.21-4.52-.06-8.09,2.09-3.56,2.15-7.12,4.3-8.09,2.09-.95-2.21-3.87-.63-6.79,.95-2.92,1.58-5.84,3.16-6.8,.96-.96-2.21-6.59-2.31-11.66-2.38-5.08-.07-9.6-.1-8.35-2.16,2.92-4.85,1.57-7.53-.81-9.52m14.38,51.24c1.18-8.41,1.89-16.34,2.33-19.83v.02c.08-.59,.15-1.05,.21-1.36,.06-.31,.1-.48,.16-.5,.17,0,.42,.43,1.18,.8,.76,.37,2.01,.7,4.2,.49-.07-.3,.07-.29,.35-.14,.28,.15,.69,.44,1.17,.7v-.03c.4,.23,.85,.42,1.28,.47,.43,.04,.86-.06,1.22-.43h0c.2-.26,.39-.61,.53-1.11,.14-.5,.25-1.13,.28-1.93,1.22-.15,2.44-.21,3.37-.22,.92-.02,1.54,.02,1.54,.04,.02,.07,.18,.62,.47,1.28,.29,.66,.69,1.44,1.18,1.95v.06c.1,.13,.22,.24,.34,.34,.13,.09,.25,.17,.37,.22,.24,.11,.45,.08,.64-.04,.19-.12,.37-.32,.54-.57v.02c.24-.37,.45-.84,.64-1.21,.2-.37,.37-.64,.54-.64,.28,0,1.03,.31,1.87,.7,.84,.39,1.74,.84,2.29,1.13h.26s.25-.02,.25-.02c.71-.45,.99-1.38,1.35-1.95,.36-.57,.8-.78,1.83,.24-.04,.29-.06,.57-.08,.86-.03,.29-.06,.58-.09,.88v-.03c-.64,9.88,1.54,18.26,4.22,25.34,2.67,7.07,5.83,12.84,7.14,17.48l-23.34-.12-23.35-.12c2.3-5.45,3.93-14.35,5.1-22.76m151.77,326.94c-.05,1.16-.13,2.31-.23,3.46-.72,8.71-2.78,17.04-5.97,24.77-3.19,7.74-7.51,14.89-12.76,21.24-7.69,9.37-17.36,17.04-28.37,22.35-11.01,5.31-23.35,8.28-36.39,8.26l-194.57-.28,.51-356.96,278.24,.4-.37,273.25c0,1.17-.03,2.34-.09,3.5m-21.79-168.4c-2.11-8.58-5.44-16.53-9.07-20.77,0,0-1.12-1.29-2.86-3.18-1.73-1.9-4.1-4.39-6.56-6.8v-.04c-1.52-1.51-3.09-3-4.58-4.29-1.49-1.29-2.91-2.39-4.1-3.14-3.75-2.3-9.3-2.39-15.07-2.31-5.77,.08-11.77,.35-16.44-1.22-15.48-5.21-30.35-8.62-41.36-10.74-11-2.12-18.14-2.93-18.14-2.93l-14.32-7.11-14.33-7.11c3.74-1.52,4.35-8.17,3.83-14.37-.54-6.2-2.23-11.95-3.11-11.7-1.57,.47-1.58,5.61-3.53,10.45-1.95,4.83-5.83,9.36-15.16,8.61-.3,.4-2.23-.79-4.83-2.13-2.6-1.34-5.87-2.83-8.86-3.03-2.97-.2-6.54,.54-9.37,1.33-2.82,.79-4.9,1.63-4.9,1.63-.93,.04-2.1,.09-3.54-.05-1.45-.14-3.17-.47-5.21-1.18-3.52-1.23-4.67-5.94-5.2-10-.53-4.05-.44-7.43-1.47-5.99-1.15,1.6-4.21,7.57-4.54,14.12-.34,6.54,2.05,13.66,11.76,17.51,0,0-.2,.29-.44,.84-.24,.55-.51,1.36-.64,2.4-.14,1.04-.17,2.28-.16,3.26,.01,.97,.04,1.7,.04,1.7l-2.32,9.07-2.33,9.07c-.12,.51-1.35,1.1-2.54,1.7-1.2,.59-2.37,1.19-2.37,1.71,0,.64,.04,1.26,.12,1.88,.08,.61,.2,1.21,.35,1.79v.03c.97,3.62,3.35,6.78,6.6,9.04,3.26,2.26,7.4,3.61,11.91,3.62,1.57,0,3.12-.15,4.6-.45,1.48-.3,2.9-.76,4.19-1.37l.06-.02,.05-.03c1.79-1.11,2.34,.92,2.56,3.95,.23,3.04,.11,7.08,.56,10.02,.25,1.69,.95,2.94,1.99,4.55,1.04,1.61,2.41,3.57,4.01,6.69,1.6,3.1,2.2,5.22,2.22,6.94,.03,1.72-.52,3.04-1.19,4.56-.98,2.19-.92,3.2-1.15,3.89-.23,.69-.73,1.05-2.85,1.92-.68,.28-1.26,.57-1.76,.89-.5,.31-.91,.65-1.25,1.01v-.02c-1.13,1.14-1.56,2.49-1.86,4.13-.3,1.65-.48,3.59-1.13,5.92-.81,2.87-2,5.71-2.19,7.84-.19,2.12,.62,3.53,3.8,3.54l45.28,.06,45.27,.07c1.18,0,.58,2.2,.7,4.39,.13,2.19,.96,4.38,5.04,4.39,7.93,.04,14.53-.04,20.94-.08,6.4-.04,12.6-.03,19.74,.2,4.19,.47,7.46,1.17,10.12,1.03,2.66-.14,4.71-1.13,6.45-4.03,2.01,.01,8.21-.19,14.57-3.61,6.36-3.42,12.9-10.06,15.59-22.92,.04-.1,.06-.2,.08-.31,.02-.1,.03-.22,.06-.35v.07c1.24-6.73,.35-15.94-1.76-24.52m-189.24-75.61c1.37-.78,4.44-1.9,7.47-2.23,3.02-.33,6,.14,7.2,2.52-2.69,.04-7.59,4.33-11.2,6.43-3.61,2.1-5.93,2.01-3.47-6.72m23.1,40.31c-1.52,.32-2.79,.62-3.92,1.13-1.14,.51-2.15,1.23-3.15,2.41-.12,.14-.24,.27-.36,.4-.12,.13-.24,.26-.36,.39v.02c-7.72,8.76-11.76,9.6-13.48,8.05-1.71-1.55-1.11-5.5,.46-6.31,.39-.19,.75-.45,1.06-.75s.57-.64,.77-1.02v.02c.5-.92,.52-1.96-.31-2.72-.84-.75-2.53-1.22-5.49-1.01l4.82-4.49,4.83-4.48c.73,.28,2.05-2.92,3.29-6,1.23-3.09,2.36-6.05,2.68-5.31,2.07,4.99,5.26,4.3,6.91,1.59,1.66-2.71,1.81-7.45-2.2-10.54l.64-.15,.64-.17c.64,.97,2.03,2.91,3.24,4.58,1.22,1.67,2.26,3.08,2.22,2.99-.09-.23,1.01,.12,2.2,.61,1.19,.5,2.45,1.13,2.67,1.49,3.15,3.38,2.93,7.87,1.14,11.67-1.79,3.8-5.16,6.93-8.31,7.61m44.64,7.95c-.35,1.08-1.02,2.04-2.09,2.8-4.84,3.72-10.12,8.92-13.48,14-3.36,5.08-4.79,10.03-1.94,13.23,3.1,3.47,6.2,7.43,8.55,11.24,2.36,3.81,3.96,7.48,4.1,10.36v.4c0,.96-.41,1.56-1.02,2.03-.61,.47-1.41,.82-2.23,1.3-1.06-1.15-5.26-2.69-10.77-3.28-5.5-.6-12.3-.26-18.58,2.34-.78-.57-1.35-1.09-1.74-1.56-.4-.47-.62-.9-.68-1.28v-.03c-.45-2.55,5.66-3.38,11.98-3.8,6.31-.42,12.81-.42,13.12-1.34,2.14-6.41-3.34-11.32-9.58-16.3-6.25-4.99-13.25-10.04-14.17-16.74-.63-4.82,1.24-7.87,3.86-10.3,2.63-2.44,6.02-4.27,8.4-6.65v.05c1.12-1.11,2.03-2.33,2.52-3.8,.51-1.47,.6-3.18,.1-5.24,2.37-6.46,7.82-6.56,12.92-3.86,5.09,2.7,9.85,8.18,10.83,12.9,.27,1.26,.26,2.47-.08,3.54m61.29,39.15c-1.14,2.54-1.64,4.86-1.81,6.96-.15,2.1,.03,3.97,.26,5.61v.02c.42,2.83,1.02,4.98,.31,6.42-.71,1.44-2.72,2.17-7.52,2.16-15.41,5.9-20.19,5.82-19.29,3.97,.9-1.85,7.47-5.49,14.79-6.7,1.44-.24,3.05-.85,4.52-1.82,1.46-.97,2.8-2.32,3.7-4.06v.04c.4-.75,.7-1.56,.91-2.44,.21-.89,.31-1.84,.28-2.87-.34-11.5,.79-25.2,5.55-35.13,4.76-9.93,13.14-16.1,27.32-12.56,5.02,1.25,11.83,10.4,16.84,18.64,5.01,8.24,8.22,15.57,6.04,13.19-4.02-4.4-10.01-7.42-14.99-9.36-4.99-1.94-8.97-2.79-8.97-2.85s-5.84,2.56-12.25,6.49-13.4,9.15-15.7,14.28m54.48,12.65v-.07c-.1,.95-.29,2.09-.61,3.4-.32,1.31-.78,2.78-1.43,4.38-1.88,3.93-5.06,6.68-8.71,8.34-3.66,1.67-7.8,2.25-11.62,1.84-.21-.33-.39-.62-.53-.86s-.25-.46-.32-.63c-.56-.25-.89-.55-1.18-.88-.29-.33-.56-.69-.97-1.07-2.62-2.3-6.25-1.49-9.24-.1-2.98,1.38-5.31,3.33-5.31,3.33,2.06-1.97,3.77-3.32,5.64-4.31,1.87-.99,3.9-1.6,6.65-2.09,2.49-.45,4.11-.17,5.31,.47,1.21,.64,1.99,1.65,2.8,2.67,1.49-.02,3.04,.26,4.82-.08,1.78-.34,3.79-1.3,6.21-3.78,1.5-1.55,2.92-3.46,4.15-5.35,1.23-1.89,2.27-3.75,3.03-5.2v-.06c.46-.89,.82-1.63,1.07-2.16,.25-.53,.39-.83,.39-.83,.02,0,.04,.28,.03,.79,0,.52-.05,1.28-.17,2.25m-14.69,145.48c-2.11-8.58-5.44-16.53-9.07-20.77,0,0-1.12-1.29-2.86-3.18-1.73-1.9-4.1-4.39-6.56-6.8v-.04c-1.52-1.51-3.09-3-4.58-4.29-1.49-1.29-2.91-2.39-4.1-3.14-3.75-2.3-9.3-2.39-15.07-2.31-5.77,.08-11.77,.35-16.44-1.22-15.48-5.21-30.35-8.62-41.36-10.74-11-2.12-18.14-2.93-18.14-2.93l-14.32-7.11-14.33-7.11c3.74-1.52,4.35-8.17,3.83-14.37-.54-6.2-2.23-11.95-3.11-11.7-1.57,.47-1.58,5.61-3.53,10.45-1.95,4.83-5.83,9.36-15.16,8.61-.3,.4-2.23-.79-4.83-2.13-2.6-1.34-5.87-2.83-8.86-3.03-2.97-.2-6.54,.54-9.37,1.33-2.82,.79-4.9,1.63-4.9,1.63-.93,.04-2.1,.09-3.54-.05-1.45-.14-3.17-.47-5.21-1.18-3.52-1.23-4.67-5.94-5.2-10-.53-4.05-.44-7.43-1.47-5.99-1.15,1.6-4.21,7.57-4.54,14.12-.34,6.54,2.05,13.66,11.76,17.51,0,0-.2,.29-.44,.84-.24,.55-.51,1.37-.64,2.41-.14,1.04-.17,2.27-.16,3.25,.01,.98,.04,1.7,.04,1.7l-2.32,9.07-2.33,9.07c-.12,.51-1.35,1.1-2.54,1.69-1.2,.59-2.37,1.19-2.37,1.72,0,.64,.04,1.26,.12,1.88,.08,.61,.2,1.21,.35,1.79v.03c.97,3.62,3.35,6.78,6.6,9.04,3.26,2.26,7.4,3.61,11.91,3.62,1.57,0,3.12-.15,4.6-.45,1.48-.3,2.9-.76,4.19-1.36l.06-.03,.05-.02c1.79-1.11,2.34,.92,2.56,3.95,.23,3.04,.11,7.08,.56,10.01,.25,1.7,.95,2.94,1.99,4.55,1.04,1.61,2.41,3.57,4.01,6.69,1.6,3.1,2.2,5.22,2.22,6.94,.03,1.72-.52,3.04-1.19,4.55-.98,2.19-.92,3.21-1.15,3.9-.23,.69-.73,1.05-2.85,1.92-.68,.28-1.26,.57-1.76,.89-.5,.31-.91,.65-1.25,1v-.02c-1.13,1.14-1.56,2.49-1.86,4.13-.3,1.65-.48,3.59-1.13,5.92-.81,2.87-2,5.71-2.19,7.84-.19,2.12,.62,3.53,3.8,3.54l45.28,.06,45.27,.07c1.18,0,.58,2.2,.7,4.39,.13,2.19,.96,4.38,5.04,4.39,7.93,.05,14.53-.03,20.94-.07,6.4-.04,12.6-.03,19.74,.2,4.19,.47,7.46,1.18,10.12,1.03,2.66-.14,4.71-1.13,6.45-4.03,2.01,.01,8.21-.19,14.57-3.61,6.36-3.42,12.9-10.06,15.59-22.92,.04-.1,.06-.2,.08-.31,.02-.1,.03-.22,.06-.35v.07c1.24-6.73,.35-15.94-1.76-24.52m-189.24-75.61c1.37-.78,4.44-1.9,7.47-2.23,3.02-.33,6,.14,7.2,2.52-2.69,.04-7.59,4.33-11.2,6.43-3.61,2.1-5.93,2.01-3.47-6.72m23.1,40.31c-1.52,.32-2.79,.62-3.92,1.13-1.14,.51-2.15,1.23-3.15,2.41-.12,.13-.24,.27-.36,.4-.12,.13-.24,.26-.36,.39v.02c-7.72,8.76-11.76,9.6-13.48,8.05-1.71-1.55-1.11-5.5,.46-6.31,.39-.19,.75-.45,1.06-.75s.57-.64,.77-1.02v.02c.5-.92,.52-1.96-.31-2.72-.84-.75-2.53-1.23-5.49-1.01l4.82-4.49,4.83-4.48c.73,.28,2.05-2.92,3.29-6,1.23-3.09,2.36-6.05,2.67-5.31,2.08,4.99,5.26,4.3,6.91,1.59,1.66-2.71,1.81-7.45-2.2-10.54l.64-.15,.64-.17c.64,.97,2.03,2.91,3.24,4.57,1.22,1.68,2.26,3.08,2.22,2.99-.09-.23,1.01,.12,2.2,.61,1.19,.5,2.45,1.13,2.67,1.49,3.15,3.38,2.93,7.87,1.14,11.67-1.79,3.8-5.16,6.93-8.31,7.61m44.64,7.95c-.35,1.08-1.02,2.04-2.09,2.8-4.84,3.72-10.12,8.92-13.48,14-3.36,5.08-4.79,10.03-1.94,13.23,3.1,3.47,6.2,7.43,8.55,11.24,2.36,3.81,3.96,7.48,4.1,10.36v.4c0,.96-.41,1.56-1.02,2.03-.61,.47-1.41,.82-2.23,1.3-1.06-1.15-5.26-2.69-10.77-3.28-5.5-.6-12.3-.26-18.58,2.34-.78-.57-1.35-1.09-1.74-1.56-.4-.47-.62-.9-.68-1.28v-.03c-.45-2.55,5.66-3.38,11.98-3.8,6.31-.42,12.81-.42,13.12-1.34,2.14-6.41-3.34-11.32-9.58-16.3-6.25-4.99-13.25-10.04-14.17-16.74-.63-4.82,1.24-7.87,3.86-10.3,2.63-2.44,6.02-4.27,8.4-6.65v.06c1.12-1.11,2.03-2.33,2.52-3.8,.51-1.47,.6-3.18,.09-5.24,2.38-6.46,7.82-6.56,12.92-3.86,5.09,2.7,9.85,8.18,10.83,12.9,.27,1.25,.26,2.46-.08,3.54m61.29,39.15c-1.14,2.54-1.64,4.86-1.81,6.96-.15,2.1,.03,3.97,.26,5.61v.02c.42,2.83,1.02,4.98,.31,6.42-.71,1.44-2.72,2.17-7.52,2.16-15.41,5.9-20.19,5.82-19.29,3.97,.9-1.85,7.47-5.49,14.79-6.7,1.44-.24,3.05-.85,4.52-1.82,1.47-.98,2.81-2.32,3.7-4.06v.03c.4-.74,.7-1.55,.91-2.43,.21-.89,.31-1.84,.28-2.87-.34-11.5,.79-25.2,5.55-35.13,4.76-9.93,13.14-16.1,27.32-12.56,5.02,1.25,11.83,10.4,16.84,18.64,5.01,8.24,8.22,15.58,6.04,13.2-4.02-4.4-10.01-7.42-14.99-9.36-4.99-1.94-8.97-2.79-8.97-2.85s-5.84,2.56-12.25,6.48c-6.41,3.92-13.4,9.15-15.7,14.29m54.48,12.65v-.07c-.1,.95-.29,2.09-.61,3.4-.32,1.31-.78,2.78-1.43,4.38-1.88,3.93-5.06,6.68-8.71,8.34-3.66,1.67-7.8,2.25-11.62,1.84-.21-.33-.39-.62-.53-.86-.14-.25-.25-.46-.32-.63-.56-.25-.89-.55-1.18-.88-.29-.33-.56-.69-.97-1.07-2.62-2.3-6.25-1.49-9.24-.1-2.98,1.38-5.31,3.33-5.31,3.33,2.06-1.97,3.77-3.33,5.64-4.31,1.87-.99,3.9-1.6,6.65-2.1,2.49-.44,4.11-.17,5.31,.47,1.21,.64,1.99,1.65,2.8,2.67,1.49-.02,3.04,.26,4.82-.08,1.78-.34,3.79-1.3,6.21-3.78,1.5-1.55,2.92-3.46,4.15-5.35,1.23-1.89,2.27-3.75,3.03-5.2v-.06c.46-.89,.82-1.63,1.07-2.16,.25-.53,.39-.83,.39-.83,.02,0,.04,.28,.03,.79,0,.52-.05,1.28-.17,2.25M362.24,390.54l9.49,.02h9.49c.71,.01,1.35,.3,1.82,.77,.47,.47,.75,1.11,.75,1.82l-.02,9.49v9.49c-.02,.7-.3,1.34-.77,1.81-.46,.46-1.11,.75-1.82,.75l-1.24-1.98-1.25-1.98-7.36-.02-7.36-.02v-7.25s.02-7.25,.02-7.25l-2.15-1.53-2.15-1.54c0-.71,.29-1.35,.75-1.82,.46-.46,1.1-.75,1.8-.75m-44.08,25.24l-3.34-1.14-3.35-1.14h-1.88s-1.87,0-1.87,0v-4.44s.01-4.44,.01-4.44l-1.46-3.15-1.47-3.15c0-.4,.12-.77,.29-1.06,.18-.29,.42-.48,.69-.51l6.21-1.94,6.2-1.95c.28-.03,.52,.1,.69,.34,.18,.24,.29,.59,.29,1l-.02,10.01-.02,10.01c0,.41-.11,.78-.29,1.07-.18,.29-.42,.48-.7,.52m103.41-198.91c1.03,.36,2.02,.32,2.75,.43,.73,.12,1.21,.39,1.21,1.38,0,.36-.17,.68-.47,.91-.32,.23-.79,.36-1.43,.36-.95,0-2.15-.17-3.57-.33-1.44-.16-3.1-.32-5-.33-1.85,0-3.52,.16-4.96,.32-1.45,.16-2.66,.32-3.61,.32-.63,0-1.11-.14-1.43-.39-.31-.25-.47-.61-.47-1.07,0-.91,.5-1.15,1.24-1.25,.74-.1,1.73-.05,2.73-.37,1.18-.36,1.78-.75,2.1-1.52,.31-.78,.34-1.95,.34-3.88v-9.92s.03-9.91,.03-9.91l.02-12.06,.02-12.06c0-.36-.12-.8-.31-1.13-.2-.34-.5-.59-.85-.59h-2.54c-1.85,0-3.32,.36-4.61,1.08-1.28,.72-2.4,1.81-3.53,3.25-1.08,1.8-1.83,3.24-2.48,4.23-.65,.99-1.22,1.53-1.93,1.53-.32,0-.57-.02-.74-.19-.17-.17-.26-.48-.26-1.06,0-.05,.05-.26,.12-.53,.07-.29,.16-.64,.24-1.01l1.14-4.6,1.14-4.61c.31-1.35,.47-2.5,.69-3.31s.53-1.28,1.12-1.28c.53,0,.78,.74,1.02,1.5,.24,.75,.49,1.52,1.03,1.57,.31,.31,.84,.52,1.55,.64,.71,.13,1.61,.18,2.69,.18,.86,0,1.83-.02,2.92-.05,1.08-.02,2.28-.04,3.59-.04h5.55s5.55,.02,5.55,.02c1.49,0,2.82,.05,3.99,.1,1.17,.04,2.18,.09,3.04,.1,.68,0,1.27-.02,1.75-.09,.48-.07,.87-.18,1.14-.36,.81-.5,1.31-1.4,1.72-2.17,.41-.78,.72-1.43,1.18-1.43,.36,0,.61,.28,.76,.61,.15,.34,.22,.74,.22,1.01v.98l-.28,5.96-.28,5.96c-.04,1-.14,1.63-.32,2.01-.19,.39-.48,.52-.93,.52-.82,0-1.21-.64-1.52-1.71-.31-1.07-.56-2.59-1.1-4.35-.81-1.94-1.87-3.05-3.41-3.68-1.55-.62-3.58-.76-6.34-.77h-1.44c-.36,0-.66,.2-.86,.48-.2,.28-.32,.64-.32,.97l-.02,12.2v12.2s-.03,9.91-.03,9.91v9.92c-.02,1.89,0,3.04,.32,3.82,.32,.78,.93,1.18,2.1,1.59m-184.69-10.81c.18,0,.38,.11,.54,.25,.16,.15,.27,.32,.27,.46,0,.06,0,.24-.01,.52-.01,.28-.04,.66-.09,1.11l-.46,4.24-.46,4.24c-.04,.41-.09,.72-.13,.97-.03,.25-.06,.43-.06,.57,0,.5-.17,.88-.46,1.14-.31,.26-.75,.39-1.34,.39-1.89,0-4.67-.21-8.3-.41-3.64-.21-8.13-.42-13.46-.43-2.34,0-4.22,.13-5.64,.26-1.42,.13-2.39,.27-2.93,.26-.63,0-1.11-.14-1.43-.39-.32-.25-.48-.61-.48-1.07,0-.85,.46-1.12,1.12-1.24,.67-.11,1.55-.07,2.42-.3,1.44-.35,2.16-.75,2.53-1.56,.36-.8,.36-2,.36-3.93l.02-9.92,.02-9.91v-10.75s.03-10.75,.03-10.75c0-1.36-.02-2.27-.26-2.9-.24-.63-.69-1-1.54-1.27-1.08-.36-2.05-.32-2.76-.41-.7-.09-1.13-.31-1.13-1.22,0-.36,.11-.68,.32-.91,.2-.23,.5-.36,.86-.36,.45,0,1.3,.18,2.66,.37,1.35,.18,3.21,.37,5.64,.37,2.7,0,4.78-.18,6.29-.36,1.51-.18,2.45-.36,2.91-.36,.41,0,.75,.14,1,.36,.24,.23,.37,.54,.37,.9,0,.81-.41,1.08-1.1,1.21-.69,.13-1.67,.1-2.79,.33-1.12,.21-1.71,.56-2.01,1.2-.31,.64-.34,1.59-.34,3.04l-.02,10.75v10.75s-.02,9.91-.02,9.91l-.02,9.92c0,1.93,.51,3.4,1.5,4.39,1,.99,2.46,1.49,4.35,1.49,1.95,0,3.64-.4,5.17-1.22,1.52-.82,2.87-2.06,4.14-3.73,1.35-1.8,2.28-3.31,2.99-4.36,.72-1.06,1.22-1.67,1.72-1.67m19.8,10.58c1.04,.32,2.03,.28,2.77,.4,.73,.13,1.21,.41,1.21,1.41,0,.36-.16,.68-.47,.91-.32,.23-.79,.36-1.43,.36-.54,0-1.51-.14-2.93-.28-1.42-.14-3.3-.28-5.64-.28-2.34,0-4.22,.13-5.65,.26-1.43,.13-2.39,.27-2.93,.26-.63,0-1.1-.14-1.41-.39-.32-.25-.48-.61-.48-1.07,0-.86,.45-1.13,1.12-1.24,.67-.12,1.55-.07,2.41-.3,1.44-.35,2.16-.75,2.53-1.56,.36-.8,.36-2,.36-3.93l.02-9.92v-9.91s.03-10.75,.03-10.75l.02-10.75c0-1.45-.04-2.35-.31-2.96-.27-.61-.77-.93-1.67-1.2-1.17-.31-2.23-.27-3-.37-.77-.1-1.24-.35-1.24-1.25,0-.36,.12-.68,.34-.91s.57-.36,1.01-.36,1.39,.18,2.87,.37c1.48,.18,3.49,.36,6.07,.37,2.57,0,4.55-.18,6.02-.35,1.46-.18,2.41-.36,2.9-.36,.41,0,.75,.13,.99,.36,.24,.23,.37,.54,.37,.91,0,.81-.41,1.08-1.1,1.21-.69,.13-1.66,.1-2.78,.33-1.13,.21-1.72,.55-2.03,1.2-.31,.64-.33,1.59-.33,3.04l-.02,10.75-.02,10.75v9.91s-.02,9.92-.02,9.92c0,1.89,.02,3.06,.32,3.85,.32,.79,.92,1.19,2.1,1.56m216.26,.23c-1.17-.77-1.95-1.77-2.6-3.09-.65-1.32-1.17-2.97-1.8-5.05l-2.69-8.51-2.7-8.51-4.08-12.97-4.09-12.97c-.4-1.26-.63-2.32-.91-3.07-.29-.75-.63-1.18-1.27-1.18-.48,0-.75,.2-.96,.58-.2,.37-.34,.91-.56,1.59l-4.34,14-4.34,14-2.87,9.28-2.87,9.27c-.5,1.62-.91,3-1.39,4.12-.49,1.11-1.05,1.97-1.87,2.55-.9,.67-2.03,.72-2.93,.83-.9,.12-1.58,.29-1.58,1.24,0,.36,.13,.66,.4,.87,.27,.2,.68,.32,1.22,.32,.63,0,1.46-.11,2.47-.23,1-.11,2.17-.23,3.48-.23,1.94,0,3.59,.14,4.91,.28,1.32,.14,2.31,.28,2.95,.28,.48,0,.88-.07,1.14-.24,.26-.17,.4-.43,.4-.84,0-.68-.3-1.08-.9-1.37-.6-.28-1.51-.45-2.72-.63-.81-.14-1.4-.29-1.79-.64-.38-.35-.56-.89-.56-1.79,0-.54,.11-1.4,.34-2.56,.23-1.16,.57-2.63,1.02-4.39l1.08-4.01,1.09-4.01c.05-.23,.21-.43,.41-.58s.41-.23,.59-.23h5.6s5.6,.02,5.6,.02c.36,0,.65,.02,.88,.12,.23,.1,.39,.28,.47,.59l1.76,5.78,1.74,5.78c.27,.95,.47,1.76,.61,2.43,.14,.68,.2,1.22,.2,1.62,0,.81-.18,1.35-.73,1.69-.55,.34-1.47,.47-2.96,.47-.55,0-1,.17-1.32,.42-.31,.26-.49,.62-.49,1.03s.1,.68,.35,.85c.25,.17,.63,.24,1.18,.24,.58,0,1.64-.11,3.18-.23,1.54-.11,3.57-.22,6.1-.21,1.81,0,3.32,.14,4.57,.28,1.25,.14,2.25,.27,3.01,.28,.68,0,1.16-.07,1.46-.26,.31-.19,.44-.51,.44-1.01,0-.54-.4-.74-1.02-.96s-1.46-.44-2.32-1.02m-18.2-21.33h-4.51s-4.51-.01-4.51-.01c-.18,0-.33-.07-.45-.17-.11-.1-.18-.24-.18-.37,0-.05,0-.17,.02-.32,.01-.15,.03-.36,.08-.59l.32-1.2,.32-1.2,1.81-6.79,1.81-6.78c.04-.22,.14-.4,.24-.52,.1-.12,.21-.19,.31-.19,.09,0,.18,.07,.27,.2,.09,.14,.18,.34,.26,.61l2.08,6.74,2.08,6.74,.35,1.11,.34,1.12c.05,.18,.1,.34,.13,.48,.04,.15,.05,.28,.05,.42,0,.19-.11,.37-.26,.5-.17,.14-.37,.23-.54,.23m-153.31-4.07h-.02c-.88-.68-1.85-1.27-2.93-1.74-1.07-.47-2.25-.84-3.52-1.1,3.02-1.13,5.24-2.61,6.69-4.57,1.46-1.95,2.16-4.36,2.16-7.34,0-4.88-1.88-8.36-5.65-10.62-3.78-2.26-9.44-3.3-16.98-3.31-5.6,0-9.82,.24-12.63,.7-2.82,.47-4.24,1.17-4.24,2.06,0,.4,.09,.72,.26,.94,.18,.22,.45,.33,.82,.33,.45,0,.94-.11,1.47-.23,.53-.11,1.1-.23,1.69-.23,.81,0,1.42,.27,1.82,.85,.41,.58,.61,1.46,.61,2.69l-.02,10.75-.02,10.75-.02,9.92v9.91c-.01,.5-.03,.89-.05,1.18-.02,.3-.04,.5-.04,.63,0,1.22-.21,2.19-.75,2.85-.54,.67-1.43,1.02-2.79,1.02-.75,0-1.3,.09-1.65,.31-.35,.21-.51,.55-.51,1.05,0,.46,.15,.82,.45,1.07,.29,.25,.73,.39,1.27,.39,.58,0,1.44-.13,2.57-.26s2.53-.27,4.19-.26c2.21,0,4.65,.34,7.35,.68,2.7,.35,5.65,.69,8.89,.69,5.11,0,9.33-1.71,12.28-4.62,2.95-2.92,4.62-7.05,4.63-11.87,0-2.79-.46-5.26-1.37-7.37s-2.23-3.87-3.98-5.25m-22.5-21.37c0-1.62,.16-2.7,.89-3.37,.73-.68,2.04-.95,4.34-.94,3.57,0,6.32,1.02,8.18,2.97,1.87,1.94,2.83,4.81,2.83,8.51,0,3.43-1.14,6.12-3.24,7.94-2.1,1.82-5.17,2.79-9.05,2.78h-1.18c-1.35,0-2.05-.04-2.41-.42-.36-.37-.37-1.07-.37-2.38v-7.54s.02-7.55,.02-7.55Zm7.23,47.23c-2.7,0-4.53-.55-5.67-1.67-1.15-1.12-1.62-2.82-1.62-5.11l.02-9.25v-9.25c.01-.09,.02-.18,.04-.26,.02-.09,.03-.18,.06-.28h.01c.09-.2,.23-.36,.41-.47,.19-.11,.41-.17,.67-.17h2.79s2.8,.01,2.8,.01c.74,0,1.46,.05,2.14,.14,.68,.1,1.33,.24,1.93,.43h.07s.07,0,.07,0c2.59,.76,4.56,2.25,5.88,4.33,1.33,2.08,2,4.74,1.99,7.83,0,4.38-1.12,7.81-3.12,10.14-2,2.33-4.9,3.57-8.47,3.57m218.33-25.57h.03c1.22,1.54,2.15,3.22,2.79,5.14,.63,1.92,.95,4.07,.95,6.56,0,5.28-1.84,9.86-4.93,13.12-3.09,3.26-7.45,5.19-12.51,5.18-3.97,0-7.31-.67-9.65-1.97-2.34-1.3-3.69-3.24-3.69-5.81,0-1.04,.04-2.03,.08-2.98,.04-.95,.09-1.85,.09-2.7,0-.68-.02-1.22-.04-1.61-.02-.39-.04-.64-.04-.74,0-.95,.14-1.65,.37-2.11,.24-.46,.57-.69,.98-.69,.81,0,1.11,.73,1.32,1.88,.21,1.15,.35,2.73,.84,4.45,.9,3.03,2.45,5.44,4.35,7.1,1.9,1.66,4.16,2.56,6.47,2.57,2.71,0,5.14-1.14,6.9-3.07,1.76-1.92,2.85-4.62,2.85-7.74,0-2.75-.85-5.2-2.56-7.43-1.71-2.24-4.27-4.28-7.69-6.23-.9-.51-1.78-1-2.63-1.49-.85-.48-1.67-.97-2.45-1.46h-.06c-2.34-1.53-4.34-3.17-5.74-5.42-1.4-2.25-2.21-5.11-2.21-9.07,.01-4.65,1.55-8.57,4.33-11.33,2.77-2.76,6.78-4.35,11.69-4.35,2.52,0,4.89,.44,6.73,1.01,1.84,.57,3.14,1.27,3.55,1.82,.23,.27,.41,1.23,.53,2.88,.13,1.65,.19,3.97,.18,6.95,0,.63-.11,1.1-.32,1.41-.2,.32-.5,.48-.87,.48-.62,0-.96-.43-1.3-1.24-.33-.81-.67-2.01-1.29-3.54-.94-2.39-1.89-4.24-3.14-5.5-1.24-1.25-2.77-1.92-4.9-1.92-2.66,0-4.83,.89-6.33,2.5-1.5,1.61-2.33,3.94-2.34,6.79,0,2.39,.67,4.24,2.06,5.87,1.38,1.63,3.47,3.03,6.31,4.52,2.45,1.29,4.63,2.54,6.52,3.87,1.88,1.33,3.48,2.72,4.75,4.29h.02Zm174.69,25.49c1.03,.32,2.02,.28,2.75,.4,.73,.12,1.21,.41,1.21,1.41,0,.36-.16,.68-.47,.91-.31,.23-.79,.36-1.43,.36-.54,0-1.5-.14-2.92-.28-1.41-.14-3.29-.28-5.64-.28-2.34,0-4.22,.13-5.65,.26-1.43,.13-2.4,.26-2.94,.26-.63,0-1.1-.14-1.41-.39-.32-.25-.48-.61-.48-1.07,0-.86,.46-1.13,1.13-1.24,.67-.12,1.55-.07,2.39-.3,1.45-.35,2.18-.76,2.55-1.56,.36-.8,.36-2,.36-3.94l.02-9.91v-9.91s.03-10.75,.03-10.75l.02-10.75c0-1.45-.05-2.35-.32-2.96-.28-.62-.78-.93-1.67-1.2-1.18-.32-2.23-.27-3-.37-.75-.1-1.22-.35-1.22-1.25,0-.36,.1-.68,.32-.91,.22-.23,.55-.36,.99-.36s1.41,.18,2.9,.37c1.49,.18,3.5,.36,6.07,.37,2.57,0,4.56-.18,6.02-.36,1.46-.18,2.41-.36,2.91-.35,.4,0,.74,.13,.98,.36,.24,.23,.37,.54,.37,.91,0,.81-.41,1.08-1.1,1.21-.69,.12-1.66,.1-2.8,.32-1.13,.22-1.71,.56-2.01,1.21-.3,.64-.32,1.59-.32,3.04l-.02,10.75-.02,10.75v9.91s-.02,9.92-.02,9.92c0,1.89,.01,3.06,.32,3.85,.31,.79,.92,1.2,2.1,1.56m-319.28-25.7l-.02,9.92v9.91c-.02,1.94-.02,3.13-.39,3.94-.36,.8-1.08,1.2-2.53,1.55-.86,.23-1.74,.19-2.4,.3-.67,.11-1.11,.38-1.11,1.23,0,.46,.15,.82,.47,1.07,.31,.25,.79,.39,1.42,.39,.54,0,1.51-.13,2.94-.26,1.41-.14,3.29-.27,5.63-.26,2.36,0,4.18,.14,5.53,.28,1.35,.14,2.23,.28,2.69,.28,.54,0,1-.13,1.31-.36,.32-.23,.5-.54,.5-.91,0-.54-.13-.92-.45-1.18-.31-.25-.81-.36-1.54-.36-1.94,0-2.93-.54-3.43-1.52-.51-.99-.53-2.4-.53-4.16l.02-8.89v-8.89c.01-.36,.13-.68,.34-.91s.5-.36,.86-.36h.89c1.4,0,2.35,.23,3.11,.86,.75,.62,1.31,1.64,1.94,3.23l4.05,10.24,4.06,10.24c.4,1,.65,1.75,1.01,2.25,.37,.5,.87,.75,1.77,.75,.68,0,1.33-.07,1.99-.13,.65-.07,1.3-.14,1.98-.13,1.05,0,2.03,.07,2.96,.14,.92,.07,1.78,.14,2.55,.14,.54,0,.92-.02,1.17-.15,.25-.12,.37-.35,.37-.77,0-.68-.46-.99-1.15-1.24-.7-.25-1.66-.43-2.65-.85-.58-.22-1.12-1.01-1.78-2.35-.65-1.34-1.42-3.24-2.45-5.69l-2.61-6.23-2.6-6.23c-.4-.96-.78-1.85-1.21-2.67-.43-.81-.91-1.55-1.52-2.19v-.02c-.15-.15-.31-.29-.46-.43-.16-.14-.32-.28-.5-.4,2.98-.67,5.39-2.34,7.07-4.74,1.67-2.4,2.6-5.53,2.6-9.14,.01-4.2-1.27-7.7-3.76-10.15-2.49-2.45-6.19-3.85-11.02-3.85-2.03,0-4.12,.13-6.28,.26-2.16,.13-4.36,.27-6.62,.26-1.58,0-2.89-.1-3.9-.19s-1.71-.19-2.07-.19c-.81,0-1.42,.02-1.83,.19-.4,.17-.61,.48-.61,1.07,0,.9,.47,1.16,1.23,1.26,.77,.1,1.83,.06,3.01,.37,.9,.28,1.4,.59,1.67,1.2,.28,.61,.31,1.52,.31,2.97l-.02,10.75v10.75m12.26-1.99c-1.54,0-2.58-.05-3.23-.34-.65-.28-.92-.8-.92-1.75v-8.57s.02-8.58,.02-8.58c0-1.49,.1-2.62,.71-3.37,.61-.75,1.74-1.13,3.81-1.13,2.94,0,5.2,1.2,6.71,3.34,1.52,2.14,2.31,5.21,2.31,8.95,0,3.75-.82,6.61-2.41,8.54-1.59,1.93-3.92,2.92-7,2.91m-54.47,1.93l.02-10.75v-10.76c.02-1.36,.02-2.26-.2-2.9-.21-.63-.63-.99-1.49-1.27-.99-.31-1.95-.26-2.67-.37-.72-.1-1.19-.35-1.19-1.25,0-.41,.14-.73,.39-.94,.26-.21,.64-.32,1.13-.32,.36,0,1.65,.09,3.89,.19,2.23,.1,5.41,.19,9.57,.2,5.28,0,9.41-.08,12.37-.17,2.95-.09,4.73-.18,5.32-.18,1.22,0,1.86,.2,2.19,.64,.33,.44,.35,1.12,.35,2.06v4.25s-.01,3.88-.01,3.88c0,.77-.05,1.33-.2,1.7-.15,.37-.4,.55-.81,.54-.8,0-1.1-.95-1.6-2.27-.5-1.32-1.19-3.01-2.82-4.5-1.21-1.13-2.72-1.99-4.55-2.57-1.82-.57-3.96-.87-6.45-.88-2.39,0-3.65,.31-4.33,1.16-.67,.85-.74,2.22-.74,4.34v7.45s-.02,7.45-.02,7.45c0,.77,0,1.21,.2,1.46,.2,.26,.61,.33,1.41,.33h2.04s2.03,0,2.03,0c1.85,0,3.54-.2,4.88-.5,1.34-.3,2.31-.7,2.72-1.11,1.22-1.17,1.54-2.54,1.79-3.62,.25-1.08,.43-1.88,1.38-1.87,.4,0,.67,.09,.84,.29,.17,.2,.24,.51,.23,.96,0,1.13-.11,2.46-.23,3.96-.12,1.5-.23,3.16-.24,4.98v.39c0,2.01,.07,3.63,.14,4.85,.06,1.22,.12,2.03,.12,2.43,0,.54-.11,.94-.31,1.22-.19,.27-.46,.4-.77,.4-.77,0-1.07-.7-1.4-1.84-.34-1.14-.71-2.72-1.66-4.48-.39-.73-.85-1.28-1.38-1.7-.53-.42-1.14-.7-1.83-.89h-.09c-.58-.17-1.23-.27-1.94-.32-.71-.06-1.49-.07-2.33-.07h-3.97c-.31,0-.57,.02-.78,.07-.21,.06-.37,.14-.5,.26v.05c-.13,.1-.21,.25-.27,.46-.06,.21-.07,.47-.07,.78v9.3s-.03,9.3-.03,9.3c0,2.48,.28,3.92,1.24,4.75,.96,.83,2.59,1.04,5.25,1.04,2.8,0,4.95-.18,6.74-.91,1.79-.73,3.24-2.02,4.64-4.23,1.08-1.66,1.81-3.21,2.44-4.35,.64-1.13,1.18-1.86,1.91-1.86,.18,0,.4,.14,.58,.31,.18,.17,.32,.37,.32,.51,0,0-.02,.15-.06,.43-.04,.29-.09,.69-.13,1.19l-.5,4.38-.5,4.38c-.14,1.4-.19,2.2-.53,2.64-.34,.44-.96,.53-2.28,.52-1.85,0-4.71-.19-8.56-.37-3.85-.19-8.67-.38-14.44-.39-2.67,0-4.71,.11-6.16,.22-1.45,.12-2.33,.23-2.7,.23-.68,0-1.17-.12-1.5-.36-.32-.24-.48-.6-.48-1.1,0-.81,.41-1.08,1.1-1.19,.68-.12,1.66-.07,2.78-.24,1.3-.19,1.98-.7,2.33-1.61,.35-.91,.37-2.22,.37-3.98l.02-9.91,.02-9.92m458.93-27.89c.64,0,1.11,.1,1.43,.3,.31,.2,.46,.52,.46,.97,0,.54-.2,.86-.63,1.04-.43,.18-1.08,.23-1.98,.23-1.89,0-2.88,.76-3.4,2.65-.52,1.89-.57,4.91-.57,9.43v6.96s-.02,6.97-.02,6.97v4.13s-.01,4.13-.01,4.13c0,3.12-.03,5.86-.36,8.32-.32,2.46-.95,4.65-2.13,6.68-1.25,2.16-3.15,3.85-5.6,4.99-2.44,1.14-5.45,1.75-8.92,1.74-3.84,0-7.05-.51-9.68-1.56-2.63-1.07-4.68-2.69-6.2-4.95-1.22-1.76-1.87-3.73-2.22-5.94-.35-2.21-.4-4.68-.4-7.44v-5.08s.01-5.08,.01-5.08l.02-10.75,.02-10.75c0-1.5-.01-2.41-.26-3-.25-.6-.74-.89-1.69-1.16-1.18-.37-2.22-.32-2.96-.41-.75-.09-1.19-.31-1.19-1.22,0-.36,.13-.68,.37-.9,.24-.23,.58-.36,.98-.36,.46,0,1.4,.19,2.87,.37,1.48,.19,3.48,.37,6.05,.37,2.58,0,4.58-.18,6.07-.35,1.48-.18,2.44-.36,2.9-.36s.77,.14,.99,.36c.21,.23,.32,.54,.32,.91,0,.95-.52,1.19-1.3,1.29-.79,.09-1.84,.02-2.92,.33-.9,.26-1.4,.58-1.67,1.19-.28,.61-.33,1.51-.33,2.96l-.02,10.76v10.75s-.02,4.99-.02,4.99v5c-.02,5.5,.51,9.7,2.25,12.52,1.73,2.82,4.66,4.27,9.44,4.28,2.4,0,4.51-.42,6.28-1.24,1.78-.81,3.23-2,4.31-3.53,1.08-1.62,1.65-3.51,1.94-5.78,.29-2.27,.31-4.91,.32-8.02v-8.18s.02-6.83,.02-6.83v-6.83c.01-3.43,0-6.03-.21-7.92-.21-1.9-.61-3.09-1.39-3.73-.8-.62-2.03-.63-3.03-.72-1.02-.09-1.83-.28-1.83-1.27,0-.41,.14-.72,.4-.94,.26-.21,.65-.33,1.16-.33,.54,0,1.3,.07,2.31,.14,1.01,.07,2.27,.14,3.8,.14,1.62,0,2.96-.07,4-.13,1.04-.07,1.78-.13,2.22-.13m-49.66-3.94c.37,0,.62,.27,.79,.61,.15,.34,.23,.75,.23,1.02v.98l-.28,5.96-.28,5.96c-.06,1-.14,1.63-.34,2.01-.2,.39-.49,.52-.95,.52-.81,0-1.19-.64-1.5-1.71-.31-1.07-.56-2.59-1.1-4.34-.81-1.95-1.87-3.06-3.42-3.68-1.54-.62-3.58-.77-6.31-.77h-1.45c-.37,0-.67,.2-.87,.48-.2,.28-.31,.64-.31,.97l-.02,12.19-.02,12.2v9.91s-.03,9.91-.03,9.91c0,1.89,.02,3.04,.34,3.83,.31,.78,.92,1.18,2.09,1.59,1.05,.36,2.05,.32,2.78,.43,.74,.11,1.21,.39,1.21,1.38,0,.36-.16,.68-.48,.9-.31,.23-.79,.36-1.41,.36-.95,0-2.15-.17-3.58-.33-1.44-.17-3.11-.32-5-.32-1.84,0-3.52,.15-4.96,.31-1.45,.16-2.68,.31-3.63,.31-.62,0-1.1-.14-1.41-.39-.32-.25-.48-.62-.48-1.07,0-.9,.5-1.14,1.25-1.24,.75-.1,1.74-.06,2.74-.37,1.17-.36,1.77-.74,2.1-1.52,.32-.78,.35-1.95,.35-3.89l.02-9.91v-9.92s.03-12.06,.03-12.06l.02-12.06c0-.36-.1-.79-.31-1.13-.2-.34-.5-.59-.88-.59h-1.26s-1.27,0-1.27,0c-1.84,0-3.3,.36-4.59,1.08-1.29,.72-2.39,1.81-3.53,3.25-1.08,1.79-1.83,3.24-2.49,4.23-.65,.99-1.23,1.53-1.95,1.53-.3,0-.54-.02-.72-.19-.17-.17-.26-.48-.26-1.06,0-.05,.04-.25,.11-.53,.07-.28,.16-.64,.26-1l1.12-4.61,1.12-4.61c.32-1.35,.49-2.5,.72-3.31,.23-.81,.53-1.28,1.12-1.28,.54,0,.79,.75,1.03,1.5,.24,.76,.48,1.53,1.02,1.58,.32,.31,.84,.52,1.56,.64,.72,.13,1.62,.17,2.7,.18,.85,0,1.81-.03,2.89-.05,1.08-.02,2.28-.05,3.6-.04h5.55s5.54,.02,5.54,.02c1.49,0,2.83,.05,4,.1,1.18,.04,2.21,.09,3.07,.09,.66,0,1.24-.02,1.73-.08,.48-.07,.88-.18,1.14-.37,.81-.5,1.31-1.4,1.72-2.17,.4-.78,.72-1.43,1.16-1.43m60.64,32.51l-.02,9.92v9.91c-.02,1.93-.02,3.13-.39,3.93-.36,.8-1.09,1.21-2.55,1.56-.84,.23-1.72,.19-2.39,.3-.67,.12-1.12,.39-1.13,1.24,0,.46,.16,.82,.48,1.07,.31,.25,.79,.38,1.41,.39,.54,0,1.52-.14,2.94-.26,1.42-.14,3.3-.27,5.65-.26,2.36,0,4.18,.14,5.53,.28,1.35,.14,2.23,.28,2.69,.28,.54,0,.99-.13,1.3-.36,.31-.23,.48-.54,.48-.91,0-.54-.13-.92-.45-1.18-.31-.25-.8-.36-1.51-.36-1.95,0-2.94-.54-3.45-1.52-.51-.99-.53-2.41-.53-4.16l.02-8.89v-8.89c.01-.36,.13-.68,.34-.91,.2-.23,.5-.36,.85-.36h.91c1.39,0,2.33,.23,3.09,.86,.75,.62,1.32,1.64,1.94,3.23l4.04,10.24,4.05,10.24c.4,1,.66,1.75,1.03,2.25,.38,.5,.88,.75,1.77,.75,.68,0,1.34-.07,1.99-.13,.66-.07,1.32-.14,1.99-.14,1.03,0,2.02,.08,2.94,.14,.92,.07,1.78,.14,2.53,.14,.54,0,.93-.02,1.19-.14,.25-.13,.37-.35,.37-.77,0-.68-.46-.99-1.16-1.24-.7-.25-1.65-.43-2.63-.85-.59-.22-1.13-1.01-1.78-2.35-.65-1.34-1.42-3.24-2.47-5.69l-2.61-6.23-2.61-6.23c-.39-.96-.75-1.85-1.19-2.67-.43-.81-.91-1.55-1.54-2.19v-.02c-.13-.14-.29-.29-.45-.42-.15-.14-.32-.28-.5-.4,2.98-.67,5.4-2.34,7.08-4.74,1.67-2.4,2.61-5.54,2.61-9.15,.01-4.2-1.28-7.69-3.77-10.14-2.5-2.45-6.2-3.85-11.01-3.86-2.03,0-4.12,.13-6.28,.26-2.16,.13-4.37,.26-6.64,.26-1.57,0-2.88-.1-3.89-.19-1.01-.1-1.71-.19-2.06-.19-.81,0-1.42,.03-1.83,.2-.4,.17-.61,.48-.61,1.07,0,.9,.47,1.16,1.24,1.25,.77,.1,1.82,.06,2.99,.37,.91,.28,1.41,.59,1.68,1.2,.27,.61,.31,1.51,.31,2.96l-.02,10.76v10.75m12.26-1.99c-1.54,0-2.58-.05-3.24-.34-.65-.28-.92-.8-.92-1.75v-8.58s.02-8.57,.02-8.57c0-1.49,.1-2.62,.72-3.37,.61-.75,1.74-1.13,3.82-1.13,2.92,0,5.18,1.2,6.7,3.34,1.52,2.14,2.32,5.21,2.31,8.95,0,3.74-.82,6.61-2.41,8.54-1.58,1.93-3.93,2.91-7.01,2.91m-265.72,1.63v-.2c.01-8.39,3.05-15.88,7.96-21.27,4.92-5.39,11.72-8.67,19.26-8.66,3.28,0,6.35,.53,8.73,1.21,2.39,.68,4.08,1.52,4.62,2.16,.32,.31,.61,1.3,.83,2.88,.22,1.58,.35,3.75,.35,6.42,0,.5-.08,.9-.21,1.18-.14,.28-.32,.44-.54,.44-.41,0-.81-.34-1.28-.96-.47-.62-1.01-1.52-1.69-2.66-1.62-2.66-3.24-4.72-5.04-6.11-1.8-1.39-3.79-2.12-6.14-2.12-4.85,0-9.21,2.74-12.38,7.58-3.16,4.84-5.13,11.77-5.17,20.14v.24c-.01,7.81,1.92,14.54,4.98,19.31,3.05,4.78,7.22,7.6,11.69,7.61,2.79,0,5.09-.76,7.04-2.3,1.96-1.54,3.57-3.86,4.97-6.98,.73-1.62,1.25-2.91,1.73-3.78,.47-.88,.9-1.35,1.46-1.35,.26,0,.51,.16,.69,.47,.18,.31,.29,.79,.29,1.42,0,.37-.07,1.21-.14,2.49-.07,1.29-.14,3.02-.15,5.19,0,2.08-1.61,4.02-4.35,5.43-2.75,1.41-6.63,2.31-11.17,2.31-7.56-.01-14.12-3.31-18.8-8.7-4.68-5.4-7.49-12.9-7.52-21.33v-.03Zm108.98-28.3c-1.99,0-3.74,.04-5.24,.08-1.5,.04-2.76,.08-3.79,.08h-.72s-.73,0-.73,0c-2.17,0-3.84-.07-5.03-.14-1.19-.07-1.89-.14-2.11-.14-.54,0-.97,.09-1.27,.3-.29,.2-.46,.52-.46,.97,0,.9,.46,1.16,1.2,1.27,.74,.12,1.76,.09,2.9,.45,.84,.28,1.32,.64,1.58,1.26,.26,.63,.31,1.51,.3,2.82l-.02,10.76v10.75s-.02,9.6-.02,9.6l-.02,9.6c0,2.03,0,3.4-.35,4.36-.34,.96-1.03,1.5-2.4,1.86-.78,.2-1.57,.18-2.19,.26-.62,.08-1.08,.27-1.2,.89-.25-.24-.69-.37-1.23-.56-.55-.18-1.2-.42-1.87-.87-1.17-.77-1.95-1.77-2.61-3.09-.65-1.32-1.17-2.97-1.81-5.05l-2.67-8.51-2.67-8.51-4.11-12.97-4.11-12.97c-.4-1.26-.62-2.32-.9-3.07-.28-.75-.62-1.18-1.25-1.18-.5,0-.77,.2-.97,.57-.2,.37-.34,.91-.56,1.59l-4.33,14-4.33,14-2.89,9.27-2.89,9.28c-.49,1.62-.9,3-1.39,4.11-.48,1.12-1.05,1.98-1.86,2.56-.9,.68-2.03,.72-2.93,.83-.9,.11-1.57,.3-1.58,1.24,0,.36,.14,.66,.41,.87,.27,.2,.67,.32,1.22,.32,.62,0,1.46-.11,2.47-.23,1.01-.11,2.19-.23,3.48-.23,1.95,0,3.59,.14,4.92,.28,1.32,.14,2.31,.28,2.93,.28,.51,0,.9-.07,1.16-.24,.26-.17,.4-.44,.4-.84,0-.68-.3-1.08-.89-1.37-.6-.29-1.5-.45-2.72-.64-.81-.14-1.4-.29-1.79-.64-.39-.35-.57-.9-.57-1.8,0-.54,.12-1.39,.36-2.56,.23-1.16,.58-2.63,1.04-4.39l1.08-4.01,1.09-4.01c.03-.23,.19-.43,.37-.58,.19-.14,.42-.23,.61-.23h5.6s5.6,.02,5.6,.02c.35,0,.65,.02,.88,.12,.23,.1,.39,.28,.47,.59l1.74,5.78,1.75,5.78c.27,.95,.47,1.76,.61,2.44,.13,.68,.2,1.22,.2,1.62,0,.81-.18,1.35-.73,1.69-.55,.34-1.48,.47-2.96,.47-.54,0-1,.15-1.32,.42-.32,.26-.51,.62-.51,1.03s.12,.68,.37,.85c.25,.17,.65,.24,1.18,.24,.58,0,1.63-.11,3.18-.23,1.55-.11,3.59-.22,6.12-.21,1.81,0,3.32,.14,4.57,.28,1.25,.14,2.24,.28,3,.28,.52,0,.93-.04,1.23-.15,.3-.11,.5-.29,.6-.56,.13,.23,.34,.41,.6,.53,.27,.12,.59,.18,.99,.18,.64,0,1.65-.15,3.01-.3,1.37-.16,3.09-.31,5.21-.31,2.27,0,4.12,.17,5.55,.32,1.43,.15,2.44,.31,3.03,.31s1.07-.15,1.39-.4c.33-.25,.51-.58,.51-.95,0-1.08-.51-1.33-1.31-1.44-.8-.1-1.88-.07-3.01-.57-.86-.4-1.31-.88-1.54-1.63-.23-.75-.25-1.79-.24-3.32v-8.44s.02-8.44,.02-8.44c0-.58,.02-1.01,.13-1.29,.12-.28,.31-.41,.69-.41,.08,0,.17,.02,.26,.05,.1,.04,.21,.09,.35,.14l.72,.31,.73,.32c1.08,.5,2.07,.9,2.99,1.18,.92,.29,1.79,.45,2.62,.45,1.54,0,3.03-.36,4.42-1.03,1.39-.67,2.66-1.65,3.76-2.89,1.27-1.43,2.31-3.19,3.04-5.21,.73-2.02,1.13-4.29,1.14-6.74,0-5.46-1.3-9.59-3.91-12.35-2.61-2.76-6.53-4.16-11.76-4.17m-40.86,32.25h-4.51s-4.51-.01-4.51-.01c-.17,0-.33-.07-.45-.17-.12-.1-.2-.24-.2-.37,0-.05,0-.17,.01-.32,.02-.15,.04-.36,.09-.58l.32-1.21,.32-1.19,1.8-6.79,1.81-6.79c.05-.22,.14-.4,.24-.52,.1-.12,.21-.19,.3-.19,.1,0,.19,.07,.29,.2,.09,.14,.18,.34,.29,.61l2.07,6.74,2.07,6.74,.35,1.12,.35,1.11c.03,.18,.08,.34,.11,.48,.03,.14,.06,.28,.06,.41,0,.19-.12,.37-.27,.51-.15,.13-.36,.22-.54,.22m35.61-25.31c0-1.58,.14-2.69,.74-3.4,.59-.72,1.66-1.03,3.5-1.02,2.18,0,4.23,1.35,5.74,3.73,1.5,2.37,2.46,5.76,2.45,9.82,0,3.74-.93,6.81-2.36,8.94-1.44,2.12-3.37,3.32-5.4,3.32-1.13,0-2.31-.32-3.19-.97-.9-.64-1.5-1.62-1.5-2.93v-8.75s.03-8.75,.03-8.75Zm216.92,782.45c-2.43-3.97-6.04-7.61-10.73-10.79-7.58-5.12-15.59-7.13-22.97-5.99-7.38,1.14-14.12,5.43-19.17,12.9-2.44,3.59-4.41,6.81-5.93,9.59-1.51,2.77-2.56,5.11-3.16,6.96v-.05c-.37,1.19-.56,2.17-.55,2.91,0,.75,.21,1.26,.61,1.54,.36,.25,.72,.35,1.03,.33,.31-.02,.57-.16,.72-.4,.32-.47,.46-1.05,.61-1.64,.14-.6,.31-1.23,.73-1.83,.46-.67,.95-.93,1.52-.89,.58,.04,1.27,.39,2.09,.95l18.29,12.37,18.29,12.37c1.7,1.14,2.73,1.84,3.21,2.63,.48,.78,.42,1.65-.1,3.12-.32,.88-.88,1.62-1.18,2.27-.29,.65-.32,1.21,.42,1.7,.39,.28,.8,.35,1.2,.22,.4-.13,.79-.46,1.17-1.01,.66-.99,1.22-2.12,1.84-3.31,.61-1.19,1.26-2.44,2.09-3.66,.94-1.38,2.17-2.78,3.51-4.34,1.34-1.57,2.8-3.3,4.18-5.35,2.05-3.04,3.57-6.07,4.56-9.05,1-2.98,1.48-5.92,1.45-8.78v-.02c-.03-4.49-1.3-8.78-3.74-12.75m-1.78,21.1c-.31,2.76-1.31,5.45-3.02,8-1.6,2.36-3.07,3.43-4.82,3.45-1.75,.02-3.78-1-6.48-2.84l-12.58-8.5-12.58-8.5-4.37-2.96-4.38-2.96c-1.54-1.04-2.55-1.96-2.72-3.29-.17-1.34,.5-3.09,2.33-5.8,3.29-4.84,8.43-7.27,14.41-7.36,5.98-.09,12.8,2.15,19.43,6.64,3.51,2.37,6.42,4.92,8.7,7.58,2.28,2.65,3.94,5.41,4.97,8.2v-.05c1.04,2.81,1.42,5.64,1.11,8.39m-36.92-54.43h0c.07-.97,.14-2.04,.2-3.2,.07-1.16,.12-2.42,.15-3.76,.21-5.55,.28-9.9,.3-13.01,.02-3.11-.02-4.99,0-5.6,.06-1.28,.29-1.94,.77-2.27,.48-.32,1.19-.31,2.18-.28h.37l4.1,.15,4.09,.15c.8,.04,1.39,.1,1.77,.28,.39,.17,.58,.43,.56,.86-.04,.85-1.05,1.12-2.45,1.6-1.41,.47-3.22,1.14-4.86,2.79-1.22,1.24-2.18,2.8-2.86,4.7-.67,1.9-1.06,4.14-1.16,6.76-.08,2.51,.2,3.85,1.07,4.58,.86,.74,2.31,.86,4.54,.94l7.83,.28,7.83,.28c.79,.03,1.27,.04,1.55-.16,.28-.2,.36-.62,.38-1.48l.09-2.13,.09-2.12c.07-1.95-.08-3.74-.35-5.16-.27-1.41-.66-2.44-1.06-2.9-1.19-1.32-2.63-1.7-3.76-2-1.13-.3-1.95-.52-1.92-1.52,.02-.42,.12-.7,.34-.87,.21-.17,.54-.23,1.02-.21,1.18,.03,2.58,.2,4.16,.38,1.57,.17,3.34,.36,5.24,.43,2.24,.08,4.03,.07,5.38,.05,1.35-.02,2.25-.06,2.66-.04,.58,.02,1,.14,1.28,.36,.28,.21,.41,.51,.41,.84-.04,.8-.78,1.08-1.99,1.39-1.21,.31-2.89,.65-4.78,1.59-1.45,.71-2.28,1.67-2.75,2.96-.48,1.29-.61,2.9-.68,4.9l-.07,2.08-.07,2.09c-.03,.66,.04,1.08,.3,1.35,.25,.27,.68,.38,1.36,.41l9.77,.36,9.77,.36c2.6,.09,4.13-.17,5.03-1.14,.9-.98,1.17-2.67,1.27-5.48,.13-2.94,.02-5.2-.69-7.12-.7-1.91-2-3.47-4.26-5.03-1.73-1.21-3.34-2.02-4.51-2.73-1.18-.71-1.9-1.3-1.87-2.06,0-.19,.15-.42,.34-.61,.19-.18,.41-.31,.54-.3,0,0,.17,.03,.46,.08,.29,.04,.72,.1,1.22,.17l4.58,.69,4.58,.69c1.47,.2,2.3,.27,2.75,.64,.45,.37,.53,1.04,.5,2.42-.07,1.92-.36,4.87-.69,8.81-.33,3.95-.7,8.9-.93,14.83v.02c0,.08-.01,.16-.02,.24-.01,.08-.02,.17-.02,.25-.08,2.8-.04,4.94,.01,6.47,.07,1.54,.15,2.47,.15,2.85-.03,.71-.18,1.23-.44,1.57-.26,.34-.64,.49-1.15,.47-.86-.03-1.13-.47-1.23-1.21-.09-.73,0-1.74-.15-2.94-.14-1.39-.65-2.12-1.61-2.52-.95-.4-2.33-.47-4.17-.54l-21.72-.79-21.72-.78c-1.41-.06-2.37-.09-3.05,.11s-1.08,.63-1.38,1.52c-.37,1.03-.37,2.05-.5,2.81-.14,.76-.42,1.25-1.37,1.21-.42-.02-.75-.17-.97-.45-.22-.28-.34-.69-.31-1.21,.02-.26,.09-.99,.2-2.18,.1-1.19,.23-2.85,.35-4.99v.02Zm.35-101.28h0c-.02-.2-.03-.4-.03-.57,0-.19,0-.36,0-.53,0-3.47,.56-6.69,1.28-9.2,.71-2.5,1.6-4.28,2.26-4.84,.34-.34,1.38-.65,3.03-.88,1.66-.23,3.93-.37,6.74-.36,.53,0,.96,.08,1.26,.21,.3,.13,.47,.32,.47,.57,0,.42-.37,.85-1.03,1.35-.66,.5-1.62,1.06-2.8,1.77-2.79,1.7-4.95,3.41-6.41,5.3-1.46,1.9-2.22,3.98-2.23,6.45v.73c.25,4.95,3.26,9.38,8.37,12.57,5.12,3.2,12.35,5.16,21.02,5.17,8.21,.01,15.29-2.02,20.32-5.23,5.03-3.21,8-7.6,8.01-12.3v-.13c-.03-2.92-.85-5.32-2.47-7.35-1.62-2.03-4.05-3.7-7.29-5.16-1.71-.77-3.06-1.31-3.98-1.81-.92-.5-1.43-.96-1.43-1.53,0-.29,.17-.54,.5-.73s.83-.3,1.51-.3c.37,0,1.24,.07,2.59,.14,1.35,.07,3.18,.14,5.46,.14,2.17,0,4.22,1.7,5.72,4.58,1.49,2.88,2.44,6.97,2.43,11.76v.25c-.09,7.93-3.62,14.78-9.34,19.67-5.72,4.88-13.64,7.77-22.51,7.76-8.62-.01-16.34-3.07-21.98-8.04-5.64-4.97-9.18-11.86-9.46-19.53v.05Zm1.92-46.17h0c-.05-.35-.09-.66-.12-.92-.03-.25-.05-.46-.05-.62,0-.42,.14-.78,.37-1.03,.23-.25,.57-.4,.95-.4,.71,0,1.02,.31,1.18,.83,.16,.53,.17,1.27,.27,2.16v-.02c.02,.18,.03,.36,.05,.55,.02,.18,.04,.37,.08,.57,.25,1.19,.61,1.81,1.29,2.12,.68,.32,1.68,.35,3.2,.35h8.64s8.64,.03,8.64,.03c.42,0,.73-.09,.92-.3,.2-.2,.29-.51,.3-.94v-2.36l.02-9.59v-9.59c.01-.38-.13-.67-.37-.86-.24-.19-.56-.29-.94-.29l-8.59-.02h-8.59c-1.52-.01-2.48,.01-3.12,.27-.64,.26-.99,.76-1.28,1.71-.32,1.23-.27,2.35-.38,3.16-.1,.8-.37,1.3-1.32,1.3-.39,0-.72-.12-.95-.36-.23-.24-.36-.59-.36-1.07s.19-1.47,.37-3.03c.19-1.55,.37-3.67,.38-6.37,0-2.71-.18-4.79-.36-6.34-.18-1.54-.36-2.54-.36-3.07,0-.42,.13-.78,.37-1.03,.23-.25,.56-.39,.95-.39,.84,0,1.12,.43,1.24,1.15,.13,.73,.1,1.74,.34,2.93,.25,1.19,.62,1.81,1.29,2.13,.68,.32,1.68,.34,3.2,.34l21.74,.03,21.75,.03c1.98,0,3.2,0,4.03-.3,.83-.31,1.26-.92,1.65-2.16,.34-1.09,.29-2.16,.42-2.95,.13-.79,.43-1.31,1.48-1.31,.39,0,.73,.19,.96,.54,.24,.36,.39,.88,.39,1.54,0,.58-.15,1.57-.29,3.04-.14,1.48-.29,3.42-.3,5.88,0,2.47,.14,4.44,.28,5.93,.14,1.49,.29,2.51,.29,3.08,0,.67-.15,1.19-.41,1.55-.27,.35-.66,.54-1.14,.54-.9,0-1.18-.48-1.29-1.17-.11-.7-.06-1.63-.29-2.53-.39-1.52-.82-2.28-1.66-2.67-.84-.38-2.09-.38-4.12-.39l-10.16-.02h-10.16c-.39-.01-.73,.09-.96,.28-.24,.19-.39,.48-.39,.86l-.02,9.59v9.59s-.02,1.18-.02,1.18v1.18c0,.37,.15,.69,.39,.9,.24,.21,.58,.33,.97,.33l10.16,.02,10.16,.02c1.98,0,3.2-.02,4.03-.35,.83-.33,1.27-.97,1.65-2.2,.06-.18,.1-.35,.14-.53,.03-.18,.07-.35,.1-.52v.02c.12-.88,.09-1.67,.26-2.23s.52-.91,1.4-.91c.39,0,.73,.17,.97,.5,.24,.34,.38,.84,.38,1.5,0,.13-.02,.3-.04,.5-.02,.2-.05,.43-.07,.68v-.03c-.08,.78-.21,1.82-.3,3.13-.1,1.31-.18,2.88-.19,4.73,0,2.47,.14,4.44,.28,5.93,.15,1.5,.29,2.52,.29,3.08,0,.67-.14,1.16-.41,1.5-.26,.33-.66,.5-1.14,.5-.9,0-1.17-.48-1.29-1.17-.11-.7-.06-1.62-.3-2.52-.39-1.52-.81-2.28-1.66-2.66-.84-.39-2.09-.39-4.12-.39l-21.74-.03-21.74-.03c-1.52,0-2.48,.04-3.13,.32-.64,.28-.99,.8-1.27,1.74-.32,1.24-.28,2.36-.39,3.16-.1,.81-.37,1.31-1.32,1.3-.39,0-.72-.12-.95-.35-.23-.24-.36-.59-.36-1.07s.19-1.47,.37-3.03c.19-1.55,.38-3.67,.39-6.37,0-1.87-.09-3.44-.21-4.74-.12-1.3-.25-2.33-.36-3.12m-.1-45.96h0c.04-.55,.22-1.58,.4-3.11,.18-1.54,.35-3.58,.36-6.18,0-2.7-.19-4.79-.39-6.33-.19-1.55-.38-2.54-.38-3.07,0-.42,.14-.78,.39-1.03,.24-.25,.58-.39,.97-.39,.84,0,1.12,.43,1.25,1.16,.13,.72,.1,1.74,.33,2.94,.25,1.18,.62,1.8,1.29,2.12,.68,.32,1.66,.35,3.17,.35l21.74,.03,21.74,.03c1.99,0,3.23-.02,4.06-.35,.84-.34,1.27-.97,1.66-2.21,.32-1.09,.28-2.13,.41-2.9,.13-.78,.45-1.27,1.5-1.27,.39,0,.73,.17,.96,.5,.24,.33,.39,.83,.39,1.5,0,.57-.15,1.59-.3,3.08-.14,1.5-.29,3.46-.29,5.93,0,2.47,.14,4.44,.28,5.93,.14,1.5,.29,2.52,.29,3.09,0,.06-.01,.1-.02,.15-.01,.05-.02,.1-.02,.15v-.04c-.04,.58-.2,1.01-.46,1.3-.26,.29-.62,.43-1.06,.43-.56,0-.88-.19-1.07-.5-.19-.31-.25-.75-.28-1.24-.03-.31-.06-.63-.08-.96-.03-.33-.07-.67-.15-1.01-.39-1.52-.82-2.28-1.66-2.66-.84-.39-2.1-.39-4.15-.39l-21.74-.03-21.74-.03c-1.51,0-2.45,.04-3.1,.33-.64,.29-.97,.81-1.27,1.76-.14,.55-.2,1.08-.25,1.56-.04,.49-.07,.93-.1,1.31v.03c-.04,.47-.13,.85-.32,1.12-.19,.26-.51,.42-1.03,.41-.39,0-.73-.12-.97-.35-.24-.24-.38-.59-.38-1.07,0-.02,0-.04,.02-.06,.01-.02,.02-.05,.02-.07v.02Zm56.07-55.1h0c-.42-.93-.98-1.79-1.68-2.61-.69-.81-1.53-1.57-2.51-2.3-1.89-1.43-3.48-2.41-4.6-3.15-1.11-.75-1.76-1.27-1.75-1.79,0-.19,.12-.41,.28-.57,.15-.17,.35-.29,.51-.29,.04,0,.24,0,.52,.02,.29,.01,.69,.04,1.16,.09l4.46,.48,4.46,.48c.42,.05,.75,.1,1.02,.14,.26,.03,.46,.06,.61,.06,.53,0,.93,.17,1.21,.49s.42,.79,.42,1.4c0,.89-.05,1.96-.11,3.21-.07,1.26-.17,2.69-.27,4.31v.05c-.13,1.98-.24,4.25-.34,6.81-.09,2.55-.15,5.39-.16,8.5,0,2.47,.13,4.44,.26,5.93,.13,1.5,.27,2.52,.27,3.08,0,.67-.14,1.17-.4,1.5-.26,.33-.64,.5-1.13,.5-.89,0-1.17-.48-1.28-1.18-.12-.7-.07-1.62-.3-2.53-.39-1.52-.81-2.28-1.67-2.67-.84-.38-2.1-.38-4.14-.39l-21.74-.03-21.74-.03c-1.42,0-2.37,.02-3.03,.27-.66,.25-1.04,.73-1.33,1.63-.37,1.14-.32,2.16-.42,2.9-.09,.73-.33,1.18-1.28,1.17-.39,0-.73-.12-.96-.33-.24-.21-.39-.52-.39-.9,0-.47,.2-1.38,.4-2.8,.2-1.42,.39-3.36,.4-5.93,0-2.85-.19-5.03-.37-6.62-.2-1.59-.39-2.59-.39-3.06,0-.43,.15-.79,.39-1.03,.24-.25,.58-.39,.96-.39,.85,0,1.13,.42,1.25,1.15,.12,.72,.1,1.74,.34,2.92,.24,1.18,.61,1.81,1.29,2.12,.67,.32,1.66,.35,3.16,.35l21.74,.03,21.74,.03c2.05,0,3.59-.54,4.63-1.58,1.04-1.05,1.56-2.59,1.57-4.58,0-.91-.08-1.78-.25-2.59-.18-.81-.44-1.59-.79-2.31v.03Zm-52.7-55.47h4.07s4.07,.01,4.07,.01c.81,0,1.41,.05,1.82,.2,.4,.15,.59,.41,.59,.85,0,.85-1,1.16-2.39,1.68-1.39,.52-3.18,1.25-4.75,2.96-1.18,1.27-2.09,2.86-2.7,4.78-.61,1.92-.92,4.18-.93,6.79,0,2.52,.34,3.84,1.23,4.54,.9,.7,2.34,.77,4.58,.77l7.83,.02h7.82c.81,.01,1.29,.01,1.56-.2,.27-.21,.34-.64,.34-1.49v-4.28c0-1.93-.2-3.71-.52-5.11-.31-1.4-.74-2.42-1.18-2.85-1.23-1.29-2.68-1.62-3.81-1.89-1.14-.26-1.97-.45-1.97-1.44,0-.43,.09-.72,.3-.9,.22-.18,.54-.25,1.02-.25,1.2,0,2.6,.12,4.18,.24,1.57,.12,3.32,.24,5.21,.24,2.23,0,4.04-.07,5.4-.13,1.36-.07,2.26-.14,2.69-.14,.57,0,1,.12,1.29,.32,.29,.2,.43,.49,.43,.83,0,.8-.74,1.11-1.94,1.47-1.21,.35-2.87,.76-4.72,1.75-1.42,.75-2.21,1.75-2.64,3.05-.43,1.3-.51,2.92-.52,4.9v4.18c0,.67,.1,1.1,.36,1.35,.26,.26,.69,.35,1.35,.35l9.77,.02,9.77,.02c2.63,0,4.14-.3,5.01-1.31,.87-1.01,1.08-2.71,1.08-5.52,0-2.94-.18-5.19-.94-7.08-.77-1.89-2.12-3.41-4.45-4.88-1.76-1.14-3.39-1.9-4.6-2.57-1.19-.67-1.95-1.24-1.95-2,0-.19,.14-.43,.32-.62,.19-.19,.41-.33,.56-.32,0,0,.16,.02,.45,.06,.29,.03,.72,.08,1.24,.13l4.6,.53,4.6,.53c1.49,.14,2.32,.19,2.79,.54,.46,.36,.56,1.02,.56,2.4,0,1.94-.2,4.96-.4,9-.2,4.05-.4,9.13-.41,15.2,0,2.8,.11,4.93,.23,6.46,.12,1.53,.24,2.45,.24,2.83,0,.71-.13,1.23-.37,1.58-.25,.35-.63,.52-1.16,.52-.84,0-1.12-.43-1.24-1.16-.12-.73-.08-1.74-.28-2.94-.18-1.38-.73-2.09-1.68-2.45-.96-.37-2.34-.39-4.2-.39l-21.74-.03-21.74-.03c-1.42,0-2.37,0-3.03,.23-.67,.23-1.04,.68-1.33,1.58-.34,1.04-.29,2.06-.39,2.82-.1,.75-.36,1.25-1.31,1.25-.42,0-.75-.15-.99-.42-.24-.27-.36-.67-.36-1.18,0-.39,.1-1.74,.21-4.1,.1-2.35,.21-5.7,.22-10.06,0-5.55-.09-9.9-.19-13.01-.09-3.12-.19-4.99-.19-5.61,0-1.28,.22-1.94,.69-2.28,.47-.34,1.19-.36,2.19-.36h.37Zm-363.7,404.73h0l.8,2.53,.8,2.54c.66,2.19,1.2,3.92,1.89,5.31,.69,1.39,1.52,2.44,2.75,3.24,.89,.62,1.77,.85,2.43,1.08,.66,.23,1.08,.44,1.08,1.01,0,.52-.14,.85-.47,1.06-.32,.2-.83,.28-1.53,.27-.81,0-1.85-.14-3.18-.29-1.32-.15-2.91-.29-4.81-.3-2.65,0-4.79,.11-6.42,.23-1.62,.11-2.74,.23-3.36,.23-.57,0-.98-.08-1.24-.25-.25-.18-.37-.46-.37-.88s.19-.81,.52-1.08c.33-.27,.8-.44,1.38-.44,1.57,0,2.55-.14,3.13-.49,.59-.36,.78-.92,.78-1.77,0-.43-.07-1-.21-1.72-.14-.72-.36-1.57-.65-2.58l-1.16-3.85-1.17-3.86-.67-2.21-.67-2.22c-.09-.33-.26-.52-.5-.63-.24-.1-.54-.13-.92-.13h-5.89s-5.88-.02-5.88-.02c-.19,0-.43,.09-.64,.25-.2,.15-.37,.37-.41,.59l-.59,2.17-.59,2.17-.56,2.06-.56,2.06c-.48,1.84-.84,3.38-1.08,4.6-.24,1.22-.35,2.12-.35,2.7,0,.95,.19,1.51,.59,1.88,.41,.36,1.02,.53,1.87,.69,1.29,.18,2.23,.35,2.86,.64,.62,.3,.92,.73,.92,1.44,0,.42-.14,.7-.41,.89-.27,.18-.68,.26-1.19,.26-.67,0-1.71-.15-3.1-.3-1.39-.15-3.12-.3-5.16-.3-1.38,0-2.61,.12-3.67,.24-1.06,.13-1.93,.24-2.59,.24-.58,0-1-.12-1.28-.34-.28-.21-.42-.53-.42-.9,0-.99,.72-1.18,1.66-1.3,.95-.12,2.14-.17,3.09-.89,.85-.61,1.45-1.51,1.96-2.69,.51-1.17,.94-2.61,1.47-4.32l1.02-3.34,1.03-3.34,6.56-21.15,6.56-21.15c.24-.71,.37-1.28,.58-1.68,.21-.39,.5-.61,1.02-.61,.67,0,1.02,.46,1.32,1.24,.3,.78,.53,1.9,.96,3.24l6.34,20.07,6.34,20.07Zm54.47,.08c-.07,2.28-.23,4.36-.6,6.27-.39,1.92-.99,3.68-1.95,5.34-1.33,2.28-3.32,4.06-5.89,5.26-2.58,1.2-5.74,1.84-9.4,1.83-4.03,0-7.4-.53-10.16-1.66-2.76-1.12-4.92-2.83-6.53-5.2-1.12-1.61-1.79-3.4-2.18-5.38-.39-1.98-.51-4.16-.54-6.56v.03c-.01-.36-.02-.72-.02-1.07v-1.09l.02-16.66,.03-16.64c0-1.57-.02-2.53-.3-3.16-.26-.63-.79-.94-1.78-1.23-1.23-.38-2.33-.34-3.11-.43-.79-.1-1.27-.34-1.27-1.28,0-.38,.15-.71,.4-.95,.25-.23,.61-.37,1.03-.37,.48,0,1.48,.19,3.03,.39,1.55,.19,3.66,.39,6.36,.39,2.7,0,4.82-.19,6.37-.37s2.55-.37,3.03-.37,.83,.14,1.07,.37c.23,.24,.35,.57,.35,.95,0,1-.55,1.26-1.38,1.35-.83,.09-1.94,.02-3.08,.35-.95,.29-1.48,.62-1.76,1.26-.29,.64-.34,1.59-.34,3.12l-.02,16.57-.03,16.57c0,.4,0,.8,.01,1.19,0,.39,.01,.77,.02,1.16v-.02c.15,5.03,.89,8.86,2.75,11.44,1.86,2.57,4.85,3.9,9.53,3.9,2.52,0,4.73-.45,6.59-1.3,1.87-.85,3.38-2.11,4.53-3.72,.87-1.31,1.43-2.78,1.78-4.47,.35-1.69,.5-3.59,.56-5.76v-.04c.02-.63,.03-1.31,.04-2.02,0-.71,.01-1.45,.01-2.22l.02-11.49,.02-11.49c0-3.61-.02-6.34-.24-8.32-.23-1.99-.66-3.25-1.47-3.92-.85-.67-2.13-.67-3.2-.77-1.07-.1-1.92-.29-1.92-1.34,0-.42,.14-.75,.42-.97,.28-.23,.68-.34,1.21-.34,.56,0,1.37,.07,2.43,.14,1.07,.07,2.4,.14,4.02,.14,1.71,0,3.11-.06,4.19-.13,1.09-.07,1.87-.13,2.34-.13,.68,0,1.17,.09,1.5,.31,.33,.21,.49,.54,.49,1.01,0,.57-.21,.91-.66,1.1-.45,.19-1.13,.24-2.08,.23-2,0-3.04,.8-3.59,2.8-.55,1.99-.6,5.17-.61,9.91l-.02,11.68-.02,11.69c0,.73,0,1.43,0,2.12,0,.69-.02,1.37-.04,2.01m48.65,.07c-.13,5.41-2.1,10.09-5.34,13.42-3.25,3.32-7.77,5.29-13.01,5.29-4.18,0-7.69-.7-10.16-2.07-2.47-1.37-3.9-3.41-3.89-6.12,0-1.09,.06-2.14,.1-3.13,.05-1,.1-1.95,.1-2.85,0-.7-.02-1.27-.05-1.69s-.04-.68-.04-.77c0-.47,.03-.89,.09-1.24,.07-.36,.15-.65,.28-.89,.12-.28,.27-.48,.45-.62s.38-.2,.6-.2c.27,0,.49,.08,.67,.22,.18,.14,.31,.35,.42,.61,.25,.56,.37,1.39,.52,2.39,.15,1,.33,2.18,.68,3.42,.94,3.18,2.58,5.72,4.58,7.47,2.01,1.75,4.38,2.7,6.8,2.7,2.83,0,5.4-1.19,7.25-3.23,1.85-2.03,3-4.87,3.01-8.15,0-.81-.07-1.6-.2-2.36-.14-.76-.35-1.5-.63-2.22-.73-1.84-1.93-3.54-3.59-5.16-1.66-1.61-3.79-3.13-6.37-4.59-3.85-2.2-7.29-4.01-9.76-6.65-2.48-2.65-3.98-6.14-3.98-11.69,.01-4.89,1.63-9.03,4.54-11.93,2.92-2.91,7.12-4.58,12.29-4.58,2.65,0,5.14,.46,7.07,1.06,1.93,.6,3.31,1.34,3.74,1.92,.24,.28,.43,1.3,.55,3.03,.13,1.73,.19,4.18,.18,7.31,0,.66-.12,1.16-.33,1.49-.21,.34-.52,.51-.89,.51-.68,0-1.03-.46-1.39-1.32-.35-.85-.7-2.11-1.38-3.73-.99-2.52-1.99-4.47-3.29-5.78-1.3-1.32-2.92-2-5.15-2-2.79,0-5.06,.94-6.64,2.63-1.58,1.69-2.46,4.13-2.47,7.13,0,2.51,.7,4.45,2.16,6.16,1.45,1.71,3.66,3.19,6.65,4.77,5.07,2.66,9.03,5.21,11.72,8.43,2.69,3.22,4.11,7.12,4.11,12.47v.54Zm35.73,.06h0v4s-.01,4-.01,4c0,2,.02,3.21,.35,4.03,.34,.82,.97,1.24,2.21,1.66,1.1,.39,2.14,.34,2.9,.46,.77,.12,1.25,.41,1.25,1.46,0,.38-.17,.7-.49,.94-.32,.23-.81,.37-1.48,.37-1.01,0-2.27-.17-3.78-.33-1.51-.16-3.25-.32-5.25-.32-1.94,0-3.7,.15-5.22,.31-1.52,.17-2.81,.32-3.8,.32-.66,0-1.16-.14-1.5-.4-.33-.26-.5-.64-.5-1.12,0-.95,.52-1.21,1.31-1.32,.79-.1,1.84-.06,2.88-.39,1.23-.37,1.87-.78,2.2-1.6,.32-.82,.34-2.06,.35-4.1v-4s.01-4,.01-4l.03-19.11,.03-19.12c0-.38-.12-.83-.33-1.19-.21-.36-.51-.62-.89-.62h-2.67c-1.94,0-3.48,.37-4.83,1.13-1.35,.77-2.5,1.9-3.69,3.42-1.15,1.89-1.94,3.41-2.63,4.45-.69,1.05-1.28,1.61-2.04,1.61-.34,0-.6-.03-.78-.2-.18-.18-.28-.51-.27-1.12,0-.05,.05-.26,.13-.56,.07-.3,.16-.68,.24-1.06l1.21-4.84,1.21-4.84c.32-1.42,.48-2.63,.72-3.48,.24-.86,.55-1.35,1.18-1.35,.56,0,.81,.79,1.08,1.58,.26,.79,.52,1.6,1.08,1.66,.34,.33,.89,.54,1.63,.67,.75,.13,1.7,.18,2.83,.18,.89,0,1.92-.02,3.05-.04,1.14-.02,2.41-.04,3.78-.03h5.85s5.85,.02,5.85,.02c1.55,0,2.96,.05,4.2,.1,1.23,.04,2.31,.09,3.2,.09,.72,0,1.33-.02,1.84-.09,.51-.07,.91-.19,1.2-.37,.85-.52,1.36-1.47,1.79-2.29,.42-.82,.75-1.51,1.23-1.51,.39,0,.64,.29,.81,.65,.17,.36,.23,.79,.23,1.07v1.03l-.3,6.26-.3,6.26c-.03,1.05-.13,1.71-.32,2.11-.2,.4-.52,.54-.99,.54-.85,0-1.25-.67-1.59-1.79-.34-1.13-.59-2.72-1.14-4.57-.86-2.04-1.97-3.2-3.6-3.86-1.62-.65-3.76-.8-6.67-.8h-.75s-.74,0-.74,0c-.39,0-.7,.21-.92,.51-.21,.3-.33,.68-.33,1.01l-.03,19.26-.03,19.25Zm50.79,.07l-1.54-3.87-1.53-3.87c-.66-1.67-1.25-2.74-2.04-3.39-.8-.65-1.79-.89-3.26-.9h-.95c-.39,0-.7,.14-.91,.37-.21,.23-.33,.56-.33,.95v5.34s-.02,5.35-.02,5.35v4s-.01,4-.01,4c0,1.86,.02,3.36,.55,4.4,.53,1.03,1.58,1.61,3.63,1.61,.77,0,1.28,.12,1.6,.38,.32,.26,.46,.66,.46,1.23,0,.38-.19,.71-.51,.94-.34,.24-.81,.38-1.38,.38-.47,0-1.39-.15-2.81-.29-1.42-.14-3.34-.29-5.81-.29-2.47,0-4.44,.13-5.93,.28-1.5,.13-2.52,.28-3.09,.28-.66,0-1.16-.14-1.49-.41-.33-.25-.51-.64-.51-1.12,0-.89,.48-1.18,1.18-1.29,.7-.12,1.63-.07,2.55-.31,1.52-.36,2.28-.79,2.66-1.64,.38-.85,.39-2.11,.39-4.15v-4s.01-4,.01-4l.03-17.73,.03-17.73c0-1.52-.05-2.48-.34-3.12-.29-.64-.81-.97-1.76-1.27-1.23-.33-2.35-.29-3.16-.4-.8-.11-1.3-.37-1.3-1.32,0-.62,.21-.95,.64-1.12,.43-.18,1.07-.19,1.94-.19,.37,0,1.11,.09,2.16,.19,1.06,.09,2.43,.19,4.09,.19,2.37,0,4.69-.13,6.96-.27,2.26-.13,4.47-.27,6.6-.26,5.09,0,8.98,1.48,11.6,4.06,2.62,2.58,3.97,6.26,3.96,10.67,0,3.8-.99,7.09-2.75,9.62-1.77,2.53-4.31,4.28-7.45,5,1,.71,1.71,1.59,2.31,2.6,.59,1.01,1.07,2.15,1.6,3.38l1.62,3.87,1.62,3.87,1.11,2.68,1.11,2.68c1.1,2.56,1.9,4.56,2.59,5.97,.69,1.41,1.25,2.23,1.86,2.48,1.05,.43,2.04,.62,2.78,.88,.74,.26,1.21,.59,1.21,1.3,0,.43-.12,.67-.38,.8-.26,.13-.67,.14-1.24,.14-.8,0-1.7-.07-2.67-.14-.97-.08-2.02-.14-3.12-.15-.71,0-1.39,.07-2.08,.14-.68,.08-1.37,.14-2.08,.14-.95,0-1.47-.26-1.86-.78-.39-.52-.65-1.3-1.07-2.35l-2.73-6.9-2.73-6.9Zm30.77,.04h0l6.56-21.15,6.56-21.15c.24-.71,.38-1.28,.58-1.67,.21-.39,.49-.61,1.01-.61,.66,0,1.02,.45,1.32,1.24s.54,1.9,.98,3.24l6.33,20.07,6.32,20.07,.79,2.54,.79,2.54c.68,2.18,1.23,3.91,1.91,5.31,.69,1.39,1.51,2.43,2.75,3.24,.91,.62,1.79,.85,2.44,1.08,.65,.22,1.08,.43,1.08,1,0,.53-.15,.86-.47,1.07-.32,.2-.82,.27-1.53,.27-.81,0-1.85-.15-3.16-.29-1.32-.14-2.91-.29-4.82-.3-2.65,0-4.79,.12-6.42,.23-1.63,.12-2.75,.23-3.35,.23s-.98-.07-1.24-.25c-.26-.18-.38-.46-.38-.89,0-.42,.2-.8,.53-1.07,.34-.28,.81-.44,1.37-.44,1.58,0,2.55-.14,3.15-.5,.58-.35,.78-.92,.78-1.76,0-.43-.07-1.01-.23-1.72-.14-.71-.36-1.57-.65-2.58l-1.16-3.86-1.16-3.85-.67-2.22-.67-2.21c-.1-.33-.28-.52-.51-.63-.24-.11-.53-.14-.91-.14h-5.9s-5.9-.02-5.9-.02c-.18,0-.42,.09-.62,.25-.2,.15-.36,.36-.4,.59l-.59,2.17-.6,2.17-.56,2.06-.57,2.06c-.47,1.84-.83,3.37-1.07,4.6-.24,1.22-.36,2.12-.36,2.7,0,.95,.19,1.51,.59,1.88,.41,.36,1.02,.54,1.87,.69,1.28,.18,2.23,.35,2.87,.64,.63,.3,.95,.73,.95,1.44,0,.42-.14,.71-.42,.89-.28,.18-.68,.26-1.21,.26-.68,0-1.72-.15-3.11-.3-1.39-.15-3.12-.3-5.14-.3-1.39,0-2.61,.12-3.68,.24-1.06,.12-1.93,.24-2.61,.24-.58,0-1-.13-1.28-.34-.28-.21-.41-.53-.41-.9,0-1,.71-1.19,1.66-1.3,.95-.12,2.13-.17,3.08-.89,.85-.61,1.44-1.51,1.95-2.69,.52-1.17,.95-2.61,1.47-4.32l1.04-3.34,1.03-3.34Zm50.27,.07h0l.03-17.73,.03-17.74c0-1.43-.02-2.38-.28-3.04-.25-.67-.72-1.05-1.61-1.33-1.15-.39-2.17-.34-2.91-.43-.74-.1-1.18-.34-1.18-1.28,0-.38,.12-.71,.34-.94,.21-.24,.51-.37,.89-.37,.49,0,1.39,.19,2.81,.39,1.43,.19,3.37,.39,5.94,.39,2.84,0,5.03-.18,6.62-.37,1.59-.19,2.58-.37,3.05-.37,.42,0,.78,.14,1.03,.37,.25,.24,.39,.57,.39,.94,0,.86-.42,1.14-1.14,1.28-.72,.13-1.73,.11-2.91,.34-1.21,.24-1.82,.59-2.14,1.27-.31,.68-.33,1.67-.34,3.2l-.02,17.73-.03,17.73v4s-.01,4-.01,4c0,2.04,.53,3.58,1.57,4.63,1.03,1.03,2.58,1.57,4.57,1.57,2.05,0,3.83-.42,5.43-1.29,1.6-.88,3.02-2.18,4.34-3.94,1.44-1.89,2.42-3.48,3.16-4.6,.74-1.11,1.26-1.76,1.78-1.76,.19,0,.4,.12,.56,.28,.17,.15,.28,.35,.28,.48,0,.05,0,.24,0,.54-.01,.3-.03,.7-.06,1.18l-.48,4.46-.48,4.46c-.06,.42-.1,.74-.15,1.01-.04,.26-.06,.45-.06,.59,0,.51-.18,.92-.5,1.19-.32,.28-.8,.43-1.4,.43-1.99,0-4.92-.23-8.75-.45-3.82-.22-8.55-.44-14.15-.45-2.47,0-4.44,.14-5.93,.28-1.5,.14-2.52,.28-3.1,.28-.66,0-1.16-.14-1.49-.4-.34-.26-.5-.64-.5-1.12,0-.9,.48-1.18,1.19-1.3,.7-.12,1.63-.07,2.53-.3,1.52-.37,2.28-.8,2.66-1.65,.38-.85,.39-2.11,.39-4.15v-4s.01-4,.01-4Zm-37.96-27.09c-.1-.28-.19-.49-.29-.63-.09-.14-.19-.21-.29-.21-.08,0-.2,.07-.31,.2-.11,.13-.21,.32-.26,.56l-2.25,8.4-2.24,8.4c-.04,.24-.06,.45-.06,.61,0,.17,0,.28,0,.33,0,.14,.06,.29,.18,.4,.12,.11,.28,.18,.46,.18h4.75s4.75,.01,4.75,.01c.19,0,.4-.09,.56-.24,.17-.14,.29-.34,.29-.52,0-.15-.02-.29-.04-.45-.03-.15-.08-.32-.13-.51l-2.55-8.27-2.56-8.27Zm-53.64,9.81c0,.99,.28,1.54,.97,1.83,.69,.3,1.78,.35,3.39,.36,3.23,0,5.7-1.04,7.36-3.07,1.66-2.03,2.52-5.05,2.53-8.99,0-3.94-.81-7.17-2.42-9.41-1.6-2.25-3.97-3.5-7.06-3.51-2.19,0-3.37,.4-4.01,1.19-.64,.79-.73,1.98-.74,3.56v9.02s-.02,9.02-.02,9.02Zm-196.42-10.17c-.1-.28-.2-.49-.3-.63-.09-.14-.19-.21-.28-.21-.09,0-.21,.07-.32,.2-.11,.13-.21,.32-.26,.56l-2.25,8.4-2.24,8.4c-.04,.24-.07,.45-.08,.61-.01,.17-.01,.29-.01,.34,0,.14,.07,.29,.19,.4,.12,.11,.29,.18,.47,.18h4.74s4.76,.01,4.76,.01c.19,0,.4-.1,.56-.24,.16-.14,.28-.33,.28-.52,0-.14-.02-.29-.06-.44-.03-.15-.08-.32-.12-.51l-2.55-8.27-2.55-8.27Zm-77.52,13.95c.01-9.16-2.8-16.93-7.87-22.41-5.07-5.48-12.4-8.67-21.42-8.69-7.17,0-12.77,.43-16.58,1.19-3.81,.75-5.83,1.82-5.84,3.05,0,.43,.12,.79,.31,1.03,.19,.25,.45,.39,.73,.39,.57,0,1.12-.21,1.7-.42,.58-.21,1.2-.42,1.91-.42,.81,0,1.31,.26,1.61,.78,.29,.51,.39,1.27,.39,2.25l-.03,18.08-.03,18.07v4s-.01,4-.01,4c0,2.04,0,3.3-.39,4.14-.37,.85-1.13,1.28-2.65,1.65-.91,.24-1.83,.19-2.53,.31-.7,.12-1.18,.4-1.18,1.29,0,.48,.16,.86,.5,1.12,.32,.26,.82,.41,1.48,.41,1.19,0,2.45-.16,3.78-.32,1.33-.16,2.73-.32,4.19-.32,1.67,0,3.52,.24,5.57,.48,2.05,.24,4.3,.48,6.77,.48,6.98,.01,12.84-1.57,17.45-4.52,4.61-2.94,7.98-7.24,9.98-12.67l-.02,.03c.71-1.9,1.25-3.94,1.61-6.12,.36-2.17,.55-4.47,.55-6.88m-10.2,6.68c-.34,2.25-.84,4.34-1.49,6.27v-.03c-1.54,4.52-3.92,8.09-6.98,10.53-3.07,2.44-6.81,3.75-11.08,3.74-2.85,0-4.55-.62-5.55-2.05-.99-1.43-1.27-3.68-1.27-6.97v-2.63s0-2.63,0-2.63l.03-17.82,.03-17.83c0-1.86,.19-3.22,1.2-4.11,1.01-.89,2.83-1.32,6.11-1.31,5.84,0,10.73,2.91,14.15,7.82,3.42,4.91,5.39,11.82,5.38,19.85,0,2.53-.18,4.92-.52,7.16m-46.86,20.9c-.65-.23-1.53-.46-2.43-1.08-1.23-.81-2.06-1.85-2.75-3.24-.69-1.39-1.23-3.13-1.89-5.31l-.79-2.54-.8-2.54-6.34-20.06-6.34-20.07c-.42-1.34-.66-2.46-.95-3.25-.3-.79-.65-1.24-1.32-1.24-.52,0-.8,.21-1.02,.61-.21,.4-.35,.96-.59,1.67l-6.56,21.15-6.56,21.15-1.03,3.34-1.02,3.34c-.53,1.7-.96,3.15-1.47,4.32-.51,1.17-1.1,2.07-1.96,2.69-.95,.72-2.14,.77-3.09,.89-.95,.12-1.66,.31-1.66,1.3,0,.37,.15,.68,.43,.9,.29,.21,.71,.34,1.28,.34,.67,0,1.54-.12,2.6-.24,1.06-.12,2.29-.24,3.67-.24,2.04,0,3.77,.15,5.16,.3,1.39,.15,2.43,.3,3.09,.3,.53,0,.93-.08,1.21-.26,.28-.18,.42-.47,.42-.89,0-.71-.31-1.14-.95-1.44-.63-.29-1.58-.46-2.85-.64-.85-.15-1.48-.32-1.88-.69s-.59-.94-.59-1.88c0-.57,.12-1.48,.36-2.7,.24-1.22,.59-2.76,1.07-4.6l.56-2.06,.57-2.06,.58-2.17,.58-2.17c.05-.23,.21-.43,.42-.59,.2-.15,.44-.25,.63-.25h5.88s5.88,.02,5.88,.02c.38,0,.69,.03,.92,.14,.23,.11,.4,.3,.49,.63l.67,2.21,.67,2.22,1.17,3.85,1.17,3.86c.29,1.01,.5,1.87,.64,2.58,.15,.72,.22,1.29,.22,1.72,0,.84-.2,1.41-.78,1.76-.58,.35-1.55,.5-3.12,.5-.58,0-1.06,.17-1.39,.44-.34,.28-.53,.65-.53,1.08s.12,.7,.38,.88c.26,.18,.67,.25,1.24,.25,.62,0,1.73-.12,3.36-.23,1.62-.12,3.76-.23,6.41-.23,1.9,0,3.49,.15,4.81,.3,1.32,.14,2.36,.29,3.17,.29,.71,0,1.21-.07,1.54-.27,.32-.2,.46-.54,.47-1.06,0-.57-.43-.78-1.08-1.01m-21.01-23.75c-.17,.14-.37,.24-.56,.24h-4.75s-4.75-.01-4.75-.01c-.19,0-.36-.08-.47-.18-.12-.11-.19-.25-.19-.4,0-.06,0-.17,.01-.34,.01-.17,.03-.37,.07-.61l2.25-8.4,2.24-8.4c.06-.24,.15-.43,.26-.56,.1-.13,.23-.2,.31-.2,.09,0,.19,.07,.29,.21,.1,.14,.19,.35,.29,.63l2.55,8.27,2.55,8.27c.05,.19,.09,.35,.13,.51,.03,.15,.06,.3,.06,.44,0,.18-.12,.37-.29,.52m-119.32-46.37h0l15.31-9.54,15.31-9.54c1.29-.8,2.06-1.34,2.46-1.92,.39-.58,.4-1.19,.14-2.15-.37-1.22-1-2.15-1.33-2.88-.34-.74-.37-1.3,.42-1.82,.32-.2,.67-.28,1-.2,.32,.08,.64,.3,.88,.71,.25,.41,.62,1.35,1.28,2.77,.66,1.41,1.62,3.31,3.05,5.6,1.44,2.3,2.7,3.97,3.67,5.18,.98,1.21,1.66,1.95,1.93,2.4,.23,.36,.3,.74,.23,1.07-.07,.34-.28,.63-.61,.84-.72,.45-1.19,.24-1.67-.31-.5-.54-1.01-1.42-1.84-2.3-.84-.88-1.46-1.22-2.21-1.13-.74,.08-1.6,.59-2.9,1.39l-9.51,5.92-9.49,5.92-8.95,5.58-8.96,5.58c-1.69,1.05-2.72,1.72-3.25,2.44-.53,.72-.56,1.49-.23,2.74,.3,1.1,.89,1.96,1.18,2.68,.29,.72,.3,1.31-.58,1.87-.31,.2-.69,.24-1.07,.08-.37-.16-.77-.51-1.11-1.08-.31-.48-.73-1.42-1.4-2.76-.67-1.34-1.6-3.09-2.9-5.19-1.3-2.09-2.47-3.68-3.37-4.88-.91-1.19-1.57-1.99-1.88-2.48-.35-.56-.5-1.05-.45-1.47,.05-.42,.29-.76,.69-1.02,.76-.48,1.25-.23,1.72,.31,.47,.53,.92,1.35,1.6,1.98,1.12,1.1,1.89,1.51,2.81,1.39,.92-.12,1.99-.79,3.72-1.87l3.14-1.96,3.14-1.95Zm83.52,23.41c-2.16-7.14-7.34-13.23-15.44-17.19-3.11-1.51-5.94-2.79-8.46-3.81-2.52-1.02-4.72-1.8-6.58-2.33v.05c-1.88-.52-3.41-.78-4.56-.79-1.15-.01-1.93,.24-2.29,.73v-.05s-.04,.07-.07,.1c-.02,.03-.04,.06-.06,.1-.19,.38-.24,.75-.18,1.05,.07,.31,.24,.54,.5,.68,.51,.25,1.08,.3,1.7,.36,.62,.07,1.26,.14,1.89,.46,.73,.35,1.06,.81,1.1,1.4,.05,.59-.2,1.32-.63,2.21l-9.7,19.81-9.71,19.82c-.9,1.84-1.45,2.97-2.16,3.56-.71,.59-1.58,.63-3.12,.3-.91-.18-1.72-.63-2.4-.83-.68-.2-1.22-.15-1.62,.67-.21,.42-.23,.83-.04,1.21,.18,.38,.57,.73,1.16,1.02,1.07,.52,2.27,.92,3.54,1.36,1.27,.43,2.6,.9,3.92,1.54,.12,.06,.24,.12,.35,.19,.12,.07,.24,.14,.36,.24v-.05c1.39,.75,2.86,1.73,4.49,2.77,1.62,1.04,3.42,2.14,5.47,3.13,6.86,3.36,13.34,4.41,19.17,3.37,5.83-1.03,11-4.16,15.24-9.16,1.01-1.17,1.96-2.46,2.86-3.85,.9-1.39,1.73-2.89,2.52-4.49,4.02-8.23,4.91-16.44,2.75-23.58m-11.23,18.91c-1.39,2.81-2.91,5.32-4.54,7.49-1.63,2.17-3.37,4.02-5.21,5.51v.03c-3.15,2.63-6.53,4.24-9.99,4.77-3.46,.53-7-.02-10.45-1.7-.95-.47-1.73-.96-2.34-1.47-.61-.52-1.06-1.06-1.35-1.66v.05c-.49-.96-.56-2.05-.28-3.36,.28-1.3,.91-2.83,1.81-4.66l9-18.38,8.99-18.38c.81-1.67,1.58-2.8,2.87-3.15,1.29-.35,3.12,.07,6.06,1.51,5.25,2.57,8.37,7.32,9.29,13.23,.93,5.91-.33,12.98-3.86,20.18m-100.72-88.39h0c.36-1.68,1.01-3.08,1.94-4.13,.92-1.05,2.14-1.76,3.65-2.05,1.07-.21,2.1-.36,3.09-.5,.99-.14,1.93-.27,2.81-.43,.7-.13,1.25-.27,1.67-.37,.4-.1,.65-.18,.75-.2,.97-.19,1.72-.18,2.25-.03,.52,.15,.82,.46,.9,.88,.17,.84-.52,1.29-1.66,1.74-1.14,.45-2.75,.9-4.41,1.76-.9,.46-1.73,.98-2.48,1.54-.76,.56-1.44,1.17-2.03,1.8h0c-1.38,1.46-2.37,3.07-2.93,4.73-.57,1.67-.7,3.39-.39,5.03,.54,2.8,2.21,5.09,4.55,6.52,2.34,1.43,5.36,2.01,8.57,1.39,2.86-.56,5.2-1.93,7.17-4.14,1.96-2.21,3.54-5.27,4.86-9.2,.25-.75,.49-1.47,.73-2.17,.24-.7,.47-1.39,.71-2.07v-.05c1.13-3.13,2.37-5.87,4.45-8.05s5-3.79,9.49-4.66c4.71-.91,8.99-.15,12.37,2.05,3.37,2.2,5.84,5.85,6.91,10.73v-.02c.02,.11,.03,.21,.06,.31,.02,.1,.04,.2,.07,.31,.5,2.6,.53,5.14,.32,7.15-.22,2.01-.69,3.5-1.16,4.02-.24,.29-1.21,.67-2.88,1.13-1.68,.46-4.06,.99-7.14,1.58-.65,.13-1.16,.1-1.53-.04-.36-.14-.59-.42-.67-.79-.13-.66,.25-1.08,1.02-1.6,.77-.51,1.94-1.1,3.4-2.06,2.28-1.45,4.01-2.79,5.05-4.33,1.05-1.53,1.41-3.24,1-5.43-.01-.04-.02-.09-.03-.14-.01-.04-.02-.09-.03-.13v.02c-.57-2.67-1.95-4.66-3.91-5.85-1.95-1.18-4.48-1.56-7.37-1-1.92,.37-3.42,1.1-4.65,2.23-1.23,1.13-2.2,2.67-3.04,4.66v-.07c-.24,.6-.46,1.22-.69,1.87-.23,.65-.45,1.33-.67,2.05-1.65,5.49-3.39,9.86-6.04,13.12-2.64,3.25-6.2,5.38-11.46,6.4-5.45,1.06-10.55,.08-14.53-2.46-3.99-2.55-6.86-6.66-7.87-11.87-.34-1.77-.53-3.43-.57-4.97-.03-1.54,.08-2.95,.34-4.21v.02Zm60.97-44.35c-.02-.54-.04-1.07-.08-1.59v-.06c-.07-1.66-.19-3.35-.28-5.07-.1-1.72-.18-3.47-.18-5.26,0-1.65,.1-3.03,.21-4.08,.09-1.06,.19-1.8,.2-2.19,0-.84-.03-1.48-.2-1.91-.18-.43-.52-.64-1.13-.64-.95,0-1.21,.5-1.32,1.3-.11,.81-.06,1.92-.4,3.15-.29,.95-.62,1.46-1.26,1.75-.65,.28-1.6,.32-3.1,.32l-21.74-.03-21.74-.03c-2.04,0-3.3,0-4.14-.39-.85-.38-1.27-1.13-1.65-2.65-.24-.9-.19-1.83-.31-2.53-.12-.7-.4-1.18-1.29-1.18-.48,0-.86,.17-1.12,.5-.26,.33-.4,.83-.4,1.5,0,.57,.14,1.59,.27,3.08,.14,1.49,.28,3.46,.27,5.93,0,2.27-.12,4.08-.25,5.47-.13,1.38-.27,2.34-.31,2.92,0,.04,0,.09,0,.13v.12c0,.57,.14,1.05,.37,1.39,.24,.34,.57,.52,.96,.52,.57,0,.97-.14,1.23-.47,.26-.34,.38-.86,.39-1.62v-.06h0v-.06c.03-1.99,.61-3.01,1.64-3.52,1.03-.51,2.52-.53,4.35-.53h9.35s9.35,.03,9.35,.03c.38,0,.72,.12,.95,.33,.24,.21,.38,.52,.38,.9v.95c0,.37-.02,.7-.05,1.02-.04,.32-.09,.62-.16,.9v-.03c-.21,.79-.61,1.4-1.26,1.93-.65,.53-1.57,.99-2.81,1.48l-10.79,4.27-10.78,4.26c-1.03,.42-1.82,.68-2.34,1.07-.52,.39-.78,.92-.78,1.87,0,.7,.07,1.4,.14,2.09,.07,.69,.14,1.38,.14,2.09,0,1.1-.08,2.14-.15,3.11-.07,.97-.14,1.88-.14,2.69,0,.57,.02,.97,.15,1.23,.13,.26,.37,.38,.79,.38,.71,0,1.04-.47,1.3-1.21,.26-.74,.45-1.73,.88-2.78,.24-.62,1.07-1.19,2.49-1.88,1.41-.68,3.41-1.49,5.97-2.58l6.56-2.75,6.55-2.75c1.24-.51,2.38-.99,3.38-1.58,1.01-.59,1.89-1.3,2.61-2.3,.7,3.14,2.45,5.68,4.98,7.44,2.53,1.76,5.83,2.74,9.63,2.74,4.41,0,8.1-1.34,10.67-3.96,2.58-2.62,4.05-6.51,4.06-11.59,0-.53,0-1.07-.02-1.6m-6.62,6.09c-2.25,1.6-5.48,2.42-9.42,2.42-3.94,0-6.95-.86-8.98-2.53-2.03-1.66-3.06-4.13-3.06-7.36v-.29c.01-1.5,.07-2.53,.37-3.16,.3-.64,.84-.91,1.81-.91l9.02,.02h9.02c1.48,.01,2.62,.1,3.41,.65,.79,.56,1.23,1.59,1.32,3.47v-.02c0,.1,0,.2,0,.31s.01,.21,.01,.32c0,3.09-1.27,5.47-3.52,7.07m-52.8-63.02h0c0-.33,0-.66,.01-.99,0-.33,.01-.66,.01-.99,0-2.81-.12-4.95-.24-6.48-.12-1.53-.24-2.45-.24-2.84,0-.71,.12-1.23,.37-1.57s.64-.51,1.15-.51c.86,0,1.14,.43,1.26,1.15,.12,.73,.08,1.74,.26,2.93,.18,1.38,.73,2.09,1.68,2.46,.96,.37,2.34,.4,4.19,.41l21.74,.03,21.75,.03c1.43,0,2.38,0,3.04-.23,.67-.22,1.05-.67,1.32-1.58,.34-1.05,.29-2.07,.4-2.83,.11-.77,.37-1.26,1.33-1.26,.42,0,.75,.14,.97,.42,.23,.27,.34,.68,.34,1.2,0,.32-.07,1.37-.15,3.15-.08,1.78-.17,4.29-.22,7.55v.02c-.01,.52-.02,1.07-.02,1.65,0,.57,0,1.17,0,1.78-.01,5.55,.08,9.9,.17,13,.09,3.1,.18,4.98,.18,5.6,0,1.28-.21,1.95-.68,2.3-.46,.34-1.17,.37-2.16,.36h-4.47s-4.08-.01-4.08-.01c-.8,0-1.39-.05-1.78-.21-.39-.15-.58-.42-.58-.84,0-.85,1-1.16,2.39-1.68,1.39-.52,3.16-1.25,4.73-2.96,1.18-1.28,2.09-2.87,2.7-4.8,.61-1.92,.92-4.18,.92-6.79,0-2.51-.33-3.84-1.22-4.54-.88-.7-2.33-.78-4.56-.78h-7.83s-7.84-.02-7.84-.02c-.8,0-1.27,0-1.55,.21-.28,.21-.35,.64-.35,1.49v4.28c0,1.94,.2,3.72,.52,5.12,.32,1.4,.75,2.43,1.18,2.86,1.23,1.28,2.68,1.61,3.82,1.87s1.98,.46,1.98,1.45c0,.43-.1,.72-.32,.89-.21,.18-.55,.24-1.02,.24-1.19,0-2.59-.12-4.17-.24-1.58-.12-3.34-.24-5.23-.24-2.23,0-4.04,.07-5.39,.13-1.35,.07-2.25,.14-2.67,.14-.58,0-1-.12-1.29-.32-.28-.2-.42-.49-.42-.81,0-.81,.74-1.12,1.94-1.48,1.19-.35,2.86-.75,4.71-1.74,1.43-.76,2.21-1.76,2.64-3.06,.43-1.31,.5-2.92,.5-4.92v-2.09s0-2.09,0-2.09c0-.67-.09-1.1-.35-1.35-.26-.26-.68-.35-1.35-.36h-9.78s-9.79-.03-9.79-.03c-2.61,0-4.13,.3-4.99,1.31-.86,1.01-1.08,2.71-1.08,5.52,0,2.94,.18,5.2,.95,7.09,.77,1.89,2.12,3.41,4.44,4.89,1.75,1.14,3.39,1.9,4.58,2.57,1.19,.67,1.95,1.23,1.95,1.98,0,.2-.14,.44-.32,.63-.18,.19-.39,.34-.53,.34,0,0-.17-.02-.46-.06-.29-.04-.72-.09-1.24-.14l-4.6-.52-4.61-.52c-1.48-.14-2.31-.2-2.77-.56-.47-.36-.56-1.03-.56-2.41,0-1.83,.18-4.62,.37-8.34,.19-3.72,.38-8.36,.42-13.89v.02Zm57.36-46.09c-.82-.39-.82-1.58-1.05-2.67-.23-1.09-.68-2.08-2.4-2.09-.47,0-1.04,.07-1.71,.2-.67,.14-1.42,.35-2.28,.64l-5.64,1.94-5.64,1.94-9.61,3.31-9.61,3.31c-.71,.24-1.23,.42-1.57,.6-.34,.17-.51,.34-.51,.53,0,.19,.19,.37,.54,.56,.36,.19,.88,.39,1.54,.57l13.86,4.1,13.85,4.11c1.47,.43,2.73,.74,3.76,.94,1.03,.2,1.84,.3,2.41,.3,2.42,0,2.94-1.39,3.21-2.79,.26-1.4,.26-2.8,1.63-2.8,.38,0,.71,.17,.95,.47,.24,.31,.39,.77,.39,1.34,0,.47-.15,1.25-.29,2.36-.14,1.11-.29,2.53-.3,4.29,0,1.94,.1,3.46,.19,4.55,.1,1.09,.2,1.76,.2,1.99,0,.62-.1,1.07-.3,1.37-.2,.3-.51,.44-.94,.44-.95,0-1.18-.57-1.28-1.33-.09-.76-.04-1.71-.43-2.48-.37-.76-.99-1.33-1.84-1.82-.84-.49-1.9-.89-3.19-1.32l-25.38-8.34-25.38-8.34c-.57-.19-.99-.38-1.28-.58-.29-.2-.43-.42-.43-.65,0-.42,.5-.73,1.3-1.04,.79-.3,1.88-.61,3.07-1.03l3.85-1.32,3.85-1.32,18.37-6.29,18.38-6.29c2.38-.8,4.3-1.42,5.75-2.07,1.45-.66,2.42-1.34,2.9-2.3,.34-.66,.36-1.61,.48-2.39,.12-.78,.33-1.4,1.04-1.39,.43,0,.79,.12,1.03,.37,.25,.25,.39,.63,.39,1.16,0,.28-.15,1.37-.29,3.32-.14,1.95-.29,4.78-.29,8.54,0,1.46,.12,2.74,.23,3.79,.12,1.05,.23,1.85,.23,2.38,0,.36-.04,.63-.14,.84-.1,.2-.25,.34-.47,.41,0,0-.16,.04-.25,.06-.09,.01-.19,.02-.3,.02-.13,0-.24-.01-.34-.03-.1-.02-.2-.02-.28-.06m-.39-45.97h0c.09-.21,.21-.38,.4-.5,.19-.12,.44-.18,.78-.18,.28,0,.52,.07,.73,.19,.2,.13,.37,.31,.47,.56v-.07c.04,.13,.07,.25,.1,.37,.02,.12,.04,.24,.04,.38,0,.48-.19,1.48-.39,3.03-.19,1.55-.39,3.66-.4,6.36,0,2.7,.19,4.79,.37,6.34s.38,2.54,.38,3.07c0,.43-.15,.79-.39,1.03-.24,.25-.58,.39-.95,.39-.85,0-1.14-.43-1.27-1.15-.12-.73-.09-1.74-.33-2.93-.24-1.18-.59-1.8-1.27-2.12-.67-.32-1.67-.35-3.19-.35l-21.74-.03-21.74-.03c-1.99,0-3.23,.02-4.06,.35-.83,.34-1.26,.98-1.64,2.21-.33,1.09-.29,2.13-.42,2.91-.13,.77-.44,1.27-1.48,1.27-.38,0-.72-.17-.95-.51-.24-.34-.38-.83-.38-1.49,0-.57,.14-1.6,.29-3.09,.14-1.5,.29-3.47,.29-5.93,0-2.47-.13-4.44-.28-5.93-.14-1.49-.28-2.52-.28-3.08,0-.22,.02-.42,.05-.61,.03-.19,.08-.35,.14-.5v-.03c.12-.28,.29-.5,.52-.64,.23-.15,.5-.22,.81-.22,.37,0,.63,.08,.83,.21,.19,.14,.31,.34,.39,.58v.07c.11,.32,.14,.77,.18,1.27,.03,.5,.07,1.04,.2,1.57,.38,1.52,.81,2.29,1.65,2.67,.84,.38,2.1,.39,4.14,.39l21.74,.03,21.74,.03c1.52,0,2.48-.04,3.11-.33,.64-.29,.97-.81,1.26-1.76,.21-.79,.27-1.54,.31-2.17,.04-.64,.07-1.18,.21-1.57m-53.12-55.29h0c.71,.49,1.76,.77,3.2,.92,1.45,.15,3.31,.19,5.62,.19l19.74,.03,19.74,.03c1.16,0,2.01-.02,2.64-.15,.63-.14,1.06-.41,1.37-.9v-.03c.07-.09,.13-.21,.19-.35,.06-.14,.12-.29,.18-.45,.34-1.14,.31-2.24,.43-3.05,.12-.81,.39-1.33,1.29-1.33,.42,0,.75,.12,.98,.35,.23,.23,.34,.56,.34,.99v1.92s-.01,1.92-.01,1.92v4.15s-.01,4.14-.01,4.14c0,.43-.02,.69-.15,.92-.13,.23-.37,.42-.8,.7l-20.67,12.69-20.67,12.69c-.04,.19,.06,.34,.24,.43,.18,.1,.45,.14,.73,.14l13.01,.02,13,.02c1.33,0,2.39-.02,3.21-.04,.81-.03,1.36-.05,1.65-.05,3.41,0,5.33-.06,6.41-.79,1.07-.72,1.29-2.1,1.29-4.71,0-.47,.14-.9,.38-1.21,.23-.3,.56-.5,.94-.5,.44,0,.79,.24,1.04,.67,.25,.43,.38,1.05,.38,1.8,0,.85-.07,1.81-.14,2.88-.08,1.08-.15,2.3-.15,3.67s.07,2.47,.14,3.44c.07,.97,.14,1.78,.14,2.44s-.14,1.19-.39,1.54c-.25,.35-.6,.54-1.03,.54-.53,0-.84-.09-1.01-.34-.18-.25-.22-.65-.22-1.27v-.95c0-1.67-.75-2.57-2.38-3.06-1.62-.5-4.12-.57-7.6-.57l-23.68-.03-23.68-.03c-.62,0-1.21-.17-1.65-.43-.43-.26-.72-.62-.72-1,0-.33,.15-.64,.4-.94,.26-.3,.65-.58,1.12-.87l25.47-15.58,25.46-15.58c.04-.19-.06-.33-.23-.43-.18-.1-.44-.15-.71-.15l-18.47-.03-18.47-.03c-3.56,0-5.86,.09-7.28,.66-1.41,.57-1.94,1.61-1.94,3.51,0,.29,.03,.58,.05,.86,.03,.29,.05,.57,.05,.85,0,.38-.14,.72-.41,.95-.26,.24-.64,.38-1.12,.38-.42,0-.78-.21-1.02-.62-.25-.42-.4-1.03-.39-1.84,0-.86,.09-1.83,.19-2.92,.1-1.09,.19-2.3,.2-3.63,0-.46-.02-.92-.03-1.35-.02-.44-.06-.86-.09-1.27-.06-.63-.12-1.24-.17-1.82-.05-.58-.08-1.13-.08-1.65,0-.75,.15-1.32,.4-1.7,.25-.38,.61-.57,1.03-.57,.52,0,.9,.12,1.15,.4,.25,.29,.37,.73,.36,1.39v.86c0,.73,.09,1.33,.29,1.83,.2,.5,.51,.89,.94,1.21m48.4-48.43l-16.57-.02-16.57-.03c-5.78,0-10.2,.56-13.18,2.38-2.97,1.82-4.49,4.9-4.5,9.93,0,2.52,.45,4.72,1.3,6.59,.85,1.86,2.11,3.38,3.73,4.52,1.7,1.14,3.7,1.74,6.08,2.05,2.39,.31,5.16,.34,8.43,.34l11.49,.02,11.49,.02c3.61,0,6.34-.01,8.34-.23,1.99-.23,3.25-.65,3.92-1.46,.66-.85,.66-2.14,.75-3.2,.1-1.07,.29-1.92,1.33-1.92,.43,0,.76,.14,.99,.42,.23,.27,.35,.67,.35,1.19,0,.57-.08,1.38-.15,2.44-.07,1.07-.14,2.4-.14,4.01,0,1.71,.07,3.11,.14,4.21,.07,1.1,.14,1.88,.14,2.36,0,.66-.1,1.16-.31,1.49-.21,.33-.54,.5-1.02,.5-.57,0-.9-.21-1.09-.67-.19-.45-.23-1.14-.23-2.09,0-2-.8-3.04-2.79-3.59-2-.55-5.18-.6-9.93-.61l-11.67-.02-11.67-.02c-3.28,0-6.15-.03-8.74-.37-2.59-.34-4.88-.98-7.01-2.22-2.28-1.33-4.06-3.33-5.27-5.91-1.21-2.58-1.84-5.74-1.84-9.38,0-4.03,.53-7.4,1.66-10.17,1.12-2.76,2.84-4.93,5.21-6.54,1.85-1.28,3.91-1.95,6.24-2.32,2.32-.36,4.92-.41,7.81-.41l16.67,.03,16.66,.02c1.56,0,2.51-.02,3.14-.3,.63-.27,.94-.79,1.23-1.79,.38-1.23,.34-2.33,.43-3.11,.1-.78,.34-1.25,1.28-1.25,.39,0,.72,.14,.95,.4,.24,.24,.39,.6,.39,1.02,0,.47-.2,1.47-.39,3.03-.19,1.55-.39,3.67-.39,6.37,0,2.7,.18,4.82,.37,6.37,.19,1.55,.38,2.55,.38,3.03s-.15,.83-.39,1.06c-.24,.24-.57,.35-.95,.35-1,0-1.26-.54-1.36-1.38-.09-.83-.01-1.95-.34-3.09-.29-.95-.62-1.47-1.25-1.75-.64-.29-1.59-.34-3.1-.34" style="fill: #fff;"/>
    </g>
  </g>
</svg>