<?xml version="1.0" encoding="UTF-8"?>
<svg id="Layer_2" data-name="Layer 2" xmlns="http://www.w3.org/2000/svg" viewBox="0 0 1023 1237.08">
  <g id="Isotipos-UACh">
    <g id="Isotipo-UACh-Color">
      <rect y="0" width="1023" height="1237.08" style="fill: none;"/>
      <g>
        <path d="M775.08,1059.62h-221.53c-16.22-.89-35.42,4.92-44.88,18.65-.33,.48-.86,.48-1.18,0-8.95-13.32-26.7-19.56-42.37-18.64H250.22c-64.81,.05-137.98-61.51-137.18-121.09V135.16c0-.38,.33-.72,.72-.72H909.24c.38,0,.72,.33,.72,.72V938.54c-.03,60.01-70.62,121.06-134.88,121.08Z" style="fill: #fff; fill-rule: evenodd;"/>
        <path d="M707.41,951.58h-194.83c-.38,0-.72-.33-.72-.72v-357.46c0-.38,.33-.72,.72-.72h278.63c.38,0,.72,.33,.72,.72v273.64c0,46.68-37.84,84.53-84.52,84.53Z" style="fill: #fab700;"/>
        <path d="M587.22,623.18c3.04-.33,6.5,.06,7.94,2.9,.28,.56,0,1.03-.63,1.04-1.1,.02-2.81,.96-4.87,2.34-2.03,1.35-4.17,2.97-5.99,4.03-4.6,2.68-7.02,1.3-4.54-7.54,.02-.07,.27-.39,.33-.43,1.47-.84,4.64-1.99,7.76-2.34Z" style="fill: #808285; fill-rule: evenodd;"/>
        <path d="M737.16,693.39l-.73,.33c-.64,.3-1.57,.74-2.69,1.31-2.25,1.14-5.29,2.77-8.48,4.73-6.44,3.95-13.22,9.08-15.42,14-1.5,3.37-1.86,6.32-1.79,8.88,.07,2.61,.6,4.8,.84,6.56,.57,4.16-.63,6.18-8.32,6.2-7.65,2.94-12.72,4.42-15.79,4.92-1.51,.25-2.66,.28-3.39,.05-.97-.3-1.32-1.12-.9-1.99,1.07-2.22,8.02-5.91,15.34-7.13,3.91-.65,9-4.1,8.81-10.43-.69-22.72,4.32-55.84,33.72-48.54,5.37,1.33,12.36,10.82,17.33,18.96,2.54,4.15,4.62,8.08,5.79,10.66,.58,1.27,.98,2.31,1.07,2.9,.02,.14,.05,.36-.02,.58-.1,.32-.4,.64-.87,.59-.27-.03-.49-.19-.6-.27-.14-.11-.28-.25-.43-.41-3.92-4.28-9.8-7.25-14.76-9.17-2.47-.96-4.69-1.64-6.3-2.1-.8-.23-1.45-.4-1.9-.51l-.5-.13Z" style="fill: #808285; fill-rule: evenodd;"/>
        <path d="M632.35,720.49c1.82-5.79-3.09-10.33-9.43-15.38-1.57-1.25-3.18-2.5-4.74-3.78-1.57-1.3-3.09-2.62-4.43-4-2.7-2.77-4.8-5.84-5.29-9.42-1.03-7.57,3.85-11.07,8.16-14.17,4.41-3.16,8.13-5.84,6.69-11.77,0-.04,.01-.38,.02-.42,6.41-17.49,34.12,8.1,22.73,16.18-10,7.69-20.38,20.53-15.27,26.23,6.33,7.07,12.88,16.41,12.88,22.5,0,1.23-.55,2.02-1.3,2.6-.35,.27-.75,.5-1.14,.71-.37,.2-.77,.41-1.16,.64-.24,.14-.7,.08-.89-.12-1.88-2-16.19-5.9-28.6-.73-.13,.06-.58,0-.7-.08-2.91-2.15-3.76-4.28-1.46-5.78,1.7-1.11,5.02-1.65,8.5-1.99,3.53-.34,7.45-.47,10.53-.65,1.51-.09,2.82-.19,3.76-.33,.47-.07,.81-.15,1.03-.22l.1-.04Z" style="fill: #808285; fill-rule: evenodd;"/>
        <path d="M605.59,644.27c.16,.02,.35,.07,.52,.12,.43,.13,1.04,.34,1.66,.6,.62,.26,1.26,.55,1.77,.83,.27,.15,.51,.29,.7,.42,.16,.11,.36,.26,.5,.45,6.8,7.38-.99,19.05-7.56,20.48-3.02,.66-4.86,1.16-6.7,3.31-17.53,20.49-17.91,3.18-14.6,1.48,2.16-1.11,3.65-4.67-3.61-4.13-.84,.06-1.16-.66-.54-1.24l9.64-8.99,.53-.1c.24-.46,.49-.87,.77-1.44,.57-1.14,1.2-2.69,1.8-4.22,.62-1.56,1.21-3.09,1.69-4.14,.23-.52,.47-.98,.69-1.28,.08-.11,.29-.37,.61-.46,.58-.15,.9,.31,.99,.53,4.25,10.14,9.66-3.48,3.62-8.13-.59-.45-.46-1.08,.26-1.26l1.29-.32c.21-.05,.65,.12,.77,.3,.64,.96,2.02,2.89,3.24,4.55l1.59,2.15,.37,.49Z" style="fill: #808285; fill-rule: evenodd;"/>
        <path d="M741.3,744.73c-.1-.01-.47-.24-.53-.33-.34-.54-.61-.98-.79-1.34-.53-.28-.87-.6-1.17-.93l-.45-.52c-.15-.17-.3-.33-.49-.49-4.67-4.09-13.34,3.05-13.6,3.27-.76,.64-1.67-.37-.96-1.06,4.22-4.07,7.02-5.61,12.64-6.63,5.15-.93,6.98,1.07,8.61,3.13,.64,0,1.29,.05,1.97,.07,.77,.02,1.54,0,2.36-.16,1.61-.31,3.5-1.18,5.83-3.58,2.36-2.43,4.49-5.77,6.03-8.54,.77-1.38,1.39-2.6,1.82-3.48l.5-1.04,.13-.28c.2-.43,.7,.2,.7,.2,0,0,.71-.32,.73,.17v.62c0,.53-.03,1.3-.15,2.28-.23,1.95-.81,4.72-2.11,7.98-3.91,8.22-13.21,11.49-21.07,10.65Z" style="fill: #808285; fill-rule: evenodd;"/>
        <path d="M566.38,794.06c3.04-.33,6.5,.06,7.93,2.9,.28,.56,0,1.03-.63,1.04-1.1,.02-2.81,.96-4.87,2.34-2.03,1.35-4.17,2.97-5.98,4.03-4.6,2.68-7.02,1.3-4.54-7.53,.02-.07,.27-.39,.33-.43,1.47-.84,4.64-1.99,7.76-2.34Z" style="fill: #808285; fill-rule: evenodd;"/>
        <path d="M717.82,861.65l-.73,.33c-.64,.3-1.57,.74-2.69,1.31-2.25,1.14-5.29,2.77-8.48,4.73-6.44,3.95-13.22,9.08-15.42,14-1.5,3.37-1.86,6.32-1.79,8.88,.07,2.61,.6,4.8,.84,6.56,.57,4.16-.63,6.18-8.32,6.2-7.65,2.94-12.72,4.42-15.79,4.92-1.51,.25-2.66,.28-3.39,.05-.97-.3-1.32-1.12-.9-1.99,1.07-2.22,8.02-5.91,15.34-7.13,3.91-.65,9-4.1,8.81-10.43-.69-22.72,4.32-55.84,33.72-48.54,5.37,1.33,12.36,10.82,17.33,18.96,2.54,4.15,4.62,8.08,5.79,10.66,.57,1.27,.98,2.31,1.07,2.9,.02,.14,.05,.36-.02,.58-.1,.32-.4,.64-.87,.59-.27-.03-.49-.19-.6-.27-.14-.11-.28-.25-.43-.41-3.92-4.28-9.8-7.25-14.76-9.16-2.47-.96-4.69-1.64-6.3-2.1-.8-.23-1.45-.4-1.9-.51l-.5-.13Z" style="fill: #808285; fill-rule: evenodd;"/>
        <path d="M613.02,888.75c1.82-5.79-3.09-10.33-9.43-15.38-1.57-1.25-3.18-2.5-4.74-3.78-1.57-1.3-3.09-2.62-4.43-4-2.7-2.77-4.8-5.84-5.29-9.42-1.03-7.57,3.85-11.07,8.16-14.17,4.41-3.16,8.13-5.84,6.69-11.77,0-.04,.01-.38,.02-.42,6.41-17.49,34.12,8.1,22.73,16.18-10,7.69-20.38,20.53-15.27,26.23,6.33,7.07,12.88,16.41,12.88,22.5,0,1.23-.55,2.02-1.3,2.6-.35,.27-.75,.5-1.14,.71-.37,.2-.77,.41-1.16,.64-.24,.14-.7,.08-.89-.12-1.88-2-16.19-5.9-28.6-.73-.13,.06-.58,0-.7-.08-2.91-2.15-3.76-4.28-1.46-5.78,1.7-1.11,5.02-1.65,8.5-1.99,3.53-.34,7.45-.47,10.53-.65,1.51-.09,2.82-.19,3.77-.33,.47-.07,.81-.15,1.03-.22l.1-.04Z" style="fill: #808285; fill-rule: evenodd;"/>
        <path d="M585.4,814.47c.16,.02,.35,.07,.52,.12,.43,.12,1.04,.34,1.66,.6,.62,.26,1.26,.55,1.77,.83,.27,.15,.51,.29,.7,.42,.16,.11,.36,.26,.5,.45,6.8,7.38-.99,19.05-7.56,20.48-3.02,.65-4.86,1.16-6.7,3.31-17.53,20.49-17.91,3.18-14.6,1.48,2.16-1.11,3.65-4.67-3.61-4.13-.84,.06-1.16-.66-.54-1.24l9.64-8.99,.53-.1c.24-.46,.49-.87,.77-1.44,.57-1.14,1.2-2.69,1.8-4.22,.62-1.56,1.21-3.09,1.68-4.14,.24-.52,.47-.98,.69-1.28,.08-.11,.29-.37,.61-.46,.58-.15,.9,.31,.99,.53,4.25,10.14,9.66-3.48,3.62-8.13-.59-.45-.46-1.08,.26-1.26l1.29-.32c.21-.05,.65,.12,.77,.3,.64,.96,2.02,2.89,3.24,4.56l1.59,2.15,.37,.49Z" style="fill: #808285; fill-rule: evenodd;"/>
        <path d="M721.11,914.93c-.1-.01-.47-.24-.53-.33-.34-.54-.61-.98-.79-1.34-.53-.28-.87-.6-1.16-.93l-.45-.52c-.15-.17-.3-.33-.49-.49-4.67-4.09-13.34,3.05-13.6,3.27-.76,.64-1.67-.37-.96-1.06,4.22-4.07,7.02-5.61,12.64-6.63,5.15-.93,6.98,1.07,8.61,3.13,.64,0,1.29,.05,1.97,.07,.77,.02,1.54,0,2.36-.16,1.61-.31,3.5-1.18,5.83-3.58,2.36-2.43,4.49-5.77,6.03-8.54,.77-1.38,1.39-2.6,1.82-3.48l.5-1.04,.13-.28c.2-.43,.7,.2,.7,.2,0,0,.71-.32,.73,.17v.62c0,.53-.03,1.3-.15,2.28-.24,1.95-.81,4.72-2.11,7.98-3.91,8.22-13.21,11.49-21.07,10.65Z" style="fill: #808285; fill-rule: evenodd;"/>
        <path d="M406.12,740.06l-1.36,72.04-66.95-1.21,1.21-63.92,34.61-2.88,11.86,14.23-13.45,18.95,32.73-10.72-11.81,17.27-20.92-6.56,22.44,30.81-44.21-.98,21.77-29.83-24.28,7.54-10.29-18.88,34.57,11.34v-35.82s34.08-1.39,34.08-1.39Zm0,70.33l-1.36,72.04-66.95-1.21,1.21-63.92,34.61-2.88,11.86,14.23-13.45,18.95,32.73-10.72-11.81,17.27-20.92-6.56,22.44,30.81-44.21-.98,21.77-29.83-24.28,7.54-10.29-18.88,34.57,11.34v-35.82s34.08-1.39,34.08-1.39Zm-.12,70.15l-1.36,72.04-66.95-1.21,1.21-63.92,34.61-2.88,11.86,14.23-13.45,18.95,32.73-10.72-11.81,17.27-20.92-6.56,22.44,30.81-44.21-.98,21.77-29.83-24.28,7.54-10.29-18.88,34.57,11.34v-35.82s34.08-1.39,34.08-1.39Zm-.15-281l-1.36,72.04-66.95-1.21,1.21-63.92,34.61-2.88,11.86,14.23-13.45,18.95,32.73-10.72-11.81,17.27-20.92-6.56,22.44,30.81-44.21-.98,21.77-29.83-24.28,7.54-10.29-18.88,34.57,11.34v-35.82s34.08-1.39,34.08-1.39Zm.26,70.39l-1.36,72.04-66.95-1.21,1.21-63.92,34.61-2.88,11.86,14.23-13.45,18.95,32.73-10.72-11.81,17.27-20.92-6.56,22.44,30.81-44.21-.98,21.77-29.83-24.28,7.54-10.29-18.88,34.57,11.34v-35.82s34.08-1.39,34.08-1.39Zm-94.26,70.2l-1.36,72.04-66.95-1.21,1.21-63.92,34.61-2.88,11.86,14.23-13.45,18.95,32.73-10.72-11.81,17.27-20.92-6.56,22.44,30.81-44.21-.98,21.77-29.83-24.28,7.54-10.29-18.88,34.57,11.34v-35.82s34.08-1.39,34.08-1.39Zm-.13,69.98l-1.36,72.04-66.95-1.21,1.21-63.92,34.61-2.88,11.86,14.23-13.45,18.95,32.73-10.72-11.81,17.27-20.92-6.56,22.44,30.81-44.21-.98,21.77-29.83-24.28,7.54-10.29-18.88,34.57,11.34v-35.82s34.08-1.39,34.08-1.39Zm-.06-210.59l-1.36,72.04-66.95-1.21,1.21-63.92,34.61-2.88,11.86,14.23-13.45,18.95,32.73-10.72-11.81,17.27-20.92-6.56,22.44,30.81-44.21-.98,21.77-29.83-24.28,7.54-10.29-18.88,34.57,11.34v-35.82s34.08-1.39,34.08-1.39Zm.19,70.22l-1.36,72.04-66.95-1.21,1.21-63.92,34.61-2.88,11.86,14.23-13.45,18.95,32.73-10.72-11.81,17.27-20.92-6.56,22.44,30.81-44.21-.98,21.77-29.83-24.28,7.54-10.29-18.88,34.57,11.34v-35.82s34.08-1.39,34.08-1.39Zm183.89,70.12l-1.36,72.04-66.95-1.21,1.21-63.92,34.61-2.88,11.86,14.23-13.45,18.95,32.73-10.72-11.81,17.27-20.92-6.56,22.44,30.81-44.21-.98,21.77-29.83-24.28,7.54-10.29-18.88,34.57,11.34v-35.82s34.08-1.39,34.08-1.39Zm-.13,70.46l-1.36,72.04-66.95-1.21,1.21-63.92,34.61-2.88,11.86,14.23-13.45,18.95,32.73-10.72-11.81,17.27-20.92-6.56,22.44,30.81-44.21-.98,21.77-29.83-24.28,7.54-10.29-18.88,34.57,11.34v-35.82s34.08-1.39,34.08-1.39Zm0-210.58l-1.36,72.04-66.95-1.21,1.21-63.92,34.61-2.88,11.86,14.23-13.45,18.95,32.73-10.72-11.81,17.27-20.92-6.56,22.44,30.81-44.21-.98,21.77-29.83-24.28,7.54-10.29-18.88,34.57,11.34v-35.82s34.08-1.39,34.08-1.39Zm0,70.39l-1.36,72.04-66.95-1.21,1.21-63.92,34.61-2.88,11.86,14.23-13.45,18.95,32.73-10.72-11.81,17.27-20.92-6.56,22.44,30.81-44.21-.98,21.77-29.83-24.28,7.54-10.29-18.88,34.57,11.34v-35.82s34.08-1.39,34.08-1.39Z" style="fill: #bcbec0; fill-rule: evenodd;"/>
        <path d="M368.93,340.63l29.8-23.45,32.65,22.57-62.45,.88Zm40.32-31.99l34.18-26.73-3.51,48.21-30.68-21.47Zm-21.04,.88l-32.17,24.68-2.24-49,34.4,24.32Zm10.3-8.33c0,.66-34.62-24.76-34.62-24.76l71.87-4.38s-37.25,28.49-37.25,29.14Zm-74.29,69.73c-.34,.22-1.09,.52-1.26-.27l-.07-.36-.24-1.3-.71-3.99-1.04-5.92c-.1-.26-.28-.4-.76-.5-1.71-.28-3.52-.75-6.37-1.13-.02,0-2.9,.57-6.36,1.33-3.18,.71-6.53,1.49-7.56,1.78-.26,.2-.29,.24-.31,.27l-8.72,80.65c-.02,.14-.28,.51-.41,.57-.19,.09-3.42,1.66-3.55,3.3-.14,1.64,1.46,3.35,2.63,3.98,.18,.09,.39,.51,.37,.71l-12.88,122.88c-.02,.24-.34,.59-.58,.63-.04,0-32.99,6.13-44.36,10.43-.54,.2-.97-.09-.97-.67l.05-333.47c0-.38,.33-.72,.72-.72H505.42c.38,0,.72,.34,.72,.72v332.84c0,.5-.38,.8-.87,.7-11.21-2.42-44.07-9.26-44.07-9.26-.22-.05-.54-.39-.56-.61l-15.44-122.55c-.03-.23,.2-.64,.41-.74,1.67-.76,2.91-2.69,2.84-3.5-.09-.94-.8-1.69-1.65-2.26-.42-.28-.83-.49-1.14-.63l-.39-.18c-.45-.2-.56-.52-.57-.57l-8.22-65.68c-.62-4.93-.11-9,.56-11.84,.33-1.43,.71-2.54,1-3.3l.25-.64c-.57-.23-1.14-.42-1.71-.59-.59-.18-1.18-.34-1.65-.47l-.6-.16-.27-.08c-3.5-.84-8.58-2.06-13.18-3.06-1.18,.24-2.56,.74-3.36,1.01-.15,.86-.35,2.31-.53,3.62l-.27,2.07-.07,.64c-.05,.47-.73,.17-.73,.17,0,0,.3,.75-.19,.7l-.33-.04-1.19-.13-3.77-.42c-2.85-.32-5.99-.68-7.14-.83-.24-.03-.58-.36-.62-.59-.4-2.41-.69-6.66-.96-8.86-.05-.43-.12-.59-.16-.64-.03-.01-.15-.07-.28-.08-1.05-.13-20.33-1.68-21.41-1.68-.39,0-.43,.08-.46,.23-.27,1.78-.79,6.74-1.21,9.97-.04,.31-.39,.62-.7,.62-2.39,.03-12.42,.86-13.9,1.11-.36,.06-.75-.21-.82-.57-.59-2.97-1.1-6.77-1.66-10.02-.57-.17-1.32-.44-2.06-.7-.98-.35-1.79-.61-2.15-.63-.32-.02-1.7,.07-3.55,.21-1.81,.13-3.96,.3-5.71,.41-.39,.02-.74-.29-.76-.68-.02-.45-3.39-74.33-3.54-75.61-.03-.29,.22-.68,.5-.77,.12-.04,.25-.09,.39-.16-2.64,0-3.87-2.51-3.83-3.63,.04-1.16,.44-2.01,1.02-2.6-1.54,.66-2.15,2.4-2.1,3.17,.07,1.23,.74,2.94,2.81,3.33,.28,.05,.58,.41,.58,.69,.03,1.94,0,74.47-.06,76.04-.01,.32-.34,.66-.66,.69-3.45,.28-5.34,.38-6.42,.47-.55,.05-.82,.09-.97,.13-.17,.22-.19,.4-.24,.61-.11,.46-.22,1.08-.33,1.8-.23,1.48-.46,3.39-.67,5.29-.42,3.85-.76,7.69-.82,8.02-.04,.23-.38,.56-.61,.59-2.33,.32-5.11,.65-8.18,1.08l.43-.39Z" style="fill: #a90034; fill-rule: evenodd;"/>
        <path d="M688.37,566.94c-.11,0-.5-.23-.56-.33-9.01-13.97-17.02-32.87-12.2-55.42,.01-.06,.22-.38,.26-.42,.52-.4,2.11-1.26,3.34-1.26,2.84,0,3.07,1.16,2.9,2.39l-.03,.26v.25s.31,.25,1.51,.25c2.51,0,3.15,.39,3.77,.89,.12,.09,.19,.15,.29,.21,.09,.05,.21,.11,.39,.16,.37,.11,1.01,.2,2.19,.2,1.17,0,1.8-.11,2.16-.24,.32-.11,.45-.24,.66-.44,.62-.6,1.27-1.07,3.81-1.08,2.67,0,3.35,.85,3.92,1.77,.23,.36,.37,.58,.67,.75,.32,.18,.89,.35,2.04,.35,1.82,0,2.05-.88,2.37-2.47,.08-.42,.17-.84,.28-1.26,.12-.43,.28-.88,.52-1.31,.5-.89,1.32-1.6,2.66-1.97,2.57-.7,3.64-.08,4.62,.55,.43,.28,.77,.48,1.24,.58,.47,.1,1.15,.1,2.24-.2,2.31-.63,2.99-.61,3.58-.8,.2-.06,.4-.16,.82-.44,.43-.3,1.03-.75,1.99-1.46,.9-.67,1.27-1.2,1.44-1.63,.17-.44,.17-.85,.16-1.41-.02-1.23,0-2.59,2.18-4.21,1-.74,1.72-1.12,2.28-1.3,.3-.1,.54-.13,.74-.15,.17-.01,.31-.01,.44-.02,.09-.01,.17-.05,.28-.15,.24-.23,.6-.72,1.25-1.74,1.4-2.21,2.43-2.52,3.46-2.77,.43-.1,.75-.19,1.11-.44,.38-.26,.86-.74,1.47-1.71,.63-1,.86-1.57,.93-1.94,.05-.31,0-.5-.14-.8-.09-.19-.19-.39-.28-.61-.11-.26-.21-.54-.28-.89-.14-.71-.16-1.6,.08-2.85,.25-1.32,.88-2.5,1.64-3.58,.38-.53,.8-1.05,1.25-1.57,.43-.5,.89-1,1.34-1.49,1.84-2,3.47-3.81,3.88-5.94,.4-2.07-.18-2.67-.95-3.38-.24-.22-.48-.43-.73-.67-.26-.25-.53-.54-.79-.89-.52-.71-.95-1.62-1.17-2.91-.44-2.58,.11-3.39,.75-4.16,.25-.29,.4-.49,.5-.85,.1-.38,.14-1.01-.06-2.15-.41-2.38-.64-2.87-.96-3.3-.22-.29-.48-.56-.84-1.02-.38-.5-.85-1.18-1.45-2.26-.57-1.03-.97-1.52-1.25-1.78-.25-.23-.43-.28-.69-.37-.81-.26-1.53-.6-2.76-2.82-.61-1.11-.89-1.93-1-2.61-.05-.34-.06-.63-.05-.89,0-.23,.03-.43,.04-.63,.02-.3,0-.5-.15-.79-.18-.34-.58-.84-1.46-1.63-.88-.8-1.41-1.17-1.75-1.35-.17-.09-.29-.13-.38-.16-.12-.03-.22-.04-.32-.05-.74-.08-1.41-.25-3.26-1.92-.85-.77-1.32-.91-1.57-.92-.25,0-.48,.12-.93,.45-.23,.17-.47,.35-.74,.52-.29,.18-.63,.34-1.03,.44-.82,.21-1.78,.14-2.99-.39-1.32-.57-1.96-1.47-2.16-2.54-.1-.5-.09-1.02-.05-1.51,.04-.48,.12-.97,.2-1.46,.16-.98,.29-1.79,.16-2.48-.11-.59-.43-1.11-1.32-1.5-.97-.42-1.55-.3-1.89-.11-.69,.39-1.24-.04-1.04-.81,.24-.91,.17-1.34,.07-1.58-.05-.12-.12-.22-.22-.33l-.4-.37c-.84-.74-1.47-1.65-.68-4.12,.74-2.3,.94-2.67,1.15-3.04,.08-.13,.15-.26,.29-.61,.16-.39,.38-1.03,.74-2.15,.81-2.52,1.74-2.86,2.76-3.03,.36-.06,.54-.1,.74-.28,.23-.21,.55-.67,.9-1.77,.37-1.14,.62-1.86,.77-2.36,.15-.49,.18-.69,.17-.86,0-.11-.02-.22-.06-.35l-.16-.63c-.14-.54-.33-1.3-.55-2.51-.35-1.91-1.39-2.17-2.83-2.52-.39-.09-.77-.19-1.15-.32-.39-.14-.79-.32-1.17-.58-.78-.56-1.34-1.42-1.58-2.75-.24-1.32-.05-2.31,.4-3.08,.22-.38,.49-.68,.76-.93,.25-.24,.52-.45,.77-.65,.24-.19,.42-.35,.57-.51,.14-.15,.21-.28,.25-.41,.07-.24,.07-.72-.51-1.69-.58-.96-1.05-1.36-1.43-1.55-.39-.19-.76-.2-1.29-.21-1.21-.02-2.53-.11-3.93-2.46-.69-1.15-.87-2.12-.76-3,.06-.43,.18-.8,.32-1.14,.13-.31,.28-.6,.43-.88,.28-.55,.4-.85,.36-1.16-.04-.28-.24-.74-1.11-1.46-.91-.74-1.48-1.18-1.89-1.45-.38-.26-.61-.38-.84-.49-.56-.28-1.1-.57-2.99-2.11-.99-.81-1.57-1.52-1.95-2.17-.19-.32-.32-.62-.43-.9l-.26-.71c-.24-.64-.48-1.21-2.61-1.94-5.06-1.75-7.32-9.64-5.91-14.47,.32-1.11,.47-1.72,.52-2.08,.02-.16,.02-.23,.02-.25-.15-.48-.15-1,.51-3.26,.34-1.15,.45-1.79,.45-2.18,0-.32-.07-.46-.2-.64l-.34-.44c-.15-.19-.31-.42-.47-.71-.33-.59-.64-1.4-.89-2.63-.52-2.56,0-3.63,.51-4.64,.23-.45,.42-.82,.51-1.35,.09-.52,.1-1.25-.13-2.37-.38-1.87-1.25-1.99-2.71-2.08-.4-.03-.81-.05-1.23-.09-.45-.05-.91-.13-1.36-.28-.95-.31-1.86-.91-2.63-2.05-1.32-1.96-1.78-2.51-2.24-3.07-.48-.57-.96-1.15-2.33-3.18-.77-1.14-.97-2.19-.89-3.18,.04-.46,.14-.91,.28-1.33,.12-.39,.27-.77,.41-1.13,.49-1.32,.74-2.11-.83-3.17-.98-.66-1.63-1.02-2.11-1.24-.48-.22-.82-.31-1.16-.4-.83-.22-1.65-.45-3.71-1.84-1.59-1.07-2.15-.57-3.08,.3-.27,.25-.54,.52-.84,.76-.31,.26-.67,.52-1.08,.73-.85,.43-1.89,.63-3.22,.36-2.47-.5-3.28-1.06-4.06-1.63-.35-.25-.66-.47-1.15-.69-.5-.22-1.21-.46-2.36-.69-2.38-.48-2.9-.85-3.43-.97-.32-.08-.61-.03-3.09,.47-1.37,.28-2.43,0-3.3-.6-.42-.28-.78-.63-1.1-.99-.31-.34-.6-.72-.88-1.1-1.13-1.48-1.98-2.53-3.87-2.15-1.81,.36-1.99,1.45-2.1,3.31-.03,.47-.05,.96-.1,1.45-.05,.52-.14,1.04-.28,1.54-.31,1.05-.9,2.06-2.06,2.84-1.17,.79-2.28,.9-3.33,.62-.5-.13-.97-.35-1.4-.59-.42-.23-.83-.51-1.24-.78-1.65-1.09-2.82-1.81-4.38-.76-1.95,1.31-2.57,2.04-3.06,2.87-.48,.83-.84,1.77-1.78,3.28,5.56,1.83,3.41,8.23,.97,11.84-.71,1.06-1.63,2.04-2.59,2.98-.95,.93-1.97,1.84-2.94,2.77-1.93,1.86-3.49,3.68-3.92,5.81-.24,1.17-.28,1.8-.23,2.18,.04,.31,.14,.45,.32,.65l.43,.43c.18,.18,.38,.4,.58,.68,.41,.57,.81,1.36,1.17,2.58,.32,1.11,.53,1.71,.67,2.04,.47,.56,.73,.98,1.39,3.25,.83,2.85-.79,3.68-2.02,4.27-.26,.13-.53,.25-.77,.4-.21,.14-.36,.27-.47,.42-.18,.25-.33,.72-.03,1.76,.68,2.35,.73,2.56,.79,2.82,.06,.25,.13,.56,.87,3.04,.1,.33-.11,.75-.44,.87-.96,.36-1.45,.66-1.74,.92-.14,.12-.25,.24-.33,.36-.1,.14-.18,.28-.27,.42-.48,.79-1.06,1.52-3.4,2.33-1.08,.37-1.43,.73-1.56,.96-.13,.25-.13,.54-.06,1.12,.04,.3,.08,.61,.1,.94,.02,.35,0,.74-.09,1.15-.2,.84-.7,1.68-1.73,2.52-1.91,1.56-2.53,1.8-3.19,2.02-.12,.04-.24,.08-.38,.14-.13,.06-.29,.13-.47,.24-.39,.23-.97,.64-1.89,1.39-.94,.77-1.3,1.16-1.42,1.37,.31,.79,.64,1.62-.71,3.87-.7,1.17-1.54,1.77-2.49,1.98-.45,.1-.9,.11-1.32,.07-.4-.03-.8-.1-1.2-.17-1.5-.26-2.55-.43-3.53,1.21-.59,.99-.68,1.52-.65,1.83,.03,.3,.18,.53,.53,.92,.19,.21,.38,.43,.57,.67,.2,.27,.4,.58,.56,.95,.32,.77,.44,1.72,.2,3.02-.49,2.7-1.8,3.29-2.98,3.77-.54,.22-.93,.39-1.27,.73-.32,.33-.65,.88-.85,1.97-.23,1.27-.63,2.17-1.08,2.87-.22,.34-.45,.62-.67,.88l-.59,.66c-.55,.63-.95,1.19-.28,3.27,1.56,4.86-2.9,21.43-6.68,24.86-.79,.71-.97,1.26-.98,1.69,0,.49,.19,.98,.49,1.65,.58,1.32,1.32,3.03-.84,4.98-1.01,.91-1.99,1.26-2.94,1.29-.46,.01-.89-.05-1.28-.14-.37-.08-.73-.19-1.09-.3-1.22-.36-1.95-.57-2.87,1.09-.54,.97-.6,1.55-.53,1.93,.07,.4,.29,.71,.63,1.17,.76,1.01,1.56,2.2,.2,4.65-.65,1.17-1.42,1.85-2.24,2.25-.4,.2-.8,.32-1.17,.4-.35,.08-.7,.14-1.04,.19-1.12,.19-1.87,.33-2.21,2.3-.2,1.15-.18,1.79-.1,2.18,.07,.36,.21,.56,.41,.84,.54,.76,.99,1.55,.55,4.09-.21,1.25-.53,2.15-.88,2.87-.33,.68-.67,1.17-.96,1.66-.46,.78-.79,1.55-.35,3.76,.94,4.73,.51,9.4,1.45,14.12,.46,2.29,.92,3.18,1.55,3.98,.35,.45,.76,.88,1.24,1.44,.5,.59,1.09,1.32,1.77,2.36,.62,.94,1.14,1.37,1.58,1.59,.44,.23,.86,.28,1.42,.34,1.22,.14,2.54,.32,4.03,2.57,.68,1.03,1.09,1.72,1.39,2.23,.31,.52,.46,.78,.65,1,.17,.21,.39,.4,.82,.73,.45,.34,1.09,.77,2.06,1.45,.91,.63,1.55,.81,2.05,.83,.52,.02,.96-.13,1.54-.33,1.24-.43,2.64-.88,4.88,.68,1.02,.71,1.61,1.24,1.99,1.67,.19,.22,.33,.39,.43,.55l.22,.32c.16,.14,.25,.19,.43,.26,.41,.15,1.07,.32,2.2,.58,2.72,.61,3.33,2.22,3.84,3.58,.25,.67,.46,1.2,.84,1.64,.36,.42,.93,.81,1.98,1.05,2.3,.52,2.98,.73,3.68,.8,.7,.07,1.42,0,3.79,0,1.19,0,1.85-.06,2.25-.15,.18-.04,.31-.08,.42-.12,.11-.05,.2-.1,.29-.15,.6-.33,1.19-.59,3.66-.59,1.12,0,1.83-.2,2.34-.45,.52-.26,.89-.6,1.32-1.02,.23-.22,.46-.44,.71-.65,.27-.22,.57-.44,.93-.62,.73-.38,1.64-.61,2.89-.62,.27,0,.64,.29,.7,.55,5.62,23.54-3.91,42.47-13.42,56.54-.06,.08-.43,.3-.53,.31-36.9,3.43-80.14,10.96-92.83,15.29-.53,.18-.95-.12-.95-.68V249.83c0-.38,.33-.72,.72-.72h278.63c.38,0,.72,.34,.72,.72v332.69c0,.52-.39,.83-.89,.69-31.49-8.35-58.15-13.79-102.66-16.27Z" style="fill: #afcfe8;"/>
        <path d="M711.2,429.74c.1,.5,.09,1.02,.05,1.51-.04,.48-.12,.97-.2,1.46-.16,.98-.29,1.79-.16,2.48,.11,.59,.43,1.11,1.32,1.5,1,.43,1.63,.43,2.07,.32,.23-.06,.43-.16,.64-.28,.23-.14,.43-.3,.63-.44,1.1-.81,2.24-1.33,4.31,.55,.88,.8,1.41,1.17,1.75,1.35,.17,.09,.29,.13,.38,.15,.12,.03,.22,.04,.32,.05,.74,.08,1.41,.25,3.26,1.92,1.86,1.68,2.14,2.51,2.07,3.58-.01,.18-.03,.37-.04,.58,0,.18,0,.38,.04,.62,.07,.47,.28,1.14,.83,2.14,.57,1.03,.97,1.52,1.25,1.78,.25,.23,.43,.28,.69,.37,.81,.26,1.53,.6,2.76,2.82,.57,1.03,1,1.65,1.33,2.08,.36,.47,.63,.74,.85,1.04,.55,.74,.82,1.55,1.22,3.91,.54,3.16-1.63,3.22-2.94,3.23-.3,0-.6,0-.88,.04-.25,.03-.4,.09-.49,.15-.09,.06-.35,.27-.16,1.37,.19,1.09,.6,2.14,1.13,3.2,.54,1.08,1.17,2.13,1.75,3.17,1.17,2.12,2.25,4.43,1.75,7.07-.1,.54-.56,.75-1.04,.5-.6-.32-1.02-.21-1.52,.33-.57,.61-1.09,1.66-1.62,2.99-.53,1.32-1.02,2.8-1.55,4.12-.53,1.32-1.13,2.61-1.89,3.42-4.53,4.85-8.55,8.76-11.7,10.9-2.97,2.02-5.97,2.91-7.28-.1-.19-.43-.4-.66-1.43-.01-1.01,.63-2.24,1.84-3.56,3.15-.66,.65-1.31,1.29-1.94,1.87-.63,.57-1.27,1.1-1.87,1.48-1.16,.72-2.72,1.13-3.5-.65-.76-1.74-1.9-1.73-3.53-1.67-.43,.01-.85,.03-1.27,0-.44-.02-.89-.09-1.34-.25-.94-.33-1.72-1.03-2.28-2.29-.3-.69-.97-1.01-2.24-.97-1.27,.04-2.85,.45-4.53,.89-.84,.22-1.68,.44-2.49,.61-.84,.18-1.64,.3-2.36,.33-1.46,.05-2.94-.31-3.6-1.82-.21-.49-.7-.73-2.17-.2-1.38,.5-3.09,1.54-4.9,2.63-.9,.54-1.8,1.09-2.66,1.56-.89,.49-1.73,.91-2.49,1.19-1.45,.53-3.22,.75-3.97-.97-.27-.62-.75-.82-1.83-.53-1.11,.29-2.48,1.04-3.97,1.85-.74,.4-1.48,.81-2.19,1.15-.71,.35-1.43,.65-2.1,.83-1.35,.35-2.81,.25-3.5-1.35-.3-.69-1.51-1.25-3.74-1.57-2.14-.31-4.79-.34-7.3-.37-2.59-.03-5.03-.06-6.67-.34-.81-.14-1.61-.36-2.1-.8-.65-.58-.65-1.37-.21-2.1,2.73-4.54,1.45-6.84-.67-8.61-.57-.48-1.21-.91-1.86-1.33-.67-.43-1.36-.85-2.01-1.26-1.3-.83-2.6-1.75-3.31-2.95-.42-.71-1.74-1.19-3.85-1.59-2.04-.39-4.41-.66-6.32-1.2-4.51-1.29-6.28-4.24-.1-11,1.22-1.33,.74-2.89-.82-5.02-.77-1.04-1.71-2.1-2.62-3.16-.91-1.07-1.82-2.18-2.47-3.28-.84-1.43-.31-2.56,.72-3.32,.47-.35,1.05-.64,1.65-.89,.59-.25,1.24-.48,1.9-.71,1.32-.47,2.47-.88,3.17-1.4,.58-.43,.72-.79,.34-1.44-.68-1.16-.91-2.24-.89-3.26,0-.49,.07-.98,.17-1.45,.09-.45,.2-.89,.32-1.33,.45-1.71,.81-3.16-.25-4.96-.71-1.21-.81-2.5-.79-3.57,0-.52,.04-1.02,.06-1.47,.01-.44,0-.76-.05-1-.06-.25-.13-.51-1.01-.47-1,.05-2.73,.5-5.64,1.64-5.8,1.46-7.45-1.59-7.45-4.87,0-1.55,.34-3.16,.67-4.36,.34-1.22,.67-2.06,.67-2.06,.05-.12,.39-.41,.52-.43,5.73-1.21,6.54-4.35,6.53-7.49,0-1.7-.25-3.36-.21-4.69,.05-1.39,.41-2.83,2.02-3.34,8.17-2.61,11.55-4.34,12.56-5.66,.39-.52,.38-.91,.1-1.41-.33-.6-1-1.25-1.92-2.08-3.96-3.6-2.78-8.9-.53-12.41,1.14-1.77,2.63-3.22,4.08-3.88,1.5-.69,3.17-.55,4.04,1.2,2.8,5.59,6.67,6.25,9.28,5.42,1.36-.43,2.39-1.27,2.86-2.07,.44-.76,.35-1.37-.25-1.8-6.3-4.55-4.41-8.33-1.38-11.2,1.41-1.33,3.09-2.52,4.25-3.63,.56-.54,.92-.98,1.08-1.36,.13-.32,.12-.55-.07-.82-.67-.95-1.23-1.56-1.72-2-.49-.44-.93-.73-1.42-1.05-1.01-.66-2.05-1.35-3.52-3.42-.87-1.22-.78-2.33-.05-3.23,.32-.4,.75-.73,1.18-1.02,.42-.28,.89-.55,1.37-.82,.96-.54,1.73-.99,2.14-1.49,.29-.36,.42-.76-.1-1.5-.61-.87-1.29-1.32-1.96-1.61-.35-.15-.7-.25-1.04-.33-.37-.09-.73-.15-1.06-.23-1.6-.35-2.87-1.02-2.55-3.87,.54-4.79,.48-4.93,1.02-9.72,.15-1.32,.6-2.41,1.19-3.36,.29-.47,.61-.9,.96-1.33,.33-.41,.68-.8,1.03-1.2,1.38-1.57,2.59-2.96,2.83-5.1,.32-2.85,1.89-3.25,3.2-3.53,.27-.06,.54-.12,.79-.2,.23-.08,.41-.17,.57-.3,.29-.24,.6-.7,.72-1.79,.29-2.56,.94-3.07,1.77-3.46,.23-.11,.31-.15,.41-.34,.14-.25,.3-.79,.38-1.97,.1-1.49,.89-2.27,2.14-2.08,.47,.07,.97,.28,1.43,.51,.46,.23,.94,.51,1.43,.79,.45,.27,.91,.53,1.34,.74,.42,.21,.76,.33,1.01,.37,.27-.03,.46-.23,.5-.76,.03-.42,.28-.71,.52-.89,.24-.18,.54-.32,.85-.42,.63-.2,1.45-.3,2.37-.28,1.84,.04,4.2,.59,6.33,2.02,.7,.47,1.16,.36,1.68-.08,.62-.52,1.19-1.45,1.85-2.53,.33-.54,.65-1.07,.99-1.55,.34-.49,.72-.96,1.16-1.33,.94-.79,2.1-1.05,3.41-.17,2.42,1.64,1.94,3.35,1.38,4.86-.13,.34-.27,.69-.38,1.06-.1,.33-.19,.67-.22,1.03-.06,.66,.07,1.39,.65,2.25,1.32,1.96,1.78,2.51,2.24,3.07,.48,.57,.96,1.15,2.33,3.18,.58,.86,1.23,1.27,1.89,1.49,.36,.12,.72,.18,1.08,.22,.39,.04,.79,.06,1.16,.09,1.65,.11,3.45,.37,4.03,3.23,.52,2.56,0,3.63-.51,4.64-.23,.45-.41,.82-.51,1.35-.09,.52-.1,1.25,.13,2.37,.23,1.12,.5,1.79,.74,2.22,.12,.22,.24,.39,.36,.54l.36,.47c.63,.87,.64,1.74-.04,4.05-.32,1.11-.47,1.72-.52,2.08-.02,.16-.02,.23-.02,.25,.15,.48,.15,1-.51,3.26-1.29,4.43,.95,11.32,5,12.71,2.43,.84,3.06,1.67,3.48,2.8l.25,.69c.08,.22,.19,.45,.33,.7,.28,.48,.74,1.07,1.62,1.79,.91,.74,1.48,1.18,1.89,1.45,.38,.26,.61,.38,.84,.49,.56,.28,1.1,.57,2.99,2.11,2.2,1.8,1.77,3.12,1.12,4.38-.13,.25-.27,.5-.38,.78-.11,.25-.18,.5-.22,.76-.06,.5,.02,1.16,.57,2.08,.57,.96,1.05,1.36,1.43,1.55,.39,.19,.76,.2,1.29,.21,1.21,.02,2.53,.11,3.93,2.45,1.48,2.48,.49,3.55-.64,4.46-.22,.18-.46,.36-.68,.57-.2,.19-.38,.39-.51,.62-.25,.43-.42,1.05-.23,2.1,.35,1.91,1.39,2.17,2.83,2.52,.39,.09,.78,.19,1.15,.32,.39,.13,.79,.32,1.17,.58,.78,.56,1.34,1.42,1.58,2.75,.21,1.16,.4,1.89,.53,2.41l.17,.67c.05,.23,.08,.42,.09,.61,.02,.43-.07,.82-.23,1.34-.16,.51-.41,1.23-.78,2.38-.81,2.52-1.74,2.86-2.77,3.03-.36,.06-.54,.1-.74,.28-.23,.21-.55,.67-.9,1.77-.74,2.3-.93,2.66-1.15,3.04-.08,.13-.15,.26-.29,.61-.16,.39-.38,1.03-.74,2.15-.34,1.05-.33,1.6-.25,1.9,.07,.28,.23,.45,.52,.7l.5,.47c.18,.2,.36,.44,.49,.76,.16,.38,.22,.81,.19,1.33,.57-.03,1.21,.09,1.91,.4,1.32,.57,1.96,1.47,2.16,2.54Zm-72.68,109.32c.59-4.76,1.04-9.12,1.39-12.29,.17-1.6,.32-2.89,.45-3.79,.07-.47,.13-.84,.18-1.09,.04-.17,.07-.29,.11-.38,.18-.47,.54-.54,.71-.55,.17,0,.38,.04,.61,.21l.26,.21c.16,.13,.36,.29,.67,.44,.55,.27,1.51,.56,3.22,.46,.16-.26,.48-.32,.8-.29,.19,.01,.35,.09,.45,.13l.33,.18,.72,.43c.24,.14,.5,.27,.76,.37,.52,.19,.8,.14,1-.04,.27-.24,.62-.92,.69-2.65,.01-.3,.33-.65,.63-.68,1.25-.15,2.5-.21,3.45-.23,.48,0,.87,0,1.15,0l.35,.02c.46,.04,.06,.73,.06,.73l.68-.21c.02,.08,.26,.84,.66,1.66,.43,.89,.91,1.57,1.32,1.75,.13-.12,.33-.38,.51-.72,.19-.34,.36-.7,.51-.97,.08-.15,.18-.31,.31-.45,.1-.11,.35-.37,.75-.37,.18,0,.38,.05,.52,.1,.15,.05,.34,.11,.54,.2,.38,.15,.84,.36,1.31,.58,.73,.34,1.49,.73,2.01,.99,.13-.11,.26-.26,.38-.46,.23-.37,.4-.77,.58-1.09,.66-1.14,1.66-1.34,3,0,.07,.07,.22,.48,.21,.57-.98,10.21,1.13,18.86,3.84,26.15,2.74,7.38,6.07,13.36,7.44,18.15,.15,.51-.16,.91-.69,.91l-46.78-.16c-.6,0-.89-.44-.66-.99,2.63-6.29,4.39-17.31,5.58-26.85Z" style="fill: #15552b; fill-rule: evenodd;"/>
        <path d="M316.8,360.02c-.08-.57,.31-.93,.87-.79l2.3,.53c.19,.04,.51,.38,.54,.57l1.99,10.67c.1,.51-.24,.88-.76,.84l-2.78-.2c-.28-.02-.62-.34-.66-.62l-1.5-11Zm42.29,8.41c-.31,0-.65-.33-.69-.64l-1.5-13.54c-.06-.58,.33-.92,.9-.77l2.3,.62c.18,.05,.49,.4,.52,.59l1.95,13.01c.07,.47-.25,.84-.73,.82l-2.74-.09Zm-56.79,48.82c-.26-.11-.54-.33-.66-.86-.1-.43-.09-1.11,0-2.21,.42-4.42,.78-9.23,1.19-13.64,.2-2.17,.24-2.86,.24-3.55,0-.71-.02-1.43,.08-3.7,.08-1.97,.33-7.86,.87-13.72,.53-5.75,1.35-11.81,2.71-13.84,1.8-2.7,3.2-4.26,7.84-6.39,.45-.21,.89,.01,1,.5,.61,2.79,1.1,6.13,1.47,8.79,.18,1.31,.34,2.46,.47,3.27l.11,.65c1.78-.19,5.41-.43,8.82-.64l5.18-.31c1.46-.09,2.32-.15,2.37-.16,.3-.06,.38-.22,.39-.31,.27-1.96,1.38-12.94,1.65-15.31,.03-.28,.37-.61,.65-.64,2.17-.17,3.89-.23,5.3-.31,2.96-.17,13.88,2.58,15.13,15.15,3.38-.02,15.58-.17,20.98-.41,.57,0,1.32-.59,1.34-.77,.47-3.82,1.56-11.04,1.79-13.84,.03-.38,.39-.68,.77-.65,6.11,.49,17.3,1.63,17.67,1.84,.05,.03,.31,.2,.39,.65l.06,.44,.15,1.43c.11,1.18,.25,2.76,.39,4.42,.28,3.25,.56,6.79,.71,8.02,.42,.31,.7,.41,1.02,.5,4.3,.61,11.42,1.73,15.42,2.43,.16,.02,.26,.02,.32,0,.11-.07,.16-.17,.17-.26,.58-4.61,1.72-13.09,1.89-13.95,.07-.37,.46-.63,.83-.57,2.02,.37,8.3,2.08,11.21,2.72,.16,.03,.49,.35,.53,.5,.57,2.02,2.79,23.55,3.12,32.6,.02,.55-.38,.87-.91,.71l-4.82-1.38c-.99-.17-1.75,.47-1.76,1.43l1.05,18.44,7.62,3.31c.13,.06,.41,.42,.42,.56,0,0,1.7,12.48,2.42,22.76,.04,.53-.34,.86-.86,.75-9.95-2.06-40.06-5.05-64.01-5.15-26.02-.52-48.23,1.03-64.15,2.95-.61-.07-1.14-.06-1.71-.05-.63,0-1.3,.02-1.91-.02-1.15-.09-2.79-.48-2.79-2.28,.37-1.22,.06-1.77-.47-2.52l-.44-.62c-.16-.24-.3-.49-.43-.75-.26-.56-.42-1.22-.34-2.03,.1-1.05-.02-1.54-.13-1.78-.1-.21-.24-.31-.55-.49-.86-.52-1.61-1.16-1.38-3.63,.21-2.28,.5-2.88,.83-3.48,.06-.11,.12-.22,.17-.35,.06-.12,.11-.27,.16-.46,.12-.44,.23-1.08,.33-2.12,.09-.97,.08-1.45,.05-1.67Zm-2.65,60.01c-.27-.05-.57-.22-.72-.7-.12-.41-.12-1.08-.03-2.16,.17-2.09-.17-3.44-.54-4.87-.19-.75-.38-1.5-.5-2.35-.12-.87-.17-1.83-.07-3,.2-2.36,1.12-4.35,1.97-5.95,.42-.78,.82-1.48,1.14-2.11,.31-.62,.48-1.06,.51-1.4,.18-2.99,1.24-5.12,2.27-6.51,.51-.69,1.01-1.2,1.39-1.53,.4-.35,.66-.52,.66-.52l.28-.1c16.93-2.59,50.67-4.22,64.53-4.38,.7,0,1.3-.06,1.82-.15,21.26,.22,55.42,1.25,67.42,4.84,.19,.06,.48,.41,.51,.61,0,0,2.62,23.24,5.21,46.85,2.59,23.54,5.18,47.63,5.08,49.19-.06,.98,1.64,23.2,1.82,24.55,.29,2.12,.16,5.25-2.59,6.04-.67,.19-7.76-.63-14.3-1.43-6.71-.81-13.3-1.66-13.3-1.66-.34-.04-.64-.41-.62-.75,2.92-53.34-53.43-54.87-50.09-1.19l-1.31,.45c.3,.02,.38,.25,.41,.29h-.31s-1.28,0-1.28,0c-1.11,.01-2.69,.05-4.58,.09-3.8,.09-8.85,.24-13.95,.38-10.05,.28-20.67,.54-21.64,.2-1.17-.42-1.98-1.04-2.6-1.77-.31-.36-.56-.73-.79-1.1-.22-.36-.41-.73-.61-1.11-.76-1.44-1.41-2.65-3.22-3.3-.93-.33-1.7-.37-2.37-.29-.74,.09-1.38,.31-1.99,.48-1.44,.4-2.9,.57-4.7-1.27-1.78-1.83-1.61-3.36-1.45-4.67,.08-.64,.13-1.15,.02-1.69-.11-.51-.38-1.1-1.07-1.82-.69-.71-1.25-.96-1.7-1.04-.23-.04-.47-.05-.7-.03-.26,.02-.51,.06-.75,.09-1.3,.18-2.48,.07-3.45-2.34-.69-1.73,.44-2.84,1.93-3.46,3.33-.42,4.88-1.02,5.51-1.56,.44-.37,.44-.69,.04-1.2-1.04-1.29-3.73-2.18-4.4-1.93-2.16,.81-5.36-2.48-4.14-5.42,.05-.12,.02-.55-.38-1.44-.37-.82-.94-1.78-1.52-2.71-.61-.97-1.23-1.93-1.71-2.73-.25-.42-.46-.81-.61-1.13-.14-.3-.29-.68-.28-1.03,0-.41-.04-1.66-.04-2.9,0-.64,.02-1.28,.06-1.81,.02-.28,.05-.54,.09-.75,.04-.2,.09-.44,.2-.64,.03-.05,.32-.31,.38-.33,.23-.09,.48-.36,.61-1.09,.13-.7,.1-1.62,0-2.63-.1-1.01-.27-2.04-.41-2.93-.14-.86-.27-1.69-.24-2.2,.11-2.36,.6-2.97,1.18-3.55,.2-.2,.33-.33,.45-.62,.13-.33,.26-.9,.31-1.98,.1-2.05-.4-3.18-.94-4.41-.29-.66-.58-1.33-.79-2.12-.21-.82-.33-1.76-.28-2.94,.04-.84,.61-1.15,1.11-1.27,.18-.04,.39-.07,.62-.11,.19-.03,.4-.08,.62-.16,4.76-.61,4-3.14,1.43-4.1-2.49-.93-3.17-3.13-3.25-5.41-.07-2.2,.43-4.76,.62-6.99,.06-.66,.06-1.07,.06-1.31Z" style="fill: #a8a9ac; fill-rule: evenodd;"/>
        <path d="M296.71,662.87l-19.06-11.9-19.06,11.9,5.43-21.8-17.21-14.45,22.42-1.57,8.42-20.83,8.42,20.83,22.42,1.57-17.21,14.45,5.43,21.8Zm0,70.22l-19.06-11.9-19.06,11.9,5.43-21.8-17.21-14.45,22.42-1.57,8.42-20.83,8.42,20.83,22.42,1.57-17.21,14.45,5.43,21.8Zm0,70.22l-19.06-11.9-19.06,11.9,5.43-21.8-17.21-14.45,22.42-1.57,8.42-20.83,8.42,20.83,22.42,1.58-17.21,14.45,5.43,21.8Zm0,70.22l-19.06-11.9-19.06,11.9,5.43-21.8-17.21-14.45,22.42-1.57,8.42-20.83,8.42,20.83,22.42,1.58-17.21,14.45,5.43,21.8Zm183.84-210.65l-19.06-11.9-19.06,11.9,5.43-21.8-17.21-14.45,22.42-1.57,8.42-20.83,8.42,20.83,22.42,1.57-17.21,14.45,5.43,21.8Zm0,70.22l-19.06-11.9-19.06,11.9,5.43-21.8-17.21-14.45,22.42-1.57,8.42-20.83,8.42,20.83,22.42,1.57-17.21,14.45,5.43,21.8Zm0,70.22l-19.06-11.9-19.06,11.9,5.43-21.8-17.21-14.45,22.42-1.57,8.42-20.83,8.42,20.83,22.42,1.58-17.21,14.45,5.43,21.8Zm0,70.22l-19.06-11.9-19.06,11.9,5.43-21.8-17.21-14.45,22.42-1.57,8.42-20.83,8.42,20.83,22.42,1.58-17.21,14.45,5.43,21.8Zm-89.48-210.65l-19.06-11.9-19.06,11.9,5.43-21.8-17.21-14.45,22.42-1.57,8.42-20.83,8.42,20.83,22.42,1.57-17.21,14.45,5.43,21.8Zm0,70.22l-19.06-11.9-19.06,11.9,5.43-21.8-17.21-14.45,22.42-1.57,8.42-20.83,8.42,20.83,22.42,1.57-17.21,14.45,5.43,21.8Zm0,70.22l-19.06-11.9-19.06,11.9,5.43-21.8-17.21-14.45,22.42-1.57,8.42-20.83,8.42,20.83,22.42,1.58-17.21,14.45,5.43,21.8Zm0,70.22l-19.06-11.9-19.06,11.9,5.43-21.8-17.21-14.45,22.42-1.57,8.42-20.83,8.42,20.83,22.42,1.58-17.21,14.45,5.43,21.8Zm0,70.22l-19.06-11.9-19.06,11.9,5.43-21.8-17.21-14.45,22.42-1.57,8.42-20.83,8.42,20.83,22.42,1.57-17.21,14.45,5.43,21.8ZM807.77,190.53c1.9,1.36,2.71,3.34,3.71,5.69l5.24,12.47c2.08,4.88,3.07,7.59,4.25,8.04,1.99,.81,3.8,.72,3.8,2.08,0,.81-.45,.9-1.54,.9-1.54,0-3.43-.27-5.51-.27-1.36,0-2.62,.27-3.98,.27-1.81,0-1.99-.99-2.8-2.98l-8.13-20.52c-1.27-3.16-2.26-4.07-5.06-4.07h-.9c-.72,0-1.17,.54-1.17,1.27v17.81c0,3.52,.09,5.69,3.98,5.69,1.45,0,1.99,.45,1.99,1.54,0,.72-.72,1.27-1.81,1.27-.9,0-3.53-.54-8.23-.54s-7.5,.54-8.59,.54c-1.27,0-1.9-.54-1.9-1.45,0-1.72,1.81-1.08,3.53-1.54,2.89-.72,2.89-1.63,2.89-5.51v-41.4c0-2.89-.18-3.62-1.99-4.16-2.35-.63-4.25,.18-4.25-1.63,0-1.18,.81-1.27,2.44-1.27,.72,0,2.8,.36,5.97,.36,4.52,0,8.86-.54,12.93-.54,9.67,0,14.82,5.6,14.82,14.01,0,7.23-3.71,12.56-9.67,13.92Zm-12.11-3.25c0,1.9,1.08,2.08,4.16,2.08,6.15,0,9.4-3.98,9.4-11.48s-3.16-12.29-9.04-12.29c-4.16,0-4.52,1.54-4.52,4.52v17.17Zm-51.16-17.45v31.55c0,11.03,2.17,16.81,11.75,16.81,4.79,0,8.41-1.72,10.58-4.79,2.17-3.25,2.26-7.59,2.26-13.83v-21.87c0-6.87-.09-10.39-1.63-11.66-1.63-1.27-4.88,0-4.88-1.99,0-.81,.54-1.27,1.54-1.27,1.08,0,3.07,.27,6.15,.27,3.25,0,5.33-.27,6.24-.27,1.27,0,1.9,.36,1.9,1.27,0,1.08-.81,1.27-2.62,1.27-3.8,0-3.98,3.07-3.98,12.11v22.24c0,6.24-.09,10.94-2.44,15-2.53,4.34-7.59,6.78-14.55,6.78-7.68,0-12.83-1.99-15.91-6.51-2.44-3.52-2.62-7.86-2.62-13.38v-31.73c0-2.98-.09-3.62-1.99-4.16-2.35-.72-4.16,.18-4.16-1.63,0-.72,.54-1.27,1.36-1.27,.9,0,3.8,.72,8.95,.72s8.04-.72,8.95-.72,1.36,.54,1.36,1.27c0,1.9-2.08,.99-4.25,1.63-1.81,.54-1.99,1.27-1.99,4.16Zm-16.75-8.32l-.54,11.93c-.09,1.99-.36,2.53-1.27,2.53-1.63,0-1.54-2.53-2.62-6.06-1.63-3.89-4.25-4.43-9.76-4.43h-1.45c-.72,0-1.17,.81-1.17,1.45v44.29c0,3.8,.09,4.61,2.44,5.42,2.08,.72,3.98-.18,3.98,1.81,0,.72-.63,1.27-1.9,1.27-1.9,0-4.79-.63-8.59-.63s-6.69,.63-8.59,.63c-1.27,0-1.9-.54-1.9-1.45,0-1.81,1.99-.99,3.98-1.63,2.35-.72,2.44-1.54,2.44-5.42v-44.02c0-.72-.45-1.72-1.18-1.72h-2.53c-3.71,0-5.87,1.45-8.13,4.34-2.17,3.62-2.98,5.78-4.43,5.78-.63,0-.99-.09-.99-1.27,0-.09,.18-.81,.36-1.54l2.26-9.22c.63-2.71,.63-4.61,1.81-4.61,1.08,0,.99,2.98,2.08,3.07,.63,.63,2.08,.81,4.25,.81,1.72,0,3.89-.09,6.51-.09h11.12c2.98,0,5.33,.18,7.05,.18,1.36,0,2.35-.09,2.89-.45,1.63-.99,1.99-3.62,2.89-3.62,.72,0,.99,1.08,.99,1.63v.99Zm-51.22,8.32v41.4c0,3.8,.09,4.7,2.44,5.42,2.08,.63,3.98-.18,3.98,1.81,0,.72-.63,1.27-1.9,1.27-1.08,0-3.89-.54-8.59-.54s-7.5,.54-8.59,.54c-1.27,0-1.9-.54-1.9-1.45,0-1.72,1.81-1.08,3.53-1.54,2.89-.72,2.89-1.63,2.89-5.51v-41.4c0-2.89-.18-3.62-1.99-4.16-2.35-.63-4.25,.18-4.25-1.63,0-.72,.45-1.27,1.36-1.27s3.8,.72,8.95,.72,7.95-.72,8.95-.72c.81,0,1.36,.54,1.36,1.27,0,1.63-1.63,1.08-3.89,1.54-2.26,.45-2.35,1.36-2.35,4.25Zm-35.99,23.86l-1.45-.63c-.27-.09-.45-.18-.63-.18-.72,0-.81,.54-.81,1.72v16.9c0,3.07,.09,4.16,1.81,4.97,2.26,.99,4.34-.18,4.34,1.99,0,.72-.72,1.36-1.9,1.36s-4.07-.63-8.59-.63c-4.25,0-6.96,.63-8.23,.63-.8,0-1.35-.25-1.62-.7-.2,.54-.76,.7-1.81,.7-1.54,0-3.98-.54-7.59-.54-5.06,0-8.13,.45-9.31,.45-1.08,0-1.54-.27-1.54-1.08s.72-1.45,1.81-1.45c2.98,0,3.71-.54,3.71-2.17,0-.81-.27-2.17-.81-4.07l-3.53-11.57c-.18-.63-.63-.72-1.36-.72h-11.21c-.36,0-.9,.36-.99,.81l-2.17,8.04c-.9,3.53-1.36,5.88-1.36,6.96,0,1.81,.72,2.17,2.35,2.44,2.44,.36,3.62,.63,3.62,1.99,0,.81-.54,1.08-1.54,1.08-1.27,0-3.98-.54-7.86-.54-2.62,0-4.7,.45-5.97,.45-1.08,0-1.63-.45-1.63-1.18,0-1.9,2.71-.72,4.52-2.08,1.63-1.18,2.26-3.43,3.25-6.69l14.37-46.64c.45-1.36,.54-2.17,1.54-2.17,1.27,0,1.36,1.72,2.17,4.25l13.65,43.02c1.27,4.16,2.08,6.6,4.43,8.14,1.33,.91,2.6,.95,3.11,1.43,.25-1.24,1.83-.74,3.4-1.15,2.71-.72,2.71-2.17,2.71-6.24v-40.76c0-2.62-.18-3.53-1.9-4.07-2.26-.72-4.07,.09-4.07-1.72,0-.9,.63-1.27,1.72-1.27,.45,0,2.8,.27,7.14,.27h1.45c2.08,0,5.06-.18,9.04-.18,10.48,0,15.73,5.6,15.73,16.54,0,9.13-5.69,15.91-12.38,15.91-1.63,0-3.43-.63-5.6-1.63Zm-2.98-6.33c0,2.62,2.44,3.89,4.7,3.89,4.07,0,7.77-4.79,7.77-12.29,0-8.13-3.89-13.56-8.23-13.56-3.71,0-4.25,1.27-4.25,4.43v17.54Zm-39.86-9.49c-.18-.54-.36-.81-.54-.81s-.45,.27-.54,.72l-4.25,16c-.09,.45-.09,.81-.09,.9,0,.27,.27,.54,.63,.54h9.04c.36,0,.81-.36,.81-.72,0-.27-.09-.54-.18-.9l-4.88-15.73Zm-63.98,13.29c0-16.81,12.11-30.01,27.21-30.01,6.6,0,12.29,2.08,13.38,3.34,.63,.63,1.18,3.98,1.18,9.31,0,.99-.27,1.63-.72,1.63-.81,0-1.63-1.36-2.98-3.62-3.25-5.33-6.51-8.23-11.21-8.23-9.76,0-17.54,11.12-17.54,28.02,0,15.64,7.77,26.94,16.72,26.94,5.6,0,9.22-3.07,12.02-9.31,1.45-3.25,2.08-5.15,3.16-5.15,.54,0,.99,.63,.99,1.9,0,.72-.27,3.34-.27,7.68s-6.42,7.77-15.55,7.77c-15.19,0-26.39-13.29-26.39-30.28Zm-55.96-14.28c0-9.31,6.15-15.73,16-15.73,5.06,0,9.49,1.72,10.3,2.8,.45,.54,.72,3.89,.72,9.85,0,1.27-.45,1.9-1.17,1.9-1.27,0-1.36-1.72-2.62-4.79-1.9-4.79-3.8-7.41-8.04-7.41-5.33,0-8.68,3.62-8.68,9.31,0,4.79,2.71,7.41,8.41,10.39,9.67,5.06,15.09,9.67,15.09,19.88s-7.32,18.35-17.44,18.35c-7.95,0-13.38-2.62-13.38-7.77,0-2.08,.18-3.98,.18-5.69,0-1.36-.09-2.17-.09-2.35,0-1.9,.54-2.8,1.36-2.8,1.63,0,1.18,2.89,2.17,6.33,1.81,6.06,6.24,9.67,10.85,9.67,5.42,0,9.76-4.61,9.76-10.85,0-5.51-3.43-9.76-10.3-13.65-7.32-4.16-13.11-6.87-13.11-17.44Zm-27.84,.99c-.18-.54-.36-.81-.54-.81s-.45,.27-.54,.72l-4.25,16c-.09,.45-.09,.81-.09,.9,0,.27,.27,.54,.63,.54h9.04c.36,0,.81-.36,.81-.72,0-.27-.09-.54-.18-.9l-4.88-15.73Zm4.43-12.47l13.65,43.02c1.27,4.16,2.08,6.6,4.43,8.14,1.72,1.17,3.34,.9,3.34,1.99,0,.99-.54,1.27-1.9,1.27-1.54,0-3.98-.54-7.59-.54-5.06,0-8.13,.45-9.31,.45-1.08,0-1.54-.27-1.54-1.08s.72-1.45,1.81-1.45c2.98,0,3.71-.54,3.71-2.17,0-.81-.27-2.17-.81-4.07l-3.53-11.57c-.18-.63-.63-.72-1.36-.72h-11.21c-.36,0-.9,.36-.99,.81l-2.17,8.04c-.9,3.53-1.36,5.88-1.36,6.96,0,1.81,.72,2.17,2.35,2.44,2.44,.36,3.62,.63,3.62,1.99,0,.81-.54,1.08-1.54,1.08-1.27,0-3.98-.54-7.86-.54-2.62,0-4.7,.45-5.97,.45-1.08,0-1.63-.45-1.63-1.18,0-1.9,2.71-.72,4.52-2.08,1.63-1.18,2.26-3.43,3.25-6.69l14.37-46.64c.45-1.36,.54-2.17,1.54-2.17,1.27,0,1.36,1.72,2.17,4.25Zm-19-3.89l-.54,11.93c-.09,1.99-.36,2.53-1.27,2.53-1.63,0-1.54-2.53-2.62-6.06-1.63-3.89-4.25-4.43-9.76-4.43h-1.45c-.72,0-1.17,.81-1.17,1.45v44.29c0,3.8,.09,4.61,2.44,5.42,2.08,.72,3.98-.18,3.98,1.81,0,.72-.63,1.27-1.9,1.27-1.9,0-4.79-.63-8.59-.63s-6.69,.63-8.59,.63c-1.27,0-1.9-.54-1.9-1.45,0-1.81,1.99-.99,3.98-1.63,2.35-.72,2.44-1.54,2.44-5.42v-44.02c0-.72-.45-1.72-1.18-1.72h-2.53c-3.71,0-5.87,1.45-8.13,4.34-2.17,3.62-2.98,5.78-4.43,5.78-.63,0-.99-.09-.99-1.27,0-.09,.18-.81,.36-1.54l2.26-9.22c.63-2.71,.63-4.61,1.81-4.61,1.08,0,.99,2.98,2.08,3.07,.63,.63,2.08,.81,4.25,.81,1.72,0,3.89-.09,6.51-.09h11.12c2.98,0,5.33,.18,7.05,.18,1.36,0,2.35-.09,2.89-.45,1.63-.99,1.99-3.62,2.89-3.62,.72,0,.99,1.08,.99,1.63v.99Zm-55.91,29.01c1.9,1.36,2.71,3.34,3.71,5.69l5.24,12.47c2.08,4.88,3.07,7.59,4.25,8.04,1.99,.81,3.8,.72,3.8,2.08,0,.81-.45,.9-1.54,.9-1.54,0-3.43-.27-5.51-.27-1.36,0-2.62,.27-3.98,.27-1.81,0-1.99-.99-2.8-2.98l-8.13-20.52c-1.27-3.16-2.26-4.07-5.06-4.07h-.9c-.72,0-1.18,.54-1.18,1.27v17.81c0,3.52,.09,5.69,3.98,5.69,1.45,0,1.99,.45,1.99,1.54,0,.72-.72,1.27-1.81,1.27-.9,0-3.53-.54-8.23-.54s-7.5,.54-8.59,.54c-1.27,0-1.9-.54-1.9-1.45,0-1.72,1.81-1.08,3.53-1.54,2.89-.72,2.89-1.63,2.89-5.51v-41.4c0-2.89-.18-3.62-1.99-4.16-2.35-.63-4.25,.18-4.25-1.63,0-1.18,.81-1.27,2.44-1.27,.72,0,2.8,.36,5.97,.36,4.52,0,8.86-.54,12.93-.54,9.67,0,14.82,5.6,14.82,14.01,0,7.23-3.71,12.56-9.67,13.92Zm-12.11-3.25c0,1.9,1.09,2.08,4.16,2.08,6.15,0,9.4-3.98,9.4-11.48s-3.16-12.29-9.04-12.29c-4.16,0-4.52,1.54-4.52,4.52v17.17Zm-20.73-21.42v7.77c0,1.54-.18,2.26-.99,2.26-1.63,0-1.17-3.8-4.43-6.78-2.44-2.26-6.06-3.43-11.03-3.43s-5.06,1.27-5.06,5.51v14.91c0,1.54,0,1.81,1.63,1.81h4.07c3.71,0,6.78-.81,7.59-1.63,2.44-2.35,1.27-5.51,3.16-5.51,.81,0,1.08,.36,1.08,1.27,0,2.26-.45,5.33-.45,8.95,0,4.25,.27,6.87,.27,7.68,0,1.08-.45,1.63-1.08,1.63-1.54,0-1.18-2.8-3.07-6.33-1.45-2.71-3.8-2.98-7.59-2.98h-3.98c-1.27,0-1.63,.36-1.63,1.63v18.62c0,4.97,1.17,5.78,6.51,5.78,5.6,0,8.59-.72,11.39-5.15,2.17-3.34,2.89-6.24,4.34-6.24,.36,0,.9,.54,.9,.81,0,0-.09,.63-.18,1.63l-.99,8.77c-.27,2.8-.18,3.16-2.8,3.16-3.71,0-11.48-.72-23.05-.72-5.33,0-8.13,.45-8.86,.45-1.36,0-1.99-.45-1.99-1.45,0-1.63,1.63-1.08,3.89-1.45,2.62-.36,2.71-2.08,2.71-5.6v-41.4c0-2.71,0-3.62-1.72-4.16-1.99-.63-3.89,.18-3.89-1.63,0-.81,.54-1.27,1.54-1.27,.72,0,5.15,.36,13.47,.36,10.58,0,16.54-.36,17.72-.36,2.44,0,2.53,.81,2.53,2.71v.36Zm-67.35,24.95c-.72,0-1.18,.45-1.18,1.18v18.53c0,4.61,1.9,6.78,7.32,6.78,7.14,0,11.57-4.97,11.57-13.74,0-7.68-4.16-12.74-12.11-12.74h-5.6Zm14.91-2.26c7.59,1.54,11.84,7.05,11.84,15.46,0,9.67-6.69,16.54-16.9,16.54-6.51,0-11.84-1.36-16.27-1.36-3.34,0-5.6,.54-6.78,.54-1.08,0-1.72-.54-1.72-1.45,0-.99,.63-1.36,2.17-1.36,2.71,0,3.53-1.45,3.53-3.89,0-.27,.09-.81,.09-1.81v-41.4c0-2.44-.81-3.53-2.44-3.53-1.18,0-2.26,.45-3.16,.45-.72,0-1.08-.45-1.08-1.27,0-1.81,5.69-2.8,16.9-2.8,15.09,0,22.69,4.16,22.69,13.92,0,5.97-2.8,9.67-8.86,11.93Zm-16.09-3.43c0,2.62,.09,2.8,2.8,2.8h1.18c7.77,0,12.29-3.89,12.29-10.76,0-7.41-3.89-11.48-11.03-11.48-4.61,0-5.24,1.08-5.24,4.34v15.09Zm-24.65-15.28v41.4c0,3.8,.09,4.7,2.44,5.42,2.08,.63,3.98-.18,3.98,1.81,0,.72-.63,1.27-1.9,1.27-1.08,0-3.89-.54-8.59-.54s-7.5,.54-8.59,.54c-1.27,0-1.9-.54-1.9-1.45,0-1.72,1.81-1.08,3.53-1.54,2.89-.72,2.89-1.63,2.89-5.51v-41.4c0-2.89-.18-3.62-1.99-4.16-2.35-.63-4.25,.18-4.25-1.63,0-.72,.45-1.27,1.36-1.27s3.8,.72,8.95,.72,7.95-.72,8.95-.72c.81,0,1.36,.54,1.36,1.27,0,1.63-1.63,1.08-3.89,1.54-2.26,.45-2.35,1.36-2.35,4.25Zm-37.29,0v41.4c0,3.89,2.08,5.88,5.87,5.88s6.78-1.63,9.31-4.97c2.71-3.62,3.71-6.06,4.7-6.06,.36,0,.81,.45,.81,.72,0,.09,0,.72-.09,1.63l-.9,8.5c-.09,.81-.18,1.27-.18,1.54,0,.99-.63,1.54-1.81,1.54-3.8,0-11.12-.81-21.78-.81-4.7,0-7.5,.54-8.59,.54-1.27,0-1.9-.54-1.9-1.45,0-1.72,1.81-1.08,3.53-1.54,2.89-.72,2.89-1.63,2.89-5.51v-41.4c0-2.71-.09-3.62-1.81-4.16-2.17-.72-3.89,.18-3.89-1.63,0-.72,.45-1.27,1.18-1.27,.9,0,3.43,.72,8.32,.72,5.42,0,8.32-.72,9.22-.72,.81,0,1.36,.54,1.36,1.27,0,1.63-1.63,1.08-3.89,1.54-2.26,.45-2.35,1.36-2.35,4.25Zm606.09,445.5h8.18c1.62,0,2.38,.19,2.38,1.05,0,1.71-3.99,1.24-7.13,4.66-2.38,2.57-3.61,6.37-3.61,11.6s1.33,5.32,5.8,5.32h15.69c1.62,0,1.9,0,1.9-1.71v-4.28c0-3.9-.86-7.13-1.71-7.99-2.47-2.57-5.8-1.33-5.8-3.33,0-.86,.38-1.14,1.33-1.14,2.38,0,5.61,.48,9.41,.48,4.47,0,7.23-.29,8.08-.29,1.14,0,1.71,.48,1.71,1.14,0,1.62-2.95,1.24-6.65,3.23-2.85,1.52-3.14,3.99-3.14,7.99v4.18c0,1.33,.38,1.71,1.71,1.71h19.58c5.23,0,6.08-1.24,6.08-6.84,0-5.89-.76-9.03-5.42-11.98-3.52-2.28-6.56-3.04-6.56-4.56,0-.38,.57-.95,.86-.95,0,0,.67,.1,1.71,.19l9.22,1.05c2.95,.29,3.33,.19,3.33,2.95,0,3.9-.76,12.07-.76,24.24,0,5.61,.48,8.56,.48,9.32,0,1.43-.48,2.09-1.52,2.09-1.71,0-1.14-1.71-1.52-4.09-.38-2.76-2.19-2.85-5.89-2.85h-43.54c-2.85,0-3.8,0-4.37,1.81-.67,2.09,.19,4.09-1.71,4.09-.86,0-1.33-.57-1.33-1.62,0-.76,.38-5.42,.38-14.16,0-11.12-.38-17.4-.38-18.63,0-2.57,.86-2.66,2.85-2.66h.38Zm4.18,66.53h43.54c4.09,0,6.18-2.19,6.18-6.18s-1.71-7.13-5.23-9.79c-3.8-2.85-6.37-3.9-6.37-4.94,0-.38,.48-.86,.76-.86,.1,0,.76,0,1.71,.1l8.94,.95c.86,.1,1.33,.19,1.62,.19,1.05,0,1.62,.67,1.62,1.9,0,3.99-.86,11.69-.86,22.91,0,4.94,.57,7.89,.57,9.03,0,1.33-.57,2-1.52,2-1.81,0-1.14-1.9-1.62-3.71-.76-3.04-1.71-3.04-5.8-3.04h-43.54c-2.85,0-3.8,.1-4.37,1.9-.76,2.28,.19,4.09-1.71,4.09-.76,0-1.33-.48-1.33-1.24,0-.95,.76-3.61,.76-8.75,0-5.7-.76-8.75-.76-9.7,0-.86,.57-1.43,1.33-1.43,1.71,0,1.14,1.71,1.62,4.09,.48,2.38,1.43,2.47,4.47,2.47Zm0,30.63h43.54c3.99,0,4.94-.09,5.7-2.57,.67-2.19-.19-4.18,1.9-4.18,.76,0,1.33,.66,1.33,2,0,1.14-.57,4.09-.57,9.03s.57,7.89,.57,9.03c0,1.33-.57,2-1.52,2-1.81,0-1.14-1.9-1.62-3.71-.76-3.04-1.71-3.04-5.8-3.04h-43.54c-3.04,0-3.8,.19-4.37,2.09-.67,2.47,.19,4.47-1.71,4.47-.76,0-1.33-.48-1.33-1.43s.76-3.99,.76-9.41-.76-8.37-.76-9.41c0-.86,.57-1.43,1.33-1.43,1.71,0,1.14,1.71,1.62,4.09,.48,2.38,1.43,2.47,4.47,2.47Zm0,63.2h17.3c.86,0,1.24-.38,1.24-1.24v-21.58c0-.76-.57-1.14-1.33-1.14h-17.21c-3.04,0-3.8,.1-4.37,2-.67,2.47,.19,4.47-1.71,4.47-.76,0-1.33-.48-1.33-1.43s.76-3.99,.76-9.41-.76-8.37-.76-9.41c0-.86,.57-1.43,1.33-1.43,1.71,0,1.14,1.71,1.62,4.09s1.43,2.47,4.47,2.47h43.54c3.99,0,4.94,0,5.7-2.47,.66-2.19-.19-4.28,1.9-4.28,.76,0,1.33,.76,1.33,2.09,0,1.14-.57,3.99-.57,8.94s.57,7.89,.57,9.03c0,1.33-.57,2.09-1.52,2.09-1.81,0-1.14-1.9-1.62-3.71-.76-3.04-1.71-3.04-5.8-3.04h-20.34c-.76,0-1.33,.38-1.33,1.14v21.58c0,.76,.57,1.24,1.33,1.24h20.34c3.99,0,4.94-.1,5.7-2.57,.66-2.19-.19-4.18,1.9-4.18,.76,0,1.33,.67,1.33,2,0,1.14-.57,4.09-.57,9.03s.57,7.89,.57,9.03c0,1.33-.57,2-1.52,2-1.81,0-1.14-1.9-1.62-3.71-.76-3.04-1.71-3.04-5.8-3.04h-43.54c-3.04,0-3.8,.19-4.37,2.09-.67,2.47,.19,4.47-1.71,4.47-.76,0-1.33-.48-1.33-1.43s.76-3.99,.76-9.41-.76-8.37-.76-9.41c0-.86,.57-1.43,1.33-1.43,1.71,0,1.14,1.71,1.62,4.09,.48,2.38,1.43,2.47,4.47,2.47Zm22.44,70.15c-17.68,0-31.56-12.74-31.56-28.61,0-6.94,2.19-12.93,3.52-14.07,.67-.67,4.18-1.24,9.79-1.24,1.05,0,1.71,.28,1.71,.76,0,.86-1.43,1.71-3.8,3.14-5.61,3.42-8.65,6.85-8.65,11.79,0,10.27,11.69,18.44,29.47,18.44,16.45,0,28.33-8.18,28.33-17.59,0-5.89-3.23-9.7-9.79-12.64-3.42-1.52-5.42-2.19-5.42-3.33,0-.57,.67-1.05,2-1.05,.76,0,3.52,.28,8.08,.28s8.18,6.75,8.18,16.35c0,15.97-13.97,27.76-31.85,27.76Zm-27.79,45.75l8.17,.28c1.62,.06,2.37,.27,2.34,1.13-.06,1.71-4.03,1.1-7.29,4.41-2.46,2.48-3.83,6.24-4.01,11.46-.18,5.04,1.14,5.37,5.61,5.52l15.68,.55c1.61,.06,1.9,.07,1.96-1.64l.15-4.28c.14-3.9-.61-7.16-1.43-8.04-2.38-2.65-5.75-1.53-5.68-3.53,.03-.86,.42-1.13,1.37-1.09,2.38,.08,5.59,.67,9.39,.8,4.47,.16,7.23-.03,8.09,0,1.14,.04,1.69,.53,1.67,1.2-.06,1.62-2.99,1.13-6.76,3-2.9,1.42-3.27,3.88-3.41,7.87l-.15,4.18c-.05,1.33,.32,1.72,1.65,1.77l19.57,.68c5.23,.18,6.12-1.02,6.32-6.63,.21-5.89-.45-9.05-5-12.16-3.44-2.4-6.45-3.27-6.4-4.79,.01-.38,.6-.93,.89-.92,0,0,.66,.12,1.7,.25l9.18,1.37c2.94,.39,3.32,.31,3.22,3.06-.14,3.9-1.18,12.04-1.61,24.2-.2,5.61,.18,8.57,.15,9.33-.05,1.42-.55,2.07-1.59,2.04-1.71-.06-1.08-1.75-1.38-4.14-.28-2.77-2.09-2.93-5.79-3.06l-43.51-1.52c-2.85-.1-3.8-.13-4.43,1.65-.74,2.07,.05,4.09-1.85,4.03-.86-.03-1.31-.62-1.27-1.66,.03-.76,.57-5.4,.87-14.14,.39-11.12,.23-17.4,.27-18.63,.09-2.56,.95-2.63,2.94-2.56h.38Zm16.27,99.9l-36.65-24.72c-1.66-1.12-2.74-1.39-3.64-.05-.8,1.18-.67,2.53-1.31,3.47-.32,.47-1.06,.55-1.77,.07-2.05-1.38,.97-9.09,9-20.99,10.1-14.97,26.99-17.23,42.2-6.97,15.37,10.37,19.11,25.73,8.53,41.41-2.76,4.1-5.84,6.96-7.7,9.71-1.65,2.44-2.58,5.02-3.91,6.99-.74,1.1-1.59,1.34-2.38,.8-1.5-1.01,.12-2.21,.73-3.98,1.07-2.95,.28-3.48-3.11-5.76Zm2.5-8.63c5.44,3.67,8.12,4.1,11.31-.62,6.8-10.09,2.39-22.58-11.8-32.15-13.32-8.98-27.35-8.93-33.89,.77-3.67,5.44-2.67,7.03,.4,9.1l33.97,22.91Zm-101.61,2.79v43.54c0,4.09,2.19,6.18,6.18,6.18s7.13-1.71,9.79-5.23c2.85-3.8,3.9-6.37,4.94-6.37,.38,0,.86,.48,.86,.76,0,.1,0,.76-.1,1.71l-.95,8.94c-.1,.86-.19,1.33-.19,1.62,0,1.05-.67,1.62-1.9,1.62-3.99,0-11.69-.86-22.91-.86-4.94,0-7.89,.57-9.03,.57-1.33,0-2-.57-2-1.52,0-1.81,1.9-1.14,3.71-1.62,3.04-.76,3.04-1.71,3.04-5.8v-43.54c0-2.85-.09-3.8-1.9-4.37-2.28-.76-4.09,.19-4.09-1.71,0-.76,.48-1.33,1.24-1.33,.95,0,3.61,.76,8.75,.76,5.7,0,8.75-.76,9.7-.76,.86,0,1.43,.57,1.43,1.33,0,1.71-1.71,1.14-4.09,1.62-2.38,.48-2.47,1.43-2.47,4.47Zm-46.61,8.46c-.19-.57-.38-.86-.57-.86s-.48,.28-.57,.76l-4.47,16.83c-.09,.48-.09,.86-.09,.95,0,.29,.28,.57,.66,.57h9.51c.38,0,.86-.38,.86-.76,0-.29-.1-.57-.19-.95l-5.13-16.54Zm4.66-13.12l14.36,45.25c1.33,4.37,2.19,6.94,4.66,8.56,1.81,1.24,3.52,.95,3.52,2.09,0,1.05-.57,1.33-2,1.33-1.62,0-4.18-.57-7.99-.57-5.32,0-8.56,.48-9.79,.48-1.14,0-1.62-.29-1.62-1.14s.76-1.52,1.9-1.52c3.14,0,3.9-.57,3.9-2.28,0-.86-.28-2.28-.86-4.28l-3.71-12.17c-.19-.67-.67-.76-1.43-.76h-11.79c-.38,0-.95,.38-1.05,.86l-2.28,8.46c-.95,3.71-1.43,6.18-1.43,7.32,0,1.9,.76,2.28,2.47,2.57,2.57,.38,3.8,.67,3.8,2.09,0,.86-.57,1.14-1.62,1.14-1.33,0-4.18-.57-8.27-.57-2.76,0-4.94,.48-6.27,.48-1.14,0-1.71-.48-1.71-1.24,0-2,2.85-.76,4.75-2.19,1.71-1.24,2.38-3.61,3.42-7.03l15.12-49.05c.48-1.43,.57-2.28,1.62-2.28,1.33,0,1.43,1.81,2.28,4.47Zm-45.62,26.43c2,1.43,2.85,3.52,3.9,5.99l5.51,13.12c2.19,5.13,3.23,7.99,4.47,8.46,2.09,.86,3.99,.76,3.99,2.19,0,.86-.48,.95-1.62,.95-1.62,0-3.61-.29-5.8-.29-1.43,0-2.76,.29-4.18,.29-1.9,0-2.09-1.05-2.95-3.14l-8.56-21.58c-1.33-3.33-2.38-4.28-5.32-4.28h-.95c-.76,0-1.24,.57-1.24,1.33v18.73c0,3.71,.1,5.99,4.18,5.99,1.52,0,2.09,.48,2.09,1.62,0,.76-.76,1.33-1.9,1.33-.95,0-3.71-.57-8.65-.57s-7.89,.57-9.03,.57c-1.33,0-2-.57-2-1.52,0-1.81,1.9-1.14,3.71-1.62,3.04-.76,3.04-1.71,3.04-5.8v-43.54c0-3.04-.19-3.8-2.09-4.37-2.47-.67-4.47,.19-4.47-1.71,0-1.24,.86-1.33,2.57-1.33,.76,0,2.95,.38,6.27,.38,4.75,0,9.32-.57,13.59-.57,10.17,0,15.59,5.89,15.59,14.74,0,7.6-3.9,13.21-10.17,14.64Zm-12.74-3.42c0,2,1.14,2.19,4.37,2.19,6.46,0,9.89-4.18,9.89-12.07s-3.33-12.93-9.51-12.93c-4.37,0-4.75,1.62-4.75,4.75v18.06Zm-22.58-27.09l-.57,12.55c-.1,2.09-.38,2.66-1.33,2.66-1.71,0-1.62-2.66-2.76-6.37-1.71-4.09-4.47-4.66-10.27-4.66h-1.52c-.76,0-1.24,.86-1.24,1.52v46.58c0,3.99,.1,4.85,2.57,5.7,2.19,.76,4.18-.19,4.18,1.9,0,.76-.67,1.33-2,1.33-2,0-5.04-.67-9.03-.67s-7.04,.67-9.03,.67c-1.33,0-2-.57-2-1.52,0-1.9,2.09-1.05,4.18-1.71,2.47-.76,2.57-1.62,2.57-5.7v-46.3c0-.76-.48-1.81-1.24-1.81h-2.66c-3.9,0-6.18,1.52-8.56,4.56-2.28,3.8-3.14,6.08-4.66,6.08-.67,0-1.05-.1-1.05-1.33,0-.1,.19-.86,.38-1.62l2.38-9.7c.67-2.85,.67-4.85,1.9-4.85,1.14,0,1.05,3.14,2.19,3.23,.66,.67,2.19,.86,4.47,.86,1.81,0,4.09-.1,6.85-.1h11.69c3.14,0,5.61,.19,7.41,.19,1.43,0,2.47-.1,3.04-.48,1.71-1.05,2.09-3.8,3.04-3.8,.76,0,1.05,1.14,1.05,1.71v1.05Zm-85.04,16.16c0-9.79,6.46-16.54,16.83-16.54,5.32,0,9.98,1.81,10.84,2.95,.48,.57,.76,4.09,.76,10.36,0,1.33-.48,2-1.24,2-1.33,0-1.43-1.81-2.76-5.04-2-5.04-3.99-7.8-8.46-7.8-5.61,0-9.13,3.8-9.13,9.79,0,5.04,2.85,7.8,8.84,10.93,10.17,5.32,15.88,10.17,15.88,20.91s-7.7,19.3-18.35,19.3c-8.37,0-14.07-2.76-14.07-8.18,0-2.19,.19-4.18,.19-5.99,0-1.43-.09-2.28-.09-2.47,0-2,.57-2.95,1.43-2.95,1.71,0,1.24,3.04,2.28,6.65,1.9,6.37,6.56,10.17,11.41,10.17,5.7,0,10.27-4.85,10.27-11.41,0-5.8-3.61-10.27-10.84-14.36-7.7-4.37-13.78-7.22-13.78-18.35Zm-45.83-7.41v33.18c0,11.6,2.28,17.68,12.36,17.68,5.04,0,8.84-1.81,11.12-5.04,2.28-3.42,2.38-7.99,2.38-14.54v-23.01c0-7.23-.1-10.93-1.71-12.26-1.71-1.33-5.13,0-5.13-2.09,0-.86,.57-1.33,1.62-1.33,1.14,0,3.23,.29,6.46,.29,3.42,0,5.61-.29,6.56-.29,1.33,0,2,.38,2,1.33,0,1.14-.86,1.33-2.76,1.33-3.99,0-4.18,3.23-4.18,12.74v23.39c0,6.56-.1,11.5-2.57,15.78-2.66,4.56-7.99,7.13-15.31,7.13-8.08,0-13.5-2.09-16.73-6.84-2.57-3.71-2.76-8.27-2.76-14.07v-33.37c0-3.14-.1-3.8-2.09-4.37-2.47-.76-4.37,.19-4.37-1.71,0-.76,.57-1.33,1.43-1.33,.95,0,3.99,.76,9.41,.76s8.46-.76,9.41-.76,1.43,.57,1.43,1.33c0,2-2.19,1.05-4.47,1.71-1.9,.57-2.09,1.33-2.09,4.37Zm-43.28,8.46c-.19-.57-.38-.86-.57-.86s-.48,.28-.57,.76l-4.47,16.83c-.1,.48-.1,.86-.1,.95,0,.29,.29,.57,.67,.57h9.51c.38,0,.86-.38,.86-.76,0-.29-.1-.57-.19-.95l-5.13-16.54Zm4.66-13.12l14.36,45.25c1.33,4.37,2.19,6.94,4.66,8.56,1.81,1.24,3.52,.95,3.52,2.09,0,1.05-.57,1.33-2,1.33-1.62,0-4.18-.57-7.99-.57-5.32,0-8.56,.48-9.79,.48-1.14,0-1.62-.29-1.62-1.14s.76-1.52,1.9-1.52c3.14,0,3.9-.57,3.9-2.28,0-.86-.28-2.28-.86-4.28l-3.71-12.17c-.19-.67-.67-.76-1.43-.76h-11.79c-.38,0-.95,.38-1.05,.86l-2.28,8.46c-.95,3.71-1.43,6.18-1.43,7.32,0,1.9,.76,2.28,2.47,2.57,2.57,.38,3.8,.67,3.8,2.09,0,.86-.57,1.14-1.62,1.14-1.33,0-4.18-.57-8.27-.57-2.76,0-4.94,.48-6.27,.48-1.14,0-1.71-.48-1.71-1.24,0-2,2.85-.76,4.75-2.19,1.71-1.24,2.38-3.61,3.42-7.03l15.12-49.05c.47-1.43,.57-2.28,1.62-2.28,1.33,0,1.43,1.81,2.28,4.47Zm-127.42,48.2v-44.21c0-2-.38-3.04-2-3.04-1.43,0-2.47,.86-3.61,.86-.57,0-1.05-.57-1.05-1.43,0-2.47,8.08-4.28,22.44-4.28,18.06,0,29.38,12.74,29.38,31.09s-10.65,30.23-29.57,30.23c-4.94,0-9.03-.95-12.36-.95-2.95,0-5.61,.67-7.99,.67-1.33,0-2-.57-2-1.52,0-1.81,1.9-1.14,3.71-1.62,3.04-.76,3.04-1.71,3.04-5.8Zm8.56-2.76c0,6.56,1.14,9.03,6.85,9.03,12.17,0,20.06-10.65,20.06-27.76,0-16.07-7.89-27.66-19.58-27.66-6.56,0-7.32,1.71-7.32,5.42v40.97Zm-46.61-32.32c-.19-.57-.38-.86-.57-.86s-.48,.28-.57,.76l-4.47,16.83c-.1,.48-.1,.86-.1,.95,0,.29,.29,.57,.67,.57h9.51c.38,0,.86-.38,.86-.76,0-.29-.1-.57-.19-.95l-5.13-16.54Zm4.66-13.12l14.36,45.25c1.33,4.37,2.19,6.94,4.66,8.56,1.81,1.24,3.52,.95,3.52,2.09,0,1.05-.57,1.33-2,1.33-1.62,0-4.18-.57-7.99-.57-5.32,0-8.56,.48-9.79,.48-1.14,0-1.62-.29-1.62-1.14s.76-1.52,1.9-1.52c3.14,0,3.9-.57,3.9-2.28,0-.86-.29-2.28-.86-4.28l-3.71-12.17c-.19-.67-.67-.76-1.43-.76h-11.79c-.38,0-.95,.38-1.05,.86l-2.28,8.46c-.95,3.71-1.43,6.18-1.43,7.32,0,1.9,.76,2.28,2.47,2.57,2.57,.38,3.8,.67,3.8,2.09,0,.86-.57,1.14-1.62,1.14-1.33,0-4.18-.57-8.27-.57-2.76,0-4.94,.48-6.27,.48-1.14,0-1.71-.48-1.71-1.24,0-2,2.85-.76,4.75-2.19,1.71-1.24,2.38-3.61,3.42-7.03l15.12-49.05c.48-1.43,.57-2.28,1.62-2.28,1.33,0,1.43,1.81,2.28,4.47Zm-88.01,30.91l19.38-39.73c.88-1.79,.99-2.9-.46-3.61-1.28-.63-2.6-.31-3.62-.82-.51-.25-.69-.97-.31-1.74,1.08-2.22,9.14-.3,22.04,5.99,16.23,7.92,20.82,24.33,12.77,40.82-8.13,16.66-22.82,22.5-39.82,14.21-4.44-2.17-7.7-4.81-10.69-6.27-2.65-1.29-5.33-1.86-7.47-2.9-1.2-.58-1.54-1.39-1.13-2.24,.79-1.62,2.21-.19,4.04,.17,3.07,.65,3.48-.2,5.28-3.88Zm8.9,1.27c-2.88,5.9-2.93,8.62,2.19,11.12,10.94,5.33,22.7-.78,30.2-16.16,7.04-14.44,5.03-28.32-5.47-33.45-5.9-2.87-7.33-1.67-8.95,1.66l-17.96,36.83Zm-4.9-59.2l-36.92,23.07c-3.39,2.12-4.14,2.7-3.48,5.2,.59,2.21,2.38,3.45,.6,4.55-.65,.4-1.48,.14-2.19-.99-.6-.97-1.68-3.77-4.3-7.96-2.62-4.19-4.66-6.39-5.27-7.36-.71-1.13-.57-2,.23-2.5,1.53-.96,1.98,1.01,3.34,2.29,2.26,2.18,3.06,1.67,6.53-.49l36.92-23.07c2.58-1.61,3.12-2.18,2.6-4.09-.75-2.45-2.53-3.69-.92-4.7,.65-.4,1.38-.3,1.88,.5,.5,.81,1.47,3.79,4.34,8.39,2.87,4.59,5.08,6.69,5.63,7.58,.45,.73,.27,1.51-.37,1.91-1.45,.91-1.87-.85-3.54-2.61-1.66-1.76-2.52-1.34-5.1,.27Zm-19.96-46.95c9.61-1.87,17.47,3.19,19.45,13.36,1.02,5.23,.13,10.14-.83,11.2-.47,.58-3.87,1.53-10.03,2.72-1.31,.25-2.05-.09-2.2-.83-.25-1.31,1.5-1.74,4.42-3.67,4.57-2.92,6.89-5.41,6.04-9.79-1.07-5.51-5.47-8.23-11.35-7.09-4.95,.96-7.11,4.29-9.05,10.76-3.28,11-6.96,17.53-17.5,19.58-10.92,2.12-20.41-3.88-22.44-14.33-1.6-8.21,.02-14.34,5.34-15.37,2.15-.42,4.14-.61,5.92-.96,1.4-.27,2.22-.53,2.41-.56,1.96-.38,3,0,3.17,.84,.33,1.68-2.75,1.79-6.1,3.51-5.89,3.08-8.73,8.38-7.81,13.14,1.09,5.6,6.72,9.15,13.16,7.9,5.69-1.11,9.39-5.51,12.02-13.38,2.82-8.39,4.46-14.91,15.38-17.03Zm-12.1-24.74c-1.43,2-3.52,2.85-5.99,3.9l-13.12,5.51c-5.13,2.19-7.99,3.23-8.46,4.47-.86,2.09-.76,3.99-2.19,3.99-.86,0-.95-.48-.95-1.62,0-1.62,.28-3.61,.28-5.8,0-1.43-.28-2.76-.28-4.18,0-1.9,1.05-2.09,3.14-2.95l21.58-8.56c3.33-1.33,4.28-2.38,4.28-5.32v-.95c0-.76-.57-1.24-1.33-1.24h-18.73c-3.71,0-5.99,.09-5.99,4.18,0,1.52-.48,2.09-1.62,2.09-.76,0-1.33-.76-1.33-1.9,0-.95,.57-3.71,.57-8.65s-.57-7.89-.57-9.03c0-1.33,.57-2,1.52-2,1.81,0,1.14,1.9,1.62,3.71,.76,3.04,1.71,3.04,5.8,3.04h43.54c3.04,0,3.8-.19,4.37-2.09,.66-2.47-.19-4.47,1.71-4.47,1.24,0,1.33,.86,1.33,2.57,0,.76-.38,2.95-.38,6.27,0,4.75,.57,9.32,.57,13.59,0,10.17-5.89,15.59-14.74,15.59-7.61,0-13.21-3.9-14.64-10.17Zm3.42-12.74c-2,0-2.19,1.14-2.19,4.37,0,6.46,4.18,9.89,12.07,9.89s12.93-3.33,12.93-9.51c0-4.37-1.62-4.75-4.75-4.75h-18.06Zm22.54-26.48h-8.18c-1.62,0-2.38-.19-2.38-1.05,0-1.71,3.99-1.24,7.13-4.66,2.38-2.57,3.61-6.37,3.61-11.6s-1.33-5.32-5.8-5.32h-15.69c-1.62,0-1.9,0-1.9,1.71v4.28c0,3.9,.86,7.13,1.71,7.99,2.47,2.57,5.8,1.33,5.8,3.33,0,.86-.38,1.14-1.33,1.14-2.38,0-5.61-.48-9.41-.48-4.47,0-7.23,.29-8.08,.29-1.14,0-1.71-.48-1.71-1.14,0-1.62,2.95-1.24,6.65-3.23,2.85-1.52,3.14-3.99,3.14-7.99v-4.18c0-1.33-.38-1.71-1.71-1.71h-19.58c-5.23,0-6.08,1.24-6.08,6.85,0,5.89,.76,9.03,5.42,11.98,3.52,2.28,6.56,3.04,6.56,4.56,0,.38-.57,.95-.86,.95,0,0-.67-.09-1.71-.19l-9.22-1.05c-2.95-.29-3.33-.19-3.33-2.95,0-3.9,.76-12.07,.76-24.24,0-5.61-.48-8.56-.48-9.32,0-1.43,.48-2.09,1.52-2.09,1.71,0,1.14,1.71,1.52,4.09,.38,2.76,2.19,2.85,5.89,2.85h43.54c2.85,0,3.8,0,4.37-1.81,.67-2.09-.19-4.09,1.71-4.09,.86,0,1.33,.57,1.33,1.62,0,.76-.38,5.42-.38,14.16,0,11.12,.38,17.4,.38,18.63,0,2.57-.86,2.66-2.85,2.66h-.38Zm-4.84-48.34l-50.86-16.64c-1.14-.38-1.71-.76-1.71-1.24,0-.86,2-1.24,4.37-2.09l44.49-15.31c4.75-1.62,7.7-2.47,8.65-4.37,.67-1.33,.1-3.8,1.52-3.8,.86,0,1.43,.48,1.43,1.52,0,.57-.57,4.37-.57,11.88,0,2.95,.48,5.13,.48,6.18,0,.95-.28,1.33-1.14,1.33-2.66,0-.28-4.85-4.09-4.85-.95,0-2.28,.28-3.99,.86l-30.52,10.55c-1.43,.48-2.09,.76-2.09,1.14s.76,.76,2.09,1.14l27.76,8.18c2.95,.86,5.04,1.24,6.18,1.24,4.85,0,2.09-5.61,4.85-5.61,.76,0,1.33,.67,1.33,1.81,0,.95-.57,3.14-.57,6.65,0,3.9,.38,6.08,.38,6.56,0,1.24-.38,1.81-1.24,1.81-1.9,0-.95-2.28-1.71-3.8-.76-1.52-2.47-2.28-5.04-3.14Zm.67-54.21h-43.54c-3.99,0-4.94,.1-5.7,2.57-.66,2.19,.19,4.18-1.9,4.18-.76,0-1.33-.66-1.33-2,0-1.14,.57-4.09,.57-9.03s-.57-7.89-.57-9.03c0-1.33,.57-2,1.52-2,1.81,0,1.14,1.9,1.62,3.71,.76,3.04,1.71,3.04,5.8,3.04h43.54c3.04,0,3.8-.19,4.37-2.09,.67-2.47-.19-4.47,1.71-4.47,.76,0,1.33,.48,1.33,1.43s-.76,3.99-.76,9.41,.76,8.37,.76,9.41c0,.86-.57,1.43-1.33,1.43-1.71,0-1.14-1.71-1.62-4.09-.48-2.38-1.43-2.47-4.47-2.47Zm7.42-73.54v12.17c0,.86-.1,1.05-.95,1.62l-41.35,25.48c-.1,.38,.38,.57,.95,.57h26.05c2.66,0,4.28-.1,4.85-.1,6.84,0,7.7-.28,7.7-5.51,0-.95,.57-1.71,1.33-1.71,.86,0,1.43,.95,1.43,2.47,0,1.71-.29,3.8-.29,6.56s.29,4.56,.29,5.89-.57,2.09-1.43,2.09c-1.05,0-1.24-.38-1.24-1.62v-.95c0-3.33-3.04-3.61-9.98-3.61h-47.44c-1.24,0-2.38-.67-2.38-1.43,0-.67,.57-1.24,1.52-1.81l50.96-31.28c.1-.38-.38-.57-.95-.57h-36.98c-7.13,0-9.22,.38-9.22,4.18,0,.57,.09,1.14,.09,1.71,0,.76-.57,1.33-1.52,1.33-.86,0-1.43-.86-1.43-2.47,0-1.71,.38-3.9,.38-6.56,0-2.38-.38-4.37-.38-6.08,0-1.52,.57-2.28,1.43-2.28,1.05,0,1.52,.48,1.52,1.81v.86c0,3.9,2.66,4.18,10.08,4.18h39.55c2.85,0,3.8-.1,4.37-1.9,.67-2.28-.1-4.37,1.71-4.37,.86,0,1.33,.48,1.33,1.33Zm-7.41-44.78h-33.18c-11.6,0-17.68,2.28-17.68,12.36,0,5.04,1.81,8.84,5.04,11.12,3.42,2.28,7.99,2.38,14.54,2.38h23.01c7.23,0,10.93-.1,12.26-1.71,1.33-1.71,0-5.13,2.09-5.13,.86,0,1.33,.57,1.33,1.62,0,1.14-.29,3.23-.29,6.46,0,3.42,.29,5.61,.29,6.56,0,1.33-.38,2-1.33,2-1.14,0-1.33-.86-1.33-2.76,0-3.99-3.23-4.18-12.74-4.18h-23.39c-6.56,0-11.5-.1-15.78-2.57-4.56-2.66-7.13-7.99-7.13-15.31,0-8.08,2.09-13.5,6.84-16.73,3.71-2.57,8.27-2.76,14.07-2.76h33.37c3.14,0,3.8-.1,4.37-2.09,.76-2.47-.19-4.37,1.71-4.37,.76,0,1.33,.57,1.33,1.43,0,.95-.76,3.99-.76,9.41s.76,8.46,.76,9.41-.57,1.43-1.33,1.43c-2,0-1.05-2.19-1.71-4.47-.57-1.9-1.33-2.09-4.37-2.09Zm389.05,3.95c-4.9,17.48,9.31,.36,14.7,.26-2.41-4.77-11.94-1.84-14.7-.26Zm181.33,78.67c4.37,4.77-12.92-29.35-22.97-31.84-28.39-7.05-33.53,24.78-32.83,47.82,.21,6.8-5.27,10.47-9.4,11.16-14.66,2.44-26.35,14.6,4.49,2.73,15.19,0,2.54-7.3,8.75-21.22,4.59-10.29,27.95-20.94,27.95-20.83,0,.11,15.94,3.38,24.01,12.18Zm-137.14-43.01c3.14,12.92-16.78,11.81-14.84,26.01,1.83,13.41,28.09,20.21,23.81,33.05-.7,2.1-34.38-.57-22.67,8.05,12.57-5.24,27.23-1.4,29.39,.9,1.61-.97,3.25-1.41,3.25-3.34,0-5.77-6.32-14.91-12.69-22.02-5.72-6.39,5.69-19.83,15.38-27.28,10.22-7.25-15.62-31.77-21.63-15.36Zm-41.8,10.79c-3.22,1.66-2.39,16.25,13.72-2.58,2-2.34,4.05-2.89,7.09-3.54,6.3-1.37,13.46-12.54,7.15-19.32-.45-.71-5.08-2.56-4.89-2.1,.08,.18-4.21-5.63-5.5-7.57l-1.29,.32c8.03,6.18-.52,18.96-4.71,8.97-.62-1.49-4.49,11.91-5.94,11.35l-9.64,8.99c8.24-.61,6.67,4.1,4,5.48Zm179.5,61.2c2.56-6.4,2.2-10.76,2.19-10.76-.02,0-3.81,8.64-8.66,13.63-4.83,4.96-8.05,3.83-11.02,3.88-1.62-2.06-3.14-4.05-8.13-3.14-5.47,.99-8.14,2.46-12.27,6.44,0,0,9.29-7.84,14.53-3.26,.87,.77,1.07,1.44,2.17,1.95,.15,.35,.44,.83,.85,1.49,7.66,.82,16.6-2.36,20.34-10.23Zm-176.51-52.13c-2.61,1.23-5.64,1.83-8.81,1.83-10.51,0-19.03-7.32-19.03-16.34,0-1.06,4.69-2.42,4.92-3.42l4.62-18.18s-.15-2.87,.12-4.95c.26-2.08,1.11-3.26,1.11-3.26-19.49-7.68-9.61-28.46-7.31-31.66,2.08-2.9-.3,13.54,6.73,16,4.08,1.42,6.89,1.3,8.76,1.22,0,0,8.32-3.36,14.31-2.97,5.99,.39,13.1,5.93,13.7,5.15,18.7,1.46,15.52-18.17,18.7-19.12,1.75-.52,6.81,23.04-.7,26.1l28.74,14.19s28.56,3.25,59.59,13.62c9.34,3.12,24.02-1.11,31.53,3.49,6.3,3.86,18.15,17.46,18.15,17.46,7.4,8.58,13.58,32.54,10.78,45.93-5.38,25.77-26.17,26.62-30.17,26.6-3.5,5.84-8.22,3.97-16.58,3.04-14.29-.44-24.87,0-40.75-.06-8.16,0-3.38-8.79-5.77-8.79h-90.68c-6.33,0-3.22-5.64-1.61-11.4,1.71-6.1,.16-9.54,6.01-11.96,4.21-1.74,2.03-1.43,3.98-5.81,1.35-3.03,2.17-5.3-1.05-11.52-3.22-6.22-5.51-7.85-6.03-11.24-.9-5.86,.44-16.19-3.13-13.97l-.12,.04Zm-26.23,115.36c-4.9,17.48,9.31,.36,14.7,.26-2.41-4.76-11.93-1.84-14.7-.26Zm182.84,76.05c4.37,4.77-12.92-29.35-22.97-31.84-28.39-7.05-33.53,24.78-32.83,47.82,.21,6.8-5.27,10.47-9.4,11.16-14.66,2.44-26.35,14.6,4.49,2.73,15.19,0,2.54-7.3,8.75-21.22,4.59-10.29,27.95-20.94,27.95-20.83s15.94,3.38,24.01,12.18Zm-137.14-43.01c3.14,12.92-16.78,11.81-14.84,26.01,1.83,13.41,28.09,20.21,23.81,33.05-.7,2.1-34.38-.57-22.67,8.05,12.57-5.24,27.23-1.4,29.39,.9,1.61-.97,3.25-1.41,3.25-3.34,0-5.77-6.32-14.91-12.69-22.02-5.72-6.39,5.69-19.83,15.38-27.28,10.22-7.25-15.62-31.77-21.63-15.36Zm-42.65,12.73c-3.22,1.66-2.39,16.25,13.72-2.58,2-2.34,4.05-2.89,7.09-3.54,6.3-1.37,13.46-12.54,7.15-19.32-.45-.71-5.08-2.55-4.89-2.09,.08,.18-4.21-5.63-5.5-7.57l-1.29,.32c8.03,6.18-.52,18.96-4.71,8.97-.62-1.49-4.48,11.91-5.93,11.35l-9.64,8.99c8.24-.61,6.67,4.1,4,5.48Zm179.5,61.2c2.56-6.4,2.2-10.76,2.19-10.76-.02,0-3.81,8.64-8.66,13.63-4.83,4.96-8.05,3.83-11.02,3.88-1.62-2.06-3.14-4.05-8.13-3.14-5.47,.99-8.14,2.46-12.27,6.44,0,0,9.29-7.84,14.53-3.26,.87,.77,1.07,1.44,2.17,1.95,.15,.35,.44,.83,.85,1.49,7.66,.82,16.6-2.36,20.34-10.23Zm-176.5-52.13c-2.61,1.23-5.64,1.83-8.81,1.83-10.51,0-19.03-7.32-19.03-16.34,0-1.06,4.69-2.42,4.92-3.42l4.62-18.18s-.15-2.87,.11-4.95c.26-2.08,1.11-3.26,1.11-3.26-19.49-7.68-9.61-28.46-7.32-31.66,2.08-2.9-.3,13.54,6.73,16,4.08,1.42,6.89,1.3,8.76,1.22,0,0,8.32-3.36,14.31-2.97,5.99,.39,13.1,5.93,13.7,5.15,18.7,1.46,15.52-18.17,18.7-19.12,1.75-.52,6.81,23.04-.7,26.1l28.74,14.19s28.56,3.25,59.59,13.62c9.34,3.12,24.02-1.11,31.53,3.49,6.3,3.86,18.16,17.46,18.16,17.46,7.4,8.58,13.58,32.54,10.78,45.93-5.38,25.77-26.17,26.62-30.17,26.6-3.5,5.84-8.22,3.97-16.58,3.04-11.64-.33-24.87,0-40.75-.06-8.16,0-3.38-8.79-5.77-8.79h-90.68c-6.33,0-3.22-5.64-1.61-11.4,1.71-6.1,.16-9.54,6.01-11.96,4.21-1.74,2.03-1.43,3.98-5.81,1.35-3.03,2.17-5.3-1.05-11.52-3.22-6.22-5.51-7.85-6.03-11.24-.9-5.86,.44-16.19-3.13-13.97l-.12,.04Zm-203.19-461.21h19.01c1.42,0,2.57,1.15,2.57,2.57v19.01c0,1.42-1.15,2.57-2.57,2.57l-2.51-3.97h-14.74s0-14.54,0-14.54l-4.32-3.06c0-1.42,1.15-2.57,2.57-2.57Zm-44.11,25.34l-6.69-2.28h-3.76v-8.88l-2.96-6.32c0-.81,.44-1.51,.99-1.58l12.42-3.9c.55-.07,.99,.53,.99,1.33v20.05c0,.8-.44,1.51-.99,1.58Zm473.86,450.7v-273.64h-278.64v357.46h194.83c46.29,0,83.81-37.52,83.81-83.81Zm0-284.52V249.47h-278.63v332.68c12.77-4.36,56.09-11.89,92.99-15.32,9.47-14.01,18.86-32.72,13.31-55.97-4.65,.03-3.37,3.36-8.19,3.37-4.82,0-1.8,1-6.63,1.01-2.41,0-3.14,.07-3.86,0-.72-.07-1.42-.28-3.77-.81-4.7-1.06-1.96-5.2-6.66-6.27-4.7-1.06-1.56-.73-5.52-3.48-3.96-2.76-4.52,1.57-8.47-1.18-1.96-1.36-2.58-1.76-3.03-2.31-.46-.56-.74-1.26-2.08-3.29-2.66-4.02-4.36-.48-7.02-4.51-2.66-4.02-3.73-3.31-4.67-8.04-.94-4.73-.51-9.4-1.45-14.12-.94-4.73,1.38-3.8,2.19-8.55,.82-4.75-1.68-2.36-.86-7.11,.82-4.75,4.39-1.16,6.73-5.37,2.34-4.21-2.64-3.53-.3-7.75,2.34-4.21,4.76,1.11,8.33-2.13,3.57-3.24-2.25-5.09,1.33-8.33,3.57-3.24,7.96-19.52,6.48-24.11-1.48-4.59,1.73-3.29,2.6-8.03,.87-4.74,4.22-1.73,5.09-6.47,.87-4.74-3.6-3.5-1.13-7.63,2.47-4.14,6.06,1.05,8.53-3.09,2.47-4.14-1.44-2.38,2.29-5.43,3.73-3.05,2.19-.75,5.93-3.79,3.73-3.05-.99-5.24,3.56-6.82,4.42-1.53,1.73-2.53,5.72-4.03-1.49-5.04-.3-1.24-1.65-5.86-1.35-4.63,4.64-2.23,3.28-6.85-1.35-4.63-.72-.66-2.07-5.29-1.35-4.63-3.24-2.13-2.29-6.86,.95-4.73,6.87-7.82,9.56-11.82,2.7-4,4.22-9.84-1.52-11,2.69-4,1.58-4.49,5.57-7.19,4-2.69,6.35,4.2,10.35,1.51,4-2.69,.08-8.29,4.8-9.25,4.73-.95,4.43,5.78,9.15,4.83,4.73-.95,2.07-.45,6.8,.5,4.73,.95,2.85,2.06,7.57,3.01,4.73,.95,4.48-4.74,8.48-2.05,4,2.7,2.99,.78,6.99,3.48,4,2.69-1.46,5.01,1.23,9.01,2.7,4,1.88,2.25,4.57,6.25,2.7,4,7.09,.04,8.05,4.76,.95,4.72-1.84,3.63-.89,8.36,.95,4.72,2.79,2.32,1.44,6.95-1.35,4.63,.3,.96-1.05,5.59-1.35,4.63,.9,12.02,5.46,13.59,4.56,1.57,1.73,2.8,5.47,5.85,3.73,3.05,1.98,1.01,5.71,4.06,3.73,3.05-1.55,3.68,.92,7.82,2.47,4.14,4.18,.07,6.65,4.21,2.47,4.14-3.01,2.77-2.14,7.51,.87,4.74,5.86,1.43,6.72,6.17,.87,4.74,1.28,2.47-.2,7.06-1.48,4.59-2.93,.5-4.41,5.08-1.48,4.59-.7,1.21-2.18,5.8-1.42,4.41,2.26,2.43,1.23,6.36,.57-.32,1.4-.41,2.52,.08,4.43,1.91-1.25,7.58,3.17,9.49,4.43,1.91,3.88-3.22,7.45,.02,3.57,3.24,2.15,.24,5.72,3.48,3.57,3.24,.42,2.53,2.76,6.74,2.34,4.21,2.36,.75,4.7,4.97,2.34,4.21,2.51,2.05,3.32,6.81,.82,4.75-2.01,2.42-1.2,7.17,.82,4.75,4.55,3.37,3.64,8.11-.91,4.73-7.21,7.85-8.12,12.58-.91,4.73,2.17,3.27-.41,7.34-2.58,4.07-3.46,.84-6.04,4.91-2.58,4.07-1.3,.68-5.17,3.56-3.87,2.87,.08,4.38-3.79,7.25-3.87,2.87-1.97,1.55-6.63,2.81-4.65,1.27-3.45-2.19-8.1-.93-4.65,1.27-1.2,7.02-6.02,7.03-4.82,0-1.81-2.87-6.63-2.87-4.82,0-1.8,1.74-6.62,1.75-4.82,0-1.81-1.47-6.63-1.46-4.82,0,.44-3.16-4.38-3.15-1,0-2.44,.75-2.9,1.11-4.76,22.29,3.14,40.99,12.1,54.88,44.57,2.49,71.27,7.94,102.8,16.3ZM505.78,249.47H232.2l-.05,333.47c11.44-4.32,44.48-10.46,44.48-10.46l12.88-122.88c-1.26-.68-3.18-2.6-3-4.67,.17-2.15,3.96-3.89,3.96-3.89l8.7-80.55c-.01-.57,.74-.94,.75-.96,1.85-.55,13.88-3.24,14.32-3.16,2.88,.39,4.68,.85,6.4,1.13,1.02,.21,1.22,.5,1.32,1.08,.02,.1,2.05,11.8,2.08,11.65,3.06-.43,5.85-.77,8.18-1.08,.11-.66,1.34-15.28,2.14-16.04,.36-.47,1.05-.32,7.95-.88,.06-1.57,.09-74.06,.06-76-2.52-.48-3.31-2.59-3.39-4-.07-1.19,1.04-4.19,4.16-4.19,.47,.02,1.75,.17,2.65,1-1.2-.82-4.2-.37-4.3,2.6-.03,.85,1,2.89,2.92,2.89,1.64,0,2.63-1.24,2.81-2.15-.09,2.23-1.81,3.4-2.81,3.7,.15,1.28,3.52,75.2,3.54,75.66,3.5-.22,8.59-.67,9.36-.62,.97,.07,3.67,1.23,4.78,1.47,.58,3.33,1.11,7.35,1.73,10.45,1.49-.25,11.61-1.09,14.01-1.12,.42-3.25,.95-8.25,1.22-10.01,.13-.71,.71-.82,1.16-.82,1.09,0,20.42,1.55,21.48,1.68,.77,.05,.98,.48,1.08,1.35,.26,2.19,.55,6.42,.95,8.83,2.3,.29,12.55,1.44,12.52,1.43-.05-.02,.69-5.58,.98-7.06,.63-.18,2.5-.9,3.99-1.19,4.64,1.01,9.8,2.25,13.34,3.09,.31,.12,4.86,1.22,4.95,1.76,0,0-3.2,6.27-1.99,15.93l8.2,65.61c.02,.08,3.53,1.19,3.77,3.74,.12,1.24-1.44,3.39-3.25,4.21l15.44,122.55s32.86,6.84,44.07,9.26V249.47Zm292.96,617.22c0,50.24-40.73,90.97-90.97,90.97H315.91c-50.24,0-90.97-40.73-90.97-90.97l.1-624.38H798.72l.02,624.38ZM319.38,370.56l2.78,.2-1.99-10.67-2.3-.53,1.5,11Zm42.84-3.12l-1.95-13.01-2.3-.62,1.5,13.54,2.74,.09Zm-46.98-7.82c-4.51,2.07-5.81,3.54-7.54,6.13-2.46,3.69-3.3,23.27-3.46,27.2-.19,4.5,.1,2.87-.32,7.29-.42,4.42-.78,9.23-1.19,13.64-.42,4.42,1.02,.32,.6,4.74-.42,4.42-1.08,1.99-1.49,6.41-.42,4.42,2.48,1.49,2.07,5.91-.25,2.65,2.56,3.19,1.68,5.85,0,2.26,3.82,1.36,5.61,1.64,15.94-1.93,38.18-3.48,64.24-2.96,23.98,.1,54.13,3.09,64.14,5.17-.72-10.26-2.42-22.71-2.42-22.71l-8.03-3.48-1.08-18.92c.01-1.42,1.17-2.37,2.59-2.13l4.89,1.39c-.32-9.06-2.54-30.51-3.09-32.43-2.9-.64-9.17-2.34-11.18-2.72-.17,.86-1.3,9.31-1.88,13.9-.08,.61-.45,1-1.32,.87-4.01-.7-11.15-1.83-15.45-2.44-.71-.18-1.48-.49-1.58-1.07-.29-2.38-1.18-14.36-1.35-14.46-.19-.11-11.09-1.24-17.37-1.75-.24,2.8-1.32,10.04-1.8,13.87-.11,.69-1.3,1.39-2.04,1.39-5.85,.27-19.71,.42-21.65,.42-.89-12.62-11.66-15.32-14.43-15.15-1.41,.08-3.12,.14-5.29,.31-.26,2.38-1.38,13.36-1.65,15.33-.06,.44-.41,.8-.95,.91-.5,.11-14.24,.78-17.03,1.19-.29-.03-1.03-7.8-2.24-13.34Zm55.89,208.65c-3.37-54.34,54.52-53.53,51.52,1.18,0,0,26.35,3.39,27.31,3.11,2.12-.61,2.37-3.08,2.08-5.26-.18-1.35-1.89-23.63-1.82-24.69,.18-2.96-10.29-95.92-10.29-95.92-11.87-3.55-45.9-4.58-67.09-4.81-.55,.09-1.19,.15-1.93,.16-13.83,.16-47.53,1.79-64.43,4.37,0,0-3.65,2.33-4,8.01-.16,1.92-3.24,5.04-3.61,9.46-.37,4.42,1.48,5.8,1.11,10.22-.37,4.42,1.06-.24,.69,4.18-.37,4.42-1.99,10.11,2.17,11.67,2.59,.97,4.61,4.69-1.44,5.45-1.06,.38-1.85,.1-1.88,.89-.21,4.43,2.22,5.04,2.01,9.47-.21,4.43-1.73,1.71-1.94,6.15-.08,1.66,1.96,8.57-.41,9.48-.4,.76-.2,4.95-.22,5.78-.02,1.35,5.19,7.53,4.45,9.3-1.04,2.49,1.78,5.02,3.23,4.47,2.15-.81,11.94,4.54-.63,6.02-1.37,.58-2.01,1.37-1.54,2.54,1.65,4.12,3.36-.09,6.45,3.09,3.1,3.18-.59,5,2.5,8.18,3.1,3.18,4.61-.6,8.79,.91,4.18,1.5,3.04,5.78,7.22,7.28,1.59,.57,41.5-.98,41.71-.68Zm337.98-140.78c-1.13-.49-1.95-.4-2.52-.08,1.03-3.93-2.65-1.95-1.23-6.36,1.48-4.59,.7-1.21,2.18-5.8,1.48-4.59,2.93-.5,4.41-5.08,1.48-4.59,1.07-2.32,.2-7.06-.87-4.74-5.86-1.43-6.72-6.17-.87-4.74,4.61-3.37,2.14-7.51-2.47-4.14-4.18-.07-6.65-4.21-2.47-4.14,2.81-4.77-.92-7.82-3.73-3.05-1.98-1.01-5.71-4.05-3.73-3.05-.91-4.27-5.47-5.85-4.56-1.57-6.81-8.96-5.46-13.59,1.35-4.63-.3-.96,1.05-5.59,1.35-4.63-.48-2.22-1.44-6.95-.95-4.73,1.84-3.63,.89-8.36-.95-4.73-5.35-.77-8.05-4.76-2.69-4-1.88-2.25-4.57-6.25-2.69-4,2.76-6.31-1.23-9.01-4-2.7-5.08,8.35-9.08,5.66-4-2.7-8.87-2.05-8.95-.98-.33,4.81-7.51-4.38-7.85,.43-.33,4.81-2.03,1-2.57,5.79-.54,4.79-4.74,1.04-5.28,5.83-.54,4.79-5.46,6.2-6,10.99-.54,4.79-.48,4.93-1.02,9.72-.54,4.79,3.69,1.6,6.47,5.54,2.78,3.94-7.31,4.12-4.53,8.06,2.78,3.94,3.86,2.53,6.65,6.47,2.78,3.94-15.69,8.42-4.04,16.83,3.91,2.82-7.08,11.09-12.95-.65-2.59-5.18-13.59,7.77-6.47,14.24,3.57,3.24,5.18,5.18-11,10.36-4.59,1.47,3.88,12.95-8.42,15.54,0,0-5.18,12.95,5.18,10.36,11.65-4.53,5.87,1.02,8.32,5.18,2.44,4.15-1.8,6.85,.65,11,2.44,4.15-10.21,3.61-7.77,7.77,2.44,4.15,9.08,8.74,5.83,12.3-11.98,13.1,7.91,8.79,10.36,12.95,2.44,4.15,13.67,5.18,7.85,14.89-2.48,4.13,18.14,.11,20.07,4.53,1.93,4.42,11.66-6.36,13.59-1.94,1.93,4.42,14.26-8.62,16.18-4.21,1.93,4.42,13.28-3.45,15.21,.97,1.93,4.42,6.49-.21,8.42,4.21,1.93,4.42,10.37-10.24,12.3-5.83,1.93,4.42,8.74-1.29,17.8-11,2.65-2.84,3.67-13.02,7.44-11,.91-4.73-3.82-8.44-4.63-13.19-.82-4.75,5.29-.03,4.47-4.78-.82-4.75-.98-2.59-3.32-6.81-2.34-4.21-2.36-.75-4.7-4.97-2.34-4.21,.82-3.51-2.76-6.74-3.57-3.24-2.15-.24-5.72-3.48-3.57-3.24-3.03,1.89-7.45-.02-4.43-1.91,1.25-7.58-3.17-9.49Zm-75.16,138.33l46.78,.16c-2.73-9.55-13.29-23.85-11.31-44.57-2.15-2.15-1.69,1.15-3.43,1.86-.92-.47-3.83-1.95-4.41-1.95-.54,0-1.16,2.99-2.36,2.45-1.35-.6-2.32-3.69-2.36-3.85-.02-.05-2.48-.11-4.92,.18-.3,7.03-5.16,1-4.83,2.5-4.35,.42-5.03-1.3-5.37-1.29-.7,.03-2.44,31.72-7.78,44.5Zm286.74,372.72c-.03,67.13-76.7,131.8-145.62,131.82h-221.88c-1.17-.09-33.1-1.71-39.6,22.66l-5.43,20.35-5.63-20.3c-6.8-24.54-36.22-22.78-37.05-22.72H250.23c-69.15,.06-148.82-64.83-147.92-131.93V123.71s818.39,0,818.39,0V938.54Zm-11.46,0V135.16H113.76V938.54c-.79,59.08,71.94,120.41,136.46,120.37h214.87c15.84-.93,33.86,5.37,42.99,18.96,9.66-14,29.13-19.86,45.49-18.96h221.51c63.95-.02,134.14-60.83,134.16-120.37Z" style="fill: #1d1d1d; fill-rule: evenodd;"/>
      </g>
    </g>
  </g>
</svg>