<?xml version="1.0" encoding="UTF-8"?>
<svg id="Layer_2" data-name="Layer 2" xmlns="http://www.w3.org/2000/svg" viewBox="0 0 2048 665.15">
  <g id="OKAY">
    <g id="Logo-UACh-Pequeno-Horizontal-Color-TextoBlanco">
      <rect width="2048" height="665.15" style="fill: none;"/>
      <g>
        <g>
          <path d="M990.35,213.71c0-34.95,3.8-40.68,17.17-43.85,13.98-3.17,20.96-1.9,20.96-9.53,0-5.73-1.89-8.26-8.25-8.26-7.63,0-14.62,2.53-42.58,2.53-21.62,0-28.61-2.53-36.88-2.53-7.62,0-11.44,3.82-11.44,8.26,0,8.26,4.46,8.26,17.8,9.53,18.44,1.91,25.43,10.79,25.43,50.21v218.64c0,79.46-42.59,108.7-86.45,108.7-32.42,0-75-20.34-75-76.91V206.72c0-36.86,12.72-36.86,26.7-38.77,13.35-1.91,19.7-3.19,19.7-8.9,0-6.35-5.08-6.99-15.25-6.99s-21.61,2.53-50.21,2.53c-22.87,0-25.42-2.53-43.21-2.53-5.09,0-11.45,1.9-11.45,5.72,0,9.53,3.19,6.36,27.33,12.08,5.09,1.27,4.46,8.26,4.46,24.79V460.32c0,80.09,60.38,102.34,110.59,102.34,64.19,0,110.59-34.32,110.59-144.28V213.71Z" style="fill: #fff;"/>
          <path d="M1149.92,245.49c3.8,0,6.35,2.54,8.89,12.72,20.98,83.26,34.96,124.57,34.96,132.84,0,5.08-1.27,5.08-45.77,5.08-36.22,0-38.14-.63-38.14-4.45,0-3.17,4.46-21.61,30.52-125.21,4.45-17.8,5.08-20.98,9.53-20.98m38.77,165.89c11.45,0,13.98,5.09,20.97,31.79,14.63,55.92,20.34,74.36,20.34,80.72,0,13.34-7.62,15.88-16.52,15.88-10.16,0-16.52,3.19-16.52,8.26s5.09,6.99,10.81,6.99c12.08,0,28.61-2.53,45.14-2.53,14.61,0,24.79,2.53,38.75,2.53,9.55,0,13.36-1.26,13.36-5.08,0-6.36-10.82-7.63-19.07-10.18-6.99-2.54-12.72-13.34-15.89-24.79-45.75-164.61-68.01-243.42-99.15-355.28-3.17-11.45-4.45-15.26-10.81-15.26s-8.26,6.36-12.08,19.07c-33.05,120.77-62.92,256.78-98.51,362.93-5.72,17.15-24.79,9.52-24.79,21.6,0,4.46,2.53,6.99,6.99,6.99,3.8,0,6.99-2.53,35.59-2.53,14.61,0,27.97,2.53,38.78,2.53,6.99,0,10.81-1.26,10.81-6.99,0-6.99-8.27-6.99-20.34-8.89-15.89-2.54-18.44-9.53-18.44-17.17,0-8.89,2.54-19.7,16.52-77.53,7.63-31.15,10.81-33.06,20.98-33.06h73.09Z" style="fill: #fff;"/>
          <path d="M1355.77,346.55c0-138.56,52.11-186.86,93.44-186.86,31.78,0,54.66,24.8,69.91,71.81,9.53,29.24,10.81,31.16,16.52,31.16s5.72-1.27,5.72-29.89c0-62.28-1.27-65.47-5.72-69.27-6.99-5.72-39.42-19.07-77.54-19.07-92.15,0-153.18,83.89-153.18,209.75s66.11,208.47,153.81,208.47c29.24,0,67.38-8.9,80.09-19.71,6.36-4.45,8.26-7.62,8.26-19.7l.64-80.09c0-17.17-3.82-17.8-9.53-17.8-6.36,0-6.36,8.89-12.72,41.31-8.89,43.87-28.6,80.73-70.54,80.73-49.57,0-99.15-49.57-99.15-200.85" style="fill: #fff;"/>
          <path d="M1649.98,342.74c0-31.78,33.69-57.2,66.11-57.2,30.5,0,52.12,19.07,52.12,53.4v177.96c0,15.88-5.08,20.34-22.24,22.88-7.63,1.27-12.08,2.54-12.08,8.26,0,5.09,2.53,6.99,9.53,6.99s11.44-2.54,43.85-2.54c25.42,0,44.48,2.54,47.04,2.54,4.43,0,8.89-1.9,8.89-6.36,0-5.72-4.46-7.62-17.15-8.89-13.99-1.27-19.71-9.53-19.71-29.87v-176.06c-1.91-50.84-36.86-72.46-72.45-72.46-43.22,0-73.73,40.68-79.46,40.68-3.17,0-4.45-1.27-4.45-4.46V111.38c0-7.62-1.27-8.89-3.17-8.89-6.36,0-6.36,5.72-57.83,24.16-7,2.53-8.9,3.8-8.9,8.26s3.17,5.08,13.34,6.99c15.26,2.54,18.44,6.35,18.44,15.88V506.72c0,24.8-4.45,30.52-25.42,33.06-5.72,.64-8.9,4.45-8.9,7.63,0,5.08,3.19,7.62,8.26,7.62,8.9,0,13.98-2.54,43.21-2.54,42.59,0,49.58,2.54,53.4,2.54,5.09,0,8.89-1.9,8.89-6.36,0-5.09-1.9-6.99-13.98-8.89-20.97-3.17-27.33-11.44-27.33-26.06v-170.98Z" style="fill: #fff;"/>
        </g>
        <g>
          <path d="M566.54,569.73h-119.11c-8.72-.48-19.04,2.65-24.13,10.03-.18,.26-.46,.26-.64,0-4.81-7.16-14.36-10.52-22.78-10.02h-115.54c-34.85,.02-74.19-33.07-73.76-65.11V72.67c0-.2,.18-.39,.39-.39h427.71c.2,0,.39,.18,.39,.39V504.63c-.02,32.26-37.97,65.09-72.52,65.1Z" style="fill: #fff; fill-rule: evenodd;"/>
          <path d="M530.15,511.64h-104.76c-.2,0-.38-.18-.38-.39v-192.2c0-.2,.18-.39,.39-.39h149.82c.2,0,.38,.18,.38,.39v147.13c0,25.1-20.34,45.45-45.45,45.45Z" style="fill: #fab700;"/>
          <path d="M465.53,335.07c1.64-.18,3.5,.03,4.27,1.56,.15,.3,0,.55-.34,.56-.59,.01-1.51,.52-2.62,1.26-1.09,.73-2.24,1.59-3.22,2.17-2.47,1.44-3.77,.7-2.44-4.05,.01-.04,.15-.21,.18-.23,.79-.45,2.49-1.07,4.17-1.26Z" style="fill: #808285; fill-rule: evenodd;"/>
          <path d="M546.15,372.82l-.39,.18c-.35,.16-.84,.4-1.45,.7-1.21,.61-2.85,1.49-4.56,2.54-3.46,2.12-7.11,4.88-8.29,7.53-.81,1.81-1,3.4-.96,4.77,.04,1.4,.32,2.58,.45,3.53,.31,2.24-.34,3.32-4.47,3.33-4.11,1.58-6.84,2.38-8.49,2.64-.81,.13-1.43,.15-1.83,.03-.52-.16-.71-.6-.48-1.07,.58-1.19,4.31-3.18,8.25-3.83,2.1-.35,4.84-2.21,4.74-5.61-.37-12.21,2.33-30.02,18.13-26.1,2.89,.72,6.65,5.82,9.32,10.2,1.36,2.23,2.48,4.34,3.11,5.73,.31,.68,.52,1.24,.57,1.56,.01,.08,.02,.2-.01,.31-.05,.17-.22,.34-.47,.32-.15-.02-.26-.1-.32-.15-.07-.06-.15-.13-.23-.22-2.11-2.3-5.27-3.9-7.94-4.93-1.33-.51-2.52-.88-3.39-1.13-.43-.12-.78-.21-1.02-.28l-.27-.07Z" style="fill: #808285; fill-rule: evenodd;"/>
          <path d="M489.8,387.39c.98-3.11-1.66-5.56-5.07-8.27-.84-.67-1.71-1.34-2.55-2.03-.85-.7-1.66-1.41-2.38-2.15-1.45-1.49-2.58-3.14-2.85-5.06-.56-4.07,2.07-5.95,4.39-7.62,2.37-1.7,4.37-3.14,3.6-6.33,0-.02,0-.21,.01-.22,3.45-9.4,18.35,4.35,12.22,8.7-5.38,4.14-10.96,11.04-8.21,14.1,3.4,3.8,6.92,8.82,6.92,12.1,0,.66-.3,1.09-.7,1.4-.19,.15-.4,.27-.61,.38-.2,.11-.41,.22-.62,.35-.13,.08-.38,.04-.48-.07-1.01-1.07-8.7-3.17-15.38-.39-.07,.03-.31,0-.38-.05-1.57-1.15-2.02-2.3-.79-3.11,.91-.6,2.7-.89,4.57-1.07,1.9-.18,4.01-.25,5.66-.35,.81-.05,1.51-.1,2.02-.18,.25-.04,.44-.08,.55-.12l.05-.02Z" style="fill: #808285; fill-rule: evenodd;"/>
          <path d="M475.41,346.41c.09,.01,.19,.04,.28,.06,.23,.07,.56,.19,.89,.32,.33,.14,.68,.3,.95,.44,.15,.08,.28,.16,.38,.23,.08,.06,.19,.14,.27,.24,3.65,3.97-.53,10.24-4.06,11.01-1.62,.35-2.61,.62-3.6,1.78-9.42,11.02-9.63,1.71-7.85,.79,1.16-.6,1.96-2.51-1.94-2.22-.45,.03-.62-.36-.29-.67l5.18-4.84,.28-.05c.13-.24,.26-.47,.41-.77,.31-.61,.64-1.45,.97-2.27,.33-.84,.65-1.66,.91-2.22,.13-.28,.25-.53,.37-.69,.04-.06,.15-.2,.33-.25,.31-.08,.49,.17,.53,.28,2.29,5.45,5.19-1.87,1.94-4.37-.32-.24-.25-.58,.14-.68l.69-.17c.11-.03,.35,.06,.41,.16,.34,.52,1.09,1.56,1.74,2.45l.85,1.16,.2,.26Z" style="fill: #808285; fill-rule: evenodd;"/>
          <path d="M548.37,400.42c-.06,0-.25-.13-.28-.18-.18-.29-.33-.53-.42-.72-.28-.15-.47-.32-.63-.5l-.24-.28c-.08-.09-.16-.18-.26-.26-2.51-2.2-7.17,1.64-7.31,1.76-.41,.34-.9-.2-.52-.57,2.27-2.19,3.77-3.02,6.8-3.56,2.77-.5,3.75,.58,4.63,1.68,.34,0,.69,.03,1.06,.04,.41,.01,.83,0,1.27-.08,.87-.17,1.88-.64,3.14-1.93,1.27-1.3,2.41-3.1,3.24-4.59,.41-.74,.75-1.4,.98-1.87l.27-.56,.07-.15c.11-.23,.37,.11,.37,.11,0,0,.38-.17,.39,.09v.33c0,.28-.02,.7-.08,1.23-.13,1.05-.43,2.54-1.14,4.29-2.1,4.42-7.1,6.18-11.33,5.73Z" style="fill: #808285; fill-rule: evenodd;"/>
          <path d="M454.33,426.95c1.64-.18,3.49,.03,4.27,1.56,.15,.3,0,.55-.34,.56-.59,.01-1.51,.51-2.62,1.26-1.09,.73-2.24,1.59-3.22,2.16-2.47,1.44-3.77,.7-2.44-4.05,.01-.04,.15-.21,.18-.23,.79-.45,2.49-1.07,4.17-1.26Z" style="fill: #808285; fill-rule: evenodd;"/>
          <path d="M535.75,463.29l-.39,.18c-.35,.16-.84,.4-1.45,.7-1.21,.61-2.85,1.49-4.56,2.54-3.46,2.12-7.11,4.88-8.29,7.53-.81,1.81-1,3.4-.96,4.77,.04,1.4,.32,2.58,.45,3.53,.31,2.24-.34,3.32-4.47,3.33-4.11,1.58-6.84,2.37-8.49,2.64-.81,.13-1.43,.15-1.82,.03-.52-.16-.71-.6-.48-1.07,.58-1.19,4.31-3.18,8.25-3.83,2.1-.35,4.84-2.21,4.74-5.61-.37-12.21,2.33-30.02,18.13-26.1,2.89,.72,6.65,5.82,9.32,10.2,1.36,2.23,2.48,4.34,3.11,5.73,.31,.68,.52,1.24,.57,1.56,.01,.08,.02,.2-.01,.31-.05,.17-.22,.34-.47,.32-.15-.01-.26-.1-.32-.15-.07-.06-.15-.13-.23-.22-2.11-2.3-5.27-3.9-7.94-4.93-1.33-.51-2.52-.88-3.39-1.13-.43-.12-.78-.21-1.02-.28l-.27-.07Z" style="fill: #808285; fill-rule: evenodd;"/>
          <path d="M479.4,477.86c.98-3.11-1.66-5.56-5.07-8.27-.84-.67-1.71-1.34-2.55-2.03-.85-.7-1.66-1.41-2.38-2.15-1.45-1.49-2.58-3.14-2.85-5.06-.56-4.07,2.07-5.95,4.39-7.62,2.37-1.7,4.37-3.14,3.6-6.33,0-.02,0-.21,.01-.22,3.45-9.4,18.35,4.35,12.22,8.7-5.38,4.14-10.96,11.04-8.21,14.1,3.4,3.8,6.92,8.82,6.92,12.1,0,.66-.3,1.09-.7,1.4-.19,.15-.4,.27-.61,.38-.2,.11-.41,.22-.62,.35-.13,.08-.38,.04-.48-.07-1.01-1.07-8.7-3.17-15.38-.39-.07,.03-.31,0-.38-.05-1.57-1.15-2.02-2.3-.79-3.11,.91-.6,2.7-.89,4.57-1.07,1.9-.18,4.01-.25,5.66-.35,.81-.05,1.51-.1,2.02-.18,.25-.04,.43-.08,.55-.12l.05-.02Z" style="fill: #808285; fill-rule: evenodd;"/>
          <path d="M464.55,437.92c.09,.01,.19,.04,.28,.06,.23,.07,.56,.18,.89,.32,.33,.14,.68,.3,.95,.44,.15,.08,.28,.16,.38,.23,.08,.06,.19,.14,.27,.24,3.65,3.97-.53,10.24-4.06,11.01-1.62,.35-2.61,.62-3.6,1.78-9.42,11.01-9.63,1.71-7.85,.79,1.16-.6,1.96-2.51-1.94-2.22-.45,.03-.62-.36-.29-.67l5.18-4.84,.29-.06c.13-.24,.26-.47,.41-.77,.31-.61,.64-1.45,.97-2.27,.33-.84,.65-1.66,.91-2.22,.13-.28,.25-.53,.37-.69,.04-.06,.15-.2,.33-.25,.31-.08,.48,.17,.53,.28,2.29,5.45,5.19-1.87,1.94-4.37-.32-.24-.25-.58,.14-.68l.69-.17c.11-.03,.35,.06,.41,.16,.34,.52,1.09,1.55,1.74,2.45l.85,1.16,.2,.26Z" style="fill: #808285; fill-rule: evenodd;"/>
          <path d="M537.52,491.94c-.05,0-.25-.13-.28-.18-.18-.29-.33-.53-.42-.72-.28-.15-.47-.32-.63-.5l-.24-.28c-.08-.09-.16-.18-.26-.26-2.51-2.2-7.17,1.64-7.31,1.76-.41,.34-.9-.2-.52-.57,2.27-2.19,3.77-3.01,6.8-3.56,2.77-.5,3.75,.58,4.63,1.68,.34,0,.69,.03,1.06,.04,.41,.01,.83,0,1.27-.08,.87-.17,1.88-.64,3.14-1.93,1.27-1.3,2.41-3.1,3.24-4.59,.41-.74,.75-1.4,.98-1.87l.27-.56,.07-.15c.11-.23,.37,.11,.37,.11,0,0,.38-.17,.39,.09v.33c0,.28-.02,.7-.08,1.23-.13,1.05-.43,2.54-1.14,4.29-2.1,4.42-7.1,6.18-11.33,5.73Z" style="fill: #808285; fill-rule: evenodd;"/>
          <path d="M368.16,397.91l-.73,38.74-36-.65,.65-34.37,18.61-1.55,6.38,7.65-7.23,10.19,17.6-5.76-6.35,9.29-11.25-3.52,12.07,16.57-23.77-.53,11.71-16.04-13.05,4.05-5.53-10.15,18.59,6.1v-19.26s18.32-.75,18.32-.75Zm0,37.82l-.73,38.74-36-.65,.65-34.37,18.61-1.55,6.38,7.65-7.23,10.19,17.6-5.76-6.35,9.29-11.25-3.52,12.07,16.57-23.77-.53,11.71-16.04-13.05,4.05-5.53-10.15,18.59,6.1v-19.26s18.32-.75,18.32-.75Zm-.06,37.72l-.73,38.74-36-.65,.65-34.37,18.61-1.55,6.38,7.65-7.23,10.19,17.6-5.76-6.35,9.29-11.25-3.52,12.07,16.57-23.77-.53,11.71-16.04-13.05,4.05-5.53-10.15,18.59,6.1v-19.26s18.32-.75,18.32-.75Zm-.08-151.09l-.73,38.74-36-.65,.65-34.37,18.61-1.55,6.38,7.65-7.23,10.19,17.6-5.76-6.35,9.29-11.25-3.52,12.07,16.57-23.77-.53,11.71-16.04-13.05,4.05-5.53-10.15,18.59,6.1v-19.26s18.32-.75,18.32-.75Zm.14,37.85l-.73,38.74-36-.65,.65-34.37,18.61-1.55,6.38,7.65-7.23,10.19,17.6-5.76-6.35,9.29-11.25-3.53,12.07,16.57-23.77-.53,11.71-16.04-13.05,4.05-5.53-10.15,18.59,6.1v-19.26s18.32-.75,18.32-.75Zm-50.68,37.74l-.73,38.74-36-.65,.65-34.37,18.61-1.55,6.38,7.65-7.23,10.19,17.6-5.76-6.35,9.29-11.25-3.52,12.07,16.57-23.77-.53,11.71-16.04-13.05,4.05-5.53-10.15,18.59,6.1v-19.26s18.32-.75,18.32-.75Zm-.07,37.63l-.73,38.74-36-.65,.65-34.37,18.61-1.55,6.38,7.65-7.23,10.19,17.6-5.76-6.35,9.29-11.25-3.53,12.07,16.57-23.77-.53,11.71-16.04-13.05,4.05-5.53-10.15,18.59,6.1v-19.26s18.32-.75,18.32-.75Zm-.03-113.23l-.73,38.74-36-.65,.65-34.37,18.61-1.55,6.38,7.65-7.23,10.19,17.6-5.76-6.35,9.29-11.25-3.52,12.07,16.57-23.77-.53,11.71-16.04-13.05,4.05-5.53-10.15,18.59,6.1v-19.26s18.32-.75,18.32-.75Zm.1,37.76l-.73,38.74-36-.65,.65-34.37,18.61-1.55,6.38,7.65-7.23,10.19,17.6-5.76-6.35,9.29-11.25-3.52,12.07,16.57-23.77-.53,11.71-16.04-13.05,4.05-5.53-10.15,18.59,6.1v-19.26s18.32-.75,18.32-.75Zm98.87,37.7l-.73,38.74-36-.65,.65-34.37,18.61-1.55,6.38,7.65-7.23,10.19,17.6-5.76-6.35,9.29-11.25-3.53,12.07,16.57-23.77-.53,11.71-16.04-13.05,4.05-5.53-10.15,18.59,6.1v-19.26s18.32-.75,18.32-.75Zm-.07,37.89l-.73,38.74-36-.65,.65-34.37,18.61-1.55,6.38,7.65-7.23,10.19,17.6-5.76-6.35,9.29-11.25-3.52,12.07,16.57-23.77-.53,11.71-16.04-13.05,4.05-5.53-10.15,18.59,6.1v-19.26s18.32-.75,18.32-.75Zm0-113.22l-.73,38.74-36-.65,.65-34.37,18.61-1.55,6.38,7.65-7.23,10.19,17.6-5.76-6.35,9.29-11.25-3.53,12.07,16.57-23.77-.53,11.71-16.04-13.05,4.05-5.53-10.15,18.59,6.1v-19.26s18.32-.75,18.32-.75Zm0,37.85l-.73,38.74-36-.65,.65-34.37,18.61-1.55,6.38,7.65-7.23,10.19,17.6-5.76-6.35,9.29-11.25-3.52,12.07,16.57-23.77-.53,11.71-16.04-13.05,4.05-5.53-10.15,18.59,6.1v-19.26s18.32-.75,18.32-.75Z" style="fill: #bcbec0; fill-rule: evenodd;"/>
          <path d="M348.16,183.15l16.02-12.61,17.55,12.13-33.58,.47Zm21.68-17.2l18.38-14.37-1.89,25.92-16.49-11.55Zm-11.31,.47l-17.29,13.27-1.2-26.35,18.5,13.08Zm5.54-4.48c0,.35-18.61-13.31-18.61-13.31l38.64-2.36s-20.03,15.32-20.03,15.67Zm-39.94,37.49c-.18,.12-.58,.28-.68-.15l-.04-.2-.13-.7-.38-2.15-.56-3.18c-.05-.14-.15-.22-.41-.27-.92-.15-1.89-.4-3.43-.61-.01,0-1.56,.3-3.42,.72-1.71,.38-3.51,.8-4.07,.96-.14,.11-.16,.13-.17,.15l-4.69,43.36c0,.08-.15,.28-.22,.31-.1,.05-1.84,.89-1.91,1.77-.07,.88,.78,1.8,1.41,2.14,.09,.05,.21,.27,.2,.38l-6.93,66.07c-.01,.13-.18,.31-.31,.34-.02,0-17.74,3.3-23.85,5.61-.29,.11-.52-.05-.52-.36l.03-179.3c0-.2,.18-.39,.39-.39h147.1c.2,0,.38,.18,.38,.39v178.96c0,.27-.21,.43-.47,.38-6.03-1.3-23.69-4.98-23.69-4.98-.12-.02-.29-.21-.3-.33l-8.3-65.89c-.02-.13,.11-.35,.22-.4,.9-.41,1.57-1.44,1.53-1.88-.05-.51-.43-.91-.89-1.22-.23-.15-.45-.26-.62-.34l-.21-.09c-.24-.11-.3-.28-.3-.31l-4.42-35.32c-.33-2.65-.06-4.84,.3-6.37,.18-.77,.38-1.37,.54-1.78l.14-.34c-.31-.13-.61-.22-.92-.32-.32-.1-.64-.18-.89-.25l-.32-.09-.15-.04c-1.88-.45-4.61-1.11-7.09-1.64-.64,.13-1.38,.4-1.8,.54-.08,.46-.19,1.24-.29,1.95l-.14,1.11-.04,.34c-.03,.25-.39,.09-.39,.09,0,0,.16,.4-.1,.38l-.18-.02-.64-.07-2.03-.23c-1.53-.17-3.22-.37-3.84-.45-.13-.02-.31-.19-.33-.32-.21-1.3-.37-3.58-.51-4.76-.03-.23-.06-.31-.09-.35-.01,0-.08-.04-.15-.04-.57-.07-10.93-.9-11.51-.9-.21,0-.23,.04-.25,.13-.14,.96-.42,3.62-.65,5.36-.02,.17-.21,.33-.38,.34-1.28,.01-6.68,.46-7.48,.6-.19,.03-.4-.11-.44-.3-.32-1.6-.59-3.64-.89-5.39-.31-.09-.71-.24-1.11-.38-.53-.19-.96-.33-1.16-.34-.17-.01-.92,.04-1.91,.11-.97,.07-2.13,.16-3.07,.22-.21,.01-.4-.16-.41-.36-.01-.24-1.82-39.97-1.9-40.66-.02-.16,.12-.37,.27-.41,.06-.02,.14-.05,.21-.09-1.42,0-2.08-1.35-2.06-1.95,.02-.62,.24-1.08,.55-1.4-.83,.36-1.15,1.29-1.13,1.7,.04,.66,.4,1.58,1.51,1.79,.15,.03,.31,.22,.31,.37,.02,1.04,0,40.04-.03,40.88,0,.17-.18,.36-.35,.37-1.85,.15-2.87,.2-3.45,.25-.29,.03-.44,.05-.52,.07-.09,.12-.1,.22-.13,.33-.06,.25-.12,.58-.18,.97-.12,.8-.25,1.82-.36,2.85-.23,2.07-.41,4.14-.44,4.31-.02,.12-.2,.3-.33,.32-1.25,.17-2.75,.35-4.4,.58l.23-.21Z" style="fill: #a90034; fill-rule: evenodd;"/>
          <path d="M519.92,304.83c-.06,0-.27-.12-.3-.18-4.85-7.51-9.15-17.67-6.56-29.8,0-.03,.12-.21,.14-.22,.28-.22,1.14-.68,1.79-.68,1.53,0,1.65,.63,1.56,1.29l-.02,.14v.14s.16,.13,.81,.13c1.35,0,1.69,.21,2.03,.48,.06,.05,.1,.08,.15,.11,.05,.03,.11,.06,.21,.09,.2,.06,.54,.11,1.18,.11,.63,0,.97-.06,1.16-.13,.17-.06,.24-.13,.35-.24,.33-.32,.68-.58,2.05-.58,1.44,0,1.8,.46,2.11,.95,.12,.19,.2,.31,.36,.4,.17,.1,.48,.19,1.09,.19,.98,0,1.1-.48,1.27-1.33,.04-.22,.09-.45,.15-.68,.06-.23,.15-.47,.28-.7,.27-.48,.71-.86,1.43-1.06,1.38-.38,1.96-.04,2.48,.3,.23,.15,.41,.26,.66,.31,.25,.05,.62,.05,1.21-.11,1.24-.34,1.61-.33,1.92-.43,.11-.03,.22-.09,.44-.24,.23-.16,.56-.4,1.07-.78,.48-.36,.68-.65,.78-.88,.09-.24,.09-.46,.09-.76-.01-.66,0-1.39,1.17-2.27,.54-.4,.92-.6,1.23-.7,.16-.05,.29-.07,.4-.08,.09,0,.17,0,.24,0,.05,0,.09-.02,.15-.08,.13-.13,.32-.39,.67-.94,.75-1.19,1.31-1.35,1.86-1.49,.23-.06,.4-.1,.6-.24,.2-.14,.46-.4,.79-.92,.34-.54,.46-.84,.5-1.04,.03-.17,0-.27-.07-.43-.05-.1-.1-.21-.15-.33-.06-.14-.11-.29-.15-.48-.08-.38-.08-.86,.04-1.53,.14-.71,.47-1.34,.88-1.92,.2-.29,.43-.57,.67-.84,.23-.27,.48-.54,.72-.8,.99-1.08,1.87-2.05,2.09-3.19,.21-1.12-.09-1.44-.51-1.82-.13-.12-.26-.23-.39-.36-.14-.14-.29-.29-.42-.48-.28-.38-.51-.87-.63-1.56-.24-1.39,.06-1.82,.4-2.24,.13-.16,.22-.27,.27-.46,.05-.21,.08-.54-.03-1.16-.22-1.28-.34-1.54-.51-1.77-.12-.16-.26-.3-.45-.55-.21-.27-.46-.64-.78-1.22-.31-.55-.52-.82-.67-.96-.14-.12-.23-.15-.37-.2-.44-.14-.82-.32-1.48-1.52-.33-.59-.48-1.04-.54-1.41-.03-.18-.03-.34-.03-.48,0-.12,.02-.23,.02-.34,.01-.16,0-.27-.08-.43-.1-.18-.31-.45-.78-.88-.47-.43-.76-.63-.94-.73-.09-.05-.15-.07-.21-.08-.06-.02-.12-.02-.17-.03-.4-.04-.76-.13-1.75-1.03-.46-.42-.71-.49-.85-.49-.14,0-.26,.06-.5,.24-.12,.09-.25,.19-.4,.28-.16,.09-.34,.18-.55,.24-.44,.11-.96,.07-1.61-.21-.71-.31-1.05-.79-1.16-1.37-.05-.27-.05-.55-.03-.81,.02-.26,.07-.52,.11-.79,.09-.53,.15-.96,.08-1.33-.06-.32-.23-.6-.71-.8-.52-.23-.84-.16-1.02-.06-.37,.21-.67-.02-.56-.43,.13-.49,.09-.72,.04-.85-.03-.06-.06-.12-.12-.18l-.21-.2c-.45-.4-.79-.89-.36-2.21,.4-1.24,.5-1.43,.62-1.63,.04-.07,.08-.14,.15-.33,.08-.21,.2-.55,.4-1.16,.44-1.36,.94-1.54,1.49-1.63,.19-.03,.29-.05,.4-.15,.12-.11,.29-.36,.49-.95,.2-.61,.33-1,.42-1.27,.08-.26,.1-.37,.09-.46,0-.06-.01-.12-.03-.19l-.09-.34c-.08-.29-.18-.7-.3-1.35-.19-1.03-.75-1.17-1.52-1.36-.21-.05-.42-.1-.62-.17-.21-.07-.43-.17-.63-.31-.42-.3-.72-.76-.85-1.48-.13-.71-.03-1.24,.22-1.66,.12-.2,.26-.37,.41-.5,.13-.13,.28-.24,.41-.35,.13-.1,.23-.19,.3-.27,.07-.08,.11-.15,.13-.22,.04-.13,.04-.38-.28-.91-.31-.52-.57-.73-.77-.83-.21-.1-.41-.11-.69-.11-.65-.01-1.36-.06-2.11-1.32-.37-.62-.47-1.14-.41-1.61,.03-.23,.1-.43,.17-.61,.07-.17,.15-.32,.23-.47,.15-.29,.22-.46,.19-.62-.02-.15-.13-.4-.6-.78-.49-.4-.8-.63-1.02-.78-.21-.14-.33-.2-.45-.26-.3-.15-.59-.3-1.61-1.14-.53-.43-.85-.82-1.05-1.17-.1-.17-.17-.33-.23-.48l-.14-.38c-.13-.34-.26-.65-1.4-1.05-2.72-.94-3.93-5.19-3.18-7.78,.17-.6,.25-.92,.28-1.12,.01-.09,.01-.12,.01-.13-.08-.26-.08-.54,.27-1.75,.18-.62,.24-.96,.24-1.17,0-.17-.04-.25-.11-.34l-.18-.24c-.08-.1-.17-.23-.25-.38-.18-.32-.35-.75-.48-1.42-.28-1.38,0-1.95,.27-2.5,.12-.24,.22-.44,.27-.72,.05-.28,.05-.67-.07-1.27-.2-1-.67-1.07-1.46-1.12-.22-.01-.44-.02-.66-.05-.24-.03-.49-.07-.73-.15-.51-.17-1-.49-1.41-1.1-.71-1.05-.96-1.35-1.21-1.65-.26-.31-.51-.62-1.25-1.71-.41-.61-.52-1.18-.48-1.71,.02-.25,.08-.49,.15-.72,.07-.21,.14-.41,.22-.61,.26-.71,.4-1.14-.45-1.7-.53-.36-.88-.55-1.14-.67-.26-.12-.44-.17-.63-.21-.45-.12-.89-.24-2-.99-.85-.58-1.16-.31-1.65,.16-.14,.13-.29,.28-.45,.41-.17,.14-.36,.28-.58,.39-.46,.23-1.02,.34-1.73,.19-1.33-.27-1.76-.57-2.18-.87-.19-.14-.35-.25-.62-.37-.27-.12-.65-.25-1.27-.37-1.28-.26-1.56-.46-1.84-.52-.17-.04-.33-.02-1.66,.25-.74,.15-1.31,0-1.78-.32-.23-.15-.42-.34-.59-.53-.17-.19-.32-.39-.48-.59-.61-.79-1.07-1.36-2.08-1.15-.97,.2-1.07,.78-1.13,1.78-.02,.25-.03,.52-.05,.78-.03,.28-.07,.56-.15,.83-.17,.57-.48,1.11-1.11,1.53-.63,.43-1.23,.48-1.79,.33-.27-.07-.52-.19-.75-.32-.23-.13-.45-.27-.67-.42-.89-.59-1.52-.97-2.36-.41-1.05,.71-1.38,1.1-1.64,1.54-.26,.44-.45,.95-.96,1.76,2.99,.98,1.83,4.43,.52,6.37-.38,.57-.88,1.1-1.39,1.6-.51,.5-1.06,.99-1.58,1.49-1.04,1-1.88,1.98-2.11,3.12-.13,.63-.15,.97-.12,1.17,.02,.17,.07,.24,.17,.35l.23,.23c.1,.1,.2,.21,.31,.37,.22,.31,.44,.73,.63,1.39,.17,.6,.28,.92,.36,1.1,.25,.3,.39,.53,.75,1.75,.45,1.53-.42,1.98-1.09,2.3-.14,.07-.28,.14-.41,.22-.11,.07-.2,.15-.25,.22-.1,.14-.18,.39-.02,.95,.37,1.26,.39,1.38,.42,1.52,.03,.14,.07,.3,.47,1.64,.05,.18-.06,.4-.23,.47-.51,.19-.78,.36-.94,.49-.08,.07-.13,.13-.18,.2-.05,.08-.1,.15-.14,.23-.26,.43-.57,.82-1.83,1.26-.58,.2-.77,.39-.84,.52-.07,.13-.07,.29-.03,.6,.02,.16,.04,.33,.05,.5,0,.19,0,.4-.05,.62-.1,.45-.38,.9-.93,1.36-1.03,.84-1.36,.97-1.71,1.09-.07,.02-.13,.04-.2,.08-.07,.03-.15,.07-.25,.13-.21,.13-.52,.34-1.02,.75-.51,.41-.7,.62-.77,.73,.17,.42,.34,.87-.38,2.08-.38,.63-.83,.95-1.34,1.06-.24,.05-.48,.06-.71,.04-.21-.02-.43-.05-.64-.09-.81-.14-1.37-.23-1.9,.65-.32,.53-.37,.82-.35,.98,.02,.16,.1,.28,.29,.5,.1,.11,.21,.23,.31,.36,.11,.14,.22,.31,.3,.51,.17,.41,.24,.93,.11,1.62-.27,1.45-.97,1.77-1.6,2.03-.29,.12-.5,.21-.68,.39-.17,.18-.35,.47-.45,1.06-.13,.69-.34,1.17-.58,1.54-.12,.18-.24,.34-.36,.48l-.31,.35c-.29,.34-.51,.64-.15,1.76,.84,2.61-1.56,11.52-3.59,13.36-.42,.38-.52,.68-.53,.91,0,.27,.1,.53,.26,.89,.31,.71,.71,1.63-.45,2.68-.54,.49-1.07,.68-1.58,.69-.25,0-.48-.03-.69-.07-.2-.04-.4-.1-.58-.16-.66-.2-1.05-.31-1.54,.59-.29,.52-.32,.83-.29,1.04,.04,.21,.15,.38,.34,.63,.41,.54,.84,1.18,.11,2.5-.35,.63-.76,.99-1.2,1.21-.22,.1-.43,.17-.63,.22-.19,.04-.38,.07-.56,.1-.6,.1-1.01,.18-1.19,1.24-.11,.62-.1,.96-.05,1.17,.04,.2,.11,.3,.22,.45,.29,.41,.53,.83,.3,2.2-.12,.67-.29,1.16-.47,1.54-.18,.36-.36,.63-.52,.89-.25,.42-.43,.83-.19,2.02,.51,2.54,.27,5.05,.78,7.59,.25,1.23,.5,1.71,.83,2.14,.19,.24,.41,.47,.67,.78,.27,.32,.58,.71,.95,1.27,.33,.5,.61,.74,.85,.86,.24,.12,.46,.15,.76,.18,.66,.07,1.37,.17,2.17,1.38,.37,.55,.59,.93,.75,1.2,.16,.28,.25,.42,.35,.54,.09,.11,.21,.22,.44,.39,.24,.18,.59,.42,1.11,.78,.49,.34,.84,.44,1.1,.45,.28,.01,.52-.07,.83-.18,.66-.23,1.42-.47,2.62,.37,.55,.38,.87,.67,1.07,.9,.1,.12,.18,.21,.23,.29l.12,.17c.08,.08,.13,.1,.23,.14,.22,.08,.57,.17,1.18,.31,1.46,.33,1.79,1.19,2.07,1.92,.14,.36,.25,.64,.45,.88,.19,.23,.5,.44,1.06,.56,1.23,.28,1.6,.39,1.98,.43,.38,.04,.76,0,2.04,0,.64,0,.99-.03,1.21-.08,.1-.02,.17-.04,.23-.07,.06-.03,.11-.05,.16-.08,.32-.18,.64-.32,1.97-.32,.6,0,.98-.11,1.26-.24,.28-.14,.48-.32,.71-.55,.12-.12,.25-.24,.38-.35,.14-.12,.31-.23,.5-.34,.39-.2,.88-.33,1.55-.33,.14,0,.34,.15,.38,.3,3.02,12.66-2.1,22.84-7.21,30.4-.03,.04-.23,.16-.28,.17-19.84,1.84-43.09,5.89-49.91,8.22-.28,.1-.51-.06-.51-.36V134.33c0-.2,.18-.39,.38-.39h149.81c.2,0,.38,.18,.38,.39v178.88c0,.28-.21,.44-.48,.37-16.93-4.49-31.26-7.41-55.2-8.75Z" style="fill: #afcfe8;"/>
          <path d="M532.19,231.06c.05,.27,.05,.55,.03,.81-.02,.26-.07,.52-.11,.79-.09,.53-.15,.96-.08,1.33,.06,.32,.23,.6,.71,.8,.54,.23,.88,.23,1.11,.17,.12-.03,.23-.08,.34-.15,.12-.07,.23-.16,.34-.24,.59-.44,1.2-.71,2.32,.3,.47,.43,.76,.63,.94,.73,.09,.05,.15,.07,.21,.08,.06,.02,.12,.02,.17,.03,.4,.05,.76,.13,1.75,1.03,1,.9,1.15,1.35,1.11,1.93,0,.1-.02,.2-.02,.31,0,.1,0,.21,.02,.33,.04,.25,.15,.61,.45,1.15,.31,.55,.52,.82,.67,.96,.13,.12,.23,.15,.37,.2,.44,.14,.82,.32,1.48,1.52,.31,.55,.54,.89,.72,1.12,.19,.25,.34,.4,.46,.56,.3,.4,.44,.83,.66,2.1,.29,1.7-.88,1.73-1.58,1.74-.16,0-.32,0-.47,.02-.14,.02-.22,.05-.27,.08-.05,.03-.19,.15-.09,.74,.1,.59,.32,1.15,.61,1.72,.29,.58,.63,1.14,.94,1.71,.63,1.14,1.21,2.38,.94,3.8-.06,.29-.3,.4-.56,.27-.32-.17-.55-.11-.82,.18-.3,.33-.59,.89-.87,1.61-.28,.71-.55,1.51-.83,2.22-.28,.71-.61,1.4-1.02,1.84-2.44,2.61-4.6,4.71-6.29,5.86-1.6,1.08-3.21,1.57-3.92-.05-.1-.23-.21-.35-.77,0-.54,.34-1.21,.99-1.92,1.69-.35,.35-.7,.7-1.04,1-.34,.31-.68,.59-1,.79-.62,.39-1.46,.61-1.88-.35-.41-.94-1.02-.93-1.9-.9-.23,0-.46,.01-.68,0-.23-.01-.48-.05-.72-.13-.5-.18-.93-.55-1.22-1.23-.16-.37-.52-.54-1.2-.52-.68,.02-1.53,.24-2.44,.48-.45,.12-.9,.23-1.34,.33-.45,.09-.88,.16-1.27,.18-.79,.03-1.58-.17-1.94-.98-.12-.26-.38-.4-1.17-.11-.74,.27-1.66,.83-2.63,1.41-.48,.29-.97,.58-1.43,.84-.48,.26-.93,.49-1.34,.64-.78,.28-1.73,.4-2.14-.52-.14-.33-.4-.44-.98-.29-.6,.16-1.34,.56-2.13,.99-.4,.22-.8,.43-1.18,.62-.38,.19-.77,.35-1.13,.44-.72,.19-1.51,.13-1.88-.72-.16-.37-.81-.67-2.01-.84-1.15-.16-2.57-.18-3.92-.2-1.39-.02-2.71-.03-3.59-.18-.44-.07-.86-.19-1.13-.43-.35-.31-.35-.74-.11-1.13,1.47-2.44,.78-3.68-.36-4.63-.31-.26-.65-.49-1-.72-.36-.23-.73-.45-1.08-.68-.7-.44-1.4-.94-1.78-1.59-.22-.38-.93-.64-2.07-.86-1.1-.21-2.37-.35-3.4-.65-2.43-.69-3.38-2.28-.05-5.91,.66-.72,.4-1.56-.44-2.7-.41-.56-.92-1.13-1.41-1.7-.49-.57-.98-1.17-1.33-1.76-.45-.77-.17-1.38,.39-1.79,.25-.19,.57-.34,.89-.48,.32-.13,.67-.26,1.02-.38,.71-.25,1.33-.47,1.7-.75,.31-.23,.39-.43,.18-.78-.37-.62-.49-1.2-.48-1.75,0-.27,.04-.52,.09-.78,.05-.24,.11-.48,.17-.72,.24-.92,.44-1.7-.13-2.67-.38-.65-.43-1.34-.43-1.92,0-.28,.02-.55,.03-.79,0-.24,0-.41-.03-.54-.03-.14-.07-.27-.54-.25-.54,.02-1.47,.27-3.04,.88-3.12,.78-4-.85-4-2.62,0-.83,.18-1.7,.36-2.34,.18-.65,.36-1.11,.36-1.11,.03-.06,.21-.22,.28-.23,3.08-.65,3.51-2.34,3.51-4.02,0-.91-.13-1.81-.11-2.52,.02-.75,.22-1.52,1.09-1.8,4.39-1.41,6.21-2.33,6.75-3.04,.21-.28,.2-.49,.05-.76-.18-.32-.54-.67-1.03-1.12-2.13-1.93-1.49-4.79-.28-6.67,.61-.95,1.41-1.73,2.19-2.09,.81-.37,1.7-.3,2.17,.65,1.5,3.01,3.58,3.36,4.99,2.91,.73-.23,1.28-.68,1.54-1.11,.24-.41,.19-.74-.13-.97-3.39-2.45-2.37-4.48-.74-6.02,.76-.72,1.66-1.36,2.28-1.95,.3-.29,.5-.53,.58-.73,.07-.17,.06-.3-.04-.44-.36-.51-.66-.84-.92-1.08-.26-.24-.5-.39-.76-.56-.54-.36-1.1-.73-1.89-1.84-.47-.66-.42-1.25-.03-1.74,.17-.21,.4-.39,.63-.55,.23-.15,.48-.3,.74-.44,.52-.29,.93-.53,1.15-.8,.16-.2,.23-.41-.06-.81-.33-.47-.69-.71-1.05-.86-.19-.08-.38-.13-.56-.18-.2-.05-.39-.08-.57-.12-.86-.19-1.54-.55-1.37-2.08,.29-2.58,.26-2.65,.55-5.23,.08-.71,.32-1.3,.64-1.81,.16-.25,.33-.49,.51-.71,.18-.22,.36-.43,.55-.64,.74-.84,1.39-1.59,1.52-2.74,.17-1.53,1.02-1.75,1.72-1.9,.14-.03,.29-.06,.43-.11,.12-.04,.22-.09,.3-.16,.15-.13,.32-.38,.39-.96,.16-1.38,.51-1.65,.95-1.86,.13-.06,.17-.08,.22-.18,.07-.14,.16-.42,.2-1.06,.06-.8,.48-1.22,1.15-1.12,.26,.04,.52,.15,.77,.27,.25,.12,.51,.27,.77,.42,.24,.14,.49,.29,.72,.4,.23,.11,.41,.18,.54,.2,.15-.02,.25-.12,.27-.41,.02-.22,.15-.38,.28-.48,.13-.1,.29-.17,.46-.22,.34-.11,.78-.16,1.27-.15,.99,.02,2.26,.32,3.4,1.09,.37,.25,.63,.19,.9-.04,.33-.28,.64-.78,.99-1.36,.18-.29,.35-.58,.53-.83,.18-.26,.39-.52,.62-.71,.5-.43,1.13-.57,1.83-.09,1.3,.88,1.04,1.8,.74,2.61-.07,.18-.14,.37-.2,.57-.06,.18-.1,.36-.12,.55-.03,.35,.04,.75,.35,1.21,.71,1.05,.96,1.35,1.21,1.65,.26,.31,.52,.62,1.25,1.71,.31,.46,.66,.68,1.02,.8,.19,.06,.39,.1,.58,.12,.21,.02,.42,.03,.63,.05,.89,.06,1.85,.2,2.16,1.74,.28,1.38,0,1.95-.27,2.5-.12,.24-.22,.44-.27,.72-.05,.28-.05,.67,.07,1.27,.12,.6,.27,.96,.4,1.19,.07,.12,.13,.21,.19,.29l.2,.25c.34,.47,.34,.94-.02,2.18-.17,.6-.25,.92-.28,1.12-.01,.09-.01,.12-.01,.13,.08,.26,.08,.54-.27,1.75-.69,2.38,.51,6.08,2.69,6.84,1.31,.45,1.64,.9,1.87,1.5l.14,.37c.05,.12,.1,.24,.18,.37,.15,.26,.4,.57,.87,.96,.49,.4,.8,.63,1.02,.78,.21,.14,.33,.2,.45,.26,.3,.15,.59,.3,1.61,1.14,1.18,.97,.95,1.68,.6,2.36-.07,.13-.14,.27-.2,.42-.06,.14-.1,.27-.12,.41-.03,.27,0,.62,.3,1.12,.31,.52,.57,.73,.77,.83,.21,.1,.41,.11,.69,.11,.65,.01,1.36,.06,2.11,1.32,.8,1.33,.26,1.91-.34,2.4-.12,.1-.25,.2-.37,.31-.11,.1-.2,.21-.27,.33-.14,.23-.23,.57-.12,1.13,.19,1.03,.75,1.17,1.52,1.35,.21,.05,.42,.1,.62,.17,.21,.07,.43,.17,.63,.31,.42,.3,.72,.76,.85,1.48,.11,.62,.21,1.02,.28,1.29l.09,.36c.03,.12,.04,.22,.05,.33,0,.23-.04,.44-.13,.72-.08,.27-.22,.66-.42,1.28-.44,1.36-.94,1.54-1.49,1.63-.19,.03-.29,.05-.4,.15-.12,.11-.29,.36-.49,.95-.4,1.24-.5,1.43-.62,1.63-.04,.07-.08,.14-.15,.33-.08,.21-.2,.55-.4,1.16-.18,.56-.18,.86-.13,1.02,.04,.15,.12,.24,.28,.38l.27,.25c.1,.11,.19,.24,.26,.41,.08,.2,.12,.44,.1,.71,.31-.02,.65,.05,1.03,.21,.71,.31,1.05,.79,1.16,1.37Zm-39.08,58.78c.32-2.56,.56-4.9,.75-6.61,.09-.86,.17-1.56,.24-2.04,.04-.25,.07-.45,.1-.58,.02-.09,.04-.16,.06-.2,.1-.25,.29-.29,.38-.29,.09,0,.2,.02,.33,.11l.14,.11c.08,.07,.19,.16,.36,.24,.3,.15,.81,.3,1.73,.25,.08-.14,.26-.17,.43-.16,.1,0,.19,.05,.24,.07l.18,.1,.39,.23c.13,.07,.27,.15,.41,.2,.28,.1,.43,.08,.54-.02,.14-.13,.33-.49,.37-1.42,0-.16,.18-.35,.34-.37,.67-.08,1.35-.11,1.85-.12,.26,0,.47,0,.62,0h.19c.25,.03,.03,.4,.03,.4l.37-.11s.14,.45,.35,.89c.23,.48,.49,.84,.71,.94,.07-.06,.18-.21,.28-.39,.1-.18,.19-.38,.27-.52,.04-.08,.1-.17,.17-.24,.05-.06,.19-.2,.4-.2,.1,0,.2,.03,.28,.05,.08,.03,.18,.06,.29,.1,.2,.08,.45,.19,.71,.31,.39,.19,.8,.39,1.08,.53,.07-.06,.14-.14,.21-.25,.12-.2,.21-.41,.31-.58,.35-.61,.89-.72,1.61,0,.04,.04,.12,.26,.11,.31-.53,5.49,.61,10.14,2.07,14.06,1.47,3.97,3.26,7.18,4,9.76,.08,.28-.08,.49-.37,.49l-25.15-.09c-.32,0-.48-.24-.35-.53,1.41-3.38,2.36-9.31,3-14.44Z" style="fill: #15552b; fill-rule: evenodd;"/>
          <path d="M320.13,193.58c-.04-.31,.16-.5,.47-.43l1.24,.29c.1,.02,.27,.2,.29,.3l1.07,5.73c.05,.27-.13,.47-.41,.45l-1.5-.11c-.15-.01-.33-.18-.35-.33l-.81-5.91Zm22.74,4.52c-.17,0-.35-.18-.37-.34l-.81-7.28c-.03-.31,.18-.5,.48-.41l1.24,.33c.1,.03,.27,.21,.28,.31l1.05,6.99c.04,.25-.14,.45-.39,.44l-1.47-.05Zm-30.53,26.25c-.14-.06-.29-.18-.36-.46-.05-.23-.05-.6,0-1.19,.22-2.38,.42-4.96,.64-7.34,.11-1.17,.13-1.54,.13-1.91,0-.38-.01-.77,.04-1.99,.04-1.06,.18-4.23,.47-7.38,.28-3.09,.73-6.35,1.46-7.44,.97-1.45,1.72-2.29,4.21-3.43,.24-.11,.48,0,.54,.27,.33,1.5,.59,3.3,.79,4.72,.1,.71,.18,1.32,.25,1.76l.06,.35c.96-.1,2.91-.23,4.74-.34l2.78-.17c.78-.05,1.25-.08,1.28-.09,.16-.03,.2-.12,.21-.16,.14-1.06,.74-6.96,.88-8.23,.02-.15,.2-.33,.35-.34,1.17-.09,2.09-.12,2.85-.17,1.59-.09,7.46,1.38,8.14,8.15,1.82-.01,8.38-.09,11.28-.22,.31,0,.71-.32,.72-.41,.26-2.06,.84-5.94,.96-7.44,.02-.2,.21-.37,.41-.35,3.29,.26,9.3,.87,9.5,.99,.03,.02,.17,.11,.21,.35l.03,.23,.08,.77c.06,.63,.13,1.48,.21,2.37,.15,1.75,.3,3.65,.38,4.31,.23,.17,.38,.22,.55,.27,2.31,.33,6.14,.93,8.29,1.31,.09,.01,.14,0,.17,0,.06-.04,.09-.09,.09-.14,.31-2.48,.92-7.04,1.02-7.5,.04-.2,.25-.34,.45-.3,1.09,.2,4.46,1.12,6.03,1.46,.08,.02,.26,.19,.29,.27,.31,1.09,1.5,12.66,1.68,17.53,.01,.3-.2,.47-.49,.38l-2.59-.74c-.53-.09-.94,.25-.94,.77l.56,9.91,4.1,1.78c.07,.03,.22,.23,.23,.3,0,0,.92,6.71,1.3,12.24,.02,.28-.18,.46-.46,.4-5.35-1.11-21.54-2.72-34.41-2.77-13.99-.28-25.93,.55-34.49,1.59-.33-.04-.61-.03-.92-.03-.34,0-.7,.01-1.03-.01-.62-.05-1.5-.26-1.5-1.22,.2-.66,.03-.95-.25-1.35l-.23-.34c-.08-.13-.16-.26-.23-.4-.14-.3-.23-.66-.19-1.09,.05-.57,0-.83-.07-.96-.06-.11-.13-.16-.3-.26-.46-.28-.87-.62-.74-1.95,.12-1.22,.27-1.55,.45-1.87,.03-.06,.06-.12,.09-.19,.03-.07,.06-.15,.09-.25,.06-.24,.12-.58,.18-1.14,.05-.52,.04-.78,.03-.9Zm-1.43,32.27c-.15-.03-.31-.12-.38-.38-.07-.22-.07-.58-.02-1.16,.09-1.12-.09-1.85-.29-2.62-.1-.4-.21-.81-.27-1.26-.07-.47-.09-.99-.04-1.61,.11-1.27,.6-2.34,1.06-3.2,.22-.42,.44-.8,.61-1.14,.17-.34,.26-.57,.27-.75,.1-1.61,.67-2.75,1.22-3.5,.28-.37,.55-.64,.75-.82,.22-.19,.36-.28,.36-.28l.15-.06c9.1-1.39,27.25-2.27,34.69-2.36,.38,0,.7-.03,.98-.08,11.43,.12,29.8,.67,36.25,2.6,.1,.03,.26,.22,.27,.33,0,0,1.41,12.5,2.8,25.19,1.39,12.66,2.78,25.61,2.73,26.45-.03,.53,.88,12.48,.98,13.2,.16,1.14,.09,2.82-1.39,3.25-.36,.1-4.17-.34-7.69-.77-3.61-.44-7.15-.89-7.15-.89-.18-.02-.35-.22-.34-.4,1.57-28.68-28.73-29.5-26.93-.64l-.7,.24c.16,.01,.21,.14,.22,.15h-.17s-.69,0-.69,0c-.6,0-1.45,.02-2.46,.05-2.04,.05-4.76,.13-7.5,.2-5.4,.15-11.11,.29-11.63,.11-.63-.23-1.07-.56-1.4-.95-.17-.19-.3-.39-.42-.59-.12-.19-.22-.4-.33-.6-.41-.78-.76-1.42-1.73-1.77-.5-.18-.91-.2-1.28-.16-.4,.05-.74,.17-1.07,.26-.78,.22-1.56,.31-2.52-.68-.96-.98-.86-1.8-.78-2.51,.04-.34,.07-.62,.01-.91-.06-.28-.2-.59-.58-.98-.37-.38-.67-.51-.92-.56-.13-.02-.25-.03-.38-.02-.14,0-.28,.03-.4,.05-.7,.1-1.34,.04-1.85-1.26-.37-.93,.24-1.53,1.04-1.86,1.79-.23,2.62-.55,2.97-.84,.24-.2,.24-.37,.02-.64-.56-.7-2-1.17-2.36-1.04-1.16,.43-2.88-1.33-2.23-2.91,.03-.06,.01-.3-.2-.77-.2-.44-.5-.95-.82-1.46-.33-.52-.66-1.04-.92-1.47-.14-.23-.25-.43-.33-.61-.07-.16-.15-.37-.15-.55,0-.22-.02-.89-.02-1.56,0-.34,0-.69,.03-.97,.01-.15,.03-.29,.05-.4,.02-.11,.05-.24,.11-.35,.01-.03,.17-.17,.2-.18,.13-.05,.26-.2,.33-.59,.07-.38,.06-.87,0-1.41-.05-.54-.15-1.1-.22-1.57-.07-.46-.14-.91-.13-1.18,.06-1.27,.32-1.6,.64-1.91,.11-.11,.18-.18,.24-.34,.07-.18,.14-.48,.17-1.06,.05-1.1-.22-1.71-.51-2.37-.16-.36-.31-.71-.42-1.14-.11-.44-.18-.95-.15-1.58,.02-.45,.33-.62,.6-.68,.1-.02,.21-.04,.34-.06,.1-.02,.21-.04,.33-.08,2.56-.33,2.15-1.69,.77-2.21-1.34-.5-1.71-1.68-1.75-2.91-.04-1.18,.23-2.56,.33-3.76,.03-.35,.03-.57,.03-.71Z" style="fill: #a8a9ac; fill-rule: evenodd;"/>
          <path d="M309.33,356.41l-10.25-6.4-10.25,6.4,2.92-11.72-9.25-7.77,12.05-.85,4.53-11.2,4.53,11.2,12.05,.85-9.25,7.77,2.92,11.72Zm0,37.75l-10.25-6.4-10.25,6.4,2.92-11.72-9.25-7.77,12.05-.85,4.53-11.2,4.53,11.2,12.05,.85-9.25,7.77,2.92,11.72Zm0,37.75l-10.25-6.4-10.25,6.4,2.92-11.72-9.25-7.77,12.05-.85,4.53-11.2,4.53,11.2,12.05,.85-9.25,7.77,2.92,11.72Zm0,37.75l-10.25-6.4-10.25,6.4,2.92-11.72-9.25-7.77,12.05-.85,4.53-11.2,4.53,11.2,12.05,.85-9.25,7.77,2.92,11.72Zm98.84-113.26l-10.25-6.4-10.25,6.4,2.92-11.72-9.25-7.77,12.05-.85,4.53-11.2,4.53,11.2,12.05,.85-9.25,7.77,2.92,11.72Zm0,37.75l-10.25-6.4-10.25,6.4,2.92-11.72-9.25-7.77,12.05-.85,4.53-11.2,4.53,11.2,12.05,.85-9.25,7.77,2.92,11.72Zm0,37.75l-10.25-6.4-10.25,6.4,2.92-11.72-9.25-7.77,12.05-.85,4.53-11.2,4.53,11.2,12.05,.85-9.25,7.77,2.92,11.72Zm0,37.75l-10.25-6.4-10.25,6.4,2.92-11.72-9.25-7.77,12.05-.85,4.53-11.2,4.53,11.2,12.05,.85-9.25,7.77,2.92,11.72Zm-48.11-113.26l-10.25-6.4-10.25,6.4,2.92-11.72-9.25-7.77,12.05-.85,4.53-11.2,4.53,11.2,12.05,.85-9.25,7.77,2.92,11.72Zm0,37.75l-10.25-6.4-10.25,6.4,2.92-11.72-9.25-7.77,12.05-.85,4.53-11.2,4.53,11.2,12.05,.85-9.25,7.77,2.92,11.72Zm0,37.75l-10.25-6.4-10.25,6.4,2.92-11.72-9.25-7.77,12.05-.85,4.53-11.2,4.53,11.2,12.05,.85-9.25,7.77,2.92,11.72Zm0,37.75l-10.25-6.4-10.25,6.4,2.92-11.72-9.25-7.77,12.05-.85,4.53-11.2,4.53,11.2,12.05,.85-9.25,7.77,2.92,11.72Zm0,37.75l-10.25-6.4-10.25,6.4,2.92-11.72-9.25-7.77,12.05-.85,4.53-11.2,4.53,11.2,12.05,.85-9.25,7.77,2.92,11.72ZM584.11,102.44c1.02,.73,1.46,1.8,1.99,3.06l2.82,6.71c1.12,2.62,1.65,4.08,2.28,4.33,1.07,.44,2.04,.39,2.04,1.12,0,.44-.24,.49-.83,.49-.83,0-1.85-.15-2.96-.15-.73,0-1.41,.15-2.14,.15-.97,0-1.07-.53-1.51-1.6l-4.37-11.03c-.68-1.7-1.21-2.19-2.72-2.19h-.49c-.39,0-.63,.29-.63,.68v9.57c0,1.9,.05,3.06,2.14,3.06,.78,0,1.07,.24,1.07,.83,0,.39-.39,.68-.97,.68-.49,0-1.9-.29-4.42-.29s-4.03,.29-4.62,.29c-.68,0-1.02-.29-1.02-.78,0-.92,.97-.58,1.9-.83,1.56-.39,1.56-.87,1.56-2.96v-22.26c0-1.56-.1-1.94-1.07-2.24-1.26-.34-2.28,.1-2.28-.87,0-.63,.44-.68,1.31-.68,.39,0,1.51,.19,3.21,.19,2.43,0,4.76-.29,6.95-.29,5.2,0,7.97,3.01,7.97,7.53,0,3.89-1.99,6.76-5.2,7.48Zm-6.51-1.75c0,1.02,.58,1.12,2.24,1.12,3.3,0,5.05-2.14,5.05-6.17s-1.7-6.61-4.86-6.61c-2.24,0-2.43,.83-2.43,2.43v9.23Zm-27.51-9.38v16.96c0,5.93,1.17,9.04,6.32,9.04,2.58,0,4.52-.92,5.69-2.58,1.17-1.75,1.22-4.08,1.22-7.44v-11.76c0-3.69-.05-5.59-.87-6.27-.87-.68-2.62,0-2.62-1.07,0-.44,.29-.68,.83-.68,.58,0,1.65,.15,3.3,.15,1.75,0,2.87-.15,3.35-.15,.68,0,1.02,.19,1.02,.68,0,.58-.44,.68-1.41,.68-2.04,0-2.14,1.65-2.14,6.51v11.96c0,3.35-.05,5.88-1.31,8.07-1.36,2.33-4.08,3.64-7.82,3.64-4.13,0-6.9-1.07-8.55-3.5-1.31-1.9-1.41-4.23-1.41-7.19v-17.06c0-1.6-.05-1.94-1.07-2.24-1.26-.39-2.24,.1-2.24-.87,0-.39,.29-.68,.73-.68,.49,0,2.04,.39,4.81,.39s4.33-.39,4.81-.39,.73,.29,.73,.68c0,1.02-1.12,.53-2.28,.87-.97,.29-1.07,.68-1.07,2.24Zm-9-4.47l-.29,6.42c-.05,1.07-.19,1.36-.68,1.36-.87,0-.83-1.36-1.41-3.26-.87-2.09-2.28-2.38-5.25-2.38h-.78c-.39,0-.63,.44-.63,.78v23.81c0,2.04,.05,2.48,1.31,2.92,1.12,.39,2.14-.1,2.14,.97,0,.39-.34,.68-1.02,.68-1.02,0-2.58-.34-4.62-.34s-3.6,.34-4.62,.34c-.68,0-1.02-.29-1.02-.78,0-.97,1.07-.53,2.14-.87,1.26-.39,1.31-.83,1.31-2.92v-23.67c0-.39-.24-.92-.63-.92h-1.36c-1.99,0-3.16,.78-4.37,2.33-1.17,1.94-1.6,3.11-2.38,3.11-.34,0-.53-.05-.53-.68,0-.05,.1-.44,.19-.83l1.21-4.96c.34-1.46,.34-2.48,.97-2.48,.58,0,.53,1.6,1.12,1.65,.34,.34,1.12,.44,2.28,.44,.92,0,2.09-.05,3.5-.05h5.98c1.6,0,2.87,.1,3.79,.1,.73,0,1.26-.05,1.56-.24,.87-.53,1.07-1.94,1.55-1.94,.39,0,.53,.58,.53,.87v.53Zm-27.54,4.47v22.26c0,2.04,.05,2.53,1.31,2.92,1.12,.34,2.14-.1,2.14,.97,0,.39-.34,.68-1.02,.68-.58,0-2.09-.29-4.62-.29s-4.03,.29-4.62,.29c-.68,0-1.02-.29-1.02-.78,0-.92,.97-.58,1.9-.83,1.56-.39,1.56-.87,1.56-2.96v-22.26c0-1.56-.1-1.94-1.07-2.24-1.26-.34-2.28,.1-2.28-.87,0-.39,.24-.68,.73-.68s2.04,.39,4.81,.39,4.28-.39,4.81-.39c.44,0,.73,.29,.73,.68,0,.87-.87,.58-2.09,.83-1.21,.24-1.26,.73-1.26,2.28Zm-19.35,12.83l-.78-.34c-.15-.05-.24-.1-.34-.1-.39,0-.44,.29-.44,.92v9.09c0,1.65,.05,2.24,.97,2.67,1.21,.53,2.33-.1,2.33,1.07,0,.39-.39,.73-1.02,.73s-2.19-.34-4.62-.34c-2.28,0-3.74,.34-4.42,.34-.43,0-.73-.14-.87-.38-.11,.29-.41,.38-.98,.38-.83,0-2.14-.29-4.08-.29-2.72,0-4.37,.24-5.01,.24-.58,0-.83-.15-.83-.58s.39-.78,.97-.78c1.6,0,1.99-.29,1.99-1.17,0-.44-.15-1.17-.44-2.19l-1.9-6.22c-.1-.34-.34-.39-.73-.39h-6.03c-.19,0-.49,.19-.53,.44l-1.17,4.33c-.49,1.9-.73,3.16-.73,3.74,0,.97,.39,1.17,1.26,1.31,1.31,.19,1.94,.34,1.94,1.07,0,.44-.29,.58-.83,.58-.68,0-2.14-.29-4.23-.29-1.41,0-2.53,.24-3.21,.24-.58,0-.87-.24-.87-.63,0-1.02,1.46-.39,2.43-1.12,.87-.63,1.21-1.85,1.75-3.6l7.73-25.08c.24-.73,.29-1.17,.83-1.17,.68,0,.73,.92,1.17,2.28l7.34,23.13c.68,2.24,1.12,3.55,2.38,4.37,.71,.49,1.4,.51,1.67,.77,.14-.67,.98-.4,1.83-.62,1.46-.39,1.46-1.17,1.46-3.35v-21.92c0-1.41-.1-1.9-1.02-2.19-1.21-.39-2.19,.05-2.19-.92,0-.49,.34-.68,.92-.68,.24,0,1.51,.15,3.84,.15h.78c1.12,0,2.72-.1,4.86-.1,5.64,0,8.46,3.01,8.46,8.89,0,4.91-3.06,8.55-6.66,8.55-.87,0-1.85-.34-3.01-.87Zm-1.6-3.4c0,1.41,1.31,2.09,2.53,2.09,2.19,0,4.18-2.58,4.18-6.61,0-4.37-2.09-7.29-4.42-7.29-1.99,0-2.28,.68-2.28,2.38v9.43Zm-21.43-5.1c-.1-.29-.19-.44-.29-.44s-.24,.15-.29,.39l-2.28,8.6c-.05,.24-.05,.44-.05,.49,0,.15,.15,.29,.34,.29h4.86c.19,0,.44-.19,.44-.39,0-.15-.05-.29-.1-.49l-2.62-8.46Zm-34.4,7.14c0-9.04,6.51-16.14,14.63-16.14,3.55,0,6.61,1.12,7.19,1.8,.34,.34,.63,2.14,.63,5.01,0,.53-.15,.87-.39,.87-.44,0-.87-.73-1.6-1.94-1.75-2.87-3.5-4.42-6.03-4.42-5.25,0-9.43,5.98-9.43,15.07,0,8.41,4.18,14.48,8.99,14.48,3.01,0,4.96-1.65,6.46-5.01,.78-1.75,1.12-2.77,1.7-2.77,.29,0,.53,.34,.53,1.02,0,.39-.15,1.8-.15,4.13s-3.45,4.18-8.36,4.18c-8.16,0-14.19-7.14-14.19-16.28Zm-30.09-7.68c0-5.01,3.3-8.46,8.6-8.46,2.72,0,5.1,.92,5.54,1.51,.24,.29,.39,2.09,.39,5.3,0,.68-.24,1.02-.63,1.02-.68,0-.73-.92-1.41-2.58-1.02-2.58-2.04-3.99-4.33-3.99-2.87,0-4.67,1.94-4.67,5.01,0,2.58,1.46,3.99,4.52,5.59,5.2,2.72,8.12,5.2,8.12,10.69s-3.94,9.87-9.38,9.87c-4.28,0-7.19-1.41-7.19-4.18,0-1.12,.1-2.14,.1-3.06,0-.73-.05-1.17-.05-1.26,0-1.02,.29-1.51,.73-1.51,.88,0,.63,1.55,1.17,3.4,.97,3.26,3.35,5.2,5.83,5.2,2.92,0,5.25-2.48,5.25-5.83,0-2.96-1.85-5.25-5.54-7.34-3.94-2.24-7.05-3.69-7.05-9.38Zm-14.97,.53c-.1-.29-.19-.44-.29-.44s-.24,.15-.29,.39l-2.28,8.6c-.05,.24-.05,.44-.05,.49,0,.15,.15,.29,.34,.29h4.86c.19,0,.44-.19,.44-.39,0-.15-.05-.29-.1-.49l-2.62-8.46Zm2.38-6.71l7.34,23.13c.68,2.24,1.12,3.55,2.38,4.37,.92,.63,1.8,.49,1.8,1.07,0,.53-.29,.68-1.02,.68-.83,0-2.14-.29-4.08-.29-2.72,0-4.37,.24-5.01,.24-.58,0-.83-.15-.83-.58s.39-.78,.97-.78c1.6,0,1.99-.29,1.99-1.17,0-.44-.15-1.17-.44-2.19l-1.9-6.22c-.1-.34-.34-.39-.73-.39h-6.03c-.19,0-.49,.19-.53,.44l-1.17,4.33c-.49,1.9-.73,3.16-.73,3.74,0,.97,.39,1.17,1.26,1.31,1.31,.19,1.94,.34,1.94,1.07,0,.44-.29,.58-.83,.58-.68,0-2.14-.29-4.23-.29-1.41,0-2.53,.24-3.21,.24-.58,0-.88-.24-.88-.63,0-1.02,1.46-.39,2.43-1.12,.87-.63,1.21-1.85,1.75-3.6l7.73-25.08c.24-.73,.29-1.17,.83-1.17,.68,0,.73,.92,1.17,2.28Zm-10.22-2.09l-.29,6.42c-.05,1.07-.19,1.36-.68,1.36-.87,0-.83-1.36-1.41-3.26-.87-2.09-2.28-2.38-5.25-2.38h-.78c-.39,0-.63,.44-.63,.78v23.81c0,2.04,.05,2.48,1.31,2.92,1.12,.39,2.14-.1,2.14,.97,0,.39-.34,.68-1.02,.68-1.02,0-2.58-.34-4.62-.34s-3.6,.34-4.62,.34c-.68,0-1.02-.29-1.02-.78,0-.97,1.07-.53,2.14-.87,1.26-.39,1.31-.83,1.31-2.92v-23.67c0-.39-.24-.92-.63-.92h-1.36c-1.99,0-3.16,.78-4.37,2.33-1.17,1.94-1.6,3.11-2.38,3.11-.34,0-.53-.05-.53-.68,0-.05,.1-.44,.19-.83l1.22-4.96c.34-1.46,.34-2.48,.97-2.48,.58,0,.53,1.6,1.12,1.65,.34,.34,1.12,.44,2.28,.44,.92,0,2.09-.05,3.5-.05h5.98c1.6,0,2.87,.1,3.79,.1,.73,0,1.26-.05,1.56-.24,.87-.53,1.07-1.94,1.56-1.94,.39,0,.53,.58,.53,.87v.53Zm-30.06,15.6c1.02,.73,1.46,1.8,1.99,3.06l2.82,6.71c1.12,2.62,1.65,4.08,2.28,4.33,1.07,.44,2.04,.39,2.04,1.12,0,.44-.24,.49-.83,.49-.83,0-1.85-.15-2.96-.15-.73,0-1.41,.15-2.14,.15-.97,0-1.07-.53-1.51-1.6l-4.37-11.03c-.68-1.7-1.21-2.19-2.72-2.19h-.49c-.39,0-.63,.29-.63,.68v9.57c0,1.9,.05,3.06,2.14,3.06,.78,0,1.07,.24,1.07,.83,0,.39-.39,.68-.97,.68-.49,0-1.9-.29-4.42-.29s-4.03,.29-4.62,.29c-.68,0-1.02-.29-1.02-.78,0-.92,.97-.58,1.9-.83,1.56-.39,1.56-.87,1.56-2.96v-22.26c0-1.56-.1-1.94-1.07-2.24-1.26-.34-2.28,.1-2.28-.87,0-.63,.44-.68,1.31-.68,.39,0,1.51,.19,3.21,.19,2.43,0,4.76-.29,6.95-.29,5.2,0,7.97,3.01,7.97,7.53,0,3.89-1.99,6.76-5.2,7.48Zm-6.51-1.75c0,1.02,.58,1.12,2.24,1.12,3.3,0,5.05-2.14,5.05-6.17s-1.7-6.61-4.86-6.61c-2.24,0-2.43,.83-2.43,2.43v9.23Zm-11.15-11.52v4.18c0,.83-.1,1.21-.53,1.21-.87,0-.63-2.04-2.38-3.64-1.31-1.21-3.26-1.85-5.93-1.85s-2.72,.68-2.72,2.96v8.02c0,.83,0,.97,.87,.97h2.19c1.99,0,3.64-.44,4.08-.87,1.31-1.26,.68-2.96,1.7-2.96,.44,0,.58,.19,.58,.68,0,1.21-.24,2.87-.24,4.81,0,2.28,.15,3.69,.15,4.13,0,.58-.24,.87-.58,.87-.83,0-.63-1.51-1.65-3.4-.78-1.46-2.04-1.6-4.08-1.6h-2.14c-.68,0-.87,.19-.87,.87v10.01c0,2.67,.63,3.11,3.5,3.11,3.01,0,4.62-.39,6.12-2.77,1.17-1.8,1.55-3.35,2.33-3.35,.19,0,.49,.29,.49,.44,0,0-.05,.34-.1,.87l-.53,4.71c-.15,1.51-.1,1.7-1.51,1.7-1.99,0-6.17-.39-12.39-.39-2.87,0-4.37,.24-4.76,.24-.73,0-1.07-.24-1.07-.78,0-.87,.87-.58,2.09-.78,1.41-.19,1.46-1.12,1.46-3.01v-22.26c0-1.46,0-1.94-.92-2.24-1.07-.34-2.09,.1-2.09-.87,0-.44,.29-.68,.83-.68,.39,0,2.77,.19,7.24,.19,5.69,0,8.89-.19,9.53-.19,1.31,0,1.36,.44,1.36,1.46v.19Zm-36.21,13.41c-.39,0-.63,.24-.63,.63v9.96c0,2.48,1.02,3.64,3.94,3.64,3.84,0,6.22-2.67,6.22-7.39,0-4.13-2.24-6.85-6.51-6.85h-3.01Zm8.02-1.21c4.08,.83,6.37,3.79,6.37,8.31,0,5.2-3.6,8.89-9.09,8.89-3.5,0-6.37-.73-8.75-.73-1.8,0-3.01,.29-3.64,.29-.58,0-.92-.29-.92-.78,0-.53,.34-.73,1.17-.73,1.46,0,1.9-.78,1.9-2.09,0-.15,.05-.44,.05-.97v-22.26c0-1.31-.44-1.9-1.31-1.9-.63,0-1.22,.24-1.7,.24-.39,0-.58-.24-.58-.68,0-.97,3.06-1.51,9.09-1.51,8.12,0,12.2,2.24,12.2,7.48,0,3.21-1.51,5.2-4.76,6.42Zm-8.65-1.85c0,1.41,.05,1.51,1.51,1.51h.63c4.18,0,6.61-2.09,6.61-5.78,0-3.99-2.09-6.17-5.93-6.17-2.48,0-2.82,.58-2.82,2.33v8.12Zm-13.25-8.21v22.26c0,2.04,.05,2.53,1.31,2.92,1.12,.34,2.14-.1,2.14,.97,0,.39-.34,.68-1.02,.68-.58,0-2.09-.29-4.62-.29s-4.03,.29-4.62,.29c-.68,0-1.02-.29-1.02-.78,0-.92,.97-.58,1.9-.83,1.56-.39,1.56-.87,1.56-2.96v-22.26c0-1.56-.1-1.94-1.07-2.24-1.26-.34-2.28,.1-2.28-.87,0-.39,.24-.68,.73-.68s2.04,.39,4.81,.39,4.28-.39,4.81-.39c.44,0,.73,.29,.73,.68,0,.87-.87,.58-2.09,.83-1.21,.24-1.26,.73-1.26,2.28Zm-20.05,0v22.26c0,2.09,1.12,3.16,3.16,3.16s3.64-.88,5.01-2.67c1.46-1.94,1.99-3.26,2.53-3.26,.19,0,.44,.24,.44,.39,0,.05,0,.39-.05,.87l-.49,4.57c-.05,.44-.1,.68-.1,.83,0,.53-.34,.83-.97,.83-2.04,0-5.98-.44-11.71-.44-2.53,0-4.03,.29-4.62,.29-.68,0-1.02-.29-1.02-.78,0-.92,.97-.58,1.9-.83,1.56-.39,1.56-.87,1.56-2.96v-22.26c0-1.46-.05-1.94-.97-2.24-1.17-.39-2.09,.1-2.09-.87,0-.39,.24-.68,.63-.68,.49,0,1.85,.39,4.47,.39,2.92,0,4.47-.39,4.96-.39,.44,0,.73,.29,.73,.68,0,.87-.87,.58-2.09,.83-1.21,.24-1.26,.73-1.26,2.28Zm325.88,239.54h4.4c.87,0,1.28,.1,1.28,.56,0,.92-2.15,.66-3.83,2.5-1.28,1.38-1.94,3.42-1.94,6.24s.72,2.86,3.12,2.86h8.43c.87,0,1.02,0,1.02-.92v-2.3c0-2.1-.46-3.83-.92-4.29-1.33-1.38-3.12-.72-3.12-1.79,0-.46,.2-.61,.72-.61,1.28,0,3.02,.26,5.06,.26,2.4,0,3.88-.15,4.34-.15,.61,0,.92,.26,.92,.61,0,.87-1.58,.66-3.58,1.74-1.53,.82-1.69,2.15-1.69,4.29v2.25c0,.72,.2,.92,.92,.92h10.53c2.81,0,3.27-.66,3.27-3.68,0-3.17-.41-4.86-2.91-6.44-1.89-1.23-3.53-1.64-3.53-2.45,0-.2,.31-.51,.46-.51,0,0,.36,.05,.92,.1l4.96,.56c1.58,.15,1.79,.1,1.79,1.58,0,2.1-.41,6.49-.41,13.03,0,3.02,.26,4.6,.26,5.01,0,.77-.26,1.12-.82,1.12-.92,0-.61-.92-.82-2.2-.2-1.48-1.18-1.53-3.17-1.53h-23.41c-1.53,0-2.04,0-2.35,.97-.36,1.12,.1,2.2-.92,2.2-.46,0-.72-.31-.72-.87,0-.41,.2-2.91,.2-7.62,0-5.98-.2-9.35-.2-10.02,0-1.38,.46-1.43,1.53-1.43h.2Zm2.25,35.77h23.41c2.2,0,3.32-1.18,3.32-3.32s-.92-3.83-2.81-5.26c-2.04-1.53-3.42-2.1-3.42-2.66,0-.2,.26-.46,.41-.46,.05,0,.41,0,.92,.05l4.8,.51c.46,.05,.72,.1,.87,.1,.56,0,.87,.36,.87,1.02,0,2.15-.46,6.29-.46,12.32,0,2.66,.31,4.24,.31,4.86,0,.72-.31,1.07-.82,1.07-.97,0-.61-1.02-.87-1.99-.41-1.64-.92-1.64-3.12-1.64h-23.41c-1.53,0-2.04,.05-2.35,1.02-.41,1.23,.1,2.2-.92,2.2-.41,0-.72-.26-.72-.66,0-.51,.41-1.94,.41-4.7,0-3.07-.41-4.7-.41-5.21,0-.46,.31-.77,.72-.77,.92,0,.61,.92,.87,2.2,.26,1.28,.77,1.33,2.4,1.33Zm0,16.47h23.41c2.15,0,2.66-.05,3.07-1.38,.36-1.18-.1-2.25,1.02-2.25,.41,0,.72,.36,.72,1.07,0,.61-.31,2.2-.31,4.86s.31,4.24,.31,4.86c0,.72-.31,1.07-.82,1.07-.97,0-.61-1.02-.87-1.99-.41-1.64-.92-1.64-3.12-1.64h-23.41c-1.64,0-2.04,.1-2.35,1.12-.36,1.33,.1,2.4-.92,2.4-.41,0-.72-.26-.72-.77s.41-2.15,.41-5.06-.41-4.5-.41-5.06c0-.46,.31-.77,.72-.77,.92,0,.61,.92,.87,2.2,.26,1.28,.77,1.33,2.4,1.33Zm0,33.98h9.3c.46,0,.66-.2,.66-.66v-11.6c0-.41-.31-.61-.72-.61h-9.25c-1.64,0-2.04,.05-2.35,1.07-.36,1.33,.1,2.4-.92,2.4-.41,0-.72-.26-.72-.77s.41-2.15,.41-5.06-.41-4.5-.41-5.06c0-.46,.31-.77,.72-.77,.92,0,.61,.92,.87,2.2s.77,1.33,2.4,1.33h23.41c2.15,0,2.66,0,3.07-1.33,.36-1.18-.1-2.3,1.02-2.3,.41,0,.72,.41,.72,1.12,0,.61-.31,2.15-.31,4.81s.31,4.24,.31,4.86c0,.72-.31,1.12-.82,1.12-.97,0-.61-1.02-.87-1.99-.41-1.64-.92-1.64-3.12-1.64h-10.94c-.41,0-.72,.2-.72,.61v11.6c0,.41,.31,.66,.72,.66h10.94c2.15,0,2.66-.05,3.07-1.38,.36-1.18-.1-2.25,1.02-2.25,.41,0,.72,.36,.72,1.07,0,.61-.31,2.2-.31,4.86s.31,4.24,.31,4.86c0,.72-.31,1.07-.82,1.07-.97,0-.61-1.02-.87-1.99-.41-1.64-.92-1.64-3.12-1.64h-23.41c-1.64,0-2.04,.1-2.35,1.12-.36,1.33,.1,2.4-.92,2.4-.41,0-.72-.26-.72-.77s.41-2.15,.41-5.06-.41-4.5-.41-5.06c0-.46,.31-.77,.72-.77,.92,0,.61,.92,.87,2.2s.77,1.33,2.4,1.33Zm12.06,37.72c-9.51,0-16.97-6.85-16.97-15.39,0-3.73,1.18-6.95,1.89-7.57,.36-.36,2.25-.66,5.27-.66,.56,0,.92,.15,.92,.41,0,.46-.77,.92-2.04,1.69-3.02,1.84-4.65,3.68-4.65,6.34,0,5.52,6.29,9.92,15.85,9.92,8.84,0,15.23-4.4,15.23-9.46,0-3.17-1.74-5.21-5.26-6.8-1.84-.82-2.91-1.18-2.91-1.79,0-.31,.36-.56,1.07-.56,.41,0,1.89,.15,4.34,.15s4.4,3.63,4.4,8.79c0,8.59-7.51,14.93-17.12,14.93Zm-14.94,24.6l4.39,.15c.87,.03,1.27,.15,1.26,.61-.03,.92-2.17,.59-3.92,2.37-1.33,1.33-2.06,3.35-2.16,6.16-.09,2.71,.62,2.89,3.02,2.97l8.43,.29c.87,.03,1.02,.04,1.05-.88l.08-2.3c.07-2.09-.33-3.85-.77-4.32-1.28-1.43-3.09-.82-3.05-1.9,.02-.46,.23-.61,.74-.59,1.28,.04,3.01,.36,5.05,.43,2.4,.08,3.89-.02,4.35,0,.61,.02,.91,.29,.9,.65-.03,.87-1.61,.61-3.64,1.61-1.56,.76-1.76,2.09-1.84,4.23l-.08,2.25c-.03,.72,.17,.93,.89,.95l10.52,.37c2.81,.1,3.29-.55,3.4-3.56,.11-3.17-.24-4.87-2.69-6.54-1.85-1.29-3.47-1.76-3.44-2.57,0-.2,.32-.5,.48-.49,0,0,.36,.06,.92,.13l4.94,.73c1.58,.21,1.78,.16,1.73,1.65-.07,2.09-.64,6.47-.86,13.01-.1,3.01,.1,4.61,.08,5.02-.03,.77-.29,1.11-.86,1.1-.92-.03-.58-.94-.74-2.22-.15-1.49-1.12-1.57-3.11-1.64l-23.4-.82c-1.53-.05-2.04-.07-2.38,.89-.4,1.11,.03,2.2-1,2.16-.46-.02-.7-.33-.68-.89,.01-.41,.31-2.9,.47-7.6,.21-5.98,.12-9.36,.14-10.02,.05-1.38,.51-1.41,1.58-1.38h.2Zm8.75,53.71l-19.7-13.29c-.89-.6-1.47-.74-1.96-.02-.43,.64-.36,1.36-.7,1.87-.17,.25-.57,.29-.95,.04-1.1-.74,.52-4.89,4.84-11.29,5.43-8.05,14.51-9.26,22.69-3.75,8.26,5.57,10.27,13.84,4.59,22.27-1.49,2.2-3.14,3.74-4.14,5.22-.89,1.31-1.39,2.7-2.1,3.76-.4,.59-.85,.72-1.28,.43-.8-.54,.06-1.19,.39-2.14,.58-1.58,.15-1.87-1.67-3.1Zm1.34-4.64c2.92,1.97,4.37,2.21,6.08-.34,3.66-5.42,1.28-12.14-6.34-17.29-7.16-4.83-14.7-4.8-18.22,.41-1.97,2.92-1.44,3.78,.21,4.89l18.26,12.32Zm-54.63,1.5v23.41c0,2.2,1.18,3.32,3.32,3.32s3.83-.92,5.26-2.81c1.53-2.04,2.1-3.42,2.66-3.42,.2,0,.46,.26,.46,.41,0,.05,0,.41-.05,.92l-.51,4.8c-.05,.46-.1,.72-.1,.87,0,.56-.36,.87-1.02,.87-2.15,0-6.29-.46-12.32-.46-2.66,0-4.24,.31-4.86,.31-.72,0-1.07-.31-1.07-.82,0-.97,1.02-.61,1.99-.87,1.64-.41,1.64-.92,1.64-3.12v-23.41c0-1.53-.05-2.04-1.02-2.35-1.23-.41-2.2,.1-2.2-.92,0-.41,.26-.72,.66-.72,.51,0,1.94,.41,4.7,.41,3.07,0,4.7-.41,5.21-.41,.46,0,.77,.31,.77,.72,0,.92-.92,.61-2.2,.87-1.28,.26-1.33,.77-1.33,2.4Zm-25.06,4.55c-.1-.31-.2-.46-.31-.46s-.26,.15-.31,.41l-2.4,9.05c-.05,.26-.05,.46-.05,.51,0,.15,.15,.31,.36,.31h5.11c.2,0,.46-.2,.46-.41,0-.15-.05-.31-.1-.51l-2.76-8.89Zm2.5-7.05l7.72,24.33c.72,2.35,1.18,3.73,2.5,4.6,.97,.66,1.89,.51,1.89,1.12,0,.56-.31,.72-1.07,.72-.87,0-2.25-.31-4.29-.31-2.86,0-4.6,.26-5.26,.26-.61,0-.87-.15-.87-.61s.41-.82,1.02-.82c1.69,0,2.1-.31,2.1-1.23,0-.46-.15-1.23-.46-2.3l-1.99-6.54c-.1-.36-.36-.41-.77-.41h-6.34c-.2,0-.51,.2-.56,.46l-1.23,4.55c-.51,1.99-.77,3.32-.77,3.94,0,1.02,.41,1.23,1.33,1.38,1.38,.2,2.04,.36,2.04,1.12,0,.46-.31,.61-.87,.61-.72,0-2.25-.31-4.45-.31-1.48,0-2.66,.26-3.37,.26-.61,0-.92-.26-.92-.66,0-1.07,1.53-.41,2.56-1.18,.92-.66,1.28-1.94,1.84-3.78l8.13-26.38c.26-.77,.31-1.23,.87-1.23,.72,0,.77,.97,1.23,2.4Zm-24.53,14.21c1.07,.77,1.53,1.89,2.1,3.22l2.96,7.05c1.18,2.76,1.74,4.29,2.4,4.55,1.12,.46,2.15,.41,2.15,1.18,0,.46-.26,.51-.87,.51-.87,0-1.94-.15-3.12-.15-.77,0-1.48,.15-2.25,.15-1.02,0-1.12-.56-1.58-1.69l-4.6-11.6c-.72-1.79-1.28-2.3-2.86-2.3h-.51c-.41,0-.66,.31-.66,.72v10.07c0,1.99,.05,3.22,2.25,3.22,.82,0,1.12,.26,1.12,.87,0,.41-.41,.72-1.02,.72-.51,0-1.99-.31-4.65-.31s-4.24,.31-4.86,.31c-.72,0-1.07-.31-1.07-.82,0-.97,1.02-.61,1.99-.87,1.64-.41,1.64-.92,1.64-3.12v-23.41c0-1.64-.1-2.04-1.12-2.35-1.33-.36-2.4,.1-2.4-.92,0-.66,.46-.72,1.38-.72,.41,0,1.58,.2,3.37,.2,2.56,0,5.01-.31,7.31-.31,5.47,0,8.38,3.17,8.38,7.92,0,4.09-2.1,7.1-5.47,7.87Zm-6.85-1.84c0,1.07,.61,1.18,2.35,1.18,3.48,0,5.32-2.25,5.32-6.49s-1.79-6.95-5.11-6.95c-2.35,0-2.56,.87-2.56,2.56v9.71Zm-12.14-14.57l-.31,6.75c-.05,1.12-.2,1.43-.72,1.43-.92,0-.87-1.43-1.48-3.42-.92-2.2-2.4-2.5-5.52-2.5h-.82c-.41,0-.66,.46-.66,.82v25.05c0,2.15,.05,2.61,1.38,3.07,1.18,.41,2.25-.1,2.25,1.02,0,.41-.36,.72-1.07,.72-1.07,0-2.71-.36-4.86-.36s-3.78,.36-4.86,.36c-.72,0-1.07-.31-1.07-.82,0-1.02,1.12-.56,2.25-.92,1.33-.41,1.38-.87,1.38-3.07v-24.89c0-.41-.26-.97-.66-.97h-1.43c-2.1,0-3.32,.82-4.6,2.45-1.23,2.04-1.69,3.27-2.5,3.27-.36,0-.56-.05-.56-.72,0-.05,.1-.46,.2-.87l1.28-5.21c.36-1.53,.36-2.61,1.02-2.61,.61,0,.56,1.69,1.18,1.74,.36,.36,1.18,.46,2.4,.46,.97,0,2.2-.05,3.68-.05h6.29c1.69,0,3.02,.1,3.99,.1,.77,0,1.33-.05,1.64-.26,.92-.56,1.12-2.04,1.64-2.04,.41,0,.56,.61,.56,.92v.56Zm-45.72,8.69c0-5.26,3.48-8.89,9.05-8.89,2.86,0,5.37,.97,5.83,1.58,.26,.31,.41,2.2,.41,5.57,0,.72-.26,1.07-.66,1.07-.72,0-.77-.97-1.48-2.71-1.07-2.71-2.15-4.19-4.55-4.19-3.02,0-4.91,2.04-4.91,5.26,0,2.71,1.53,4.19,4.75,5.88,5.47,2.86,8.54,5.47,8.54,11.25s-4.14,10.38-9.87,10.38c-4.5,0-7.56-1.48-7.56-4.4,0-1.18,.1-2.25,.1-3.22,0-.77-.05-1.23-.05-1.33,0-1.07,.31-1.58,.77-1.58,.92,0,.66,1.64,1.23,3.58,1.02,3.42,3.53,5.47,6.13,5.47,3.07,0,5.52-2.61,5.52-6.13,0-3.12-1.94-5.52-5.83-7.72-4.14-2.35-7.41-3.88-7.41-9.87Zm-24.64-3.99v17.84c0,6.24,1.23,9.51,6.64,9.51,2.71,0,4.75-.97,5.98-2.71,1.23-1.84,1.28-4.29,1.28-7.82v-12.37c0-3.88-.05-5.88-.92-6.59-.92-.72-2.76,0-2.76-1.12,0-.46,.31-.72,.87-.72,.61,0,1.74,.15,3.48,.15,1.84,0,3.02-.15,3.53-.15,.72,0,1.07,.2,1.07,.72,0,.61-.46,.72-1.48,.72-2.15,0-2.25,1.74-2.25,6.85v12.57c0,3.53-.05,6.18-1.38,8.48-1.43,2.45-4.29,3.83-8.23,3.83-4.34,0-7.26-1.12-9-3.68-1.38-1.99-1.48-4.45-1.48-7.57v-17.94c0-1.69-.05-2.04-1.12-2.35-1.33-.41-2.35,.1-2.35-.92,0-.41,.31-.72,.77-.72,.51,0,2.15,.41,5.06,.41s4.55-.41,5.06-.41,.77,.31,.77,.72c0,1.07-1.18,.56-2.4,.92-1.02,.31-1.12,.72-1.12,2.35Zm-23.27,4.55c-.1-.31-.2-.46-.31-.46s-.26,.15-.31,.41l-2.4,9.05c-.05,.26-.05,.46-.05,.51,0,.15,.15,.31,.36,.31h5.11c.2,0,.46-.2,.46-.41,0-.15-.05-.31-.1-.51l-2.76-8.89Zm2.5-7.05l7.72,24.33c.72,2.35,1.18,3.73,2.5,4.6,.97,.66,1.89,.51,1.89,1.12,0,.56-.31,.72-1.07,.72-.87,0-2.25-.31-4.29-.31-2.86,0-4.6,.26-5.26,.26-.61,0-.87-.15-.87-.61s.41-.82,1.02-.82c1.69,0,2.1-.31,2.1-1.23,0-.46-.15-1.23-.46-2.3l-1.99-6.54c-.1-.36-.36-.41-.77-.41h-6.34c-.2,0-.51,.2-.56,.46l-1.23,4.55c-.51,1.99-.77,3.32-.77,3.94,0,1.02,.41,1.23,1.33,1.38,1.38,.2,2.04,.36,2.04,1.12,0,.46-.31,.61-.87,.61-.72,0-2.25-.31-4.45-.31-1.48,0-2.66,.26-3.37,.26-.61,0-.92-.26-.92-.66,0-1.07,1.53-.41,2.56-1.18,.92-.66,1.28-1.94,1.84-3.78l8.13-26.38c.26-.77,.31-1.23,.87-1.23,.72,0,.77,.97,1.23,2.4Zm-68.51,25.92v-23.77c0-1.07-.2-1.64-1.07-1.64-.77,0-1.33,.46-1.94,.46-.31,0-.56-.31-.56-.77,0-1.33,4.34-2.3,12.06-2.3,9.71,0,15.79,6.85,15.79,16.71s-5.72,16.25-15.9,16.25c-2.66,0-4.86-.51-6.64-.51-1.58,0-3.02,.36-4.29,.36-.72,0-1.07-.31-1.07-.82,0-.97,1.02-.61,1.99-.87,1.64-.41,1.64-.92,1.64-3.12Zm4.6-1.48c0,3.53,.61,4.86,3.68,4.86,6.54,0,10.79-5.72,10.79-14.93,0-8.64-4.24-14.87-10.53-14.87-3.53,0-3.94,.92-3.94,2.91v22.03Zm-25.06-17.38c-.1-.31-.2-.46-.31-.46s-.26,.15-.31,.41l-2.4,9.05c-.05,.26-.05,.46-.05,.51,0,.15,.15,.31,.36,.31h5.11c.2,0,.46-.2,.46-.41,0-.15-.05-.31-.1-.51l-2.76-8.89Zm2.5-7.05l7.72,24.33c.72,2.35,1.18,3.73,2.5,4.6,.97,.66,1.89,.51,1.89,1.12,0,.56-.31,.72-1.07,.72-.87,0-2.25-.31-4.29-.31-2.86,0-4.6,.26-5.26,.26-.61,0-.87-.15-.87-.61s.41-.82,1.02-.82c1.69,0,2.1-.31,2.1-1.23,0-.46-.15-1.23-.46-2.3l-1.99-6.54c-.1-.36-.36-.41-.77-.41h-6.34c-.2,0-.51,.2-.56,.46l-1.23,4.55c-.51,1.99-.77,3.32-.77,3.94,0,1.02,.41,1.23,1.33,1.38,1.38,.2,2.04,.36,2.04,1.12,0,.46-.31,.61-.87,.61-.72,0-2.25-.31-4.45-.31-1.48,0-2.66,.26-3.37,.26-.61,0-.92-.26-.92-.66,0-1.07,1.53-.41,2.56-1.18,.92-.66,1.28-1.94,1.84-3.78l8.13-26.38c.26-.77,.31-1.23,.87-1.23,.72,0,.77,.97,1.23,2.4Zm-47.32,16.62l10.42-21.36c.47-.96,.53-1.56-.25-1.94-.69-.34-1.4-.17-1.95-.44-.28-.13-.37-.52-.17-.94,.58-1.19,4.91-.16,11.85,3.22,8.73,4.26,11.19,13.08,6.87,21.95-4.37,8.96-12.27,12.1-21.41,7.64-2.39-1.17-4.14-2.59-5.75-3.37-1.42-.69-2.87-1-4.02-1.56-.64-.31-.83-.75-.61-1.21,.43-.87,1.19-.1,2.17,.09,1.65,.35,1.87-.11,2.84-2.09Zm4.78,.68c-1.55,3.17-1.58,4.63,1.18,5.98,5.88,2.87,12.2-.42,16.24-8.69,3.79-7.76,2.71-15.23-2.94-17.98-3.17-1.55-3.94-.9-4.81,.89l-9.66,19.8Zm-2.63-31.83l-19.85,12.4c-1.82,1.14-2.23,1.45-1.87,2.8,.32,1.19,1.28,1.85,.32,2.45-.35,.22-.8,.08-1.18-.53-.33-.52-.9-2.03-2.31-4.28-1.41-2.25-2.51-3.44-2.83-3.96-.38-.61-.31-1.07,.12-1.34,.82-.51,1.06,.54,1.79,1.23,1.21,1.17,1.65,.9,3.51-.27l19.85-12.4c1.39-.87,1.68-1.17,1.4-2.2-.4-1.32-1.36-1.98-.49-2.52,.35-.22,.74-.16,1.01,.27,.27,.43,.79,2.04,2.33,4.51,1.54,2.47,2.73,3.6,3.03,4.07,.24,.39,.15,.81-.2,1.03-.78,.49-1.01-.46-1.9-1.4-.89-.95-1.35-.72-2.74,.15Zm-10.73-25.24c5.17-1,9.39,1.71,10.46,7.18,.55,2.81,.07,5.45-.44,6.02-.25,.31-2.08,.82-5.39,1.46-.7,.14-1.1-.05-1.18-.45-.14-.7,.81-.94,2.38-1.97,2.45-1.57,3.7-2.91,3.25-5.27-.58-2.96-2.94-4.43-6.1-3.81-2.66,.52-3.82,2.3-4.86,5.79-1.77,5.92-3.74,9.42-9.41,10.53-5.87,1.14-10.98-2.08-12.07-7.7-.86-4.42,.01-7.71,2.87-8.26,1.15-.22,2.23-.33,3.18-.51,.75-.15,1.19-.28,1.29-.3,1.05-.2,1.61,0,1.7,.45,.18,.9-1.48,.96-3.28,1.89-3.17,1.66-4.7,4.51-4.2,7.06,.59,3.01,3.61,4.92,7.07,4.25,3.06-.6,5.05-2.96,6.46-7.19,1.52-4.51,2.4-8.02,8.27-9.16Zm-6.5-13.3c-.77,1.07-1.89,1.53-3.22,2.1l-7.05,2.96c-2.76,1.18-4.29,1.74-4.55,2.4-.46,1.12-.41,2.15-1.18,2.15-.46,0-.51-.26-.51-.87,0-.87,.15-1.94,.15-3.12,0-.77-.15-1.48-.15-2.25,0-1.02,.56-1.12,1.69-1.58l11.6-4.6c1.79-.72,2.3-1.28,2.3-2.86v-.51c0-.41-.31-.66-.72-.66h-10.07c-1.99,0-3.22,.05-3.22,2.25,0,.82-.26,1.12-.87,1.12-.41,0-.72-.41-.72-1.02,0-.51,.31-1.99,.31-4.65s-.31-4.24-.31-4.86c0-.72,.31-1.07,.82-1.07,.97,0,.61,1.02,.87,1.99,.41,1.64,.92,1.64,3.12,1.64h23.41c1.64,0,2.04-.1,2.35-1.12,.36-1.33-.1-2.4,.92-2.4,.66,0,.72,.46,.72,1.38,0,.41-.2,1.58-.2,3.37,0,2.56,.31,5.01,.31,7.31,0,5.47-3.17,8.38-7.92,8.38-4.09,0-7.1-2.1-7.87-5.47Zm1.84-6.85c-1.07,0-1.18,.61-1.18,2.35,0,3.48,2.25,5.32,6.49,5.32s6.95-1.79,6.95-5.11c0-2.35-.87-2.56-2.56-2.56h-9.71Zm12.12-14.24h-4.4c-.87,0-1.28-.1-1.28-.56,0-.92,2.15-.66,3.83-2.5,1.28-1.38,1.94-3.42,1.94-6.24s-.72-2.86-3.12-2.86h-8.43c-.87,0-1.02,0-1.02,.92v2.3c0,2.1,.46,3.83,.92,4.29,1.33,1.38,3.12,.72,3.12,1.79,0,.46-.2,.61-.72,.61-1.28,0-3.02-.26-5.06-.26-2.4,0-3.89,.15-4.34,.15-.61,0-.92-.26-.92-.61,0-.87,1.58-.66,3.58-1.74,1.53-.82,1.69-2.15,1.69-4.29v-2.25c0-.72-.2-.92-.92-.92h-10.53c-2.81,0-3.27,.66-3.27,3.68,0,3.17,.41,4.86,2.91,6.44,1.89,1.23,3.53,1.64,3.53,2.45,0,.2-.31,.51-.46,.51,0,0-.36-.05-.92-.1l-4.96-.56c-1.58-.15-1.79-.1-1.79-1.58,0-2.1,.41-6.49,.41-13.03,0-3.02-.26-4.6-.26-5.01,0-.77,.26-1.12,.82-1.12,.92,0,.61,.92,.82,2.2,.2,1.48,1.18,1.53,3.17,1.53h23.41c1.53,0,2.04,0,2.35-.97,.36-1.12-.1-2.2,.92-2.2,.46,0,.72,.31,.72,.87,0,.41-.2,2.91-.2,7.62,0,5.98,.2,9.35,.2,10.02,0,1.38-.46,1.43-1.53,1.43h-.2Zm-2.6-25.99l-27.35-8.95c-.61-.2-.92-.41-.92-.66,0-.46,1.07-.66,2.35-1.12l23.92-8.23c2.56-.87,4.14-1.33,4.65-2.35,.36-.72,.05-2.04,.82-2.04,.46,0,.77,.26,.77,.82,0,.31-.31,2.35-.31,6.39,0,1.58,.26,2.76,.26,3.32,0,.51-.15,.72-.61,.72-1.43,0-.15-2.61-2.2-2.61-.51,0-1.23,.15-2.15,.46l-16.41,5.67c-.77,.26-1.12,.41-1.12,.61s.41,.41,1.12,.61l14.93,4.4c1.58,.46,2.71,.66,3.32,.66,2.61,0,1.12-3.02,2.61-3.02,.41,0,.72,.36,.72,.97,0,.51-.31,1.69-.31,3.58,0,2.1,.2,3.27,.2,3.53,0,.66-.2,.97-.66,.97-1.02,0-.51-1.23-.92-2.04-.41-.82-1.33-1.23-2.71-1.69Zm.36-29.15h-23.41c-2.15,0-2.66,.05-3.07,1.38-.36,1.18,.1,2.25-1.02,2.25-.41,0-.72-.36-.72-1.07,0-.61,.31-2.2,.31-4.86s-.31-4.24-.31-4.86c0-.72,.31-1.07,.82-1.07,.97,0,.61,1.02,.87,1.99,.41,1.64,.92,1.64,3.12,1.64h23.41c1.64,0,2.04-.1,2.35-1.12,.36-1.33-.1-2.4,.92-2.4,.41,0,.72,.26,.72,.77s-.41,2.15-.41,5.06,.41,4.5,.41,5.06c0,.46-.31,.77-.72,.77-.92,0-.61-.92-.87-2.2-.26-1.28-.77-1.33-2.4-1.33Zm3.99-39.54v6.54c0,.46-.05,.56-.51,.87l-22.23,13.7c-.05,.2,.2,.31,.51,.31h14.01c1.43,0,2.3-.05,2.61-.05,3.68,0,4.14-.15,4.14-2.96,0-.51,.31-.92,.72-.92,.46,0,.77,.51,.77,1.33,0,.92-.15,2.04-.15,3.53s.15,2.45,.15,3.17-.31,1.12-.77,1.12c-.56,0-.66-.2-.66-.87v-.51c0-1.79-1.64-1.94-5.37-1.94h-25.51c-.66,0-1.28-.36-1.28-.77,0-.36,.31-.66,.82-.97l27.4-16.82c.05-.2-.2-.31-.51-.31h-19.88c-3.83,0-4.96,.2-4.96,2.25,0,.31,.05,.61,.05,.92,0,.41-.31,.72-.82,.72-.46,0-.77-.46-.77-1.33,0-.92,.2-2.1,.2-3.53,0-1.28-.2-2.35-.2-3.27,0-.82,.31-1.23,.77-1.23,.56,0,.82,.26,.82,.97v.46c0,2.1,1.43,2.25,5.42,2.25h21.26c1.53,0,2.04-.05,2.35-1.02,.36-1.23-.05-2.35,.92-2.35,.46,0,.72,.26,.72,.72Zm-3.98-24.08h-17.84c-6.24,0-9.51,1.23-9.51,6.65,0,2.71,.97,4.75,2.71,5.98,1.84,1.23,4.29,1.28,7.82,1.28h12.37c3.88,0,5.88-.05,6.59-.92,.72-.92,0-2.76,1.12-2.76,.46,0,.72,.31,.72,.87,0,.61-.15,1.74-.15,3.48,0,1.84,.15,3.02,.15,3.53,0,.72-.2,1.07-.72,1.07-.61,0-.72-.46-.72-1.48,0-2.15-1.74-2.25-6.85-2.25h-12.57c-3.53,0-6.18-.05-8.48-1.38-2.45-1.43-3.83-4.29-3.83-8.23,0-4.34,1.12-7.26,3.68-9,1.99-1.38,4.45-1.48,7.57-1.48h17.94c1.69,0,2.04-.05,2.35-1.12,.41-1.33-.1-2.35,.92-2.35,.41,0,.72,.31,.72,.77,0,.51-.41,2.15-.41,5.06s.41,4.55,.41,5.06-.31,.77-.72,.77c-1.07,0-.56-1.18-.92-2.4-.31-1.02-.72-1.12-2.35-1.12Zm209.19,2.13c-2.63,9.4,5.01,.19,7.9,.14-1.3-2.56-6.42-.99-7.9-.14Zm97.5,42.3c2.35,2.56-6.95-15.78-12.35-17.12-15.26-3.79-18.03,13.32-17.65,25.71,.11,3.66-2.83,5.63-5.06,6-7.88,1.31-14.17,7.85,2.42,1.47,8.17,0,1.36-3.92,4.71-11.41,2.47-5.53,15.03-11.26,15.03-11.2,0,.06,8.57,1.82,12.91,6.55Zm-73.74-23.13c1.69,6.95-9.02,6.35-7.98,13.99,.99,7.21,15.1,10.87,12.8,17.77-.38,1.13-18.49-.31-12.19,4.33,6.76-2.82,14.64-.75,15.8,.48,.87-.52,1.75-.76,1.75-1.8,0-3.1-3.4-8.02-6.82-11.84-3.08-3.43,3.06-10.66,8.27-14.67,5.49-3.9-8.4-17.08-11.63-8.26Zm-22.47,5.8c-1.73,.89-1.28,8.74,7.38-1.39,1.08-1.26,2.18-1.55,3.81-1.91,3.39-.73,7.24-6.74,3.85-10.39-.24-.38-2.73-1.37-2.63-1.13,.04,.1-2.26-3.03-2.95-4.07l-.69,.17c4.32,3.32-.28,10.19-2.53,4.82-.34-.8-2.41,6.4-3.19,6.1l-5.18,4.84c4.43-.33,3.59,2.2,2.15,2.95Zm96.51,32.91c1.38-3.44,1.18-5.79,1.18-5.79,0,0-2.05,4.65-4.66,7.33-2.6,2.67-4.33,2.06-5.93,2.09-.87-1.11-1.69-2.18-4.37-1.69-2.94,.53-4.38,1.32-6.6,3.46,0,0,5-4.22,7.81-1.75,.47,.41,.57,.77,1.17,1.05,.08,.19,.23,.45,.46,.8,4.12,.44,8.93-1.27,10.94-5.5Zm-94.9-28.03c-1.4,.66-3.03,.98-4.74,.98-5.65,0-10.23-3.93-10.23-8.79,0-.57,2.52-1.3,2.64-1.84l2.48-9.77s-.08-1.54,.06-2.66c.14-1.12,.59-1.75,.59-1.75-10.48-4.13-5.17-15.3-3.93-17.02,1.12-1.56-.16,7.28,3.62,8.6,2.19,.77,3.71,.7,4.71,.66,0,0,4.48-1.81,7.69-1.6,3.22,.21,7.05,3.19,7.37,2.77,10.06,.78,8.35-9.77,10.05-10.28,.94-.28,3.66,12.39-.38,14.03l15.45,7.63s15.36,1.75,32.04,7.32c5.02,1.68,12.92-.6,16.96,1.88,3.39,2.08,9.76,9.39,9.76,9.39,3.98,4.61,7.3,17.5,5.8,24.69-2.89,13.86-14.07,14.32-16.22,14.3-1.88,3.14-4.42,2.14-8.92,1.63-7.68-.24-13.37,0-21.91-.03-4.39,0-1.82-4.73-3.1-4.73h-48.76c-3.41,0-1.73-3.03-.87-6.13,.92-3.28,.09-5.13,3.23-6.43,2.26-.94,1.09-.77,2.14-3.13,.73-1.63,1.17-2.85-.56-6.19-1.73-3.35-2.96-4.22-3.24-6.04-.49-3.15,.24-8.7-1.68-7.51l-.06,.02Zm-14.1,62.03c-2.63,9.4,5.01,.19,7.9,.14-1.3-2.56-6.42-.99-7.9-.14Zm98.31,40.89c2.35,2.56-6.95-15.78-12.35-17.12-15.26-3.79-18.03,13.32-17.65,25.71,.11,3.66-2.83,5.63-5.06,6-7.88,1.31-14.17,7.85,2.42,1.47,8.17,0,1.36-3.92,4.71-11.41,2.47-5.53,15.03-11.26,15.03-11.2s8.57,1.82,12.91,6.55Zm-73.74-23.13c1.69,6.95-9.02,6.35-7.98,13.99,.99,7.21,15.1,10.87,12.8,17.77-.38,1.13-18.49-.31-12.19,4.33,6.76-2.82,14.64-.75,15.8,.48,.87-.52,1.75-.76,1.75-1.8,0-3.1-3.4-8.02-6.82-11.84-3.08-3.43,3.06-10.66,8.27-14.67,5.49-3.9-8.4-17.08-11.63-8.26Zm-22.93,6.84c-1.73,.89-1.28,8.74,7.38-1.39,1.08-1.26,2.18-1.55,3.81-1.91,3.39-.73,7.24-6.74,3.85-10.39-.24-.38-2.73-1.37-2.63-1.13,.04,.1-2.26-3.03-2.96-4.07l-.69,.17c4.32,3.32-.28,10.19-2.53,4.82-.34-.8-2.41,6.4-3.19,6.1l-5.18,4.84c4.43-.33,3.59,2.2,2.15,2.95Zm96.51,32.91c1.38-3.44,1.18-5.79,1.18-5.79,0,0-2.05,4.65-4.66,7.33-2.6,2.67-4.33,2.06-5.93,2.09-.87-1.11-1.69-2.18-4.37-1.69-2.94,.53-4.38,1.32-6.6,3.46,0,0,5-4.22,7.81-1.75,.47,.41,.57,.77,1.17,1.05,.08,.19,.23,.45,.46,.8,4.12,.44,8.93-1.27,10.94-5.5Zm-94.9-28.03c-1.4,.66-3.03,.98-4.74,.98-5.65,0-10.23-3.93-10.23-8.79,0-.57,2.52-1.3,2.64-1.84l2.48-9.77s-.08-1.54,.06-2.66c.14-1.12,.6-1.75,.6-1.75-10.48-4.13-5.17-15.3-3.93-17.02,1.12-1.56-.16,7.28,3.62,8.6,2.19,.77,3.71,.7,4.71,.66,0,0,4.47-1.81,7.69-1.6,3.22,.21,7.05,3.19,7.37,2.77,10.06,.78,8.35-9.77,10.05-10.28,.94-.28,3.66,12.39-.38,14.03l15.45,7.63s15.36,1.75,32.04,7.32c5.02,1.68,12.92-.6,16.96,1.88,3.39,2.08,9.76,9.39,9.76,9.39,3.98,4.61,7.3,17.5,5.8,24.69-2.89,13.86-14.07,14.32-16.22,14.3-1.88,3.14-4.42,2.14-8.92,1.63-6.26-.18-13.37,0-21.91-.03-4.39,0-1.82-4.73-3.1-4.73h-48.76c-3.41,0-1.73-3.03-.87-6.13,.92-3.28,.09-5.13,3.23-6.43,2.26-.93,1.09-.77,2.14-3.13,.73-1.63,1.17-2.85-.56-6.19-1.73-3.35-2.96-4.22-3.24-6.04-.49-3.15,.24-8.7-1.68-7.51l-.06,.02Zm-109.25-247.98h10.22c.76,0,1.38,.62,1.38,1.38v10.22c0,.76-.62,1.38-1.38,1.38l-1.35-2.14h-7.93s0-7.82,0-7.82l-2.32-1.65c0-.76,.62-1.38,1.38-1.38Zm-23.72,13.62l-3.6-1.23h-2.02v-4.78l-1.59-3.4c0-.43,.24-.81,.53-.85l6.68-2.1c.29-.04,.53,.28,.53,.72v10.78c0,.43-.24,.81-.53,.85Zm254.79,242.33v-147.13h-149.82v192.2h104.76c24.89,0,45.06-20.18,45.06-45.06Zm0-152.98V134.13h-149.82v178.87c6.87-2.34,30.16-6.39,50-8.24,5.09-7.53,10.14-17.6,7.16-30.09-2.5,.02-1.81,1.81-4.41,1.81-2.59,0-.97,.54-3.56,.54-1.3,0-1.69,.04-2.08,0-.39-.04-.76-.15-2.03-.44-2.53-.57-1.05-2.8-3.58-3.37-2.53-.57-.84-.39-2.97-1.87-2.13-1.48-2.43,.84-4.56-.64-1.05-.73-1.38-.95-1.63-1.24-.25-.3-.4-.68-1.12-1.77-1.43-2.16-2.35-.26-3.78-2.42-1.43-2.16-2-1.78-2.51-4.32-.51-2.54-.27-5.05-.78-7.59-.51-2.54,.74-2.04,1.18-4.6,.44-2.55-.9-1.27-.46-3.82,.44-2.55,2.36-.62,3.62-2.89,1.26-2.27-1.42-1.9-.16-4.17,1.26-2.27,2.56,.6,4.48-1.14s-1.21-2.74,.71-4.48c1.92-1.74,4.28-10.49,3.49-12.96-.79-2.47,.93-1.77,1.4-4.32,.47-2.55,2.27-.93,2.74-3.48,.47-2.55-1.93-1.88-.61-4.11,1.33-2.23,3.26,.57,4.59-1.66,1.33-2.23-.77-1.28,1.23-2.92,2.01-1.64,1.18-.4,3.19-2.04,2.01-1.64-.53-2.82,1.91-3.67,2.38-.82,.93-1.36,3.08-2.17-.8-2.71-.16-.66-.89-3.15-.73-2.49,2.49-1.2,1.77-3.68-.73-2.49-.39-.36-1.11-2.84-.73-2.49-1.74-1.15-1.23-3.69,.51-2.54,3.69-4.2,5.14-6.35,1.45-2.15,2.27-5.29-.82-5.91,1.45-2.15,.85-2.42,3-3.86,2.15-1.45,3.42,2.26,5.57,.81,2.15-1.45,.04-4.46,2.58-4.97,2.54-.51,2.38,3.11,4.92,2.59,2.54-.51,1.11-.24,3.65,.27,2.54,.51,1.53,1.11,4.07,1.62,2.54,.51,2.41-2.55,4.56-1.1,2.15,1.45,1.61,.42,3.76,1.87,2.15,1.45-.79,2.69,.66,4.84,1.45,2.15,1.01,1.21,2.46,3.36,1.45,2.15,3.81,.02,4.33,2.56,.51,2.54-.99,1.95-.48,4.49,.51,2.54,1.5,1.25,.77,3.73-.73,2.49,.16,.52-.57,3-.73,2.49,.48,6.46,2.93,7.31,2.45,.85,.93,1.5,2.94,3.14,2.01,1.64,1.07,.54,3.07,2.18,2.01,1.64-.83,1.98,.5,4.2,1.33,2.23,2.25,.04,3.58,2.27,1.33,2.23-1.62,1.49-1.15,4.04,.47,2.55,3.15,.77,3.61,3.32,.47,2.55,.69,1.33-.11,3.8-.79,2.47-1.57,.27-2.37,2.73-.79,2.47-.38,.65-1.17,3.12-.76,2.37,1.22,1.31,.66,3.42,.31-.17,.75-.22,1.36,.04,2.38,1.03-.67,4.08,1.71,5.1,2.38,1.03,2.09-1.73,4.01,0,1.92,1.74,1.15,.13,3.08,1.87,1.92,1.74,.22,1.36,1.48,3.63,1.26,2.27,1.27,.4,2.53,2.67,1.26,2.27,1.35,1.1,1.79,3.66,.44,2.55-1.08,1.3-.64,3.86,.44,2.55,2.45,1.81,1.96,4.36-.49,2.55-3.88,4.22-4.37,6.77-.49,2.55,1.17,1.76-.22,3.95-1.39,2.19-1.86,.45-3.25,2.64-1.39,2.19-.7,.37-2.78,1.91-2.08,1.55,.04,2.35-2.04,3.9-2.08,1.55-1.06,.83-3.56,1.51-2.5,.68-1.85-1.18-4.35-.5-2.5,.68-.64,3.78-3.23,3.78-2.59,0-.97-1.54-3.57-1.54-2.59,0-.97,.94-3.56,.94-2.59,0-.97-.79-3.56-.78-2.59,0,.24-1.7-2.36-1.69-.54,0-1.31,.41-1.56,.6-2.56,11.98,1.69,22.04,6.51,29.51,23.97,1.34,38.32,4.27,55.27,8.76Zm-153.67-178.88h-147.1l-.03,179.3c6.15-2.32,23.92-5.62,23.92-5.62l6.93-66.07c-.68-.37-1.71-1.4-1.62-2.51,.09-1.16,2.13-2.09,2.13-2.09l4.68-43.31c0-.31,.4-.51,.4-.52,1-.3,7.46-1.74,7.7-1.7,1.55,.21,2.52,.46,3.44,.61,.55,.11,.66,.27,.71,.58,0,.05,1.1,6.34,1.12,6.26,1.65-.23,3.15-.41,4.4-.58,.06-.35,.72-8.22,1.15-8.62,.2-.25,.57-.17,4.27-.47,.03-.84,.05-39.82,.03-40.86-1.35-.26-1.78-1.39-1.82-2.15-.04-.64,.56-2.25,2.24-2.25,.25,.01,.94,.09,1.42,.54-.65-.44-2.26-.2-2.31,1.4-.02,.46,.54,1.56,1.57,1.56,.88,0,1.41-.67,1.51-1.16-.05,1.2-.98,1.83-1.51,1.99,.08,.69,1.89,40.44,1.91,40.68,1.88-.12,4.62-.36,5.03-.33,.52,.04,1.98,.66,2.57,.79,.31,1.79,.6,3.95,.93,5.62,.8-.13,6.24-.59,7.53-.6,.23-1.75,.51-4.43,.65-5.38,.07-.38,.38-.44,.63-.44,.58,0,10.98,.83,11.55,.9,.41,.03,.53,.26,.58,.72,.14,1.18,.3,3.45,.51,4.75,1.24,.16,6.75,.77,6.73,.77-.02-.01,.37-3,.53-3.79,.34-.1,1.34-.49,2.15-.64,2.5,.54,5.27,1.21,7.17,1.66,.16,.07,2.61,.66,2.66,.95,0,0-1.72,3.37-1.07,8.57l4.41,35.28s1.9,.64,2.03,2.01c.06,.67-.78,1.82-1.75,2.27l8.3,65.89s17.67,3.68,23.7,4.98V134.13Zm157.52,331.86c0,27.01-21.9,48.91-48.91,48.91h-210.69c-27.02,0-48.92-21.9-48.92-48.91l.05-335.71h308.46V466ZM321.52,199.24l1.5,.11-1.07-5.73-1.24-.29,.81,5.91Zm23.04-1.68l-1.05-6.99-1.24-.33,.81,7.28,1.47,.05Zm-25.26-4.2c-2.43,1.11-3.12,1.9-4.05,3.3-1.32,1.99-1.77,12.51-1.86,14.63-.1,2.42,.05,1.54-.17,3.92-.22,2.38-.42,4.96-.64,7.34-.22,2.38,.55,.17,.32,2.55-.22,2.38-.58,1.07-.8,3.45-.22,2.38,1.34,.8,1.11,3.18-.13,1.42,1.38,1.72,.9,3.15,0,1.21,2.05,.73,3.02,.88,8.57-1.04,20.53-1.87,34.54-1.59,12.89,.05,29.1,1.66,34.49,2.78-.39-5.52-1.3-12.21-1.3-12.21l-4.32-1.87-.58-10.18c0-.76,.63-1.27,1.39-1.15l2.63,.75c-.17-4.87-1.37-16.4-1.66-17.44-1.56-.35-4.93-1.26-6.01-1.46-.09,.46-.7,5.01-1.01,7.47-.04,.33-.24,.54-.71,.47-2.15-.38-6-.98-8.3-1.31-.38-.1-.79-.26-.85-.58-.16-1.28-.63-7.72-.73-7.77-.1-.06-5.96-.67-9.34-.94-.13,1.51-.71,5.4-.97,7.46-.06,.37-.7,.75-1.09,.75-3.15,.14-10.6,.22-11.64,.22-.48-6.79-6.27-8.23-7.76-8.15-.76,.04-1.68,.07-2.84,.17-.14,1.28-.74,7.18-.89,8.24-.03,.24-.22,.43-.51,.49-.27,.06-7.66,.42-9.16,.64-.16-.02-.55-4.19-1.2-7.17Zm30.05,112.19c-1.81-29.22,29.32-28.78,27.7,.63,0,0,14.17,1.82,14.69,1.67,1.14-.33,1.28-1.66,1.12-2.83-.1-.72-1.02-12.71-.98-13.27,.1-1.59-5.53-51.58-5.53-51.58-6.38-1.91-24.68-2.46-36.07-2.59-.3,.05-.64,.08-1.04,.08-7.44,.09-25.55,.96-34.64,2.35,0,0-1.96,1.25-2.15,4.31-.09,1.03-1.74,2.71-1.94,5.09-.2,2.38,.8,3.12,.6,5.49-.2,2.38,.57-.13,.37,2.25-.2,2.38-1.07,5.44,1.17,6.28,1.39,.52,2.48,2.52-.77,2.93-.57,.2-.99,.05-1.01,.48-.11,2.38,1.19,2.71,1.08,5.09-.11,2.38-.93,.92-1.04,3.31-.04,.89,1.06,4.61-.22,5.1-.22,.41-.11,2.66-.12,3.11-.01,.72,2.79,4.05,2.39,5-.56,1.34,.96,2.7,1.73,2.41,1.16-.43,6.42,2.44-.34,3.24-.74,.31-1.08,.74-.83,1.36,.88,2.22,1.8-.05,3.47,1.66,1.66,1.71-.32,2.69,1.35,4.4,1.66,1.71,2.48-.32,4.73,.49,2.25,.81,1.63,3.11,3.88,3.91,.86,.31,22.31-.53,22.43-.37Zm181.73-75.7c-.61-.26-1.05-.22-1.36-.04,.56-2.11-1.43-1.05-.66-3.42,.79-2.47,.38-.65,1.17-3.12,.79-2.47,1.57-.27,2.37-2.73,.79-2.47,.57-1.25,.11-3.8-.47-2.55-3.15-.77-3.61-3.32-.47-2.55,2.48-1.81,1.15-4.04-1.33-2.23-2.25-.04-3.58-2.27-1.33-2.23,1.51-2.56-.5-4.2-2.01-1.64-1.06-.54-3.07-2.18-2.01-1.64-.49-2.3-2.94-3.14-2.45-.85-3.66-4.82-2.93-7.31,.73-2.49-.16-.52,.57-3,.73-2.49-.26-1.19-.77-3.73-.51-2.54,.99-1.95,.48-4.49-.51-2.54-2.88-.41-4.33-2.56-1.45-2.15-1.01-1.21-2.46-3.36-1.45-2.15,1.49-3.39-.66-4.84-2.15-1.45-2.73,4.49-4.88,3.04-2.15-1.45-4.77-1.1-4.81-.53-.18,2.59-4.04-2.36-4.22,.23-.18,2.59-1.09,.54-1.38,3.11-.29,2.58-2.55,.56-2.84,3.13-.29,2.58-2.94,3.33-3.23,5.91-.29,2.58-.26,2.65-.55,5.23-.29,2.58,1.98,.86,3.48,2.98,1.5,2.12-3.93,2.22-2.44,4.33,1.5,2.12,2.08,1.36,3.57,3.48,1.5,2.12-8.44,4.53-2.17,9.05,2.1,1.52-3.81,5.96-6.96-.35-1.39-2.78-7.31,4.18-3.48,7.66,1.92,1.74,2.78,2.78-5.92,5.57-2.47,.79,2.09,6.96-4.52,8.35,0,0-2.78,6.96,2.78,5.57,6.27-2.44,3.16,.55,4.47,2.78,1.31,2.23-.97,3.68,.35,5.92,1.31,2.23-5.49,1.94-4.18,4.18,1.31,2.23,4.88,4.7,3.13,6.61-6.44,7.04,4.25,4.73,5.57,6.96,1.31,2.23,7.35,2.78,4.22,8.01-1.33,2.22,9.75,.06,10.79,2.44,1.04,2.38,6.27-3.42,7.31-1.04,1.04,2.38,7.66-4.64,8.7-2.26,1.04,2.38,7.14-1.85,8.18,.52,1.04,2.38,3.49-.11,4.53,2.26,1.04,2.38,5.58-5.51,6.61-3.13,1.04,2.38,4.7-.7,9.57-5.92,1.42-1.53,1.97-7,4-5.92,.49-2.55-2.05-4.54-2.49-7.09-.44-2.55,2.84-.02,2.4-2.57-.44-2.55-.53-1.39-1.79-3.66-1.26-2.27-1.27-.4-2.53-2.67-1.26-2.27,.44-1.88-1.48-3.63-1.92-1.74-1.15-.13-3.08-1.87-1.92-1.74-1.63,1.02-4.01,0-2.38-1.03,.67-4.08-1.71-5.1Zm-40.41,74.37l25.15,.09c-1.47-5.13-7.15-12.82-6.08-23.96-1.15-1.15-.91,.62-1.85,1-.5-.25-2.06-1.05-2.37-1.05-.29,0-.62,1.61-1.27,1.32-.73-.32-1.25-1.99-1.27-2.07,0-.03-1.33-.06-2.65,.1-.16,3.78-2.77,.54-2.6,1.34-2.34,.22-2.7-.7-2.89-.69-.38,.01-1.31,17.05-4.18,23.93Zm154.17,200.4c-.02,36.09-41.24,70.87-78.3,70.88h-119.3c-.63-.05-17.8-.92-21.29,12.18l-2.92,10.94-3.03-10.92c-3.66-13.19-19.48-12.25-19.92-12.22h-115.74c-37.18,.03-80.02-34.86-79.53-70.94V66.52s440.03,0,440.03,0V504.63Zm-6.16,0V72.67H210.96V504.63c-.43,31.77,38.68,64.74,73.37,64.72h115.53c8.52-.5,18.2,2.89,23.11,10.19,5.19-7.53,15.66-10.68,24.46-10.19h119.1c34.38,0,72.12-32.71,72.14-64.72Z" style="fill-rule: evenodd;"/>
        </g>
      </g>
    </g>
  </g>
</svg>