<?xml version="1.0" encoding="UTF-8"?>
<svg id="Layer_2" data-name="Layer 2" xmlns="http://www.w3.org/2000/svg" viewBox="0 0 2099.5 934.43">
  <g id="OKAY">
    <g id="Logo-UACh-SedePuertoMontt-Pequeno-Color-TextoNegro-RectanguloNegro">
      <rect width="2099.5" height="934.43" style="fill: none;"/>
      <g>
        <g>
          <g>
            <path d="M1015.25,244.34c0-35.83,3.9-41.7,17.6-44.96,14.33-3.25,21.48-1.95,21.48-9.77,0-5.87-1.94-8.47-8.46-8.47-7.82,0-14.99,2.6-43.65,2.6-22.17,0-29.33-2.6-37.8-2.6-7.81,0-11.72,3.91-11.72,8.47,0,8.47,4.57,8.47,18.24,9.77,18.9,1.96,26.07,11.06,26.07,51.48v224.13c0,81.46-43.67,111.43-88.62,111.43-33.23,0-76.89-20.85-76.89-78.85V237.18c0-37.79,13.04-37.79,27.37-39.74,13.69-1.96,20.19-3.27,20.19-9.13,0-6.51-5.2-7.17-15.64-7.17s-22.16,2.6-51.48,2.6c-23.45,0-26.05-2.6-44.3-2.6-5.22,0-11.74,1.95-11.74,5.86,0,9.77,3.27,6.52,28.02,12.38,5.22,1.3,4.57,8.47,4.57,25.41V497.15c0,82.1,61.9,104.91,113.37,104.91,65.81,0,113.37-35.18,113.37-147.91V244.34Z"/>
            <path d="M1178.84,276.92c3.9,0,6.51,2.61,9.12,13.04,21.51,85.35,35.84,127.7,35.84,136.18,0,5.2-1.3,5.2-46.92,5.2-37.13,0-39.09-.65-39.09-4.56,0-3.25,4.57-22.16,31.28-128.36,4.56-18.24,5.2-21.51,9.77-21.51m39.74,170.06c11.74,0,14.33,5.22,21.5,32.59,15,57.32,20.85,76.23,20.85,82.75,0,13.67-7.81,16.28-16.94,16.28-10.42,0-16.94,3.27-16.94,8.47s5.22,7.17,11.08,7.17c12.38,0,29.33-2.6,46.27-2.6,14.98,0,25.41,2.6,39.73,2.6,9.79,0,13.7-1.29,13.7-5.2,0-6.52-11.09-7.82-19.55-10.43-7.17-2.61-13.04-13.67-16.29-25.41-46.91-168.75-69.72-249.54-101.65-364.22-3.25-11.74-4.56-15.65-11.08-15.65s-8.47,6.52-12.38,19.55c-33.88,123.8-64.5,263.24-100.99,372.06-5.86,17.58-25.41,9.76-25.41,22.14,0,4.57,2.59,7.17,7.17,7.17,3.9,0,7.17-2.6,36.49-2.6,14.98,0,28.68,2.6,39.75,2.6,7.17,0,11.08-1.29,11.08-7.17,0-7.17-8.48-7.17-20.85-9.12-16.29-2.61-18.9-9.77-18.9-17.6,0-9.12,2.61-20.19,16.94-79.48,7.82-31.93,11.08-33.89,21.51-33.89h74.92Z"/>
            <path d="M1389.87,380.52c0-142.05,53.42-191.56,95.79-191.56,32.57,0,56.03,25.42,71.67,73.62,9.77,29.98,11.08,31.94,16.94,31.94s5.86-1.3,5.86-30.64c0-63.84-1.3-67.11-5.86-71.01-7.17-5.86-40.41-19.55-79.49-19.55-94.47,0-157.04,86-157.04,215.02s67.77,213.72,157.68,213.72c29.98,0,69.07-9.13,82.1-20.21,6.52-4.56,8.47-7.81,8.47-20.19l.66-82.1c0-17.6-3.91-18.24-9.77-18.24-6.52,0-6.52,9.12-13.04,42.35-9.12,44.97-29.32,82.76-72.31,82.76-50.82,0-101.65-50.82-101.65-205.9"/>
            <path d="M1691.47,376.61c0-32.57,34.54-58.64,67.77-58.64,31.27,0,53.43,19.55,53.43,54.74v182.43c0,16.28-5.2,20.85-22.8,23.46-7.82,1.3-12.38,2.61-12.38,8.47,0,5.22,2.59,7.17,9.77,7.17s11.72-2.61,44.96-2.61c26.05,0,45.6,2.61,48.22,2.61,4.54,0,9.12-1.95,9.12-6.52,0-5.86-4.57-7.81-17.58-9.12-14.34-1.3-20.21-9.77-20.21-30.62v-180.48c-1.96-52.12-37.79-74.28-74.28-74.28-44.31,0-75.58,41.7-81.46,41.7-3.25,0-4.56-1.3-4.56-4.57V139.44c0-7.81-1.3-9.12-3.25-9.12-6.52,0-6.52,5.86-59.29,24.76-7.18,2.59-9.13,3.9-9.13,8.47s3.25,5.2,13.67,7.17c15.65,2.61,18.9,6.51,18.9,16.28v357.71c0,25.42-4.56,31.28-26.05,33.89-5.86,.66-9.13,4.56-9.13,7.82,0,5.2,3.27,7.81,8.47,7.81,9.13,0,14.33-2.61,44.3-2.61,43.66,0,50.83,2.61,54.74,2.61,5.22,0,9.12-1.95,9.12-6.52,0-5.22-1.95-7.17-14.33-9.12-21.5-3.25-28.02-11.72-28.02-26.71v-175.28Z"/>
          </g>
          <g>
            <path d="M580.78,609.32h-122.11c-8.94-.49-19.52,2.71-24.74,10.28-.18,.27-.47,.26-.65,0-4.93-7.34-14.72-10.78-23.35-10.27h-118.45c-35.72,.02-76.05-33.9-75.61-66.74V99.76c0-.21,.18-.39,.39-.39h438.47c.21,0,.39,.18,.39,.39v442.82c-.02,33.08-38.93,66.73-74.35,66.74Z" style="fill: #fff; fill-rule: evenodd;"/>
            <path d="M543.48,549.76h-107.39c-.21,0-.39-.18-.39-.39v-197.03c0-.21,.18-.39,.39-.39h153.58c.21,0,.39,.18,.39,.39v150.83c0,25.73-20.86,46.59-46.59,46.59Z" style="fill: #fab700;"/>
            <path d="M477.24,368.75c1.68-.18,3.58,.04,4.37,1.6,.16,.31,0,.57-.35,.57-.6,.01-1.55,.53-2.69,1.29-1.12,.75-2.3,1.63-3.3,2.22-2.54,1.48-3.87,.72-2.5-4.15,.01-.04,.15-.22,.18-.24,.81-.46,2.56-1.1,4.28-1.29Z" style="fill: #808285; fill-rule: evenodd;"/>
            <path d="M559.88,407.45l-.4,.18c-.35,.16-.86,.41-1.48,.72-1.24,.63-2.92,1.53-4.67,2.6-3.55,2.18-7.29,5.01-8.5,7.71-.83,1.86-1.03,3.49-.99,4.89,.04,1.44,.33,2.65,.46,3.62,.31,2.29-.35,3.41-4.58,3.42-4.22,1.62-7.01,2.43-8.7,2.71-.83,.14-1.46,.15-1.87,.03-.53-.17-.73-.62-.5-1.1,.59-1.22,4.42-3.26,8.46-3.93,2.16-.36,4.96-2.26,4.85-5.75-.38-12.52,2.38-30.78,18.59-26.76,2.96,.74,6.81,5.96,9.55,10.45,1.4,2.29,2.54,4.45,3.19,5.88,.32,.7,.54,1.27,.59,1.6,.01,.08,.03,.2-.01,.32-.05,.18-.22,.35-.48,.33-.15-.02-.27-.1-.33-.15-.08-.06-.16-.14-.24-.23-2.16-2.36-5.4-3.99-8.14-5.05-1.36-.53-2.59-.91-3.47-1.16-.44-.13-.8-.22-1.05-.28l-.28-.07Z" style="fill: #808285; fill-rule: evenodd;"/>
            <path d="M502.11,422.39c1-3.19-1.7-5.7-5.2-8.48-.86-.69-1.75-1.38-2.61-2.08-.87-.71-1.7-1.45-2.44-2.21-1.49-1.53-2.65-3.22-2.92-5.19-.57-4.17,2.12-6.1,4.5-7.81,2.43-1.74,4.48-3.22,3.69-6.49,0-.02,0-.21,.01-.23,3.53-9.64,18.81,4.46,12.53,8.92-5.51,4.24-11.23,11.32-8.42,14.46,3.49,3.9,7.1,9.05,7.1,12.4,0,.68-.3,1.11-.72,1.43-.19,.15-.41,.28-.63,.39-.2,.11-.42,.22-.64,.35-.13,.08-.39,.04-.49-.07-1.04-1.1-8.92-3.25-15.76-.4-.07,.03-.32,0-.39-.05-1.61-1.18-2.07-2.36-.81-3.18,.94-.61,2.77-.91,4.69-1.09,1.95-.19,4.11-.26,5.81-.36,.83-.05,1.55-.1,2.07-.18,.26-.04,.45-.08,.57-.12l.06-.02Z" style="fill: #808285; fill-rule: evenodd;"/>
            <path d="M487.36,380.38c.09,.01,.19,.04,.29,.07,.24,.07,.57,.19,.91,.33,.34,.14,.69,.3,.98,.45,.15,.08,.28,.16,.39,.23,.09,.06,.2,.14,.27,.25,3.75,4.07-.54,10.5-4.17,11.29-1.67,.36-2.68,.64-3.69,1.82-9.66,11.29-9.87,1.75-8.05,.81,1.19-.61,2.01-2.57-1.99-2.28-.46,.03-.64-.36-.3-.68l5.31-4.96,.29-.06c.13-.25,.27-.48,.42-.79,.31-.63,.66-1.48,.99-2.33,.34-.86,.67-1.7,.93-2.28,.13-.28,.26-.54,.38-.7,.04-.06,.16-.21,.34-.25,.32-.08,.5,.17,.55,.29,2.34,5.59,5.32-1.92,1.99-4.48-.32-.25-.25-.6,.14-.7l.71-.18c.12-.03,.36,.06,.42,.17,.35,.53,1.12,1.59,1.79,2.51l.87,1.19,.2,.27Z" style="fill: #808285; fill-rule: evenodd;"/>
            <path d="M562.16,435.75c-.06,0-.26-.13-.29-.18-.19-.3-.33-.54-.44-.74-.29-.15-.48-.33-.64-.51l-.25-.29c-.08-.09-.17-.18-.27-.27-2.57-2.25-7.35,1.68-7.49,1.8-.42,.35-.92-.21-.53-.59,2.33-2.24,3.87-3.09,6.97-3.65,2.84-.51,3.85,.59,4.74,1.72,.35,0,.71,.03,1.09,.04,.42,.01,.85,0,1.3-.09,.89-.17,1.93-.65,3.21-1.97,1.3-1.34,2.47-3.18,3.33-4.71,.42-.76,.77-1.43,1-1.92l.27-.57,.07-.15c.11-.24,.38,.11,.38,.11,0,0,.39-.18,.4,.09v.34c0,.29-.02,.72-.08,1.26-.13,1.07-.45,2.6-1.16,4.4-2.15,4.53-7.28,6.33-11.62,5.87Z" style="fill: #808285; fill-rule: evenodd;"/>
            <path d="M465.75,462.94c1.68-.18,3.58,.04,4.37,1.6,.16,.31,0,.57-.35,.57-.6,.01-1.55,.53-2.69,1.29-1.12,.75-2.3,1.63-3.3,2.22-2.53,1.48-3.87,.72-2.5-4.15,.01-.04,.15-.22,.18-.24,.81-.46,2.56-1.1,4.28-1.29Z" style="fill: #808285; fill-rule: evenodd;"/>
            <path d="M549.23,500.2l-.4,.18c-.35,.16-.86,.41-1.48,.72-1.24,.63-2.92,1.53-4.67,2.6-3.55,2.18-7.29,5.01-8.5,7.71-.83,1.86-1.03,3.49-.99,4.89,.04,1.44,.33,2.65,.46,3.62,.31,2.29-.35,3.41-4.58,3.42-4.22,1.62-7.01,2.43-8.71,2.71-.83,.14-1.46,.15-1.87,.03-.53-.17-.73-.62-.5-1.1,.59-1.22,4.42-3.26,8.46-3.93,2.16-.36,4.96-2.26,4.85-5.75-.38-12.52,2.38-30.78,18.59-26.76,2.96,.74,6.81,5.96,9.55,10.45,1.4,2.29,2.54,4.45,3.19,5.88,.32,.7,.54,1.27,.59,1.6,.01,.08,.03,.2-.01,.32-.05,.18-.22,.35-.48,.33-.15-.02-.27-.1-.33-.15-.08-.06-.16-.14-.24-.23-2.16-2.36-5.4-3.99-8.14-5.05-1.36-.53-2.59-.91-3.47-1.16-.44-.13-.8-.22-1.05-.28l-.28-.07Z" style="fill: #808285; fill-rule: evenodd;"/>
            <path d="M491.46,515.13c1-3.19-1.7-5.7-5.2-8.48-.86-.69-1.75-1.38-2.61-2.08-.87-.71-1.7-1.45-2.44-2.21-1.49-1.53-2.65-3.22-2.92-5.19-.57-4.17,2.12-6.1,4.5-7.81,2.43-1.74,4.48-3.22,3.69-6.49,0-.02,0-.21,.01-.23,3.53-9.64,18.81,4.46,12.53,8.92-5.51,4.24-11.23,11.32-8.42,14.46,3.49,3.9,7.1,9.05,7.1,12.4,0,.68-.3,1.11-.72,1.43-.19,.15-.41,.28-.63,.39-.21,.11-.42,.22-.64,.35-.13,.08-.39,.04-.49-.07-1.04-1.1-8.92-3.25-15.76-.4-.07,.03-.32,0-.39-.05-1.61-1.18-2.07-2.36-.81-3.18,.94-.61,2.77-.91,4.69-1.09,1.95-.19,4.11-.26,5.81-.36,.83-.05,1.55-.1,2.08-.18,.26-.04,.45-.08,.57-.12l.06-.02Z" style="fill: #808285; fill-rule: evenodd;"/>
            <path d="M476.23,474.19c.09,.01,.19,.04,.29,.07,.24,.07,.57,.19,.91,.33,.34,.14,.69,.3,.98,.46,.15,.08,.28,.16,.39,.23,.09,.06,.2,.14,.27,.25,3.75,4.07-.54,10.5-4.17,11.29-1.67,.36-2.68,.64-3.69,1.82-9.66,11.29-9.87,1.75-8.05,.81,1.19-.61,2.01-2.57-1.99-2.28-.46,.03-.64-.36-.3-.68l5.31-4.96,.29-.06c.13-.25,.27-.48,.42-.79,.31-.63,.66-1.48,.99-2.33,.34-.86,.67-1.7,.93-2.28,.13-.28,.26-.54,.38-.7,.04-.06,.16-.21,.34-.25,.32-.08,.5,.17,.55,.29,2.34,5.59,5.32-1.92,1.99-4.48-.32-.25-.25-.6,.14-.7l.71-.18c.12-.03,.36,.06,.42,.16,.35,.53,1.12,1.59,1.79,2.51l.87,1.18,.2,.27Z" style="fill: #808285; fill-rule: evenodd;"/>
            <path d="M551.04,529.56c-.06,0-.26-.13-.29-.18-.19-.3-.33-.54-.44-.74-.29-.15-.48-.33-.64-.51l-.25-.29c-.08-.09-.17-.18-.27-.27-2.57-2.25-7.35,1.68-7.49,1.8-.42,.35-.92-.21-.53-.59,2.33-2.24,3.87-3.09,6.97-3.65,2.84-.51,3.85,.59,4.74,1.72,.35,0,.71,.03,1.09,.04,.42,.01,.85,0,1.3-.09,.89-.17,1.93-.65,3.21-1.97,1.3-1.34,2.47-3.18,3.33-4.7,.42-.76,.77-1.43,1-1.92l.27-.57,.07-.15c.11-.24,.38,.11,.38,.11,0,0,.39-.18,.4,.09v.34c0,.29-.02,.72-.08,1.26-.13,1.07-.45,2.6-1.17,4.4-2.15,4.53-7.28,6.33-11.62,5.87Z" style="fill: #808285; fill-rule: evenodd;"/>
            <path d="M377.42,433.17l-.75,39.71-36.9-.67,.67-35.24,19.08-1.59,6.54,7.84-7.41,10.45,18.04-5.91-6.51,9.52-11.53-3.61,12.37,16.98-24.37-.54,12-16.44-13.38,4.16-5.67-10.41,19.05,6.25v-19.74s18.78-.77,18.78-.77Zm0,38.77l-.75,39.71-36.9-.67,.67-35.24,19.08-1.59,6.54,7.84-7.41,10.45,18.04-5.91-6.51,9.52-11.53-3.61,12.37,16.98-24.37-.54,12-16.44-13.38,4.16-5.67-10.41,19.05,6.25v-19.74s18.78-.77,18.78-.77Zm-.06,38.67l-.75,39.71-36.9-.67,.67-35.24,19.08-1.59,6.54,7.84-7.41,10.45,18.04-5.91-6.51,9.52-11.53-3.61,12.37,16.98-24.37-.54,12-16.44-13.38,4.16-5.67-10.41,19.05,6.25v-19.74s18.78-.77,18.78-.77Zm-.08-154.88l-.75,39.71-36.9-.67,.67-35.24,19.08-1.59,6.54,7.84-7.41,10.45,18.04-5.91-6.51,9.52-11.53-3.61,12.37,16.98-24.37-.54,12-16.44-13.38,4.16-5.67-10.41,19.05,6.25v-19.74s18.78-.77,18.78-.77Zm.14,38.8l-.75,39.71-36.9-.67,.67-35.24,19.08-1.59,6.54,7.84-7.41,10.45,18.04-5.91-6.51,9.52-11.53-3.61,12.37,16.98-24.37-.54,12-16.44-13.38,4.16-5.67-10.41,19.05,6.25v-19.74s18.78-.77,18.78-.77Zm-51.96,38.69l-.75,39.71-36.9-.67,.67-35.24,19.08-1.59,6.54,7.84-7.41,10.45,18.04-5.91-6.51,9.52-11.53-3.61,12.37,16.98-24.37-.54,12-16.44-13.38,4.16-5.67-10.41,19.05,6.25v-19.74s18.78-.77,18.78-.77Zm-.07,38.57l-.75,39.71-36.9-.67,.67-35.24,19.08-1.59,6.54,7.84-7.41,10.45,18.04-5.91-6.51,9.52-11.53-3.61,12.37,16.98-24.37-.54,12-16.44-13.38,4.16-5.67-10.41,19.05,6.25v-19.74s18.78-.77,18.78-.77Zm-.03-116.08l-.75,39.71-36.9-.67,.67-35.24,19.08-1.59,6.54,7.84-7.41,10.45,18.04-5.91-6.51,9.52-11.53-3.61,12.37,16.98-24.37-.54,12-16.44-13.38,4.16-5.67-10.41,19.05,6.25v-19.74s18.78-.77,18.78-.77Zm.11,38.71l-.75,39.71-36.9-.67,.67-35.24,19.08-1.59,6.54,7.84-7.41,10.45,18.04-5.91-6.51,9.52-11.53-3.61,12.37,16.98-24.37-.54,12-16.44-13.38,4.16-5.67-10.41,19.05,6.25v-19.74s18.78-.77,18.78-.77Zm101.36,38.65l-.75,39.71-36.9-.67,.67-35.24,19.08-1.59,6.54,7.84-7.41,10.45,18.04-5.91-6.51,9.52-11.53-3.61,12.37,16.98-24.37-.54,12-16.44-13.38,4.16-5.67-10.41,19.05,6.25v-19.74s18.78-.77,18.78-.77Zm-.07,38.84l-.75,39.71-36.9-.67,.67-35.23,19.08-1.59,6.54,7.84-7.41,10.45,18.04-5.91-6.51,9.52-11.53-3.61,12.37,16.98-24.37-.54,12-16.44-13.38,4.16-5.67-10.41,19.05,6.25v-19.74s18.78-.77,18.78-.77Zm0-116.07l-.75,39.71-36.9-.67,.67-35.24,19.08-1.59,6.54,7.84-7.41,10.45,18.04-5.91-6.51,9.52-11.53-3.61,12.37,16.98-24.37-.54,12-16.44-13.38,4.16-5.67-10.41,19.05,6.25v-19.74s18.78-.77,18.78-.77Zm0,38.8l-.75,39.71-36.9-.67,.67-35.24,19.08-1.59,6.54,7.84-7.41,10.45,18.04-5.91-6.51,9.52-11.53-3.61,12.37,16.98-24.37-.54,12-16.44-13.38,4.16-5.67-10.41,19.05,6.25v-19.74s18.78-.77,18.78-.77Z" style="fill: #bcbec0; fill-rule: evenodd;"/>
            <path d="M356.91,213.01l16.43-12.92,18,12.44-34.42,.48Zm22.22-17.63l18.84-14.73-1.93,26.57-16.91-11.84Zm-11.59,.48l-17.73,13.6-1.23-27.01,18.96,13.41Zm5.68-4.59c0,.36-19.08-13.65-19.08-13.65l39.62-2.42s-20.53,15.7-20.53,16.06Zm-40.95,38.44c-.19,.12-.6,.29-.69-.15l-.04-.2-.13-.72-.39-2.2-.57-3.26c-.05-.14-.15-.22-.42-.28-.94-.15-1.94-.41-3.51-.62-.01,0-1.6,.31-3.5,.73-1.75,.39-3.6,.82-4.17,.98-.14,.11-.16,.13-.17,.15l-4.8,44.46c0,.08-.16,.28-.23,.32-.1,.05-1.88,.92-1.95,1.82-.08,.9,.8,1.85,1.45,2.19,.1,.05,.22,.28,.21,.39l-7.1,67.73c-.01,.13-.19,.32-.32,.35-.02,0-18.19,3.38-24.45,5.75-.3,.11-.53-.05-.53-.37l.03-183.81c0-.21,.18-.39,.39-.39h150.8c.21,0,.39,.18,.39,.39v183.46c0,.27-.21,.44-.48,.39-6.18-1.33-24.29-5.11-24.29-5.11-.12-.02-.3-.21-.31-.34l-8.51-67.55c-.02-.13,.11-.35,.23-.41,.92-.42,1.61-1.48,1.56-1.93-.05-.52-.44-.93-.91-1.25-.23-.15-.46-.27-.63-.35l-.22-.1c-.25-.11-.31-.29-.31-.31l-4.53-36.2c-.34-2.72-.06-4.96,.31-6.53,.18-.79,.39-1.4,.55-1.82l.14-.35c-.31-.13-.63-.23-.94-.32-.32-.1-.65-.19-.91-.26l-.33-.09-.15-.05c-1.93-.46-4.73-1.13-7.26-1.69-.65,.13-1.41,.41-1.85,.56-.08,.47-.2,1.27-.29,2l-.15,1.14-.04,.35c-.03,.26-.4,.1-.4,.1,0,0,.16,.41-.1,.39l-.18-.02-.65-.07-2.08-.23c-1.57-.18-3.3-.38-3.94-.46-.13-.02-.32-.2-.34-.33-.22-1.33-.38-3.67-.53-4.88-.03-.24-.06-.32-.09-.36-.02,0-.08-.04-.15-.04-.58-.07-11.21-.93-11.8-.93-.21,0-.24,.04-.25,.13-.15,.98-.44,3.71-.67,5.5-.02,.17-.22,.34-.39,.34-1.32,.01-6.85,.48-7.66,.61-.2,.03-.41-.12-.45-.31-.33-1.64-.61-3.73-.91-5.52-.31-.09-.73-.24-1.13-.39-.54-.19-.99-.34-1.19-.35-.17-.01-.94,.04-1.96,.11-1,.07-2.18,.17-3.15,.23-.21,.01-.41-.16-.42-.37-.01-.25-1.87-40.97-1.95-41.68-.02-.16,.12-.38,.28-.42,.07-.02,.14-.05,.22-.09-1.46,0-2.13-1.38-2.11-2,.02-.64,.24-1.11,.56-1.43-.85,.37-1.18,1.32-1.16,1.75,.04,.68,.41,1.62,1.55,1.84,.15,.03,.32,.23,.32,.38,.02,1.07,0,41.05-.03,41.91,0,.18-.19,.36-.36,.38-1.9,.15-2.94,.21-3.54,.26-.3,.03-.45,.05-.54,.07-.09,.12-.1,.22-.13,.34-.06,.25-.12,.59-.18,.99-.13,.82-.25,1.87-.37,2.92-.23,2.12-.42,4.24-.45,4.42-.02,.13-.21,.31-.34,.33-1.28,.17-2.82,.36-4.51,.6l.24-.21Z" style="fill: #a90034; fill-rule: evenodd;"/>
            <path d="M532.99,337.75c-.06,0-.27-.13-.31-.18-4.97-7.7-9.38-18.12-6.73-30.55,0-.03,.12-.21,.14-.23,.29-.22,1.17-.69,1.84-.7,1.57,0,1.69,.64,1.6,1.32l-.02,.14v.14s.17,.14,.83,.14c1.39,0,1.73,.21,2.08,.49,.06,.05,.11,.09,.16,.12,.05,.03,.11,.06,.21,.09,.21,.06,.56,.11,1.21,.11,.65,0,.99-.06,1.19-.13,.18-.06,.25-.13,.36-.24,.34-.33,.7-.59,2.1-.59,1.47,0,1.85,.47,2.16,.97,.13,.2,.21,.32,.37,.41,.17,.1,.49,.19,1.12,.19,1.01,0,1.13-.49,1.31-1.36,.05-.23,.09-.46,.15-.69,.07-.24,.15-.49,.29-.72,.28-.49,.72-.88,1.47-1.09,1.42-.39,2.01-.04,2.55,.3,.24,.15,.42,.26,.68,.32,.26,.05,.63,.05,1.24-.11,1.27-.35,1.65-.34,1.97-.44,.11-.03,.22-.09,.45-.24,.24-.16,.57-.41,1.1-.8,.49-.37,.7-.66,.8-.9,.1-.24,.1-.47,.09-.78-.01-.68,0-1.43,1.2-2.32,.55-.41,.95-.62,1.26-.72,.16-.05,.29-.07,.41-.08,.09,0,.17,0,.24,0,.05,0,.09-.02,.15-.08,.13-.13,.33-.4,.69-.96,.77-1.22,1.34-1.39,1.9-1.53,.24-.06,.41-.1,.61-.24,.21-.14,.47-.41,.81-.94,.35-.55,.48-.87,.51-1.07,.03-.17,0-.28-.08-.44-.05-.1-.1-.21-.15-.34-.06-.14-.11-.3-.15-.49-.08-.39-.09-.88,.05-1.57,.14-.73,.48-1.38,.91-1.97,.21-.29,.44-.58,.69-.86,.24-.28,.49-.55,.74-.82,1.01-1.1,1.92-2.1,2.14-3.28,.22-1.14-.1-1.47-.53-1.86-.13-.12-.27-.24-.4-.37-.14-.14-.29-.3-.44-.49-.29-.39-.52-.89-.64-1.6-.24-1.42,.06-1.87,.41-2.3,.14-.16,.22-.27,.27-.47,.06-.21,.08-.56-.03-1.19-.23-1.31-.35-1.58-.53-1.82-.12-.16-.26-.31-.46-.56-.21-.27-.47-.65-.8-1.25-.31-.57-.53-.84-.69-.98-.14-.13-.23-.16-.38-.2-.45-.14-.84-.33-1.52-1.55-.34-.61-.49-1.06-.55-1.44-.03-.19-.03-.35-.03-.49,0-.13,.02-.24,.02-.35,.01-.17,0-.28-.08-.44-.1-.19-.32-.46-.8-.9-.48-.44-.78-.64-.97-.75-.09-.05-.16-.07-.21-.09-.06-.02-.12-.02-.18-.03-.41-.05-.78-.14-1.8-1.06-.47-.43-.73-.5-.87-.5-.14,0-.26,.07-.51,.25-.13,.09-.26,.2-.41,.28-.16,.1-.35,.19-.57,.24-.45,.12-.98,.07-1.65-.21-.73-.31-1.08-.81-1.19-1.4-.05-.28-.05-.56-.03-.83,.02-.26,.07-.54,.11-.81,.09-.54,.16-.99,.09-1.36-.06-.33-.24-.61-.73-.82-.54-.23-.86-.16-1.04-.06-.38,.21-.69-.02-.57-.44,.13-.5,.09-.74,.04-.87-.03-.07-.07-.12-.12-.18l-.22-.21c-.46-.41-.81-.91-.37-2.27,.41-1.27,.52-1.47,.64-1.68,.04-.07,.08-.14,.16-.34,.09-.22,.21-.57,.41-1.19,.45-1.39,.96-1.57,1.52-1.67,.2-.03,.3-.06,.41-.16,.13-.11,.3-.37,.5-.98,.2-.63,.34-1.02,.43-1.3,.08-.27,.1-.38,.09-.47,0-.06-.01-.12-.03-.19l-.09-.35c-.08-.3-.18-.72-.3-1.38-.19-1.05-.77-1.2-1.56-1.39-.21-.05-.43-.1-.63-.18-.22-.07-.44-.17-.64-.32-.43-.31-.74-.78-.87-1.52-.13-.73-.03-1.27,.22-1.7,.12-.21,.27-.37,.42-.51,.14-.13,.28-.25,.42-.36,.13-.11,.23-.19,.31-.28,.08-.08,.12-.16,.14-.23,.04-.13,.04-.39-.28-.93-.32-.53-.58-.75-.79-.85-.21-.1-.42-.11-.71-.12-.67-.01-1.39-.06-2.16-1.35-.38-.63-.48-1.17-.42-1.65,.03-.23,.1-.44,.18-.63,.07-.17,.16-.33,.24-.48,.16-.3,.22-.47,.2-.64-.02-.16-.13-.41-.61-.8-.5-.41-.82-.65-1.04-.8-.21-.14-.34-.21-.46-.27-.31-.16-.6-.31-1.65-1.16-.54-.44-.87-.84-1.08-1.2-.1-.18-.18-.34-.24-.49l-.14-.39c-.13-.35-.26-.67-1.44-1.07-2.79-.96-4.03-5.32-3.26-7.98,.18-.61,.26-.95,.29-1.15,.01-.09,.01-.13,.01-.14-.08-.27-.08-.55,.28-1.8,.19-.63,.25-.98,.25-1.2,0-.18-.04-.25-.11-.35l-.19-.24c-.08-.11-.17-.23-.26-.39-.18-.32-.35-.77-.49-1.45-.28-1.41,0-2,.28-2.56,.13-.25,.23-.45,.28-.74,.05-.29,.06-.69-.07-1.3-.21-1.03-.69-1.1-1.5-1.15-.22-.01-.45-.03-.68-.05-.25-.03-.5-.07-.75-.16-.52-.17-1.03-.5-1.45-1.13-.73-1.08-.98-1.39-1.24-1.69-.26-.32-.53-.63-1.28-1.75-.42-.63-.54-1.21-.49-1.75,.02-.26,.08-.5,.15-.73,.07-.22,.15-.42,.22-.62,.27-.73,.41-1.16-.46-1.75-.54-.36-.9-.56-1.16-.69-.27-.12-.45-.17-.64-.22-.46-.12-.91-.25-2.05-1.01-.88-.59-1.19-.31-1.7,.16-.15,.14-.3,.28-.46,.42-.17,.14-.37,.29-.6,.4-.47,.24-1.04,.35-1.78,.2-1.36-.27-1.81-.58-2.24-.9-.19-.14-.36-.26-.63-.38-.27-.12-.67-.25-1.3-.38-1.31-.26-1.6-.47-1.89-.54-.17-.04-.34-.02-1.7,.26-.75,.15-1.34,0-1.82-.33-.23-.16-.43-.35-.61-.54-.17-.19-.33-.4-.49-.6-.62-.81-1.09-1.39-2.13-1.18-1,.2-1.1,.8-1.16,1.83-.02,.26-.03,.53-.06,.8-.03,.29-.08,.57-.16,.85-.17,.58-.5,1.13-1.13,1.57-.65,.44-1.26,.5-1.83,.34-.28-.07-.53-.19-.77-.33-.23-.13-.46-.28-.69-.43-.91-.6-1.56-1-2.41-.42-1.07,.72-1.42,1.12-1.68,1.58-.26,.46-.46,.98-.98,1.81,3.06,1.01,1.88,4.54,.54,6.53-.39,.58-.9,1.13-1.43,1.64-.52,.51-1.09,1.01-1.62,1.53-1.07,1.03-1.93,2.03-2.16,3.2-.13,.64-.15,.99-.12,1.2,.02,.17,.07,.25,.18,.36l.24,.24c.1,.1,.21,.22,.32,.38,.23,.31,.45,.75,.64,1.42,.18,.61,.29,.94,.37,1.13,.26,.31,.4,.54,.77,1.79,.46,1.57-.43,2.03-1.11,2.36-.15,.07-.29,.14-.42,.22-.12,.08-.2,.15-.26,.23-.1,.14-.18,.4-.02,.97,.38,1.29,.4,1.41,.43,1.55,.03,.14,.07,.31,.48,1.68,.05,.18-.06,.41-.24,.48-.53,.2-.8,.37-.96,.51-.08,.07-.14,.13-.18,.2-.06,.08-.1,.16-.15,.23-.26,.44-.58,.84-1.87,1.29-.59,.21-.79,.4-.86,.53-.07,.14-.07,.3-.03,.62,.02,.17,.05,.34,.05,.52,0,.19,0,.41-.05,.63-.11,.46-.39,.93-.96,1.39-1.05,.86-1.4,.99-1.76,1.11-.07,.02-.13,.04-.21,.08-.07,.03-.16,.07-.26,.13-.22,.13-.53,.35-1.04,.77-.52,.42-.72,.64-.79,.75,.17,.43,.35,.9-.39,2.13-.39,.65-.85,.98-1.37,1.09-.25,.06-.5,.06-.73,.04-.22-.02-.44-.05-.66-.09-.83-.14-1.41-.24-1.95,.66-.32,.54-.37,.84-.36,1.01,.02,.16,.1,.29,.29,.51,.1,.12,.21,.24,.31,.37,.11,.15,.22,.32,.31,.53,.18,.42,.24,.95,.11,1.66-.27,1.49-.99,1.81-1.64,2.08-.3,.12-.51,.22-.7,.4-.18,.18-.36,.49-.47,1.09-.13,.7-.35,1.2-.6,1.58-.12,.19-.25,.34-.37,.49l-.32,.36c-.3,.35-.52,.65-.16,1.8,.86,2.68-1.6,11.81-3.68,13.7-.43,.39-.53,.7-.54,.93,0,.27,.11,.54,.27,.91,.32,.73,.73,1.67-.46,2.75-.56,.5-1.1,.7-1.62,.71-.25,0-.49-.03-.71-.08-.21-.05-.41-.11-.6-.16-.67-.2-1.07-.32-1.58,.6-.3,.54-.33,.85-.29,1.06,.04,.22,.16,.39,.35,.64,.42,.56,.86,1.21,.11,2.56-.36,.65-.78,1.02-1.23,1.24-.22,.11-.44,.17-.65,.22-.19,.05-.39,.08-.57,.11-.61,.11-1.03,.18-1.22,1.27-.11,.63-.1,.99-.05,1.2,.04,.2,.11,.31,.22,.46,.3,.42,.54,.85,.3,2.25-.12,.69-.29,1.18-.49,1.58-.18,.37-.37,.64-.53,.91-.26,.43-.44,.85-.19,2.07,.52,2.61,.28,5.18,.8,7.79,.25,1.26,.51,1.75,.85,2.19,.19,.25,.42,.48,.68,.8,.28,.33,.6,.73,.98,1.3,.34,.52,.63,.75,.87,.88,.24,.13,.48,.15,.78,.19,.67,.07,1.4,.18,2.22,1.42,.38,.57,.6,.95,.77,1.23,.17,.28,.25,.43,.36,.55,.09,.11,.21,.22,.45,.4,.25,.19,.6,.43,1.14,.8,.5,.35,.86,.45,1.13,.46,.29,.01,.53-.07,.85-.18,.68-.24,1.45-.49,2.69,.38,.56,.39,.89,.68,1.1,.92,.11,.12,.18,.22,.24,.3l.12,.17c.09,.08,.14,.11,.24,.14,.23,.09,.59,.18,1.21,.32,1.5,.34,1.84,1.22,2.12,1.97,.14,.37,.25,.66,.46,.9,.2,.23,.51,.45,1.09,.58,1.27,.29,1.64,.4,2.03,.44,.39,.04,.78,0,2.09,0,.66,0,1.02-.04,1.24-.08,.1-.02,.17-.04,.23-.07,.06-.03,.11-.05,.16-.08,.33-.18,.65-.32,2.02-.33,.62,0,1.01-.11,1.29-.25,.29-.14,.49-.33,.73-.56,.13-.12,.25-.24,.39-.36,.15-.12,.31-.24,.51-.34,.4-.21,.9-.34,1.59-.34,.15,0,.35,.16,.39,.3,3.1,12.98-2.15,23.41-7.4,31.16-.03,.05-.24,.17-.29,.17-20.34,1.89-44.17,6.04-51.17,8.43-.29,.1-.52-.06-.52-.37V162.96c0-.21,.18-.39,.39-.39h153.58c.21,0,.39,.18,.39,.39v183.38c0,.29-.21,.46-.49,.38-17.36-4.6-32.05-7.6-56.59-8.97Z" style="fill: #afcfe8;"/>
            <path d="M545.58,262.13c.05,.28,.05,.56,.03,.83-.02,.26-.07,.54-.11,.81-.09,.54-.16,.99-.09,1.36,.06,.33,.24,.61,.73,.82,.55,.24,.9,.24,1.14,.17,.13-.03,.24-.09,.35-.15,.13-.08,.24-.16,.35-.24,.6-.45,1.23-.73,2.38,.3,.48,.44,.78,.64,.97,.75,.09,.05,.16,.07,.21,.09,.06,.02,.12,.02,.18,.03,.41,.05,.78,.14,1.8,1.06,1.02,.93,1.18,1.38,1.14,1.98,0,.1-.02,.2-.02,.32,0,.1,0,.21,.02,.34,.04,.26,.15,.63,.46,1.18,.31,.57,.53,.84,.69,.98,.14,.13,.23,.16,.38,.2,.45,.14,.84,.33,1.52,1.55,.31,.57,.55,.91,.74,1.15,.2,.26,.35,.41,.47,.57,.3,.41,.45,.85,.67,2.16,.3,1.74-.9,1.78-1.62,1.78-.17,0-.33,0-.48,.02-.14,.02-.22,.05-.27,.08-.05,.03-.19,.15-.09,.75,.1,.6,.33,1.18,.62,1.76,.3,.6,.65,1.17,.97,1.75,.65,1.17,1.24,2.44,.96,3.9-.06,.29-.31,.42-.57,.27-.33-.18-.56-.12-.84,.18-.31,.33-.6,.92-.89,1.65-.29,.73-.56,1.54-.85,2.27-.29,.73-.62,1.44-1.04,1.89-2.5,2.67-4.71,4.83-6.45,6.01-1.64,1.11-3.29,1.61-4.01-.06-.1-.24-.22-.36-.79,0-.56,.35-1.24,1.02-1.96,1.73-.36,.36-.72,.71-1.07,1.03-.35,.32-.7,.61-1.03,.81-.64,.4-1.5,.62-1.93-.36-.42-.96-1.05-.95-1.94-.92-.24,0-.47,.01-.7,0-.24-.01-.49-.05-.74-.14-.52-.18-.95-.57-1.25-1.26-.17-.38-.53-.56-1.23-.53-.7,.02-1.57,.25-2.5,.49-.46,.12-.93,.24-1.37,.33-.46,.1-.9,.17-1.3,.18-.81,.03-1.62-.17-1.98-1.01-.12-.27-.39-.41-1.2-.11-.76,.28-1.7,.85-2.7,1.45-.5,.3-.99,.6-1.46,.86-.49,.27-.95,.5-1.37,.65-.8,.29-1.78,.41-2.19-.54-.15-.34-.41-.45-1.01-.29-.61,.16-1.37,.57-2.19,1.02-.41,.22-.82,.44-1.21,.63-.39,.19-.79,.36-1.16,.45-.74,.2-1.55,.14-1.93-.74-.17-.38-.83-.69-2.06-.86-1.18-.17-2.64-.19-4.02-.21-1.43-.02-2.77-.03-3.68-.19-.45-.08-.89-.2-1.16-.44-.36-.32-.36-.76-.12-1.16,1.5-2.5,.8-3.77-.37-4.75-.32-.26-.67-.5-1.03-.73-.37-.24-.75-.47-1.11-.7-.71-.46-1.43-.96-1.82-1.63-.23-.39-.96-.66-2.12-.88-1.13-.21-2.43-.36-3.48-.66-2.49-.71-3.46-2.34-.06-6.06,.67-.73,.41-1.59-.45-2.77-.42-.57-.95-1.16-1.44-1.74-.5-.59-1.01-1.2-1.36-1.81-.46-.79-.17-1.41,.39-1.83,.26-.19,.58-.35,.91-.49,.33-.14,.69-.26,1.04-.39,.73-.26,1.36-.49,1.75-.77,.32-.24,.4-.44,.19-.8-.38-.64-.5-1.23-.49-1.8,0-.27,.04-.54,.09-.8,.05-.25,.11-.49,.18-.73,.25-.94,.45-1.74-.14-2.73-.39-.67-.45-1.38-.44-1.97,0-.29,.02-.56,.03-.81,0-.24,0-.42-.03-.55-.03-.14-.07-.28-.56-.26-.55,.03-1.5,.28-3.11,.9-3.2,.8-4.11-.87-4.11-2.69,0-.85,.19-1.74,.37-2.4,.19-.67,.37-1.13,.37-1.13,.03-.07,.22-.23,.29-.24,3.16-.66,3.6-2.4,3.6-4.13,0-.94-.14-1.85-.11-2.58,.03-.77,.23-1.56,1.11-1.84,4.5-1.44,6.37-2.39,6.92-3.12,.22-.28,.21-.5,.06-.78-.18-.33-.55-.69-1.06-1.14-2.18-1.98-1.53-4.91-.29-6.84,.63-.97,1.45-1.78,2.25-2.14,.83-.38,1.74-.31,2.23,.66,1.54,3.08,3.67,3.45,5.12,2.99,.75-.24,1.32-.7,1.57-1.14,.24-.42,.19-.75-.14-.99-3.47-2.51-2.43-4.59-.76-6.17,.78-.73,1.7-1.39,2.34-2,.31-.3,.51-.54,.59-.75,.07-.17,.06-.3-.04-.45-.37-.52-.68-.86-.95-1.1-.27-.24-.51-.4-.78-.58-.56-.37-1.13-.75-1.94-1.89-.48-.67-.43-1.28-.03-1.78,.18-.22,.41-.4,.65-.56,.23-.16,.49-.3,.75-.45,.53-.3,.95-.54,1.18-.82,.16-.2,.23-.42-.06-.83-.34-.48-.71-.73-1.08-.89-.19-.08-.39-.14-.57-.18-.2-.05-.4-.09-.58-.12-.88-.19-1.58-.56-1.4-2.13,.3-2.64,.26-2.72,.56-5.36,.08-.73,.33-1.33,.66-1.85,.16-.26,.34-.5,.53-.73,.18-.23,.37-.44,.57-.66,.76-.86,1.43-1.63,1.56-2.81,.18-1.57,1.04-1.79,1.76-1.95,.15-.03,.3-.06,.44-.11,.13-.04,.23-.1,.31-.17,.16-.13,.33-.39,.4-.99,.16-1.41,.52-1.69,.98-1.91,.13-.06,.17-.08,.23-.18,.08-.14,.16-.43,.21-1.08,.06-.82,.49-1.25,1.18-1.15,.26,.04,.53,.15,.79,.28,.25,.12,.52,.28,.79,.44,.25,.15,.5,.29,.74,.41,.23,.12,.42,.18,.56,.21,.15-.02,.25-.13,.27-.42,.02-.23,.16-.39,.29-.49,.13-.1,.3-.18,.47-.23,.35-.11,.8-.17,1.31-.15,1.02,.02,2.31,.32,3.49,1.12,.38,.26,.64,.2,.93-.04,.34-.29,.66-.8,1.02-1.39,.18-.3,.36-.59,.55-.86,.19-.27,.4-.53,.64-.73,.52-.44,1.16-.58,1.88-.1,1.34,.9,1.07,1.85,.76,2.68-.07,.19-.15,.38-.21,.58-.06,.18-.1,.37-.12,.57-.03,.36,.04,.77,.36,1.24,.73,1.08,.98,1.39,1.24,1.69,.26,.32,.53,.63,1.28,1.76,.32,.48,.68,.7,1.04,.82,.2,.06,.4,.1,.59,.12,.22,.02,.43,.03,.64,.05,.91,.06,1.9,.2,2.22,1.78,.28,1.41,0,2-.28,2.56-.13,.25-.23,.45-.28,.74-.05,.29-.06,.69,.07,1.3,.13,.62,.27,.99,.41,1.22,.07,.12,.13,.22,.2,.3l.2,.26c.35,.48,.35,.96-.02,2.23-.18,.61-.26,.95-.29,1.15-.01,.09-.01,.13-.01,.14,.08,.27,.08,.55-.28,1.8-.71,2.44,.53,6.24,2.76,7.01,1.34,.46,1.68,.92,1.92,1.54l.14,.38c.05,.12,.1,.25,.18,.38,.15,.27,.41,.59,.89,.98,.5,.41,.82,.65,1.04,.8,.21,.14,.34,.21,.46,.27,.31,.16,.6,.31,1.65,1.16,1.21,.99,.98,1.72,.62,2.42-.07,.14-.15,.28-.21,.43-.06,.14-.1,.28-.12,.42-.04,.28,0,.64,.31,1.15,.32,.53,.58,.75,.79,.85,.21,.1,.42,.11,.71,.12,.67,.01,1.39,.06,2.16,1.35,.82,1.37,.27,1.96-.35,2.46-.12,.1-.25,.2-.37,.32-.11,.11-.21,.22-.28,.34-.14,.24-.23,.58-.13,1.16,.19,1.05,.77,1.2,1.56,1.39,.21,.05,.43,.11,.63,.18,.22,.07,.44,.17,.64,.32,.43,.31,.74,.78,.87,1.52,.12,.64,.22,1.04,.29,1.33l.09,.37c.03,.12,.04,.23,.05,.33,.01,.24-.04,.45-.13,.74-.09,.28-.23,.68-.43,1.31-.45,1.39-.96,1.57-1.52,1.67-.2,.03-.3,.06-.41,.16-.13,.11-.3,.37-.5,.98-.41,1.27-.52,1.47-.64,1.68-.04,.07-.08,.14-.16,.34-.09,.22-.21,.57-.41,1.19-.19,.58-.18,.88-.14,1.05,.04,.15,.12,.25,.28,.39l.28,.26c.1,.11,.2,.24,.27,.42,.09,.21,.12,.45,.1,.73,.31-.02,.67,.05,1.05,.22,.73,.31,1.08,.81,1.19,1.4Zm-40.06,60.26c.33-2.62,.57-5.02,.76-6.77,.1-.88,.18-1.6,.25-2.09,.04-.26,.07-.46,.1-.6,.02-.09,.04-.16,.06-.21,.1-.26,.3-.3,.39-.3,.09,0,.21,.02,.34,.12l.14,.12c.09,.07,.2,.16,.37,.25,.3,.15,.83,.31,1.78,.26,.09-.15,.27-.18,.44-.16,.1,0,.2,.05,.25,.07l.18,.1,.4,.24c.13,.08,.27,.15,.42,.2,.28,.1,.44,.08,.55-.02,.15-.13,.34-.51,.38-1.46,0-.17,.18-.36,.35-.38,.69-.08,1.38-.12,1.9-.12,.26,0,.48,0,.63,0h.19c.25,.03,.03,.41,.03,.41l.38-.11s.14,.46,.36,.92c.24,.49,.5,.86,.73,.96,.07-.06,.18-.21,.28-.4,.1-.19,.2-.39,.28-.54,.05-.08,.1-.17,.17-.25,.05-.06,.19-.2,.41-.2,.1,0,.21,.03,.29,.05,.08,.03,.19,.06,.3,.11,.21,.08,.46,.2,.72,.32,.4,.19,.82,.4,1.11,.54,.07-.06,.14-.14,.21-.25,.13-.2,.22-.43,.32-.6,.36-.63,.92-.74,1.65,0,.04,.04,.12,.26,.11,.32-.54,5.63,.62,10.39,2.12,14.42,1.51,4.07,3.35,7.36,4.1,10,.08,.28-.09,.5-.38,.5l-25.79-.09c-.33,0-.49-.24-.36-.55,1.45-3.47,2.42-9.54,3.08-14.8Z" style="fill: #15552b; fill-rule: evenodd;"/>
            <path d="M328.18,223.7c-.04-.32,.17-.51,.48-.44l1.27,.29c.1,.02,.28,.21,.3,.31l1.09,5.88c.05,.28-.13,.49-.42,.47l-1.53-.11c-.15-.01-.34-.19-.36-.34l-.83-6.06Zm23.31,4.63c-.17,0-.36-.18-.38-.35l-.83-7.46c-.04-.32,.18-.51,.49-.42l1.27,.34c.1,.03,.27,.22,.29,.32l1.07,7.17c.04,.26-.14,.46-.4,.45l-1.51-.05Zm-31.3,26.91c-.14-.06-.3-.18-.37-.47-.05-.24-.05-.61,0-1.22,.23-2.44,.43-5.08,.66-7.52,.11-1.2,.13-1.57,.13-1.96,0-.39-.01-.79,.04-2.04,.05-1.09,.18-4.33,.48-7.56,.29-3.17,.74-6.51,1.49-7.63,.99-1.49,1.76-2.35,4.32-3.52,.25-.11,.49,0,.55,.27,.34,1.54,.61,3.38,.81,4.84,.1,.72,.19,1.35,.26,1.8l.06,.36c.98-.11,2.98-.24,4.86-.35l2.85-.17c.8-.05,1.28-.08,1.31-.09,.17-.03,.21-.12,.21-.17,.15-1.08,.76-7.13,.91-8.44,.02-.16,.2-.34,.36-.35,1.2-.1,2.15-.13,2.92-.17,1.63-.09,7.65,1.42,8.34,8.35,1.86-.01,8.59-.09,11.56-.23,.31,0,.72-.32,.74-.42,.26-2.11,.86-6.09,.99-7.63,.02-.21,.22-.38,.42-.36,3.37,.27,9.53,.9,9.74,1.01,.03,.02,.17,.11,.22,.36l.03,.24,.08,.79c.06,.65,.14,1.52,.21,2.43,.15,1.79,.31,3.74,.39,4.42,.23,.17,.39,.23,.56,.27,2.37,.34,6.29,.96,8.5,1.34,.09,.01,.14,0,.18,0,.06-.04,.09-.09,.1-.14,.32-2.54,.95-7.21,1.04-7.69,.04-.2,.26-.35,.46-.31,1.11,.21,4.57,1.14,6.18,1.5,.09,.02,.27,.19,.29,.28,.32,1.12,1.54,12.98,1.72,17.97,.01,.3-.21,.48-.5,.39l-2.66-.76c-.55-.09-.96,.26-.97,.79l.58,10.16,4.2,1.82c.07,.03,.22,.23,.23,.31,0,0,.94,6.88,1.34,12.55,.02,.29-.19,.47-.47,.41-5.49-1.14-22.08-2.78-35.28-2.84-14.34-.29-26.58,.57-35.36,1.63-.34-.04-.63-.03-.94-.03-.35,0-.72,.01-1.05-.01-.63-.05-1.54-.26-1.54-1.25,.2-.67,.03-.97-.26-1.39l-.24-.34c-.09-.13-.17-.27-.23-.41-.14-.31-.23-.67-.19-1.12,.05-.58,0-.85-.07-.98-.06-.12-.13-.17-.31-.27-.48-.29-.89-.64-.76-2,.12-1.26,.28-1.58,.46-1.92,.03-.06,.06-.12,.1-.19,.03-.07,.06-.15,.09-.26,.07-.24,.13-.59,.18-1.17,.05-.53,.05-.8,.03-.92Zm-1.46,33.08c-.15-.03-.31-.12-.39-.39-.07-.22-.07-.6-.02-1.19,.1-1.15-.09-1.9-.3-2.69-.11-.41-.21-.83-.28-1.29-.07-.48-.09-1.01-.04-1.65,.11-1.3,.62-2.4,1.08-3.28,.23-.43,.45-.82,.63-1.16,.17-.34,.26-.59,.28-.77,.1-1.65,.68-2.82,1.25-3.59,.28-.38,.56-.66,.77-.85,.22-.19,.37-.29,.37-.29l.15-.06c9.33-1.43,27.93-2.33,35.57-2.42,.39,0,.72-.03,1-.08,11.72,.12,30.55,.69,37.16,2.67,.1,.03,.27,.23,.28,.33,0,0,1.44,12.81,2.87,25.83,1.43,12.97,2.85,26.26,2.8,27.12-.03,.54,.9,12.79,1,13.53,.16,1.17,.09,2.89-1.43,3.33-.37,.11-4.28-.35-7.88-.79-3.7-.45-7.33-.91-7.33-.91-.19-.02-.35-.22-.34-.41,1.61-29.4-29.45-30.24-27.61-.65l-.72,.25c.17,.01,.21,.14,.22,.16h-.17s-.71,0-.71,0c-.61,0-1.48,.03-2.53,.05-2.09,.05-4.88,.13-7.69,.21-5.54,.15-11.39,.3-11.93,.11-.64-.23-1.09-.57-1.43-.97-.17-.2-.31-.4-.43-.61-.12-.2-.23-.41-.34-.61-.42-.79-.78-1.46-1.77-1.82-.51-.18-.94-.2-1.31-.16-.41,.05-.76,.17-1.1,.27-.8,.22-1.6,.31-2.59-.7-.98-1.01-.89-1.85-.8-2.58,.04-.35,.07-.63,.01-.93-.06-.28-.21-.61-.59-1-.38-.39-.69-.53-.94-.57-.13-.02-.26-.03-.39-.02-.14,.01-.28,.03-.41,.05-.72,.1-1.37,.04-1.9-1.29-.38-.95,.24-1.56,1.07-1.91,1.83-.23,2.69-.56,3.04-.86,.24-.21,.24-.38,.02-.66-.58-.71-2.06-1.2-2.42-1.06-1.19,.45-2.96-1.37-2.28-2.99,.03-.06,.01-.3-.21-.79-.21-.45-.52-.98-.84-1.5-.33-.54-.68-1.06-.94-1.51-.14-.23-.25-.44-.34-.62-.08-.17-.16-.37-.15-.57,0-.23-.02-.92-.02-1.6,0-.35,0-.71,.03-1,.01-.16,.03-.3,.05-.41,.02-.11,.05-.25,.11-.36,.02-.03,.18-.17,.21-.18,.13-.05,.26-.2,.33-.6,.07-.39,.06-.89,0-1.45-.06-.56-.15-1.13-.23-1.61-.08-.47-.15-.93-.13-1.21,.06-1.3,.33-1.64,.65-1.96,.11-.11,.18-.18,.25-.34,.07-.18,.14-.5,.17-1.09,.05-1.13-.22-1.75-.52-2.43-.16-.37-.32-.73-.43-1.17-.12-.45-.18-.97-.15-1.62,.02-.46,.34-.63,.61-.7,.1-.02,.21-.04,.34-.06,.1-.02,.22-.04,.34-.09,2.62-.34,2.21-1.73,.79-2.26-1.37-.51-1.75-1.73-1.79-2.98-.04-1.21,.24-2.62,.34-3.85,.03-.36,.04-.59,.03-.72Z" style="fill: #a8a9ac; fill-rule: evenodd;"/>
            <path d="M317.11,390.63l-10.51-6.56-10.51,6.56,2.99-12.02-9.49-7.96,12.36-.87,4.64-11.48,4.64,11.48,12.36,.87-9.49,7.96,2.99,12.02Zm0,38.7l-10.51-6.56-10.51,6.56,2.99-12.02-9.49-7.96,12.36-.87,4.64-11.48,4.64,11.48,12.36,.87-9.49,7.96,2.99,12.02Zm0,38.7l-10.51-6.56-10.51,6.56,2.99-12.02-9.49-7.96,12.36-.87,4.64-11.48,4.64,11.48,12.36,.87-9.49,7.96,2.99,12.02Zm0,38.7l-10.51-6.56-10.51,6.56,2.99-12.02-9.49-7.96,12.36-.87,4.64-11.48,4.64,11.48,12.36,.87-9.49,7.96,2.99,12.02Zm101.33-116.11l-10.51-6.56-10.51,6.56,2.99-12.02-9.49-7.96,12.36-.87,4.64-11.48,4.64,11.48,12.36,.87-9.49,7.96,2.99,12.02Zm0,38.7l-10.51-6.56-10.51,6.56,2.99-12.02-9.49-7.96,12.36-.87,4.64-11.48,4.64,11.48,12.36,.87-9.49,7.96,2.99,12.02Zm0,38.7l-10.51-6.56-10.51,6.56,2.99-12.02-9.49-7.96,12.36-.87,4.64-11.48,4.64,11.48,12.36,.87-9.49,7.96,2.99,12.02Zm0,38.7l-10.51-6.56-10.51,6.56,2.99-12.02-9.49-7.96,12.36-.87,4.64-11.48,4.64,11.48,12.36,.87-9.49,7.96,2.99,12.02Zm-49.32-116.11l-10.51-6.56-10.51,6.56,2.99-12.02-9.49-7.96,12.36-.87,4.64-11.48,4.64,11.48,12.36,.87-9.49,7.96,2.99,12.02Zm0,38.7l-10.51-6.56-10.51,6.56,2.99-12.02-9.49-7.96,12.36-.87,4.64-11.48,4.64,11.48,12.36,.87-9.49,7.96,2.99,12.02Zm0,38.7l-10.51-6.56-10.51,6.56,2.99-12.02-9.49-7.96,12.36-.87,4.64-11.48,4.64,11.48,12.36,.87-9.49,7.96,2.99,12.02Zm0,38.7l-10.51-6.56-10.51,6.56,2.99-12.02-9.49-7.96,12.36-.87,4.64-11.48,4.64,11.48,12.36,.87-9.49,7.96,2.99,12.02Zm0,38.7l-10.51-6.56-10.51,6.56,2.99-12.02-9.49-7.96,12.36-.87,4.64-11.48,4.64,11.48,12.36,.87-9.49,7.96,2.99,12.02Zm229.68-415.17c1.05,.75,1.49,1.84,2.04,3.14l2.89,6.88c1.15,2.69,1.69,4.18,2.34,4.43,1.1,.45,2.09,.4,2.09,1.15,0,.45-.25,.5-.85,.5-.85,0-1.89-.15-3.04-.15-.75,0-1.44,.15-2.19,.15-1,0-1.1-.55-1.54-1.64l-4.48-11.31c-.7-1.74-1.25-2.24-2.79-2.24h-.5c-.4,0-.65,.3-.65,.7v9.81c0,1.94,.05,3.14,2.19,3.14,.8,0,1.1,.25,1.1,.85,0,.4-.4,.7-1,.7-.5,0-1.94-.3-4.53-.3s-4.14,.3-4.73,.3c-.7,0-1.05-.3-1.05-.8,0-.95,1-.6,1.94-.85,1.59-.4,1.59-.9,1.59-3.04v-22.82c0-1.59-.1-1.99-1.1-2.29-1.3-.35-2.34,.1-2.34-.9,0-.65,.45-.7,1.35-.7,.4,0,1.54,.2,3.29,.2,2.49,0,4.88-.3,7.12-.3,5.33,0,8.17,3.09,8.17,7.72,0,3.99-2.04,6.93-5.33,7.67Zm-6.68-1.79c0,1.05,.6,1.15,2.29,1.15,3.39,0,5.18-2.19,5.18-6.33s-1.74-6.78-4.98-6.78c-2.29,0-2.49,.85-2.49,2.49v9.47Zm-28.2-9.62v17.39c0,6.08,1.2,9.27,6.48,9.27,2.64,0,4.63-.95,5.83-2.64,1.2-1.79,1.25-4.19,1.25-7.62v-12.06c0-3.79-.05-5.73-.9-6.43-.9-.7-2.69,0-2.69-1.1,0-.45,.3-.7,.85-.7,.6,0,1.69,.15,3.39,.15,1.79,0,2.94-.15,3.44-.15,.7,0,1.05,.2,1.05,.7,0,.6-.45,.7-1.44,.7-2.09,0-2.19,1.69-2.19,6.68v12.26c0,3.44-.05,6.03-1.35,8.27-1.4,2.39-4.19,3.74-8.02,3.74-4.23,0-7.07-1.1-8.77-3.59-1.35-1.94-1.44-4.33-1.44-7.37v-17.49c0-1.64-.05-1.99-1.1-2.29-1.3-.4-2.29,.1-2.29-.9,0-.4,.3-.7,.75-.7,.5,0,2.09,.4,4.93,.4s4.43-.4,4.93-.4,.75,.3,.75,.7c0,1.05-1.15,.55-2.34,.9-1,.3-1.1,.7-1.1,2.29Zm-9.23-4.58l-.3,6.58c-.05,1.1-.2,1.4-.7,1.4-.9,0-.85-1.4-1.44-3.34-.9-2.14-2.34-2.44-5.38-2.44h-.8c-.4,0-.65,.45-.65,.8v24.41c0,2.09,.05,2.54,1.35,2.99,1.15,.4,2.19-.1,2.19,1,0,.4-.35,.7-1.05,.7-1.05,0-2.64-.35-4.73-.35s-3.69,.35-4.73,.35c-.7,0-1.05-.3-1.05-.8,0-1,1.1-.55,2.19-.9,1.3-.4,1.35-.85,1.35-2.99v-24.26c0-.4-.25-.95-.65-.95h-1.39c-2.04,0-3.24,.8-4.48,2.39-1.2,1.99-1.64,3.19-2.44,3.19-.35,0-.55-.05-.55-.7,0-.05,.1-.45,.2-.85l1.25-5.08c.35-1.49,.35-2.54,1-2.54,.6,0,.55,1.64,1.15,1.69,.35,.35,1.15,.45,2.34,.45,.95,0,2.14-.05,3.59-.05h6.13c1.64,0,2.94,.1,3.89,.1,.75,0,1.3-.05,1.59-.25,.9-.55,1.1-1.99,1.59-1.99,.4,0,.55,.6,.55,.9v.55Zm-28.23,4.58v22.82c0,2.09,.05,2.59,1.35,2.99,1.15,.35,2.19-.1,2.19,1,0,.4-.35,.7-1.05,.7-.6,0-2.14-.3-4.73-.3s-4.14,.3-4.73,.3c-.7,0-1.05-.3-1.05-.8,0-.95,1-.6,1.94-.85,1.59-.4,1.59-.9,1.59-3.04v-22.82c0-1.59-.1-1.99-1.1-2.29-1.3-.35-2.34,.1-2.34-.9,0-.4,.25-.7,.75-.7s2.09,.4,4.93,.4,4.38-.4,4.93-.4c.45,0,.75,.3,.75,.7,0,.9-.9,.6-2.14,.85-1.25,.25-1.3,.75-1.3,2.34Zm-19.84,13.15l-.8-.35c-.15-.05-.25-.1-.35-.1-.4,0-.45,.3-.45,.95v9.32c0,1.69,.05,2.29,1,2.74,1.25,.55,2.39-.1,2.39,1.1,0,.4-.4,.75-1.05,.75s-2.24-.35-4.73-.35c-2.34,0-3.84,.35-4.53,.35-.44,0-.75-.14-.89-.39-.11,.3-.42,.39-1,.39-.85,0-2.19-.3-4.19-.3-2.79,0-4.48,.25-5.13,.25-.6,0-.85-.15-.85-.6s.4-.8,1-.8c1.64,0,2.04-.3,2.04-1.2,0-.45-.15-1.2-.45-2.24l-1.94-6.38c-.1-.35-.35-.4-.75-.4h-6.18c-.2,0-.5,.2-.55,.45l-1.2,4.43c-.5,1.94-.75,3.24-.75,3.84,0,1,.4,1.2,1.3,1.35,1.35,.2,1.99,.35,1.99,1.1,0,.45-.3,.6-.85,.6-.7,0-2.19-.3-4.33-.3-1.44,0-2.59,.25-3.29,.25-.6,0-.9-.25-.9-.65,0-1.05,1.49-.4,2.49-1.15,.9-.65,1.25-1.89,1.79-3.69l7.92-25.71c.25-.75,.3-1.2,.85-1.2,.7,0,.75,.95,1.2,2.34l7.52,23.72c.7,2.29,1.15,3.64,2.44,4.48,.73,.5,1.43,.52,1.71,.79,.14-.68,1.01-.41,1.87-.64,1.49-.4,1.49-1.2,1.49-3.44v-22.47c0-1.44-.1-1.94-1.05-2.24-1.25-.4-2.24,.05-2.24-.95,0-.5,.35-.7,.95-.7,.25,0,1.54,.15,3.94,.15h.8c1.15,0,2.79-.1,4.98-.1,5.78,0,8.67,3.09,8.67,9.12,0,5.03-3.14,8.77-6.83,8.77-.9,0-1.89-.35-3.09-.9Zm-1.64-3.49c0,1.44,1.35,2.14,2.59,2.14,2.24,0,4.28-2.64,4.28-6.78,0-4.48-2.14-7.47-4.53-7.47-2.04,0-2.34,.7-2.34,2.44v9.67Zm-21.97-5.23c-.1-.3-.2-.45-.3-.45s-.25,.15-.3,.4l-2.34,8.82c-.05,.25-.05,.45-.05,.5,0,.15,.15,.3,.35,.3h4.98c.2,0,.45-.2,.45-.4,0-.15-.05-.3-.1-.5l-2.69-8.67Zm-35.26,7.32c0-9.27,6.68-16.54,15-16.54,3.64,0,6.78,1.15,7.37,1.84,.35,.35,.65,2.19,.65,5.13,0,.55-.15,.9-.4,.9-.45,0-.9-.75-1.64-1.99-1.79-2.94-3.59-4.53-6.18-4.53-5.38,0-9.67,6.13-9.67,15.44,0,8.62,4.28,14.85,9.22,14.85,3.09,0,5.08-1.69,6.63-5.13,.8-1.79,1.15-2.84,1.74-2.84,.3,0,.55,.35,.55,1.05,0,.4-.15,1.84-.15,4.23s-3.54,4.28-8.57,4.28c-8.37,0-14.55-7.32-14.55-16.69Zm-30.84-7.87c0-5.13,3.39-8.67,8.82-8.67,2.79,0,5.23,.95,5.68,1.54,.25,.3,.4,2.14,.4,5.43,0,.7-.25,1.05-.65,1.05-.7,0-.75-.95-1.44-2.64-1.05-2.64-2.09-4.09-4.43-4.09-2.94,0-4.78,1.99-4.78,5.13,0,2.64,1.49,4.09,4.63,5.73,5.33,2.79,8.32,5.33,8.32,10.96s-4.04,10.11-9.62,10.11c-4.38,0-7.37-1.44-7.37-4.28,0-1.15,.1-2.19,.1-3.14,0-.75-.05-1.2-.05-1.3,0-1.05,.3-1.54,.75-1.54,.9,0,.65,1.59,1.2,3.49,1,3.34,3.44,5.33,5.98,5.33,2.99,0,5.38-2.54,5.38-5.98,0-3.04-1.89-5.38-5.68-7.52-4.04-2.29-7.22-3.79-7.22-9.62Zm-15.35,.55c-.1-.3-.2-.45-.3-.45s-.25,.15-.3,.4l-2.34,8.82c-.05,.25-.05,.45-.05,.5,0,.15,.15,.3,.35,.3h4.98c.2,0,.45-.2,.45-.4,0-.15-.05-.3-.1-.5l-2.69-8.67Zm2.44-6.88l7.52,23.72c.7,2.29,1.15,3.64,2.44,4.48,.95,.65,1.84,.5,1.84,1.1,0,.55-.3,.7-1.05,.7-.85,0-2.19-.3-4.18-.3-2.79,0-4.48,.25-5.13,.25-.6,0-.85-.15-.85-.6s.4-.8,1-.8c1.64,0,2.04-.3,2.04-1.2,0-.45-.15-1.2-.45-2.24l-1.94-6.38c-.1-.35-.35-.4-.75-.4h-6.18c-.2,0-.5,.2-.55,.45l-1.2,4.43c-.5,1.94-.75,3.24-.75,3.84,0,1,.4,1.2,1.3,1.35,1.35,.2,1.99,.35,1.99,1.1,0,.45-.3,.6-.85,.6-.7,0-2.19-.3-4.33-.3-1.44,0-2.59,.25-3.29,.25-.6,0-.9-.25-.9-.65,0-1.05,1.49-.4,2.49-1.15,.9-.65,1.25-1.89,1.79-3.69l7.92-25.71c.25-.75,.3-1.2,.85-1.2,.7,0,.75,.95,1.2,2.34Zm-10.47-2.14l-.3,6.58c-.05,1.1-.2,1.4-.7,1.4-.9,0-.85-1.4-1.44-3.34-.9-2.14-2.34-2.44-5.38-2.44h-.8c-.4,0-.65,.45-.65,.8v24.41c0,2.09,.05,2.54,1.35,2.99,1.15,.4,2.19-.1,2.19,1,0,.4-.35,.7-1.05,.7-1.05,0-2.64-.35-4.73-.35s-3.69,.35-4.73,.35c-.7,0-1.05-.3-1.05-.8,0-1,1.1-.55,2.19-.9,1.3-.4,1.35-.85,1.35-2.99v-24.26c0-.4-.25-.95-.65-.95h-1.39c-2.04,0-3.24,.8-4.48,2.39-1.2,1.99-1.64,3.19-2.44,3.19-.35,0-.55-.05-.55-.7,0-.05,.1-.45,.2-.85l1.25-5.08c.35-1.49,.35-2.54,1-2.54,.6,0,.55,1.64,1.15,1.69,.35,.35,1.15,.45,2.34,.45,.95,0,2.14-.05,3.59-.05h6.13c1.64,0,2.94,.1,3.89,.1,.75,0,1.3-.05,1.59-.25,.9-.55,1.1-1.99,1.59-1.99,.4,0,.55,.6,.55,.9v.55Zm-30.82,15.99c1.05,.75,1.49,1.84,2.04,3.14l2.89,6.88c1.15,2.69,1.69,4.18,2.34,4.43,1.1,.45,2.09,.4,2.09,1.15,0,.45-.25,.5-.85,.5-.85,0-1.89-.15-3.04-.15-.75,0-1.44,.15-2.19,.15-1,0-1.1-.55-1.54-1.64l-4.48-11.31c-.7-1.74-1.25-2.24-2.79-2.24h-.5c-.4,0-.65,.3-.65,.7v9.81c0,1.94,.05,3.14,2.19,3.14,.8,0,1.1,.25,1.1,.85,0,.4-.4,.7-1,.7-.5,0-1.94-.3-4.53-.3s-4.13,.3-4.73,.3c-.7,0-1.05-.3-1.05-.8,0-.95,1-.6,1.94-.85,1.59-.4,1.59-.9,1.59-3.04v-22.82c0-1.59-.1-1.99-1.1-2.29-1.3-.35-2.34,.1-2.34-.9,0-.65,.45-.7,1.35-.7,.4,0,1.54,.2,3.29,.2,2.49,0,4.88-.3,7.12-.3,5.33,0,8.17,3.09,8.17,7.72,0,3.99-2.04,6.93-5.33,7.67Zm-6.68-1.79c0,1.05,.6,1.15,2.29,1.15,3.39,0,5.18-2.19,5.18-6.33s-1.74-6.78-4.98-6.78c-2.29,0-2.49,.85-2.49,2.49v9.47Zm-11.43-11.81v4.28c0,.85-.1,1.25-.55,1.25-.9,0-.65-2.09-2.44-3.74-1.35-1.25-3.34-1.89-6.08-1.89s-2.79,.7-2.79,3.04v8.22c0,.85,0,1,.9,1h2.24c2.04,0,3.74-.45,4.18-.9,1.35-1.3,.7-3.04,1.74-3.04,.45,0,.6,.2,.6,.7,0,1.25-.25,2.94-.25,4.93,0,2.34,.15,3.79,.15,4.23,0,.6-.25,.9-.6,.9-.85,0-.65-1.54-1.69-3.49-.8-1.49-2.09-1.64-4.18-1.64h-2.19c-.7,0-.9,.2-.9,.9v10.26c0,2.74,.65,3.19,3.59,3.19,3.09,0,4.73-.4,6.28-2.84,1.2-1.84,1.59-3.44,2.39-3.44,.2,0,.5,.3,.5,.45,0,0-.05,.35-.1,.9l-.55,4.83c-.15,1.54-.1,1.74-1.54,1.74-2.04,0-6.33-.4-12.7-.4-2.94,0-4.48,.25-4.88,.25-.75,0-1.1-.25-1.1-.8,0-.9,.9-.6,2.14-.8,1.44-.2,1.49-1.15,1.49-3.09v-22.82c0-1.49,0-1.99-.95-2.29-1.1-.35-2.14,.1-2.14-.9,0-.45,.3-.7,.85-.7,.4,0,2.84,.2,7.42,.2,5.83,0,9.12-.2,9.77-.2,1.35,0,1.39,.45,1.39,1.49v.2Zm-37.13,13.75c-.4,0-.65,.25-.65,.65v10.21c0,2.54,1.05,3.74,4.04,3.74,3.94,0,6.38-2.74,6.38-7.57,0-4.23-2.29-7.02-6.68-7.02h-3.09Zm8.22-1.25c4.19,.85,6.53,3.89,6.53,8.52,0,5.33-3.69,9.12-9.32,9.12-3.59,0-6.53-.75-8.97-.75-1.84,0-3.09,.3-3.74,.3-.6,0-.95-.3-.95-.8,0-.55,.35-.75,1.2-.75,1.49,0,1.94-.8,1.94-2.14,0-.15,.05-.45,.05-1v-22.82c0-1.35-.45-1.94-1.35-1.94-.65,0-1.25,.25-1.74,.25-.4,0-.6-.25-.6-.7,0-1,3.14-1.54,9.32-1.54,8.32,0,12.51,2.29,12.51,7.67,0,3.29-1.54,5.33-4.88,6.58Zm-8.87-1.89c0,1.44,.05,1.54,1.54,1.54h.65c4.28,0,6.78-2.14,6.78-5.93,0-4.09-2.14-6.33-6.08-6.33-2.54,0-2.89,.6-2.89,2.39v8.32Zm-13.59-8.42v22.82c0,2.09,.05,2.59,1.35,2.99,1.15,.35,2.19-.1,2.19,1,0,.4-.35,.7-1.05,.7-.6,0-2.14-.3-4.73-.3s-4.14,.3-4.73,.3c-.7,0-1.05-.3-1.05-.8,0-.95,1-.6,1.94-.85,1.59-.4,1.59-.9,1.59-3.04v-22.82c0-1.59-.1-1.99-1.1-2.29-1.3-.35-2.34,.1-2.34-.9,0-.4,.25-.7,.75-.7s2.09,.4,4.93,.4,4.38-.4,4.93-.4c.45,0,.75,.3,.75,.7,0,.9-.9,.6-2.14,.85-1.25,.25-1.3,.75-1.3,2.34Zm-20.55,0v22.82c0,2.14,1.15,3.24,3.24,3.24s3.74-.9,5.13-2.74c1.49-1.99,2.04-3.34,2.59-3.34,.2,0,.45,.25,.45,.4,0,.05,0,.4-.05,.9l-.5,4.68c-.05,.45-.1,.7-.1,.85,0,.55-.35,.85-1,.85-2.09,0-6.13-.45-12.01-.45-2.59,0-4.13,.3-4.73,.3-.7,0-1.05-.3-1.05-.8,0-.95,1-.6,1.94-.85,1.59-.4,1.59-.9,1.59-3.04v-22.82c0-1.49-.05-1.99-1-2.29-1.2-.4-2.14,.1-2.14-.9,0-.4,.25-.7,.65-.7,.5,0,1.89,.4,4.58,.4,2.99,0,4.58-.4,5.08-.4,.45,0,.75,.3,.75,.7,0,.9-.9,.6-2.14,.85-1.25,.25-1.3,.75-1.3,2.34Zm334.07,245.56h4.51c.89,0,1.31,.1,1.31,.58,0,.94-2.2,.68-3.93,2.57-1.31,1.41-1.99,3.51-1.99,6.39s.73,2.93,3.2,2.93h8.65c.89,0,1.05,0,1.05-.94v-2.36c0-2.15-.47-3.93-.94-4.4-1.36-1.41-3.2-.73-3.2-1.83,0-.47,.21-.63,.73-.63,1.31,0,3.09,.26,5.19,.26,2.46,0,3.98-.16,4.45-.16,.63,0,.94,.26,.94,.63,0,.89-1.62,.68-3.67,1.78-1.57,.84-1.73,2.2-1.73,4.4v2.31c0,.73,.21,.94,.94,.94h10.79c2.88,0,3.35-.68,3.35-3.77,0-3.25-.42-4.98-2.99-6.6-1.94-1.26-3.62-1.68-3.62-2.52,0-.21,.31-.52,.47-.52,0,0,.37,.05,.94,.1l5.08,.58c1.62,.16,1.83,.1,1.83,1.62,0,2.15-.42,6.65-.42,13.36,0,3.09,.26,4.72,.26,5.14,0,.79-.26,1.15-.84,1.15-.94,0-.63-.94-.84-2.25-.21-1.52-1.21-1.57-3.25-1.57h-24c-1.57,0-2.1,0-2.41,1-.37,1.15,.1,2.25-.94,2.25-.47,0-.73-.31-.73-.89,0-.42,.21-2.99,.21-7.81,0-6.13-.21-9.59-.21-10.27,0-1.41,.47-1.47,1.57-1.47h.21Zm2.31,36.67h24c2.25,0,3.41-1.21,3.41-3.41s-.94-3.93-2.88-5.4c-2.1-1.57-3.51-2.15-3.51-2.72,0-.21,.26-.47,.42-.47,.05,0,.42,0,.94,.05l4.93,.52c.47,.05,.73,.1,.89,.1,.58,0,.89,.37,.89,1.05,0,2.2-.47,6.45-.47,12.63,0,2.72,.31,4.35,.31,4.98,0,.73-.31,1.1-.84,1.1-1,0-.63-1.05-.89-2.04-.42-1.68-.94-1.68-3.2-1.68h-24c-1.57,0-2.1,.05-2.41,1.05-.42,1.26,.1,2.25-.94,2.25-.42,0-.73-.26-.73-.68,0-.52,.42-1.99,.42-4.82,0-3.14-.42-4.82-.42-5.34,0-.47,.31-.79,.73-.79,.94,0,.63,.94,.89,2.25,.26,1.31,.79,1.36,2.46,1.36Zm0,16.88h24c2.2,0,2.72-.05,3.14-1.41,.37-1.21-.1-2.31,1.05-2.31,.42,0,.73,.37,.73,1.1,0,.63-.31,2.25-.31,4.98s.31,4.35,.31,4.98c0,.73-.31,1.1-.84,1.1-1,0-.63-1.05-.89-2.04-.42-1.68-.94-1.68-3.2-1.68h-24c-1.68,0-2.1,.1-2.41,1.15-.37,1.36,.1,2.46-.94,2.46-.42,0-.73-.26-.73-.79s.42-2.2,.42-5.19-.42-4.61-.42-5.19c0-.47,.31-.79,.73-.79,.94,0,.63,.94,.89,2.25,.26,1.31,.79,1.36,2.46,1.36Zm0,34.83h9.54c.47,0,.68-.21,.68-.68v-11.89c0-.42-.31-.63-.73-.63h-9.48c-1.68,0-2.1,.05-2.41,1.1-.37,1.36,.1,2.46-.94,2.46-.42,0-.73-.26-.73-.79s.42-2.2,.42-5.19-.42-4.61-.42-5.19c0-.47,.31-.79,.73-.79,.94,0,.63,.94,.89,2.25,.26,1.31,.79,1.36,2.46,1.36h24c2.2,0,2.72,0,3.14-1.36,.37-1.21-.1-2.36,1.05-2.36,.42,0,.73,.42,.73,1.15,0,.63-.31,2.2-.31,4.93s.31,4.35,.31,4.98c0,.73-.31,1.15-.84,1.15-1,0-.63-1.05-.89-2.04-.42-1.68-.94-1.68-3.2-1.68h-11.21c-.42,0-.73,.21-.73,.63v11.89c0,.42,.31,.68,.73,.68h11.21c2.2,0,2.72-.05,3.14-1.41,.37-1.21-.1-2.31,1.05-2.31,.42,0,.73,.37,.73,1.1,0,.63-.31,2.25-.31,4.98s.31,4.35,.31,4.98c0,.73-.31,1.1-.84,1.1-1,0-.63-1.05-.89-2.04-.42-1.68-.94-1.68-3.2-1.68h-24c-1.68,0-2.1,.1-2.41,1.15-.37,1.36,.1,2.46-.94,2.46-.42,0-.73-.26-.73-.79s.42-2.2,.42-5.19-.42-4.61-.42-5.19c0-.47,.31-.79,.73-.79,.94,0,.63,.94,.89,2.25,.26,1.31,.79,1.36,2.46,1.36Zm12.37,38.66c-9.75,0-17.4-7.02-17.4-15.77,0-3.83,1.21-7.13,1.94-7.76,.37-.37,2.31-.68,5.4-.68,.58,0,.94,.16,.94,.42,0,.47-.79,.94-2.1,1.73-3.09,1.89-4.77,3.77-4.77,6.5,0,5.66,6.45,10.17,16.24,10.17,9.07,0,15.62-4.51,15.62-9.69,0-3.25-1.78-5.34-5.4-6.97-1.89-.84-2.99-1.21-2.99-1.83,0-.31,.37-.58,1.1-.58,.42,0,1.94,.16,4.45,.16s4.51,3.72,4.51,9.01c0,8.8-7.7,15.3-17.55,15.3Zm-15.32,25.22l4.5,.16c.89,.03,1.31,.15,1.29,.62-.03,.94-2.22,.6-4.02,2.43-1.36,1.37-2.11,3.44-2.21,6.32-.1,2.78,.63,2.96,3.09,3.04l8.64,.3c.89,.03,1.05,.04,1.08-.91l.08-2.36c.07-2.15-.33-3.94-.79-4.43-1.31-1.46-3.17-.84-3.13-1.94,.02-.47,.23-.62,.75-.6,1.31,.05,3.08,.37,5.18,.44,2.46,.09,3.99-.02,4.46,0,.63,.02,.93,.29,.92,.66-.03,.89-1.65,.62-3.73,1.65-1.6,.78-1.8,2.14-1.88,4.34l-.08,2.3c-.03,.73,.18,.95,.91,.98l10.79,.38c2.88,.1,3.38-.56,3.48-3.65,.11-3.25-.25-4.99-2.75-6.7-1.89-1.32-3.55-1.8-3.53-2.64,0-.21,.33-.51,.49-.51,0,0,.36,.07,.94,.14l5.06,.75c1.62,.21,1.83,.17,1.78,1.69-.07,2.15-.65,6.64-.88,13.34-.11,3.09,.1,4.72,.08,5.14-.03,.79-.3,1.14-.88,1.12-.94-.03-.6-.96-.76-2.28-.16-1.53-1.15-1.61-3.19-1.68l-23.98-.84c-1.57-.05-2.09-.07-2.44,.91-.41,1.14,.03,2.26-1.02,2.22-.47-.02-.72-.34-.7-.92,.01-.42,.31-2.98,.48-7.8,.21-6.13,.12-9.59,.15-10.27,.05-1.41,.52-1.45,1.62-1.41h.21Zm8.97,55.07l-20.2-13.62c-.91-.62-1.51-.76-2.01-.03-.44,.65-.37,1.39-.72,1.91-.18,.26-.58,.3-.97,.04-1.13-.76,.54-5.01,4.96-11.57,5.57-8.25,14.88-9.5,23.26-3.84,8.47,5.71,10.53,14.18,4.7,22.83-1.52,2.26-3.22,3.83-4.24,5.35-.91,1.35-1.42,2.77-2.16,3.85-.41,.61-.88,.74-1.31,.44-.83-.56,.06-1.22,.4-2.19,.59-1.62,.16-1.92-1.71-3.18Zm1.38-4.76c3,2.02,4.48,2.26,6.24-.34,3.75-5.56,1.32-12.45-6.5-17.72-7.34-4.95-15.07-4.92-18.68,.42-2.02,3-1.47,3.87,.22,5.02l18.72,12.63Zm-56.01,1.54v24c0,2.25,1.21,3.41,3.41,3.41s3.93-.94,5.4-2.88c1.57-2.1,2.15-3.51,2.72-3.51,.21,0,.47,.26,.47,.42,0,.05,0,.42-.05,.94l-.52,4.93c-.05,.47-.1,.73-.1,.89,0,.58-.37,.89-1.05,.89-2.2,0-6.45-.47-12.63-.47-2.72,0-4.35,.31-4.98,.31-.73,0-1.1-.31-1.1-.84,0-1,1.05-.63,2.04-.89,1.68-.42,1.68-.94,1.68-3.2v-24c0-1.57-.05-2.1-1.05-2.41-1.26-.42-2.25,.1-2.25-.94,0-.42,.26-.73,.68-.73,.52,0,1.99,.42,4.82,.42,3.14,0,4.82-.42,5.34-.42,.47,0,.79,.31,.79,.73,0,.94-.94,.63-2.25,.89-1.31,.26-1.36,.79-1.36,2.46Zm-25.69,4.66c-.1-.31-.21-.47-.31-.47s-.26,.16-.31,.42l-2.46,9.27c-.05,.26-.05,.47-.05,.52,0,.16,.16,.31,.37,.31h5.24c.21,0,.47-.21,.47-.42,0-.16-.05-.31-.1-.52l-2.83-9.12Zm2.57-7.23l7.91,24.94c.73,2.41,1.21,3.83,2.57,4.72,1,.68,1.94,.52,1.94,1.15,0,.58-.31,.73-1.1,.73-.89,0-2.31-.31-4.4-.31-2.93,0-4.72,.26-5.4,.26-.63,0-.89-.16-.89-.63s.42-.84,1.05-.84c1.73,0,2.15-.31,2.15-1.26,0-.47-.16-1.26-.47-2.36l-2.04-6.71c-.1-.37-.37-.42-.79-.42h-6.5c-.21,0-.52,.21-.58,.47l-1.26,4.66c-.52,2.04-.79,3.41-.79,4.03,0,1.05,.42,1.26,1.36,1.41,1.41,.21,2.1,.37,2.1,1.15,0,.47-.31,.63-.89,.63-.73,0-2.31-.31-4.56-.31-1.52,0-2.72,.26-3.46,.26-.63,0-.94-.26-.94-.68,0-1.1,1.57-.42,2.62-1.21,.94-.68,1.31-1.99,1.89-3.88l8.33-27.04c.26-.79,.31-1.26,.89-1.26,.73,0,.79,1,1.26,2.46Zm-25.14,14.57c1.1,.79,1.57,1.94,2.15,3.3l3.04,7.23c1.21,2.83,1.78,4.4,2.46,4.66,1.15,.47,2.2,.42,2.2,1.2,0,.47-.26,.52-.89,.52-.89,0-1.99-.16-3.2-.16-.79,0-1.52,.16-2.31,.16-1.05,0-1.15-.58-1.62-1.73l-4.72-11.89c-.73-1.83-1.31-2.36-2.93-2.36h-.52c-.42,0-.68,.31-.68,.73v10.32c0,2.04,.05,3.3,2.31,3.3,.84,0,1.15,.26,1.15,.89,0,.42-.42,.73-1.05,.73-.52,0-2.04-.31-4.77-.31s-4.35,.31-4.98,.31c-.73,0-1.1-.31-1.1-.84,0-1,1.05-.63,2.04-.89,1.68-.42,1.68-.94,1.68-3.2v-24c0-1.68-.1-2.1-1.15-2.41-1.36-.37-2.46,.1-2.46-.94,0-.68,.47-.73,1.41-.73,.42,0,1.62,.21,3.46,.21,2.62,0,5.14-.31,7.49-.31,5.61,0,8.59,3.25,8.59,8.12,0,4.19-2.15,7.28-5.61,8.07Zm-7.02-1.89c0,1.1,.63,1.21,2.41,1.21,3.56,0,5.45-2.31,5.45-6.65s-1.83-7.13-5.24-7.13c-2.41,0-2.62,.89-2.62,2.62v9.96Zm-12.44-14.93l-.31,6.92c-.05,1.15-.21,1.47-.73,1.47-.94,0-.89-1.47-1.52-3.51-.94-2.25-2.46-2.57-5.66-2.57h-.84c-.42,0-.68,.47-.68,.84v25.68c0,2.2,.05,2.67,1.41,3.14,1.21,.42,2.31-.1,2.31,1.05,0,.42-.37,.73-1.1,.73-1.1,0-2.78-.37-4.98-.37s-3.88,.37-4.98,.37c-.73,0-1.1-.31-1.1-.84,0-1.05,1.15-.58,2.31-.94,1.36-.42,1.41-.89,1.41-3.14v-25.52c0-.42-.26-1-.68-1h-1.47c-2.15,0-3.41,.84-4.72,2.52-1.26,2.1-1.73,3.35-2.57,3.35-.37,0-.58-.05-.58-.73,0-.05,.1-.47,.21-.89l1.31-5.34c.37-1.57,.37-2.67,1.05-2.67,.63,0,.58,1.73,1.21,1.78,.37,.37,1.21,.47,2.46,.47,1,0,2.25-.05,3.77-.05h6.45c1.73,0,3.09,.1,4.09,.1,.79,0,1.36-.05,1.68-.26,.94-.58,1.15-2.1,1.68-2.1,.42,0,.58,.63,.58,.94v.58Zm-46.87,8.91c0-5.4,3.56-9.12,9.28-9.12,2.93,0,5.5,1,5.97,1.62,.26,.31,.42,2.25,.42,5.71,0,.73-.26,1.1-.68,1.1-.73,0-.79-1-1.52-2.78-1.1-2.78-2.2-4.3-4.66-4.3-3.09,0-5.03,2.1-5.03,5.4,0,2.78,1.57,4.3,4.87,6.03,5.61,2.93,8.75,5.61,8.75,11.53s-4.24,10.64-10.11,10.64c-4.61,0-7.76-1.52-7.76-4.51,0-1.21,.1-2.31,.1-3.3,0-.79-.05-1.26-.05-1.36,0-1.1,.31-1.62,.79-1.62,.94,0,.68,1.68,1.26,3.67,1.05,3.51,3.62,5.61,6.29,5.61,3.14,0,5.66-2.67,5.66-6.29,0-3.2-1.99-5.66-5.97-7.91-4.24-2.41-7.6-3.98-7.6-10.11Zm-25.26-4.09v18.29c0,6.39,1.26,9.75,6.81,9.75,2.78,0,4.87-1,6.13-2.78,1.26-1.89,1.31-4.4,1.31-8.02v-12.68c0-3.98-.05-6.03-.94-6.76-.94-.73-2.83,0-2.83-1.15,0-.47,.31-.73,.89-.73,.63,0,1.78,.16,3.56,.16,1.89,0,3.09-.16,3.62-.16,.73,0,1.1,.21,1.1,.73,0,.63-.47,.73-1.52,.73-2.2,0-2.31,1.78-2.31,7.02v12.89c0,3.62-.05,6.34-1.41,8.7-1.47,2.52-4.4,3.93-8.44,3.93-4.45,0-7.44-1.15-9.22-3.77-1.41-2.04-1.52-4.56-1.52-7.76v-18.39c0-1.73-.05-2.1-1.15-2.41-1.36-.42-2.41,.1-2.41-.94,0-.42,.31-.73,.79-.73,.52,0,2.2,.42,5.19,.42s4.66-.42,5.19-.42,.79,.31,.79,.73c0,1.1-1.21,.58-2.46,.94-1.05,.31-1.15,.73-1.15,2.41Zm-23.86,4.66c-.1-.31-.21-.47-.31-.47s-.26,.16-.31,.42l-2.46,9.27c-.05,.26-.05,.47-.05,.52,0,.16,.16,.31,.37,.31h5.24c.21,0,.47-.21,.47-.42,0-.16-.05-.31-.1-.52l-2.83-9.12Zm2.57-7.23l7.91,24.94c.73,2.41,1.21,3.83,2.57,4.72,1,.68,1.94,.52,1.94,1.15,0,.58-.31,.73-1.1,.73-.89,0-2.31-.31-4.4-.31-2.93,0-4.72,.26-5.4,.26-.63,0-.89-.16-.89-.63s.42-.84,1.05-.84c1.73,0,2.15-.31,2.15-1.26,0-.47-.16-1.26-.47-2.36l-2.04-6.71c-.1-.37-.37-.42-.79-.42h-6.5c-.21,0-.52,.21-.58,.47l-1.26,4.66c-.52,2.04-.79,3.41-.79,4.03,0,1.05,.42,1.26,1.36,1.41,1.41,.21,2.1,.37,2.1,1.15,0,.47-.31,.63-.89,.63-.73,0-2.31-.31-4.56-.31-1.52,0-2.73,.26-3.46,.26-.63,0-.94-.26-.94-.68,0-1.1,1.57-.42,2.62-1.21,.94-.68,1.31-1.99,1.89-3.88l8.33-27.04c.26-.79,.31-1.26,.89-1.26,.73,0,.79,1,1.26,2.46Zm-70.23,26.57v-24.37c0-1.1-.21-1.68-1.1-1.68-.79,0-1.36,.47-1.99,.47-.31,0-.58-.31-.58-.79,0-1.36,4.45-2.36,12.37-2.36,9.96,0,16.19,7.02,16.19,17.14s-5.87,16.66-16.3,16.66c-2.72,0-4.98-.52-6.81-.52-1.62,0-3.09,.37-4.4,.37-.73,0-1.1-.31-1.1-.84,0-1,1.05-.63,2.04-.89,1.68-.42,1.68-.94,1.68-3.2Zm4.72-1.52c0,3.62,.63,4.98,3.77,4.98,6.71,0,11.06-5.87,11.06-15.3,0-8.86-4.35-15.25-10.79-15.25-3.62,0-4.03,.94-4.03,2.99v22.58Zm-25.69-17.82c-.1-.31-.21-.47-.31-.47s-.26,.16-.31,.42l-2.46,9.27c-.05,.26-.05,.47-.05,.52,0,.16,.16,.31,.37,.31h5.24c.21,0,.47-.21,.47-.42,0-.16-.05-.31-.1-.52l-2.83-9.12Zm2.57-7.23l7.91,24.94c.73,2.41,1.21,3.83,2.57,4.72,1,.68,1.94,.52,1.94,1.15,0,.58-.31,.73-1.1,.73-.89,0-2.31-.31-4.4-.31-2.93,0-4.72,.26-5.4,.26-.63,0-.89-.16-.89-.63s.42-.84,1.05-.84c1.73,0,2.15-.31,2.15-1.26,0-.47-.16-1.26-.47-2.36l-2.04-6.71c-.1-.37-.37-.42-.79-.42h-6.5c-.21,0-.52,.21-.58,.47l-1.26,4.66c-.52,2.04-.79,3.41-.79,4.03,0,1.05,.42,1.26,1.36,1.41,1.41,.21,2.1,.37,2.1,1.15,0,.47-.31,.63-.89,.63-.73,0-2.31-.31-4.56-.31-1.52,0-2.72,.26-3.46,.26-.63,0-.94-.26-.94-.68,0-1.1,1.57-.42,2.62-1.21,.94-.68,1.31-1.99,1.89-3.88l8.33-27.04c.26-.79,.31-1.26,.89-1.26,.73,0,.79,1,1.26,2.46Zm-48.51,17.04l10.68-21.9c.48-.99,.55-1.6-.25-1.99-.71-.34-1.43-.17-2-.45-.28-.14-.38-.54-.17-.96,.6-1.22,5.04-.17,12.15,3.3,8.95,4.36,11.47,13.41,7.04,22.5-4.48,9.18-12.58,12.4-21.95,7.83-2.45-1.19-4.24-2.65-5.89-3.46-1.46-.71-2.94-1.03-4.12-1.6-.66-.32-.85-.76-.62-1.24,.44-.89,1.22-.11,2.23,.1,1.69,.36,1.92-.11,2.91-2.14Zm4.9,.7c-1.58,3.25-1.62,4.75,1.21,6.13,6.03,2.94,12.51-.43,16.64-8.9,3.88-7.96,2.78-15.61-3.02-18.44-3.25-1.58-4.04-.92-4.94,.92l-9.9,20.3Zm-2.7-32.63l-20.35,12.72c-1.87,1.17-2.28,1.49-1.92,2.87,.33,1.22,1.31,1.9,.33,2.51-.36,.22-.82,.08-1.21-.54-.33-.53-.93-2.08-2.37-4.39-1.44-2.31-2.57-3.52-2.9-4.05-.39-.62-.32-1.1,.13-1.38,.84-.53,1.09,.56,1.84,1.26,1.24,1.2,1.69,.92,3.6-.27l20.35-12.72c1.42-.89,1.72-1.2,1.43-2.25-.41-1.35-1.39-2.03-.51-2.59,.36-.22,.76-.17,1.04,.28,.28,.44,.81,2.09,2.39,4.62,1.58,2.53,2.8,3.69,3.1,4.18,.25,.4,.15,.83-.21,1.06-.8,.5-1.03-.47-1.95-1.44-.92-.97-1.39-.74-2.81,.15Zm-11-25.88c5.3-1.03,9.63,1.76,10.72,7.36,.56,2.88,.07,5.59-.45,6.17-.26,.32-2.13,.84-5.53,1.5-.72,.14-1.13-.05-1.21-.46-.14-.72,.83-.96,2.44-2.02,2.52-1.61,3.8-2.98,3.33-5.4-.59-3.04-3.02-4.54-6.26-3.91-2.73,.53-3.92,2.36-4.99,5.93-1.81,6.06-3.83,9.66-9.65,10.79-6.02,1.17-11.25-2.14-12.37-7.9-.88-4.53,.01-7.9,2.94-8.47,1.18-.23,2.28-.34,3.26-.53,.77-.15,1.22-.29,1.33-.31,1.08-.21,1.65,0,1.74,.46,.18,.93-1.52,.99-3.36,1.93-3.25,1.7-4.81,4.62-4.3,7.24,.6,3.09,3.7,5.05,7.25,4.36,3.14-.61,5.18-3.03,6.63-7.37,1.56-4.63,2.46-8.22,8.48-9.39Zm-6.67-13.64c-.79,1.1-1.94,1.57-3.3,2.15l-7.23,3.04c-2.83,1.2-4.4,1.78-4.66,2.46-.47,1.15-.42,2.2-1.21,2.2-.47,0-.52-.26-.52-.89,0-.89,.16-1.99,.16-3.2,0-.79-.16-1.52-.16-2.31,0-1.05,.58-1.15,1.73-1.62l11.89-4.72c1.83-.73,2.36-1.31,2.36-2.93v-.52c0-.42-.31-.68-.73-.68h-10.32c-2.04,0-3.3,.05-3.3,2.31,0,.84-.26,1.15-.89,1.15-.42,0-.73-.42-.73-1.05,0-.52,.31-2.04,.31-4.77s-.31-4.35-.31-4.98c0-.73,.31-1.1,.84-1.1,1,0,.63,1.05,.89,2.04,.42,1.68,.94,1.68,3.2,1.68h24c1.68,0,2.1-.1,2.41-1.15,.37-1.36-.1-2.46,.94-2.46,.68,0,.73,.47,.73,1.41,0,.42-.21,1.62-.21,3.46,0,2.62,.31,5.13,.31,7.49,0,5.61-3.25,8.59-8.12,8.59-4.19,0-7.28-2.15-8.07-5.61Zm1.89-7.02c-1.1,0-1.21,.63-1.21,2.41,0,3.56,2.31,5.45,6.65,5.45s7.13-1.83,7.13-5.24c0-2.41-.89-2.62-2.62-2.62h-9.96Zm12.42-14.6h-4.51c-.89,0-1.31-.1-1.31-.58,0-.94,2.2-.68,3.93-2.57,1.31-1.41,1.99-3.51,1.99-6.39s-.73-2.93-3.2-2.93h-8.65c-.89,0-1.05,0-1.05,.94v2.36c0,2.15,.47,3.93,.94,4.4,1.36,1.41,3.2,.73,3.2,1.83,0,.47-.21,.63-.73,.63-1.31,0-3.09-.26-5.19-.26-2.46,0-3.98,.16-4.45,.16-.63,0-.94-.26-.94-.63,0-.89,1.62-.68,3.67-1.78,1.57-.84,1.73-2.2,1.73-4.4v-2.31c0-.73-.21-.94-.94-.94h-10.79c-2.88,0-3.35,.68-3.35,3.77,0,3.25,.42,4.98,2.99,6.6,1.94,1.26,3.62,1.68,3.62,2.52,0,.21-.31,.52-.47,.52,0,0-.37-.05-.94-.1l-5.08-.58c-1.62-.16-1.83-.1-1.83-1.62,0-2.15,.42-6.65,.42-13.36,0-3.09-.26-4.72-.26-5.13,0-.79,.26-1.15,.84-1.15,.94,0,.63,.94,.84,2.25,.21,1.52,1.21,1.57,3.25,1.57h24c1.57,0,2.1,0,2.41-1,.37-1.15-.1-2.25,.94-2.25,.47,0,.73,.31,.73,.89,0,.42-.21,2.99-.21,7.81,0,6.13,.21,9.59,.21,10.27,0,1.41-.47,1.47-1.57,1.47h-.21Zm-2.67-26.65l-28.03-9.17c-.63-.21-.94-.42-.94-.68,0-.47,1.1-.68,2.41-1.15l24.52-8.44c2.62-.89,4.24-1.36,4.77-2.41,.37-.73,.05-2.1,.84-2.1,.47,0,.79,.26,.79,.84,0,.31-.31,2.41-.31,6.55,0,1.62,.26,2.83,.26,3.41,0,.52-.16,.73-.63,.73-1.47,0-.16-2.67-2.25-2.67-.52,0-1.26,.16-2.2,.47l-16.82,5.82c-.79,.26-1.15,.42-1.15,.63s.42,.42,1.15,.63l15.3,4.51c1.62,.47,2.78,.68,3.41,.68,2.67,0,1.15-3.09,2.67-3.09,.42,0,.73,.37,.73,1,0,.52-.31,1.73-.31,3.67,0,2.15,.21,3.35,.21,3.62,0,.68-.21,1-.68,1-1.05,0-.52-1.26-.94-2.1-.42-.84-1.36-1.26-2.78-1.73Zm.37-29.88h-24c-2.2,0-2.72,.05-3.14,1.41-.37,1.21,.1,2.31-1.05,2.31-.42,0-.73-.37-.73-1.1,0-.63,.31-2.25,.31-4.98s-.31-4.35-.31-4.98c0-.73,.31-1.1,.84-1.1,1,0,.63,1.05,.89,2.04,.42,1.68,.94,1.68,3.2,1.68h24c1.68,0,2.1-.1,2.41-1.15,.37-1.36-.1-2.46,.94-2.46,.42,0,.73,.26,.73,.79s-.42,2.2-.42,5.19,.42,4.61,.42,5.19c0,.47-.31,.79-.73,.79-.94,0-.63-.94-.89-2.25-.26-1.31-.79-1.36-2.46-1.36Zm4.09-40.54v6.71c0,.47-.05,.58-.52,.89l-22.79,14.04c-.05,.21,.21,.31,.52,.31h14.36c1.47,0,2.36-.05,2.67-.05,3.77,0,4.24-.16,4.24-3.04,0-.52,.31-.94,.73-.94,.47,0,.79,.52,.79,1.36,0,.94-.16,2.1-.16,3.62s.16,2.52,.16,3.25-.31,1.15-.79,1.15c-.58,0-.68-.21-.68-.89v-.52c0-1.83-1.68-1.99-5.5-1.99h-26.15c-.68,0-1.31-.37-1.31-.79,0-.37,.31-.68,.84-1l28.09-17.24c.05-.21-.21-.31-.52-.31h-20.38c-3.93,0-5.08,.21-5.08,2.31,0,.31,.05,.63,.05,.94,0,.42-.31,.73-.84,.73-.47,0-.79-.47-.79-1.36,0-.94,.21-2.15,.21-3.62,0-1.31-.21-2.41-.21-3.35,0-.84,.31-1.26,.79-1.26,.58,0,.84,.26,.84,1v.47c0,2.15,1.47,2.31,5.55,2.31h21.8c1.57,0,2.1-.05,2.41-1.05,.37-1.26-.05-2.41,.94-2.41,.47,0,.73,.26,.73,.73Zm-4.08-24.68h-18.29c-6.39,0-9.75,1.26-9.75,6.81,0,2.78,1,4.87,2.78,6.13,1.89,1.26,4.4,1.31,8.02,1.31h12.68c3.98,0,6.03-.05,6.76-.94,.73-.94,0-2.83,1.15-2.83,.47,0,.73,.31,.73,.89,0,.63-.16,1.78-.16,3.56,0,1.89,.16,3.09,.16,3.62,0,.73-.21,1.1-.73,1.1-.63,0-.73-.47-.73-1.52,0-2.2-1.78-2.31-7.02-2.31h-12.89c-3.62,0-6.34-.05-8.7-1.41-2.52-1.47-3.93-4.4-3.93-8.44,0-4.45,1.15-7.44,3.77-9.22,2.04-1.41,4.56-1.52,7.76-1.52h18.39c1.73,0,2.1-.05,2.41-1.15,.42-1.36-.1-2.41,.94-2.41,.42,0,.73,.31,.73,.79,0,.52-.42,2.2-.42,5.19s.42,4.66,.42,5.19-.31,.79-.73,.79c-1.1,0-.58-1.21-.94-2.46-.31-1.05-.73-1.15-2.41-1.15Zm214.45,2.18c-2.7,9.64,5.13,.2,8.1,.14-1.33-2.63-6.58-1.02-8.1-.14Zm99.95,43.36c2.41,2.63-7.12-16.18-12.66-17.55-15.65-3.88-18.48,13.66-18.1,26.36,.11,3.75-2.91,5.77-5.18,6.15-8.08,1.35-14.52,8.05,2.48,1.5,8.37,0,1.4-4.02,4.82-11.69,2.53-5.67,15.4-11.54,15.41-11.48,0,.06,8.79,1.86,13.24,6.71Zm-75.59-23.71c1.73,7.12-9.25,6.51-8.18,14.34,1.01,7.39,15.48,11.14,13.13,18.22-.39,1.15-18.95-.32-12.5,4.44,6.93-2.89,15.01-.77,16.2,.49,.89-.53,1.79-.78,1.79-1.84,0-3.18-3.49-8.22-7-12.14-3.15-3.52,3.14-10.93,8.48-15.04,5.63-4-8.61-17.51-11.92-8.47Zm-23.04,5.95c-1.78,.92-1.31,8.96,7.57-1.42,1.1-1.29,2.23-1.59,3.91-1.95,3.47-.75,7.42-6.91,3.94-10.65-.25-.39-2.8-1.41-2.69-1.15,.04,.1-2.32-3.1-3.03-4.17l-.71,.18c4.43,3.41-.29,10.45-2.6,4.94-.34-.82-2.47,6.56-3.27,6.25l-5.31,4.96c4.54-.34,3.68,2.26,2.2,3.02Zm98.94,33.73c1.41-3.53,1.21-5.93,1.21-5.93,0,0-2.1,4.76-4.78,7.51-2.66,2.74-4.44,2.11-6.07,2.14-.89-1.13-1.73-2.23-4.48-1.73-3.02,.55-4.49,1.36-6.76,3.55,0,0,5.12-4.32,8.01-1.8,.48,.42,.59,.79,1.2,1.07,.08,.19,.24,.46,.47,.82,4.22,.45,9.15-1.3,11.21-5.64Zm-97.29-28.74c-1.44,.68-3.11,1.01-4.86,1.01-5.79,0-10.49-4.03-10.49-9.01,0-.59,2.59-1.33,2.71-1.89l2.55-10.02s-.08-1.58,.06-2.73c.14-1.15,.61-1.79,.61-1.79-10.74-4.24-5.3-15.69-4.03-17.45,1.15-1.6-.17,7.47,3.71,8.82,2.25,.78,3.8,.72,4.83,.67,0,0,4.59-1.85,7.89-1.64,3.3,.22,7.22,3.27,7.55,2.84,10.31,.8,8.56-10.01,10.3-10.54,.96-.29,3.75,12.7-.38,14.38l15.84,7.82s15.74,1.79,32.85,7.51c5.15,1.72,13.24-.61,17.38,1.92,3.47,2.13,10.01,9.62,10.01,9.62,4.08,4.73,7.48,17.94,5.94,25.31-2.96,14.21-14.42,14.68-16.63,14.66-1.93,3.22-4.53,2.19-9.14,1.67-7.88-.24-13.71,0-22.46-.03-4.5,0-1.86-4.85-3.18-4.85h-49.98c-3.49,0-1.78-3.11-.89-6.28,.94-3.36,.09-5.26,3.31-6.59,2.32-.96,1.12-.79,2.19-3.2,.74-1.67,1.2-2.92-.58-6.35-1.77-3.43-3.04-4.33-3.33-6.2-.5-3.23,.24-8.92-1.73-7.7l-.07,.02Zm-14.46,63.59c-2.7,9.64,5.13,.2,8.1,.14-1.33-2.63-6.58-1.02-8.1-.14Zm100.78,41.92c2.41,2.63-7.12-16.18-12.66-17.55-15.65-3.88-18.48,13.66-18.1,26.36,.11,3.75-2.91,5.77-5.18,6.15-8.08,1.35-14.52,8.05,2.48,1.5,8.37,0,1.4-4.02,4.82-11.69,2.53-5.67,15.4-11.54,15.41-11.48s8.79,1.86,13.24,6.71Zm-75.59-23.71c1.73,7.12-9.25,6.51-8.18,14.34,1.01,7.39,15.48,11.14,13.13,18.22-.39,1.15-18.95-.32-12.5,4.44,6.93-2.89,15.01-.77,16.2,.49,.89-.53,1.79-.78,1.79-1.84,0-3.18-3.49-8.22-7-12.14-3.15-3.52,3.14-10.93,8.48-15.04,5.63-4-8.61-17.51-11.92-8.47Zm-23.51,7.01c-1.78,.92-1.32,8.96,7.56-1.42,1.11-1.29,2.23-1.59,3.91-1.95,3.47-.75,7.42-6.91,3.94-10.65-.25-.39-2.8-1.41-2.69-1.15,.04,.1-2.32-3.1-3.03-4.17l-.71,.18c4.43,3.41-.29,10.45-2.6,4.94-.34-.82-2.47,6.56-3.27,6.25l-5.31,4.96c4.54-.34,3.68,2.26,2.2,3.02Zm98.94,33.73c1.41-3.53,1.21-5.93,1.21-5.93,0,0-2.1,4.76-4.78,7.51-2.66,2.74-4.44,2.11-6.07,2.14-.89-1.13-1.73-2.23-4.48-1.73-3.02,.55-4.49,1.36-6.76,3.55,0,0,5.12-4.32,8.01-1.8,.48,.42,.59,.79,1.2,1.07,.08,.19,.24,.46,.47,.82,4.22,.45,9.15-1.3,11.21-5.64Zm-97.29-28.74c-1.44,.68-3.11,1.01-4.86,1.01-5.79,0-10.49-4.03-10.49-9.01,0-.59,2.59-1.33,2.71-1.89l2.55-10.02s-.08-1.58,.06-2.73c.14-1.15,.61-1.79,.61-1.79-10.74-4.24-5.3-15.69-4.03-17.45,1.15-1.6-.17,7.47,3.71,8.82,2.25,.78,3.8,.72,4.83,.67,0,0,4.59-1.85,7.89-1.64,3.3,.22,7.22,3.27,7.55,2.84,10.31,.8,8.56-10.01,10.31-10.54,.96-.29,3.75,12.7-.38,14.39l15.84,7.82s15.74,1.79,32.85,7.51c5.15,1.72,13.24-.61,17.38,1.92,3.47,2.13,10.01,9.62,10.01,9.62,4.08,4.73,7.48,17.94,5.94,25.31-2.96,14.21-14.42,14.68-16.63,14.66-1.93,3.22-4.53,2.19-9.14,1.67-6.42-.18-13.71,0-22.46-.03-4.5,0-1.86-4.85-3.18-4.85h-49.98c-3.49,0-1.78-3.11-.89-6.28,.94-3.36,.09-5.26,3.31-6.59,2.32-.96,1.12-.79,2.19-3.2,.74-1.67,1.2-2.92-.58-6.35-1.77-3.43-3.04-4.33-3.33-6.2-.5-3.23,.24-8.92-1.73-7.7l-.07,.02Zm-112-254.22h10.48c.78,0,1.41,.63,1.41,1.41v10.48c0,.78-.63,1.41-1.41,1.41l-1.38-2.19h-8.13s0-8.02,0-8.02l-2.38-1.69c0-.78,.63-1.41,1.41-1.41Zm-24.32,13.97l-3.69-1.26h-2.07v-4.9l-1.63-3.48c0-.44,.24-.83,.54-.87l6.85-2.15c.3-.04,.54,.29,.54,.73v11.05c0,.44-.24,.83-.54,.87Zm261.19,248.43v-150.83h-153.59v197.03h107.39c25.51,0,46.2-20.68,46.2-46.2Zm0-156.83V162.76h-153.58v183.37c7.04-2.4,30.92-6.55,51.26-8.44,5.22-7.72,10.4-18.04,7.34-30.85-2.56,.02-1.86,1.85-4.52,1.86-2.66,0-.99,.55-3.65,.55-1.33,0-1.73,.04-2.13,0-.39-.04-.78-.15-2.08-.45-2.59-.59-1.08-2.87-3.67-3.45-2.59-.59-.86-.4-3.04-1.92-2.18-1.52-2.49,.87-4.67-.65-1.08-.75-1.42-.97-1.67-1.27-.25-.31-.41-.69-1.15-1.82-1.47-2.22-2.41-.27-3.87-2.48-1.47-2.22-2.05-1.82-2.57-4.43-.52-2.61-.28-5.18-.8-7.78-.52-2.61,.76-2.09,1.21-4.71,.45-2.62-.92-1.3-.47-3.92,.45-2.62,2.42-.64,3.71-2.96,1.29-2.32-1.46-1.95-.17-4.27,1.29-2.32,2.62,.61,4.59-1.17,1.97-1.78-1.24-2.81,.73-4.59,1.97-1.78,4.39-10.76,3.57-13.29-.81-2.53,.96-1.81,1.43-4.43,.48-2.61,2.33-.95,2.81-3.57,.48-2.61-1.98-1.93-.62-4.21,1.36-2.28,3.34,.58,4.7-1.7,1.36-2.28-.79-1.31,1.26-2.99,2.06-1.68,1.21-.41,3.27-2.09,2.06-1.68-.55-2.89,1.96-3.76,2.44-.84,.95-1.4,3.16-2.22-.82-2.78-.17-.68-.91-3.23-.74-2.55,2.55-1.23,1.81-3.78-.74-2.55-.4-.37-1.14-2.92-.74-2.55-1.79-1.18-1.26-3.78,.53-2.6,3.79-4.31,5.27-6.51,1.49-2.2,2.33-5.42-.84-6.06,1.49-2.2,.87-2.48,3.07-3.96,2.2-1.49,3.5,2.32,5.71,.83,2.2-1.49,.04-4.57,2.65-5.1,2.6-.53,2.44,3.19,5.05,2.66,2.6-.53,1.14-.25,3.75,.28,2.6,.53,1.57,1.13,4.17,1.66,2.6,.53,2.47-2.61,4.67-1.13,2.2,1.49,1.65,.43,3.85,1.92,2.2,1.49-.81,2.76,.68,4.96,1.49,2.2,1.04,1.24,2.52,3.45,1.49,2.2,3.91,.02,4.43,2.63,.53,2.6-1.02,2-.49,4.61,.53,2.6,1.54,1.28,.79,3.83-.74,2.55,.16,.53-.58,3.08-.74,2.55,.5,6.62,3.01,7.49,2.51,.87,.96,1.54,3.01,3.22,2.06,1.68,1.09,.55,3.15,2.24,2.06,1.68-.85,2.03,.51,4.31,1.36,2.28,2.3,.04,3.67,2.32,1.36,2.28-1.66,1.53-1.18,4.14,.48,2.61,3.23,.79,3.71,3.4,.48,2.61,.7,1.36-.11,3.89-.81,2.53-1.61,.27-2.43,2.8-.81,2.53-.39,.67-1.2,3.2-.78,2.43,1.25,1.34,.68,3.51,.32-.18,.77-.22,1.39,.04,2.44,1.05-.69,4.18,1.75,5.23,2.44,1.05,2.14-1.77,4.11,.01,1.97,1.78,1.18,.13,3.15,1.92,1.97,1.78,.23,1.39,1.52,3.72,1.29,2.32,1.3,.41,2.59,2.74,1.29,2.32,1.38,1.13,1.83,3.75,.45,2.62-1.11,1.33-.66,3.95,.45,2.62,2.51,1.86,2.01,4.47-.5,2.61-3.97,4.33-4.48,6.94-.5,2.61,1.2,1.8-.23,4.05-1.42,2.24-1.91,.46-3.33,2.71-1.42,2.24-.72,.38-2.85,1.96-2.13,1.58,.04,2.41-2.09,4-2.13,1.58-1.09,.85-3.65,1.55-2.56,.7-1.9-1.21-4.46-.51-2.56,.7-.66,3.87-3.32,3.88-2.66,0-1-1.58-3.66-1.58-2.66,0-.99,.96-3.65,.96-2.66,0-1-.81-3.65-.8-2.66,0,.24-1.74-2.41-1.74-.55,0-1.34,.42-1.6,.61-2.62,12.28,1.73,22.59,6.67,30.25,24.57,1.37,39.28,4.38,56.66,8.98Zm-157.53-183.38h-150.8l-.03,183.81c6.31-2.38,24.52-5.77,24.52-5.77l7.1-67.73c-.7-.38-1.75-1.43-1.66-2.57,.09-1.19,2.18-2.14,2.18-2.14l4.8-44.4c0-.32,.41-.52,.41-.53,1.02-.3,7.65-1.79,7.89-1.74,1.58,.21,2.58,.47,3.53,.63,.56,.12,.67,.27,.73,.6,0,.06,1.13,6.5,1.15,6.42,1.69-.24,3.23-.42,4.51-.6,.06-.36,.74-8.42,1.18-8.84,.2-.26,.58-.18,4.38-.48,.03-.86,.05-40.82,.03-41.89-1.39-.26-1.82-1.43-1.87-2.2-.04-.65,.57-2.31,2.29-2.31,.26,.01,.96,.09,1.46,.55-.66-.45-2.31-.2-2.37,1.43-.02,.47,.55,1.59,1.61,1.59,.9,0,1.45-.69,1.55-1.18-.05,1.23-1,1.88-1.55,2.04,.08,.71,1.94,41.45,1.95,41.7,1.93-.12,4.73-.37,5.16-.34,.53,.04,2.03,.68,2.64,.81,.32,1.84,.61,4.05,.95,5.76,.82-.14,6.4-.6,7.72-.62,.23-1.79,.52-4.55,.67-5.52,.07-.39,.39-.45,.64-.45,.6,0,11.26,.85,11.84,.93,.42,.03,.54,.26,.6,.74,.15,1.21,.31,3.54,.52,4.87,1.27,.16,6.92,.79,6.9,.79-.03-.01,.38-3.07,.54-3.89,.35-.1,1.38-.5,2.2-.66,2.56,.56,5.4,1.24,7.35,1.7,.17,.07,2.68,.67,2.73,.97,0,0-1.77,3.45-1.1,8.78l4.52,36.16s1.95,.66,2.08,2.06c.06,.69-.8,1.87-1.79,2.32l8.51,67.55s18.11,3.77,24.29,5.11V162.76Zm161.48,340.21c0,27.69-22.45,50.14-50.14,50.14h-215.99c-27.69,0-50.15-22.45-50.15-50.14l.06-344.16h316.21V502.97ZM329.6,229.51l1.53,.11-1.09-5.88-1.27-.29,.83,6.06Zm23.62-1.72l-1.07-7.17-1.27-.34,.83,7.46,1.51,.05Zm-25.9-4.31c-2.49,1.14-3.2,1.95-4.16,3.38-1.36,2.04-1.82,12.83-1.91,14.99-.1,2.48,.05,1.58-.18,4.02-.23,2.44-.43,5.09-.66,7.52-.23,2.44,.56,.18,.33,2.61-.23,2.44-.59,1.1-.82,3.54-.23,2.44,1.37,.82,1.14,3.26-.14,1.46,1.41,1.76,.93,3.23,0,1.24,2.11,.75,3.09,.9,8.79-1.06,21.05-1.92,35.41-1.63,13.22,.06,29.84,1.7,35.36,2.85-.4-5.65-1.33-12.52-1.33-12.52l-4.43-1.92-.59-10.43c0-.78,.65-1.31,1.43-1.17l2.7,.77c-.18-5-1.4-16.81-1.7-17.88-1.6-.36-5.05-1.29-6.16-1.5-.09,.47-.72,5.13-1.04,7.66-.04,.34-.25,.55-.73,.48-2.21-.39-6.15-1.01-8.51-1.34-.39-.1-.81-.27-.87-.59-.16-1.31-.65-7.91-.75-7.97-.1-.06-6.11-.69-9.57-.96-.13,1.54-.73,5.54-.99,7.65-.06,.38-.71,.76-1.12,.76-3.23,.15-10.86,.23-11.93,.23-.49-6.96-6.43-8.44-7.95-8.35-.78,.05-1.72,.07-2.92,.17-.14,1.31-.76,7.36-.91,8.45-.03,.25-.23,.44-.52,.5-.27,.06-7.85,.43-9.39,.65-.16-.02-.57-4.3-1.23-7.35Zm30.81,115.01c-1.86-29.95,30.05-29.5,28.4,.65,0,0,14.52,1.87,15.06,1.71,1.17-.34,1.31-1.7,1.14-2.9-.1-.74-1.04-13.03-1.01-13.61,.1-1.63-5.67-52.87-5.67-52.87-6.54-1.96-25.3-2.53-36.98-2.65-.3,.05-.66,.08-1.06,.09-7.62,.09-26.2,.99-35.51,2.41,0,0-2.01,1.29-2.2,4.41-.09,1.06-1.79,2.78-1.99,5.22-.2,2.44,.82,3.19,.61,5.63-.2,2.44,.58-.13,.38,2.3-.2,2.44-1.1,5.57,1.19,6.43,1.43,.54,2.54,2.59-.79,3-.58,.21-1.02,.06-1.04,.49-.12,2.44,1.22,2.78,1.11,5.22-.12,2.44-.95,.95-1.07,3.39-.04,.91,1.08,4.73-.23,5.23-.22,.42-.11,2.73-.12,3.18-.01,.74,2.86,4.15,2.45,5.13-.57,1.37,.98,2.76,1.78,2.47,1.18-.44,6.58,2.5-.35,3.32-.76,.32-1.11,.76-.85,1.4,.91,2.27,1.85-.05,3.56,1.7,1.71,1.75-.33,2.76,1.38,4.51,1.71,1.75,2.54-.33,4.85,.5,2.3,.83,1.68,3.18,3.98,4.01,.88,.32,22.88-.54,22.99-.37Zm186.3-77.6c-.62-.27-1.07-.22-1.39-.04,.57-2.17-1.46-1.07-.68-3.51,.81-2.53,.39-.67,1.2-3.2,.81-2.53,1.61-.27,2.43-2.8,.81-2.53,.59-1.28,.11-3.89-.48-2.61-3.23-.79-3.71-3.4-.48-2.61,2.54-1.86,1.18-4.14-1.36-2.28-2.3-.04-3.67-2.32-1.36-2.28,1.55-2.63-.51-4.31-2.06-1.68-1.09-.55-3.15-2.23-2.06-1.68-.5-2.36-3.01-3.22-2.51-.87-3.75-4.94-3.01-7.49,.74-2.55-.16-.53,.58-3.08,.74-2.55-.27-1.22-.79-3.83-.53-2.6,1.02-2,.49-4.61-.53-2.6-2.95-.42-4.43-2.63-1.49-2.2-1.04-1.24-2.52-3.45-1.49-2.2,1.52-3.48-.68-4.96-2.2-1.49-2.8,4.6-5.01,3.12-2.2-1.49-4.89-1.13-4.93-.54-.18,2.65-4.14-2.42-4.33,.24-.18,2.65-1.12,.55-1.42,3.19-.3,2.64-2.61,.57-2.91,3.21-.3,2.64-3.01,3.42-3.31,6.06-.3,2.64-.26,2.72-.56,5.36-.3,2.64,2.03,.88,3.57,3.05,1.53,2.17-4.03,2.27-2.5,4.44,1.53,2.17,2.13,1.4,3.66,3.57,1.53,2.17-8.65,4.64-2.23,9.28,2.15,1.56-3.9,6.11-7.14-.36-1.43-2.85-7.49,4.28-3.57,7.85,1.97,1.79,2.85,2.85-6.07,5.71-2.53,.81,2.14,7.14-4.64,8.56,0,0-2.85,7.14,2.85,5.71,6.42-2.5,3.24,.56,4.58,2.85,1.35,2.29-.99,3.78,.36,6.07,1.35,2.29-5.63,1.99-4.28,4.28,1.35,2.29,5,4.82,3.21,6.78-6.6,7.22,4.36,4.85,5.71,7.14,1.35,2.29,7.54,2.85,4.32,8.21-1.37,2.28,10,.06,11.06,2.5,1.06,2.44,6.43-3.51,7.49-1.07,1.06,2.44,7.86-4.75,8.92-2.32,1.06,2.44,7.32-1.9,8.38,.54,1.06,2.44,3.58-.12,4.64,2.32,1.06,2.44,5.72-5.65,6.78-3.21,1.06,2.44,4.82-.71,9.81-6.07,1.46-1.56,2.02-7.18,4.1-6.07,.5-2.61-2.1-4.65-2.55-7.27-.45-2.62,2.91-.02,2.46-2.64-.45-2.62-.54-1.43-1.83-3.75-1.29-2.32-1.3-.41-2.59-2.74-1.29-2.32,.45-1.93-1.52-3.72-1.97-1.78-1.18-.13-3.15-1.92-1.97-1.78-1.67,1.04-4.11,0-2.44-1.05,.69-4.18-1.75-5.23Zm-41.43,76.25l25.79,.09c-1.5-5.26-7.32-13.15-6.23-24.56-1.18-1.18-.93,.64-1.89,1.03-.51-.26-2.11-1.07-2.43-1.08-.3,0-.64,1.65-1.3,1.35-.74-.33-1.28-2.04-1.3-2.12,0-.03-1.36-.06-2.71,.1-.16,3.88-2.84,.55-2.66,1.38-2.4,.23-2.77-.72-2.96-.71-.39,.01-1.34,17.48-4.29,24.53Zm158.05,205.44c-.02,37-42.27,72.65-80.27,72.66h-122.3c-.65-.05-18.25-.94-21.83,12.49l-2.99,11.22-3.1-11.19c-3.75-13.52-19.96-12.56-20.42-12.52h-118.65c-38.12,.03-82.03-35.74-81.53-72.72V93.44s451.1,0,451.1,0v449.13Zm-6.31,0V99.76H216.27v442.82c-.44,32.57,39.65,66.37,75.22,66.35h118.44c8.73-.51,18.66,2.96,23.69,10.45,5.32-7.72,16.06-10.95,25.07-10.45h122.1c35.25-.01,73.94-33.53,73.95-66.35Z" style="fill-rule: evenodd;"/>
          </g>
        </g>
        <g>
          <rect x="209.95" y="666.89" width="1679.6" height="173.25"/>
          <text transform="translate(583.36 810.15)" style="fill: #fff; font-family: Garamond-LightCondensed, &apos;ITC Garamond&apos;; font-size: 160px; font-weight: 300;"><tspan x="0" y="0">Sede Puerto Montt</tspan></text>
        </g>
      </g>
    </g>
  </g>
</svg>