<?xml version="1.0" encoding="UTF-8"?>
<svg id="Layer_2" data-name="Layer 2" xmlns="http://www.w3.org/2000/svg" viewBox="0 0 2701.54 1551.28">
  <g id="OKAY">
    <g id="Logo-UACh-SedePuertoMontt-Principal-Color-TextoBlanco">
      <rect x="0" width="2701.54" height="1551.28" style="fill: none;"/>
      <g>
        <g>
          <g>
            <path d="M392.51,1041.84c9.47,0,11.57,4.2,17.35,26.29,12.1,46.26,16.82,61.51,16.82,66.77,0,11.04-6.31,13.14-13.67,13.14-8.41,0-13.67,2.63-13.67,6.83s4.21,5.78,8.94,5.78c9.99,0,23.66-2.1,37.33-2.1,12.09,0,20.5,2.1,32.06,2.1,7.89,0,11.05-1.05,11.05-4.2,0-5.26-8.94-6.31-15.77-8.42-5.78-2.1-10.52-11.04-13.15-20.5-37.85-136.16-56.25-201.36-82.02-293.88-2.62-9.47-3.67-12.62-8.94-12.62s-6.83,5.25-9.99,15.77c-27.34,99.89-52.05,212.4-81.49,300.2-4.73,14.19-20.5,7.89-20.5,17.87,0,3.68,2.1,5.78,5.78,5.78,3.15,0,5.78-2.1,29.44-2.1,12.09,0,23.14,2.1,32.07,2.1,5.78,0,8.94-1.05,8.94-5.78,0-5.78-6.84-5.78-16.82-7.36-13.15-2.1-15.25-7.89-15.25-14.2,0-7.36,2.1-16.29,13.67-64.14,6.31-25.76,8.94-27.34,17.35-27.34h60.46Zm-32.06-137.22c3.15,0,5.25,2.1,7.36,10.52,17.35,68.87,28.92,103.04,28.92,109.88,0,4.2-1.05,4.2-37.86,4.2-29.96,0-31.54-.52-31.54-3.68,0-2.62,3.68-17.87,25.24-103.57,3.68-14.72,4.2-17.35,7.89-17.35Z" style="fill: #fff; fill-rule: evenodd;"/>
            <path d="M539.26,939.32c0-18.39-.52-20.5-8.41-20.5h-40.49c-7.89,0-11.04,3.67-11.04,7.36,0,4.73,3.15,6.31,13.67,7.36,11.57,1.05,14.72,5.25,14.72,15.77v155.61c1.58,45.21,30.49,56.78,59.93,56.78,41.01,0,59.93-32.59,68.35-32.59,3.15,0,3.68,1.05,3.68,20.5,0,14.19,2.1,15.24,3.67,15.24,2.1,0,17.35-7.89,41.54-17.34,6.83-2.63,9.99-5.26,9.99-7.89,0-4.21-2.63-5.26-14.2-6.31-9.99-1.05-12.09-5.78-12.09-24.71v-177.7c0-11.04-2.63-12.09-7.89-12.09h-46.79c-6.31,0-8.94,3.67-8.94,6.83,0,7.36,3.68,6.31,17.35,7.89,13.14,1.57,14.72,6.31,14.72,18.39v142.48c0,26.28-27.87,47.31-54.68,47.31-25.24,0-43.11-15.77-43.11-44.16v-158.25Z" style="fill: #fff; fill-rule: evenodd;"/>
            <path d="M712.29,977.7c0,78.86,98.31,65.19,98.31,132.49,0,24.71-15.77,42.06-40.48,42.06-19.45,0-31.54-15.25-38.91-36.81-8.41-25.24-7.36-30.49-12.61-30.49-4.21,0-5.78,4.2-5.78,31.02,0,36.28,2.1,41,7.36,42.58,8.94,2.63,19.45,6.31,41.53,6.31,47.32,0,78.34-27.86,78.34-75.18,0-73.6-101.46-75.18-101.46-126.18,0-20.5,16.82-36.28,39.43-36.28,16.3,0,24.19,10.52,29.97,24.71,7.89,19.98,7.89,27.87,13.14,27.87s5.25-8.94,5.25-27.34c0-19.98-.52-27.87-3.15-29.44-9.46-4.73-22.61-8.42-39.43-8.42-33.64,0-71.5,17.35-71.5,63.09Z" style="fill: #fff; fill-rule: evenodd;"/>
            <path d="M914.23,948.26c0-7.89,1.57-9.47,6.83-9.47h23.66c11.04,0,14.19-3.15,14.19-9.99,0-6.31-3.68-7.89-13.14-7.89h-21.03c-7.89,0-10.51-3.15-10.51-11.57v-46.79c0-11.57-1.58-13.14-4.73-13.14-3.68,0-3.68,2.63-8.94,12.62-26.82,51-43.11,59.93-43.11,66.24s3.67,6.31,8.41,6.31c7.89,0,16.82,0,16.82,8.41v176.65c0,33.12,15.25,45.21,38.91,45.21,14.2,0,25.76-3.15,33.12-15.77,6.83-11.56,12.09-28.39,12.09-32.59,0-3.15-1.57-4.2-4.73-4.2-8.41,0-12.09,30.49-32.06,30.49-9.47,0-15.77-3.15-15.77-21.03v-173.49Z" style="fill: #fff; fill-rule: evenodd;"/>
            <path d="M1004.19,1119.65c0,24.19-2.63,26.29-17.35,28.39-6.83,1.05-10.52,2.1-11.04,6.31-.53,4.73,3.15,6.31,9.99,6.31,3.68,0,9.47-2.1,33.64-2.1,31.55,0,36.28,2.1,40.49,2.1,9.46,0,12.09-1.05,12.09-5.78,0-3.68-5.78-4.73-17.35-6.83-17.87-3.15-18.92-9.46-18.92-33.64v-109.36c0-13.66,9.47-65.19,32.59-65.19,5.26,0,5.26,8.94,5.26,17.35,0,11.57,4.2,21.03,18.39,21.03s19.45-12.09,19.45-28.91c0-21.56-9.99-34.7-27.34-34.7-35.75,0-42.06,45.21-49.95,45.21-5.25,0,1.58-45.21-6.83-45.21-4.2,0-6.31,3.68-13.67,11.57-17.87,18.92-35.22,13.67-35.22,24.19,0,3.15,1.57,4.2,5.25,4.2,15.24,0,20.5,3.68,20.5,22.61v142.47Z" style="fill: #fff; fill-rule: evenodd;"/>
            <path d="M1274.99,950.89c0-28.39-9.46-36.28-41-36.28-25.24,0-53.1,8.94-74.13,27.87-23.66,21.56-29.96,38.38-29.96,51,0,8.41,2.62,11.56,11.04,11.56,17.87,0,27.86-14.19,31.54-27.33,7.89-28.92,20.5-50.48,48.9-50.48,15.24,0,22.08,8.42,22.08,36.28v29.97c0,17.87-9.46,20.5-56.25,54.67-40.48,29.44-55.2,44.69-55.2,70.45,0,30.49,16.82,46.26,38.38,46.26,44.68,0,63.62-38.38,72.02-38.38,7.89,0,2.63,36.28,33.65,36.28s42.05-32.06,42.05-42.58c0-5.78-1.57-7.36-4.2-7.36-7.89,0-4.2,23.66-24.19,23.66-9.46,0-14.72-10.51-14.72-18.92v-166.66Zm-31.54,140.9c0,14.72-4.2,22.61-15.77,33.12-11.57,10.51-22.61,17.87-34.7,17.87-14.72,0-26.29-9.99-26.29-31.02,0-30.49,24.71-54.67,59.41-78.34,8.41-5.78,9.99-6.31,13.14-6.31s4.2,1.58,4.2,6.83v57.83Z" style="fill: #fff; fill-rule: evenodd;"/>
            <path d="M1353.38,1125.96c0,14.19-3.15,19.45-22.08,22.08-4.2,.53-8.42,3.15-8.42,6.31,0,4.73,3.68,6.31,6.31,6.31,5.25,0,11.57-2.1,40.48-2.1,32.59,0,38.91,2.1,43.11,2.1,3.68,0,5.78-2.63,5.78-6.31,0-4.21-4.2-4.73-9.99-6.31-17.35-4.73-23.66-4.73-23.66-17.87v-336.47c0-6.31-1.05-7.36-2.63-7.36-5.25,0-5.25,4.72-47.84,19.98-5.78,2.1-7.36,3.15-7.36,6.83s2.62,4.2,11.04,5.78c12.62,2.1,15.24,5.25,15.24,13.14v293.89Z" style="fill: #fff; fill-rule: evenodd;"/>
          </g>
          <g>
            <path d="M1577.19,996.97c0,1.11-.37,1.85-1.49,1.85-2.96,0-10.36-10.74-28.5-10.74-38.5,0-62.56,43.69-62.56,89.96,0,51.45,17.76,86.25,56.27,86.25,26.28,0,32.21-18.5,35.91-18.5,1.48,0,2.59,2.22,2.59,4.07l1.48,8.88c.74,4.07,2.59,5.55,5.93,5.55,1.85,0,3.7,0,18.51-6.66,12.96-5.93,15.18-6.29,15.18-19.25,0-5.93-.74-7.77-3.33-7.77-4.07,0-5.55,17.4-14.8,17.4-1.85,0-2.96-2.59-2.96-14.07v-230.99c0-4.44-.74-5.18-1.85-5.18-3.7,0-3.7,3.33-33.69,14.07-4.07,1.48-5.18,2.22-5.18,4.81s1.85,2.96,7.77,4.07c8.88,1.48,10.74,3.7,10.74,9.25v67Zm0,128.09c0,17.77-15.92,25.17-29.62,25.17-25.92,0-38.5-24.43-38.5-77.74,0-57.01,22.21-75.52,38.13-75.52,17.77,0,29.99,15.55,29.99,36.65v91.44Z" style="fill: #fff; fill-rule: evenodd;"/>
            <path d="M1726.78,1069.52c8.89,0,8.89-1.11,8.89-22.95,0-37.02-19.99-58.49-46.64-58.49-31.84,0-62.94,29.62-62.94,91.81,0,50.35,23.7,84.4,64.42,84.4,29.24,0,45.9-21.47,45.9-44.79,0-3.71-1.11-4.45-2.59-4.45-2.59,0-2.59,3.71-7.03,12.58-6.29,12.59-16.66,21.1-32.58,21.1-25.91,0-43.68-28.14-43.68-72.56,0-3.7,2.22-6.67,8.51-6.67h67.74Zm-75.52-18.51c0-30.36,15.54-54.05,35.53-54.05,16.29,0,28.14,14.81,28.14,40.35,0,9.99-1.48,14.07-4.81,16.66-3.33,2.59-17.77,5.18-42.57,5.18-15.55,0-16.29-1.48-16.29-8.15Z" style="fill: #fff; fill-rule: evenodd;"/>
            <path d="M1855.26,1039.91c0-80.7,30.36-108.83,54.42-108.83,18.51,0,31.84,14.44,40.72,41.83,5.55,17.03,6.29,18.14,9.63,18.14s3.33-.74,3.33-17.4c0-36.27-.74-38.13-3.33-40.35-4.07-3.33-22.96-11.1-45.17-11.1-53.67,0-89.21,48.87-89.21,122.16s38.5,121.42,89.59,121.42c17.03,0,39.24-5.19,46.64-11.48,3.71-2.59,4.81-4.44,4.81-11.48l.37-46.64c0-10-2.22-10.36-5.55-10.36-3.71,0-3.71,5.18-7.41,24.06-5.18,25.54-16.66,47.01-41.09,47.01-28.88,0-57.75-28.88-57.75-116.98Z" style="fill: #fff; fill-rule: evenodd;"/>
            <path d="M2025.59,1037.69c0-18.51,19.62-33.31,38.5-33.31,17.77,0,30.36,11.1,30.36,31.1v103.65c0,9.25-2.96,11.84-12.96,13.33-4.44,.74-7.03,1.48-7.03,4.81,0,2.97,1.48,4.07,5.55,4.07s6.67-1.48,25.54-1.48c14.81,0,25.91,1.48,27.4,1.48,2.59,0,5.18-1.11,5.18-3.7,0-3.33-2.59-4.45-9.99-5.19-8.15-.74-11.48-5.55-11.48-17.4v-102.54c-1.11-29.62-21.47-42.2-42.2-42.2-25.18,0-42.94,23.69-46.27,23.69-1.85,0-2.59-.74-2.59-2.59v-108.46c0-4.44-.74-5.18-1.85-5.18-3.7,0-3.7,3.33-33.68,14.07-4.07,1.48-5.19,2.22-5.19,4.81s1.85,2.96,7.77,4.07c8.89,1.48,10.74,3.7,10.74,9.25v203.23c0,14.44-2.59,17.77-14.81,19.25-3.33,.37-5.19,2.59-5.19,4.45,0,2.96,1.85,4.44,4.81,4.44,5.19,0,8.14-1.48,25.17-1.48,24.8,0,28.88,1.48,31.1,1.48,2.97,0,5.19-1.11,5.19-3.7,0-2.97-1.11-4.07-8.14-5.19-12.21-1.85-15.92-6.66-15.92-15.18v-99.58Z" style="fill: #fff; fill-rule: evenodd;"/>
            <path d="M2171.12,1135.42c0,12.95-1.85,14.81-15.18,17.02-4.81,.74-6.29,2.59-6.29,4.81,0,2.59,1.85,4.07,4.45,4.07,3.33,0,7.77-1.48,27.76-1.48s23.32,1.48,28.14,1.48c4.44,0,5.55-1.11,5.55-3.7,0-2.97-2.22-3.71-9.26-5.19-12.95-2.59-12.95-8.51-12.95-18.88v-141.78c0-2.59-1.11-3.71-2.97-3.71-2.59,0-9.99,8.52-27.39,14.81-8.14,2.96-10.74,4.81-10.74,6.66s1.48,3.33,3.33,3.71c12.96,2.59,15.54,5.18,15.54,13.7v108.46Zm-2.59-190.28c0,13.33,6.66,18.51,13.69,18.51,7.4,0,13.7-5.19,13.7-18.51s-6.29-18.51-13.7-18.51-13.69,5.55-13.69,18.51Z" style="fill: #fff; fill-rule: evenodd;"/>
            <path d="M2252.23,1136.9c0,9.99-2.22,13.7-15.54,15.54-2.96,.37-5.93,2.22-5.93,4.45,0,3.33,2.59,4.44,4.45,4.44,3.7,0,8.15-1.48,28.5-1.48,22.95,0,27.4,1.48,30.36,1.48,2.59,0,4.07-1.85,4.07-4.44,0-2.97-2.96-3.33-7.03-4.45-12.22-3.33-16.66-3.33-16.66-12.59v-236.92c0-4.44-.74-5.18-1.85-5.18-3.7,0-3.7,3.33-33.69,14.07-4.07,1.48-5.18,2.22-5.18,4.81s1.85,2.96,7.77,4.07c8.88,1.48,10.73,3.7,10.73,9.25v206.94Z" style="fill: #fff; fill-rule: evenodd;"/>
            <path d="M2408.49,1069.52c8.89,0,8.89-1.11,8.89-22.95,0-37.02-19.99-58.49-46.64-58.49-31.84,0-62.94,29.62-62.94,91.81,0,50.35,23.7,84.4,64.42,84.4,29.24,0,45.9-21.47,45.9-44.79,0-3.71-1.11-4.45-2.59-4.45-2.59,0-2.59,3.71-7.03,12.58-6.29,12.59-16.66,21.1-32.58,21.1-25.91,0-43.68-28.14-43.68-72.56,0-3.7,2.22-6.67,8.51-6.67h67.74Zm-75.52-18.51c0-30.36,15.55-54.05,35.53-54.05,16.29,0,28.14,14.81,28.14,40.35,0,9.99-1.48,14.07-4.81,16.66-3.33,2.59-17.77,5.18-42.57,5.18-15.55,0-16.29-1.48-16.29-8.15Z" style="fill: #fff; fill-rule: evenodd;"/>
          </g>
          <g>
            <path d="M492.49,582.8c0-17.75,1.94-20.66,8.72-22.27,7.1-1.61,10.65-.97,10.65-4.84,0-2.91-.97-4.2-4.2-4.2-3.87,0-7.42,1.29-21.62,1.29-10.98,0-14.53-1.29-18.73-1.29-3.87,0-5.81,1.94-5.81,4.2,0,4.2,2.26,4.2,9.04,4.84,9.36,.97,12.91,5.49,12.91,25.5v111.04c0,40.35-21.63,55.2-43.9,55.2-16.46,0-38.09-10.33-38.09-39.06v-133.96c0-18.72,6.46-18.72,13.56-19.69,6.78-.97,10-1.62,10-4.52,0-3.23-2.58-3.55-7.75-3.55s-10.97,1.29-25.5,1.29c-11.62,0-12.91-1.29-21.95-1.29-2.59,0-5.81,.97-5.81,2.91,0,4.84,1.62,3.23,13.88,6.13,2.58,.65,2.26,4.2,2.26,12.59v134.93c0,40.67,30.67,51.97,56.16,51.97,32.6,0,56.16-17.43,56.16-73.28v-103.94Z" style="fill: #fff; fill-rule: evenodd;"/>
            <path d="M570.53,648.33c0-16.14,17.11-29.05,33.57-29.05,15.5,0,26.47,9.68,26.47,27.11v90.38c0,8.39-2.58,10.33-11.3,11.62-3.87,.65-6.13,2.26-6.13,4.2,0,2.59,1.29,3.55,4.84,3.55s5.81-1.29,22.27-1.29c18.08,0,22.59,1.29,23.89,1.29,2.26,0,4.52-.97,4.52-3.23,0-2.91-2.26-3.88-9.68-4.52-6.46-.65-9.04-4.52-9.04-15.17v-89.41c-.97-25.82-18.72-36.8-36.8-36.8-22.27,0-36.8,20.66-42.61,20.66-1.62,0-1.62-.97-1.62-18.72,0-2.26-.97-3.88-2.26-3.88-2.26,0-8.39,8.39-25.5,16.14-4.2,1.94-6.13,3.23-6.13,4.84,0,2.26,1.29,2.58,6.46,2.91,8.39,.65,9.68,1.29,9.68,10.33v92.32c0,12.59-2.26,15.5-12.91,16.79-2.91,.32-4.52,2.26-4.52,3.88,0,2.58,1.62,3.87,5.81,3.87,2.91,0,5.49-1.29,20.33-1.29,21.63,0,25.18,1.29,27.11,1.29,2.59,0,4.52-.97,4.52-3.23,0-3.23-1.62-2.91-11.94-4.52-7.75-1.29-9.04-3.87-9.04-11.29v-88.77Z" style="fill: #fff; fill-rule: evenodd;"/>
            <path d="M710.16,733.55c0,11.29-1.61,12.91-13.23,14.85-4.2,.65-5.49,2.26-5.49,4.2,0,2.26,1.62,3.55,3.88,3.55,2.91,0,6.78-1.29,24.21-1.29s20.34,1.29,24.53,1.29c3.87,0,4.84-.97,4.84-3.23,0-2.59-1.94-3.23-8.07-4.52-11.29-2.26-11.29-7.42-11.29-16.46v-123.63c0-2.26-.97-3.23-2.59-3.23-2.26,0-8.71,7.43-23.88,12.91-7.1,2.58-9.36,4.2-9.36,5.81s1.29,2.91,2.91,3.23c11.3,2.26,13.55,4.52,13.55,11.94v94.58Zm-2.26-165.92c0,11.62,5.81,16.14,11.94,16.14,6.46,0,11.94-4.52,11.94-16.14s-5.49-16.14-11.94-16.14-11.94,4.84-11.94,16.14Z" style="fill: #fff; fill-rule: evenodd;"/>
            <path d="M826.54,714.5c-1.94,0-2.91-3.23-15.17-48.42-10.65-39.38-11.62-41.32-11.62-43.9,0-3.23,1.61-4.84,9.04-6.78,4.84-1.29,7.42-1.94,7.42-3.87,0-2.91-.65-3.87-6.78-3.87-6.78,0-11.94,1.29-18.4,1.29-7.75,0-16.79-1.29-20.34-1.29-3.23,0-6.45,.65-6.45,3.55,0,2.59,2.58,3.55,6.13,4.2,6.78,1.3,7.42,6.14,14.2,27.76,7.1,22.92,18.72,63.91,29.06,98.45,3.55,11.94,3.55,17.11,7.75,17.11s3.87-5.16,5.81-11.62c6.78-22.92,23.24-76.5,33.89-106.52,5.49-15.49,7.1-23.24,14.85-25.18,4.84-1.29,5.49-2.9,5.49-4.84s-1.94-2.9-6.78-2.9c-3.23,0-7.75,1.29-14.53,1.29s-11.3-1.29-16.47-1.29c-4.84,0-6.45,.65-6.45,3.87,0,2.26,2.26,3.87,4.2,3.87,12.26,1.3,14.2,1.94,14.2,9.36,0,3.55-3.23,15.17-13.23,45.52-13.55,41.31-13.23,44.22-15.82,44.22Z" style="fill: #fff; fill-rule: evenodd;"/>
            <path d="M978.38,676.09c7.75,0,7.75-.97,7.75-20.01,0-32.28-17.43-51-40.67-51-27.76,0-54.88,25.82-54.88,80.05,0,43.9,20.66,73.6,56.17,73.6,25.5,0,40.02-18.72,40.02-39.05,0-3.23-.97-3.88-2.26-3.88-2.26,0-2.26,3.23-6.13,10.97-5.49,10.98-14.53,18.4-28.4,18.4-22.59,0-38.09-24.53-38.09-63.27,0-3.23,1.94-5.81,7.42-5.81h59.07Zm-65.85-16.14c0-26.47,13.55-47.13,30.99-47.13,14.2,0,24.53,12.91,24.53,35.19,0,8.71-1.29,12.26-4.2,14.53-2.91,2.26-15.5,4.52-37.12,4.52-13.55,0-14.2-1.29-14.2-7.1Z" style="fill: #fff; fill-rule: evenodd;"/>
            <path d="M1031.13,730.96c0,14.85-1.62,16.14-10.65,17.43-4.2,.65-6.46,1.29-6.78,3.88-.32,2.91,1.94,3.87,6.13,3.87,2.26,0,5.81-1.29,20.66-1.29,19.37,0,22.27,1.29,24.86,1.29,5.81,0,7.42-.65,7.42-3.55,0-2.26-3.55-2.91-10.65-4.2-10.97-1.94-11.62-5.81-11.62-20.66v-67.14c0-8.39,5.81-40.02,20.01-40.02,3.23,0,3.23,5.49,3.23,10.65,0,7.1,2.58,12.91,11.29,12.91s11.94-7.42,11.94-17.75c0-13.23-6.13-21.31-16.79-21.31-21.95,0-25.82,27.76-30.67,27.76-3.23,0,.97-27.76-4.2-27.76-2.58,0-3.87,2.26-8.39,7.1-10.97,11.62-21.62,8.39-21.62,14.85,0,1.94,.97,2.58,3.23,2.58,9.36,0,12.59,2.26,12.59,13.88v87.48Z" style="fill: #fff; fill-rule: evenodd;"/>
            <path d="M1112.97,643.81c0,48.42,60.36,40.02,60.36,81.34,0,15.17-9.68,25.82-24.85,25.82-11.94,0-19.37-9.36-23.89-22.6-5.16-15.5-4.52-18.72-7.74-18.72-2.59,0-3.55,2.58-3.55,19.05,0,22.27,1.29,25.17,4.52,26.14,5.49,1.62,11.94,3.87,25.5,3.87,29.06,0,48.1-17.11,48.1-46.16,0-45.19-62.3-46.16-62.3-77.47,0-12.59,10.33-22.27,24.21-22.27,10.01,0,14.85,6.46,18.4,15.17,4.84,12.27,4.84,17.11,8.07,17.11s3.23-5.49,3.23-16.79c0-12.26-.32-17.11-1.94-18.08-5.81-2.91-13.88-5.17-24.21-5.17-20.66,0-43.9,10.65-43.9,38.74Z" style="fill: #fff; fill-rule: evenodd;"/>
            <path d="M1235.16,733.55c0,11.29-1.61,12.91-13.23,14.85-4.2,.65-5.49,2.26-5.49,4.2,0,2.26,1.62,3.55,3.88,3.55,2.91,0,6.78-1.29,24.21-1.29s20.34,1.29,24.53,1.29c3.87,0,4.84-.97,4.84-3.23,0-2.59-1.94-3.23-8.07-4.52-11.29-2.26-11.29-7.42-11.29-16.46v-123.63c0-2.26-.97-3.23-2.59-3.23-2.26,0-8.71,7.43-23.88,12.91-7.1,2.58-9.36,4.2-9.36,5.81s1.29,2.91,2.91,3.23c11.3,2.26,13.55,4.52,13.55,11.94v94.58Zm-2.26-165.92c0,11.62,5.81,16.14,11.94,16.14,6.46,0,11.94-4.52,11.94-16.14s-5.49-16.14-11.94-16.14-11.94,4.84-11.94,16.14Z" style="fill: #fff; fill-rule: evenodd;"/>
            <path d="M1378.33,612.82c0,.97-.32,1.62-1.3,1.62-2.58,0-9.04-9.36-24.85-9.36-33.57,0-54.55,38.09-54.55,78.44,0,44.87,15.49,75.21,49.06,75.21,22.92,0,28.08-16.14,31.31-16.14,1.29,0,2.26,1.94,2.26,3.55l1.29,7.74c.65,3.55,2.26,4.84,5.17,4.84,1.61,0,3.23,0,16.14-5.81,11.3-5.17,13.23-5.49,13.23-16.79,0-5.17-.65-6.78-2.91-6.78-3.55,0-4.84,15.17-12.91,15.17-1.62,0-2.58-2.26-2.58-12.27v-201.42c0-3.87-.65-4.52-1.62-4.52-3.23,0-3.23,2.9-29.38,12.26-3.55,1.29-4.52,1.94-4.52,4.2s1.61,2.58,6.78,3.55c7.75,1.29,9.36,3.23,9.36,8.07v58.43Zm0,111.69c0,15.49-13.88,21.95-25.82,21.95-22.6,0-33.57-21.3-33.57-67.78,0-49.71,19.37-65.85,33.25-65.85,15.5,0,26.15,13.56,26.15,31.96v79.73Z" style="fill: #fff; fill-rule: evenodd;"/>
            <path d="M1532.48,627.35c0-17.43-5.81-22.27-25.17-22.27-15.5,0-32.6,5.49-45.52,17.11-14.52,13.23-18.4,23.56-18.4,31.31,0,5.16,1.61,7.1,6.78,7.1,10.97,0,17.11-8.71,19.37-16.78,4.84-17.76,12.59-30.99,30.02-30.99,9.36,0,13.55,5.17,13.55,22.27v18.4c0,10.97-5.81,12.59-34.54,33.57-24.85,18.08-33.89,27.44-33.89,43.25,0,18.72,10.33,28.4,23.56,28.4,27.43,0,39.06-23.56,44.22-23.56,4.84,0,1.62,22.27,20.66,22.27s25.82-19.69,25.82-26.14c0-3.55-.97-4.52-2.58-4.52-4.84,0-2.58,14.53-14.85,14.53-5.81,0-9.04-6.45-9.04-11.62v-102.33Zm-19.37,86.51c0,9.04-2.58,13.88-9.68,20.34-7.1,6.45-13.88,10.97-21.3,10.97-9.04,0-16.14-6.13-16.14-19.05,0-18.72,15.17-33.57,36.48-48.1,5.16-3.55,6.13-3.87,8.07-3.87s2.58,.97,2.58,4.2v35.51Z" style="fill: #fff; fill-rule: evenodd;"/>
            <path d="M1653.06,612.82c0,.97-.32,1.62-1.3,1.62-2.58,0-9.04-9.36-24.85-9.36-33.57,0-54.55,38.09-54.55,78.44,0,44.87,15.49,75.21,49.06,75.21,22.92,0,28.08-16.14,31.31-16.14,1.29,0,2.26,1.94,2.26,3.55l1.29,7.74c.65,3.55,2.26,4.84,5.17,4.84,1.61,0,3.23,0,16.14-5.81,11.3-5.17,13.23-5.49,13.23-16.79,0-5.17-.65-6.78-2.91-6.78-3.55,0-4.84,15.17-12.91,15.17-1.62,0-2.58-2.26-2.58-12.27v-201.42c0-3.87-.65-4.52-1.62-4.52-3.23,0-3.23,2.9-29.38,12.26-3.55,1.29-4.52,1.94-4.52,4.2s1.61,2.58,6.78,3.55c7.75,1.29,9.36,3.23,9.36,8.07v58.43Zm0,111.69c0,15.49-13.88,21.95-25.82,21.95-22.6,0-33.57-21.3-33.57-67.78,0-49.71,19.37-65.85,33.25-65.85,15.5,0,26.15,13.56,26.15,31.96v79.73Z" style="fill: #fff; fill-rule: evenodd;"/>
          </g>
          <g>
            <path d="M2285.28,799.54h-153.11c-11.21-.62-24.48,3.4-31.02,12.89-.23,.33-.59,.33-.82,0-6.19-9.21-18.45-13.52-29.28-12.88h-148.52c-44.79,.03-95.36-42.51-94.81-83.69V160.61c0-.26,.23-.49,.49-.49h549.79c.26,0,.49,.23,.49,.49V715.85c-.02,41.47-48.81,83.67-93.22,83.69Z" style="fill: #fff; fill-rule: evenodd;"/>
            <path d="M2238.51,724.87h-134.66c-.26,0-.49-.23-.49-.49v-247.05c0-.26,.23-.49,.49-.49h192.58c.26,0,.49,.23,.49,.49v189.13c0,32.27-26.15,58.42-58.42,58.42Z" style="fill: #fab700;"/>
            <path d="M2155.44,497.9c2.1-.23,4.49,.04,5.48,2,.2,.39,0,.71-.43,.72-.76,.01-1.94,.66-3.37,1.61-1.4,.94-2.88,2.05-4.14,2.78-3.18,1.85-4.85,.9-3.14-5.21,.01-.05,.19-.27,.23-.3,1.02-.58,3.2-1.38,5.36-1.62Z" style="fill: #808285; fill-rule: evenodd;"/>
            <path d="M2259.07,546.42l-.51,.23c-.44,.21-1.08,.51-1.86,.91-1.55,.79-3.66,1.91-5.86,3.27-4.45,2.73-9.14,6.28-10.66,9.67-1.04,2.33-1.29,4.37-1.24,6.13,.05,1.8,.41,3.32,.58,4.54,.39,2.88-.43,4.27-5.75,4.29-5.29,2.03-8.79,3.05-10.91,3.4-1.05,.17-1.84,.19-2.35,.03-.67-.21-.91-.77-.62-1.37,.74-1.53,5.54-4.08,10.6-4.93,2.7-.45,6.22-2.83,6.09-7.21-.48-15.7,2.99-38.59,23.31-33.55,3.71,.92,8.54,7.48,11.98,13.11,1.75,2.87,3.19,5.58,4,7.37,.4,.88,.67,1.6,.74,2.01,.01,.1,.03,.25-.01,.4-.07,.22-.28,.44-.6,.41-.19-.02-.34-.13-.41-.19-.1-.08-.2-.17-.3-.29-2.71-2.96-6.77-5.01-10.2-6.33-1.71-.66-3.24-1.14-4.35-1.45-.56-.16-1-.27-1.31-.35l-.35-.09Z" style="fill: #808285; fill-rule: evenodd;"/>
            <path d="M2186.63,565.15c1.26-4-2.14-7.14-6.52-10.63-1.08-.86-2.2-1.73-3.28-2.61-1.09-.9-2.13-1.81-3.06-2.77-1.86-1.91-3.32-4.04-3.66-6.51-.71-5.23,2.66-7.65,5.64-9.79,3.05-2.18,5.62-4.03,4.62-8.14,0-.02,0-.26,.02-.29,4.43-12.09,23.58,5.6,15.71,11.19-6.91,5.32-14.08,14.19-10.56,18.13,4.38,4.89,8.9,11.34,8.9,15.55,0,.85-.38,1.4-.9,1.8-.24,.19-.52,.35-.79,.49-.26,.14-.53,.28-.8,.44-.16,.1-.48,.05-.61-.09-1.3-1.38-11.19-4.08-19.76-.5-.09,.04-.4,0-.48-.06-2.01-1.48-2.6-2.96-1.01-3.99,1.17-.77,3.47-1.14,5.88-1.37,2.44-.23,5.15-.33,7.28-.45,1.04-.06,1.95-.13,2.6-.23,.32-.05,.56-.1,.71-.15l.07-.03Z" style="fill: #808285; fill-rule: evenodd;"/>
            <path d="M2168.14,512.47c.11,.02,.24,.05,.36,.08,.3,.09,.72,.24,1.15,.42,.43,.18,.87,.38,1.22,.57,.19,.1,.36,.2,.49,.29,.11,.08,.25,.18,.34,.31,4.7,5.1-.68,13.17-5.22,14.15-2.09,.45-3.36,.8-4.63,2.29-12.11,14.16-12.38,2.2-10.09,1.02,1.49-.77,2.53-3.23-2.5-2.85-.58,.04-.8-.46-.37-.86l6.66-6.22,.37-.07c.17-.31,.34-.6,.53-.99,.39-.79,.83-1.86,1.24-2.92,.43-1.08,.84-2.13,1.16-2.86,.16-.36,.32-.68,.48-.88,.06-.07,.2-.26,.42-.32,.4-.1,.62,.21,.69,.36,2.94,7.01,6.67-2.41,2.5-5.62-.41-.31-.32-.75,.18-.87l.89-.22c.15-.04,.45,.08,.53,.21,.44,.67,1.4,2,2.24,3.15l1.1,1.49,.25,.34Z" style="fill: #808285; fill-rule: evenodd;"/>
            <path d="M2261.93,581.9c-.07,0-.33-.17-.37-.23-.23-.37-.42-.68-.55-.93-.36-.19-.6-.42-.81-.64l-.31-.36c-.1-.11-.21-.23-.34-.34-3.23-2.82-9.22,2.11-9.4,2.26-.52,.44-1.16-.26-.66-.73,2.92-2.81,4.85-3.88,8.74-4.58,3.56-.65,4.83,.74,5.95,2.16,.44,0,.89,.04,1.36,.05,.53,.01,1.07,0,1.63-.11,1.11-.22,2.42-.82,4.03-2.47,1.63-1.68,3.1-3.99,4.17-5.9,.53-.95,.96-1.8,1.26-2.41l.34-.72,.09-.19c.14-.3,.48,.14,.48,.14,0,0,.49-.22,.5,.12v.43c0,.36-.02,.9-.1,1.57-.16,1.34-.56,3.26-1.46,5.52-2.7,5.68-9.13,7.94-14.56,7.36Z" style="fill: #808285; fill-rule: evenodd;"/>
            <path d="M2141.04,616c2.1-.23,4.49,.04,5.48,2,.2,.39,0,.71-.43,.72-.76,.01-1.94,.66-3.37,1.61-1.4,.94-2.88,2.05-4.14,2.78-3.18,1.85-4.85,.9-3.14-5.21,.01-.05,.19-.27,.23-.3,1.02-.58,3.2-1.38,5.36-1.62Z" style="fill: #808285; fill-rule: evenodd;"/>
            <path d="M2245.71,662.72l-.51,.23c-.44,.21-1.08,.51-1.86,.91-1.55,.79-3.66,1.91-5.86,3.27-4.45,2.73-9.14,6.28-10.66,9.67-1.04,2.33-1.29,4.37-1.24,6.13,.05,1.8,.41,3.32,.58,4.54,.39,2.88-.43,4.27-5.75,4.29-5.29,2.03-8.79,3.05-10.92,3.4-1.05,.17-1.84,.19-2.35,.03-.67-.21-.91-.77-.62-1.37,.74-1.53,5.54-4.08,10.6-4.93,2.7-.45,6.22-2.83,6.09-7.21-.48-15.7,2.99-38.59,23.31-33.55,3.71,.92,8.54,7.48,11.98,13.11,1.75,2.87,3.19,5.58,4,7.37,.4,.88,.67,1.6,.74,2.01,.01,.1,.03,.25-.01,.4-.07,.22-.28,.44-.6,.41-.19-.02-.34-.13-.41-.19-.1-.07-.2-.17-.3-.29-2.71-2.96-6.77-5.01-10.2-6.33-1.71-.66-3.24-1.14-4.35-1.45-.56-.16-1-.27-1.31-.36l-.35-.09Z" style="fill: #808285; fill-rule: evenodd;"/>
            <path d="M2173.27,681.44c1.26-4-2.14-7.14-6.52-10.63-1.08-.86-2.2-1.73-3.28-2.61-1.09-.9-2.13-1.81-3.06-2.77-1.86-1.91-3.32-4.04-3.66-6.51-.71-5.23,2.66-7.65,5.64-9.79,3.05-2.18,5.62-4.03,4.62-8.14,0-.02,0-.26,.02-.29,4.43-12.09,23.58,5.6,15.71,11.19-6.91,5.32-14.08,14.19-10.56,18.13,4.38,4.89,8.9,11.34,8.9,15.55,0,.85-.38,1.4-.9,1.8-.24,.19-.52,.35-.79,.49-.26,.14-.53,.28-.8,.44-.16,.1-.48,.05-.61-.09-1.3-1.38-11.19-4.08-19.76-.5-.09,.04-.4,0-.48-.06-2.01-1.48-2.6-2.96-1.01-3.99,1.17-.77,3.47-1.14,5.88-1.37,2.44-.23,5.15-.32,7.28-.45,1.04-.06,1.95-.13,2.6-.23,.32-.05,.56-.1,.71-.15l.07-.03Z" style="fill: #808285; fill-rule: evenodd;"/>
            <path d="M2154.18,630.11c.11,.02,.24,.05,.36,.08,.3,.09,.72,.24,1.15,.42,.43,.18,.87,.38,1.22,.57,.19,.1,.36,.2,.49,.29,.11,.08,.25,.18,.34,.31,4.7,5.1-.68,13.17-5.22,14.15-2.09,.45-3.36,.8-4.63,2.29-12.11,14.16-12.38,2.2-10.09,1.02,1.49-.77,2.53-3.23-2.5-2.85-.58,.04-.8-.46-.37-.86l6.66-6.22,.37-.07c.17-.31,.34-.6,.53-.99,.39-.79,.83-1.86,1.25-2.92,.43-1.08,.84-2.13,1.16-2.86,.16-.36,.33-.68,.48-.88,.06-.07,.2-.26,.42-.32,.4-.1,.62,.21,.69,.36,2.94,7.01,6.67-2.41,2.5-5.62-.41-.31-.32-.75,.18-.87l.89-.22c.15-.04,.45,.08,.53,.21,.44,.67,1.4,2,2.24,3.15l1.1,1.49,.25,.34Z" style="fill: #808285; fill-rule: evenodd;"/>
            <path d="M2247.98,699.54c-.07,0-.33-.17-.37-.23-.23-.37-.42-.68-.55-.93-.36-.19-.6-.42-.81-.64l-.31-.36c-.1-.11-.21-.23-.34-.34-3.23-2.82-9.22,2.11-9.4,2.26-.52,.44-1.16-.26-.66-.73,2.92-2.81,4.85-3.88,8.74-4.58,3.56-.65,4.83,.74,5.95,2.16,.44,0,.89,.04,1.36,.05,.53,.01,1.07,0,1.63-.11,1.11-.22,2.42-.82,4.03-2.47,1.63-1.68,3.1-3.99,4.17-5.9,.53-.95,.96-1.8,1.26-2.41l.34-.72,.09-.19c.14-.3,.48,.14,.48,.14,0,0,.49-.22,.5,.12v.43c0,.36-.02,.9-.1,1.58-.16,1.35-.56,3.26-1.46,5.52-2.7,5.68-9.13,7.94-14.56,7.36Z" style="fill: #808285; fill-rule: evenodd;"/>
            <path d="M2030.28,578.68l-.94,49.79-46.27-.83,.83-44.18,23.92-1.99,8.2,9.83-9.3,13.1,22.62-7.41-8.17,11.94-14.46-4.53,15.51,21.29-30.56-.68,15.05-20.61-16.78,5.21-7.11-13.05,23.89,7.84v-24.76s23.55-.96,23.55-.96Zm0,48.61l-.94,49.79-46.27-.83,.83-44.18,23.92-1.99,8.2,9.83-9.3,13.1,22.62-7.41-8.17,11.94-14.46-4.53,15.51,21.29-30.56-.68,15.05-20.61-16.78,5.21-7.11-13.05,23.89,7.84v-24.76s23.55-.96,23.55-.96Zm-.08,48.49l-.94,49.79-46.27-.83,.83-44.18,23.92-1.99,8.2,9.83-9.3,13.1,22.62-7.41-8.17,11.94-14.46-4.53,15.51,21.29-30.56-.68,15.05-20.61-16.78,5.21-7.11-13.05,23.89,7.84v-24.76s23.55-.96,23.55-.96Zm-.1-194.21l-.94,49.79-46.27-.83,.83-44.18,23.92-1.99,8.2,9.83-9.3,13.1,22.62-7.41-8.17,11.94-14.46-4.53,15.51,21.29-30.56-.68,15.05-20.61-16.78,5.21-7.11-13.05,23.89,7.84v-24.76s23.55-.96,23.55-.96Zm.18,48.65l-.94,49.79-46.27-.83,.83-44.18,23.92-1.99,8.2,9.83-9.3,13.1,22.62-7.41-8.17,11.94-14.46-4.53,15.51,21.29-30.56-.68,15.05-20.61-16.78,5.21-7.11-13.05,23.89,7.84v-24.76s23.55-.96,23.55-.96Zm-65.15,48.52l-.94,49.79-46.27-.83,.83-44.18,23.92-1.99,8.2,9.83-9.3,13.1,22.62-7.41-8.17,11.94-14.46-4.53,15.51,21.29-30.56-.68,15.05-20.61-16.78,5.21-7.11-13.05,23.89,7.84v-24.76s23.55-.96,23.55-.96Zm-.09,48.37l-.94,49.79-46.27-.83,.83-44.18,23.92-1.99,8.2,9.83-9.3,13.1,22.62-7.41-8.16,11.94-14.46-4.53,15.51,21.29-30.56-.68,15.05-20.61-16.78,5.21-7.11-13.05,23.89,7.84v-24.76s23.55-.96,23.55-.96Zm-.04-145.55l-.94,49.79-46.27-.83,.83-44.18,23.92-1.99,8.2,9.83-9.3,13.1,22.62-7.41-8.17,11.94-14.46-4.53,15.51,21.29-30.56-.68,15.05-20.61-16.78,5.21-7.11-13.05,23.89,7.84v-24.76s23.55-.96,23.55-.96Zm.13,48.53l-.94,49.79-46.27-.83,.83-44.18,23.92-1.99,8.2,9.83-9.3,13.1,22.62-7.41-8.17,11.94-14.46-4.53,15.51,21.29-30.56-.68,15.05-20.61-16.78,5.21-7.11-13.05,23.89,7.84v-24.76s23.55-.96,23.55-.96Zm127.09,48.46l-.94,49.79-46.27-.83,.83-44.18,23.92-1.99,8.2,9.83-9.3,13.1,22.62-7.41-8.17,11.94-14.46-4.53,15.51,21.29-30.56-.68,15.05-20.61-16.78,5.21-7.11-13.05,23.89,7.84v-24.76s23.55-.96,23.55-.96Zm-.09,48.7l-.94,49.79-46.27-.83,.83-44.18,23.92-1.99,8.2,9.83-9.3,13.1,22.62-7.41-8.17,11.94-14.46-4.53,15.51,21.29-30.56-.68,15.05-20.61-16.78,5.21-7.11-13.05,23.89,7.84v-24.76s23.55-.96,23.55-.96Zm0-145.54l-.94,49.79-46.27-.83,.83-44.18,23.92-1.99,8.2,9.83-9.3,13.1,22.62-7.41-8.17,11.94-14.46-4.53,15.51,21.29-30.56-.68,15.05-20.61-16.78,5.21-7.11-13.05,23.89,7.84v-24.76s23.55-.96,23.55-.96Zm0,48.65l-.94,49.79-46.27-.83,.83-44.18,23.92-1.99,8.2,9.83-9.3,13.1,22.62-7.41-8.17,11.94-14.46-4.53,15.51,21.29-30.56-.68,15.05-20.61-16.78,5.21-7.11-13.05,23.89,7.84v-24.76s23.55-.96,23.55-.96Z" style="fill: #bcbec0; fill-rule: evenodd;"/>
            <path d="M2004.57,302.61l20.6-16.2,22.57,15.6-43.16,.61Zm27.87-22.11l23.63-18.48-2.42,33.32-21.2-14.84Zm-14.54,.61l-22.23,17.06-1.55-33.87,23.78,16.81Zm7.12-5.76c0,.45-23.93-17.11-23.93-17.11l49.67-3.03s-25.75,19.69-25.75,20.14Zm-51.34,48.19c-.23,.16-.75,.36-.87-.19l-.05-.25-.17-.9-.49-2.76-.72-4.09c-.07-.18-.19-.28-.52-.35-1.18-.19-2.43-.52-4.4-.78-.02,0-2.01,.39-4.39,.92-2.2,.49-4.52,1.03-5.23,1.23-.18,.14-.2,.17-.22,.19l-6.02,55.74c-.01,.1-.2,.35-.29,.4-.13,.06-2.36,1.15-2.45,2.28-.09,1.13,1.01,2.32,1.82,2.75,.12,.07,.27,.35,.26,.49l-8.9,84.93c-.02,.17-.24,.4-.4,.43-.03,0-22.8,4.24-30.66,7.21-.37,.14-.67-.06-.67-.46l.04-230.48c0-.26,.23-.49,.49-.49h189.09c.26,0,.49,.23,.49,.49v230.04c0,.34-.26,.56-.6,.48-7.75-1.67-30.46-6.4-30.46-6.4-.15-.03-.37-.27-.39-.42l-10.67-84.7c-.02-.16,.14-.44,.29-.51,1.16-.53,2.01-1.86,1.96-2.42-.06-.65-.55-1.17-1.14-1.56-.29-.19-.58-.34-.79-.44l-.27-.12c-.31-.14-.38-.36-.39-.39l-5.68-45.4c-.43-3.41-.07-6.22,.39-8.18,.23-.99,.49-1.76,.69-2.28l.18-.44c-.39-.16-.78-.29-1.18-.41-.41-.12-.82-.24-1.14-.32l-.41-.11-.19-.06c-2.42-.58-5.93-1.42-9.11-2.11-.82,.17-1.77,.51-2.32,.7-.1,.59-.25,1.59-.37,2.5l-.19,1.43-.05,.44c-.03,.33-.5,.12-.5,.12,0,0,.21,.52-.13,.48l-.23-.02-.82-.09-2.6-.29c-1.97-.22-4.14-.47-4.94-.57-.17-.02-.4-.25-.43-.41-.27-1.67-.48-4.6-.66-6.12-.04-.3-.08-.4-.11-.45-.02,0-.1-.05-.19-.05-.73-.09-14.05-1.16-14.8-1.16-.27,0-.3,.05-.32,.16-.18,1.23-.55,4.66-.84,6.89-.03,.21-.27,.43-.49,.43-1.65,.02-8.59,.6-9.61,.77-.25,.04-.52-.14-.57-.39-.41-2.05-.76-4.68-1.14-6.92-.39-.12-.91-.3-1.42-.48-.68-.24-1.24-.42-1.49-.44-.22-.02-1.18,.05-2.45,.14-1.25,.09-2.74,.21-3.95,.29-.27,.02-.51-.2-.53-.47-.02-.31-2.34-51.37-2.45-52.26-.02-.2,.15-.47,.35-.53,.08-.03,.18-.06,.27-.11-1.83,0-2.68-1.73-2.65-2.51,.03-.8,.31-1.39,.71-1.79-1.07,.46-1.48,1.66-1.45,2.19,.05,.85,.51,2.03,1.94,2.3,.19,.04,.4,.29,.4,.48,.02,1.34,0,51.47-.04,52.55,0,.22-.23,.46-.45,.47-2.38,.19-3.69,.26-4.44,.33-.38,.03-.57,.06-.67,.09-.12,.15-.13,.28-.16,.42-.07,.32-.15,.74-.23,1.24-.16,1.02-.32,2.34-.46,3.66-.29,2.66-.53,5.32-.56,5.55-.03,.16-.26,.39-.42,.41-1.61,.22-3.53,.45-5.65,.75l.3-.27Z" style="fill: #a90034; fill-rule: evenodd;"/>
            <path d="M2225.35,459.03c-.08,0-.34-.16-.39-.23-6.23-9.65-11.76-22.72-8.43-38.3,0-.04,.15-.26,.18-.29,.36-.28,1.46-.87,2.31-.87,1.96,0,2.12,.8,2,1.65l-.02,.18v.17s.21,.17,1.05,.17c1.74,0,2.17,.27,2.6,.61,.08,.07,.13,.11,.2,.15,.06,.04,.14,.08,.27,.11,.26,.08,.7,.14,1.51,.14,.81,0,1.24-.08,1.49-.16,.22-.08,.31-.17,.46-.3,.43-.41,.88-.74,2.63-.74,1.85,0,2.31,.59,2.71,1.22,.16,.25,.26,.4,.47,.52,.22,.13,.61,.24,1.41,.24,1.26,0,1.42-.61,1.64-1.71,.06-.29,.11-.58,.19-.87,.08-.3,.19-.61,.36-.91,.35-.61,.91-1.11,1.84-1.36,1.78-.48,2.52-.05,3.19,.38,.3,.19,.53,.33,.85,.4,.33,.07,.79,.07,1.55-.14,1.6-.43,2.07-.42,2.47-.55,.14-.04,.28-.11,.56-.31,.3-.2,.71-.52,1.38-1.01,.62-.46,.88-.83,1-1.13,.12-.3,.12-.59,.11-.97-.02-.85,0-1.79,1.51-2.91,.69-.51,1.19-.77,1.58-.9,.2-.07,.37-.09,.51-.1,.12-.01,.22,0,.31-.01,.06,0,.12-.03,.19-.11,.16-.16,.42-.5,.87-1.2,.97-1.53,1.68-1.74,2.39-1.91,.3-.07,.52-.13,.77-.3,.26-.18,.59-.51,1.02-1.18,.44-.69,.6-1.09,.64-1.34,.04-.21,0-.35-.1-.56-.06-.13-.13-.27-.19-.42-.07-.18-.14-.38-.19-.62-.1-.49-.11-1.11,.06-1.97,.18-.91,.61-1.73,1.14-2.47,.26-.37,.55-.73,.86-1.08,.3-.35,.61-.69,.93-1.03,1.27-1.38,2.4-2.64,2.68-4.11,.28-1.43-.12-1.85-.66-2.34-.16-.15-.33-.3-.51-.46-.18-.17-.37-.37-.55-.62-.36-.49-.66-1.12-.81-2.01-.31-1.78,.08-2.35,.52-2.88,.17-.2,.28-.34,.34-.59,.07-.27,.1-.7-.04-1.49-.28-1.65-.44-1.98-.66-2.28-.15-.2-.33-.39-.58-.71-.26-.34-.59-.82-1-1.56-.39-.71-.67-1.05-.86-1.23-.17-.16-.29-.2-.48-.26-.56-.18-1.06-.42-1.91-1.95-.42-.76-.62-1.34-.69-1.81-.04-.23-.04-.44-.04-.62,0-.16,.02-.3,.03-.43,.01-.21,0-.35-.1-.55-.13-.24-.4-.58-1.01-1.13-.61-.55-.97-.81-1.21-.93-.12-.06-.2-.09-.26-.11-.08-.02-.15-.03-.22-.04-.51-.06-.98-.17-2.25-1.33-.59-.53-.91-.63-1.09-.63-.17,0-.33,.08-.64,.31-.16,.12-.33,.24-.51,.36-.2,.12-.43,.24-.71,.31-.56,.15-1.23,.09-2.07-.27-.91-.39-1.35-1.02-1.49-1.76-.07-.35-.06-.71-.04-1.05,.03-.33,.08-.67,.14-1.01,.11-.68,.2-1.24,.11-1.71-.08-.41-.3-.77-.91-1.03-.67-.29-1.07-.21-1.31-.08-.48,.27-.86-.03-.72-.56,.16-.63,.12-.93,.05-1.09-.03-.08-.08-.15-.15-.23l-.28-.26c-.58-.51-1.02-1.14-.47-2.84,.51-1.59,.65-1.84,.8-2.1,.05-.09,.1-.18,.2-.42,.11-.27,.26-.71,.51-1.49,.56-1.74,1.21-1.97,1.91-2.09,.25-.04,.37-.07,.51-.19,.16-.14,.38-.46,.62-1.23,.25-.79,.43-1.28,.53-1.63,.1-.34,.12-.48,.12-.59,0-.08-.02-.15-.04-.24l-.11-.43c-.1-.37-.23-.9-.38-1.74-.24-1.32-.96-1.5-1.95-1.74-.27-.07-.54-.13-.79-.22-.27-.09-.55-.22-.81-.4-.54-.38-.92-.98-1.09-1.9-.17-.91-.03-1.59,.28-2.13,.15-.26,.34-.47,.52-.65,.17-.16,.36-.31,.53-.45,.17-.13,.29-.24,.39-.35,.09-.1,.15-.19,.17-.28,.05-.17,.05-.49-.35-1.17-.4-.67-.73-.94-.99-1.07-.27-.13-.52-.14-.89-.15-.83-.01-1.75-.08-2.71-1.7-.47-.79-.6-1.47-.52-2.07,.04-.29,.12-.55,.22-.78,.09-.21,.2-.41,.3-.61,.2-.38,.28-.59,.25-.8-.02-.2-.16-.51-.77-1.01-.63-.51-1.03-.81-1.31-1-.26-.18-.42-.26-.58-.34-.38-.2-.76-.39-2.06-1.46-.68-.56-1.09-1.05-1.35-1.5-.13-.22-.22-.43-.3-.62l-.18-.49c-.16-.44-.33-.84-1.8-1.34-3.5-1.21-5.06-6.67-4.08-10,.22-.76,.32-1.19,.36-1.44,.02-.11,.02-.16,.01-.17-.1-.33-.1-.69,.35-2.25,.23-.8,.31-1.23,.31-1.5,0-.22-.05-.32-.14-.44l-.24-.3c-.1-.13-.21-.29-.32-.49-.23-.41-.44-.97-.62-1.82-.36-1.77,0-2.51,.35-3.21,.16-.31,.29-.57,.35-.93,.06-.36,.07-.86-.09-1.64-.26-1.29-.86-1.37-1.88-1.44-.28-.02-.56-.03-.85-.07-.31-.04-.63-.09-.94-.2-.66-.22-1.29-.63-1.82-1.41-.91-1.36-1.23-1.74-1.55-2.12-.33-.4-.66-.79-1.61-2.2-.53-.79-.67-1.52-.61-2.2,.03-.32,.1-.63,.19-.92,.08-.27,.19-.53,.28-.78,.34-.91,.51-1.46-.58-2.19-.68-.46-1.13-.71-1.46-.86-.33-.15-.57-.21-.8-.27-.57-.15-1.14-.31-2.57-1.27-1.1-.74-1.49-.39-2.13,.21-.18,.17-.37,.36-.58,.53-.22,.18-.46,.36-.75,.51-.59,.3-1.31,.43-2.23,.25-1.71-.34-2.26-.73-2.81-1.12-.24-.17-.45-.33-.79-.48-.34-.15-.84-.32-1.63-.48-1.65-.33-2.01-.59-2.37-.67-.22-.05-.42-.02-2.13,.32-.95,.19-1.68,0-2.28-.41-.29-.2-.54-.44-.76-.68-.21-.24-.41-.5-.61-.76-.78-1.02-1.37-1.75-2.67-1.48-1.25,.25-1.38,1-1.45,2.29-.02,.33-.03,.66-.07,1-.04,.36-.09,.72-.2,1.06-.21,.73-.62,1.42-1.42,1.96-.81,.55-1.58,.62-2.3,.43-.35-.09-.67-.24-.97-.41-.29-.16-.57-.35-.86-.54-1.14-.75-1.95-1.25-3.03-.52-1.35,.91-1.78,1.41-2.11,1.98-.33,.57-.58,1.22-1.23,2.27,3.84,1.26,2.35,5.69,.67,8.18-.49,.73-1.13,1.41-1.79,2.06-.66,.64-1.36,1.27-2.03,1.91-1.34,1.29-2.42,2.55-2.71,4.01-.16,.81-.19,1.25-.16,1.51,.03,.22,.09,.31,.22,.45l.3,.3c.12,.13,.26,.28,.4,.47,.28,.39,.56,.94,.81,1.78,.22,.77,.36,1.18,.47,1.41,.32,.39,.51,.68,.96,2.24,.58,1.97-.54,2.54-1.4,2.95-.18,.09-.36,.17-.53,.28-.15,.09-.25,.19-.32,.29-.12,.18-.23,.5-.02,1.22,.47,1.62,.5,1.77,.54,1.95,.04,.18,.09,.39,.6,2.1,.07,.23-.08,.52-.3,.6-.66,.25-1,.46-1.2,.63-.1,.09-.17,.17-.23,.25-.07,.1-.13,.2-.18,.29-.33,.55-.73,1.05-2.35,1.61-.75,.26-.99,.5-1.08,.67-.09,.17-.09,.37-.04,.78,.03,.21,.06,.42,.07,.65,.01,.24,0,.51-.06,.79-.13,.58-.49,1.16-1.2,1.74-1.32,1.08-1.75,1.24-2.2,1.4-.08,.03-.17,.06-.26,.1-.09,.04-.2,.09-.33,.17-.27,.16-.67,.44-1.31,.96-.65,.53-.9,.8-.98,.94,.22,.54,.44,1.12-.49,2.68-.48,.81-1.07,1.22-1.72,1.37-.31,.07-.62,.07-.91,.05-.27-.02-.55-.07-.83-.12-1.04-.18-1.76-.3-2.44,.83-.41,.68-.47,1.05-.45,1.26,.02,.2,.13,.36,.37,.64,.13,.15,.26,.3,.39,.47,.14,.18,.28,.4,.39,.66,.22,.53,.3,1.19,.14,2.09-.34,1.87-1.24,2.27-2.06,2.61-.37,.15-.65,.27-.88,.5-.22,.23-.45,.61-.58,1.36-.16,.88-.44,1.5-.75,1.98-.15,.23-.31,.43-.46,.61l-.4,.45c-.38,.44-.66,.82-.2,2.26,1.08,3.36-2.01,14.81-4.62,17.18-.54,.49-.67,.87-.68,1.17,0,.34,.13,.68,.34,1.14,.4,.91,.91,2.09-.58,3.44-.7,.63-1.37,.87-2.03,.89-.32,0-.62-.03-.89-.1-.26-.06-.51-.13-.75-.21-.84-.25-1.35-.4-1.99,.75-.37,.67-.41,1.07-.37,1.33,.05,.28,.2,.49,.44,.81,.52,.7,1.08,1.52,.14,3.21-.45,.81-.98,1.28-1.55,1.55-.28,.13-.55,.22-.81,.28-.24,.06-.48,.09-.72,.13-.77,.13-1.29,.23-1.53,1.59-.14,.79-.12,1.24-.07,1.51,.05,.25,.14,.38,.28,.58,.37,.53,.68,1.07,.38,2.83-.15,.87-.37,1.49-.61,1.98-.23,.47-.47,.81-.67,1.15-.32,.54-.55,1.07-.24,2.6,.65,3.27,.35,6.49,1,9.76,.32,1.58,.64,2.2,1.07,2.75,.24,.31,.52,.61,.86,1,.35,.41,.75,.91,1.22,1.63,.43,.65,.79,.95,1.09,1.1,.31,.16,.6,.19,.98,.24,.84,.09,1.76,.22,2.79,1.78,.47,.71,.76,1.19,.96,1.54,.21,.36,.32,.54,.45,.69,.12,.14,.27,.28,.57,.5,.31,.23,.75,.53,1.42,1,.63,.44,1.07,.56,1.42,.58,.36,.01,.66-.09,1.06-.23,.85-.3,1.82-.61,3.37,.47,.7,.49,1.11,.86,1.38,1.15,.13,.15,.23,.27,.3,.38l.15,.22c.11,.1,.17,.13,.3,.18,.28,.11,.74,.22,1.52,.4,1.88,.42,2.3,1.53,2.66,2.47,.17,.46,.32,.83,.58,1.13,.25,.29,.64,.56,1.37,.72,1.59,.36,2.06,.5,2.55,.55,.49,.05,.98,0,2.62,0,.82,0,1.28-.04,1.56-.1,.12-.03,.22-.05,.29-.08,.08-.03,.14-.07,.2-.1,.41-.23,.82-.41,2.53-.41,.77,0,1.26-.14,1.62-.31,.36-.18,.61-.42,.91-.71,.16-.15,.32-.31,.49-.45,.18-.15,.39-.3,.64-.43,.5-.26,1.13-.42,2-.43,.19,0,.44,.2,.49,.38,3.88,16.27-2.7,29.35-9.27,39.07-.04,.06-.3,.21-.36,.22-25.5,2.37-55.39,7.57-64.16,10.56-.37,.12-.65-.08-.65-.47V239.86c0-.26,.23-.49,.49-.49h192.57c.26,0,.49,.23,.49,.49v229.94c0,.36-.27,.57-.62,.48-21.76-5.77-40.19-9.53-70.95-11.25Z" style="fill: #afcfe8;"/>
            <path d="M2241.13,364.2c.07,.35,.06,.7,.04,1.05-.03,.33-.08,.67-.14,1.01-.11,.68-.2,1.24-.11,1.71,.08,.41,.3,.77,.91,1.03,.69,.3,1.13,.3,1.43,.22,.16-.04,.3-.11,.44-.19,.16-.1,.3-.21,.44-.31,.76-.56,1.55-.92,2.98,.38,.61,.55,.97,.81,1.21,.93,.12,.06,.2,.09,.26,.11,.08,.02,.15,.03,.22,.04,.51,.06,.98,.17,2.25,1.33,1.28,1.16,1.48,1.74,1.43,2.48,0,.13-.02,.26-.03,.4,0,.13,0,.27,.02,.43,.05,.33,.19,.78,.58,1.48,.39,.71,.67,1.05,.86,1.23,.17,.16,.29,.2,.48,.26,.56,.18,1.06,.41,1.91,1.95,.39,.71,.69,1.14,.92,1.44,.25,.32,.43,.51,.58,.72,.38,.51,.56,1.07,.85,2.7,.38,2.19-1.13,2.23-2.03,2.23-.21,0-.42,0-.61,.03-.17,.02-.28,.06-.34,.1-.06,.04-.24,.19-.11,.95,.13,.75,.42,1.48,.78,2.21,.37,.75,.81,1.47,1.21,2.19,.81,1.46,1.56,3.06,1.21,4.89-.07,.37-.39,.52-.72,.34-.41-.22-.71-.14-1.05,.23-.39,.42-.75,1.15-1.12,2.07-.37,.92-.71,1.94-1.07,2.85-.36,.91-.78,1.8-1.31,2.37-3.13,3.35-5.91,6.06-8.08,7.54-2.05,1.39-4.12,2.01-5.03-.07-.13-.3-.28-.45-.99,0-.7,.44-1.55,1.27-2.46,2.18-.45,.45-.91,.89-1.34,1.29-.44,.4-.88,.76-1.29,1.02-.8,.5-1.88,.78-2.42-.45-.53-1.21-1.31-1.19-2.44-1.16-.3,0-.59,.02-.88,0-.3-.02-.62-.06-.93-.17-.65-.23-1.19-.71-1.57-1.58-.21-.48-.67-.7-1.55-.67-.88,.03-1.97,.31-3.13,.61-.58,.15-1.16,.3-1.72,.42-.58,.12-1.13,.21-1.63,.23-1.01,.03-2.03-.21-2.49-1.26-.15-.34-.49-.51-1.5-.14-.95,.35-2.14,1.06-3.38,1.82-.62,.38-1.24,.75-1.84,1.08-.61,.34-1.2,.63-1.72,.82-1,.37-2.23,.52-2.75-.67-.19-.43-.52-.57-1.26-.37-.77,.2-1.72,.72-2.74,1.28-.51,.28-1.02,.56-1.51,.79-.49,.24-.99,.45-1.45,.57-.93,.25-1.94,.17-2.42-.93-.21-.48-1.04-.86-2.59-1.08-1.48-.21-3.31-.24-5.04-.26-1.79-.02-3.48-.04-4.61-.23-.56-.1-1.11-.25-1.45-.55-.45-.4-.45-.95-.14-1.45,1.88-3.14,1.01-4.73-.46-5.95-.4-.33-.84-.63-1.29-.92-.47-.3-.94-.58-1.39-.87-.9-.57-1.8-1.21-2.29-2.04-.29-.49-1.2-.82-2.66-1.1-1.41-.27-3.05-.45-4.37-.83-3.12-.89-4.34-2.93-.07-7.6,.84-.92,.51-2-.57-3.47-.53-.72-1.19-1.45-1.81-2.18-.63-.74-1.26-1.51-1.71-2.26-.58-.99-.21-1.77,.49-2.29,.33-.24,.73-.44,1.14-.62,.41-.17,.86-.33,1.31-.49,.91-.32,1.71-.61,2.19-.97,.4-.3,.5-.55,.23-1-.47-.8-.63-1.55-.61-2.26,0-.34,.05-.67,.12-1,.06-.31,.14-.62,.22-.92,.31-1.18,.56-2.18-.17-3.43-.49-.84-.56-1.72-.55-2.47,0-.36,.03-.7,.04-1.02,0-.31,0-.53-.04-.69-.04-.18-.09-.35-.7-.32-.69,.03-1.89,.35-3.9,1.13-4.01,1.01-5.15-1.1-5.15-3.37,0-1.07,.24-2.18,.46-3.01,.23-.84,.46-1.42,.46-1.42,.03-.08,.27-.28,.36-.3,3.96-.83,4.52-3.01,4.51-5.17,0-1.17-.17-2.32-.14-3.24,.03-.96,.28-1.95,1.4-2.31,5.65-1.81,7.98-3,8.68-3.91,.27-.36,.26-.63,.07-.98-.23-.41-.69-.86-1.33-1.44-2.73-2.49-1.92-6.15-.36-8.57,.79-1.22,1.82-2.23,2.82-2.68,1.04-.47,2.19-.38,2.79,.83,1.93,3.86,4.61,4.32,6.41,3.75,.94-.3,1.65-.88,1.97-1.43,.31-.53,.24-.95-.17-1.24-4.36-3.15-3.05-5.76-.95-7.74,.97-.92,2.14-1.74,2.94-2.51,.39-.37,.64-.68,.74-.94,.09-.22,.08-.38-.05-.57-.46-.66-.85-1.08-1.19-1.38-.34-.31-.64-.51-.98-.73-.7-.46-1.42-.94-2.43-2.36-.6-.85-.54-1.61-.03-2.23,.22-.27,.52-.51,.81-.71,.29-.19,.62-.38,.95-.56,.66-.37,1.19-.68,1.48-1.03,.2-.25,.29-.52-.07-1.04-.42-.6-.89-.91-1.35-1.11-.24-.1-.49-.17-.72-.23-.26-.06-.5-.11-.73-.16-1.11-.24-1.98-.7-1.76-2.67,.37-3.31,.33-3.41,.7-6.72,.1-.91,.42-1.67,.82-2.32,.2-.32,.42-.62,.66-.92,.23-.28,.47-.56,.71-.83,.95-1.08,1.79-2.05,1.95-3.53,.22-1.97,1.31-2.24,2.21-2.44,.19-.04,.37-.08,.55-.14,.16-.05,.28-.12,.39-.21,.2-.17,.41-.48,.5-1.24,.2-1.77,.65-2.12,1.22-2.39,.16-.07,.22-.1,.29-.23,.1-.18,.21-.55,.26-1.36,.07-1.03,.61-1.57,1.48-1.44,.33,.05,.67,.19,.99,.35,.32,.16,.65,.35,.98,.55,.31,.18,.63,.37,.93,.51,.29,.15,.53,.23,.7,.26,.19-.02,.32-.16,.34-.53,.02-.29,.2-.49,.36-.62,.16-.13,.37-.22,.59-.29,.43-.14,1-.21,1.64-.19,1.27,.03,2.9,.41,4.37,1.4,.48,.32,.8,.25,1.16-.05,.43-.36,.82-1,1.28-1.75,.23-.37,.45-.74,.68-1.07,.24-.34,.5-.66,.8-.92,.65-.55,1.45-.73,2.35-.12,1.68,1.13,1.34,2.31,.95,3.36-.09,.24-.18,.48-.26,.73-.07,.23-.13,.46-.15,.71-.04,.46,.05,.96,.45,1.56,.91,1.36,1.23,1.74,1.55,2.12,.33,.4,.66,.79,1.61,2.2,.4,.6,.85,.88,1.31,1.03,.25,.08,.5,.12,.74,.15,.27,.03,.54,.04,.8,.06,1.14,.07,2.38,.25,2.78,2.23,.36,1.77,0,2.51-.35,3.21-.16,.31-.29,.57-.35,.93-.06,.36-.07,.86,.09,1.64,.16,.78,.34,1.24,.51,1.54,.09,.15,.17,.27,.25,.37l.25,.33c.43,.6,.44,1.2-.03,2.8-.22,.77-.32,1.19-.36,1.44-.02,.11-.01,.16-.01,.17,.1,.33,.1,.69-.35,2.25-.89,3.06,.66,7.82,3.46,8.79,1.68,.58,2.11,1.15,2.4,1.93l.17,.48c.06,.15,.13,.31,.23,.48,.19,.33,.51,.74,1.12,1.23,.63,.51,1.03,.81,1.31,1,.26,.18,.42,.26,.58,.34,.38,.2,.76,.39,2.06,1.46,1.52,1.24,1.22,2.16,.77,3.03-.09,.17-.18,.35-.26,.54-.07,.17-.13,.35-.15,.53-.04,.35,.01,.8,.39,1.44,.4,.67,.73,.94,.99,1.07,.27,.13,.52,.14,.89,.15,.83,.01,1.75,.08,2.71,1.7,1.02,1.72,.34,2.45-.44,3.08-.15,.12-.32,.25-.47,.4-.14,.13-.26,.27-.35,.43-.17,.3-.29,.73-.16,1.45,.24,1.32,.96,1.5,1.95,1.74,.27,.07,.54,.13,.79,.22,.27,.09,.55,.22,.81,.4,.54,.38,.92,.98,1.09,1.9,.15,.8,.27,1.31,.37,1.66l.12,.47c.03,.16,.06,.29,.06,.42,.01,.3-.05,.57-.16,.93-.11,.35-.28,.85-.54,1.65-.56,1.74-1.21,1.97-1.91,2.09-.25,.04-.37,.07-.51,.19-.16,.14-.38,.46-.62,1.23-.51,1.59-.65,1.84-.8,2.1-.05,.09-.1,.18-.2,.42-.11,.27-.26,.71-.51,1.49-.23,.72-.23,1.1-.17,1.32,.05,.19,.16,.31,.36,.49l.35,.33c.13,.14,.25,.31,.34,.52,.11,.26,.15,.56,.13,.92,.39-.02,.83,.06,1.32,.27,.91,.39,1.35,1.02,1.49,1.76Zm-50.23,75.55c.41-3.29,.72-6.3,.96-8.49,.12-1.1,.22-2,.31-2.62,.05-.33,.09-.58,.13-.75,.03-.11,.05-.2,.07-.26,.13-.33,.37-.37,.49-.38,.12,0,.26,.03,.42,.15l.18,.15c.11,.09,.25,.2,.46,.31,.38,.19,1.04,.39,2.23,.32,.11-.18,.33-.22,.56-.2,.13,0,.25,.06,.31,.09l.23,.13,.5,.3c.17,.09,.34,.19,.53,.26,.36,.13,.55,.1,.69-.03,.18-.17,.43-.64,.48-1.83,0-.21,.23-.45,.44-.47,.86-.1,1.73-.14,2.38-.16,.33,0,.6,0,.8,0h.24c.32,.04,.04,.52,.04,.52l.47-.14c.02,.05,.18,.58,.45,1.15,.3,.62,.63,1.08,.91,1.21,.09-.08,.23-.27,.36-.5,.13-.24,.25-.48,.35-.67,.06-.1,.13-.22,.21-.31,.07-.08,.24-.26,.52-.25,.13,0,.26,.04,.36,.07,.11,.03,.23,.08,.38,.13,.26,.1,.58,.25,.91,.4,.51,.24,1.03,.5,1.39,.68,.09-.08,.18-.18,.26-.32,.16-.25,.28-.53,.4-.75,.46-.79,1.15-.93,2.07,0,.05,.05,.15,.33,.14,.4-.68,7.06,.78,13.03,2.66,18.08,1.89,5.1,4.19,9.23,5.14,12.54,.1,.35-.11,.63-.48,.63l-32.33-.11c-.41,0-.61-.31-.45-.69,1.82-4.35,3.03-11.96,3.86-18.56Z" style="fill: #15552b; fill-rule: evenodd;"/>
            <path d="M1968.54,316.02c-.05-.4,.21-.64,.6-.55l1.59,.37c.13,.03,.35,.26,.38,.39l1.37,7.37c.07,.35-.16,.61-.52,.58l-1.92-.14c-.19-.01-.43-.24-.45-.43l-1.04-7.6Zm29.23,5.81c-.21,0-.45-.23-.48-.44l-1.04-9.36c-.04-.4,.23-.64,.62-.53l1.59,.43c.13,.03,.34,.27,.36,.4l1.35,8.99c.05,.33-.18,.58-.51,.57l-1.9-.06Zm-39.25,33.74c-.18-.08-.38-.23-.46-.59-.07-.3-.07-.77,0-1.53,.29-3.05,.54-6.38,.82-9.43,.14-1.5,.16-1.97,.17-2.45,0-.49-.01-.99,.05-2.56,.06-1.36,.23-5.43,.6-9.49,.36-3.98,.93-8.16,1.87-9.57,1.24-1.87,2.21-2.94,5.42-4.41,.31-.14,.62,0,.69,.34,.42,1.93,.76,4.24,1.02,6.07,.13,.91,.24,1.7,.32,2.26l.08,.45c1.23-.13,3.74-.3,6.1-.44l3.58-.21c1.01-.06,1.6-.1,1.64-.11,.21-.04,.26-.15,.27-.21,.19-1.36,.96-8.94,1.14-10.58,.02-.2,.25-.42,.45-.44,1.5-.12,2.69-.16,3.67-.21,2.05-.12,9.59,1.78,10.46,10.47,2.34-.01,10.77-.12,14.5-.29,.39,0,.91-.41,.93-.53,.33-2.64,1.08-7.63,1.24-9.56,.02-.26,.27-.47,.53-.45,4.22,.34,11.95,1.12,12.21,1.27,.04,.02,.22,.14,.27,.45l.04,.3,.1,.99c.08,.81,.17,1.91,.27,3.05,.19,2.25,.39,4.69,.49,5.54,.29,.22,.49,.29,.71,.34,2.97,.42,7.89,1.2,10.66,1.68,.11,.02,.18,.01,.22,0,.07-.05,.11-.12,.12-.18,.4-3.18,1.19-9.04,1.31-9.64,.05-.25,.32-.44,.58-.39,1.4,.26,5.73,1.44,7.75,1.88,.11,.02,.34,.24,.37,.35,.4,1.4,1.93,16.28,2.15,22.53,.01,.38-.26,.6-.63,.49l-3.33-.95c-.69-.12-1.21,.32-1.21,.99l.73,12.74,5.27,2.28c.09,.04,.28,.29,.29,.39,0,0,1.18,8.63,1.67,15.73,.03,.37-.24,.59-.59,.52-6.88-1.43-27.68-3.49-44.24-3.56-17.98-.36-33.33,.71-44.33,2.04-.42-.05-.79-.04-1.18-.03-.44,0-.9,.02-1.32-.02-.8-.06-1.93-.33-1.93-1.57,.25-.84,.04-1.22-.33-1.74l-.3-.43c-.11-.16-.21-.34-.29-.52-.18-.39-.29-.84-.24-1.4,.07-.73-.01-1.07-.09-1.23-.07-.15-.17-.21-.38-.34-.6-.36-1.11-.8-.95-2.51,.15-1.57,.35-1.99,.57-2.4,.04-.08,.08-.15,.12-.24,.04-.09,.07-.19,.11-.32,.08-.3,.16-.75,.23-1.47,.06-.67,.06-1,.04-1.16Zm-1.83,41.48c-.19-.03-.39-.15-.49-.48-.08-.28-.08-.75-.02-1.49,.12-1.44-.12-2.38-.37-3.37-.13-.52-.26-1.04-.35-1.62-.08-.6-.12-1.27-.05-2.07,.14-1.63,.77-3.01,1.36-4.11,.29-.54,.57-1.03,.79-1.46,.22-.43,.33-.74,.35-.96,.13-2.07,.86-3.54,1.57-4.5,.35-.48,.7-.83,.96-1.06,.28-.24,.46-.36,.46-.36l.19-.07c11.7-1.79,35.02-2.92,44.6-3.03,.48,0,.9-.04,1.26-.1,14.7,.15,38.31,.86,46.59,3.34,.13,.04,.33,.29,.35,.42,0,0,1.81,16.06,3.6,32.38,1.79,16.27,3.58,32.92,3.51,34-.04,.68,1.13,16.04,1.26,16.97,.2,1.47,.11,3.63-1.79,4.18-.46,.13-5.37-.44-9.89-.99-4.64-.56-9.19-1.15-9.19-1.15-.24-.03-.44-.28-.43-.52,2.02-36.87-36.93-37.92-34.62-.82l-.9,.31c.21,.02,.26,.18,.28,.2h-.22s-.89,0-.89,0c-.77,0-1.86,.03-3.17,.06-2.62,.06-6.12,.17-9.64,.26-6.94,.19-14.29,.38-14.95,.14-.81-.29-1.37-.72-1.8-1.22-.21-.25-.39-.51-.54-.76-.15-.25-.29-.51-.42-.77-.52-1-.97-1.83-2.22-2.28-.64-.23-1.17-.26-1.64-.2-.51,.06-.95,.22-1.38,.33-1,.28-2.01,.39-3.25-.88-1.23-1.26-1.11-2.32-1-3.23,.05-.44,.09-.8,.01-1.17-.07-.35-.26-.76-.74-1.26-.48-.49-.86-.66-1.18-.72-.16-.03-.32-.03-.49-.02-.18,.01-.35,.04-.52,.06-.9,.12-1.72,.05-2.38-1.62-.48-1.19,.31-1.96,1.34-2.39,2.3-.29,3.37-.7,3.81-1.08,.3-.26,.31-.48,.03-.83-.72-.89-2.58-1.51-3.04-1.33-1.49,.56-3.71-1.71-2.86-3.75,.03-.08,.02-.38-.26-1-.26-.57-.65-1.23-1.05-1.88-.42-.67-.85-1.34-1.18-1.89-.17-.29-.32-.56-.42-.78-.1-.21-.2-.47-.19-.71,0-.29-.03-1.15-.03-2.01,0-.44,.01-.88,.04-1.25,.01-.2,.03-.37,.06-.52,.02-.14,.06-.31,.14-.45,.02-.04,.22-.22,.26-.23,.16-.06,.33-.25,.42-.75,.09-.49,.07-1.12,0-1.82-.07-.7-.19-1.41-.29-2.02-.09-.59-.19-1.17-.17-1.52,.08-1.63,.41-2.05,.82-2.45,.14-.14,.23-.23,.31-.43,.09-.23,.18-.62,.22-1.37,.07-1.41-.28-2.2-.65-3.05-.2-.46-.4-.92-.54-1.46-.15-.57-.23-1.22-.19-2.03,.03-.58,.42-.79,.77-.87,.12-.03,.27-.05,.43-.08,.13-.02,.27-.05,.43-.11,3.29-.42,2.77-2.17,.99-2.84-1.72-.64-2.19-2.16-2.24-3.74-.05-1.52,.3-3.29,.43-4.83,.04-.45,.04-.74,.04-.91Z" style="fill: #a8a9ac; fill-rule: evenodd;"/>
            <path d="M1954.66,525.33l-13.17-8.23-13.17,8.23,3.75-15.07-11.89-9.99,15.49-1.09,5.82-14.4,5.82,14.4,15.49,1.09-11.89,9.99,3.75,15.07Zm0,48.53l-13.17-8.23-13.17,8.23,3.75-15.07-11.89-9.99,15.49-1.09,5.82-14.4,5.82,14.4,15.49,1.09-11.89,9.99,3.75,15.07Zm0,48.53l-13.17-8.23-13.17,8.23,3.75-15.07-11.89-9.99,15.49-1.09,5.82-14.4,5.82,14.4,15.49,1.09-11.89,9.99,3.75,15.07Zm0,48.53l-13.17-8.23-13.17,8.23,3.75-15.07-11.89-9.99,15.49-1.09,5.82-14.4,5.82,14.4,15.49,1.09-11.89,9.99,3.75,15.07Zm127.06-145.59l-13.17-8.23-13.17,8.23,3.75-15.07-11.89-9.99,15.49-1.09,5.82-14.4,5.82,14.4,15.49,1.09-11.89,9.99,3.75,15.07Zm0,48.53l-13.17-8.23-13.17,8.23,3.75-15.07-11.89-9.99,15.49-1.09,5.82-14.4,5.82,14.4,15.49,1.09-11.89,9.99,3.75,15.07Zm0,48.53l-13.17-8.23-13.17,8.23,3.75-15.07-11.89-9.99,15.49-1.09,5.82-14.4,5.82,14.4,15.49,1.09-11.89,9.99,3.75,15.07Zm0,48.53l-13.17-8.23-13.17,8.23,3.75-15.07-11.89-9.99,15.49-1.09,5.82-14.4,5.82,14.4,15.49,1.09-11.89,9.99,3.75,15.07Zm-61.85-145.59l-13.17-8.23-13.17,8.23,3.75-15.07-11.89-9.99,15.49-1.09,5.82-14.4,5.82,14.4,15.49,1.09-11.89,9.99,3.75,15.07Zm0,48.53l-13.17-8.23-13.17,8.23,3.75-15.07-11.89-9.99,15.49-1.09,5.82-14.4,5.82,14.4,15.49,1.09-11.89,9.99,3.75,15.07Zm0,48.53l-13.17-8.23-13.17,8.23,3.75-15.07-11.89-9.99,15.49-1.09,5.82-14.4,5.82,14.4,15.49,1.09-11.89,9.99,3.75,15.07Zm0,48.53l-13.17-8.23-13.17,8.23,3.75-15.07-11.89-9.99,15.49-1.09,5.82-14.4,5.82,14.4,15.49,1.09-11.89,9.99,3.75,15.07Zm0,48.53l-13.17-8.23-13.17,8.23,3.75-15.07-11.89-9.99,15.49-1.09,5.82-14.4,5.82,14.4,15.49,1.09-11.89,9.99,3.75,15.07Zm288-520.57c1.31,.94,1.87,2.31,2.56,3.94l3.62,8.62c1.44,3.37,2.12,5.25,2.94,5.56,1.37,.56,2.62,.5,2.62,1.44,0,.56-.31,.62-1.06,.62-1.06,0-2.37-.19-3.81-.19-.94,0-1.81,.19-2.75,.19-1.25,0-1.37-.69-1.94-2.06l-5.62-14.18c-.87-2.19-1.56-2.81-3.5-2.81h-.62c-.5,0-.81,.37-.81,.87v12.31c0,2.44,.06,3.94,2.75,3.94,1,0,1.37,.31,1.37,1.06,0,.5-.5,.87-1.25,.87-.62,0-2.44-.37-5.68-.37s-5.19,.37-5.93,.37c-.87,0-1.31-.37-1.31-1,0-1.19,1.25-.75,2.44-1.06,2-.5,2-1.12,2-3.81v-28.61c0-2-.13-2.5-1.37-2.87-1.62-.44-2.94,.12-2.94-1.12,0-.81,.56-.87,1.69-.87,.5,0,1.94,.25,4.12,.25,3.12,0,6.12-.37,8.93-.37,6.68,0,10.25,3.87,10.25,9.68,0,5-2.56,8.68-6.68,9.62Zm-8.37-2.25c0,1.31,.75,1.44,2.87,1.44,4.25,0,6.5-2.75,6.5-7.93s-2.19-8.5-6.25-8.5c-2.87,0-3.12,1.06-3.12,3.12v11.87Zm-35.36-12.06v21.8c0,7.62,1.5,11.62,8.12,11.62,3.31,0,5.81-1.19,7.31-3.31,1.5-2.25,1.56-5.25,1.56-9.56v-15.12c0-4.75-.06-7.18-1.12-8.06-1.12-.87-3.37,0-3.37-1.37,0-.56,.37-.87,1.06-.87,.75,0,2.12,.19,4.25,.19,2.25,0,3.69-.19,4.31-.19,.87,0,1.31,.25,1.31,.87,0,.75-.56,.87-1.81,.87-2.62,0-2.75,2.12-2.75,8.37v15.37c0,4.31-.06,7.56-1.69,10.37-1.75,3-5.25,4.69-10.06,4.69-5.31,0-8.87-1.37-10.99-4.5-1.69-2.44-1.81-5.44-1.81-9.25v-21.93c0-2.06-.06-2.5-1.37-2.87-1.62-.5-2.87,.12-2.87-1.12,0-.5,.37-.87,.94-.87,.62,0,2.62,.5,6.18,.5s5.56-.5,6.18-.5,.94,.37,.94,.87c0,1.31-1.44,.69-2.94,1.12-1.25,.37-1.37,.87-1.37,2.87Zm-11.57-5.75l-.37,8.25c-.06,1.37-.25,1.75-.87,1.75-1.12,0-1.06-1.75-1.81-4.19-1.12-2.69-2.94-3.06-6.75-3.06h-1c-.5,0-.81,.56-.81,1v30.61c0,2.62,.06,3.19,1.69,3.75,1.44,.5,2.75-.13,2.75,1.25,0,.5-.44,.87-1.31,.87-1.31,0-3.31-.44-5.93-.44s-4.62,.44-5.93,.44c-.87,0-1.31-.37-1.31-1,0-1.25,1.37-.69,2.75-1.12,1.62-.5,1.69-1.06,1.69-3.75v-30.42c0-.5-.31-1.19-.81-1.19h-1.75c-2.56,0-4.06,1-5.62,3-1.5,2.5-2.06,4-3.06,4-.44,0-.69-.06-.69-.87,0-.06,.13-.56,.25-1.06l1.56-6.37c.44-1.87,.44-3.19,1.25-3.19,.75,0,.69,2.06,1.44,2.12,.44,.44,1.44,.56,2.94,.56,1.19,0,2.69-.06,4.5-.06h7.68c2.06,0,3.69,.13,4.87,.13,.94,0,1.62-.06,2-.31,1.12-.69,1.37-2.5,2-2.5,.5,0,.69,.75,.69,1.12v.69Zm-35.4,5.75v28.61c0,2.62,.06,3.25,1.69,3.75,1.44,.44,2.75-.13,2.75,1.25,0,.5-.44,.87-1.31,.87-.75,0-2.69-.37-5.93-.37s-5.19,.37-5.93,.37c-.87,0-1.31-.37-1.31-1,0-1.19,1.25-.75,2.44-1.06,2-.5,2-1.12,2-3.81v-28.61c0-2-.13-2.5-1.37-2.87-1.62-.44-2.94,.12-2.94-1.12,0-.5,.31-.87,.94-.87s2.62,.5,6.18,.5,5.5-.5,6.18-.5c.56,0,.94,.37,.94,.87,0,1.12-1.12,.75-2.69,1.06-1.56,.31-1.62,.94-1.62,2.94Zm-24.87,16.49l-1-.44c-.19-.06-.31-.12-.44-.12-.5,0-.56,.37-.56,1.19v11.68c0,2.12,.06,2.87,1.25,3.44,1.56,.69,3-.13,3,1.37,0,.5-.5,.94-1.31,.94s-2.81-.44-5.93-.44c-2.94,0-4.81,.44-5.68,.44-.56,0-.94-.18-1.12-.49-.14,.37-.53,.49-1.25,.49-1.06,0-2.75-.38-5.25-.38-3.5,0-5.62,.31-6.43,.31-.75,0-1.06-.19-1.06-.75s.5-1,1.25-1c2.06,0,2.56-.37,2.56-1.5,0-.56-.19-1.5-.56-2.81l-2.44-8c-.12-.44-.44-.5-.94-.5h-7.75c-.25,0-.62,.25-.69,.56l-1.5,5.56c-.62,2.44-.94,4.06-.94,4.81,0,1.25,.5,1.5,1.62,1.69,1.69,.25,2.5,.44,2.5,1.37,0,.56-.37,.75-1.06,.75-.87,0-2.75-.37-5.43-.37-1.81,0-3.25,.31-4.12,.31-.75,0-1.12-.31-1.12-.81,0-1.31,1.87-.5,3.12-1.44,1.12-.81,1.56-2.37,2.25-4.62l9.93-32.23c.31-.94,.37-1.5,1.06-1.5,.87,0,.94,1.19,1.5,2.94l9.43,29.74c.87,2.87,1.44,4.56,3.06,5.62,.92,.63,1.8,.66,2.15,.98,.17-.85,1.26-.51,2.35-.8,1.87-.5,1.87-1.5,1.87-4.31v-28.17c0-1.81-.13-2.44-1.31-2.81-1.56-.5-2.81,.06-2.81-1.19,0-.62,.44-.87,1.19-.87,.31,0,1.94,.19,4.94,.19h1c1.44,0,3.5-.13,6.25-.13,7.25,0,10.87,3.87,10.87,11.43,0,6.31-3.94,10.99-8.56,10.99-1.12,0-2.37-.44-3.87-1.12Zm-2.06-4.37c0,1.81,1.69,2.69,3.25,2.69,2.81,0,5.37-3.31,5.37-8.5,0-5.62-2.69-9.37-5.68-9.37-2.56,0-2.94,.87-2.94,3.06v12.12Zm-27.55-6.56c-.13-.37-.25-.56-.37-.56s-.31,.19-.37,.5l-2.94,11.06c-.06,.31-.06,.56-.06,.62,0,.19,.19,.37,.44,.37h6.25c.25,0,.56-.25,.56-.5,0-.19-.06-.37-.13-.62l-3.37-10.87Zm-44.22,9.18c0-11.62,8.37-20.74,18.8-20.74,4.56,0,8.5,1.44,9.25,2.31,.44,.44,.81,2.75,.81,6.43,0,.69-.19,1.12-.5,1.12-.56,0-1.12-.94-2.06-2.5-2.25-3.69-4.5-5.68-7.75-5.68-6.75,0-12.12,7.68-12.12,19.37,0,10.81,5.37,18.62,11.56,18.62,3.87,0,6.37-2.12,8.31-6.43,1-2.25,1.44-3.56,2.19-3.56,.38,0,.69,.44,.69,1.31,0,.5-.19,2.31-.19,5.31s-4.44,5.37-10.74,5.37c-10.5,0-18.24-9.18-18.24-20.93Zm-38.67-9.87c0-6.43,4.25-10.87,11.06-10.87,3.5,0,6.56,1.19,7.12,1.94,.31,.37,.5,2.69,.5,6.81,0,.87-.31,1.31-.81,1.31-.87,0-.94-1.19-1.81-3.31-1.31-3.31-2.62-5.12-5.56-5.12-3.69,0-6,2.5-6,6.43,0,3.31,1.87,5.12,5.81,7.18,6.68,3.5,10.43,6.68,10.43,13.74s-5.06,12.68-12.06,12.68c-5.5,0-9.25-1.81-9.25-5.37,0-1.44,.12-2.75,.12-3.94,0-.94-.06-1.5-.06-1.62,0-1.31,.37-1.94,.94-1.94,1.12,0,.81,2,1.5,4.37,1.25,4.19,4.31,6.68,7.5,6.68,3.75,0,6.75-3.19,6.75-7.5,0-3.81-2.37-6.75-7.12-9.43-5.06-2.87-9.06-4.75-9.06-12.06Zm-19.24,.69c-.12-.37-.25-.56-.37-.56s-.31,.19-.37,.5l-2.94,11.06c-.06,.31-.06,.56-.06,.62,0,.19,.19,.37,.44,.37h6.25c.25,0,.56-.25,.56-.5,0-.19-.06-.37-.13-.62l-3.37-10.87Zm3.06-8.62l9.43,29.74c.87,2.87,1.44,4.56,3.06,5.62,1.19,.81,2.31,.62,2.31,1.37,0,.69-.37,.87-1.31,.87-1.06,0-2.75-.38-5.25-.38-3.5,0-5.62,.31-6.43,.31-.75,0-1.06-.19-1.06-.75s.5-1,1.25-1c2.06,0,2.56-.37,2.56-1.5,0-.56-.19-1.5-.56-2.81l-2.44-8c-.12-.44-.44-.5-.94-.5h-7.75c-.25,0-.62,.25-.69,.56l-1.5,5.56c-.62,2.44-.94,4.06-.94,4.81,0,1.25,.5,1.5,1.62,1.69,1.69,.25,2.5,.44,2.5,1.37,0,.56-.37,.75-1.06,.75-.87,0-2.75-.37-5.43-.37-1.81,0-3.25,.31-4.12,.31-.75,0-1.12-.31-1.12-.81,0-1.31,1.87-.5,3.12-1.44,1.12-.81,1.56-2.37,2.25-4.62l9.93-32.23c.31-.94,.38-1.5,1.06-1.5,.87,0,.94,1.19,1.5,2.94Zm-13.13-2.69l-.37,8.25c-.06,1.37-.25,1.75-.87,1.75-1.12,0-1.06-1.75-1.81-4.19-1.12-2.69-2.94-3.06-6.75-3.06h-1c-.5,0-.81,.56-.81,1v30.61c0,2.62,.06,3.19,1.69,3.75,1.44,.5,2.75-.13,2.75,1.25,0,.5-.44,.87-1.31,.87-1.31,0-3.31-.44-5.93-.44s-4.62,.44-5.93,.44c-.87,0-1.31-.37-1.31-1,0-1.25,1.37-.69,2.75-1.12,1.62-.5,1.69-1.06,1.69-3.75v-30.42c0-.5-.31-1.19-.81-1.19h-1.75c-2.56,0-4.06,1-5.62,3-1.5,2.5-2.06,4-3.06,4-.44,0-.69-.06-.69-.87,0-.06,.13-.56,.25-1.06l1.56-6.37c.44-1.87,.44-3.19,1.25-3.19,.75,0,.69,2.06,1.44,2.12,.44,.44,1.44,.56,2.94,.56,1.19,0,2.69-.06,4.5-.06h7.68c2.06,0,3.69,.13,4.87,.13,.94,0,1.62-.06,2-.31,1.12-.69,1.37-2.5,2-2.5,.5,0,.69,.75,.69,1.12v.69Zm-38.64,20.05c1.31,.94,1.87,2.31,2.56,3.94l3.62,8.62c1.44,3.37,2.12,5.25,2.94,5.56,1.37,.56,2.62,.5,2.62,1.44,0,.56-.31,.62-1.06,.62-1.06,0-2.37-.19-3.81-.19-.94,0-1.81,.19-2.75,.19-1.25,0-1.37-.69-1.94-2.06l-5.62-14.18c-.87-2.19-1.56-2.81-3.5-2.81h-.62c-.5,0-.81,.37-.81,.87v12.31c0,2.44,.06,3.94,2.75,3.94,1,0,1.37,.31,1.37,1.06,0,.5-.5,.87-1.25,.87-.62,0-2.44-.37-5.69-.37s-5.18,.37-5.93,.37c-.87,0-1.31-.37-1.31-1,0-1.19,1.25-.75,2.44-1.06,2-.5,2-1.12,2-3.81v-28.61c0-2-.13-2.5-1.37-2.87-1.62-.44-2.94,.12-2.94-1.12,0-.81,.56-.87,1.69-.87,.5,0,1.94,.25,4.12,.25,3.12,0,6.12-.37,8.93-.37,6.68,0,10.25,3.87,10.25,9.68,0,5-2.56,8.68-6.68,9.62Zm-8.37-2.25c0,1.31,.75,1.44,2.87,1.44,4.25,0,6.5-2.75,6.5-7.93s-2.19-8.5-6.25-8.5c-2.87,0-3.12,1.06-3.12,3.12v11.87Zm-14.33-14.81v5.37c0,1.06-.13,1.56-.69,1.56-1.12,0-.81-2.62-3.06-4.69-1.69-1.56-4.19-2.37-7.62-2.37s-3.5,.87-3.5,3.81v10.31c0,1.06,0,1.25,1.12,1.25h2.81c2.56,0,4.69-.56,5.25-1.12,1.69-1.62,.87-3.81,2.19-3.81,.56,0,.75,.25,.75,.87,0,1.56-.31,3.69-.31,6.18,0,2.94,.19,4.75,.19,5.31,0,.75-.31,1.12-.75,1.12-1.06,0-.81-1.94-2.12-4.37-1-1.87-2.62-2.06-5.25-2.06h-2.75c-.87,0-1.12,.25-1.12,1.12v12.87c0,3.44,.81,4,4.5,4,3.87,0,5.93-.5,7.87-3.56,1.5-2.31,2-4.31,3-4.31,.25,0,.62,.37,.62,.56,0,0-.06,.44-.13,1.12l-.69,6.06c-.19,1.94-.13,2.19-1.94,2.19-2.56,0-7.93-.5-15.93-.5-3.69,0-5.62,.31-6.12,.31-.94,0-1.37-.31-1.37-1,0-1.12,1.12-.75,2.69-1,1.81-.25,1.87-1.44,1.87-3.87v-28.61c0-1.87,0-2.5-1.19-2.87-1.37-.44-2.69,.12-2.69-1.12,0-.56,.37-.87,1.06-.87,.5,0,3.56,.25,9.31,.25,7.31,0,11.43-.25,12.24-.25,1.69,0,1.75,.56,1.75,1.87v.25Zm-46.55,17.24c-.5,0-.81,.31-.81,.81v12.81c0,3.19,1.31,4.69,5.06,4.69,4.94,0,8-3.44,8-9.5,0-5.31-2.87-8.81-8.37-8.81h-3.87Zm10.31-1.56c5.25,1.06,8.18,4.87,8.18,10.68,0,6.68-4.62,11.43-11.68,11.43-4.5,0-8.18-.94-11.24-.94-2.31,0-3.87,.37-4.69,.37-.75,0-1.19-.37-1.19-1,0-.69,.44-.94,1.5-.94,1.87,0,2.44-1,2.44-2.69,0-.19,.06-.56,.06-1.25v-28.61c0-1.69-.56-2.44-1.69-2.44-.81,0-1.56,.31-2.19,.31-.5,0-.75-.31-.75-.87,0-1.25,3.94-1.94,11.68-1.94,10.43,0,15.68,2.87,15.68,9.62,0,4.12-1.94,6.68-6.12,8.25Zm-11.12-2.37c0,1.81,.06,1.94,1.94,1.94h.81c5.37,0,8.5-2.69,8.5-7.43,0-5.12-2.69-7.93-7.62-7.93-3.19,0-3.62,.75-3.62,3v10.43Zm-17.03-10.56v28.61c0,2.62,.06,3.25,1.69,3.75,1.44,.44,2.75-.13,2.75,1.25,0,.5-.44,.87-1.31,.87-.75,0-2.69-.37-5.93-.37s-5.19,.37-5.93,.37c-.87,0-1.31-.37-1.31-1,0-1.19,1.25-.75,2.44-1.06,2-.5,2-1.12,2-3.81v-28.61c0-2-.13-2.5-1.37-2.87-1.62-.44-2.94,.12-2.94-1.12,0-.5,.31-.87,.94-.87s2.62,.5,6.18,.5,5.5-.5,6.18-.5c.56,0,.94,.37,.94,.87,0,1.12-1.12,.75-2.69,1.06-1.56,.31-1.62,.94-1.62,2.94Zm-25.77,0v28.61c0,2.69,1.44,4.06,4.06,4.06s4.69-1.12,6.43-3.44c1.87-2.5,2.56-4.19,3.25-4.19,.25,0,.56,.31,.56,.5,0,.06,0,.5-.06,1.12l-.63,5.87c-.06,.56-.13,.87-.13,1.06,0,.69-.44,1.06-1.25,1.06-2.62,0-7.68-.56-15.06-.56-3.25,0-5.18,.37-5.93,.37-.87,0-1.31-.37-1.31-1,0-1.19,1.25-.75,2.44-1.06,2-.5,2-1.12,2-3.81v-28.61c0-1.87-.06-2.5-1.25-2.87-1.5-.5-2.69,.12-2.69-1.12,0-.5,.31-.87,.81-.87,.62,0,2.37,.5,5.75,.5,3.75,0,5.75-.5,6.37-.5,.56,0,.94,.37,.94,.87,0,1.12-1.12,.75-2.69,1.06-1.56,.31-1.62,.94-1.62,2.94Zm418.89,307.91h5.65c1.12,0,1.64,.13,1.64,.72,0,1.18-2.76,.85-4.93,3.22-1.64,1.77-2.5,4.4-2.5,8.02s.92,3.68,4.01,3.68h10.84c1.12,0,1.31,0,1.31-1.18v-2.96c0-2.69-.59-4.93-1.18-5.52-1.71-1.77-4.01-.92-4.01-2.3,0-.59,.26-.79,.92-.79,1.64,0,3.88,.33,6.5,.33,3.09,0,4.99-.2,5.58-.2,.79,0,1.18,.33,1.18,.79,0,1.12-2.04,.85-4.6,2.23-1.97,1.05-2.17,2.76-2.17,5.52v2.89c0,.92,.26,1.18,1.18,1.18h13.54c3.61,0,4.21-.85,4.21-4.73,0-4.07-.53-6.24-3.75-8.28-2.43-1.58-4.53-2.1-4.53-3.15,0-.26,.39-.66,.59-.66,0,0,.46,.07,1.18,.13l6.37,.72c2.04,.2,2.3,.13,2.3,2.04,0,2.69-.53,8.34-.53,16.75,0,3.88,.33,5.91,.33,6.44,0,.99-.33,1.45-1.05,1.45-1.18,0-.79-1.18-1.05-2.83-.26-1.91-1.51-1.97-4.07-1.97h-30.09c-1.97,0-2.63,0-3.02,1.25-.46,1.45,.13,2.83-1.18,2.83-.59,0-.92-.39-.92-1.12,0-.53,.26-3.74,.26-9.79,0-7.69-.26-12.02-.26-12.88,0-1.77,.59-1.84,1.97-1.84h.26Zm2.89,45.98h30.09c2.83,0,4.27-1.51,4.27-4.27s-1.18-4.93-3.61-6.77c-2.63-1.97-4.4-2.69-4.4-3.42,0-.26,.33-.59,.53-.59,.07,0,.53,0,1.18,.07l6.18,.66c.59,.07,.92,.13,1.12,.13,.72,0,1.12,.46,1.12,1.31,0,2.76-.59,8.08-.59,15.84,0,3.42,.39,5.45,.39,6.24,0,.92-.39,1.38-1.05,1.38-1.25,0-.79-1.31-1.12-2.56-.53-2.1-1.18-2.1-4.01-2.1h-30.09c-1.97,0-2.63,.07-3.02,1.31-.53,1.58,.13,2.83-1.18,2.83-.53,0-.92-.33-.92-.85,0-.66,.53-2.5,.53-6.04,0-3.94-.53-6.04-.53-6.7,0-.59,.39-.99,.92-.99,1.18,0,.79,1.18,1.12,2.83,.33,1.64,.99,1.71,3.09,1.71Zm0,21.17h30.09c2.76,0,3.42-.07,3.94-1.77,.46-1.51-.13-2.89,1.31-2.89,.53,0,.92,.46,.92,1.38,0,.79-.39,2.83-.39,6.24s.39,5.45,.39,6.24c0,.92-.39,1.38-1.05,1.38-1.25,0-.79-1.31-1.12-2.56-.53-2.1-1.18-2.1-4.01-2.1h-30.09c-2.1,0-2.63,.13-3.02,1.45-.46,1.71,.13,3.09-1.18,3.09-.53,0-.92-.33-.92-.99s.53-2.76,.53-6.5-.53-5.78-.53-6.5c0-.59,.39-.99,.92-.99,1.18,0,.79,1.18,1.12,2.83,.33,1.64,.99,1.71,3.09,1.71Zm0,43.68h11.96c.59,0,.85-.26,.85-.85v-14.92c0-.53-.39-.79-.92-.79h-11.89c-2.1,0-2.63,.07-3.02,1.38-.46,1.71,.13,3.09-1.18,3.09-.53,0-.92-.33-.92-.99s.53-2.76,.53-6.5-.53-5.78-.53-6.51c0-.59,.39-.99,.92-.99,1.18,0,.79,1.18,1.12,2.83,.33,1.64,.99,1.71,3.09,1.71h30.09c2.76,0,3.42,0,3.94-1.71,.46-1.51-.13-2.96,1.31-2.96,.53,0,.92,.53,.92,1.45,0,.79-.39,2.76-.39,6.18s.39,5.45,.39,6.24c0,.92-.39,1.45-1.05,1.45-1.25,0-.79-1.31-1.12-2.56-.53-2.1-1.18-2.1-4.01-2.1h-14.06c-.53,0-.92,.26-.92,.79v14.92c0,.53,.39,.85,.92,.85h14.06c2.76,0,3.42-.07,3.94-1.77,.46-1.51-.13-2.89,1.31-2.89,.53,0,.92,.46,.92,1.38,0,.79-.39,2.83-.39,6.24s.39,5.45,.39,6.24c0,.92-.39,1.38-1.05,1.38-1.25,0-.79-1.31-1.12-2.56-.53-2.1-1.18-2.1-4.01-2.1h-30.09c-2.1,0-2.63,.13-3.02,1.45-.46,1.71,.13,3.09-1.18,3.09-.53,0-.92-.33-.92-.99s.53-2.76,.53-6.5-.53-5.78-.53-6.51c0-.59,.39-.99,.92-.99,1.18,0,.79,1.18,1.12,2.83,.33,1.64,.99,1.71,3.09,1.71Zm15.51,48.48c-12.22,0-21.81-8.8-21.81-19.78,0-4.8,1.51-8.94,2.43-9.72,.46-.46,2.89-.85,6.77-.85,.72,0,1.18,.2,1.18,.53,0,.59-.99,1.18-2.63,2.17-3.88,2.37-5.98,4.73-5.98,8.15,0,7.1,8.08,12.75,20.37,12.75,11.37,0,19.58-5.65,19.58-12.16,0-4.07-2.23-6.7-6.77-8.74-2.37-1.05-3.75-1.51-3.75-2.3,0-.39,.46-.72,1.38-.72,.53,0,2.43,.2,5.58,.2s5.65,4.67,5.65,11.3c0,11.04-9.66,19.19-22.01,19.19Zm-19.21,31.62l5.65,.2c1.12,.04,1.64,.19,1.62,.78-.04,1.18-2.79,.76-5.04,3.05-1.7,1.72-2.65,4.31-2.77,7.92-.12,3.48,.79,3.71,3.88,3.82l10.83,.38c1.12,.04,1.31,.05,1.35-1.14l.1-2.95c.09-2.69-.42-4.95-.99-5.56-1.65-1.83-3.97-1.06-3.93-2.44,.02-.59,.29-.78,.95-.76,1.64,.06,3.86,.46,6.49,.56,3.09,.11,5-.02,5.59,0,.79,.03,1.17,.37,1.15,.83-.04,1.12-2.07,.78-4.67,2.07-2.01,.98-2.26,2.68-2.36,5.44l-.1,2.89c-.03,.92,.22,1.19,1.14,1.22l13.53,.47c3.61,.13,4.23-.71,4.37-4.58,.14-4.07-.31-6.26-3.45-8.4-2.37-1.66-4.46-2.26-4.42-3.31,0-.26,.42-.64,.61-.64,0,0,.46,.08,1.18,.17l6.34,.94c2.03,.27,2.29,.21,2.23,2.12-.09,2.69-.82,8.32-1.11,16.73-.13,3.87,.12,5.92,.1,6.45-.03,.98-.38,1.43-1.1,1.41-1.18-.04-.75-1.21-.95-2.86-.2-1.91-1.44-2.02-4-2.11l-30.07-1.05c-1.97-.07-2.63-.09-3.06,1.14-.51,1.43,.03,2.83-1.28,2.78-.59-.02-.91-.43-.88-1.15,.02-.53,.39-3.73,.6-9.77,.27-7.68,.16-12.03,.19-12.88,.06-1.77,.65-1.82,2.03-1.77h.26Zm11.24,69.05l-25.33-17.08c-1.14-.77-1.89-.96-2.51-.03-.55,.82-.47,1.75-.91,2.4-.22,.33-.73,.38-1.22,.05-1.42-.96,.67-6.28,6.22-14.51,6.98-10.35,18.65-11.91,29.16-4.82,10.62,7.16,13.21,17.78,5.9,28.62-1.91,2.83-4.03,4.81-5.32,6.71-1.14,1.69-1.79,3.47-2.7,4.83-.51,.76-1.1,.92-1.64,.56-1.03-.7,.08-1.53,.51-2.75,.74-2.04,.2-2.4-2.15-3.98Zm1.73-5.97c3.76,2.53,5.62,2.84,7.82-.43,4.7-6.97,1.65-15.61-8.15-22.22-9.21-6.21-18.9-6.17-23.42,.53-2.53,3.76-1.85,4.86,.28,6.29l23.48,15.84Zm-70.23,1.93v30.09c0,2.83,1.51,4.27,4.27,4.27s4.93-1.18,6.77-3.61c1.97-2.63,2.69-4.4,3.42-4.4,.26,0,.59,.33,.59,.53,0,.07,0,.53-.07,1.18l-.66,6.18c-.07,.59-.13,.92-.13,1.12,0,.72-.46,1.12-1.31,1.12-2.76,0-8.08-.59-15.84-.59-3.42,0-5.45,.39-6.24,.39-.92,0-1.38-.39-1.38-1.05,0-1.25,1.31-.79,2.56-1.12,2.1-.53,2.1-1.18,2.1-4.01v-30.09c0-1.97-.07-2.63-1.31-3.02-1.58-.53-2.83,.13-2.83-1.18,0-.53,.33-.92,.85-.92,.66,0,2.5,.53,6.04,.53,3.94,0,6.04-.53,6.7-.53,.59,0,.99,.39,.99,.92,0,1.18-1.18,.79-2.83,1.12-1.64,.33-1.71,.99-1.71,3.09Zm-32.21,5.85c-.13-.39-.26-.59-.39-.59s-.33,.2-.39,.53l-3.09,11.63c-.07,.33-.07,.59-.07,.66,0,.2,.2,.39,.46,.39h6.57c.26,0,.59-.26,.59-.53,0-.2-.07-.39-.13-.66l-3.55-11.43Zm3.22-9.07l9.92,31.28c.92,3.02,1.51,4.8,3.22,5.91,1.25,.85,2.43,.66,2.43,1.45,0,.72-.39,.92-1.38,.92-1.12,0-2.89-.39-5.52-.39-3.68,0-5.91,.33-6.77,.33-.79,0-1.12-.2-1.12-.79s.53-1.05,1.31-1.05c2.17,0,2.69-.39,2.69-1.58,0-.59-.2-1.58-.59-2.96l-2.56-8.41c-.13-.46-.46-.53-.99-.53h-8.15c-.26,0-.66,.26-.72,.59l-1.58,5.85c-.66,2.56-.99,4.27-.99,5.06,0,1.31,.53,1.58,1.71,1.77,1.77,.26,2.63,.46,2.63,1.45,0,.59-.39,.79-1.12,.79-.92,0-2.89-.39-5.72-.39-1.91,0-3.42,.33-4.34,.33-.79,0-1.18-.33-1.18-.85,0-1.38,1.97-.53,3.28-1.51,1.18-.85,1.64-2.5,2.37-4.86l10.45-33.9c.33-.99,.39-1.58,1.12-1.58,.92,0,.99,1.25,1.58,3.09Zm-31.53,18.27c1.38,.99,1.97,2.43,2.69,4.14l3.81,9.07c1.51,3.55,2.23,5.52,3.09,5.85,1.45,.59,2.76,.53,2.76,1.51,0,.59-.33,.66-1.12,.66-1.12,0-2.5-.2-4.01-.2-.99,0-1.91,.2-2.89,.2-1.31,0-1.45-.72-2.04-2.17l-5.91-14.92c-.92-2.3-1.64-2.96-3.68-2.96h-.66c-.53,0-.85,.39-.85,.92v12.94c0,2.56,.07,4.14,2.89,4.14,1.05,0,1.45,.33,1.45,1.12,0,.53-.53,.92-1.31,.92-.66,0-2.56-.39-5.98-.39s-5.45,.39-6.24,.39c-.92,0-1.38-.39-1.38-1.05,0-1.25,1.31-.79,2.56-1.12,2.1-.53,2.1-1.18,2.1-4.01v-30.09c0-2.1-.13-2.63-1.45-3.02-1.71-.46-3.09,.13-3.09-1.18,0-.85,.59-.92,1.77-.92,.53,0,2.04,.26,4.34,.26,3.29,0,6.44-.39,9.4-.39,7.03,0,10.78,4.07,10.78,10.18,0,5.26-2.69,9.13-7.03,10.12Zm-8.8-2.37c0,1.38,.79,1.51,3.02,1.51,4.47,0,6.83-2.89,6.83-8.34s-2.3-8.94-6.57-8.94c-3.02,0-3.29,1.12-3.29,3.29v12.48Zm-15.6-18.73l-.39,8.67c-.07,1.45-.26,1.84-.92,1.84-1.18,0-1.12-1.84-1.91-4.4-1.18-2.83-3.09-3.22-7.1-3.22h-1.05c-.53,0-.85,.59-.85,1.05v32.2c0,2.76,.07,3.35,1.77,3.94,1.51,.53,2.89-.13,2.89,1.31,0,.53-.46,.92-1.38,.92-1.38,0-3.48-.46-6.24-.46s-4.86,.46-6.24,.46c-.92,0-1.38-.39-1.38-1.05,0-1.31,1.45-.72,2.89-1.18,1.71-.53,1.77-1.12,1.77-3.94v-32c0-.53-.33-1.25-.85-1.25h-1.84c-2.69,0-4.27,1.05-5.91,3.15-1.58,2.63-2.17,4.2-3.22,4.2-.46,0-.72-.07-.72-.92,0-.07,.13-.59,.26-1.12l1.64-6.7c.46-1.97,.46-3.35,1.31-3.35,.79,0,.72,2.17,1.51,2.23,.46,.46,1.51,.59,3.09,.59,1.25,0,2.83-.07,4.73-.07h8.08c2.17,0,3.88,.13,5.12,.13,.99,0,1.71-.07,2.1-.33,1.18-.72,1.45-2.63,2.1-2.63,.53,0,.72,.79,.72,1.18v.72Zm-58.77,11.17c0-6.77,4.47-11.43,11.63-11.43,3.68,0,6.9,1.25,7.49,2.04,.33,.39,.53,2.83,.53,7.16,0,.92-.33,1.38-.85,1.38-.92,0-.99-1.25-1.91-3.48-1.38-3.48-2.76-5.39-5.85-5.39-3.88,0-6.31,2.63-6.31,6.77,0,3.48,1.97,5.39,6.11,7.56,7.03,3.68,10.97,7.03,10.97,14.46s-5.32,13.34-12.68,13.34c-5.78,0-9.72-1.91-9.72-5.65,0-1.51,.13-2.89,.13-4.14,0-.99-.07-1.58-.07-1.71,0-1.38,.39-2.04,.99-2.04,1.18,0,.85,2.1,1.58,4.6,1.31,4.4,4.53,7.03,7.88,7.03,3.94,0,7.1-3.35,7.1-7.88,0-4.01-2.5-7.1-7.49-9.92-5.32-3.02-9.53-4.99-9.53-12.68Zm-31.67-5.12v22.93c0,8.02,1.58,12.22,8.54,12.22,3.48,0,6.11-1.25,7.69-3.48,1.58-2.37,1.64-5.52,1.64-10.05v-15.9c0-4.99-.07-7.56-1.18-8.48-1.18-.92-3.55,0-3.55-1.45,0-.59,.39-.92,1.12-.92,.79,0,2.23,.2,4.47,.2,2.37,0,3.88-.2,4.53-.2,.92,0,1.38,.26,1.38,.92,0,.79-.59,.92-1.91,.92-2.76,0-2.89,2.23-2.89,8.8v16.16c0,4.53-.07,7.95-1.77,10.91-1.84,3.15-5.52,4.93-10.58,4.93-5.59,0-9.33-1.45-11.56-4.73-1.77-2.56-1.91-5.72-1.91-9.72v-23.06c0-2.17-.07-2.63-1.45-3.02-1.71-.53-3.02,.13-3.02-1.18,0-.53,.39-.92,.99-.92,.66,0,2.76,.53,6.5,.53s5.85-.53,6.51-.53,.99,.39,.99,.92c0,1.38-1.51,.72-3.09,1.18-1.31,.39-1.45,.92-1.45,3.02Zm-29.91,5.85c-.13-.39-.26-.59-.39-.59s-.33,.2-.39,.53l-3.09,11.63c-.07,.33-.07,.59-.07,.66,0,.2,.2,.39,.46,.39h6.57c.26,0,.59-.26,.59-.53,0-.2-.07-.39-.13-.66l-3.55-11.43Zm3.22-9.07l9.92,31.28c.92,3.02,1.51,4.8,3.22,5.91,1.25,.85,2.43,.66,2.43,1.45,0,.72-.39,.92-1.38,.92-1.12,0-2.89-.39-5.52-.39-3.68,0-5.91,.33-6.77,.33-.79,0-1.12-.2-1.12-.79s.53-1.05,1.31-1.05c2.17,0,2.69-.39,2.69-1.58,0-.59-.2-1.58-.59-2.96l-2.56-8.41c-.13-.46-.46-.53-.99-.53h-8.15c-.26,0-.66,.26-.72,.59l-1.58,5.85c-.66,2.56-.99,4.27-.99,5.06,0,1.31,.53,1.58,1.71,1.77,1.77,.26,2.63,.46,2.63,1.45,0,.59-.39,.79-1.12,.79-.92,0-2.89-.39-5.72-.39-1.91,0-3.42,.33-4.34,.33-.79,0-1.18-.33-1.18-.85,0-1.38,1.97-.53,3.29-1.51,1.18-.85,1.64-2.5,2.37-4.86l10.45-33.9c.33-.99,.39-1.58,1.12-1.58,.92,0,.99,1.25,1.58,3.09Zm-88.06,33.31v-30.55c0-1.38-.26-2.1-1.38-2.1-.99,0-1.71,.59-2.5,.59-.39,0-.72-.39-.72-.99,0-1.71,5.58-2.96,15.51-2.96,12.48,0,20.3,8.8,20.3,21.49s-7.36,20.89-20.43,20.89c-3.42,0-6.24-.66-8.54-.66-2.04,0-3.88,.46-5.52,.46-.92,0-1.38-.39-1.38-1.05,0-1.25,1.31-.79,2.56-1.12,2.1-.53,2.1-1.18,2.1-4.01Zm5.91-1.91c0,4.53,.79,6.24,4.73,6.24,8.41,0,13.86-7.36,13.86-19.19,0-11.1-5.45-19.12-13.54-19.12-4.53,0-5.06,1.18-5.06,3.75v28.32Zm-32.21-22.34c-.13-.39-.26-.59-.39-.59s-.33,.2-.39,.53l-3.09,11.63c-.07,.33-.07,.59-.07,.66,0,.2,.2,.39,.46,.39h6.57c.26,0,.59-.26,.59-.53,0-.2-.07-.39-.13-.66l-3.55-11.43Zm3.22-9.07l9.92,31.28c.92,3.02,1.51,4.8,3.22,5.91,1.25,.85,2.43,.66,2.43,1.45,0,.72-.39,.92-1.38,.92-1.12,0-2.89-.39-5.52-.39-3.68,0-5.91,.33-6.77,.33-.79,0-1.12-.2-1.12-.79s.53-1.05,1.31-1.05c2.17,0,2.69-.39,2.69-1.58,0-.59-.2-1.58-.59-2.96l-2.56-8.41c-.13-.46-.46-.53-.99-.53h-8.15c-.26,0-.66,.26-.72,.59l-1.58,5.85c-.66,2.56-.99,4.27-.99,5.06,0,1.31,.53,1.58,1.71,1.77,1.77,.26,2.63,.46,2.63,1.45,0,.59-.39,.79-1.12,.79-.92,0-2.89-.39-5.72-.39-1.91,0-3.42,.33-4.34,.33-.79,0-1.18-.33-1.18-.85,0-1.38,1.97-.53,3.29-1.51,1.18-.85,1.64-2.5,2.37-4.86l10.45-33.9c.33-.99,.39-1.58,1.12-1.58,.92,0,.99,1.25,1.58,3.09Zm-60.83,21.36l13.39-27.46c.61-1.24,.69-2-.32-2.49-.89-.43-1.79-.22-2.5-.56-.35-.17-.48-.67-.22-1.2,.75-1.54,6.32-.21,15.23,4.14,11.22,5.47,14.39,16.81,8.83,28.21-5.62,11.52-15.77,15.55-27.52,9.82-3.07-1.5-5.32-3.33-7.39-4.34-1.83-.89-3.69-1.29-5.16-2.01-.83-.4-1.07-.96-.78-1.55,.55-1.12,1.53-.13,2.79,.12,2.12,.45,2.41-.14,3.65-2.68Zm6.15,.88c-1.99,4.07-2.03,5.96,1.52,7.68,7.56,3.69,15.69-.54,20.87-11.17,4.87-9.98,3.48-19.57-3.78-23.12-4.07-1.99-5.07-1.15-6.19,1.15l-12.41,25.45Zm-3.39-40.91l-25.52,15.95c-2.34,1.46-2.86,1.87-2.4,3.59,.41,1.53,1.64,2.38,.42,3.15-.45,.28-1.02,.1-1.51-.68-.42-.67-1.16-2.61-2.97-5.5-1.81-2.9-3.22-4.42-3.64-5.08-.49-.78-.4-1.38,.16-1.73,1.06-.66,1.37,.7,2.31,1.58,1.56,1.5,2.12,1.16,4.51-.34l25.52-15.95c1.78-1.11,2.16-1.5,1.8-2.83-.52-1.69-1.75-2.55-.63-3.25,.45-.28,.95-.21,1.3,.35,.35,.56,1.02,2.62,3,5.8,1.98,3.18,3.51,4.62,3.89,5.24,.31,.5,.19,1.04-.26,1.32-1,.63-1.3-.59-2.44-1.8-1.15-1.22-1.74-.93-3.52,.19Zm-13.8-32.45c6.64-1.29,12.07,2.2,13.44,9.23,.7,3.61,.09,7.01-.57,7.74-.32,.4-2.67,1.06-6.93,1.88-.9,.18-1.42-.06-1.52-.58-.18-.9,1.04-1.21,3.05-2.54,3.16-2.02,4.76-3.74,4.17-6.77-.74-3.81-3.78-5.69-7.85-4.9-3.42,.66-4.91,2.96-6.25,7.44-2.27,7.6-4.81,12.11-12.1,13.53-7.55,1.47-14.11-2.68-15.51-9.9-1.1-5.68,.01-9.91,3.69-10.62,1.48-.29,2.86-.42,4.09-.66,.97-.19,1.54-.37,1.66-.39,1.35-.26,2.07,0,2.19,.58,.23,1.16-1.9,1.24-4.21,2.43-4.07,2.13-6.04,5.79-5.4,9.08,.75,3.87,4.64,6.33,9.09,5.46,3.93-.76,6.49-3.8,8.31-9.25,1.95-5.8,3.08-10.31,10.63-11.77Zm-8.36-17.1c-.99,1.38-2.43,1.97-4.14,2.69l-9.07,3.81c-3.55,1.51-5.52,2.23-5.85,3.09-.59,1.45-.53,2.76-1.51,2.76-.59,0-.66-.33-.66-1.12,0-1.12,.2-2.5,.2-4.01,0-.99-.2-1.91-.2-2.89,0-1.31,.72-1.45,2.17-2.04l14.92-5.91c2.3-.92,2.96-1.64,2.96-3.68v-.66c0-.53-.39-.85-.92-.85h-12.94c-2.56,0-4.14,.07-4.14,2.89,0,1.05-.33,1.45-1.12,1.45-.53,0-.92-.53-.92-1.31,0-.66,.39-2.56,.39-5.98s-.39-5.45-.39-6.24c0-.92,.39-1.38,1.05-1.38,1.25,0,.79,1.31,1.12,2.56,.53,2.1,1.18,2.1,4.01,2.1h30.09c2.1,0,2.63-.13,3.02-1.45,.46-1.71-.13-3.09,1.18-3.09,.85,0,.92,.59,.92,1.77,0,.53-.26,2.04-.26,4.34,0,3.28,.39,6.44,.39,9.4,0,7.03-4.07,10.78-10.18,10.78-5.26,0-9.13-2.69-10.12-7.03Zm2.37-8.8c-1.38,0-1.51,.79-1.51,3.02,0,4.47,2.89,6.83,8.34,6.83s8.94-2.3,8.94-6.57c0-3.02-1.12-3.29-3.29-3.29h-12.48Zm15.58-18.3h-5.65c-1.12,0-1.64-.13-1.64-.72,0-1.18,2.76-.85,4.93-3.22,1.64-1.77,2.5-4.4,2.5-8.02s-.92-3.68-4.01-3.68h-10.84c-1.12,0-1.31,0-1.31,1.18v2.96c0,2.69,.59,4.93,1.18,5.52,1.71,1.77,4.01,.92,4.01,2.3,0,.59-.26,.79-.92,.79-1.64,0-3.88-.33-6.5-.33-3.09,0-4.99,.2-5.59,.2-.79,0-1.18-.33-1.18-.79,0-1.12,2.04-.85,4.6-2.23,1.97-1.05,2.17-2.76,2.17-5.52v-2.89c0-.92-.26-1.18-1.18-1.18h-13.54c-3.61,0-4.2,.85-4.2,4.73,0,4.07,.53,6.24,3.75,8.28,2.43,1.58,4.53,2.1,4.53,3.15,0,.26-.39,.66-.59,.66,0,0-.46-.07-1.18-.13l-6.37-.72c-2.04-.2-2.3-.13-2.3-2.04,0-2.69,.53-8.34,.53-16.75,0-3.88-.33-5.91-.33-6.44,0-.99,.33-1.45,1.05-1.45,1.18,0,.79,1.18,1.05,2.83,.26,1.91,1.51,1.97,4.07,1.97h30.09c1.97,0,2.63,0,3.02-1.25,.46-1.45-.13-2.83,1.18-2.83,.59,0,.92,.39,.92,1.12,0,.53-.26,3.74-.26,9.79,0,7.69,.26,12.02,.26,12.88,0,1.77-.59,1.84-1.97,1.84h-.26Zm-3.35-33.41l-35.15-11.5c-.79-.26-1.18-.53-1.18-.85,0-.59,1.38-.85,3.02-1.45l30.75-10.58c3.28-1.12,5.32-1.71,5.98-3.02,.46-.92,.07-2.63,1.05-2.63,.59,0,.99,.33,.99,1.05,0,.39-.39,3.02-.39,8.21,0,2.04,.33,3.55,.33,4.27,0,.66-.2,.92-.79,.92-1.84,0-.2-3.35-2.83-3.35-.66,0-1.58,.2-2.76,.59l-21.09,7.29c-.99,.33-1.45,.53-1.45,.79s.53,.53,1.45,.79l19.19,5.65c2.04,.59,3.48,.85,4.27,.85,3.35,0,1.45-3.88,3.35-3.88,.53,0,.92,.46,.92,1.25,0,.66-.39,2.17-.39,4.6,0,2.69,.26,4.21,.26,4.53,0,.85-.26,1.25-.85,1.25-1.31,0-.66-1.58-1.18-2.63-.53-1.05-1.71-1.58-3.48-2.17Zm.46-37.47h-30.09c-2.76,0-3.42,.07-3.94,1.77-.46,1.51,.13,2.89-1.31,2.89-.53,0-.92-.46-.92-1.38,0-.79,.39-2.83,.39-6.24s-.39-5.45-.39-6.24c0-.92,.39-1.38,1.05-1.38,1.25,0,.79,1.31,1.12,2.56,.53,2.1,1.18,2.1,4.01,2.1h30.09c2.1,0,2.63-.13,3.02-1.45,.46-1.71-.13-3.09,1.18-3.09,.53,0,.92,.33,.92,.99s-.53,2.76-.53,6.5,.53,5.78,.53,6.5c0,.59-.39,.99-.92,.99-1.18,0-.79-1.18-1.12-2.83-.33-1.64-.99-1.71-3.09-1.71Zm5.13-50.83v8.41c0,.59-.07,.72-.66,1.12l-28.58,17.61c-.07,.26,.26,.39,.66,.39h18c1.84,0,2.96-.07,3.35-.07,4.73,0,5.32-.2,5.32-3.81,0-.66,.39-1.18,.92-1.18,.59,0,.99,.66,.99,1.71,0,1.18-.2,2.63-.2,4.53s.2,3.15,.2,4.07-.39,1.45-.99,1.45c-.72,0-.85-.26-.85-1.12v-.66c0-2.3-2.1-2.5-6.9-2.5h-32.79c-.85,0-1.64-.46-1.64-.99,0-.46,.39-.85,1.05-1.25l35.22-21.62c.07-.26-.26-.39-.66-.39h-25.56c-4.93,0-6.37,.26-6.37,2.89,0,.39,.07,.79,.07,1.18,0,.53-.39,.92-1.05,.92-.59,0-.99-.59-.99-1.71,0-1.18,.26-2.69,.26-4.53,0-1.64-.26-3.02-.26-4.2,0-1.05,.39-1.58,.99-1.58,.72,0,1.05,.33,1.05,1.25v.59c0,2.69,1.84,2.89,6.96,2.89h27.33c1.97,0,2.63-.07,3.02-1.31,.46-1.58-.07-3.02,1.18-3.02,.59,0,.92,.33,.92,.92Zm-5.12-30.95h-22.93c-8.02,0-12.22,1.58-12.22,8.54,0,3.48,1.25,6.11,3.48,7.69,2.37,1.58,5.52,1.64,10.05,1.64h15.9c4.99,0,7.56-.07,8.48-1.18,.92-1.18,0-3.55,1.45-3.55,.59,0,.92,.39,.92,1.12,0,.79-.2,2.23-.2,4.47,0,2.37,.2,3.88,.2,4.53,0,.92-.26,1.38-.92,1.38-.79,0-.92-.59-.92-1.91,0-2.76-2.23-2.89-8.8-2.89h-16.16c-4.53,0-7.95-.07-10.91-1.77-3.15-1.84-4.93-5.52-4.93-10.58,0-5.58,1.45-9.33,4.73-11.56,2.56-1.77,5.72-1.91,9.72-1.91h23.06c2.17,0,2.63-.07,3.02-1.45,.53-1.71-.13-3.02,1.18-3.02,.53,0,.92,.39,.92,.99,0,.66-.53,2.76-.53,6.5s.53,5.85,.53,6.51-.39,.99-.92,.99c-1.38,0-.72-1.51-1.18-3.09-.39-1.31-.92-1.45-3.02-1.45Zm268.89,2.73c-3.38,12.08,6.44,.25,10.16,.18-1.67-3.29-8.25-1.27-10.16-.18Zm125.33,54.38c3.02,3.29-8.93-20.28-15.88-22.01-19.62-4.87-23.18,17.13-22.69,33.05,.14,4.7-3.64,7.23-6.5,7.71-10.13,1.69-18.21,10.09,3.11,1.89,10.5,0,1.75-5.04,6.05-14.66,3.17-7.11,19.31-14.47,19.32-14.4,0,.08,11.02,2.33,16.6,8.42Zm-94.78-29.73c2.17,8.93-11.6,8.16-10.26,17.98,1.27,9.27,19.42,13.97,16.46,22.84-.48,1.45-23.76-.4-15.67,5.56,8.69-3.62,18.82-.96,20.31,.62,1.11-.67,2.25-.97,2.25-2.31,0-3.99-4.37-10.31-8.77-15.22-3.95-4.41,3.94-13.71,10.63-18.86,7.06-5.01-10.79-21.96-14.95-10.62Zm-28.89,7.46c-2.23,1.15-1.65,11.23,9.49-1.78,1.39-1.62,2.8-1.99,4.9-2.45,4.36-.94,9.3-8.67,4.94-13.36-.31-.49-3.51-1.77-3.38-1.45,.05,.13-2.91-3.89-3.8-5.23l-.89,.22c5.55,4.27-.36,13.1-3.26,6.2-.43-1.03-3.1,8.23-4.1,7.84l-6.66,6.22c5.7-.42,4.61,2.83,2.76,3.79Zm124.06,42.3c1.77-4.42,1.52-7.44,1.51-7.44-.01,0-2.63,5.97-5.99,9.42-3.34,3.43-5.56,2.65-7.62,2.68-1.12-1.42-2.17-2.8-5.62-2.17-3.78,.69-5.63,1.7-8.48,4.45,0,0,6.42-5.42,10.04-2.25,.6,.53,.74,.99,1.5,1.34,.11,.24,.3,.57,.59,1.03,5.3,.57,11.48-1.63,14.06-7.07Zm-121.99-36.03c-1.8,.85-3.9,1.27-6.09,1.27-7.26,0-13.15-5.06-13.15-11.3,0-.73,3.24-1.67,3.4-2.37l3.19-12.56s-.1-1.98,.08-3.42c.18-1.44,.76-2.25,.76-2.25-13.47-5.31-6.64-19.67-5.06-21.88,1.44-2-.21,9.36,4.65,11.06,2.82,.98,4.76,.9,6.06,.84,0,0,5.75-2.32,9.89-2.05,4.14,.27,9.06,4.1,9.47,3.56,12.93,1.01,10.73-12.56,12.92-13.21,1.21-.36,4.71,15.93-.48,18.04l19.86,9.81s19.74,2.24,41.18,9.41c6.46,2.16,16.6-.77,21.79,2.41,4.35,2.67,12.55,12.06,12.55,12.06,5.11,5.93,9.38,22.49,7.45,31.74-3.72,17.81-18.09,18.4-20.85,18.38-2.42,4.04-5.68,2.74-11.46,2.1-9.88-.3-17.19,0-28.16-.04-5.64,0-2.34-6.08-3.99-6.08h-62.67c-4.38,0-2.23-3.9-1.11-7.88,1.18-4.22,.11-6.59,4.15-8.26,2.91-1.2,1.4-.99,2.75-4.02,.93-2.09,1.5-3.66-.72-7.96-2.22-4.3-3.81-5.43-4.17-7.77-.62-4.05,.3-11.19-2.16-9.66l-.08,.03Zm-18.13,79.73c-3.38,12.08,6.43,.25,10.16,.18-1.67-3.29-8.25-1.27-10.16-.18Zm126.37,52.56c3.02,3.29-8.93-20.28-15.88-22.01-19.62-4.87-23.18,17.13-22.69,33.05,.14,4.7-3.64,7.23-6.5,7.71-10.13,1.69-18.21,10.09,3.11,1.89,10.5,0,1.75-5.04,6.05-14.66,3.17-7.11,19.31-14.47,19.32-14.4s11.02,2.33,16.6,8.42Zm-94.78-29.73c2.17,8.93-11.6,8.16-10.25,17.98,1.27,9.27,19.42,13.97,16.46,22.84-.48,1.45-23.76-.4-15.67,5.56,8.69-3.62,18.82-.97,20.31,.62,1.11-.67,2.25-.97,2.25-2.31,0-3.99-4.37-10.31-8.77-15.22-3.95-4.41,3.94-13.71,10.63-18.86,7.06-5.01-10.79-21.96-14.95-10.62Zm-29.48,8.8c-2.23,1.15-1.65,11.23,9.49-1.78,1.39-1.62,2.8-1.99,4.9-2.45,4.36-.94,9.3-8.67,4.94-13.36-.31-.49-3.51-1.77-3.38-1.45,.05,.13-2.91-3.89-3.8-5.23l-.89,.22c5.55,4.27-.36,13.1-3.26,6.2-.43-1.03-3.1,8.23-4.1,7.84l-6.66,6.22c5.7-.42,4.61,2.83,2.76,3.79Zm124.06,42.3c1.77-4.42,1.52-7.44,1.51-7.44-.01,0-2.63,5.97-5.99,9.42-3.34,3.43-5.56,2.65-7.62,2.68-1.12-1.42-2.17-2.8-5.62-2.17-3.78,.69-5.63,1.7-8.48,4.45,0,0,6.42-5.42,10.04-2.25,.6,.53,.74,.99,1.5,1.34,.11,.24,.3,.57,.59,1.03,5.3,.57,11.48-1.63,14.06-7.07Zm-121.99-36.03c-1.8,.85-3.9,1.27-6.09,1.27-7.26,0-13.15-5.06-13.15-11.3,0-.73,3.24-1.67,3.4-2.36l3.19-12.56s-.1-1.98,.08-3.42c.18-1.44,.76-2.25,.76-2.25-13.47-5.31-6.64-19.67-5.06-21.88,1.44-2-.21,9.36,4.65,11.06,2.82,.98,4.76,.9,6.06,.84,0,0,5.75-2.32,9.89-2.05,4.14,.27,9.06,4.1,9.47,3.56,12.93,1.01,10.73-12.56,12.92-13.21,1.21-.36,4.71,15.93-.48,18.04l19.86,9.81s19.74,2.24,41.18,9.41c6.46,2.16,16.6-.77,21.79,2.41,4.35,2.67,12.55,12.07,12.55,12.07,5.11,5.93,9.38,22.49,7.45,31.74-3.72,17.81-18.09,18.4-20.85,18.38-2.42,4.04-5.68,2.74-11.46,2.1-8.05-.23-17.19,0-28.16-.04-5.64,0-2.34-6.08-3.99-6.08h-62.67c-4.38,0-2.23-3.9-1.11-7.88,1.18-4.22,.11-6.59,4.15-8.26,2.91-1.2,1.4-.99,2.75-4.02,.93-2.09,1.5-3.66-.72-7.96-2.22-4.3-3.81-5.42-4.17-7.77-.62-4.05,.3-11.19-2.16-9.66l-.08,.03Zm-140.43-318.76h13.14c.98,0,1.77,.79,1.77,1.77v13.14c0,.98-.79,1.77-1.77,1.77l-1.73-2.74h-10.19s0-10.05,0-10.05l-2.99-2.12c0-.98,.79-1.77,1.77-1.77Zm-30.49,17.51l-4.62-1.58h-2.6v-6.14l-2.04-4.37c0-.56,.31-1.05,.68-1.09l8.59-2.7c.38-.05,.68,.36,.68,.92v13.86c0,.56-.31,1.05-.68,1.09Zm327.51,311.5v-189.13h-192.58v247.06h134.66c31.99,0,57.93-25.94,57.93-57.93Zm0-196.65V239.61h-192.58v229.93c8.83-3.01,38.77-8.22,64.27-10.59,6.55-9.68,13.03-22.62,9.2-38.68-3.21,.02-2.33,2.32-5.66,2.33-3.33,0-1.25,.69-4.58,.7-1.67,0-2.17,.05-2.67,0-.49-.05-.98-.19-2.6-.56-3.25-.74-1.35-3.6-4.6-4.33-3.25-.74-1.08-.5-3.81-2.41-2.73-1.9-3.12,1.09-5.86-.82-1.35-.94-1.78-1.22-2.09-1.59-.32-.38-.51-.87-1.44-2.28-1.84-2.78-3.02-.33-4.85-3.11-1.84-2.78-2.58-2.29-3.23-5.56-.65-3.27-.35-6.49-1-9.76-.65-3.27,.95-2.62,1.52-5.91,.56-3.28-1.16-1.63-.6-4.92,.56-3.28,3.04-.8,4.65-3.71,1.62-2.91-1.83-2.44-.21-5.35,1.62-2.91,3.29,.77,5.76-1.47,2.47-2.24-1.55-3.52,.92-5.76,2.47-2.24,5.5-13.49,4.48-16.66-1.02-3.17,1.2-2.27,1.8-5.55,.6-3.28,2.92-1.2,3.52-4.47,.6-3.28-2.49-2.42-.78-5.28,1.71-2.86,4.19,.73,5.9-2.13,1.71-2.86-1-1.64,1.58-3.75,2.58-2.11,1.52-.52,4.1-2.62,2.58-2.11-.69-3.62,2.46-4.71,3.06-1.06,1.19-1.75,3.96-2.79-1.03-3.48-.21-.85-1.14-4.05-.93-3.2,3.2-1.54,2.27-4.74-.93-3.2-.5-.46-1.43-3.66-.93-3.2-2.24-1.48-1.58-4.74,.66-3.27,4.75-5.4,6.61-8.17,1.86-2.76,2.92-6.8-1.05-7.6,1.86-2.76,1.09-3.1,3.85-4.97,2.76-1.86,4.39,2.9,7.15,1.04,2.76-1.86,.05-5.73,3.32-6.39,3.27-.66,3.06,3.99,6.33,3.34,3.27-.66,1.43-.31,4.7,.35,3.27,.66,1.97,1.42,5.23,2.08,3.27,.66,3.1-3.28,5.86-1.41,2.76,1.86,2.07,.54,4.83,2.4,2.76,1.86-1.01,3.46,.85,6.22,1.86,2.76,1.3,1.56,3.16,4.32,1.86,2.76,4.9,.03,5.56,3.29,.66,3.27-1.28,2.51-.62,5.78,.66,3.27,1.93,1.6,.99,4.8-.93,3.2,.21,.66-.73,3.86-.93,3.2,.62,8.31,3.77,9.39,3.15,1.09,1.2,1.93,3.78,4.04,2.58,2.11,1.37,.7,3.95,2.8,2.58,2.11-1.07,2.54,.64,5.4,1.71,2.86,2.89,.05,4.6,2.91,1.71,2.86-2.08,1.91-1.48,5.19,.6,3.28,4.05,.99,4.65,4.27,.6,3.28,.88,1.71-.14,4.88-1.02,3.17-2.02,.34-3.05,3.51-1.02,3.17-.49,.84-1.51,4.01-.98,3.05,1.57,1.68,.85,4.4,.4-.22,.97-.28,1.74,.05,3.06,1.32-.87,5.24,2.19,6.56,3.06,1.32,2.68-2.22,5.15,.01,2.47,2.24,1.48,.17,3.95,2.41,2.47,2.24,.29,1.75,1.91,4.66,1.62,2.91,1.63,.52,3.25,3.43,1.62,2.91,1.73,1.42,2.3,4.7,.56,3.28-1.39,1.67-.83,4.96,.56,3.28,3.15,2.33,2.52,5.6-.63,3.27-4.98,5.43-5.61,8.7-.63,3.27,1.5,2.26-.29,5.07-1.79,2.81-2.39,.58-4.18,3.39-1.79,2.81-.9,.47-3.58,2.46-2.67,1.99,.06,3.02-2.62,5.01-2.67,1.99-1.36,1.07-4.58,1.94-3.21,.88-2.38-1.51-5.6-.64-3.21,.88-.83,4.86-4.16,4.86-3.33,0-1.25-1.99-4.58-1.98-3.33,0-1.25,1.2-4.58,1.21-3.33,0-1.25-1.01-4.58-1.01-3.33,0,.3-2.18-3.03-2.18-.69,0-1.68,.52-2.01,.77-3.29,15.4,2.17,28.33,8.37,37.93,30.81,1.72,49.26,5.49,71.05,11.26Zm-197.53-229.94h-189.09l-.04,230.48c7.91-2.99,30.74-7.23,30.74-7.23l8.9-84.93c-.87-.47-2.2-1.8-2.08-3.23,.12-1.49,2.74-2.69,2.74-2.69l6.02-55.67c0-.4,.51-.65,.52-.66,1.28-.38,9.6-2.24,9.9-2.18,1.99,.27,3.23,.59,4.42,.78,.7,.14,.84,.34,.91,.75,.01,.07,1.42,8.15,1.44,8.05,2.12-.3,4.04-.53,5.65-.75,.08-.45,.92-10.56,1.48-11.09,.25-.32,.73-.22,5.49-.61,.04-1.08,.06-51.19,.04-52.53-1.74-.33-2.29-1.79-2.34-2.76-.05-.82,.72-2.89,2.87-2.89,.32,.01,1.21,.12,1.83,.69-.83-.57-2.9-.25-2.97,1.79-.02,.59,.69,2,2.02,2,1.13,0,1.82-.86,1.94-1.48-.06,1.54-1.25,2.35-1.94,2.56,.1,.89,2.43,51.98,2.45,52.29,2.42-.15,5.94-.46,6.47-.43,.67,.05,2.54,.85,3.31,1.02,.4,2.3,.77,5.08,1.2,7.22,1.03-.17,8.02-.76,9.69-.77,.29-2.25,.66-5.7,.84-6.92,.09-.49,.49-.57,.8-.57,.75,0,14.12,1.07,14.85,1.16,.53,.04,.68,.33,.75,.93,.18,1.52,.38,4.44,.66,6.1,1.59,.2,8.67,.99,8.65,.99-.03-.01,.48-3.85,.68-4.88,.44-.13,1.73-.63,2.76-.82,3.21,.7,6.77,1.55,9.22,2.14,.21,.09,3.36,.85,3.42,1.22,0,0-2.21,4.33-1.38,11.01l5.67,45.34c.01,.06,2.44,.82,2.61,2.58,.08,.86-1,2.34-2.25,2.91l10.67,84.7s22.71,4.73,30.46,6.4V239.61Zm202.48,426.59c0,34.72-28.15,62.88-62.88,62.88h-270.83c-34.73,0-62.88-28.15-62.88-62.88l.07-431.53h396.5v431.53Zm-331.3-342.89l1.92,.14-1.37-7.37-1.59-.37,1.04,7.6Zm29.61-2.16l-1.35-8.99-1.59-.43,1.04,9.36,1.9,.06Zm-32.47-5.4c-3.12,1.43-4.02,2.45-5.21,4.24-1.7,2.55-2.28,16.09-2.39,18.8-.13,3.11,.07,1.98-.22,5.04-.29,3.05-.54,6.38-.82,9.43-.29,3.05,.7,.22,.42,3.28-.29,3.05-.74,1.38-1.03,4.43-.29,3.05,1.72,1.03,1.43,4.08-.17,1.83,1.77,2.21,1.16,4.04,0,1.56,2.64,.94,3.88,1.13,11.02-1.33,26.39-2.4,44.4-2.04,16.57,.07,37.41,2.14,44.33,3.57-.5-7.09-1.67-15.7-1.67-15.7l-5.55-2.41-.74-13.08c0-.98,.81-1.64,1.79-1.47l3.38,.96c-.22-6.26-1.76-21.08-2.13-22.42-2.01-.45-6.34-1.62-7.73-1.88-.12,.59-.9,6.43-1.3,9.61-.05,.42-.31,.69-.91,.6-2.77-.48-7.71-1.27-10.67-1.68-.49-.13-1.02-.34-1.09-.74-.2-1.64-.81-9.92-.94-9.99-.13-.07-7.66-.86-12-1.21-.16,1.94-.91,6.94-1.24,9.59-.07,.47-.9,.96-1.41,.96-4.05,.18-13.62,.29-14.96,.29-.62-8.72-8.06-10.59-9.97-10.47-.97,.06-2.16,.09-3.66,.21-.18,1.64-.95,9.23-1.14,10.59-.04,.31-.29,.55-.66,.63-.34,.07-9.84,.54-11.77,.82-.2-.02-.71-5.39-1.55-9.22Zm38.63,144.21c-2.33-37.56,37.68-36.99,35.61,.82,0,0,18.21,2.34,18.88,2.15,1.47-.42,1.64-2.13,1.43-3.63-.13-.93-1.31-16.33-1.26-17.06,.13-2.04-7.11-66.3-7.11-66.3-8.2-2.45-31.73-3.17-46.37-3.33-.38,.06-.82,.1-1.33,.11-9.56,.11-32.85,1.24-44.53,3.02,0,0-2.52,1.61-2.76,5.54-.11,1.33-2.24,3.48-2.5,6.54-.26,3.06,1.02,4.01,.77,7.06-.26,3.06,.73-.17,.48,2.89-.26,3.06-1.37,6.99,1.5,8.07,1.79,.67,3.18,3.24-.99,3.77-.73,.26-1.28,.07-1.3,.62-.15,3.06,1.54,3.48,1.39,6.55-.15,3.06-1.19,1.19-1.34,4.25-.06,1.15,1.36,5.93-.28,6.55-.28,.53-.14,3.42-.15,3.99-.02,.93,3.58,5.2,3.07,6.43-.72,1.72,1.23,3.47,2.23,3.09,1.48-.56,8.25,3.14-.43,4.16-.95,.4-1.39,.95-1.07,1.75,1.14,2.85,2.32-.07,4.46,2.13,2.14,2.2-.41,3.46,1.73,5.65,2.14,2.2,3.19-.41,6.08,.63,2.89,1.04,2.1,3.99,4.99,5.03,1.1,.4,28.68-.68,28.83-.47Zm233.6-97.3c-.78-.34-1.35-.28-1.74-.05,.71-2.72-1.83-1.34-.85-4.4,1.02-3.17,.49-.84,1.51-4.01,1.02-3.17,2.02-.34,3.05-3.51,1.02-3.17,.74-1.6,.14-4.88-.6-3.28-4.05-.99-4.65-4.27-.6-3.28,3.19-2.33,1.48-5.19-1.71-2.86-2.89-.05-4.6-2.91-1.71-2.86,1.94-3.29-.64-5.4-2.58-2.11-1.37-.69-3.95-2.8-2.58-2.11-.63-2.95-3.78-4.04-3.15-1.09-4.71-6.2-3.77-9.39,.93-3.2-.21-.66,.73-3.86,.93-3.2-.33-1.54-.99-4.8-.66-3.27,1.27-2.51,.62-5.78-.66-3.27-3.7-.53-5.56-3.29-1.86-2.76-1.3-1.56-3.16-4.32-1.86-2.76,1.91-4.36-.85-6.22-2.76-1.86-3.51,5.77-6.28,3.91-2.76-1.86-6.13-1.42-6.18-.68-.23,3.32-5.19-3.03-5.42,.29-.23,3.32-1.4,.69-1.78,4-.37,3.31-3.27,.72-3.65,4.03-.37,3.31-3.77,4.29-4.15,7.6-.37,3.31-.33,3.41-.7,6.72-.37,3.31,2.55,1.11,4.47,3.83,1.92,2.72-5.06,2.85-3.13,5.57,1.92,2.72,2.67,1.75,4.59,4.47,1.92,2.72-10.84,5.82-2.79,11.63,2.7,1.95-4.89,7.66-8.95-.45-1.79-3.58-9.4,5.37-4.47,9.84,2.47,2.24,3.58,3.58-7.61,7.16-3.17,1.02,2.68,8.95-5.82,10.74,0,0-3.58,8.95,3.58,7.16,8.05-3.13,4.06,.71,5.75,3.58,1.69,2.87-1.24,4.73,.45,7.61,1.69,2.87-7.06,2.5-5.37,5.37,1.69,2.87,6.27,6.04,4.03,8.5-8.28,9.05,5.47,6.08,7.16,8.95,1.69,2.87,9.45,3.58,5.42,10.29-1.71,2.86,12.54,.08,13.87,3.13,1.33,3.05,8.06-4.4,9.39-1.34,1.33,3.05,9.85-5.96,11.19-2.91,1.33,3.05,9.18-2.38,10.51,.67,1.33,3.05,4.48-.14,5.82,2.91,1.33,3.05,7.17-7.08,8.5-4.03,1.33,3.05,6.04-.89,12.3-7.61,1.83-1.96,2.54-9,5.15-7.61,.63-3.27-2.64-5.83-3.2-9.11-.56-3.28,3.65-.02,3.09-3.31-.56-3.28-.68-1.79-2.3-4.7-1.62-2.91-1.63-.52-3.25-3.43-1.62-2.91,.56-2.42-1.91-4.66-2.47-2.24-1.48-.17-3.95-2.41-2.47-2.24-2.09,1.31-5.15-.01-3.06-1.32,.87-5.24-2.19-6.56Zm-51.94,95.6l32.33,.11c-1.89-6.6-9.18-16.49-7.81-30.8-1.48-1.48-1.17,.8-2.37,1.29-.64-.32-2.64-1.35-3.05-1.35-.37,0-.8,2.06-1.63,1.69-.93-.41-1.6-2.55-1.63-2.66-.01-.04-1.71-.07-3.4,.13-.2,4.86-3.57,.69-3.34,1.73-3.01,.29-3.47-.9-3.71-.89-.48,.02-1.68,21.92-5.37,30.76Zm198.18,257.6c-.02,46.39-53.01,91.09-100.64,91.11h-153.35c-.81-.06-22.88-1.18-27.37,15.66l-3.75,14.07-3.89-14.03c-4.7-16.96-25.03-15.75-25.61-15.7h-148.78c-47.79,.04-102.86-44.81-102.23-91.18V152.69s565.63,0,565.63,0V715.86Zm-7.92,0V160.61h-549.79V715.85c-.55,40.83,49.72,83.22,94.31,83.19h148.51c10.95-.64,23.4,3.71,29.71,13.1,6.67-9.68,20.13-13.72,31.44-13.1h153.1c44.2-.01,92.71-42.05,92.73-83.19Z" style="fill-rule: evenodd;"/>
          </g>
        </g>
        <text transform="translate(1268.68 1397.25)" style="fill: #fff; font-family: Garamond-LightCondensed, &apos;ITC Garamond&apos;; font-size: 197px; font-weight: 300;"><tspan x="0" y="0">Sede Puerto Montt</tspan></text>
      </g>
    </g>
  </g>
</svg>