<?xml version="1.0" encoding="UTF-8"?>
<svg id="Layer_2" data-name="Layer 2" xmlns="http://www.w3.org/2000/svg" viewBox="0 0 1023 1133.5">
  <g id="Isotipos-UACh">
    <g id="Logo-UACh-Pequeno-Centrado-Blanco">
      <rect y="0" width="1023" height="1133.5" style="fill: none;"/>
      <g>
        <g>
          <polygon points="440.7 221.08 455.5 209.43 471.71 220.64 440.7 221.08" style="fill: #fff; fill-rule: evenodd;"/>
          <polygon points="460.72 205.19 477.69 191.91 475.95 215.85 460.72 205.19" style="fill: #fff; fill-rule: evenodd;"/>
          <polygon points="450.27 205.62 434.3 217.88 433.19 193.54 450.27 205.62" style="fill: #fff; fill-rule: evenodd;"/>
          <path d="M455.39,201.49c0,.33-17.19-12.3-17.19-12.3l35.69-2.18s-18.5,14.15-18.5,14.47Z" style="fill: #fff; fill-rule: evenodd;"/>
          <path d="M404.84,381.1l-9.47-5.91-9.47,5.91,2.7-10.83-8.55-7.18,11.13-.78,4.18-10.35,4.18,10.35,11.13,.78-8.55,7.18,2.7,10.83Zm0,34.87l-9.47-5.91-9.47,5.91,2.7-10.83-8.55-7.18,11.13-.78,4.18-10.34,4.18,10.34,11.13,.78-8.55,7.18,2.7,10.83Zm0,34.87l-9.47-5.91-9.47,5.91,2.7-10.83-8.55-7.18,11.13-.78,4.18-10.35,4.18,10.34,11.13,.78-8.55,7.18,2.7,10.83Zm0,34.87l-9.47-5.91-9.47,5.91,2.7-10.83-8.55-7.18,11.13-.78,4.18-10.35,4.18,10.34,11.13,.78-8.55,7.18,2.7,10.83Zm91.29-104.61l-9.47-5.91-9.46,5.91,2.7-10.83-8.55-7.18,11.13-.78,4.18-10.35,4.18,10.35,11.13,.78-8.55,7.18,2.7,10.83Zm0,34.87l-9.47-5.91-9.46,5.91,2.7-10.83-8.55-7.18,11.13-.78,4.18-10.34,4.18,10.34,11.13,.78-8.55,7.18,2.7,10.83Zm0,34.87l-9.47-5.91-9.46,5.91,2.7-10.83-8.55-7.18,11.13-.78,4.18-10.35,4.18,10.34,11.13,.78-8.55,7.18,2.7,10.83Zm0,34.87l-9.47-5.91-9.46,5.91,2.7-10.83-8.55-7.18,11.13-.78,4.18-10.35,4.18,10.34,11.13,.78-8.55,7.18,2.7,10.83Zm-44.44-104.61l-9.47-5.91-9.46,5.91,2.7-10.83-8.55-7.18,11.13-.78,4.18-10.35,4.18,10.35,11.13,.78-8.55,7.18,2.7,10.83Zm0,34.87l-9.47-5.91-9.46,5.91,2.7-10.83-8.55-7.18,11.13-.78,4.18-10.34,4.18,10.34,11.13,.78-8.55,7.18,2.7,10.83Zm0,34.87l-9.47-5.91-9.46,5.91,2.7-10.83-8.55-7.18,11.13-.78,4.18-10.35,4.18,10.34,11.13,.78-8.55,7.18,2.7,10.83Zm0,34.87l-9.47-5.91-9.46,5.91,2.7-10.83-8.55-7.18,11.13-.78,4.18-10.35,4.18,10.34,11.13,.78-8.55,7.18,2.7,10.83Zm0,34.87l-9.47-5.91-9.46,5.91,2.7-10.83-8.55-7.18,11.13-.78,4.18-10.34,4.18,10.34,11.13,.78-8.55,7.18,2.7,10.83Zm206.94-374.05c.94,.67,1.35,1.66,1.84,2.83l2.6,6.19c1.03,2.42,1.53,3.77,2.11,4,.99,.4,1.89,.36,1.89,1.03,0,.4-.22,.45-.76,.45-.76,0-1.71-.13-2.74-.13-.67,0-1.3,.13-1.98,.13-.9,0-.99-.49-1.39-1.48l-4.04-10.19c-.63-1.57-1.12-2.02-2.51-2.02h-.45c-.36,0-.58,.27-.58,.63v8.84c0,1.75,.04,2.83,1.97,2.83,.72,0,.99,.22,.99,.76,0,.36-.36,.63-.9,.63-.45,0-1.75-.27-4.08-.27s-3.73,.27-4.26,.27c-.63,0-.94-.27-.94-.72,0-.85,.9-.54,1.75-.76,1.44-.36,1.44-.81,1.44-2.74v-20.56c0-1.44-.09-1.8-.99-2.06-1.17-.31-2.11,.09-2.11-.81,0-.58,.4-.63,1.21-.63,.36,0,1.39,.18,2.96,.18,2.24,0,4.4-.27,6.42-.27,4.8,0,7.36,2.78,7.36,6.96,0,3.59-1.84,6.24-4.8,6.91Zm-6.01-1.62c0,.94,.54,1.03,2.06,1.03,3.05,0,4.67-1.98,4.67-5.7s-1.57-6.1-4.49-6.1c-2.06,0-2.24,.76-2.24,2.24v8.53Zm-25.41-8.66v15.67c0,5.48,1.08,8.35,5.84,8.35,2.38,0,4.17-.85,5.25-2.38,1.08-1.62,1.12-3.77,1.12-6.87v-10.86c0-3.41-.04-5.16-.81-5.79-.81-.63-2.42,0-2.42-.99,0-.4,.27-.63,.76-.63,.54,0,1.53,.13,3.05,.13,1.62,0,2.65-.13,3.1-.13,.63,0,.94,.18,.94,.63,0,.54-.4,.63-1.3,.63-1.88,0-1.97,1.53-1.97,6.01v11.04c0,3.1-.04,5.43-1.21,7.45-1.26,2.15-3.77,3.37-7.23,3.37-3.82,0-6.37-.99-7.9-3.23-1.21-1.75-1.3-3.91-1.3-6.64v-15.76c0-1.48-.04-1.8-.99-2.06-1.17-.36-2.06,.09-2.06-.81,0-.36,.27-.63,.67-.63,.45,0,1.89,.36,4.44,.36s3.99-.36,4.44-.36,.67,.27,.67,.63c0,.94-1.03,.49-2.11,.81-.9,.27-.99,.63-.99,2.06Zm-8.32-4.13l-.27,5.93c-.04,.99-.18,1.26-.63,1.26-.81,0-.76-1.26-1.3-3.01-.81-1.93-2.11-2.2-4.85-2.2h-.72c-.36,0-.58,.4-.58,.72v21.99c0,1.89,.04,2.29,1.21,2.69,1.03,.36,1.97-.09,1.97,.9,0,.36-.31,.63-.94,.63-.94,0-2.38-.31-4.26-.31s-3.32,.31-4.26,.31c-.63,0-.94-.27-.94-.72,0-.9,.99-.49,1.98-.81,1.17-.36,1.21-.76,1.21-2.69v-21.86c0-.36-.22-.85-.58-.85h-1.26c-1.84,0-2.92,.72-4.04,2.15-1.08,1.8-1.48,2.87-2.2,2.87-.31,0-.49-.04-.49-.63,0-.05,.09-.4,.18-.76l1.12-4.58c.31-1.35,.31-2.29,.9-2.29,.54,0,.49,1.48,1.03,1.53,.31,.31,1.03,.4,2.11,.4,.85,0,1.93-.04,3.23-.04h5.52c1.48,0,2.65,.09,3.5,.09,.67,0,1.17-.05,1.44-.22,.81-.49,.99-1.8,1.44-1.8,.36,0,.49,.54,.49,.81v.49Zm-25.44,4.13v20.56c0,1.89,.04,2.33,1.21,2.69,1.03,.31,1.98-.09,1.98,.9,0,.36-.31,.63-.94,.63-.54,0-1.93-.27-4.26-.27s-3.73,.27-4.26,.27c-.63,0-.94-.27-.94-.72,0-.85,.9-.54,1.75-.76,1.44-.36,1.44-.81,1.44-2.74v-20.56c0-1.44-.09-1.8-.99-2.06-1.17-.31-2.11,.09-2.11-.81,0-.36,.22-.63,.67-.63s1.89,.36,4.44,.36,3.95-.36,4.44-.36c.4,0,.67,.27,.67,.63,0,.81-.81,.54-1.93,.76-1.12,.22-1.17,.67-1.17,2.11Zm-17.87,11.85l-.72-.31c-.13-.04-.22-.09-.31-.09-.36,0-.4,.27-.4,.85v8.39c0,1.53,.04,2.06,.9,2.47,1.12,.49,2.15-.09,2.15,.99,0,.36-.36,.67-.94,.67s-2.02-.31-4.26-.31c-2.11,0-3.46,.31-4.08,.31-.4,0-.67-.13-.81-.35-.1,.27-.38,.35-.9,.35-.76,0-1.98-.27-3.77-.27-2.51,0-4.04,.22-4.62,.22-.54,0-.76-.13-.76-.54s.36-.72,.9-.72c1.48,0,1.84-.27,1.84-1.08,0-.4-.13-1.08-.4-2.02l-1.75-5.75c-.09-.31-.31-.36-.67-.36h-5.57c-.18,0-.45,.18-.49,.4l-1.08,4c-.45,1.75-.67,2.92-.67,3.46,0,.9,.36,1.08,1.17,1.21,1.21,.18,1.8,.31,1.8,.99,0,.4-.27,.54-.76,.54-.63,0-1.98-.27-3.91-.27-1.3,0-2.33,.22-2.96,.22-.54,0-.81-.22-.81-.58,0-.94,1.35-.36,2.24-1.03,.81-.58,1.12-1.71,1.62-3.32l7.14-23.16c.22-.67,.27-1.08,.76-1.08,.63,0,.67,.85,1.08,2.11l6.78,21.37c.63,2.06,1.03,3.28,2.2,4.04,.66,.45,1.29,.47,1.54,.71,.13-.61,.91-.37,1.69-.57,1.35-.36,1.35-1.08,1.35-3.1v-20.24c0-1.3-.09-1.75-.94-2.02-1.12-.36-2.02,.04-2.02-.85,0-.45,.31-.63,.85-.63,.22,0,1.39,.13,3.55,.13h.72c1.03,0,2.51-.09,4.49-.09,5.21,0,7.81,2.78,7.81,8.21,0,4.53-2.83,7.9-6.15,7.9-.81,0-1.71-.31-2.78-.81Zm-1.48-3.14c0,1.3,1.21,1.93,2.33,1.93,2.02,0,3.86-2.38,3.86-6.1,0-4.04-1.93-6.73-4.08-6.73-1.84,0-2.11,.63-2.11,2.2v8.71Zm-19.8-4.71c-.09-.27-.18-.4-.27-.4s-.22,.13-.27,.36l-2.11,7.95c-.04,.22-.04,.4-.04,.45,0,.13,.13,.27,.31,.27h4.49c.18,0,.4-.18,.4-.36,0-.13-.05-.27-.09-.45l-2.42-7.81Zm-31.77,6.6c0-8.35,6.01-14.9,13.51-14.9,3.28,0,6.1,1.03,6.64,1.66,.31,.31,.58,1.98,.58,4.62,0,.49-.13,.81-.36,.81-.4,0-.81-.67-1.48-1.8-1.62-2.65-3.23-4.08-5.57-4.08-4.85,0-8.71,5.52-8.71,13.92,0,7.77,3.86,13.38,8.3,13.38,2.78,0,4.58-1.53,5.97-4.62,.72-1.62,1.03-2.56,1.57-2.56,.27,0,.49,.31,.49,.94,0,.36-.13,1.66-.13,3.82s-3.19,3.86-7.72,3.86c-7.54,0-13.11-6.6-13.11-15.04Zm-27.79-7.09c0-4.62,3.05-7.81,7.95-7.81,2.51,0,4.71,.85,5.12,1.39,.22,.27,.36,1.93,.36,4.89,0,.63-.22,.94-.58,.94-.63,0-.67-.85-1.3-2.38-.94-2.38-1.89-3.68-4-3.68-2.65,0-4.31,1.8-4.31,4.62,0,2.38,1.35,3.68,4.17,5.16,4.8,2.51,7.5,4.8,7.5,9.88s-3.64,9.11-8.66,9.11c-3.95,0-6.64-1.3-6.64-3.86,0-1.03,.09-1.98,.09-2.83,0-.67-.05-1.08-.05-1.17,0-.94,.27-1.39,.67-1.39,.81,0,.58,1.44,1.08,3.14,.9,3.01,3.1,4.8,5.39,4.8,2.69,0,4.85-2.29,4.85-5.39,0-2.74-1.71-4.85-5.12-6.78-3.64-2.06-6.51-3.41-6.51-8.66Zm-13.83,.49c-.09-.27-.18-.4-.27-.4s-.22,.13-.27,.36l-2.11,7.95c-.05,.22-.05,.4-.05,.45,0,.13,.13,.27,.31,.27h4.49c.18,0,.4-.18,.4-.36,0-.13-.05-.27-.09-.45l-2.42-7.81Zm2.2-6.19l6.78,21.37c.63,2.06,1.03,3.28,2.2,4.04,.85,.58,1.66,.45,1.66,.99,0,.49-.27,.63-.94,.63-.76,0-1.98-.27-3.77-.27-2.51,0-4.04,.22-4.62,.22-.54,0-.76-.13-.76-.54s.36-.72,.9-.72c1.48,0,1.84-.27,1.84-1.08,0-.4-.13-1.08-.4-2.02l-1.75-5.75c-.09-.31-.31-.36-.67-.36h-5.57c-.18,0-.45,.18-.49,.4l-1.08,4c-.45,1.75-.67,2.92-.67,3.46,0,.9,.36,1.08,1.17,1.21,1.21,.18,1.8,.31,1.8,.99,0,.4-.27,.54-.76,.54-.63,0-1.98-.27-3.91-.27-1.3,0-2.33,.22-2.96,.22-.54,0-.81-.22-.81-.58,0-.94,1.35-.36,2.24-1.03,.81-.58,1.12-1.71,1.62-3.32l7.14-23.16c.22-.67,.27-1.08,.76-1.08,.63,0,.67,.85,1.08,2.11Zm-9.43-1.93l-.27,5.93c-.05,.99-.18,1.26-.63,1.26-.81,0-.76-1.26-1.3-3.01-.81-1.93-2.11-2.2-4.85-2.2h-.72c-.36,0-.58,.4-.58,.72v21.99c0,1.89,.04,2.29,1.21,2.69,1.03,.36,1.97-.09,1.97,.9,0,.36-.31,.63-.94,.63-.94,0-2.38-.31-4.26-.31s-3.32,.31-4.26,.31c-.63,0-.94-.27-.94-.72,0-.9,.99-.49,1.98-.81,1.17-.36,1.21-.76,1.21-2.69v-21.86c0-.36-.22-.85-.58-.85h-1.26c-1.84,0-2.92,.72-4.04,2.15-1.08,1.8-1.48,2.87-2.2,2.87-.31,0-.49-.04-.49-.63,0-.05,.09-.4,.18-.76l1.12-4.58c.31-1.35,.31-2.29,.9-2.29,.54,0,.49,1.48,1.03,1.53,.31,.31,1.03,.4,2.11,.4,.85,0,1.93-.04,3.23-.04h5.52c1.48,0,2.65,.09,3.5,.09,.67,0,1.17-.05,1.44-.22,.81-.49,.99-1.8,1.44-1.8,.36,0,.49,.54,.49,.81v.49Zm-27.77,14.41c.94,.67,1.35,1.66,1.84,2.83l2.6,6.19c1.03,2.42,1.53,3.77,2.11,4,.99,.4,1.89,.36,1.89,1.03,0,.4-.22,.45-.76,.45-.76,0-1.71-.13-2.74-.13-.67,0-1.3,.13-1.98,.13-.9,0-.99-.49-1.39-1.48l-4.04-10.19c-.63-1.57-1.12-2.02-2.51-2.02h-.45c-.36,0-.58,.27-.58,.63v8.84c0,1.75,.05,2.83,1.98,2.83,.72,0,.99,.22,.99,.76,0,.36-.36,.63-.9,.63-.45,0-1.75-.27-4.08-.27s-3.73,.27-4.26,.27c-.63,0-.94-.27-.94-.72,0-.85,.9-.54,1.75-.76,1.44-.36,1.44-.81,1.44-2.74v-20.56c0-1.44-.09-1.8-.99-2.06-1.17-.31-2.11,.09-2.11-.81,0-.58,.4-.63,1.21-.63,.36,0,1.39,.18,2.96,.18,2.24,0,4.4-.27,6.42-.27,4.8,0,7.36,2.78,7.36,6.96,0,3.59-1.84,6.24-4.8,6.91Zm-6.01-1.62c0,.94,.54,1.03,2.06,1.03,3.05,0,4.67-1.98,4.67-5.7s-1.57-6.1-4.49-6.1c-2.06,0-2.24,.76-2.24,2.24v8.53Zm-10.29-10.64v3.86c0,.76-.09,1.12-.49,1.12-.81,0-.58-1.89-2.2-3.37-1.21-1.12-3.01-1.71-5.48-1.71s-2.51,.63-2.51,2.74v7.41c0,.76,0,.9,.81,.9h2.02c1.84,0,3.37-.4,3.77-.81,1.21-1.17,.63-2.74,1.57-2.74,.4,0,.54,.18,.54,.63,0,1.12-.22,2.65-.22,4.44,0,2.11,.13,3.41,.13,3.82,0,.54-.22,.81-.54,.81-.76,0-.58-1.39-1.53-3.14-.72-1.35-1.88-1.48-3.77-1.48h-1.98c-.63,0-.81,.18-.81,.81v9.25c0,2.47,.58,2.87,3.23,2.87,2.78,0,4.26-.36,5.66-2.56,1.08-1.66,1.44-3.1,2.15-3.1,.18,0,.45,.27,.45,.4,0,0-.04,.31-.09,.81l-.49,4.35c-.13,1.39-.09,1.57-1.39,1.57-1.84,0-5.7-.36-11.45-.36-2.65,0-4.04,.22-4.4,.22-.67,0-.99-.22-.99-.72,0-.81,.81-.54,1.93-.72,1.3-.18,1.35-1.03,1.35-2.78v-20.56c0-1.35,0-1.8-.85-2.06-.99-.31-1.93,.09-1.93-.81,0-.4,.27-.63,.76-.63,.36,0,2.56,.18,6.69,.18,5.25,0,8.21-.18,8.8-.18,1.21,0,1.26,.4,1.26,1.35v.18Zm-33.45,12.39c-.36,0-.58,.22-.58,.58v9.2c0,2.29,.94,3.37,3.64,3.37,3.55,0,5.75-2.47,5.75-6.82,0-3.82-2.06-6.33-6.01-6.33h-2.78Zm7.41-1.12c3.77,.76,5.88,3.5,5.88,7.68,0,4.8-3.32,8.21-8.39,8.21-3.23,0-5.88-.67-8.08-.67-1.66,0-2.78,.27-3.37,.27-.54,0-.85-.27-.85-.72,0-.49,.31-.67,1.08-.67,1.35,0,1.75-.72,1.75-1.93,0-.13,.05-.4,.05-.9v-20.56c0-1.21-.4-1.75-1.21-1.75-.58,0-1.12,.22-1.57,.22-.36,0-.54-.22-.54-.63,0-.9,2.83-1.39,8.39-1.39,7.5,0,11.27,2.06,11.27,6.91,0,2.96-1.39,4.8-4.4,5.93Zm-7.99-1.71c0,1.3,.05,1.39,1.39,1.39h.58c3.86,0,6.1-1.93,6.1-5.34,0-3.68-1.93-5.7-5.48-5.7-2.29,0-2.6,.54-2.6,2.15v7.5Zm-12.24-7.59v20.56c0,1.89,.05,2.33,1.21,2.69,1.03,.31,1.98-.09,1.98,.9,0,.36-.31,.63-.94,.63-.54,0-1.93-.27-4.26-.27s-3.73,.27-4.26,.27c-.63,0-.94-.27-.94-.72,0-.85,.9-.54,1.75-.76,1.44-.36,1.44-.81,1.44-2.74v-20.56c0-1.44-.09-1.8-.99-2.06-1.17-.31-2.11,.09-2.11-.81,0-.36,.22-.63,.67-.63s1.89,.36,4.44,.36,3.95-.36,4.44-.36c.4,0,.67,.27,.67,.63,0,.81-.81,.54-1.93,.76-1.12,.22-1.17,.67-1.17,2.11Zm-18.52,0v20.56c0,1.93,1.03,2.92,2.92,2.92s3.37-.81,4.62-2.47c1.35-1.8,1.84-3.01,2.33-3.01,.18,0,.4,.22,.4,.36,0,.05,0,.36-.04,.81l-.45,4.22c-.04,.4-.09,.63-.09,.76,0,.49-.31,.76-.9,.76-1.89,0-5.52-.4-10.82-.4-2.33,0-3.73,.27-4.26,.27-.63,0-.94-.27-.94-.72,0-.85,.9-.54,1.75-.76,1.44-.36,1.44-.81,1.44-2.74v-20.56c0-1.35-.05-1.8-.9-2.06-1.08-.36-1.93,.09-1.93-.81,0-.36,.22-.63,.58-.63,.45,0,1.71,.36,4.13,.36,2.69,0,4.13-.36,4.58-.36,.4,0,.67,.27,.67,.63,0,.81-.81,.54-1.93,.76-1.12,.22-1.17,.67-1.17,2.11Zm300.99,221.24h4.06c.8,0,1.18,.09,1.18,.52,0,.85-1.98,.61-3.54,2.31-1.18,1.27-1.79,3.16-1.79,5.76s.66,2.64,2.88,2.64h7.79c.8,0,.94,0,.94-.85v-2.12c0-1.94-.43-3.54-.85-3.97-1.23-1.27-2.88-.66-2.88-1.65,0-.42,.19-.57,.66-.57,1.18,0,2.79,.24,4.67,.24,2.22,0,3.59-.14,4.01-.14,.57,0,.85,.24,.85,.57,0,.8-1.46,.61-3.3,1.61-1.42,.76-1.56,1.98-1.56,3.97v2.08c0,.66,.19,.85,.85,.85h9.73c2.6,0,3.02-.61,3.02-3.4,0-2.93-.38-4.49-2.69-5.95-1.75-1.13-3.26-1.51-3.26-2.27,0-.19,.28-.47,.43-.47,0,0,.33,.05,.85,.09l4.58,.52c1.46,.14,1.65,.09,1.65,1.46,0,1.94-.38,6-.38,12.04,0,2.79,.24,4.25,.24,4.63,0,.71-.24,1.04-.76,1.04-.85,0-.57-.85-.76-2.03-.19-1.37-1.09-1.42-2.93-1.42h-21.62c-1.42,0-1.89,0-2.17,.9-.33,1.04,.09,2.03-.85,2.03-.42,0-.66-.28-.66-.8,0-.38,.19-2.69,.19-7.03,0-5.52-.19-8.64-.19-9.25,0-1.27,.43-1.32,1.42-1.32h.19Zm2.08,33.04h21.62c2.03,0,3.07-1.09,3.07-3.07s-.85-3.54-2.6-4.86c-1.89-1.42-3.16-1.94-3.16-2.46,0-.19,.24-.42,.38-.42,.05,0,.38,0,.85,.05l4.44,.47c.42,.05,.66,.09,.8,.09,.52,0,.8,.33,.8,.94,0,1.98-.43,5.81-.43,11.38,0,2.45,.28,3.92,.28,4.48,0,.66-.28,.99-.76,.99-.9,0-.57-.94-.8-1.84-.38-1.51-.85-1.51-2.88-1.51h-21.62c-1.42,0-1.89,.05-2.17,.94-.38,1.13,.09,2.03-.85,2.03-.38,0-.66-.24-.66-.61,0-.47,.38-1.79,.38-4.34,0-2.83-.38-4.34-.38-4.82,0-.43,.28-.71,.66-.71,.85,0,.57,.85,.8,2.03,.24,1.18,.71,1.23,2.22,1.23Zm0,15.21h21.62c1.98,0,2.46-.05,2.83-1.27,.33-1.09-.09-2.08,.94-2.08,.38,0,.66,.33,.66,.99,0,.57-.28,2.03-.28,4.49s.28,3.92,.28,4.48c0,.66-.28,.99-.76,.99-.9,0-.57-.94-.8-1.84-.38-1.51-.85-1.51-2.88-1.51h-21.62c-1.51,0-1.89,.09-2.17,1.04-.33,1.23,.09,2.22-.85,2.22-.38,0-.66-.24-.66-.71s.38-1.98,.38-4.67-.38-4.15-.38-4.67c0-.43,.28-.71,.66-.71,.85,0,.57,.85,.8,2.03,.24,1.18,.71,1.23,2.22,1.23Zm0,31.38h8.59c.42,0,.61-.19,.61-.61v-10.72c0-.38-.28-.57-.66-.57h-8.55c-1.51,0-1.89,.05-2.17,.99-.33,1.23,.09,2.22-.85,2.22-.38,0-.66-.24-.66-.71s.38-1.98,.38-4.67-.38-4.15-.38-4.67c0-.42,.28-.71,.66-.71,.85,0,.57,.85,.8,2.03s.71,1.23,2.22,1.23h21.62c1.98,0,2.45,0,2.83-1.23,.33-1.09-.09-2.12,.94-2.12,.38,0,.66,.38,.66,1.04,0,.57-.28,1.98-.28,4.44s.28,3.92,.28,4.48c0,.66-.28,1.04-.76,1.04-.9,0-.57-.94-.8-1.84-.38-1.51-.85-1.51-2.88-1.51h-10.1c-.38,0-.66,.19-.66,.57v10.72c0,.38,.28,.61,.66,.61h10.1c1.98,0,2.45-.05,2.83-1.27,.33-1.09-.09-2.08,.94-2.08,.38,0,.66,.33,.66,.99,0,.57-.28,2.03-.28,4.49s.28,3.92,.28,4.48c0,.66-.28,.99-.76,.99-.9,0-.57-.94-.8-1.84-.38-1.51-.85-1.51-2.88-1.51h-21.62c-1.51,0-1.89,.09-2.17,1.04-.33,1.23,.09,2.22-.85,2.22-.38,0-.66-.24-.66-.71s.38-1.98,.38-4.67-.38-4.15-.38-4.67c0-.43,.28-.71,.66-.71,.85,0,.57,.85,.8,2.03s.71,1.23,2.22,1.23Zm11.14,34.84c-8.78,0-15.67-6.33-15.67-14.21,0-3.45,1.09-6.42,1.75-6.99,.33-.33,2.08-.61,4.86-.61,.52,0,.85,.14,.85,.38,0,.43-.71,.85-1.89,1.56-2.79,1.7-4.3,3.4-4.3,5.85,0,5.1,5.81,9.16,14.64,9.16,8.17,0,14.07-4.06,14.07-8.73,0-2.93-1.61-4.82-4.86-6.28-1.7-.76-2.69-1.09-2.69-1.65,0-.28,.33-.52,.99-.52,.38,0,1.75,.14,4.01,.14s4.06,3.35,4.06,8.12c0,7.93-6.94,13.79-15.82,13.79Zm-13.8,22.72l4.06,.14c.8,.03,1.18,.14,1.16,.56-.03,.85-2,.54-3.62,2.19-1.22,1.23-1.9,3.1-1.99,5.69-.09,2.5,.57,2.67,2.79,2.74l7.78,.27c.8,.03,.94,.03,.97-.82l.07-2.12c.07-1.93-.3-3.55-.71-3.99-1.18-1.32-2.86-.76-2.82-1.75,.01-.42,.21-.56,.68-.54,1.18,.04,2.78,.33,4.66,.4,2.22,.08,3.59-.02,4.02,0,.57,.02,.84,.27,.83,.6-.03,.8-1.48,.56-3.36,1.49-1.44,.71-1.63,1.93-1.7,3.91l-.07,2.08c-.02,.66,.16,.86,.82,.88l9.72,.34c2.6,.09,3.04-.51,3.14-3.29,.1-2.93-.22-4.5-2.48-6.04-1.71-1.19-3.2-1.62-3.18-2.38,0-.19,.3-.46,.44-.46,0,0,.33,.06,.85,.12l4.56,.68c1.46,.19,1.65,.15,1.6,1.52-.07,1.93-.59,5.98-.8,12.02-.1,2.78,.09,4.25,.07,4.63-.02,.71-.27,1.03-.79,1.01-.85-.03-.54-.87-.68-2.05-.14-1.37-1.04-1.45-2.88-1.52l-21.61-.75c-1.42-.05-1.89-.07-2.2,.82-.37,1.03,.02,2.03-.92,2-.42-.02-.65-.31-.63-.83,.01-.38,.28-2.68,.43-7.02,.19-5.52,.11-8.64,.13-9.25,.04-1.27,.47-1.31,1.46-1.27h.19Zm8.08,49.61l-18.2-12.28c-.82-.55-1.36-.69-1.81-.02-.4,.59-.33,1.26-.65,1.72-.16,.23-.53,.27-.88,.03-1.02-.69,.48-4.51,4.47-10.42,5.02-7.44,13.4-8.56,20.96-3.46,7.63,5.15,9.49,12.78,4.24,20.57-1.37,2.04-2.9,3.45-3.82,4.82-.82,1.21-1.28,2.49-1.94,3.47-.37,.55-.79,.66-1.18,.4-.74-.5,.06-1.1,.36-1.98,.53-1.46,.14-1.73-1.54-2.86Zm1.24-4.29c2.7,1.82,4.03,2.04,5.62-.31,3.38-5.01,1.19-11.21-5.86-15.97-6.61-4.46-13.58-4.43-16.83,.38-1.82,2.7-1.33,3.49,.2,4.52l16.87,11.38Zm-50.46,1.39v21.62c0,2.03,1.09,3.07,3.07,3.07s3.54-.85,4.86-2.6c1.42-1.89,1.94-3.16,2.46-3.16,.19,0,.42,.24,.42,.38,0,.05,0,.38-.05,.85l-.47,4.44c-.05,.43-.09,.66-.09,.8,0,.52-.33,.8-.94,.8-1.98,0-5.81-.43-11.38-.43-2.45,0-3.92,.28-4.48,.28-.66,0-.99-.28-.99-.76,0-.9,.94-.57,1.84-.8,1.51-.38,1.51-.85,1.51-2.88v-21.62c0-1.42-.05-1.89-.94-2.17-1.13-.38-2.03,.09-2.03-.85,0-.38,.24-.66,.61-.66,.47,0,1.79,.38,4.34,.38,2.83,0,4.34-.38,4.82-.38,.43,0,.71,.28,.71,.66,0,.85-.85,.57-2.03,.8-1.18,.24-1.23,.71-1.23,2.22Zm-23.15,4.2c-.09-.28-.19-.42-.28-.42s-.24,.14-.28,.38l-2.22,8.36c-.05,.24-.05,.43-.05,.47,0,.14,.14,.28,.33,.28h4.72c.19,0,.43-.19,.43-.38,0-.14-.05-.28-.09-.47l-2.55-8.21Zm2.31-6.52l7.13,22.47c.66,2.17,1.09,3.45,2.31,4.25,.9,.61,1.75,.47,1.75,1.04,0,.52-.28,.66-.99,.66-.8,0-2.08-.28-3.97-.28-2.64,0-4.25,.24-4.86,.24-.57,0-.8-.14-.8-.57s.38-.76,.94-.76c1.56,0,1.94-.28,1.94-1.13,0-.42-.14-1.13-.42-2.12l-1.84-6.04c-.09-.33-.33-.38-.71-.38h-5.85c-.19,0-.47,.19-.52,.43l-1.13,4.2c-.47,1.84-.71,3.07-.71,3.64,0,.94,.38,1.13,1.23,1.27,1.27,.19,1.89,.33,1.89,1.04,0,.42-.28,.57-.8,.57-.66,0-2.08-.28-4.11-.28-1.37,0-2.46,.24-3.12,.24-.57,0-.85-.24-.85-.61,0-.99,1.42-.38,2.36-1.09,.85-.61,1.18-1.79,1.7-3.49l7.51-24.36c.24-.71,.28-1.13,.8-1.13,.66,0,.71,.9,1.13,2.22Zm-22.65,13.12c.99,.71,1.42,1.75,1.94,2.97l2.74,6.51c1.09,2.55,1.61,3.97,2.22,4.2,1.04,.42,1.98,.38,1.98,1.09,0,.43-.24,.47-.8,.47-.8,0-1.79-.14-2.88-.14-.71,0-1.37,.14-2.08,.14-.94,0-1.04-.52-1.46-1.56l-4.25-10.72c-.66-1.65-1.18-2.12-2.64-2.12h-.47c-.38,0-.61,.28-.61,.66v9.3c0,1.84,.05,2.97,2.08,2.97,.76,0,1.04,.24,1.04,.8,0,.38-.38,.66-.94,.66-.47,0-1.84-.28-4.3-.28s-3.92,.28-4.48,.28c-.66,0-.99-.28-.99-.76,0-.9,.94-.57,1.84-.8,1.51-.38,1.51-.85,1.51-2.88v-21.62c0-1.51-.09-1.89-1.04-2.17-1.23-.33-2.22,.09-2.22-.85,0-.61,.42-.66,1.27-.66,.38,0,1.46,.19,3.12,.19,2.36,0,4.63-.28,6.75-.28,5.05,0,7.74,2.93,7.74,7.32,0,3.78-1.94,6.56-5.05,7.27Zm-6.33-1.7c0,.99,.57,1.09,2.17,1.09,3.21,0,4.91-2.08,4.91-6s-1.65-6.42-4.72-6.42c-2.17,0-2.36,.8-2.36,2.36v8.97Zm-11.21-13.46l-.28,6.23c-.05,1.04-.19,1.32-.66,1.32-.85,0-.8-1.32-1.37-3.16-.85-2.03-2.22-2.31-5.1-2.31h-.75c-.38,0-.61,.43-.61,.76v23.13c0,1.98,.05,2.41,1.27,2.83,1.09,.38,2.08-.09,2.08,.94,0,.38-.33,.66-.99,.66-.99,0-2.5-.33-4.48-.33s-3.49,.33-4.49,.33c-.66,0-.99-.28-.99-.76,0-.94,1.04-.52,2.08-.85,1.23-.38,1.27-.8,1.27-2.83v-22.99c0-.38-.24-.9-.61-.9h-1.32c-1.94,0-3.07,.76-4.25,2.27-1.13,1.89-1.56,3.02-2.31,3.02-.33,0-.52-.05-.52-.66,0-.05,.09-.43,.19-.8l1.18-4.82c.33-1.42,.33-2.41,.94-2.41,.57,0,.52,1.56,1.09,1.61,.33,.33,1.09,.43,2.22,.43,.9,0,2.03-.05,3.4-.05h5.81c1.56,0,2.79,.09,3.68,.09,.71,0,1.23-.05,1.51-.24,.85-.52,1.04-1.89,1.51-1.89,.38,0,.52,.57,.52,.85v.52Zm-42.23,8.03c0-4.86,3.21-8.21,8.36-8.21,2.64,0,4.96,.9,5.38,1.46,.24,.28,.38,2.03,.38,5.15,0,.66-.24,.99-.61,.99-.66,0-.71-.9-1.37-2.5-.99-2.5-1.98-3.87-4.2-3.87-2.79,0-4.53,1.89-4.53,4.86,0,2.5,1.42,3.87,4.39,5.43,5.05,2.64,7.88,5.05,7.88,10.39s-3.82,9.58-9.11,9.58c-4.15,0-6.99-1.37-6.99-4.06,0-1.09,.09-2.08,.09-2.97,0-.71-.05-1.13-.05-1.23,0-.99,.28-1.46,.71-1.46,.85,0,.61,1.51,1.13,3.3,.94,3.16,3.26,5.05,5.67,5.05,2.83,0,5.1-2.41,5.1-5.67,0-2.88-1.79-5.1-5.38-7.13-3.82-2.17-6.85-3.59-6.85-9.11Zm-22.76-3.68v16.48c0,5.76,1.13,8.78,6.14,8.78,2.5,0,4.39-.9,5.52-2.5,1.13-1.7,1.18-3.97,1.18-7.22v-11.42c0-3.59-.05-5.43-.85-6.09-.85-.66-2.55,0-2.55-1.04,0-.43,.28-.66,.8-.66,.57,0,1.61,.14,3.21,.14,1.7,0,2.79-.14,3.26-.14,.66,0,.99,.19,.99,.66,0,.57-.43,.66-1.37,.66-1.98,0-2.08,1.61-2.08,6.33v11.61c0,3.26-.05,5.71-1.27,7.84-1.32,2.27-3.97,3.54-7.6,3.54-4.01,0-6.7-1.04-8.31-3.4-1.27-1.84-1.37-4.11-1.37-6.99v-16.57c0-1.56-.05-1.89-1.04-2.17-1.23-.38-2.17,.09-2.17-.85,0-.38,.28-.66,.71-.66,.47,0,1.98,.38,4.67,.38s4.2-.38,4.67-.38,.71,.28,.71,.66c0,.99-1.09,.52-2.22,.85-.94,.28-1.04,.66-1.04,2.17Zm-21.49,4.2c-.09-.28-.19-.42-.28-.42s-.24,.14-.28,.38l-2.22,8.36c-.05,.24-.05,.43-.05,.47,0,.14,.14,.28,.33,.28h4.72c.19,0,.43-.19,.43-.38,0-.14-.05-.28-.09-.47l-2.55-8.21Zm2.31-6.52l7.13,22.47c.66,2.17,1.09,3.45,2.31,4.25,.9,.61,1.75,.47,1.75,1.04,0,.52-.28,.66-.99,.66-.8,0-2.08-.28-3.97-.28-2.64,0-4.25,.24-4.86,.24-.57,0-.8-.14-.8-.57s.38-.76,.94-.76c1.56,0,1.94-.28,1.94-1.13,0-.42-.14-1.13-.42-2.12l-1.84-6.04c-.09-.33-.33-.38-.71-.38h-5.85c-.19,0-.47,.19-.52,.43l-1.13,4.2c-.47,1.84-.71,3.07-.71,3.64,0,.94,.38,1.13,1.23,1.27,1.27,.19,1.89,.33,1.89,1.04,0,.42-.28,.57-.8,.57-.66,0-2.08-.28-4.11-.28-1.37,0-2.46,.24-3.12,.24-.57,0-.85-.24-.85-.61,0-.99,1.42-.38,2.36-1.09,.85-.61,1.18-1.79,1.7-3.49l7.51-24.36c.24-.71,.28-1.13,.8-1.13,.66,0,.71,.9,1.13,2.22Zm-63.28,23.94v-21.95c0-.99-.19-1.51-.99-1.51-.71,0-1.23,.42-1.79,.42-.28,0-.52-.28-.52-.71,0-1.23,4.01-2.12,11.14-2.12,8.97,0,14.59,6.33,14.59,15.44s-5.29,15.01-14.68,15.01c-2.45,0-4.48-.47-6.14-.47-1.46,0-2.79,.33-3.97,.33-.66,0-.99-.28-.99-.76,0-.9,.94-.57,1.84-.8,1.51-.38,1.51-.85,1.51-2.88Zm4.25-1.37c0,3.26,.57,4.49,3.4,4.49,6.04,0,9.96-5.29,9.96-13.79,0-7.98-3.92-13.74-9.73-13.74-3.26,0-3.64,.85-3.64,2.69v20.35Zm-23.15-16.05c-.09-.28-.19-.42-.28-.42s-.24,.14-.28,.38l-2.22,8.36c-.05,.24-.05,.43-.05,.47,0,.14,.14,.28,.33,.28h4.72c.19,0,.43-.19,.43-.38,0-.14-.05-.28-.09-.47l-2.55-8.21Zm2.31-6.52l7.13,22.47c.66,2.17,1.09,3.45,2.31,4.25,.9,.61,1.75,.47,1.75,1.04,0,.52-.28,.66-.99,.66-.8,0-2.08-.28-3.97-.28-2.64,0-4.25,.24-4.86,.24-.57,0-.8-.14-.8-.57s.38-.76,.94-.76c1.56,0,1.94-.28,1.94-1.13,0-.42-.14-1.13-.43-2.12l-1.84-6.04c-.09-.33-.33-.38-.71-.38h-5.85c-.19,0-.47,.19-.52,.43l-1.13,4.2c-.47,1.84-.71,3.07-.71,3.64,0,.94,.38,1.13,1.23,1.27,1.27,.19,1.89,.33,1.89,1.04,0,.42-.28,.57-.8,.57-.66,0-2.08-.28-4.11-.28-1.37,0-2.46,.24-3.12,.24-.57,0-.85-.24-.85-.61,0-.99,1.42-.38,2.36-1.09,.85-.61,1.18-1.79,1.7-3.49l7.51-24.36c.24-.71,.28-1.13,.8-1.13,.66,0,.71,.9,1.13,2.22Zm-43.71,15.35l9.62-19.73c.43-.89,.49-1.44-.23-1.79-.64-.31-1.29-.16-1.8-.4-.25-.12-.34-.48-.16-.86,.54-1.1,4.54-.15,10.94,2.98,8.06,3.93,10.34,12.08,6.34,20.27-4.04,8.27-11.33,11.18-19.78,7.06-2.21-1.08-3.82-2.39-5.31-3.11-1.32-.64-2.65-.92-3.71-1.44-.59-.29-.77-.69-.56-1.11,.39-.81,1.1-.1,2.01,.09,1.52,.32,1.73-.1,2.62-1.93Zm4.42,.63c-1.43,2.93-1.46,4.28,1.09,5.52,5.43,2.65,11.27-.39,15-8.02,3.5-7.17,2.5-14.07-2.72-16.61-2.93-1.43-3.64-.83-4.45,.83l-8.92,18.29Zm-2.43-29.4l-18.34,11.46c-1.68,1.05-2.06,1.34-1.73,2.58,.29,1.1,1.18,1.71,.3,2.26-.32,.2-.74,.07-1.09-.49-.3-.48-.84-1.87-2.14-3.95-1.3-2.08-2.32-3.17-2.62-3.65-.35-.56-.29-.99,.12-1.24,.76-.48,.98,.5,1.66,1.14,1.12,1.08,1.52,.83,3.24-.25l18.34-11.46c1.28-.8,1.55-1.08,1.29-2.03-.37-1.22-1.26-1.83-.46-2.33,.32-.2,.69-.15,.94,.25,.25,.4,.73,1.88,2.16,4.16,1.43,2.28,2.52,3.32,2.8,3.76,.23,.36,.14,.75-.19,.95-.72,.45-.93-.42-1.76-1.3-.83-.88-1.25-.67-2.53,.13Zm-9.91-23.32c4.77-.93,8.68,1.58,9.66,6.64,.5,2.6,.07,5.04-.41,5.56-.23,.29-1.92,.76-4.98,1.35-.65,.13-1.02-.04-1.09-.41-.13-.65,.75-.87,2.19-1.82,2.27-1.45,3.42-2.69,3-4.86-.53-2.73-2.72-4.09-5.64-3.52-2.46,.48-3.53,2.13-4.49,5.35-1.63,5.46-3.45,8.7-8.69,9.72-5.42,1.05-10.14-1.93-11.15-7.12-.79-4.08,.01-7.12,2.65-7.63,1.07-.21,2.06-.3,2.94-.48,.7-.13,1.1-.26,1.2-.28,.97-.19,1.49,0,1.57,.42,.16,.83-1.37,.89-3.03,1.74-2.92,1.53-4.34,4.16-3.88,6.53,.54,2.78,3.34,4.55,6.53,3.92,2.83-.55,4.66-2.73,5.97-6.64,1.4-4.17,2.22-7.4,7.64-8.46Zm-6.01-12.28c-.71,.99-1.75,1.42-2.97,1.94l-6.52,2.74c-2.55,1.09-3.97,1.61-4.2,2.22-.43,1.04-.38,1.98-1.09,1.98-.42,0-.47-.24-.47-.8,0-.8,.14-1.79,.14-2.88,0-.71-.14-1.37-.14-2.08,0-.94,.52-1.04,1.56-1.46l10.72-4.25c1.65-.66,2.12-1.18,2.12-2.64v-.47c0-.38-.28-.61-.66-.61h-9.3c-1.84,0-2.97,.05-2.97,2.08,0,.76-.24,1.04-.8,1.04-.38,0-.66-.38-.66-.94,0-.47,.28-1.84,.28-4.3s-.28-3.92-.28-4.49c0-.66,.28-.99,.76-.99,.9,0,.57,.94,.8,1.84,.38,1.51,.85,1.51,2.88,1.51h21.62c1.51,0,1.89-.09,2.17-1.04,.33-1.23-.09-2.22,.85-2.22,.61,0,.66,.43,.66,1.27,0,.38-.19,1.46-.19,3.12,0,2.36,.28,4.63,.28,6.75,0,5.05-2.93,7.74-7.32,7.74-3.78,0-6.56-1.94-7.27-5.05Zm1.7-6.33c-.99,0-1.09,.57-1.09,2.17,0,3.21,2.08,4.91,6,4.91s6.42-1.65,6.42-4.72c0-2.17-.8-2.36-2.36-2.36h-8.97Zm11.19-13.15h-4.06c-.8,0-1.18-.09-1.18-.52,0-.85,1.98-.61,3.54-2.31,1.18-1.27,1.79-3.16,1.79-5.76s-.66-2.64-2.88-2.64h-7.79c-.8,0-.94,0-.94,.85v2.12c0,1.94,.42,3.54,.85,3.97,1.23,1.27,2.88,.66,2.88,1.65,0,.42-.19,.57-.66,.57-1.18,0-2.79-.24-4.67-.24-2.22,0-3.59,.14-4.01,.14-.57,0-.85-.24-.85-.57,0-.8,1.46-.61,3.3-1.61,1.42-.76,1.56-1.98,1.56-3.97v-2.08c0-.66-.19-.85-.85-.85h-9.73c-2.6,0-3.02,.61-3.02,3.4,0,2.93,.38,4.49,2.69,5.95,1.75,1.13,3.26,1.51,3.26,2.27,0,.19-.28,.47-.43,.47,0,0-.33-.05-.85-.09l-4.58-.52c-1.46-.14-1.65-.09-1.65-1.46,0-1.94,.38-6,.38-12.04,0-2.79-.24-4.25-.24-4.63,0-.71,.24-1.04,.76-1.04,.85,0,.57,.85,.76,2.03,.19,1.37,1.09,1.42,2.93,1.42h21.62c1.42,0,1.89,0,2.17-.9,.33-1.04-.09-2.03,.85-2.03,.42,0,.66,.28,.66,.8,0,.38-.19,2.69-.19,7.03,0,5.52,.19,8.64,.19,9.25,0,1.27-.42,1.32-1.42,1.32h-.19Zm-2.4-24.01l-25.26-8.26c-.57-.19-.85-.38-.85-.61,0-.43,.99-.61,2.17-1.04l22.09-7.6c2.36-.8,3.82-1.23,4.3-2.17,.33-.66,.05-1.89,.76-1.89,.43,0,.71,.24,.71,.76,0,.28-.28,2.17-.28,5.9,0,1.46,.24,2.55,.24,3.07,0,.47-.14,.66-.57,.66-1.32,0-.14-2.41-2.03-2.41-.47,0-1.13,.14-1.98,.42l-15.15,5.24c-.71,.24-1.04,.38-1.04,.57s.38,.38,1.04,.57l13.79,4.06c1.46,.43,2.5,.61,3.07,.61,2.41,0,1.04-2.79,2.41-2.79,.38,0,.66,.33,.66,.9,0,.47-.28,1.56-.28,3.3,0,1.94,.19,3.02,.19,3.26,0,.61-.19,.9-.61,.9-.94,0-.47-1.13-.85-1.89-.38-.76-1.23-1.13-2.5-1.56Zm.33-26.92h-21.62c-1.98,0-2.46,.05-2.83,1.27-.33,1.09,.09,2.08-.94,2.08-.38,0-.66-.33-.66-.99,0-.57,.28-2.03,.28-4.49s-.28-3.92-.28-4.49c0-.66,.28-.99,.76-.99,.9,0,.57,.94,.8,1.84,.38,1.51,.85,1.51,2.88,1.51h21.62c1.51,0,1.89-.09,2.17-1.04,.33-1.23-.09-2.22,.85-2.22,.38,0,.66,.24,.66,.71s-.38,1.98-.38,4.67,.38,4.15,.38,4.67c0,.43-.28,.71-.66,.71-.85,0-.57-.85-.8-2.03-.24-1.18-.71-1.23-2.22-1.23Zm3.69-36.52v6.04c0,.42-.05,.52-.47,.8l-20.54,12.65c-.05,.19,.19,.28,.47,.28h12.94c1.32,0,2.12-.05,2.41-.05,3.4,0,3.82-.14,3.82-2.74,0-.47,.28-.85,.66-.85,.42,0,.71,.47,.71,1.23,0,.85-.14,1.89-.14,3.26s.14,2.27,.14,2.93-.28,1.04-.71,1.04c-.52,0-.61-.19-.61-.8v-.47c0-1.65-1.51-1.79-4.96-1.79h-23.56c-.61,0-1.18-.33-1.18-.71,0-.33,.28-.61,.76-.9l25.3-15.53c.05-.19-.19-.28-.47-.28h-18.37c-3.54,0-4.58,.19-4.58,2.08,0,.28,.05,.57,.05,.85,0,.38-.28,.66-.76,.66-.42,0-.71-.43-.71-1.23,0-.85,.19-1.94,.19-3.26,0-1.18-.19-2.17-.19-3.02,0-.76,.28-1.13,.71-1.13,.52,0,.76,.24,.76,.9v.43c0,1.94,1.32,2.08,5,2.08h19.64c1.42,0,1.89-.05,2.17-.94,.33-1.13-.05-2.17,.85-2.17,.42,0,.66,.24,.66,.66Zm-3.68-22.24h-16.48c-5.76,0-8.78,1.13-8.78,6.14,0,2.5,.9,4.39,2.5,5.52,1.7,1.13,3.97,1.18,7.22,1.18h11.42c3.59,0,5.43-.05,6.09-.85,.66-.85,0-2.55,1.04-2.55,.43,0,.66,.28,.66,.8,0,.57-.14,1.61-.14,3.21,0,1.7,.14,2.79,.14,3.26,0,.66-.19,.99-.66,.99-.57,0-.66-.42-.66-1.37,0-1.98-1.61-2.08-6.33-2.08h-11.61c-3.26,0-5.71-.05-7.84-1.27-2.27-1.32-3.54-3.97-3.54-7.6,0-4.01,1.04-6.7,3.4-8.31,1.84-1.27,4.11-1.37,6.99-1.37h16.57c1.56,0,1.89-.05,2.17-1.04,.38-1.23-.09-2.17,.85-2.17,.38,0,.66,.28,.66,.71,0,.47-.38,1.98-.38,4.67s.38,4.2,.38,4.67-.28,.71-.66,.71c-.99,0-.52-1.09-.85-2.22-.28-.94-.66-1.04-2.17-1.04Zm193.21,1.96c-2.43,8.68,4.62,.18,7.3,.13-1.2-2.37-5.93-.91-7.3-.13Zm90.05,39.07c2.17,2.37-6.42-14.57-11.41-15.81-14.1-3.5-16.65,12.31-16.31,23.75,.1,3.38-2.62,5.2-4.67,5.54-7.28,1.21-13.08,7.25,2.23,1.35,7.54,0,1.26-3.62,4.35-10.54,2.28-5.11,13.88-10.4,13.88-10.34,0,.05,7.92,1.68,11.92,6.05Zm-68.1-21.36c1.56,6.42-8.33,5.86-7.37,12.92,.91,6.66,13.95,10.04,11.83,16.41-.35,1.04-17.08-.28-11.26,4,6.24-2.6,13.52-.69,14.6,.45,.8-.48,1.61-.7,1.61-1.66,0-2.87-3.14-7.41-6.3-10.94-2.84-3.17,2.83-9.85,7.64-13.55,5.07-3.6-7.75-15.78-10.74-7.63Zm-20.76,5.36c-1.6,.82-1.18,8.07,6.82-1.28,1-1.16,2.01-1.43,3.52-1.76,3.13-.68,6.68-6.23,3.55-9.6-.23-.35-2.52-1.27-2.43-1.04,.04,.09-2.09-2.8-2.73-3.76l-.64,.16c3.99,3.07-.26,9.42-2.34,4.46-.31-.74-2.23,5.91-2.95,5.63l-4.79,4.47c4.09-.31,3.31,2.04,1.98,2.72Zm89.14,30.39c1.27-3.18,1.09-5.34,1.09-5.35,0,0-1.89,4.29-4.3,6.77-2.4,2.46-4,1.9-5.47,1.93-.8-1.02-1.56-2.01-4.04-1.56-2.72,.49-4.04,1.22-6.09,3.2,0,0,4.61-3.89,7.22-1.62,.43,.38,.53,.71,1.08,.97,.08,.17,.22,.41,.42,.74,3.81,.41,8.25-1.17,10.1-5.08Zm-87.65-25.89c-1.3,.61-2.8,.91-4.37,.91-5.22,0-9.45-3.63-9.45-8.12,0-.53,2.33-1.2,2.44-1.7l2.29-9.03s-.07-1.42,.06-2.46c.13-1.03,.55-1.62,.55-1.62-9.68-3.82-4.77-14.13-3.63-15.72,1.03-1.44-.15,6.73,3.34,7.94,2.03,.71,3.42,.65,4.35,.61,0,0,4.13-1.67,7.11-1.48,2.97,.19,6.51,2.95,6.8,2.56,9.29,.72,7.71-9.02,9.28-9.49,.87-.26,3.38,11.44-.35,12.96l14.27,7.05s14.19,1.61,29.59,6.76c4.64,1.55,11.93-.55,15.66,1.73,3.13,1.92,9.02,8.67,9.02,8.67,3.67,4.26,6.74,16.16,5.36,22.81-2.67,12.8-13,13.22-14.98,13.21-1.74,2.9-4.08,1.97-8.24,1.51-7.1-.22-12.35,0-20.24-.03-4.05,0-1.68-4.37-2.87-4.37h-45.03c-3.15,0-1.6-2.8-.8-5.66,.85-3.03,.08-4.74,2.98-5.94,2.09-.86,1.01-.71,1.98-2.89,.67-1.5,1.08-2.63-.52-5.72-1.6-3.09-2.74-3.9-3-5.58-.45-2.91,.22-8.04-1.55-6.94l-.06,.02Zm-13.03,57.29c-2.43,8.68,4.62,.18,7.3,.13-1.2-2.37-5.93-.91-7.3-.13Zm90.8,37.77c2.17,2.37-6.42-14.57-11.41-15.81-14.1-3.5-16.65,12.31-16.31,23.75,.1,3.38-2.62,5.2-4.67,5.54-7.28,1.21-13.08,7.25,2.23,1.35,7.54,0,1.26-3.62,4.35-10.54,2.28-5.11,13.88-10.4,13.88-10.34s7.92,1.68,11.93,6.05Zm-68.1-21.36c1.56,6.42-8.33,5.86-7.37,12.92,.91,6.66,13.95,10.04,11.83,16.41-.35,1.04-17.08-.28-11.26,4,6.24-2.6,13.52-.69,14.6,.45,.8-.48,1.61-.7,1.61-1.66,0-2.87-3.14-7.41-6.3-10.94-2.84-3.17,2.83-9.85,7.64-13.55,5.07-3.6-7.75-15.78-10.74-7.63Zm-21.18,6.32c-1.6,.83-1.18,8.07,6.82-1.28,1-1.16,2.01-1.43,3.52-1.76,3.13-.68,6.68-6.23,3.55-9.6-.23-.35-2.52-1.27-2.43-1.04,.04,.09-2.09-2.8-2.73-3.76l-.64,.16c3.99,3.07-.26,9.42-2.34,4.46-.31-.74-2.23,5.91-2.95,5.63l-4.79,4.47c4.09-.31,3.31,2.04,1.98,2.72Zm89.14,30.39c1.27-3.18,1.09-5.34,1.09-5.35,0,0-1.89,4.29-4.3,6.77-2.4,2.46-4,1.9-5.47,1.93-.8-1.02-1.56-2.01-4.04-1.56-2.72,.49-4.04,1.22-6.09,3.2,0,0,4.61-3.89,7.22-1.62,.43,.38,.53,.71,1.08,.97,.08,.17,.22,.41,.42,.74,3.81,.41,8.25-1.17,10.1-5.08Zm-87.65-25.89c-1.3,.61-2.8,.91-4.37,.91-5.22,0-9.45-3.63-9.45-8.12,0-.53,2.33-1.2,2.44-1.7l2.29-9.03s-.07-1.42,.06-2.46c.13-1.03,.55-1.62,.55-1.62-9.68-3.82-4.77-14.13-3.63-15.72,1.03-1.44-.15,6.73,3.34,7.94,2.03,.71,3.42,.65,4.35,.61,0,0,4.13-1.67,7.11-1.48,2.97,.19,6.51,2.94,6.8,2.56,9.29,.72,7.71-9.02,9.28-9.49,.87-.26,3.38,11.44-.35,12.96l14.27,7.05s14.19,1.61,29.59,6.76c4.64,1.55,11.93-.55,15.66,1.73,3.13,1.92,9.02,8.67,9.02,8.67,3.67,4.26,6.74,16.16,5.36,22.81-2.67,12.8-12.99,13.22-14.98,13.21-1.74,2.9-4.08,1.97-8.24,1.51-5.78-.16-12.35,0-20.24-.03-4.05,0-1.68-4.37-2.87-4.37h-45.03c-3.15,0-1.6-2.8-.8-5.66,.85-3.03,.08-4.74,2.98-5.94,2.09-.86,1.01-.71,1.98-2.89,.67-1.5,1.08-2.63-.52-5.72-1.6-3.09-2.74-3.9-3-5.58-.45-2.91,.22-8.04-1.55-6.94l-.06,.02Zm-100.91-229.04h9.44c.7,0,1.27,.57,1.27,1.27v9.44c0,.7-.57,1.27-1.27,1.27l-1.25-1.97h-7.32s0-7.22,0-7.22l-2.15-1.52c0-.7,.57-1.27,1.27-1.27Zm-21.91,12.58l-3.32-1.13h-1.87v-4.41l-1.47-3.14c0-.4,.22-.75,.49-.79l6.17-1.94c.27-.03,.49,.26,.49,.66v9.96c0,.4-.22,.75-.49,.79Zm235.33,223.82v-135.89h-138.38v177.52h96.75c22.99,0,41.62-18.64,41.62-41.62Zm0-141.3V175.8h-138.37v165.21c6.34-2.16,27.85-5.91,46.18-7.61,4.7-6.96,9.37-16.25,6.61-27.79-2.31,.02-1.68,1.67-4.07,1.67-2.39,0-.9,.5-3.29,.5-1.2,0-1.56,.03-1.92,0-.36-.04-.7-.14-1.87-.4-2.33-.53-.97-2.58-3.31-3.11-2.34-.53-.77-.36-2.74-1.73-1.96-1.37-2.24,.78-4.21-.59-.97-.68-1.28-.88-1.5-1.15-.23-.28-.37-.63-1.03-1.64-1.32-2-2.17-.24-3.49-2.24-1.32-2-1.85-1.64-2.32-3.99-.47-2.35-.25-4.67-.72-7.01-.47-2.35,.68-1.89,1.09-4.24,.41-2.36-.83-1.17-.43-3.53,.41-2.36,2.18-.58,3.34-2.67,1.16-2.09-1.31-1.75-.15-3.85,1.16-2.09,2.36,.55,4.14-1.06s-1.11-2.53,.66-4.14c1.77-1.61,3.95-9.69,3.22-11.97-.73-2.28,.86-1.63,1.29-3.99,.43-2.35,2.1-.86,2.53-3.21,.43-2.36-1.79-1.74-.56-3.79,1.23-2.06,3.01,.52,4.24-1.53,1.23-2.06-.72-1.18,1.14-2.69,1.85-1.51,1.09-.37,2.94-1.88,1.85-1.51-.49-2.6,1.77-3.39,2.2-.76,.86-1.26,2.84-2-.74-2.5-.15-.61-.82-2.91-.67-2.3,2.3-1.11,1.63-3.4-.67-2.3-.36-.33-1.03-2.63-.67-2.3-1.61-1.06-1.14-3.41,.47-2.35,3.41-3.88,4.75-5.87,1.34-1.98,2.09-4.89-.75-5.46,1.34-1.98,.78-2.23,2.77-3.57,1.98-1.34,3.16,2.09,5.14,.75,1.98-1.34,.04-4.12,2.38-4.59,2.35-.47,2.2,2.87,4.55,2.4,2.35-.47,1.03-.22,3.38,.25,2.35,.47,1.41,1.02,3.76,1.49,2.35,.47,2.22-2.35,4.21-1.02,1.98,1.34,1.49,.39,3.47,1.73,1.98,1.34-.73,2.49,.61,4.47,1.34,1.98,.93,1.12,2.27,3.1,1.34,1.98,3.52,.02,4,2.37,.47,2.35-.92,1.8-.44,4.15,.47,2.35,1.38,1.15,.71,3.45-.67,2.3,.15,.48-.52,2.78-.67,2.3,.45,5.97,2.71,6.75,2.26,.78,.86,1.39,2.71,2.9,1.85,1.51,.98,.5,2.84,2.01,1.85,1.51-.77,1.83,.46,3.88,1.23,2.06,2.08,.04,3.3,2.09,1.23,2.06-1.49,1.38-1.06,3.73,.43,2.36,2.91,.71,3.34,3.07,.43,2.36,.63,1.23-.1,3.51-.73,2.28-1.45,.25-2.19,2.52-.73,2.28-.35,.6-1.08,2.88-.71,2.19,1.12,1.21,.61,3.16,.29-.16,.69-.2,1.25,.04,2.2,.95-.62,3.77,1.58,4.71,2.2,.95,1.93-1.6,3.7,0,1.77,1.61,1.07,.12,2.84,1.73,1.77,1.61,.21,1.26,1.37,3.35,1.16,2.09,1.17,.37,2.33,2.47,1.16,2.09,1.25,1.02,1.65,3.38,.4,2.36-1,1.2-.59,3.56,.41,2.36,2.26,1.68,1.81,4.03-.45,2.35-3.58,3.9-4.03,6.25-.45,2.35,1.08,1.62-.2,3.65-1.28,2.02-1.72,.42-3,2.44-1.28,2.02-.65,.34-2.57,1.77-1.92,1.43,.04,2.17-1.88,3.6-1.92,1.43-.98,.77-3.29,1.4-2.31,.63-1.71-1.09-4.02-.46-2.31,.63-.59,3.49-2.99,3.49-2.39,0-.9-1.43-3.29-1.42-2.39,0-.9,.86-3.29,.87-2.39,0-.9-.73-3.29-.72-2.39,0,.22-1.57-2.18-1.57-.5,0-1.21,.37-1.44,.55-2.36,11.07,1.56,20.36,6.01,27.25,22.14,1.24,35.39,3.94,51.05,8.09Zm-141.93-165.22h-135.86l-.03,165.6c5.68-2.15,22.09-5.19,22.09-5.19l6.4-61.02c-.63-.34-1.58-1.29-1.49-2.32,.09-1.07,1.97-1.93,1.97-1.93l4.32-40c0-.28,.37-.47,.37-.48,.92-.27,6.89-1.61,7.11-1.57,1.43,.19,2.32,.42,3.18,.56,.51,.1,.61,.25,.66,.54,0,.05,1.02,5.86,1.04,5.79,1.52-.22,2.91-.38,4.06-.54,.06-.33,.66-7.59,1.06-7.96,.18-.23,.52-.16,3.95-.44,.03-.78,.05-36.78,.03-37.74-1.25-.24-1.64-1.29-1.68-1.98-.03-.59,.52-2.08,2.06-2.08,.23,0,.87,.09,1.32,.5-.6-.41-2.08-.18-2.13,1.29-.01,.42,.5,1.44,1.45,1.44,.81,0,1.31-.62,1.4-1.07-.05,1.11-.9,1.69-1.39,1.84,.07,.64,1.75,37.35,1.76,37.57,1.74-.11,4.27-.33,4.65-.31,.48,.03,1.82,.61,2.38,.73,.29,1.65,.55,3.65,.86,5.19,.74-.12,5.77-.54,6.96-.56,.21-1.61,.47-4.1,.6-4.97,.07-.35,.35-.41,.58-.41,.54,0,10.14,.77,10.67,.84,.38,.03,.49,.24,.54,.67,.13,1.09,.28,3.19,.47,4.38,1.14,.14,6.23,.71,6.22,.71-.02,0,.34-2.77,.49-3.5,.31-.09,1.24-.45,1.98-.59,2.3,.5,4.87,1.12,6.62,1.54,.15,.06,2.41,.61,2.46,.87,0,0-1.59,3.11-.99,7.91l4.07,32.58s1.75,.59,1.87,1.86c.06,.62-.72,1.68-1.62,2.09l7.67,60.86s16.32,3.4,21.89,4.6V175.8Zm145.49,306.52c0,24.95-20.23,45.18-45.18,45.18h-194.6c-24.95,0-45.18-20.23-45.18-45.18l.05-310.07h284.9V482.32Zm-238.05-246.38l1.38,.1-.99-5.3-1.14-.26,.75,5.46Zm21.28-1.55l-.97-6.46-1.14-.31,.75,6.72,1.36,.04Zm-23.33-3.88c-2.24,1.03-2.89,1.76-3.74,3.05-1.22,1.83-1.64,11.56-1.72,13.51-.09,2.23,.05,1.42-.16,3.62-.21,2.19-.39,4.58-.59,6.78-.21,2.19,.51,.16,.3,2.35-.21,2.19-.53,.99-.74,3.19-.21,2.19,1.23,.74,1.03,2.93-.12,1.32,1.27,1.59,.83,2.91,0,1.12,1.9,.68,2.79,.81,7.92-.96,18.96-1.73,31.9-1.47,11.91,.05,26.88,1.54,31.85,2.57-.36-5.09-1.2-11.28-1.2-11.28l-3.99-1.73-.53-9.4c0-.7,.58-1.18,1.29-1.06l2.43,.69c-.16-4.5-1.26-15.15-1.53-16.11-1.44-.32-4.55-1.16-5.55-1.35-.08,.43-.65,4.62-.93,6.9-.04,.3-.22,.5-.66,.43-1.99-.35-5.54-.91-7.67-1.21-.35-.09-.73-.24-.79-.53-.14-1.18-.59-7.13-.67-7.18-.09-.05-5.51-.62-8.63-.87-.12,1.39-.66,4.99-.89,6.89-.05,.34-.64,.69-1.01,.69-2.91,.13-9.79,.21-10.75,.21-.44-6.27-5.79-7.61-7.17-7.53-.7,.04-1.55,.07-2.63,.15-.13,1.18-.69,6.64-.82,7.61-.03,.22-.21,.4-.47,.45-.25,.05-7.07,.39-8.46,.59-.15-.02-.51-3.87-1.11-6.62Zm27.76,103.62c-1.67-26.99,27.08-26.58,25.59,.59,0,0,13.08,1.68,13.56,1.54,1.06-.31,1.18-1.53,1.03-2.61-.09-.67-.94-11.74-.91-12.26,.09-1.47-5.11-47.64-5.11-47.64-5.89-1.76-22.8-2.28-33.32-2.39-.27,.05-.59,.07-.96,.08-6.87,.08-23.6,.89-31.99,2.17,0,0-1.81,1.16-1.98,3.98-.08,.95-1.61,2.5-1.79,4.7-.18,2.2,.74,2.88,.55,5.08-.18,2.2,.53-.12,.34,2.08-.18,2.2-.99,5.02,1.08,5.8,1.29,.48,2.29,2.33-.71,2.71-.52,.19-.92,.05-.94,.44-.11,2.2,1.1,2.5,1,4.7-.11,2.2-.86,.85-.96,3.05-.04,.82,.97,4.26-.2,4.71-.2,.38-.1,2.46-.11,2.87-.01,.67,2.58,3.74,2.21,4.62-.51,1.24,.88,2.49,1.6,2.22,1.07-.4,5.93,2.25-.31,2.99-.68,.29-1,.68-.77,1.26,.82,2.05,1.67-.05,3.2,1.53,1.54,1.58-.29,2.48,1.24,4.06,1.54,1.58,2.29-.3,4.37,.45,2.07,.75,1.51,2.87,3.58,3.61,.79,.28,20.61-.49,20.71-.34Zm167.85-69.91c-.56-.24-.97-.2-1.25-.04,.51-1.95-1.32-.97-.61-3.16,.73-2.28,.35-.6,1.08-2.88,.73-2.28,1.45-.25,2.19-2.52,.73-2.28,.53-1.15,.1-3.51-.43-2.36-2.91-.71-3.34-3.07-.43-2.36,2.29-1.68,1.06-3.73-1.23-2.06-2.08-.04-3.3-2.09-1.23-2.06,1.39-2.37-.46-3.88-1.85-1.51-.98-.5-2.84-2.01-1.85-1.51-.45-2.12-2.71-2.9-2.26-.78-3.38-4.45-2.71-6.75,.67-2.3-.15-.48,.52-2.78,.67-2.3-.24-1.1-.71-3.45-.47-2.35,.92-1.8,.44-4.15-.47-2.35-2.66-.38-4-2.37-1.34-1.98-.93-1.12-2.27-3.1-1.34-1.98,1.37-3.13-.61-4.47-1.98-1.34-2.52,4.15-4.51,2.81-1.98-1.34-4.41-1.02-4.44-.49-.16,2.39-3.73-2.18-3.9,.21-.16,2.39-1.01,.5-1.28,2.88-.27,2.38-2.35,.51-2.62,2.89-.27,2.38-2.71,3.08-2.98,5.46-.27,2.38-.24,2.45-.51,4.83-.27,2.38,1.83,.8,3.21,2.75,1.38,1.95-3.63,2.05-2.25,4,1.38,1.95,1.92,1.26,3.3,3.21,1.38,1.95-7.79,4.18-2.01,8.36,1.94,1.4-3.52,5.51-6.43-.32-1.29-2.57-6.75,3.86-3.21,7.07,1.77,1.61,2.57,2.57-5.46,5.14-2.28,.73,1.93,6.43-4.18,7.72,0,0-2.57,6.43,2.57,5.14,5.79-2.25,2.92,.51,4.13,2.57,1.21,2.06-.89,3.4,.32,5.46,1.21,2.06-5.07,1.79-3.86,3.86,1.21,2.06,4.51,4.34,2.89,6.11-5.95,6.51,3.93,4.37,5.14,6.43,1.21,2.06,6.79,2.57,3.9,7.39-1.23,2.05,9.01,.06,9.97,2.25,.96,2.19,5.79-3.16,6.75-.96,.96,2.19,7.08-4.28,8.04-2.09,.96,2.19,6.6-1.71,7.55,.48,.96,2.19,3.22-.1,4.18,2.09,.96,2.19,5.15-5.09,6.11-2.89,.96,2.19,4.34-.64,8.84-5.46,1.32-1.41,1.82-6.47,3.7-5.46,.45-2.35-1.9-4.19-2.3-6.55-.41-2.36,2.62-.02,2.22-2.38-.41-2.36-.49-1.29-1.65-3.38-1.16-2.09-1.17-.37-2.33-2.47-1.16-2.09,.4-1.74-1.37-3.35-1.77-1.61-1.07-.12-2.84-1.73-1.77-1.61-1.5,.94-3.7,0-2.2-.95,.62-3.77-1.58-4.71Zm-37.32,68.69l23.23,.08c-1.36-4.74-6.6-11.85-5.61-22.13-1.07-1.07-.84,.57-1.7,.92-.46-.23-1.9-.97-2.19-.97-.27,0-.58,1.48-1.17,1.22-.67-.3-1.15-1.83-1.17-1.91,0-.03-1.23-.05-2.45,.09-.15,3.49-2.56,.5-2.4,1.24-2.16,.21-2.5-.65-2.67-.64-.35,.01-1.21,15.75-3.86,22.1Zm142.4,185.1c-.02,33.34-38.09,65.45-72.32,65.46h-110.19c-.58-.04-16.44-.85-19.67,11.25l-2.7,10.11-2.79-10.08c-3.38-12.19-17.99-11.31-18.4-11.28h-106.9c-34.34,.03-73.91-32.2-73.46-65.52V113.35s406.42,0,406.42,0v404.65Zm-5.69,0V119.04H313.98v398.96c-.39,29.34,35.73,59.8,67.77,59.78h106.71c7.87-.46,16.81,2.67,21.35,9.41,4.8-6.95,14.47-9.86,22.59-9.41h110c31.76,0,66.61-30.21,66.63-59.78Z" style="fill: #fff; fill-rule: evenodd;"/>
        </g>
        <g>
          <path d="M289.52,761.89c0-25.87,2.83-30.11,12.71-32.45,10.35-2.35,15.51-1.42,15.51-7.06,0-4.24-1.41-6.11-6.11-6.11-5.64,0-10.81,1.88-31.5,1.88-16,0-21.18-1.88-27.29-1.88-5.64,0-8.47,2.83-8.47,6.11,0,6.11,3.3,6.11,13.17,7.06,13.63,1.4,18.81,7.99,18.81,37.16v161.81c0,58.8-31.51,80.44-63.97,80.44-23.99,0-55.51-15.05-55.51-56.91v-195.22c0-27.28,9.41-27.28,19.76-28.7,9.88-1.41,14.57-2.35,14.57-6.58,0-4.69-3.75-5.17-11.29-5.17s-15.99,1.88-37.16,1.88c-16.93,0-18.81-1.88-31.98-1.88-3.77,0-8.47,1.41-8.47,4.24,0,7.05,2.36,4.7,20.23,8.94,3.77,.94,3.3,6.11,3.3,18.33v196.64c0,59.27,44.69,75.74,81.85,75.74,47.51,0,81.85-25.4,81.85-106.79v-151.47Z" style="fill: #fff;"/>
          <path d="M407.62,785.4c2.82,0,4.71,1.89,6.58,9.42,15.52,61.62,25.87,92.19,25.87,98.32,0,3.75-.94,3.75-33.87,3.75-26.81,0-28.22-.47-28.22-3.3,0-2.35,3.29-15.99,22.57-92.66,3.3-13.18,3.77-15.53,7.06-15.53m28.69,122.78c8.47,0,10.35,3.77,15.52,23.52,10.83,41.39,15.05,55.04,15.05,59.74,0,9.88-5.64,11.76-12.23,11.76-7.52,0-12.24,2.35-12.24,6.11s3.78,5.17,8,5.17c8.94,0,21.17-1.89,33.4-1.89,10.82,0,18.35,1.89,28.69,1.89,7.06,0,9.89-.94,9.89-3.77,0-4.7-8.01-5.64-14.11-7.52-5.17-1.88-9.41-9.88-11.77-18.35-33.86-121.82-50.32-180.15-73.39-262.95-2.34-8.46-3.29-11.29-7.99-11.29s-6.11,4.7-8.94,14.11c-24.45,89.38-46.57,190.04-72.91,268.59-4.24,12.69-18.35,7.05-18.35,15.99,0,3.29,1.88,5.17,5.17,5.17,2.83,0,5.17-1.89,26.34-1.89,10.82,0,20.71,1.89,28.7,1.89,5.17,0,8-.94,8-5.17,0-5.17-6.11-5.17-15.05-6.58-11.77-1.88-13.64-7.06-13.64-12.69,0-6.59,1.88-14.58,12.23-57.39,5.65-23.04,8-24.46,15.53-24.46h54.09Z" style="fill: #fff;"/>
          <path d="M559.96,860.2c0-102.54,38.58-138.29,69.15-138.29,23.52,0,40.45,18.34,51.74,53.15,7.06,21.65,7.99,23.07,12.24,23.07s4.22-.95,4.22-22.13c0-46.09-.94-48.44-4.22-51.27-5.17-4.22-29.18-14.11-57.39-14.11-68.2,0-113.37,62.1-113.37,155.24s48.94,154.28,113.84,154.28c21.63,0,49.86-6.59,59.26-14.58,4.72-3.3,6.12-5.64,6.12-14.57l.47-59.27c0-12.71-2.82-13.18-7.05-13.18-4.72,0-4.72,6.58-9.41,30.57-6.58,32.45-21.17,59.74-52.21,59.74-36.69,0-73.39-36.69-73.39-148.65" style="fill: #fff;"/>
          <path d="M777.7,857.38c0-23.52,24.93-42.33,48.92-42.33,22.57,0,38.56,14.1,38.56,39.51v131.71c0,11.76-3.75,15.05-16.46,16.93-5.64,.94-8.94,1.88-8.94,6.11,0,3.77,1.89,5.17,7.06,5.17s8.47-1.89,32.45-1.89c18.82,0,32.92,1.89,34.81,1.89,3.29,0,6.58-1.41,6.58-4.7,0-4.24-3.3-5.64-12.7-6.58-10.35-.95-14.58-7.06-14.58-22.12v-130.29c-1.42-37.64-27.29-53.62-53.63-53.62-31.98,0-54.56,30.09-58.79,30.09-2.36,0-3.3-.95-3.3-3.3v-137.82c0-5.64-.94-6.58-2.36-6.58-4.71,0-4.71,4.22-42.8,17.88-5.17,1.88-6.59,2.82-6.59,6.1s2.36,3.77,9.88,5.19c11.3,1.88,13.64,4.7,13.64,11.76v258.23c0,18.36-3.3,22.6-18.81,24.47-4.24,.47-6.59,3.29-6.59,5.64,0,3.75,2.36,5.64,6.12,5.64,6.58,0,10.35-1.89,31.98-1.89,31.51,0,36.69,1.89,39.52,1.89,3.77,0,6.58-1.41,6.58-4.7,0-3.77-1.42-5.17-10.35-6.58-15.52-2.35-20.23-8.46-20.23-19.29v-126.54Z" style="fill: #fff;"/>
        </g>
      </g>
    </g>
  </g>
</svg>