<?xml version="1.0" encoding="UTF-8"?>
<svg id="Layer_2" data-name="Layer 2" xmlns="http://www.w3.org/2000/svg" viewBox="0 0 2048 1010.88">
  <g id="Isotipos-UACh">
    <g id="Logo-UACh-Centrado-Negro">
      <rect width="2048" height="1010.88" style="fill: none;"/>
      <g>
        <g>
          <polygon points="959.92 198.58 973.32 188.04 987.99 198.19 959.92 198.58" style="fill-rule: evenodd;"/>
          <polygon points="978.04 184.2 993.41 172.19 991.83 193.85 978.04 184.2" style="fill-rule: evenodd;"/>
          <polygon points="968.59 184.6 954.13 195.69 953.13 173.67 968.59 184.6" style="fill-rule: evenodd;"/>
          <path d="M973.22,180.86c0,.3-15.56-11.13-15.56-11.13l32.3-1.97s-16.74,12.8-16.74,13.1Z" style="fill-rule: evenodd;"/>
          <path d="M927.47,343.41l-8.57-5.35-8.57,5.35,2.44-9.8-7.73-6.49,10.07-.71,3.79-9.36,3.79,9.36,10.07,.71-7.73,6.49,2.44,9.8Zm0,31.56l-8.57-5.35-8.57,5.35,2.44-9.8-7.73-6.49,10.07-.71,3.79-9.36,3.79,9.36,10.07,.71-7.73,6.49,2.44,9.8Zm0,31.56l-8.57-5.35-8.57,5.35,2.44-9.8-7.73-6.49,10.07-.71,3.79-9.36,3.79,9.36,10.07,.71-7.73,6.49,2.44,9.8Zm0,31.56l-8.57-5.35-8.57,5.35,2.44-9.8-7.73-6.49,10.07-.71,3.79-9.36,3.79,9.36,10.07,.71-7.73,6.49,2.44,9.8Zm82.62-94.67l-8.57-5.35-8.57,5.35,2.44-9.8-7.73-6.49,10.07-.71,3.79-9.36,3.79,9.36,10.07,.71-7.73,6.49,2.44,9.8Zm0,31.56l-8.57-5.35-8.57,5.35,2.44-9.8-7.73-6.49,10.07-.71,3.79-9.36,3.79,9.36,10.07,.71-7.73,6.49,2.44,9.8Zm0,31.56l-8.57-5.35-8.57,5.35,2.44-9.8-7.73-6.49,10.07-.71,3.79-9.36,3.79,9.36,10.07,.71-7.73,6.49,2.44,9.8Zm0,31.56l-8.57-5.35-8.57,5.35,2.44-9.8-7.73-6.49,10.07-.71,3.79-9.36,3.79,9.36,10.07,.71-7.73,6.49,2.44,9.8Zm-40.22-94.67l-8.57-5.35-8.57,5.35,2.44-9.8-7.73-6.49,10.07-.71,3.79-9.36,3.79,9.36,10.07,.71-7.73,6.49,2.44,9.8Zm0,31.56l-8.57-5.35-8.57,5.35,2.44-9.8-7.73-6.49,10.07-.71,3.79-9.36,3.79,9.36,10.07,.71-7.73,6.49,2.44,9.8Zm0,31.56l-8.57-5.35-8.57,5.35,2.44-9.8-7.73-6.49,10.07-.71,3.79-9.36,3.79,9.36,10.07,.71-7.73,6.49,2.44,9.8Zm0,31.56l-8.57-5.35-8.57,5.35,2.44-9.8-7.73-6.49,10.07-.71,3.79-9.36,3.79,9.36,10.07,.71-7.73,6.49,2.44,9.8Zm0,31.56l-8.57-5.35-8.57,5.35,2.44-9.8-7.73-6.49,10.07-.71,3.79-9.36,3.79,9.36,10.07,.71-7.73,6.49,2.44,9.8Zm187.28-338.52c.85,.61,1.22,1.5,1.67,2.56l2.36,5.61c.93,2.19,1.38,3.41,1.91,3.62,.89,.37,1.71,.33,1.71,.93,0,.37-.2,.41-.69,.41-.69,0-1.54-.12-2.48-.12-.61,0-1.18,.12-1.79,.12-.81,0-.89-.45-1.26-1.34l-3.66-9.22c-.57-1.42-1.02-1.83-2.28-1.83h-.41c-.33,0-.53,.24-.53,.57v8c0,1.58,.04,2.56,1.79,2.56,.65,0,.89,.2,.89,.69,0,.32-.33,.57-.81,.57-.41,0-1.58-.24-3.7-.24s-3.37,.24-3.86,.24c-.57,0-.85-.24-.85-.65,0-.77,.81-.49,1.58-.69,1.3-.33,1.3-.73,1.3-2.48v-18.61c0-1.3-.08-1.62-.89-1.87-1.06-.28-1.91,.08-1.91-.73,0-.53,.37-.57,1.1-.57,.32,0,1.26,.16,2.68,.16,2.03,0,3.98-.24,5.81-.24,4.35,0,6.66,2.52,6.66,6.3,0,3.25-1.67,5.65-4.35,6.26Zm-5.44-1.46c0,.85,.49,.93,1.87,.93,2.76,0,4.22-1.79,4.22-5.16s-1.42-5.52-4.06-5.52c-1.87,0-2.03,.69-2.03,2.03v7.72Zm-22.99-7.84v14.18c0,4.96,.97,7.56,5.28,7.56,2.15,0,3.78-.77,4.75-2.15,.98-1.46,1.02-3.41,1.02-6.22v-9.83c0-3.09-.04-4.67-.73-5.24-.73-.57-2.19,0-2.19-.89,0-.37,.24-.57,.69-.57,.49,0,1.38,.12,2.76,.12,1.46,0,2.4-.12,2.8-.12,.57,0,.85,.16,.85,.57,0,.49-.37,.57-1.18,.57-1.71,0-1.79,1.38-1.79,5.44v9.99c0,2.8-.04,4.92-1.1,6.74-1.14,1.95-3.41,3.05-6.54,3.05-3.45,0-5.77-.89-7.15-2.93-1.1-1.58-1.18-3.53-1.18-6.01v-14.26c0-1.34-.04-1.62-.89-1.87-1.06-.33-1.87,.08-1.87-.73,0-.33,.24-.57,.61-.57,.41,0,1.71,.33,4.02,.33s3.62-.33,4.02-.33,.61,.24,.61,.57c0,.85-.93,.45-1.91,.73-.81,.24-.89,.57-.89,1.87Zm-7.53-3.74l-.24,5.36c-.04,.89-.16,1.14-.57,1.14-.73,0-.69-1.14-1.18-2.72-.73-1.75-1.91-1.99-4.39-1.99h-.65c-.32,0-.53,.37-.53,.65v19.91c0,1.71,.04,2.07,1.1,2.44,.93,.32,1.79-.08,1.79,.81,0,.32-.28,.57-.85,.57-.85,0-2.15-.28-3.86-.28s-3.01,.28-3.86,.28c-.57,0-.85-.24-.85-.65,0-.81,.89-.45,1.79-.73,1.06-.33,1.1-.69,1.1-2.44v-19.78c0-.33-.2-.77-.53-.77h-1.14c-1.67,0-2.64,.65-3.66,1.95-.97,1.62-1.34,2.6-1.99,2.6-.28,0-.45-.04-.45-.57,0-.04,.08-.37,.16-.69l1.02-4.14c.28-1.22,.28-2.07,.81-2.07,.49,0,.45,1.34,.93,1.38,.28,.28,.93,.37,1.91,.37,.77,0,1.75-.04,2.92-.04h5c1.34,0,2.4,.08,3.17,.08,.61,0,1.06-.04,1.3-.2,.73-.45,.89-1.62,1.3-1.62,.33,0,.45,.49,.45,.73v.45Zm-23.02,3.74v18.61c0,1.71,.04,2.11,1.1,2.44,.93,.28,1.79-.08,1.79,.81,0,.32-.28,.57-.85,.57-.49,0-1.75-.24-3.86-.24s-3.37,.24-3.86,.24c-.57,0-.85-.24-.85-.65,0-.77,.81-.49,1.58-.69,1.3-.33,1.3-.73,1.3-2.48v-18.61c0-1.3-.08-1.62-.89-1.87-1.06-.28-1.91,.08-1.91-.73,0-.33,.2-.57,.61-.57s1.71,.33,4.02,.33,3.57-.33,4.02-.33c.37,0,.61,.24,.61,.57,0,.73-.73,.49-1.75,.69-1.02,.2-1.06,.61-1.06,1.91Zm-16.17,10.72l-.65-.28c-.12-.04-.2-.08-.28-.08-.33,0-.37,.24-.37,.77v7.6c0,1.38,.04,1.87,.81,2.23,1.02,.45,1.95-.08,1.95,.89,0,.32-.33,.61-.85,.61s-1.83-.28-3.86-.28c-1.91,0-3.13,.28-3.7,.28-.36,0-.61-.11-.73-.32-.09,.24-.34,.32-.82,.32-.69,0-1.79-.24-3.41-.24-2.27,0-3.66,.2-4.18,.2-.49,0-.69-.12-.69-.49s.33-.65,.81-.65c1.34,0,1.67-.24,1.67-.97,0-.37-.12-.97-.37-1.83l-1.58-5.2c-.08-.28-.28-.33-.61-.33h-5.04c-.16,0-.41,.16-.45,.37l-.97,3.62c-.41,1.58-.61,2.64-.61,3.13,0,.81,.32,.97,1.06,1.1,1.1,.16,1.62,.28,1.62,.89,0,.37-.24,.49-.69,.49-.57,0-1.79-.24-3.53-.24-1.18,0-2.11,.2-2.68,.2-.49,0-.73-.2-.73-.53,0-.85,1.22-.32,2.03-.93,.73-.53,1.02-1.54,1.46-3.01l6.46-20.96c.2-.61,.24-.97,.69-.97,.57,0,.61,.77,.97,1.91l6.13,19.34c.57,1.87,.93,2.97,1.99,3.66,.6,.41,1.17,.43,1.4,.64,.11-.56,.82-.33,1.53-.52,1.22-.32,1.22-.97,1.22-2.8v-18.32c0-1.18-.08-1.58-.85-1.83-1.02-.33-1.83,.04-1.83-.77,0-.41,.28-.57,.77-.57,.2,0,1.26,.12,3.21,.12h.65c.93,0,2.28-.08,4.06-.08,4.71,0,7.07,2.52,7.07,7.43,0,4.1-2.56,7.15-5.57,7.15-.73,0-1.54-.28-2.52-.73Zm-1.34-2.84c0,1.18,1.1,1.75,2.11,1.75,1.83,0,3.49-2.15,3.49-5.52,0-3.66-1.75-6.09-3.7-6.09-1.67,0-1.91,.57-1.91,1.99v7.88Zm-17.92-4.27c-.08-.24-.16-.37-.24-.37s-.2,.12-.24,.32l-1.91,7.19c-.04,.2-.04,.37-.04,.41,0,.12,.12,.24,.28,.24h4.06c.16,0,.37-.16,.37-.33,0-.12-.04-.24-.08-.41l-2.19-7.07Zm-28.75,5.97c0-7.56,5.44-13.49,12.23-13.49,2.97,0,5.52,.93,6.01,1.5,.28,.28,.53,1.79,.53,4.18,0,.45-.12,.73-.33,.73-.37,0-.73-.61-1.34-1.63-1.46-2.4-2.92-3.7-5.04-3.7-4.39,0-7.88,5-7.88,12.59,0,7.03,3.49,12.11,7.52,12.11,2.52,0,4.14-1.38,5.4-4.18,.65-1.46,.93-2.32,1.42-2.32,.24,0,.45,.28,.45,.85,0,.32-.12,1.5-.12,3.45s-2.88,3.49-6.99,3.49c-6.82,0-11.86-5.97-11.86-13.61Zm-25.15-6.42c0-4.18,2.76-7.07,7.19-7.07,2.27,0,4.27,.77,4.63,1.26,.2,.24,.33,1.75,.33,4.43,0,.57-.2,.85-.53,.85-.57,0-.61-.77-1.18-2.15-.85-2.15-1.71-3.33-3.62-3.33-2.4,0-3.9,1.62-3.9,4.18,0,2.15,1.22,3.33,3.78,4.67,4.35,2.27,6.78,4.35,6.78,8.94s-3.29,8.25-7.84,8.25c-3.58,0-6.01-1.18-6.01-3.49,0-.93,.08-1.79,.08-2.56,0-.61-.04-.98-.04-1.06,0-.85,.24-1.26,.61-1.26,.73,0,.53,1.3,.98,2.84,.81,2.72,2.8,4.35,4.87,4.35,2.44,0,4.39-2.07,4.39-4.87,0-2.48-1.54-4.39-4.63-6.13-3.29-1.87-5.89-3.09-5.89-7.84Zm-12.51,.45c-.08-.24-.16-.37-.24-.37s-.2,.12-.24,.32l-1.91,7.19c-.04,.2-.04,.37-.04,.41,0,.12,.12,.24,.28,.24h4.06c.16,0,.37-.16,.37-.33,0-.12-.04-.24-.08-.41l-2.19-7.07Zm1.99-5.61l6.13,19.34c.57,1.87,.93,2.97,1.99,3.66,.77,.53,1.5,.41,1.5,.89,0,.45-.24,.57-.85,.57-.69,0-1.79-.24-3.41-.24-2.28,0-3.66,.2-4.18,.2-.49,0-.69-.12-.69-.49s.33-.65,.81-.65c1.34,0,1.67-.24,1.67-.97,0-.37-.12-.97-.37-1.83l-1.58-5.2c-.08-.28-.28-.33-.61-.33h-5.04c-.16,0-.41,.16-.45,.37l-.97,3.62c-.41,1.58-.61,2.64-.61,3.13,0,.81,.33,.97,1.06,1.1,1.1,.16,1.62,.28,1.62,.89,0,.37-.24,.49-.69,.49-.57,0-1.79-.24-3.53-.24-1.18,0-2.11,.2-2.68,.2-.49,0-.73-.2-.73-.53,0-.85,1.22-.32,2.03-.93,.73-.53,1.02-1.54,1.46-3.01l6.46-20.96c.2-.61,.24-.97,.69-.97,.57,0,.61,.77,.97,1.91Zm-8.54-1.75l-.24,5.36c-.04,.89-.16,1.14-.57,1.14-.73,0-.69-1.14-1.18-2.72-.73-1.75-1.91-1.99-4.39-1.99h-.65c-.32,0-.53,.37-.53,.65v19.91c0,1.71,.04,2.07,1.1,2.44,.93,.32,1.79-.08,1.79,.81,0,.32-.28,.57-.85,.57-.85,0-2.15-.28-3.86-.28s-3.01,.28-3.86,.28c-.57,0-.85-.24-.85-.65,0-.81,.89-.45,1.79-.73,1.06-.33,1.1-.69,1.1-2.44v-19.78c0-.33-.2-.77-.53-.77h-1.14c-1.67,0-2.64,.65-3.66,1.95-.97,1.62-1.34,2.6-1.99,2.6-.28,0-.45-.04-.45-.57,0-.04,.08-.37,.16-.69l1.02-4.14c.28-1.22,.28-2.07,.81-2.07,.49,0,.45,1.34,.93,1.38,.28,.28,.93,.37,1.91,.37,.77,0,1.75-.04,2.92-.04h5c1.34,0,2.4,.08,3.17,.08,.61,0,1.06-.04,1.3-.2,.73-.45,.89-1.62,1.3-1.62,.33,0,.45,.49,.45,.73v.45Zm-25.13,13.04c.85,.61,1.22,1.5,1.67,2.56l2.36,5.61c.93,2.19,1.38,3.41,1.91,3.62,.89,.37,1.71,.33,1.71,.93,0,.37-.2,.41-.69,.41-.69,0-1.54-.12-2.48-.12-.61,0-1.18,.12-1.79,.12-.81,0-.89-.45-1.26-1.34l-3.66-9.22c-.57-1.42-1.02-1.83-2.28-1.83h-.41c-.33,0-.53,.24-.53,.57v8c0,1.58,.04,2.56,1.79,2.56,.65,0,.89,.2,.89,.69,0,.32-.33,.57-.81,.57-.41,0-1.58-.24-3.7-.24s-3.37,.24-3.86,.24c-.57,0-.85-.24-.85-.65,0-.77,.81-.49,1.58-.69,1.3-.33,1.3-.73,1.3-2.48v-18.61c0-1.3-.08-1.62-.89-1.87-1.06-.28-1.91,.08-1.91-.73,0-.53,.37-.57,1.1-.57,.33,0,1.26,.16,2.68,.16,2.03,0,3.98-.24,5.81-.24,4.35,0,6.66,2.52,6.66,6.3,0,3.25-1.67,5.65-4.35,6.26Zm-5.44-1.46c0,.85,.49,.93,1.87,.93,2.76,0,4.22-1.79,4.22-5.16s-1.42-5.52-4.06-5.52c-1.87,0-2.03,.69-2.03,2.03v7.72Zm-9.32-9.63v3.49c0,.69-.08,1.02-.45,1.02-.73,0-.53-1.71-1.99-3.05-1.1-1.02-2.72-1.54-4.96-1.54s-2.27,.57-2.27,2.48v6.7c0,.69,0,.81,.73,.81h1.83c1.67,0,3.05-.37,3.41-.73,1.1-1.06,.57-2.48,1.42-2.48,.37,0,.49,.16,.49,.57,0,1.02-.2,2.4-.2,4.02,0,1.91,.12,3.09,.12,3.45,0,.49-.2,.73-.49,.73-.69,0-.53-1.26-1.38-2.84-.65-1.22-1.71-1.34-3.41-1.34h-1.79c-.57,0-.73,.16-.73,.73v8.37c0,2.23,.53,2.6,2.92,2.6,2.52,0,3.86-.33,5.12-2.32,.97-1.5,1.3-2.8,1.95-2.8,.16,0,.41,.24,.41,.37,0,0-.04,.28-.08,.73l-.45,3.94c-.12,1.26-.08,1.42-1.26,1.42-1.67,0-5.16-.33-10.36-.33-2.4,0-3.66,.2-3.98,.2-.61,0-.89-.2-.89-.65,0-.73,.73-.49,1.75-.65,1.18-.16,1.22-.93,1.22-2.52v-18.61c0-1.22,0-1.62-.77-1.87-.89-.28-1.75,.08-1.75-.73,0-.37,.24-.57,.69-.57,.32,0,2.32,.16,6.05,.16,4.75,0,7.43-.16,7.96-.16,1.1,0,1.14,.37,1.14,1.22v.16Zm-30.27,11.21c-.33,0-.53,.2-.53,.53v8.33c0,2.07,.85,3.05,3.29,3.05,3.21,0,5.2-2.23,5.2-6.17,0-3.45-1.87-5.73-5.44-5.73h-2.52Zm6.7-1.02c3.41,.69,5.32,3.17,5.32,6.95,0,4.35-3.01,7.43-7.6,7.43-2.93,0-5.32-.61-7.31-.61-1.5,0-2.52,.24-3.05,.24-.49,0-.77-.24-.77-.65,0-.45,.28-.61,.97-.61,1.22,0,1.58-.65,1.58-1.75,0-.12,.04-.37,.04-.81v-18.61c0-1.1-.37-1.58-1.1-1.58-.53,0-1.02,.2-1.42,.2-.32,0-.49-.2-.49-.57,0-.81,2.56-1.26,7.6-1.26,6.78,0,10.2,1.87,10.2,6.26,0,2.68-1.26,4.35-3.98,5.36Zm-7.23-1.54c0,1.18,.04,1.26,1.26,1.26h.53c3.49,0,5.52-1.75,5.52-4.83,0-3.33-1.75-5.16-4.96-5.16-2.07,0-2.36,.49-2.36,1.95v6.78Zm-11.08-6.87v18.61c0,1.71,.04,2.11,1.1,2.44,.93,.28,1.79-.08,1.79,.81,0,.32-.28,.57-.85,.57-.49,0-1.75-.24-3.86-.24s-3.37,.24-3.86,.24c-.57,0-.85-.24-.85-.65,0-.77,.81-.49,1.58-.69,1.3-.33,1.3-.73,1.3-2.48v-18.61c0-1.3-.08-1.62-.89-1.87-1.06-.28-1.91,.08-1.91-.73,0-.33,.2-.57,.61-.57s1.71,.33,4.02,.33,3.58-.33,4.02-.33c.37,0,.61,.24,.61,.57,0,.73-.73,.49-1.75,.69-1.02,.2-1.06,.61-1.06,1.91Zm-16.76,0v18.61c0,1.75,.93,2.64,2.64,2.64s3.05-.73,4.18-2.23c1.22-1.62,1.67-2.72,2.11-2.72,.16,0,.37,.2,.37,.32,0,.04,0,.33-.04,.73l-.41,3.82c-.04,.37-.08,.57-.08,.69,0,.45-.28,.69-.81,.69-1.71,0-5-.37-9.79-.37-2.11,0-3.37,.24-3.86,.24-.57,0-.85-.24-.85-.65,0-.77,.81-.49,1.58-.69,1.3-.33,1.3-.73,1.3-2.48v-18.61c0-1.22-.04-1.62-.81-1.87-.97-.33-1.75,.08-1.75-.73,0-.33,.2-.57,.53-.57,.41,0,1.54,.33,3.74,.33,2.44,0,3.74-.33,4.14-.33,.37,0,.61,.24,.61,.57,0,.73-.73,.49-1.75,.69-1.02,.2-1.06,.61-1.06,1.91Zm272.4,200.23h3.67c.73,0,1.07,.09,1.07,.47,0,.77-1.79,.56-3.2,2.09-1.07,1.15-1.62,2.86-1.62,5.21s.6,2.39,2.61,2.39h7.05c.73,0,.85,0,.85-.77v-1.92c0-1.75-.38-3.2-.77-3.59-1.11-1.15-2.61-.6-2.61-1.5,0-.38,.17-.51,.6-.51,1.07,0,2.52,.21,4.23,.21,2.01,0,3.25-.13,3.63-.13,.51,0,.77,.21,.77,.51,0,.73-1.32,.56-2.99,1.45-1.28,.68-1.41,1.79-1.41,3.59v1.88c0,.6,.17,.77,.77,.77h8.8c2.35,0,2.73-.56,2.73-3.08,0-2.65-.34-4.06-2.44-5.38-1.58-1.03-2.95-1.37-2.95-2.05,0-.17,.26-.43,.38-.43,0,0,.3,.04,.77,.09l4.14,.47c1.32,.13,1.5,.09,1.5,1.32,0,1.75-.34,5.43-.34,10.9,0,2.52,.21,3.85,.21,4.19,0,.64-.21,.94-.68,.94-.77,0-.51-.77-.68-1.84-.17-1.24-.98-1.28-2.65-1.28h-19.57c-1.28,0-1.71,0-1.97,.81-.3,.94,.09,1.84-.77,1.84-.38,0-.6-.26-.6-.73,0-.34,.17-2.44,.17-6.37,0-5-.17-7.82-.17-8.37,0-1.15,.38-1.2,1.28-1.2h.17Zm1.88,29.9h19.57c1.84,0,2.78-.98,2.78-2.78s-.77-3.2-2.35-4.4c-1.71-1.28-2.86-1.75-2.86-2.22,0-.17,.21-.38,.34-.38,.04,0,.34,0,.77,.04l4.02,.43c.38,.04,.6,.09,.73,.09,.47,0,.73,.3,.73,.85,0,1.79-.38,5.26-.38,10.3,0,2.22,.26,3.55,.26,4.06,0,.6-.26,.9-.68,.9-.81,0-.51-.85-.73-1.67-.34-1.37-.77-1.37-2.61-1.37h-19.57c-1.28,0-1.71,.04-1.97,.85-.34,1.03,.09,1.84-.77,1.84-.34,0-.6-.21-.6-.56,0-.43,.34-1.62,.34-3.93,0-2.56-.34-3.93-.34-4.36,0-.38,.26-.64,.6-.64,.77,0,.51,.77,.73,1.84,.21,1.07,.64,1.11,2.01,1.11Zm0,13.77h19.57c1.79,0,2.22-.04,2.56-1.15,.3-.98-.09-1.88,.85-1.88,.34,0,.6,.3,.6,.9,0,.51-.26,1.84-.26,4.06s.26,3.55,.26,4.06c0,.6-.26,.9-.68,.9-.81,0-.51-.85-.73-1.67-.34-1.37-.77-1.37-2.61-1.37h-19.57c-1.37,0-1.71,.09-1.97,.94-.3,1.11,.09,2.01-.77,2.01-.34,0-.6-.21-.6-.64s.34-1.79,.34-4.23-.34-3.76-.34-4.23c0-.38,.26-.64,.6-.64,.77,0,.51,.77,.73,1.84,.21,1.07,.64,1.11,2.01,1.11Zm0,28.4h7.78c.38,0,.56-.17,.56-.56v-9.7c0-.34-.26-.51-.6-.51h-7.73c-1.37,0-1.71,.04-1.97,.9-.3,1.11,.09,2.01-.77,2.01-.34,0-.6-.21-.6-.64s.34-1.79,.34-4.23-.34-3.76-.34-4.23c0-.38,.26-.64,.6-.64,.77,0,.51,.77,.73,1.84s.64,1.11,2.01,1.11h19.57c1.79,0,2.22,0,2.56-1.11,.3-.98-.09-1.92,.85-1.92,.34,0,.6,.34,.6,.94,0,.51-.26,1.79-.26,4.02s.26,3.55,.26,4.06c0,.6-.26,.94-.68,.94-.81,0-.51-.85-.73-1.67-.34-1.37-.77-1.37-2.61-1.37h-9.14c-.34,0-.6,.17-.6,.51v9.7c0,.34,.26,.56,.6,.56h9.14c1.79,0,2.22-.04,2.56-1.15,.3-.98-.09-1.88,.85-1.88,.34,0,.6,.3,.6,.9,0,.51-.26,1.84-.26,4.06s.26,3.55,.26,4.06c0,.6-.26,.9-.68,.9-.81,0-.51-.85-.73-1.67-.34-1.37-.77-1.37-2.61-1.37h-19.57c-1.37,0-1.71,.09-1.97,.94-.3,1.11,.09,2.01-.77,2.01-.34,0-.6-.21-.6-.64s.34-1.79,.34-4.23-.34-3.76-.34-4.23c0-.38,.26-.64,.6-.64,.77,0,.51,.77,.73,1.84s.64,1.11,2.01,1.11Zm10.08,31.53c-7.95,0-14.19-5.73-14.19-12.86,0-3.12,.98-5.81,1.58-6.32,.3-.3,1.88-.56,4.4-.56,.47,0,.77,.13,.77,.34,0,.38-.64,.77-1.71,1.41-2.52,1.54-3.89,3.08-3.89,5.3,0,4.61,5.26,8.29,13.25,8.29,7.39,0,12.73-3.67,12.73-7.9,0-2.65-1.45-4.36-4.4-5.68-1.54-.68-2.44-.98-2.44-1.5,0-.26,.3-.47,.9-.47,.34,0,1.58,.13,3.63,.13s3.67,3.03,3.67,7.35c0,7.18-6.28,12.48-14.31,12.48Zm-12.49,20.56l3.67,.13c.73,.03,1.06,.12,1.05,.51-.03,.77-1.81,.49-3.28,1.98-1.11,1.12-1.72,2.8-1.8,5.15-.08,2.26,.51,2.41,2.52,2.48l7.05,.25c.73,.03,.85,.03,.88-.74l.07-1.92c.06-1.75-.27-3.22-.64-3.61-1.07-1.19-2.58-.69-2.55-1.59,.01-.38,.19-.51,.62-.49,1.07,.04,2.51,.3,4.22,.36,2.01,.07,3.25-.01,3.63,0,.51,.02,.76,.24,.75,.54-.03,.73-1.34,.51-3.04,1.35-1.3,.64-1.47,1.74-1.53,3.54l-.07,1.88c-.02,.6,.14,.77,.74,.8l8.8,.31c2.35,.08,2.75-.46,2.84-2.98,.09-2.65-.2-4.07-2.25-5.47-1.54-1.08-2.9-1.47-2.87-2.15,0-.17,.27-.42,.4-.41,0,0,.3,.05,.77,.11l4.13,.61c1.32,.17,1.49,.14,1.45,1.38-.06,1.75-.53,5.41-.72,10.88-.09,2.52,.08,3.85,.07,4.19-.02,.64-.25,.93-.72,.92-.77-.03-.49-.79-.62-1.86-.13-1.24-.94-1.32-2.6-1.37l-19.56-.68c-1.28-.04-1.71-.06-1.99,.74-.33,.93,.02,1.84-.83,1.81-.38-.01-.59-.28-.57-.75,.01-.34,.26-2.43,.39-6.36,.17-5,.1-7.82,.12-8.38,.04-1.15,.43-1.18,1.32-1.15h.17Zm7.31,44.9l-16.47-11.11c-.74-.5-1.23-.62-1.64-.02-.36,.53-.3,1.14-.59,1.56-.14,.21-.48,.25-.79,.03-.92-.62,.44-4.09,4.04-9.43,4.54-6.73,12.13-7.74,18.97-3.13,6.91,4.66,8.59,11.56,3.83,18.61-1.24,1.84-2.62,3.13-3.46,4.37-.74,1.1-1.16,2.26-1.76,3.14-.33,.5-.71,.6-1.07,.36-.67-.45,.05-.99,.33-1.79,.48-1.32,.13-1.56-1.4-2.59Zm1.12-3.88c2.44,1.65,3.65,1.84,5.09-.28,3.06-4.53,1.07-10.15-5.3-14.45-5.99-4.04-12.29-4.01-15.23,.34-1.65,2.44-1.2,3.16,.18,4.09l15.27,10.3Zm-45.67,1.25v19.57c0,1.84,.98,2.78,2.78,2.78s3.2-.77,4.4-2.35c1.28-1.71,1.75-2.86,2.22-2.86,.17,0,.38,.21,.38,.34,0,.04,0,.34-.04,.77l-.43,4.02c-.04,.38-.09,.6-.09,.73,0,.47-.3,.73-.85,.73-1.79,0-5.26-.38-10.3-.38-2.22,0-3.55,.26-4.06,.26-.6,0-.9-.26-.9-.68,0-.81,.85-.51,1.67-.73,1.37-.34,1.37-.77,1.37-2.61v-19.57c0-1.28-.04-1.71-.85-1.97-1.03-.34-1.84,.09-1.84-.77,0-.34,.21-.6,.56-.6,.43,0,1.62,.34,3.93,.34,2.56,0,3.93-.34,4.36-.34,.38,0,.64,.26,.64,.6,0,.77-.77,.51-1.84,.73-1.07,.21-1.11,.64-1.11,2.01Zm-20.95,3.8c-.09-.26-.17-.38-.26-.38s-.21,.13-.26,.34l-2.01,7.56c-.04,.21-.04,.38-.04,.43,0,.13,.13,.26,.3,.26h4.27c.17,0,.38-.17,.38-.34,0-.13-.04-.26-.09-.43l-2.31-7.43Zm2.09-5.9l6.45,20.34c.6,1.97,.98,3.12,2.09,3.85,.81,.56,1.58,.43,1.58,.94,0,.47-.26,.6-.9,.6-.73,0-1.88-.26-3.59-.26-2.39,0-3.85,.21-4.4,.21-.51,0-.73-.13-.73-.51s.34-.68,.85-.68c1.41,0,1.75-.26,1.75-1.03,0-.38-.13-1.03-.38-1.92l-1.67-5.47c-.09-.3-.3-.34-.64-.34h-5.3c-.17,0-.43,.17-.47,.38l-1.03,3.8c-.43,1.67-.64,2.78-.64,3.29,0,.85,.34,1.03,1.11,1.15,1.15,.17,1.71,.3,1.71,.94,0,.38-.26,.51-.73,.51-.6,0-1.88-.26-3.72-.26-1.24,0-2.22,.21-2.82,.21-.51,0-.77-.21-.77-.56,0-.9,1.28-.34,2.14-.98,.77-.56,1.07-1.62,1.54-3.16l6.79-22.05c.21-.64,.26-1.03,.73-1.03,.6,0,.64,.81,1.03,2.01Zm-20.5,11.88c.9,.64,1.28,1.58,1.75,2.69l2.48,5.9c.98,2.31,1.45,3.59,2.01,3.8,.94,.38,1.79,.34,1.79,.98,0,.38-.21,.43-.73,.43-.73,0-1.62-.13-2.61-.13-.64,0-1.24,.13-1.88,.13-.85,0-.94-.47-1.32-1.41l-3.85-9.7c-.6-1.5-1.07-1.92-2.39-1.92h-.43c-.34,0-.56,.26-.56,.6v8.42c0,1.67,.04,2.69,1.88,2.69,.68,0,.94,.21,.94,.73,0,.34-.34,.6-.85,.6-.43,0-1.67-.26-3.89-.26s-3.55,.26-4.06,.26c-.6,0-.9-.26-.9-.68,0-.81,.85-.51,1.67-.73,1.37-.34,1.37-.77,1.37-2.61v-19.57c0-1.37-.09-1.71-.94-1.97-1.11-.3-2.01,.09-2.01-.77,0-.56,.38-.6,1.15-.6,.34,0,1.32,.17,2.82,.17,2.14,0,4.19-.26,6.11-.26,4.57,0,7.01,2.65,7.01,6.62,0,3.42-1.75,5.94-4.57,6.58Zm-5.73-1.54c0,.9,.51,.98,1.97,.98,2.91,0,4.44-1.88,4.44-5.43s-1.5-5.81-4.27-5.81c-1.97,0-2.14,.73-2.14,2.14v8.12Zm-10.15-12.18l-.26,5.64c-.04,.94-.17,1.2-.6,1.2-.77,0-.73-1.2-1.24-2.86-.77-1.84-2.01-2.09-4.61-2.09h-.68c-.34,0-.56,.38-.56,.68v20.94c0,1.79,.04,2.18,1.15,2.56,.98,.34,1.88-.09,1.88,.85,0,.34-.3,.6-.9,.6-.9,0-2.26-.3-4.06-.3s-3.16,.3-4.06,.3c-.6,0-.9-.26-.9-.68,0-.85,.94-.47,1.88-.77,1.11-.34,1.15-.73,1.15-2.56v-20.81c0-.34-.21-.81-.56-.81h-1.2c-1.75,0-2.78,.68-3.85,2.05-1.03,1.71-1.41,2.73-2.09,2.73-.3,0-.47-.04-.47-.6,0-.04,.09-.38,.17-.73l1.07-4.36c.3-1.28,.3-2.18,.85-2.18,.51,0,.47,1.41,.98,1.45,.3,.3,.98,.38,2.01,.38,.81,0,1.84-.04,3.08-.04h5.26c1.41,0,2.52,.09,3.33,.09,.64,0,1.11-.04,1.37-.21,.77-.47,.94-1.71,1.37-1.71,.34,0,.47,.51,.47,.77v.47Zm-38.22,7.26c0-4.4,2.91-7.43,7.56-7.43,2.39,0,4.49,.81,4.87,1.32,.21,.26,.34,1.84,.34,4.66,0,.6-.21,.9-.56,.9-.6,0-.64-.81-1.24-2.26-.9-2.26-1.79-3.5-3.8-3.5-2.52,0-4.1,1.71-4.1,4.4,0,2.26,1.28,3.5,3.97,4.91,4.57,2.39,7.14,4.57,7.14,9.4s-3.46,8.67-8.25,8.67c-3.76,0-6.32-1.24-6.32-3.67,0-.98,.09-1.88,.09-2.69,0-.64-.04-1.03-.04-1.11,0-.9,.26-1.32,.64-1.32,.77,0,.56,1.37,1.03,2.99,.85,2.86,2.95,4.57,5.13,4.57,2.56,0,4.61-2.18,4.61-5.13,0-2.61-1.62-4.61-4.87-6.45-3.46-1.97-6.2-3.25-6.2-8.25Zm-20.6-3.33v14.91c0,5.21,1.03,7.95,5.55,7.95,2.26,0,3.97-.81,5-2.26,1.03-1.54,1.07-3.59,1.07-6.54v-10.34c0-3.25-.04-4.91-.77-5.51-.77-.6-2.31,0-2.31-.94,0-.38,.26-.6,.73-.6,.51,0,1.45,.13,2.91,.13,1.54,0,2.52-.13,2.95-.13,.6,0,.9,.17,.9,.6,0,.51-.38,.6-1.24,.6-1.79,0-1.88,1.45-1.88,5.73v10.51c0,2.95-.04,5.17-1.15,7.09-1.2,2.05-3.59,3.2-6.88,3.2-3.63,0-6.07-.94-7.52-3.08-1.15-1.67-1.24-3.72-1.24-6.32v-15c0-1.41-.04-1.71-.94-1.97-1.11-.34-1.97,.09-1.97-.77,0-.34,.26-.6,.64-.6,.43,0,1.79,.34,4.23,.34s3.8-.34,4.23-.34,.64,.26,.64,.6c0,.9-.98,.47-2.01,.77-.85,.26-.94,.6-.94,1.97Zm-19.45,3.8c-.09-.26-.17-.38-.26-.38s-.21,.13-.26,.34l-2.01,7.56c-.04,.21-.04,.38-.04,.43,0,.13,.13,.26,.3,.26h4.27c.17,0,.38-.17,.38-.34,0-.13-.04-.26-.09-.43l-2.31-7.43Zm2.09-5.9l6.45,20.34c.6,1.97,.98,3.12,2.09,3.85,.81,.56,1.58,.43,1.58,.94,0,.47-.26,.6-.9,.6-.73,0-1.88-.26-3.59-.26-2.39,0-3.85,.21-4.4,.21-.51,0-.73-.13-.73-.51s.34-.68,.85-.68c1.41,0,1.75-.26,1.75-1.03,0-.38-.13-1.03-.38-1.92l-1.67-5.47c-.09-.3-.3-.34-.64-.34h-5.3c-.17,0-.43,.17-.47,.38l-1.03,3.8c-.43,1.67-.64,2.78-.64,3.29,0,.85,.34,1.03,1.11,1.15,1.15,.17,1.71,.3,1.71,.94,0,.38-.26,.51-.73,.51-.6,0-1.88-.26-3.72-.26-1.24,0-2.22,.21-2.82,.21-.51,0-.77-.21-.77-.56,0-.9,1.28-.34,2.14-.98,.77-.56,1.07-1.62,1.54-3.16l6.79-22.05c.21-.64,.26-1.03,.73-1.03,.6,0,.64,.81,1.03,2.01Zm-57.27,21.66v-19.87c0-.9-.17-1.37-.9-1.37-.64,0-1.11,.38-1.62,.38-.26,0-.47-.26-.47-.64,0-1.11,3.63-1.92,10.08-1.92,8.12,0,13.2,5.73,13.2,13.97s-4.79,13.59-13.29,13.59c-2.22,0-4.06-.43-5.55-.43-1.32,0-2.52,.3-3.59,.3-.6,0-.9-.26-.9-.68,0-.81,.85-.51,1.67-.73,1.37-.34,1.37-.77,1.37-2.61Zm3.85-1.24c0,2.95,.51,4.06,3.08,4.06,5.47,0,9.02-4.79,9.02-12.48,0-7.22-3.55-12.43-8.8-12.43-2.95,0-3.29,.77-3.29,2.44v18.42Zm-20.95-14.53c-.09-.26-.17-.38-.26-.38s-.21,.13-.26,.34l-2.01,7.56c-.04,.21-.04,.38-.04,.43,0,.13,.13,.26,.3,.26h4.27c.17,0,.38-.17,.38-.34,0-.13-.04-.26-.09-.43l-2.31-7.43Zm2.09-5.9l6.45,20.34c.6,1.97,.98,3.12,2.09,3.85,.81,.56,1.58,.43,1.58,.94,0,.47-.26,.6-.9,.6-.73,0-1.88-.26-3.59-.26-2.39,0-3.85,.21-4.4,.21-.51,0-.73-.13-.73-.51s.34-.68,.85-.68c1.41,0,1.75-.26,1.75-1.03,0-.38-.13-1.03-.38-1.92l-1.67-5.47c-.09-.3-.3-.34-.64-.34h-5.3c-.17,0-.43,.17-.47,.38l-1.03,3.8c-.43,1.67-.64,2.78-.64,3.29,0,.85,.34,1.03,1.11,1.15,1.15,.17,1.71,.3,1.71,.94,0,.38-.26,.51-.73,.51-.6,0-1.88-.26-3.72-.26-1.24,0-2.22,.21-2.82,.21-.51,0-.77-.21-.77-.56,0-.9,1.28-.34,2.14-.98,.77-.56,1.07-1.62,1.54-3.16l6.79-22.05c.21-.64,.26-1.03,.73-1.03,.6,0,.64,.81,1.03,2.01Zm-39.56,13.89l8.71-17.86c.39-.81,.45-1.3-.21-1.62-.58-.28-1.17-.14-1.63-.37-.23-.11-.31-.44-.14-.78,.49-1,4.11-.14,9.91,2.69,7.3,3.56,9.36,10.93,5.74,18.34-3.65,7.49-10.26,10.11-17.9,6.39-2-.97-3.46-2.16-4.8-2.82-1.19-.58-2.4-.84-3.36-1.3-.54-.26-.69-.62-.51-1.01,.36-.73,.99-.09,1.82,.08,1.38,.29,1.57-.09,2.37-1.74Zm4,.57c-1.29,2.65-1.32,3.87,.99,5,4.92,2.4,10.2-.35,13.57-7.26,3.17-6.49,2.26-12.73-2.46-15.03-2.65-1.29-3.29-.75-4.02,.75l-8.07,16.55Zm-2.2-26.61l-16.59,10.37c-1.52,.95-1.86,1.21-1.56,2.34,.27,.99,1.07,1.55,.27,2.05-.29,.18-.67,.06-.98-.44-.27-.44-.76-1.69-1.93-3.58-1.18-1.88-2.1-2.87-2.37-3.31-.32-.51-.26-.9,.1-1.12,.69-.43,.89,.45,1.5,1.03,1.01,.98,1.38,.75,2.93-.22l16.59-10.37c1.16-.72,1.4-.98,1.17-1.84-.34-1.1-1.14-1.66-.41-2.11,.29-.18,.62-.14,.85,.23,.23,.36,.66,1.7,1.95,3.77,1.29,2.07,2.28,3.01,2.53,3.41,.2,.33,.12,.68-.17,.86-.65,.41-.84-.38-1.59-1.17-.75-.79-1.13-.6-2.29,.12Zm-8.97-21.1c4.32-.84,7.85,1.43,8.74,6.01,.46,2.35,.06,4.56-.37,5.03-.21,.26-1.74,.69-4.51,1.22-.59,.11-.92-.04-.99-.37-.11-.59,.67-.78,1.99-1.65,2.05-1.31,3.1-2.43,2.71-4.4-.48-2.47-2.46-3.7-5.1-3.19-2.22,.43-3.19,1.93-4.07,4.84-1.48,4.94-3.13,7.88-7.87,8.8-4.91,.95-9.17-1.74-10.09-6.44-.72-3.69,0-6.44,2.4-6.91,.96-.19,1.86-.27,2.66-.43,.63-.12,1-.24,1.08-.25,.88-.17,1.35,0,1.42,.38,.15,.75-1.24,.81-2.74,1.58-2.65,1.39-3.93,3.77-3.51,5.91,.49,2.52,3.02,4.11,5.91,3.55,2.56-.5,4.22-2.47,5.4-6.01,1.27-3.77,2.01-6.7,6.91-7.66Zm-5.44-11.12c-.64,.9-1.58,1.28-2.69,1.75l-5.9,2.48c-2.31,.98-3.59,1.45-3.8,2.01-.38,.94-.34,1.79-.98,1.79-.38,0-.43-.21-.43-.73,0-.73,.13-1.62,.13-2.61,0-.64-.13-1.24-.13-1.88,0-.85,.47-.94,1.41-1.32l9.7-3.85c1.5-.6,1.92-1.07,1.92-2.39v-.43c0-.34-.26-.56-.6-.56h-8.42c-1.67,0-2.69,.04-2.69,1.88,0,.68-.21,.94-.73,.94-.34,0-.6-.34-.6-.85,0-.43,.26-1.67,.26-3.89s-.26-3.55-.26-4.06c0-.6,.26-.9,.68-.9,.81,0,.51,.85,.73,1.67,.34,1.37,.77,1.37,2.61,1.37h19.57c1.37,0,1.71-.09,1.97-.94,.3-1.11-.09-2.01,.77-2.01,.56,0,.6,.38,.6,1.15,0,.34-.17,1.32-.17,2.82,0,2.14,.26,4.19,.26,6.11,0,4.57-2.65,7.01-6.62,7.01-3.42,0-5.94-1.75-6.58-4.57Zm1.54-5.73c-.9,0-.98,.51-.98,1.97,0,2.91,1.88,4.44,5.43,4.44s5.81-1.5,5.81-4.27c0-1.97-.73-2.14-2.14-2.14h-8.12Zm10.13-11.9h-3.67c-.73,0-1.07-.09-1.07-.47,0-.77,1.79-.56,3.2-2.09,1.07-1.15,1.62-2.86,1.62-5.21s-.6-2.39-2.61-2.39h-7.05c-.73,0-.85,0-.85,.77v1.92c0,1.75,.38,3.2,.77,3.59,1.11,1.15,2.61,.6,2.61,1.5,0,.38-.17,.51-.6,.51-1.07,0-2.52-.21-4.23-.21-2.01,0-3.25,.13-3.63,.13-.51,0-.77-.21-.77-.51,0-.73,1.32-.56,2.99-1.45,1.28-.68,1.41-1.79,1.41-3.59v-1.88c0-.6-.17-.77-.77-.77h-8.8c-2.35,0-2.73,.56-2.73,3.08,0,2.65,.34,4.06,2.44,5.38,1.58,1.03,2.95,1.37,2.95,2.05,0,.17-.26,.43-.38,.43,0,0-.3-.04-.77-.09l-4.14-.47c-1.32-.13-1.5-.09-1.5-1.32,0-1.75,.34-5.43,.34-10.9,0-2.52-.21-3.85-.21-4.19,0-.64,.21-.94,.68-.94,.77,0,.51,.77,.68,1.84,.17,1.24,.98,1.28,2.65,1.28h19.57c1.28,0,1.71,0,1.97-.81,.3-.94-.09-1.84,.77-1.84,.38,0,.6,.26,.6,.73,0,.34-.17,2.44-.17,6.37,0,5,.17,7.82,.17,8.37,0,1.15-.38,1.2-1.28,1.2h-.17Zm-2.18-21.73l-22.86-7.48c-.51-.17-.77-.34-.77-.56,0-.38,.9-.56,1.97-.94l20-6.88c2.14-.73,3.46-1.11,3.89-1.97,.3-.6,.04-1.71,.68-1.71,.38,0,.64,.21,.64,.68,0,.26-.26,1.97-.26,5.34,0,1.32,.21,2.31,.21,2.78,0,.43-.13,.6-.51,.6-1.2,0-.13-2.18-1.84-2.18-.43,0-1.03,.13-1.79,.38l-13.72,4.74c-.64,.21-.94,.34-.94,.51s.34,.34,.94,.51l12.48,3.67c1.32,.38,2.26,.56,2.78,.56,2.18,0,.94-2.52,2.18-2.52,.34,0,.6,.3,.6,.81,0,.43-.26,1.41-.26,2.99,0,1.75,.17,2.73,.17,2.95,0,.56-.17,.81-.56,.81-.85,0-.43-1.03-.77-1.71-.34-.68-1.11-1.03-2.26-1.41Zm.3-24.36h-19.57c-1.79,0-2.22,.04-2.56,1.15-.3,.98,.09,1.88-.85,1.88-.34,0-.6-.3-.6-.9,0-.51,.26-1.84,.26-4.06s-.26-3.55-.26-4.06c0-.6,.26-.9,.68-.9,.81,0,.51,.85,.73,1.67,.34,1.37,.77,1.37,2.61,1.37h19.57c1.37,0,1.71-.09,1.97-.94,.3-1.11-.09-2.01,.77-2.01,.34,0,.6,.21,.6,.64s-.34,1.79-.34,4.23,.34,3.76,.34,4.23c0,.38-.26,.64-.6,.64-.77,0-.51-.77-.73-1.84-.21-1.07-.64-1.11-2.01-1.11Zm3.34-33.05v5.47c0,.38-.04,.47-.43,.73l-18.59,11.45c-.04,.17,.17,.26,.43,.26h11.71c1.2,0,1.92-.04,2.18-.04,3.08,0,3.46-.13,3.46-2.48,0-.43,.26-.77,.6-.77,.38,0,.64,.43,.64,1.11,0,.77-.13,1.71-.13,2.95s.13,2.05,.13,2.65-.26,.94-.64,.94c-.47,0-.56-.17-.56-.73v-.43c0-1.5-1.37-1.62-4.49-1.62h-21.32c-.56,0-1.07-.3-1.07-.64,0-.3,.26-.56,.68-.81l22.9-14.06c.04-.17-.17-.26-.43-.26h-16.62c-3.2,0-4.14,.17-4.14,1.88,0,.26,.04,.51,.04,.77,0,.34-.26,.6-.68,.6-.38,0-.64-.38-.64-1.11,0-.77,.17-1.75,.17-2.95,0-1.07-.17-1.97-.17-2.73,0-.68,.26-1.03,.64-1.03,.47,0,.68,.21,.68,.81v.38c0,1.75,1.2,1.88,4.53,1.88h17.77c1.28,0,1.71-.04,1.97-.85,.3-1.03-.04-1.97,.77-1.97,.38,0,.6,.21,.6,.6Zm-3.33-20.13h-14.91c-5.21,0-7.95,1.03-7.95,5.55,0,2.26,.81,3.97,2.26,5,1.54,1.03,3.59,1.07,6.54,1.07h10.34c3.25,0,4.91-.04,5.51-.77,.6-.77,0-2.31,.94-2.31,.38,0,.6,.26,.6,.73,0,.51-.13,1.45-.13,2.91,0,1.54,.13,2.52,.13,2.95,0,.6-.17,.9-.6,.9-.51,0-.6-.38-.6-1.24,0-1.79-1.45-1.88-5.73-1.88h-10.51c-2.95,0-5.17-.04-7.09-1.15-2.05-1.2-3.2-3.59-3.2-6.88,0-3.63,.94-6.07,3.08-7.52,1.67-1.15,3.72-1.24,6.32-1.24h15c1.41,0,1.71-.04,1.97-.94,.34-1.11-.09-1.97,.77-1.97,.34,0,.6,.26,.6,.64,0,.43-.34,1.79-.34,4.23s.34,3.8,.34,4.23-.26,.64-.6,.64c-.9,0-.47-.98-.77-2.01-.26-.85-.6-.94-1.97-.94Zm174.86,1.78c-2.2,7.86,4.18,.16,6.61,.12-1.09-2.14-5.36-.83-6.61-.12Zm81.5,35.36c1.97,2.14-5.81-13.19-10.32-14.31-12.76-3.17-15.07,11.14-14.76,21.49,.09,3.06-2.37,4.7-4.23,5.01-6.59,1.1-11.84,6.56,2.02,1.23,6.83,0,1.14-3.28,3.93-9.54,2.06-4.62,12.56-9.41,12.56-9.36,0,.05,7.16,1.52,10.79,5.47Zm-61.64-19.33c1.41,5.81-7.54,5.31-6.67,11.69,.82,6.03,12.63,9.08,10.7,14.85-.31,.94-15.45-.26-10.19,3.62,5.65-2.35,12.24-.63,13.21,.4,.72-.43,1.46-.63,1.46-1.5,0-2.59-2.84-6.7-5.7-9.9-2.57-2.87,2.56-8.91,6.91-12.26,4.59-3.26-7.02-14.28-9.72-6.9Zm-18.78,4.85c-1.45,.75-1.07,7.3,6.17-1.16,.9-1.05,1.82-1.3,3.19-1.59,2.83-.61,6.05-5.64,3.21-8.68-.2-.32-2.28-1.15-2.2-.94,.04,.08-1.89-2.53-2.47-3.4l-.58,.14c3.61,2.78-.24,8.52-2.12,4.03-.28-.67-2.02,5.35-2.67,5.1l-4.33,4.04c3.71-.28,3,1.84,1.8,2.46Zm80.67,27.51c1.15-2.88,.99-4.84,.98-4.84,0,0-1.71,3.88-3.89,6.12-2.17,2.23-3.62,1.72-4.95,1.74-.73-.92-1.41-1.82-3.65-1.41-2.46,.45-3.66,1.11-5.52,2.89,0,0,4.18-3.52,6.53-1.46,.39,.34,.48,.65,.98,.87,.07,.16,.2,.37,.38,.67,3.44,.37,7.46-1.06,9.14-4.6Zm-79.33-23.43c-1.17,.55-2.53,.82-3.96,.82-4.72,0-8.55-3.29-8.55-7.35,0-.48,2.11-1.09,2.21-1.54l2.08-8.17s-.07-1.29,.05-2.22c.12-.94,.5-1.46,.5-1.46-8.76-3.45-4.32-12.79-3.29-14.23,.93-1.3-.14,6.09,3.02,7.19,1.83,.64,3.1,.58,3.94,.55,0,0,3.74-1.51,6.43-1.34,2.69,.18,5.89,2.67,6.16,2.31,8.41,.66,6.98-8.17,8.4-8.59,.78-.24,3.06,10.36-.31,11.73l12.92,6.38s12.84,1.46,26.78,6.12c4.2,1.4,10.8-.5,14.17,1.57,2.83,1.73,8.16,7.85,8.16,7.85,3.32,3.86,6.1,14.63,4.85,20.64-2.42,11.58-11.76,11.97-13.56,11.95-1.57,2.62-3.69,1.78-7.45,1.36-6.42-.2-11.18,0-18.31-.03-3.67,0-1.52-3.95-2.59-3.95h-40.75c-2.85,0-1.45-2.53-.72-5.12,.77-2.74,.07-4.29,2.7-5.37,1.89-.78,.91-.64,1.79-2.61,.61-1.36,.98-2.38-.47-5.18-1.45-2.8-2.48-3.53-2.71-5.05-.41-2.64,.2-7.27-1.41-6.28l-.05,.02Zm-11.79,51.85c-2.2,7.86,4.18,.16,6.61,.12-1.08-2.14-5.36-.83-6.61-.12Zm82.18,34.18c1.97,2.14-5.81-13.19-10.32-14.31-12.76-3.17-15.07,11.14-14.76,21.49,.09,3.06-2.37,4.7-4.23,5.01-6.59,1.1-11.84,6.56,2.02,1.23,6.83,0,1.14-3.28,3.93-9.54,2.06-4.62,12.56-9.41,12.56-9.36s7.16,1.52,10.79,5.47Zm-61.64-19.33c1.41,5.81-7.54,5.31-6.67,11.69,.82,6.03,12.63,9.08,10.7,14.85-.31,.94-15.45-.26-10.19,3.62,5.65-2.35,12.24-.63,13.21,.4,.72-.43,1.46-.63,1.46-1.5,0-2.59-2.84-6.7-5.7-9.9-2.57-2.87,2.56-8.91,6.91-12.26,4.59-3.26-7.02-14.28-9.72-6.9Zm-19.17,5.72c-1.45,.75-1.07,7.3,6.17-1.16,.9-1.05,1.82-1.3,3.19-1.59,2.83-.61,6.05-5.64,3.21-8.68-.2-.32-2.28-1.15-2.2-.94,.04,.08-1.89-2.53-2.47-3.4l-.58,.14c3.61,2.78-.24,8.52-2.12,4.03-.28-.67-2.02,5.35-2.67,5.1l-4.33,4.04c3.71-.28,3,1.84,1.8,2.46Zm80.67,27.51c1.15-2.88,.99-4.84,.98-4.84,0,0-1.71,3.88-3.89,6.12-2.17,2.23-3.62,1.72-4.95,1.75-.73-.92-1.41-1.82-3.65-1.41-2.46,.45-3.66,1.11-5.52,2.89,0,0,4.18-3.52,6.53-1.46,.39,.34,.48,.65,.98,.87,.07,.16,.2,.37,.38,.67,3.44,.37,7.46-1.06,9.14-4.6Zm-79.33-23.43c-1.17,.55-2.53,.82-3.96,.82-4.72,0-8.55-3.29-8.55-7.35,0-.48,2.11-1.09,2.21-1.54l2.08-8.17s-.07-1.29,.05-2.22c.12-.94,.5-1.46,.5-1.46-8.76-3.45-4.32-12.79-3.29-14.23,.93-1.3-.14,6.09,3.02,7.19,1.83,.64,3.1,.58,3.94,.55,0,0,3.74-1.51,6.43-1.34,2.69,.18,5.89,2.67,6.16,2.31,8.41,.66,6.98-8.17,8.4-8.59,.78-.24,3.06,10.36-.31,11.73l12.92,6.38s12.84,1.46,26.78,6.12c4.2,1.4,10.8-.5,14.17,1.57,2.83,1.73,8.16,7.85,8.16,7.85,3.32,3.86,6.1,14.63,4.85,20.64-2.42,11.58-11.76,11.97-13.56,11.95-1.57,2.62-3.69,1.78-7.45,1.36-5.23-.15-11.18,0-18.31-.03-3.67,0-1.52-3.95-2.59-3.95h-40.75c-2.85,0-1.45-2.53-.72-5.12,.77-2.74,.07-4.29,2.7-5.37,1.89-.78,.91-.64,1.79-2.61,.61-1.36,.98-2.38-.47-5.18-1.45-2.8-2.48-3.53-2.71-5.05-.41-2.64,.2-7.27-1.41-6.28l-.05,.02Zm-91.32-207.28h8.54c.64,0,1.15,.52,1.15,1.15v8.54c0,.64-.52,1.15-1.15,1.15l-1.13-1.78h-6.63s0-6.54,0-6.54l-1.94-1.38c0-.64,.52-1.15,1.15-1.15Zm-19.83,11.39l-3.01-1.03h-1.69v-3.99l-1.33-2.84c0-.36,.2-.68,.44-.71l5.58-1.75c.25-.03,.44,.24,.44,.6v9.01c0,.36-.2,.68-.44,.71Zm212.97,202.56v-122.99h-125.23v160.66h87.56c20.8,0,37.67-16.87,37.67-37.67Zm0-127.88V157.61h-125.23v149.52c5.74-1.96,25.21-5.34,41.8-6.89,4.26-6.3,8.48-14.71,5.98-25.15-2.09,.01-1.52,1.51-3.68,1.51-2.17,0-.81,.45-2.98,.45-1.08,0-1.41,.03-1.74,0-.32-.03-.64-.13-1.69-.36-2.11-.48-.88-2.34-2.99-2.82-2.11-.48-.7-.33-2.48-1.56-1.78-1.24-2.03,.71-3.81-.53-.88-.61-1.16-.79-1.36-1.04-.21-.25-.33-.57-.94-1.48-1.2-1.81-1.96-.22-3.16-2.02-1.2-1.81-1.68-1.49-2.1-3.61-.42-2.12-.23-4.22-.65-6.35-.42-2.12,.62-1.71,.99-3.84,.37-2.14-.75-1.06-.39-3.2,.37-2.14,1.97-.52,3.03-2.41,1.05-1.89-1.19-1.59-.14-3.48,1.05-1.89,2.14,.5,3.74-.96s-1.01-2.29,.6-3.74c1.61-1.46,3.58-8.77,2.91-10.83-.66-2.06,.78-1.48,1.17-3.61,.39-2.13,1.9-.78,2.29-2.91,.39-2.13-1.62-1.57-.51-3.43,1.11-1.86,2.73,.47,3.84-1.39,1.11-1.86-.65-1.07,1.03-2.44,1.68-1.37,.99-.33,2.66-1.71,1.68-1.37-.45-2.36,1.6-3.06,1.99-.69,.78-1.14,2.57-1.81-.67-2.26-.14-.56-.74-2.64-.61-2.08,2.08-1,1.48-3.08-.61-2.08-.32-.3-.93-2.38-.61-2.08-1.46-.96-1.03-3.08,.43-2.12,3.09-3.51,4.3-5.31,1.21-1.8,1.9-4.42-.68-4.94,1.21-1.8,.71-2.02,2.51-3.23,1.8-1.21,2.86,1.89,4.65,.68,1.8-1.21,.03-3.73,2.16-4.16,2.12-.43,1.99,2.6,4.11,2.17,2.12-.43,.93-.2,3.05,.23,2.12,.43,1.28,.92,3.4,1.35,2.12,.43,2.01-2.13,3.81-.92,1.8,1.21,1.35,.35,3.14,1.56,1.8,1.21-.66,2.25,.55,4.05,1.21,1.8,.84,1.01,2.06,2.81,1.21,1.8,3.19,.02,3.62,2.14,.43,2.12-.83,1.63-.4,3.76,.43,2.12,1.25,1.04,.65,3.12-.61,2.08,.13,.43-.47,2.51-.61,2.08,.4,5.4,2.45,6.11,2.05,.71,.78,1.26,2.46,2.63,1.68,1.37,.89,.45,2.57,1.82,1.68,1.37-.69,1.65,.42,3.51,1.11,1.86,1.88,.03,2.99,1.89,1.11,1.86-1.35,1.25-.96,3.38,.39,2.13,2.63,.64,3.02,2.77,.39,2.13,.57,1.11-.09,3.17-.66,2.06-1.32,.22-1.98,2.29-.66,2.06-.32,.55-.98,2.61-.64,1.98,1.02,1.09,.55,2.86,.26-.14,.63-.18,1.13,.03,1.99,.86-.56,3.41,1.43,4.27,1.99,.86,1.74-1.45,3.35,0,1.61,1.46,.97,.11,2.57,1.56,1.61,1.45,.19,1.14,1.24,3.03,1.05,1.89,1.06,.34,2.11,2.23,1.05,1.89,1.13,.92,1.49,3.06,.37,2.14-.9,1.09-.54,3.22,.37,2.14,2.05,1.52,1.64,3.64-.41,2.13-3.24,3.53-3.65,5.66-.41,2.13,.98,1.47-.19,3.3-1.16,1.83-1.55,.38-2.72,2.21-1.16,1.83-.59,.31-2.33,1.6-1.74,1.29,.04,1.97-1.7,3.26-1.74,1.29-.89,.7-2.98,1.26-2.09,.57-1.55-.98-3.64-.42-2.09,.57-.54,3.16-2.7,3.16-2.17,0-.81-1.29-2.98-1.29-2.17,0-.81,.78-2.98,.79-2.17,0-.81-.66-2.98-.66-2.17,0,.2-1.42-1.97-1.42-.45,0-1.1,.34-1.3,.5-2.14,10.02,1.41,18.42,5.44,24.66,20.03,1.12,32.03,3.57,46.2,7.32Zm-128.45-149.53h-122.96l-.02,149.88c5.14-1.94,19.99-4.7,19.99-4.7l5.79-55.23c-.57-.31-1.43-1.17-1.35-2.1,.08-.97,1.78-1.75,1.78-1.75l3.91-36.2c0-.26,.33-.42,.34-.43,.83-.25,6.24-1.46,6.44-1.42,1.29,.17,2.1,.38,2.88,.51,.46,.09,.55,.22,.59,.49,0,.05,.92,5.3,.94,5.24,1.38-.2,2.63-.35,3.68-.49,.05-.3,.6-6.87,.96-7.21,.16-.21,.47-.15,3.57-.4,.03-.71,.04-33.29,.03-34.16-1.13-.21-1.49-1.16-1.52-1.8-.03-.53,.47-1.88,1.87-1.88,.21,0,.79,.08,1.19,.45-.54-.37-1.89-.17-1.93,1.17-.01,.38,.45,1.3,1.31,1.3,.74,0,1.18-.56,1.26-.97-.04,1-.82,1.53-1.26,1.66,.07,.58,1.58,33.8,1.59,34,1.57-.1,3.86-.3,4.21-.28,.43,.03,1.65,.55,2.15,.66,.26,1.5,.5,3.3,.78,4.7,.67-.11,5.22-.49,6.3-.5,.19-1.46,.43-3.71,.55-4.5,.06-.32,.32-.37,.52-.37,.49,0,9.18,.7,9.65,.76,.34,.02,.44,.21,.49,.61,.12,.99,.25,2.89,.43,3.97,1.03,.13,5.64,.65,5.63,.64-.02,0,.31-2.51,.44-3.17,.28-.08,1.12-.41,1.79-.53,2.09,.45,4.4,1.01,6,1.39,.14,.06,2.18,.55,2.22,.79,0,0-1.44,2.82-.9,7.16l3.69,29.49s1.59,.54,1.7,1.68c.05,.56-.65,1.52-1.46,1.89l6.94,55.08s14.77,3.08,19.81,4.16V157.61Zm131.67,277.4c0,22.58-18.31,40.89-40.89,40.89h-176.12c-22.58,0-40.89-18.31-40.89-40.89l.05-280.62h257.84V435.01Zm-215.44-222.98l1.25,.09-.89-4.79-1.03-.24,.68,4.94Zm19.26-1.4l-.87-5.85-1.03-.28,.68,6.08,1.23,.04Zm-21.11-3.51c-2.03,.93-2.61,1.59-3.39,2.76-1.11,1.66-1.48,10.46-1.56,12.23-.08,2.02,.04,1.29-.14,3.27-.19,1.99-.35,4.15-.54,6.13-.19,1.99,.46,.14,.27,2.13-.19,1.99-.48,.9-.67,2.88-.19,1.99,1.12,.67,.93,2.65-.11,1.19,1.15,1.44,.75,2.63,0,1.01,1.72,.61,2.52,.74,7.16-.87,17.16-1.56,28.87-1.33,10.78,.05,24.33,1.39,28.83,2.32-.32-4.61-1.09-10.21-1.09-10.21l-3.61-1.56-.48-8.51c0-.64,.53-1.07,1.17-.96l2.2,.63c-.15-4.07-1.14-13.71-1.39-14.58-1.31-.29-4.12-1.05-5.03-1.22-.08,.39-.58,4.18-.85,6.25-.04,.27-.2,.45-.59,.39-1.8-.31-5.01-.82-6.94-1.1-.32-.08-.66-.22-.71-.48-.13-1.07-.53-6.45-.61-6.5-.08-.05-4.98-.56-7.81-.78-.11,1.26-.59,4.51-.81,6.24-.05,.31-.58,.62-.91,.62-2.63,.12-8.86,.19-9.73,.19-.4-5.67-5.24-6.88-6.49-6.81-.63,.04-1.4,.06-2.38,.14-.12,1.07-.62,6-.74,6.89-.03,.2-.19,.36-.43,.41-.22,.05-6.4,.35-7.66,.53-.13-.01-.46-3.51-1.01-5.99Zm25.12,93.78c-1.52-24.42,24.5-24.06,23.16,.53,0,0,11.84,1.52,12.28,1.4,.95-.28,1.07-1.38,.93-2.36-.08-.61-.85-10.62-.82-11.1,.08-1.33-4.63-43.11-4.63-43.11-5.33-1.6-20.63-2.06-30.15-2.16-.25,.04-.53,.07-.87,.07-6.22,.07-21.36,.8-28.96,1.97,0,0-1.64,1.05-1.8,3.6-.07,.86-1.46,2.26-1.62,4.25-.17,1.99,.67,2.61,.5,4.59-.17,1.99,.48-.11,.31,1.88-.17,1.99-.89,4.55,.97,5.25,1.16,.44,2.07,2.11-.65,2.45-.47,.17-.83,.05-.85,.4-.1,1.99,1,2.26,.9,4.26-.1,1.99-.78,.77-.87,2.76-.04,.74,.88,3.85-.18,4.26-.18,.34-.09,2.22-.1,2.6-.01,.61,2.33,3.38,2,4.18-.47,1.12,.8,2.25,1.45,2.01,.97-.36,5.37,2.04-.28,2.71-.62,.26-.9,.62-.69,1.14,.74,1.85,1.51-.04,2.9,1.39,1.39,1.43-.27,2.25,1.13,3.68,1.39,1.43,2.07-.27,3.95,.41,1.88,.68,1.37,2.6,3.24,3.27,.72,.26,18.65-.44,18.75-.31Zm151.9-63.27c-.51-.22-.88-.18-1.13-.03,.46-1.77-1.19-.87-.55-2.86,.66-2.06,.32-.55,.98-2.61,.66-2.06,1.32-.22,1.98-2.29,.66-2.06,.48-1.04,.09-3.17-.39-2.13-2.63-.64-3.02-2.77-.39-2.13,2.07-1.52,.96-3.38-1.11-1.86-1.88-.03-2.99-1.89-1.11-1.86,1.26-2.14-.42-3.51-1.68-1.37-.89-.45-2.57-1.82-1.68-1.37-.41-1.92-2.46-2.63-2.05-.71-3.06-4.03-2.45-6.11,.61-2.08-.13-.43,.47-2.51,.61-2.08-.22-1-.65-3.12-.43-2.12,.83-1.63,.4-3.76-.43-2.12-2.4-.34-3.62-2.14-1.21-1.8-.84-1.01-2.06-2.81-1.21-1.8,1.24-2.84-.55-4.05-1.8-1.21-2.28,3.75-4.08,2.54-1.8-1.21-3.99-.92-4.02-.44-.15,2.16-3.38-1.97-3.53,.19-.15,2.16-.91,.45-1.15,2.6-.24,2.15-2.13,.47-2.37,2.62-.24,2.15-2.45,2.79-2.7,4.94-.24,2.15-.22,2.22-.46,4.37-.24,2.15,1.66,.72,2.91,2.49,1.25,1.77-3.29,1.85-2.04,3.62,1.25,1.77,1.74,1.14,2.99,2.91,1.25,1.77-7.05,3.78-1.82,7.57,1.76,1.27-3.18,4.98-5.82-.29-1.16-2.33-6.11,3.49-2.91,6.4,1.6,1.46,2.33,2.33-4.95,4.65-2.06,.66,1.75,5.82-3.78,6.98,0,0-2.33,5.82,2.33,4.65,5.24-2.04,2.64,.46,3.74,2.33,1.1,1.87-.81,3.08,.29,4.95,1.1,1.87-4.59,1.62-3.49,3.49,1.1,1.87,4.08,3.93,2.62,5.53-5.38,5.89,3.56,3.95,4.66,5.82,1.1,1.87,6.14,2.33,3.53,6.69-1.11,1.86,8.15,.05,9.02,2.04,.87,1.99,5.24-2.86,6.11-.87,.87,1.99,6.41-3.88,7.27-1.89,.87,1.99,5.97-1.55,6.84,.44,.87,1.99,2.92-.09,3.78,1.89,.87,1.99,4.66-4.6,5.53-2.62,.87,1.99,3.93-.58,8-4.95,1.19-1.28,1.65-5.85,3.35-4.95,.41-2.13-1.72-3.79-2.08-5.93-.37-2.14,2.38-.02,2.01-2.15-.37-2.14-.44-1.17-1.49-3.06-1.05-1.89-1.06-.34-2.11-2.23-1.05-1.89,.37-1.58-1.24-3.03-1.61-1.46-.97-.11-2.57-1.56-1.61-1.45-1.36,.85-3.35,0-1.99-.86,.56-3.41-1.43-4.27Zm-33.78,62.17l21.02,.07c-1.23-4.29-5.97-10.72-5.08-20.03-.96-.96-.76,.52-1.54,.84-.41-.21-1.72-.88-1.98-.88-.24,0-.52,1.34-1.06,1.1-.61-.27-1.04-1.66-1.06-1.73,0-.02-1.11-.05-2.21,.08-.13,3.16-2.32,.45-2.17,1.12-1.96,.19-2.26-.58-2.42-.58-.31,.01-1.09,14.25-3.49,20Zm128.87,167.52c-.01,30.17-34.47,59.24-65.45,59.25h-99.72c-.53-.04-14.88-.77-17.8,10.18l-2.44,9.15-2.53-9.12c-3.06-11.03-16.28-10.24-16.65-10.21h-96.75c-31.08,.02-66.89-29.14-66.48-59.3V101.09s367.82,0,367.82,0V467.31Zm-5.15,0V106.24h-357.52V467.3c-.36,26.55,32.33,54.12,61.33,54.1h96.57c7.12-.42,15.22,2.41,19.32,8.52,4.34-6.29,13.09-8.92,20.45-8.52h99.56c28.74,0,60.29-27.34,60.3-54.1Z" style="fill-rule: evenodd;"/>
        </g>
        <g>
          <line x1="204.8" y1="768.55" x2="1843.2" y2="768.55" style="fill: none; stroke: #000; stroke-miterlimit: 3.86; stroke-width: .38px;"/>
          <g>
            <path d="M340.12,634.94v56.75c-.05,10.1-1.32,18.07-3.82,23.93-2.5,5.85-5.94,10.02-10.33,12.49-4.4,2.47-9.45,3.66-15.17,3.6-4.55,.05-9.05-.75-13.51-2.43-4.46-1.67-8.18-4.58-11.16-8.73-2.98-4.15-4.53-9.89-4.64-17.22v-73.68c.04-2.26,0-3.94-.09-5.02-.09-1.08-.46-1.7-1.1-1.85-3.1-.67-5.11-1.1-6.02-1.28-.91-.18-1.32-.87-1.22-2.07,.04-.53,.38-.93,1.01-1.18,.63-.27,1.31-.4,2.02-.4,2.16,.03,3.9,.16,5.22,.36,1.32,.2,3.4,.32,6.23,.35,3.71-.03,6.53-.15,8.49-.35,1.95-.2,3.56-.33,4.82-.36,2.69-.23,4.05,.41,4.05,1.94,.02,1.35-1.72,2.17-5.23,2.47-1.92,.04-3.56,.62-4.93,1.74-1.37,1.12-2.08,4.12-2.15,9.01v73.14c.09,5.2,1.17,9.37,3.25,12.5,2.08,3.14,4.63,5.39,7.65,6.78,3.03,1.39,6.03,2.07,8.98,2.05,3.94,.03,7.65-.94,11.11-2.92,3.46-1.98,6.28-5.19,8.45-9.62,2.17-4.43,3.29-10.29,3.35-17.6v-60.62c.02-5.33-.48-8.95-1.53-10.87-1.05-1.91-2.78-2.93-5.2-3.06-1.74-.12-2.97-.32-3.68-.6-.72-.27-1.06-.96-1.03-2.05,0-1.38,1.01-2.14,3.03-2.29,1.01,.03,2.19,.16,3.56,.36,1.36,.2,3.44,.32,6.22,.35,3.59-.03,6.14-.15,7.66-.35,1.52-.2,2.73-.33,3.63-.36,1.57-.02,2.3,.74,2.19,2.29,0,.98-.46,1.58-1.38,1.78-.93,.21-2.32,.5-4.17,.86-1.74,.29-2.94,1.21-3.6,2.78-.67,1.56-.98,4.69-.95,9.38"/>
            <path d="M374.64,671.07v48.47c-.05,1.98,.23,3.43,.84,4.33,.62,.91,1.91,1.52,3.88,1.83,2.61,.38,4.33,.68,5.13,.91,.81,.22,1.17,.74,1.1,1.56-.12,1.21-.89,1.79-2.36,1.76-.33-.03-1.4-.15-3.23-.35-1.82-.2-5.46-.33-10.92-.35-3.74,.02-6.29,.15-7.65,.35-1.36,.2-2.35,.32-2.97,.35-2.11,0-3.12-.7-3.03-2.12,.03-1.06,.82-1.76,2.36-2.12,2.71-.26,4.54-1.01,5.45-2.26,.93-1.25,1.35-3.56,1.29-6.9v-50.4c.06-2.37-.23-3.89-.89-4.54-.65-.66-2.05-1.03-4.17-1.1-2.47,0-3.59-.53-3.37-1.59-.03-.79,1.03-1.67,3.2-2.65,4.39-2.22,7.58-4.22,9.56-5.99,1.98-1.78,3.24-2.71,3.75-2.82,.73,.09,1.13,.79,1.18,2.12-.02,4.67,.02,7.58,.1,8.74,.09,1.17,.33,1.66,.74,1.48,1.02-.14,2.53-1.11,4.53-2.92,2.01-1.8,4.5-3.62,7.45-5.43,2.96-1.81,6.39-2.78,10.26-2.93,4.9-.04,9.21,1.54,12.95,4.76,3.73,3.21,5.82,8.33,6.25,15.33v48.82c-.02,2.86,.35,4.93,1.1,6.18,.74,1.26,1.95,1.96,3.62,2.09,1.91,.16,3.24,.42,3.98,.78,.75,.35,1.1,.92,1.07,1.7-.19,1.21-.98,1.79-2.36,1.76-.23-.03-1.21-.15-2.95-.35-1.74-.2-4.92-.33-9.52-.35-4.13,.02-6.91,.15-8.34,.35-1.43,.2-2.53,.32-3.28,.35-1.77,.06-2.61-.58-2.53-1.94,.05-1.12,1.12-1.88,3.2-2.29,2.24-.28,3.79-.86,4.66-1.71,.86-.86,1.28-2.4,1.24-4.63v-49.35c-.07-4.78-1.37-8.44-3.87-10.97-2.52-2.54-5.83-3.81-9.95-3.84-4.49,.11-8.48,1.65-11.98,4.63-3.49,2.97-5.34,6.72-5.54,11.23"/>
            <path d="M440.25,626.98c.05-3.06,.69-5.31,1.91-6.72,1.21-1.41,2.65-2.11,4.32-2.09,1.73-.02,3.19,.68,4.38,2.09,1.18,1.42,1.8,3.66,1.85,6.72-.05,3.14-.67,5.41-1.85,6.78-1.19,1.38-2.64,2.06-4.38,2.03-1.66,.03-3.1-.65-4.32-2.03-1.22-1.38-1.86-3.64-1.91-6.78m1.17,90.59v-51.64c.07-1.97-.37-3.41-1.33-4.32-.96-.91-2.87-1.64-5.75-2.2-.93-.23-1.43-.82-1.52-1.77-.22-.79,1.41-1.85,4.89-3.17,3.91-1.6,6.83-3.15,8.76-4.64,1.93-1.49,3.17-2.29,3.7-2.4,.87-.03,1.32,.56,1.35,1.77v67.5c-.12,2.46,.12,4.42,.74,5.88,.61,1.46,2.33,2.5,5.16,3.1,3.01,.47,4.41,1.3,4.22,2.47,.17,1.2-.68,1.79-2.53,1.76-.94-.03-2.26-.15-3.94-.35-1.68-.21-4.64-.33-8.87-.35-4.41,.02-7.47,.14-9.16,.35-1.7,.2-2.85,.32-3.47,.35-1.27-.03-1.94-.68-2.02-1.94-.14-1.12,.82-1.88,2.86-2.29,2.94-.41,4.85-1.12,5.73-2.14,.87-1,1.27-3,1.17-5.97"/>
            <path d="M495.78,706.94c.4,.12,.79-.3,1.17-1.24,.38-.95,1.09-3.16,2.1-6.61,1.02-3.46,2.68-8.89,4.99-16.29,2.58-8.16,4.38-14.13,5.41-17.91,1.03-3.78,1.53-6.09,1.49-6.94,.09-1.94-.34-3.22-1.31-3.81-.96-.6-2.99-1.03-6.11-1.3-1.24-.09-1.97-.79-2.19-2.12-.14-1.59,.98-2.29,3.37-2.12,2.53,.23,5.39,.47,8.59,.7,3.45-.23,5.98-.47,7.58-.7,2.44,0,3.63,.53,3.54,1.59,.04,.53-.12,1.01-.48,1.45-.37,.44-1.16,.83-2.38,1.19-1.91,.51-3.35,1.87-4.32,4.09-.96,2.22-2.12,5.45-3.44,9.65-1.9,5.65-3.99,12.17-6.27,19.58-2.28,7.41-4.44,14.6-6.5,21.58-2.05,6.98-3.7,12.65-4.92,17-.43,1.81-.79,3.31-1.07,4.5-.28,1.19-.93,1.8-1.95,1.85-1.02,.02-1.73-.72-2.15-2.22-.42-1.5-1.05-3.87-1.89-7.12-1.82-6.37-3.65-12.88-5.51-19.53-1.85-6.66-3.62-12.96-5.27-18.91-1.67-5.95-3.13-11.05-4.39-15.31-1.63-5.76-2.86-9.67-3.7-11.74-.83-2.08-2.07-3.22-3.7-3.42-2-.24-3.07-1-3.21-2.29,.03-.78,.39-1.3,1.05-1.56,.67-.26,1.44-.4,2.32-.37,1,.03,2.5,.15,4.49,.35,1.99,.21,4.03,.33,6.13,.35,1.65-.02,3.23-.14,4.74-.35,1.5-.2,3.13-.32,4.86-.35,1.55-.02,2.54,.14,2.97,.46,.43,.32,.62,.87,.57,1.66-.03,.88-1.32,1.59-3.87,2.12-1.89,.51-3.17,1.03-3.81,1.59-.65,.54-.95,1.25-.9,2.11-.03,.34,.08,1.03,.33,2.06,.25,1.03,.81,3.19,1.68,6.46,.87,3.26,2.22,8.42,4.05,15.46,2.09,8.09,3.66,14.03,4.68,17.82,1.02,3.78,1.74,6.2,2.16,7.24,.42,1.04,.79,1.5,1.08,1.37"/>
            <path d="M534.49,677.4c-.13,1.55,.22,2.59,1.05,3.13,.83,.54,2.96,.79,6.36,.75,11.35-.21,17.81-1.03,19.38-2.47,.76-.58,1.31-1.45,1.66-2.64s.53-2.96,.53-5.29c-.07-6.12-1.28-10.84-3.63-14.17-2.34-3.32-5.41-5-9.18-5.05-4.65,.17-8.49,2.65-11.5,7.45-3.01,4.79-4.57,10.89-4.68,18.28m34.37,8.81h-30.83c-2.72,.18-4.02,1.24-3.88,3.17,.09,10.69,1.94,19.09,5.52,25.2,3.59,6.11,8.37,9.22,14.36,9.33,3.61-.04,6.63-.96,9.05-2.77,2.43-1.81,4.36-4.23,5.77-7.27,.94-2.1,1.58-3.63,1.91-4.58,.33-.95,.76-1.42,1.28-1.41,.73-.18,1.13,.53,1.18,2.12-.04,5.74-1.86,10.69-5.45,14.83-3.6,4.14-8.74,6.3-15.43,6.5-9.34-.18-16.54-3.87-21.61-11.1-5.08-7.23-7.65-16.92-7.71-29.09,.09-9.86,1.49-18.02,4.2-24.49,2.72-6.46,6.25-11.29,10.57-14.46,4.33-3.18,8.95-4.76,13.87-4.75,6.19,.05,11.25,2.5,15.16,7.31,3.92,4.82,5.94,11.66,6.07,20.53,.09,5.01-.09,8.13-.51,9.37-.42,1.24-1.6,1.76-3.54,1.56"/>
            <path d="M590.21,716.18v-47.76c.03-3.09-.45-5.14-1.45-6.17-1-1.02-2.71-1.49-5.12-1.41-1.15,.06-1.71-.41-1.68-1.41,.03-1.09,.58-1.84,1.65-2.26,1.07-.41,2.46-.98,4.16-1.7,1.7-.73,3.53-2.11,5.48-4.14,1.13-1.32,1.98-2.29,2.57-2.93,.58-.64,1.18-.95,1.81-.95,.84,.19,1.31,1.5,1.39,3.93,.08,2.43,.11,4.87,.08,7.3-.02,2.43,.21,3.74,.72,3.93,.79-.19,1.7-1.5,2.73-3.93,1.03-2.43,2.57-4.87,4.6-7.3,2.03-2.43,4.92-3.74,8.68-3.93,2.79,.03,4.96,1.07,6.46,3.1,1.52,2.04,2.28,4.89,2.29,8.53,.02,2.86-.47,5.19-1.47,6.95-1,1.77-2.58,2.68-4.76,2.73-2.24-.05-3.79-.74-4.65-2.07-.87-1.32-1.28-2.99-1.24-4.98,.03-1.47-.04-2.79-.21-3.97-.18-1.17-.67-1.78-1.48-1.84-2.46,.18-4.46,1.73-6.01,4.64-1.54,2.92-2.66,6.08-3.38,9.51-.72,3.42-1.07,5.99-1.07,7.7v36.66c-.1,3.94,.19,6.71,.89,8.28,.69,1.57,2.42,2.57,5.18,2.99,3.7,.51,5.56,1.27,5.56,2.29,.23,1.44-1.07,2.08-3.87,1.94-.5-.03-1.56-.15-3.21-.35-1.63-.2-4.89-.33-9.77-.36-3.77,.03-6.39,.16-7.86,.36-1.47,.2-2.44,.32-2.93,.35-2.25,.09-3.31-.61-3.2-2.12,.17-1.23,1.35-1.94,3.54-2.12,2.29-.19,3.81-.86,4.55-1.98,.74-1.12,1.07-3.63,1.01-7.53"/>
            <path d="M626.74,668.57c.08-5.09,1.27-9.19,3.55-12.3,2.28-3.11,5.16-5.37,8.63-6.78s7.06-2.1,10.74-2.08c5.39,.15,9.6,1.09,12.63,2.82,.41,.22,.68,1.1,.82,2.62,.13,1.52,.19,3.94,.19,7.24,.03,3.09-.04,5.38-.21,6.9-.18,1.52-.67,2.27-1.48,2.27-.75,.02-1.35-.69-1.79-2.16-.44-1.47-1.24-3.87-2.42-7.18-.89-2.43-2.06-4.4-3.54-5.93-1.47-1.52-3.49-2.31-6.07-2.36-3.69,.08-6.71,1.24-9.03,3.5-2.33,2.26-3.52,5.15-3.6,8.66,.17,4.17,1.87,7.62,5.08,10.35,3.22,2.73,6.95,5.38,11.18,7.95,4.23,2.57,7.96,5.7,11.18,9.38,3.22,3.68,4.91,8.55,5.08,14.62-.1,7.99-2.39,14.17-6.86,18.55-4.48,4.38-10.56,6.6-18.24,6.65-3.47-.03-6.22-.27-8.24-.72-2.01-.45-3.71-.92-5.07-1.39-.83-.06-1.44-.99-1.81-2.77-.37-1.79-.55-5.62-.54-11.51,0-4.36,.13-7.22,.42-8.56,.29-1.35,.76-1.96,1.43-1.83,.74-.1,1.28,.54,1.64,1.94,.36,1.39,1.16,4.15,2.4,8.28,1.16,3.67,2.75,6.63,4.78,8.88,2.03,2.24,4.59,3.4,7.69,3.46,4-.07,7.16-1.38,9.45-3.94,2.3-2.56,3.47-5.94,3.52-10.16-.16-5.48-1.8-9.73-4.92-12.73-3.11-3.01-6.73-5.68-10.83-8.02-4.1-2.33-7.71-5.25-10.83-8.74-3.12-3.49-4.76-8.46-4.92-14.92"/>
            <path d="M683.38,626.98c.05-3.06,.69-5.31,1.91-6.72,1.21-1.41,2.65-2.11,4.32-2.09,1.73-.02,3.19,.68,4.38,2.09,1.18,1.42,1.8,3.66,1.85,6.72-.05,3.14-.67,5.41-1.85,6.78-1.19,1.38-2.64,2.06-4.38,2.03-1.66,.03-3.1-.65-4.32-2.03-1.22-1.38-1.86-3.64-1.91-6.78m1.17,90.59v-51.64c.07-1.97-.37-3.41-1.33-4.32-.96-.91-2.87-1.64-5.75-2.2-.93-.23-1.43-.82-1.51-1.77-.23-.79,1.4-1.85,4.89-3.17,3.91-1.6,6.82-3.15,8.76-4.64,1.93-1.49,3.17-2.29,3.7-2.4,.87-.03,1.32,.56,1.35,1.77v67.5c-.12,2.46,.12,4.42,.74,5.88,.61,1.46,2.33,2.5,5.16,3.1,3.01,.47,4.41,1.3,4.22,2.47,.17,1.2-.68,1.79-2.53,1.76-.94-.03-2.26-.15-3.94-.35-1.68-.21-4.64-.33-8.87-.35-4.41,.02-7.47,.14-9.16,.35-1.7,.2-2.85,.32-3.47,.35-1.27-.03-1.94-.68-2.02-1.94-.14-1.12,.82-1.88,2.86-2.29,2.94-.41,4.85-1.12,5.73-2.14,.87-1,1.27-3,1.17-5.97"/>
            <path d="M752.93,712.31v-43.53c-.06-5.12-1.32-9.29-3.79-12.49-2.47-3.21-5.75-4.85-9.86-4.96-2.5-.05-5.07,1.03-7.72,3.29-2.65,2.26-4.9,6.01-6.75,11.28-1.84,5.27-2.81,12.39-2.89,21.38,0,12.65,1.44,21.98,4.34,28.02,2.89,6.04,7.29,9.03,13.18,8.99,3.29,.03,6.32-.92,9.08-2.82,2.76-1.91,4.23-4.96,4.4-9.16m0-60.98v-31.9c.05-1.29-.26-2.27-.93-2.92-.67-.66-1.98-1.15-3.96-1.48-2.53-.3-3.7-.94-3.54-1.94-.14-1.03,.65-1.8,2.36-2.29,4.46-1.69,7.68-3.03,9.67-4.01,1.99-.98,3.31-1.68,3.98-2.08,.66-.42,1.22-.61,1.69-.61,.54-.23,.82,.59,.84,2.47v109.98c0,2.67,.12,4.47,.36,5.39,.24,.93,.57,1.37,1,1.31,1.37-.1,2.44-.82,3.2-2.15,.76-1.33,1.39-2.66,1.9-3.99,.5-1.33,1.04-2.05,1.63-2.15,1.1-.18,1.6,1.06,1.52,3.7,.08,2.9-.33,4.85-1.24,5.83-.91,.99-2.8,2.09-5.66,3.33-3.24,1.52-5.39,2.44-6.43,2.78-1.03,.33-1.7,.46-2,.39-1.49,.09-2.39-.79-2.7-2.64l-.67-4.23c-.05-1.09-.45-1.73-1.18-1.94-.51,.11-1.28,.87-2.33,2.29-1.04,1.41-2.65,2.82-4.83,4.24-2.19,1.42-5.24,2.18-9.19,2.28-8.73-.18-15.18-3.96-19.37-11.34-4.19-7.38-6.26-17.29-6.23-29.72,.02-7.46,1.19-14.42,3.49-20.89,2.29-6.46,5.57-11.71,9.82-15.73,4.24-4.01,9.3-6.08,15.17-6.21,4.07,.22,7.09,1.07,9.08,2.56,1.98,1.49,3.27,2.34,3.89,2.55,.48-.03,.71-.32,.68-.88"/>
            <path d="M817.31,706.72v-19.39c.06-1.65-.39-2.41-1.35-2.29-.45-.03-.94,.08-1.47,.33-.54,.25-1.45,.85-2.74,1.78-5.66,3.93-10.22,8.01-13.69,12.27-3.47,4.26-5.25,8.92-5.35,13.99,.05,3.52,.87,6.13,2.44,7.84,1.57,1.71,3.57,2.56,5.98,2.56,3.8-.24,7.5-2.23,11.12-6,1.83-1.7,3.13-3.37,3.91-5.02,.78-1.66,1.16-3.68,1.14-6.08m10.11-47.24v55.87c0,1.5,.41,2.91,1.22,4.23s1.97,2.02,3.49,2.11c2.07-.09,3.49-.78,4.29-2.05,.8-1.27,1.38-2.54,1.75-3.82,.37-1.27,.93-1.95,1.7-2.05,.87-.14,1.32,.68,1.35,2.47,0,1.29-.43,3.04-1.32,5.27-.9,2.22-2.33,4.26-4.33,6.08-1.98,1.84-4.59,2.81-7.83,2.92-3.21-.15-5.44-1.2-6.65-3.15-1.22-1.95-2.02-3.91-2.42-5.85-.4-1.95-.96-3-1.71-3.16-.86,.16-2.2,1.28-4,3.34-1.8,2.06-4.24,4.13-7.34,6.19-3.09,2.07-7.01,3.18-11.75,3.34-3.54,0-6.45-1.31-8.74-3.92-2.29-2.61-3.48-6.47-3.56-11.59-.08-4.14,1.25-7.93,3.98-11.34,2.73-3.42,7.3-7.51,13.71-12.28,4.94-3.72,8.72-6.56,11.34-8.51,2.61-1.95,4.4-3.6,5.34-4.95,.95-1.35,1.4-2.97,1.34-4.87v-10.04c.02-4.59-.55-7.79-1.7-9.58-1.14-1.8-2.94-2.65-5.37-2.58-4.48,.1-7.91,1.71-10.3,4.83-2.39,3.11-4.19,7.15-5.37,12.09-.58,2.31-1.7,4.4-3.35,6.24-1.65,1.85-3.91,2.82-6.76,2.93-2.53,.12-3.7-1.17-3.54-3.87-.07-2.11,.58-4.58,1.96-7.42,1.38-2.84,3.93-6.06,7.65-9.67,3.43-3.17,7.22-5.52,11.37-7.06,4.15-1.53,8.28-2.29,12.38-2.29,4.96-.09,8.42,.75,10.35,2.51,1.94,1.76,2.87,4.98,2.78,9.65"/>
            <path d="M883.96,712.31v-43.53c-.06-5.12-1.32-9.29-3.79-12.49-2.47-3.21-5.75-4.85-9.86-4.96-2.5-.05-5.07,1.03-7.72,3.29-2.65,2.26-4.9,6.01-6.75,11.28-1.84,5.27-2.81,12.39-2.89,21.38,0,12.65,1.44,21.98,4.34,28.02,2.89,6.04,7.29,9.03,13.18,8.99,3.29,.03,6.32-.92,9.08-2.82,2.76-1.91,4.23-4.96,4.4-9.16m0-60.98v-31.9c.05-1.29-.26-2.27-.93-2.92-.67-.66-1.98-1.15-3.96-1.48-2.53-.3-3.7-.94-3.54-1.94-.14-1.03,.65-1.8,2.36-2.29,4.45-1.69,7.67-3.03,9.66-4.01,1.99-.98,3.31-1.68,3.98-2.08,.66-.42,1.22-.61,1.69-.61,.54-.23,.82,.59,.85,2.47v109.98c0,2.67,.12,4.47,.35,5.39,.24,.93,.57,1.37,1,1.31,1.37-.1,2.44-.82,3.2-2.15,.76-1.33,1.4-2.66,1.9-3.99,.5-1.33,1.04-2.05,1.63-2.15,1.1-.18,1.6,1.06,1.52,3.7,.08,2.9-.33,4.85-1.24,5.83-.9,.99-2.79,2.09-5.66,3.33-3.24,1.52-5.38,2.44-6.43,2.78-1.03,.33-1.7,.46-2,.39-1.49,.09-2.39-.79-2.7-2.64l-.67-4.23c-.05-1.09-.45-1.73-1.18-1.94-.51,.11-1.28,.87-2.33,2.29-1.04,1.41-2.65,2.82-4.84,4.24-2.18,1.42-5.24,2.18-9.18,2.28-8.73-.18-15.18-3.96-19.37-11.34-4.19-7.38-6.26-17.29-6.23-29.72,.02-7.46,1.19-14.42,3.49-20.89,2.29-6.46,5.57-11.71,9.82-15.73,4.24-4.01,9.3-6.08,15.17-6.21,4.07,.22,7.09,1.07,9.08,2.56,1.98,1.49,3.27,2.34,3.89,2.55,.48-.03,.71-.32,.68-.88"/>
            <path d="M966.77,644.07c-.54-.07-.97,.29-1.26,1.06-.3,.77-.72,2.36-1.27,4.76-2.27,9.45-4,16.65-5.17,21.57-1.17,4.92-1.95,8.3-2.36,10.14-.4,1.83-.59,2.83-.56,3.01-.18,.51,.3,.85,1.45,1.01,1.15,.16,4.04,.23,8.66,.22,3.87,0,6.66,0,8.39-.05,1.73-.04,2.8-.16,3.22-.36,.42-.2,.59-.54,.53-1-.04-1.09-.89-4.63-2.55-10.62-1.66-5.98-3.9-14.73-6.72-26.22-.61-2.59-1.4-3.77-2.36-3.52m10.28,46h-19.37c-1.29-.16-2.29,.29-3.03,1.35-.74,1.05-1.58,3.66-2.53,7.82-1.22,5.27-2.15,9.32-2.78,12.16-.63,2.83-1.07,4.91-1.28,6.24-.23,1.32-.33,2.36-.31,3.1-.06,1.08,.23,2.05,.86,2.91,.63,.86,1.98,1.48,4.02,1.85,1.63,.21,2.93,.44,3.89,.7,.98,.26,1.48,.85,1.5,1.77-.03,1.44-.98,2.08-2.86,1.94-2.93-.23-6.35-.47-10.28-.7-3.64,.03-6.04,.14-7.17,.35-1.14,.2-1.9,.32-2.26,.35-1.21-.03-1.83-.67-1.86-1.94,.05-1.04,.51-1.7,1.37-1.98,.86-.29,1.8-.65,2.82-1.08,1.03-.44,1.82-1.42,2.38-2.92,3.13-9.89,6.14-20.47,9.02-31.73,2.88-11.26,5.73-22.76,8.53-34.48,2.81-11.72,5.66-23.19,8.56-34.43,.47-1.76,.92-3.08,1.35-3.97,.43-.88,1.05-1.31,1.86-1.31,.8-.02,1.38,.28,1.74,.93,.37,.63,.74,1.73,1.12,3.3,2.7,10.14,5.29,19.87,7.79,29.19,2.49,9.32,5.2,19.45,8.12,30.39,2.92,10.95,6.39,23.93,10.37,38.94,.44,1.63,1.01,3.09,1.73,4.36,.72,1.28,1.55,2.12,2.48,2.5,1.17,.32,2.29,.65,3.34,1.02,1.07,.36,1.63,.96,1.71,1.8,.08,1-1.1,1.47-3.54,1.41-1.81-.03-3.5-.15-5.08-.35-1.57-.21-3.31-.32-5.2-.35-4.58,.23-8.56,.47-11.96,.7-1.71,.06-2.67-.58-2.86-1.94,.11-1.47,1.57-2.23,4.38-2.29,1.21,.05,2.24-.22,3.07-.81,.83-.59,1.28-1.79,1.31-3.59,.02-.73-.4-2.75-1.24-6.04-.84-3.29-2.22-8.74-4.15-16.34-.86-3.61-1.63-6-2.33-7.18-.71-1.19-1.78-1.73-3.23-1.63"/>
            <path d="M1024.87,655.59v53.05c.07,4.78,1.36,8.43,3.87,10.97,2.51,2.53,5.83,3.81,9.94,3.84,4.49-.11,8.49-1.66,11.98-4.63,3.5-2.98,5.35-6.72,5.55-11.24v-47.76c.06-2-.19-3.47-.79-4.41-.58-.94-1.9-1.52-3.94-1.76-2.15-.19-3.62-.39-4.42-.6-.8-.2-1.18-.89-1.14-2.05-.05-1.29,.9-2.05,2.86-2.29h15c.84-.06,1.48,.16,1.9,.65,.42,.48,.63,1.63,.63,3.42v59.57c-.04,3.1,.21,5.23,.74,6.39,.53,1.16,1.57,1.79,3.14,1.89,1.81,.16,3.03,.37,3.66,.66,.64,.29,.93,.77,.89,1.45,.02,.88-1.03,1.77-3.2,2.64-3.91,1.63-7.01,3-9.31,4.1-2.3,1.1-3.64,1.67-4.01,1.71-.26,.09-.53-.17-.78-.77-.25-.59-.38-2.05-.4-4.33,.02-3.14-.05-5.1-.21-5.89-.16-.78-.48-1.1-.97-.99-.87,.13-2.19,1.08-3.95,2.83-1.77,1.75-4.11,3.51-7.02,5.26-2.92,1.76-6.57,2.7-10.92,2.84-4.89,.15-9.22-1.13-12.95-3.84-3.74-2.71-5.83-7.78-6.25-15.2v-52.17c.03-1.74-.29-3.03-.97-3.84-.68-.82-1.93-1.3-3.75-1.45-3.14-.21-4.6-1.03-4.38-2.47-.09-1.44,1.1-2.26,3.54-2.47h12.98c1.21-.09,1.98,.28,2.29,1.13,.31,.85,.44,2.76,.4,5.75"/>
            <path d="M1080.45,668.57c.09-5.09,1.27-9.19,3.55-12.3,2.28-3.11,5.16-5.37,8.63-6.78,3.48-1.41,7.06-2.1,10.74-2.08,5.39,.15,9.6,1.09,12.63,2.82,.41,.22,.68,1.1,.82,2.62,.13,1.52,.19,3.94,.19,7.24,.03,3.09-.04,5.38-.21,6.9-.18,1.52-.67,2.27-1.48,2.27-.75,.02-1.35-.69-1.79-2.16-.44-1.47-1.24-3.87-2.42-7.18-.89-2.43-2.07-4.4-3.54-5.93-1.48-1.52-3.49-2.31-6.07-2.36-3.69,.08-6.71,1.24-9.03,3.5-2.33,2.26-3.52,5.15-3.6,8.66,.17,4.17,1.87,7.62,5.08,10.35,3.22,2.73,6.95,5.38,11.18,7.95,4.23,2.57,7.96,5.7,11.18,9.38,3.21,3.68,4.91,8.55,5.08,14.62-.1,7.99-2.39,14.17-6.87,18.55-4.47,4.38-10.56,6.6-18.23,6.65-3.47-.03-6.22-.27-8.24-.72-2.01-.45-3.71-.92-5.07-1.39-.84-.06-1.44-.99-1.81-2.77-.37-1.79-.55-5.62-.54-11.51,0-4.36,.13-7.22,.42-8.56,.29-1.35,.76-1.96,1.43-1.83,.74-.1,1.28,.54,1.64,1.94,.36,1.39,1.16,4.15,2.4,8.28,1.16,3.67,2.75,6.63,4.78,8.88,2.03,2.24,4.59,3.4,7.69,3.46,4.01-.07,7.16-1.38,9.46-3.94,2.3-2.56,3.47-5.94,3.52-10.16-.16-5.48-1.8-9.73-4.92-12.73-3.11-3.01-6.73-5.68-10.83-8.02-4.1-2.33-7.71-5.25-10.83-8.74-3.12-3.49-4.76-8.46-4.92-14.92"/>
            <path d="M1145.63,658.65v58.16c.02,2.92,.48,4.84,1.38,5.77,.91,.93,2.13,1.36,3.67,1.28,2.09-.13,3.73-1.01,4.91-2.65,1.18-1.64,2.15-3.28,2.93-4.92s1.59-2.52,2.44-2.65c1.01-.06,1.52,.4,1.52,1.41-.02,.83-.4,2.34-1.12,4.54-.72,2.19-1.64,4.33-2.75,6.39-1.19,2.07-2.69,3.48-4.49,4.22-1.8,.75-3.84,1.1-6.13,1.06-3.83,.06-6.86-1.07-9.08-3.42-2.21-2.34-3.34-6.25-3.39-11.74v-59.22c-.06-1.35-.65-2.17-1.74-2.47-1.1-.3-2.32-.41-3.65-.35-.78,.04-1.41-.05-1.91-.26-.5-.22-.76-.84-.78-1.85,0-.62,.57-1.59,1.67-2.89,1.1-1.31,2.68-3.45,4.75-6.43,2.05-2.98,4.52-7.27,7.4-12.89,.78-1.64,1.32-2.76,1.62-3.37,.3-.61,.72-.89,1.24-.86,.51-.05,.89,.19,1.14,.75,.26,.56,.38,1.77,.38,3.66v15.68c-.14,2.71,.98,4,3.37,3.88h6.74c2.93-.18,4.33,.7,4.22,2.64,.03,1.14-.29,1.98-.95,2.53-.66,.55-1.87,.82-3.6,.82h-7.58c-.82-.03-1.4,.17-1.72,.59-.33,.44-.48,1.29-.47,2.58"/>
            <path d="M1174.93,716.18v-47.76c.03-3.09-.45-5.14-1.45-6.17-1-1.02-2.71-1.49-5.12-1.41-1.15,.06-1.71-.41-1.68-1.41,.03-1.09,.58-1.84,1.65-2.26,1.07-.41,2.46-.98,4.16-1.7,1.7-.73,3.53-2.11,5.48-4.14,1.13-1.32,1.98-2.29,2.57-2.93,.58-.64,1.18-.95,1.81-.95,.84,.19,1.31,1.5,1.39,3.93,.08,2.43,.11,4.87,.08,7.3-.03,2.43,.21,3.74,.72,3.93,.79-.19,1.7-1.5,2.73-3.93,1.03-2.43,2.57-4.87,4.6-7.3,2.03-2.43,4.92-3.74,8.68-3.93,2.79,.03,4.96,1.07,6.46,3.1,1.52,2.04,2.28,4.89,2.29,8.53,.02,2.86-.47,5.19-1.47,6.95-1,1.77-2.58,2.68-4.76,2.73-2.24-.05-3.79-.74-4.66-2.07-.86-1.32-1.28-2.99-1.24-4.98,.03-1.47-.04-2.79-.21-3.97-.18-1.17-.67-1.78-1.48-1.84-2.46,.18-4.47,1.73-6.01,4.64-1.53,2.92-2.66,6.08-3.38,9.51-.72,3.42-1.07,5.99-1.07,7.7v36.66c-.1,3.94,.19,6.71,.89,8.28,.69,1.57,2.42,2.57,5.18,2.99,3.71,.51,5.56,1.27,5.56,2.29,.23,1.44-1.07,2.08-3.87,1.94-.5-.03-1.57-.15-3.21-.35-1.63-.2-4.89-.33-9.77-.36-3.77,.03-6.39,.16-7.86,.36-1.47,.2-2.44,.32-2.93,.35-2.25,.09-3.31-.61-3.2-2.12,.17-1.23,1.35-1.94,3.54-2.12,2.29-.19,3.81-.86,4.55-1.98,.74-1.12,1.07-3.63,1.01-7.53"/>
            <path d="M1252.32,706.72v-19.39c.05-1.65-.4-2.41-1.35-2.29-.45-.03-.94,.08-1.47,.33-.54,.25-1.45,.85-2.74,1.78-5.66,3.93-10.22,8.01-13.69,12.27-3.47,4.26-5.25,8.92-5.35,13.99,.05,3.52,.87,6.13,2.44,7.84,1.57,1.71,3.57,2.56,5.98,2.56,3.79-.24,7.5-2.23,11.12-6,1.83-1.7,3.13-3.37,3.91-5.02,.78-1.66,1.16-3.68,1.14-6.08m10.11-47.24v55.87c0,1.5,.41,2.91,1.22,4.23,.81,1.32,1.97,2.02,3.49,2.11,2.07-.09,3.49-.78,4.29-2.05,.8-1.27,1.38-2.54,1.75-3.82,.37-1.27,.93-1.95,1.7-2.05,.87-.14,1.32,.68,1.35,2.47,.02,1.29-.43,3.04-1.32,5.27-.9,2.22-2.33,4.26-4.33,6.08-1.98,1.84-4.59,2.81-7.83,2.92-3.21-.15-5.43-1.2-6.65-3.15-1.22-1.95-2.02-3.91-2.42-5.85-.4-1.95-.96-3-1.71-3.16-.86,.16-2.2,1.28-4,3.34-1.8,2.06-4.24,4.13-7.33,6.19-3.1,2.07-7.02,3.18-11.75,3.34-3.53,0-6.45-1.31-8.74-3.92-2.29-2.61-3.48-6.47-3.56-11.59-.08-4.14,1.25-7.93,3.98-11.34,2.72-3.42,7.3-7.51,13.71-12.28,4.94-3.72,8.72-6.56,11.34-8.51,2.61-1.95,4.4-3.6,5.34-4.95,.95-1.35,1.39-2.97,1.35-4.87v-10.04c0-4.59-.56-7.79-1.71-9.58-1.14-1.8-2.94-2.65-5.37-2.58-4.48,.1-7.91,1.71-10.3,4.83-2.39,3.11-4.18,7.15-5.38,12.09-.58,2.31-1.69,4.4-3.34,6.24-1.65,1.85-3.91,2.82-6.76,2.93-2.53,.12-3.7-1.17-3.54-3.87-.07-2.11,.58-4.58,1.96-7.42,1.38-2.84,3.93-6.06,7.65-9.67,3.43-3.17,7.22-5.52,11.37-7.06,4.15-1.53,8.28-2.29,12.38-2.29,4.96-.09,8.42,.75,10.35,2.51,1.94,1.76,2.87,4.98,2.78,9.65"/>
            <path d="M1287.76,717.95v-98.52c.05-1.29-.26-2.27-.93-2.93-.67-.66-1.98-1.15-3.96-1.48-2.53-.3-3.7-.94-3.54-1.94-.14-1.03,.65-1.8,2.36-2.29,4.45-1.69,7.67-3.03,9.66-4.01s3.31-1.68,3.98-2.08c.66-.42,1.22-.61,1.69-.61,.54-.23,.82,.59,.85,2.47v112.8c-.04,2.08,.54,3.43,1.7,4.05s3.13,1.28,5.87,1.94c.95,.23,1.71,.47,2.29,.73,.59,.26,.89,.72,.91,1.38-.03,1.32-.65,2.03-1.85,2.12-.51-.03-1.68-.15-3.5-.35-1.81-.21-5.26-.33-10.32-.35-4.49,.02-7.6,.14-9.34,.35-1.73,.2-2.95,.32-3.64,.35-.45,.02-.89-.14-1.33-.46-.43-.33-.66-.87-.69-1.66,.23-1.14,1.12-1.84,2.69-2.12,2.96-.39,4.89-1.14,5.82-2.24,.93-1.1,1.35-2.82,1.26-5.16"/>
            <path d="M1389.02,712.31v-43.53c-.06-5.12-1.32-9.29-3.79-12.49-2.47-3.21-5.75-4.85-9.86-4.96-2.5-.05-5.07,1.03-7.72,3.29-2.64,2.26-4.89,6.01-6.74,11.28-1.84,5.27-2.81,12.39-2.89,21.38,0,12.65,1.44,21.98,4.34,28.02,2.89,6.04,7.29,9.03,13.18,8.99,3.29,.03,6.32-.92,9.08-2.82,2.76-1.91,4.23-4.96,4.4-9.16m0-60.98v-31.9c.05-1.29-.26-2.27-.93-2.92-.67-.66-1.99-1.15-3.96-1.48-2.53-.3-3.7-.94-3.54-1.94-.14-1.03,.65-1.8,2.36-2.29,4.46-1.69,7.68-3.03,9.67-4.01,1.99-.98,3.31-1.68,3.98-2.08,.66-.42,1.22-.61,1.69-.61,.54-.23,.82,.59,.84,2.47v109.98c0,2.67,.12,4.47,.36,5.39,.24,.93,.57,1.37,1,1.31,1.37-.1,2.44-.82,3.2-2.15,.76-1.33,1.39-2.66,1.9-3.99,.5-1.33,1.04-2.05,1.63-2.15,1.1-.18,1.6,1.06,1.52,3.7,.08,2.9-.33,4.85-1.24,5.83-.91,.99-2.8,2.09-5.66,3.33-3.24,1.52-5.39,2.44-6.43,2.78-1.03,.33-1.7,.46-2,.39-1.49,.09-2.39-.79-2.7-2.64l-.67-4.23c-.05-1.09-.45-1.73-1.18-1.94-.51,.11-1.28,.87-2.33,2.29-1.04,1.41-2.65,2.82-4.84,4.24-2.18,1.42-5.24,2.18-9.18,2.28-8.73-.18-15.18-3.96-19.37-11.34-4.19-7.38-6.26-17.29-6.23-29.72,.02-7.46,1.19-14.42,3.49-20.89,2.29-6.46,5.57-11.71,9.82-15.73,4.24-4.01,9.3-6.08,15.17-6.21,4.07,.22,7.09,1.07,9.07,2.56,1.98,1.49,3.28,2.34,3.9,2.55,.48-.03,.71-.32,.68-.88"/>
            <path d="M1423.15,677.4c-.13,1.55,.22,2.59,1.05,3.13s2.96,.79,6.36,.75c11.34-.21,17.8-1.03,19.37-2.47,.76-.58,1.31-1.45,1.66-2.64,.36-1.19,.53-2.96,.53-5.29-.07-6.12-1.28-10.84-3.63-14.17-2.34-3.32-5.41-5-9.18-5.05-4.65,.17-8.49,2.65-11.5,7.45-3.01,4.79-4.57,10.89-4.68,18.28m34.37,8.81h-30.83c-2.72,.18-4.01,1.24-3.87,3.17,.09,10.69,1.93,19.09,5.52,25.2,3.59,6.11,8.37,9.22,14.36,9.33,3.61-.04,6.63-.96,9.05-2.77,2.43-1.81,4.36-4.23,5.77-7.27,.94-2.1,1.59-3.63,1.92-4.58,.33-.95,.75-1.42,1.28-1.41,.73-.18,1.13,.53,1.18,2.12-.04,5.74-1.85,10.69-5.45,14.83-3.6,4.14-8.74,6.3-15.43,6.5-9.34-.18-16.53-3.87-21.61-11.1-5.08-7.23-7.65-16.92-7.71-29.09,.09-9.86,1.49-18.02,4.21-24.49,2.71-6.46,6.24-11.29,10.57-14.46,4.33-3.18,8.95-4.76,13.86-4.75,6.19,.05,11.25,2.5,15.16,7.31,3.92,4.82,5.94,11.66,6.07,20.53,.09,5.01-.09,8.13-.51,9.37-.42,1.24-1.6,1.76-3.54,1.56"/>
            <path d="M1516.92,672.13c.09,13.89,1.38,24.92,3.9,33.08,2.51,8.16,5.76,13.99,9.73,17.5,3.98,3.5,8.19,5.2,12.66,5.11,5.49-.17,9.71-2.38,12.63-6.63,2.93-4.25,4.95-9.5,6.07-15.75,.77-4.41,1.33-7.44,1.68-9.1,.35-1.65,.92-2.44,1.69-2.36,.77-.09,1.38,.14,1.83,.68,.46,.54,.69,1.97,.7,4.26l-.17,22.2c.02,1.62-.14,2.79-.47,3.53-.32,.73-.89,1.38-1.73,1.94-1.87,1.53-4.86,2.82-8.97,3.85-4.11,1.03-8.19,1.57-12.25,1.61-7.83-.04-14.8-2.35-20.91-6.92-6.11-4.57-10.93-11.16-14.46-19.77-3.53-8.6-5.33-18.98-5.41-31.12,.05-11.71,1.75-21.9,5.1-30.59,3.35-8.69,8.05-15.44,14.12-20.25,6.07-4.82,13.19-7.25,21.39-7.33,5.17,.12,9.62,.81,13.37,2.05,3.75,1.24,6.15,2.33,7.18,3.24,.39,.25,.7,.79,.92,1.61,.23,.82,.38,2.55,.47,5.18,.09,2.62,.13,6.77,.12,12.42,.03,3.81-.03,6.18-.19,7.11-.16,.93-.6,1.32-1.33,1.17-.68,.14-1.29-.28-1.81-1.28-.51-1-1.37-3.45-2.57-7.36-3.98-13.15-10.16-19.8-18.53-19.91-3.76-.07-7.52,1.56-11.29,4.9-3.77,3.33-6.94,8.81-9.49,16.41-2.56,7.61-3.89,17.78-3.99,30.51"/>
            <path d="M1594.91,670.72v47.41c-.05,2.01,.47,3.62,1.54,4.8,1.07,1.18,2.97,1.99,5.7,2.42,1.56,.25,2.57,.55,3.06,.9,.48,.36,.7,.88,.65,1.57-.12,1.2-.9,1.79-2.36,1.76-.32-.03-1.39-.15-3.21-.35-1.83-.21-5.47-.33-10.94-.35-3.72,.02-6.3,.14-7.75,.35-1.45,.2-2.68,.32-3.7,.35-1.41,0-2.14-.7-2.19-2.12,.03-1.06,.82-1.76,2.36-2.12,2.71-.26,4.53-1.01,5.45-2.26,.93-1.25,1.35-3.56,1.29-6.9v-96.76c.05-1.29-.26-2.27-.93-2.93-.67-.66-1.99-1.15-3.97-1.48-2.52-.3-3.7-.94-3.53-1.94-.14-1.03,.65-1.8,2.36-2.29,4.46-1.69,7.68-3.03,9.67-4.01,1.98-.98,3.31-1.68,3.97-2.08,.66-.42,1.23-.61,1.7-.61,.53-.23,.82,.59,.84,2.47v51.65c-.02,.85,.37,1.26,1.18,1.23,.52-.14,1.72-1.11,3.59-2.92,1.87-1.81,4.29-3.62,7.26-5.43,2.97-1.81,6.38-2.78,10.21-2.93,4.9-.05,9.21,1.54,12.95,4.76,3.73,3.21,5.82,8.32,6.25,15.33v48.82c-.12,5.41,1.63,8.16,5.22,8.28,3.2,.21,4.72,1.03,4.55,2.47-.19,1.2-.98,1.79-2.36,1.76-.39-.03-1.71-.15-3.96-.35-2.25-.21-5.08-.33-8.51-.35-4.12,.02-6.91,.14-8.34,.35-1.43,.2-2.53,.32-3.28,.35-1.77,.06-2.61-.58-2.53-1.94,.05-1.38,1.12-2.15,3.21-2.29,2.23-.3,3.78-.89,4.65-1.78,.86-.89,1.28-2.41,1.24-4.56v-49.35c-.07-4.78-1.37-8.44-3.87-10.97-2.52-2.54-5.83-3.81-9.94-3.84-4.49,.11-8.49,1.65-11.99,4.63-3.5,2.97-5.34,6.72-5.54,11.23"/>
            <path d="M1660.65,626.98c.05-3.06,.69-5.31,1.91-6.72,1.21-1.41,2.66-2.11,4.32-2.09,1.73-.02,3.2,.68,4.38,2.09,1.18,1.42,1.8,3.66,1.85,6.72-.05,3.14-.67,5.41-1.85,6.78-1.18,1.38-2.64,2.06-4.38,2.03-1.66,.03-3.1-.65-4.32-2.03-1.22-1.38-1.86-3.64-1.91-6.78m1.17,90.59v-51.64c.07-1.97-.37-3.41-1.33-4.32-.96-.91-2.87-1.64-5.75-2.2-.93-.23-1.43-.82-1.51-1.77-.23-.79,1.4-1.85,4.89-3.17,3.91-1.6,6.83-3.15,8.76-4.64,1.93-1.49,3.17-2.29,3.7-2.4,.87-.03,1.32,.56,1.35,1.77v67.5c-.12,2.46,.12,4.42,.74,5.88,.61,1.46,2.33,2.5,5.17,3.1,3,.47,4.4,1.3,4.21,2.47,.17,1.2-.68,1.79-2.53,1.76-.94-.03-2.26-.15-3.94-.35-1.68-.21-4.64-.33-8.87-.35-4.41,.02-7.46,.14-9.16,.35-1.7,.2-2.85,.32-3.47,.35-1.27-.03-1.94-.68-2.02-1.94-.14-1.12,.82-1.88,2.86-2.29,2.94-.41,4.85-1.12,5.73-2.14,.87-1,1.27-3,1.17-5.97"/>
            <path d="M1698.99,717.95v-98.52c.05-1.29-.26-2.27-.93-2.93-.67-.66-1.99-1.15-3.96-1.48-2.53-.3-3.7-.94-3.54-1.94-.14-1.03,.65-1.8,2.36-2.29,4.46-1.69,7.68-3.03,9.67-4.01,1.99-.98,3.31-1.68,3.98-2.08,.66-.42,1.22-.61,1.69-.61,.54-.23,.82,.59,.85,2.47v112.8c-.04,2.08,.54,3.43,1.7,4.05s3.13,1.28,5.87,1.94c.95,.23,1.71,.47,2.29,.73,.59,.26,.89,.72,.91,1.38-.03,1.32-.65,2.03-1.86,2.12-.51-.03-1.67-.15-3.49-.35-1.82-.21-5.26-.33-10.32-.35-4.49,.02-7.6,.14-9.34,.35-1.73,.2-2.95,.32-3.64,.35-.45,.02-.89-.14-1.33-.46-.43-.33-.66-.87-.69-1.66,.23-1.14,1.12-1.84,2.69-2.12,2.96-.39,4.89-1.14,5.82-2.24,.93-1.1,1.35-2.82,1.26-5.16"/>
            <path d="M1736.21,677.4c-.13,1.55,.22,2.59,1.05,3.13s2.96,.79,6.36,.75c11.34-.21,17.8-1.03,19.37-2.47,.76-.58,1.31-1.45,1.66-2.64s.53-2.96,.53-5.29c-.07-6.12-1.28-10.84-3.63-14.17-2.34-3.32-5.41-5-9.18-5.05-4.65,.17-8.49,2.65-11.5,7.45-3.01,4.79-4.57,10.89-4.68,18.28m34.37,8.81h-30.83c-2.72,.18-4.02,1.24-3.88,3.17,.09,10.69,1.94,19.09,5.52,25.2,3.59,6.11,8.37,9.22,14.36,9.33,3.61-.04,6.63-.96,9.05-2.77,2.43-1.81,4.36-4.23,5.77-7.27,.94-2.1,1.58-3.63,1.91-4.58,.33-.95,.76-1.42,1.28-1.41,.73-.18,1.13,.53,1.18,2.12-.04,5.74-1.86,10.69-5.45,14.83-3.6,4.14-8.74,6.3-15.43,6.5-9.34-.18-16.54-3.87-21.61-11.1-5.08-7.23-7.65-16.92-7.71-29.09,.09-9.86,1.49-18.02,4.2-24.49,2.72-6.46,6.25-11.29,10.57-14.46,4.33-3.18,8.95-4.76,13.87-4.75,6.19,.05,11.25,2.5,15.16,7.31,3.92,4.82,5.94,11.66,6.07,20.53,.09,5.01-.09,8.13-.51,9.37-.42,1.24-1.6,1.76-3.54,1.56"/>
          </g>
          <g>
            <path d="M484.04,860.25c.09-8.03,1.62-15.33,4.6-21.93,2.99-6.6,6.88-12.28,11.72-17.08,4.82-4.78,10.05-8.47,15.68-11.07s11.14-3.91,16.52-3.94c2.45,0,4,.2,4.63,.6,.63,.4,.9,.96,.81,1.7,.06,1.84-1.33,7.62-4.17,17.32-.3,1.15-.57,2-.79,2.56-.23,.56-.69,.83-1.4,.83-.85,.04-1.35-.4-1.51-1.33,.02-.58,.16-2.05,.42-4.38,.26-2.33,.52-4.72,.78-7.15,.26-2.43,.4-4.08,.43-4.95,.11-1.43-.58-2.2-2.08-2.3-3.37,.13-7.15,1.41-11.35,3.82-4.2,2.41-8.27,5.9-12.21,10.46-3.93,4.56-7.18,10.13-9.75,16.7-2.57,6.58-3.89,14.1-3.98,22.56,.02,6.57,.99,11.59,2.89,15.08,1.91,3.49,4.61,5.24,8.11,5.27,3.21-.05,6.13-1.17,8.74-3.36,2.61-2.19,4.71-5.19,6.31-8.99,1.35-3.31,2.35-5.76,2.99-7.36,.64-1.6,1.13-2.64,1.47-3.13,.34-.48,.75-.71,1.21-.65,.79,.08,1.18,.52,1.16,1.33,.02,.79-.48,3.09-1.51,6.9l-3.59,13.45c-.23,.4-1.38,.97-3.47,1.7-2.09,.74-4.47,1.42-7.1,2.04-2.64,.61-4.91,.94-6.8,.98-6.25-.09-10.94-2.4-14.06-6.93-3.13-4.54-4.69-10.79-4.69-18.75"/>
            <path d="M538.91,869.09c.02,4.82,.73,8.35,2.14,10.6,1.41,2.25,3.4,3.35,5.97,3.33,2.37-.09,4.71-1.4,7.02-3.94,2.3-2.54,4.4-5.81,6.29-9.8,1.89-3.99,3.4-8.2,4.53-12.62,1.13-4.43,1.71-8.56,1.73-12.4-.15-9.52-2.85-14.2-8.11-14.05-2.37,.09-4.71,1.41-7.01,3.97-2.3,2.55-4.4,5.83-6.29,9.84-1.89,4.01-3.4,8.23-4.54,12.66-1.13,4.43-1.71,8.57-1.73,12.41m-6.25-4.36c.06-5.91,1.25-11.72,3.58-17.4,2.33-5.69,5.44-10.41,9.32-14.17,3.89-3.76,8.19-5.71,12.92-5.85,4.55,.07,8.07,1.98,10.57,5.75,2.49,3.77,3.76,8.95,3.79,15.57-.06,5.87-1.25,11.65-3.58,17.32-2.33,5.67-5.44,10.39-9.32,14.14-3.89,3.76-8.19,5.71-12.92,5.85-4.55-.07-8.07-1.97-10.57-5.69-2.49-3.73-3.76-8.9-3.79-15.5"/>
            <path d="M583.51,883.99h-5.44l6.95-20.96c2.39-7.24,4.23-13.14,5.54-17.68,1.31-4.55,1.97-7.54,1.98-8.96,.08-1.64-.54-2.49-1.85-2.54-1.8-.05-4.46,2.58-7.99,7.87-1.73,2.64-2.78,4.35-3.16,5.13-.37,.79-.79,1.13-1.24,1.05-.56,.02-.82-.26-.81-.85,.03-.66,.61-2.01,1.71-4.06,1.1-2.04,2.54-4.26,4.33-6.67,1.77-2.41,3.69-4.49,5.73-6.25,2.05-1.76,4.03-2.68,5.94-2.76,1.67,.03,2.88,.58,3.64,1.62,.75,1.05,1.12,2.4,1.11,4.08-.05,2.12-.44,4.53-1.15,7.25-.72,2.71-1.49,5.39-2.33,8.03-.83,2.64-1.45,4.89-1.84,6.77l.23,.24c1.04-2.2,2.54-4.85,4.52-7.95,1.98-3.1,4.25-6.18,6.81-9.23,2.57-3.04,5.27-5.59,8.09-7.62,2.82-2.05,5.62-3.1,8.36-3.18,1.82,.02,3.28,.61,4.36,1.79,1.09,1.17,1.64,2.79,1.66,4.87,.02,1.51-.18,3.09-.6,4.73-.43,1.64-1.23,4.01-2.38,7.09-1.17,3.09-2.83,7.55-5.01,13.37-1.7,4.64-2.95,8.11-3.73,10.41-.78,2.3-1.27,3.91-1.46,4.82-.19,.91-.28,1.61-.25,2.1,.05,1.31,.52,1.95,1.38,1.94,1.63,.14,3.94-1.84,6.95-5.94,2.36-3.28,3.81-5.59,4.37-6.92,.56-1.33,1.03-1.97,1.42-1.92,.56,.06,.82,.42,.81,1.09-.04,.75-.63,2.18-1.77,4.29-1.14,2.11-2.62,4.38-4.43,6.83-1.8,2.44-3.71,4.56-5.73,6.32-2.01,1.77-3.91,2.71-5.68,2.78-1.77-.05-3.01-.61-3.72-1.7-.71-1.1-1.05-2.43-1.03-3.98,.02-1.92,.42-4.41,1.21-7.47,.79-3.06,1.9-6.42,3.3-10.1,2.3-5.98,4.1-10.69,5.41-14.11,1.3-3.43,2.22-6.05,2.75-7.87,.53-1.81,.79-3.29,.77-4.42-.1-2.29-.95-3.42-2.55-3.39-2.7,.08-6.15,2.49-10.36,7.23-4.21,4.75-8.59,11.33-13.15,19.77-1.11,2.11-2.34,4.66-3.67,7.64-1.33,2.98-2.55,5.84-3.65,8.58-1.1,2.74-1.86,4.8-2.29,6.18-.31,1.12-.58,1.85-.82,2.2-.23,.34-.66,.5-1.26,.47"/>
            <path d="M641.85,869.09c.02,4.82,.73,8.35,2.14,10.6,1.41,2.25,3.4,3.35,5.97,3.33,2.37-.09,4.71-1.4,7.01-3.94,2.3-2.54,4.4-5.81,6.29-9.8,1.89-3.99,3.4-8.2,4.54-12.62,1.13-4.43,1.71-8.56,1.73-12.4-.15-9.52-2.85-14.2-8.11-14.05-2.37,.09-4.71,1.41-7.02,3.97-2.3,2.55-4.4,5.83-6.29,9.84-1.88,4.01-3.4,8.23-4.53,12.66-1.13,4.43-1.71,8.57-1.73,12.41m-6.25-4.36c.06-5.91,1.25-11.72,3.58-17.4,2.33-5.69,5.44-10.41,9.32-14.17,3.89-3.76,8.19-5.71,12.92-5.85,4.55,.07,8.07,1.98,10.57,5.75,2.49,3.77,3.76,8.95,3.79,15.57-.06,5.87-1.25,11.65-3.58,17.32-2.33,5.67-5.44,10.39-9.32,14.14-3.89,3.76-8.19,5.71-12.92,5.85-4.55-.07-8.07-1.97-10.57-5.69-2.49-3.73-3.76-8.9-3.79-15.5"/>
            <path d="M680.62,866.31c.1-7.27,1.58-13.83,4.44-19.7,2.85-5.86,6.46-10.52,10.84-13.99,4.37-3.46,8.88-5.24,13.54-5.32,3.14,.03,5.55,.76,7.21,2.18,1.66,1.42,2.5,3.36,2.52,5.82-.02,1.43-.51,2.63-1.44,3.59-.93,.96-2.19,1.46-3.77,1.5-1.07,.04-1.98-.4-2.75-1.33-.77-.93-1.28-2.59-1.53-4.97-.07-1.11-.27-2.03-.62-2.75-.34-.72-1.1-1.1-2.27-1.12-2.35,.05-4.96,1.61-7.85,4.68-2.89,3.06-5.4,7.31-7.54,12.73-2.14,5.42-3.27,11.69-3.37,18.82,.03,4.1,.86,7.31,2.51,9.64,1.63,2.33,3.89,3.52,6.75,3.56,2.25-.1,4.47-1.14,6.69-3.15,2.22-2.01,4.15-4.39,5.82-7.15,1.73-2.94,2.78-4.9,3.14-5.86,.36-.96,.74-1.43,1.14-1.41,.63-.08,.98,.33,1.04,1.21,.02,.79-.45,2.35-1.41,4.66-.95,2.31-2.49,4.96-4.61,7.93-1.92,2.68-4.19,4.92-6.79,6.74-2.61,1.81-5.48,2.76-8.61,2.83-3.99,0-7.16-1.6-9.49-4.8-2.34-3.2-3.54-7.97-3.59-14.34"/>
            <path d="M737.91,814.34c.05-2.08,.64-3.94,1.75-5.55,1.1-1.62,2.42-2.47,3.92-2.56,.93,.03,1.64,.45,2.14,1.25,.5,.81,.75,1.8,.75,2.99-.05,2.08-.64,3.94-1.75,5.55-1.11,1.62-2.42,2.47-3.92,2.56-.93-.03-1.65-.45-2.15-1.26-.5-.8-.75-1.8-.75-2.98m.58,27.98l-9.73,28.46c-.45,1.42-.79,2.54-.98,3.36-.19,.82-.3,1.52-.29,2.09,0,.9,.46,1.39,1.38,1.45,.71,.08,1.64-.56,2.79-1.92,1.16-1.36,2.82-3.91,4.97-7.64,.92-1.7,1.54-2.97,1.87-3.82,.33-.85,.75-1.28,1.26-1.28,.6,.05,.9,.33,.93,.85-.03,.67-.56,2.09-1.59,4.27-1.03,2.17-2.38,4.55-4.06,7.13-1.68,2.58-3.51,4.82-5.49,6.71-1.98,1.89-3.94,2.88-5.88,2.97-1.27-.05-2.19-.58-2.75-1.59-.57-1-.85-2.17-.84-3.49,.12-2.77,1.04-6.57,2.78-11.39l7.76-22.65c1.02-2.84,1.73-4.97,2.11-6.39,.39-1.42,.58-2.51,.55-3.3,.04-1.01-.39-1.54-1.28-1.58-.54-.04-1.21,.29-2.01,.99-.79,.7-1.9,2.02-3.31,3.98-1.69,2.36-2.87,4.19-3.55,5.5-.67,1.31-1.14,2.22-1.41,2.72-.26,.51-.61,.76-1.07,.74-.51,.06-.78-.18-.81-.72,.02-.84,.54-2.26,1.57-4.22,1.03-1.98,2.4-4.21,4.1-6.68,2.08-3,4.06-5.33,5.94-7.01,1.89-1.68,3.73-2.53,5.52-2.56,2.4,.04,3.63,1.66,3.71,4.85,0,1-.2,2.41-.58,4.22-.38,1.81-.92,3.79-1.62,5.95"/>
            <path d="M750.62,883.99h-5.45c.34-1.54,1.08-4.02,2.23-7.46,1.14-3.43,2.48-7.3,4.01-11.61,1.52-4.3,3.01-8.53,4.47-12.7,1.47-4.16,2.68-7.74,3.65-10.74,.97-2.99,1.47-4.9,1.51-5.71-.04-1.25-.66-1.9-1.86-1.94-.54-.05-1.24,.28-2.11,.98-.86,.7-2.09,2.03-3.68,3.98-2.37,3.07-3.91,5.32-4.61,6.74-.71,1.42-1.29,2.12-1.76,2.11-.55,.02-.82-.26-.81-.85,.05-.69,.68-2.1,1.93-4.21,1.24-2.12,2.84-4.43,4.79-6.94,1.9-2.36,3.91-4.33,6.04-5.9,2.13-1.57,4.09-2.39,5.88-2.45,2.35,.16,3.55,1.53,3.59,4.12,.02,.99-.13,2.25-.46,3.8-.32,1.55-.93,3.78-1.82,6.71-.89,2.92-2.18,6.93-3.86,12.03l.23,.24c2.48-4.07,5.13-8.14,7.92-12.24,2.79-4.09,5.67-7.53,8.63-10.31,2.96-2.78,5.94-4.22,8.92-4.33,1.66,0,3,.69,4.05,2.07,1.04,1.38,1.59,3.44,1.62,6.17-.02,1.51-.33,3.45-.91,5.82-.58,2.36-1.28,4.79-2.07,7.3-.81,2.5-1.55,4.71-2.23,6.63l.23,.24c.99-1.91,2.43-4.4,4.32-7.48,1.89-3.08,4.05-6.2,6.5-9.36,2.43-3.17,4.97-5.83,7.6-8,2.64-2.16,5.18-3.3,7.64-3.38,2.15,.05,3.76,.76,4.85,2.12,1.09,1.36,1.63,3.03,1.64,5.03-.08,2.36-.82,5.62-2.25,9.78-1.42,4.17-3.07,8.53-4.93,13.08-1.87,4.55-3.52,8.59-4.94,12.12-1.42,3.53-2.16,5.83-2.24,6.92-.09,1.35,.44,2.04,1.62,2.06,1.11-.03,2.34-.67,3.7-1.92,1.35-1.26,2.78-2.96,4.29-5.1,1.84-2.61,3.11-4.57,3.8-5.89,.68-1.32,1.2-1.98,1.53-1.99,.56,.1,.83,.39,.81,.85-.02,.75-.61,2.26-1.8,4.5-1.19,2.26-2.86,4.75-5.03,7.5-2.23,2.85-4.33,4.99-6.31,6.43-1.98,1.44-3.96,2.16-5.97,2.16-1.33-.03-2.34-.48-3.02-1.35-.68-.86-1.03-1.94-1.03-3.25,.08-2.64,.82-5.99,2.25-10.06,1.42-4.08,3.07-8.34,4.93-12.8,1.87-4.47,3.52-8.6,4.94-12.4,1.42-3.8,2.16-6.74,2.24-8.83-.09-1.96-1.06-3.01-2.89-3.15-2.25,.11-5.17,2.25-8.74,6.4-3.58,4.16-7.31,9.68-11.19,16.55-3.87,6.87-7.38,14.45-10.52,22.71-.77,2.13-1.31,3.54-1.6,4.24-.3,.71-.58,1.03-.82,.97h-6.72c4.88-13.42,8.59-23.95,11.12-31.58,2.54-7.64,3.81-12.9,3.83-15.78,.03-2.26-.86-3.43-2.67-3.52-1.62,.09-3.73,1.54-6.36,4.36-2.62,2.82-5.42,6.53-8.4,11.09-2.98,4.57-5.8,9.52-8.49,14.85-2.68,5.32-4.89,10.53-6.62,15.6-.68,2.17-1.2,3.56-1.52,4.17-.33,.61-.86,.87-1.61,.8"/>
            <path d="M847.18,814.34c.05-2.08,.65-3.94,1.75-5.55,1.11-1.62,2.42-2.47,3.93-2.56,.93,.03,1.64,.45,2.14,1.25,.5,.81,.75,1.8,.75,2.99-.05,2.08-.64,3.94-1.75,5.55-1.11,1.62-2.42,2.47-3.93,2.56-.93-.03-1.64-.45-2.14-1.26-.5-.8-.75-1.8-.75-2.98m.58,27.98l-9.73,28.46c-.45,1.42-.79,2.54-.98,3.36-.2,.82-.3,1.52-.29,2.09,0,.9,.46,1.39,1.38,1.45,.71,.08,1.64-.56,2.79-1.92,1.16-1.36,2.82-3.91,4.97-7.64,.92-1.7,1.54-2.97,1.87-3.82,.33-.85,.75-1.28,1.26-1.28,.59,.05,.9,.33,.93,.85-.03,.67-.56,2.09-1.59,4.27-1.03,2.17-2.38,4.55-4.06,7.13-1.68,2.58-3.51,4.82-5.49,6.71-1.98,1.89-3.94,2.88-5.88,2.97-1.27-.05-2.19-.58-2.75-1.59-.57-1-.85-2.17-.84-3.49,.12-2.77,1.04-6.57,2.78-11.39l7.76-22.65c1.02-2.84,1.73-4.97,2.11-6.39,.39-1.42,.57-2.51,.55-3.3,.04-1.01-.39-1.54-1.28-1.58-.54-.04-1.21,.29-2.01,.99s-1.9,2.02-3.31,3.98c-1.69,2.36-2.87,4.19-3.55,5.5-.68,1.31-1.14,2.22-1.41,2.72-.26,.51-.61,.76-1.07,.74-.5,.06-.77-.18-.81-.72,.03-.84,.55-2.26,1.58-4.22,1.03-1.98,2.39-4.21,4.1-6.68,2.08-3,4.06-5.33,5.94-7.01,1.89-1.68,3.73-2.53,5.52-2.56,2.4,.04,3.63,1.66,3.71,4.85,0,1-.2,2.41-.58,4.22-.38,1.81-.92,3.79-1.62,5.95"/>
            <path d="M882.14,829.48c-2.06,0-4.35,1.07-6.86,3.21-2.5,2.13-4.88,5.3-7.12,9.51-2.24,4.2-3.98,9.41-5.24,15.64,7.51-1.4,12.93-3.69,16.26-6.86,3.33-3.18,5.38-6.36,6.16-9.53,.79-3.18,1.11-5.47,.97-6.87,0-1.49-.35-2.69-1.04-3.63-.69-.94-1.73-1.42-3.13-1.45m10.42,8c.09,6.31-2.26,11.37-7.02,15.2-4.77,3.83-12.46,6.35-23.09,7.57-.6,2.4-.91,4.99-.93,7.76,.12,7.75,2.43,11.63,6.95,11.63,4.61-.02,9.51-3.62,14.7-10.78,1.25-1.85,2.05-3.15,2.39-3.89,.34-.75,.7-1.1,1.09-1.08,.54,0,.85,.37,.93,1.1-.04,.73-.78,2.35-2.23,4.87-1.45,2.52-3.41,5.18-5.87,7.97-1.84,2.07-4.03,3.84-6.54,5.31-2.51,1.48-5.04,2.25-7.58,2.32-7.34,.12-11.08-5.81-11.23-17.81,.13-7.48,1.71-14.24,4.74-20.31,3.03-6.06,6.73-10.89,11.09-14.49,4.37-3.6,8.63-5.45,12.77-5.53,3.56,.14,6.09,1.26,7.62,3.36,1.52,2.11,2.27,4.38,2.23,6.81"/>
            <path d="M898.46,883.99h-5.45l6.95-20.96c2.39-7.24,4.23-13.14,5.54-17.68,1.31-4.55,1.97-7.54,1.98-8.96,.08-1.64-.54-2.49-1.85-2.54-1.8-.05-4.46,2.58-7.99,7.87-1.73,2.64-2.78,4.35-3.16,5.13-.37,.79-.79,1.13-1.24,1.05-.56,.02-.82-.26-.81-.85,.03-.66,.61-2.01,1.71-4.06,1.1-2.04,2.54-4.26,4.33-6.67,1.77-2.41,3.69-4.49,5.73-6.25,2.05-1.76,4.03-2.68,5.94-2.76,1.67,.03,2.88,.58,3.64,1.62,.75,1.05,1.12,2.4,1.11,4.08-.05,2.12-.44,4.53-1.15,7.25-.72,2.71-1.5,5.39-2.33,8.03-.83,2.64-1.45,4.89-1.84,6.77l.23,.24c1.04-2.2,2.55-4.85,4.52-7.95,1.98-3.1,4.24-6.18,6.81-9.23,2.57-3.04,5.27-5.59,8.09-7.62,2.82-2.05,5.62-3.1,8.36-3.18,1.82,.02,3.28,.61,4.36,1.79,1.09,1.17,1.64,2.79,1.66,4.87,.02,1.51-.18,3.09-.6,4.73-.43,1.64-1.23,4.01-2.38,7.09-1.17,3.09-2.83,7.55-5.01,13.37-1.7,4.64-2.95,8.11-3.73,10.41-.78,2.3-1.27,3.91-1.46,4.82-.19,.91-.28,1.61-.25,2.1,.05,1.31,.52,1.95,1.38,1.94,1.62,.14,3.94-1.84,6.95-5.94,2.36-3.28,3.81-5.59,4.37-6.92,.56-1.33,1.03-1.97,1.42-1.92,.55,.06,.82,.42,.81,1.09-.04,.75-.63,2.18-1.77,4.29-1.14,2.11-2.62,4.38-4.43,6.83-1.8,2.44-3.71,4.56-5.73,6.32-2.01,1.77-3.91,2.71-5.68,2.78-1.77-.05-3-.61-3.72-1.7-.71-1.1-1.05-2.43-1.03-3.98,.02-1.92,.42-4.41,1.21-7.47,.79-3.06,1.9-6.42,3.31-10.1,2.29-5.98,4.09-10.69,5.4-14.11,1.3-3.43,2.22-6.05,2.75-7.87,.53-1.81,.79-3.29,.77-4.42-.1-2.29-.95-3.42-2.55-3.39-2.7,.08-6.15,2.49-10.36,7.23-4.21,4.75-8.59,11.33-13.15,19.77-1.11,2.11-2.34,4.66-3.67,7.64-1.33,2.98-2.55,5.84-3.65,8.58-1.1,2.74-1.87,4.8-2.29,6.18-.31,1.12-.58,1.85-.82,2.2-.24,.34-.66,.5-1.26,.47"/>
            <path d="M963.4,832.09h-7.29l.8-2.91h7.53l5.1-15.99c.22-1.05,.62-1.71,1.2-1.97,.58-.26,2.12-.37,4.59-.33,.73,0,1.18,.04,1.38,.12,.19,.09,.27,.24,.25,.48,0,.42-.13,1.16-.42,2.22-.3,1.05-.82,2.78-1.56,5.17-.75,2.4-1.78,5.83-3.12,10.29h8.8l-.81,2.91h-9.03c-3.16,10.24-5.75,18.34-7.76,24.33-2.01,5.98-3.51,10.43-4.47,13.35-.96,2.92-1.43,4.89-1.42,5.92,.15,1.31,.65,1.96,1.5,1.94,.6,.02,1.36-.5,2.29-1.52,.92-1.03,2.2-2.66,3.85-4.89,1.81-2.6,3.02-4.52,3.62-5.76,.6-1.25,1.17-1.87,1.7-1.87,.51,.02,.77,.34,.81,.97-.03,.66-.62,2.05-1.77,4.15-1.14,2.11-2.62,4.4-4.43,6.89-1.8,2.48-3.71,4.64-5.73,6.46-2.01,1.81-3.91,2.76-5.68,2.85-2.47-.12-3.66-1.7-3.59-4.72-.03-1.92,.34-4.5,1.12-7.73,.79-3.24,2.17-8,4.16-14.3,1.99-6.29,4.78-14.98,8.38-26.06"/>
            <path d="M982.49,869.09c.02,4.82,.73,8.35,2.14,10.6,1.41,2.25,3.4,3.35,5.97,3.33,2.37-.09,4.71-1.4,7.01-3.94,2.3-2.54,4.4-5.81,6.29-9.8,1.88-3.99,3.39-8.2,4.53-12.62,1.13-4.43,1.71-8.56,1.73-12.4-.16-9.52-2.85-14.2-8.11-14.05-2.37,.09-4.71,1.41-7.02,3.97-2.3,2.55-4.4,5.83-6.29,9.84-1.89,4.01-3.4,8.23-4.53,12.66-1.13,4.43-1.71,8.57-1.73,12.41m-6.25-4.36c.06-5.91,1.25-11.72,3.58-17.4,2.33-5.69,5.44-10.41,9.32-14.17,3.89-3.76,8.19-5.71,12.92-5.85,4.55,.07,8.07,1.98,10.57,5.75,2.49,3.77,3.76,8.95,3.79,15.57-.06,5.87-1.25,11.65-3.58,17.32-2.33,5.67-5.44,10.39-9.32,14.14-3.89,3.76-8.19,5.71-12.92,5.85-4.55-.07-8.07-1.97-10.57-5.69-2.49-3.73-3.76-8.9-3.79-15.5"/>
            <path d="M1067.12,878.66l.34,.24c1.31-1.91,3.35-4.96,6.11-9.14,2.75-4.18,5.32-8.7,7.7-13.57,2.37-4.87,3.63-9.29,3.79-13.26-.09-1.44-.48-3.05-1.16-4.83-.68-1.79-1.06-3.49-1.16-5.1,.02-1.6,.36-2.88,1.03-3.85,.67-.96,1.56-1.45,2.68-1.48,1.48,.02,2.51,.7,3.1,2.02,.58,1.33,.86,3.16,.84,5.48,.05,3.4-.78,7.45-2.48,12.14-1.71,4.7-4.63,10.48-8.74,17.34-4.12,6.86-9.76,15.25-16.92,25.15-3,4.26-5.58,7.72-7.76,10.42-3.01,3.68-5.62,6.22-7.81,7.6-2.2,1.38-4.34,2.04-6.43,1.97-2.13-.06-3.69-.82-4.68-2.29-.99-1.47-1.48-3.29-1.46-5.47,.02-1.21,.36-2.3,1.04-3.28,.68-.98,1.6-1.5,2.78-1.56,1.02-.03,1.79,.37,2.32,1.21,.52,.84,.95,2.34,1.27,4.48,.14,.84,.47,1.43,.99,1.79,.51,.35,1.07,.52,1.68,.51,1.65-.12,3.21-.85,4.68-2.19,1.48-1.35,2.7-2.59,3.65-3.74,1.91-2.15,3.6-4.93,5.1-8.34,1.5-3.42,2.5-6.88,3.01-10.43,.29-2.27,.5-5,.62-8.2,.13-3.19,.19-7.04,.19-11.54,0-8.12-.12-14.13-.39-18.06-.26-3.91-.67-6.46-1.22-7.63-.54-1.17-1.24-1.69-2.09-1.57-.89,0-1.76,.54-2.59,1.62-.82,1.08-1.78,2.68-2.85,4.8-1.14,2.28-1.94,4.09-2.38,5.44-.44,1.35-1,2.04-1.67,2.08-.7,.05-1.04-.43-1.04-1.45,.02-.44,.4-1.6,1.15-3.47,.75-1.87,1.75-3.94,3.02-6.22,1.26-2.28,2.67-4.26,4.23-5.94,1.56-1.69,3.16-2.57,4.79-2.65,2.54-.09,4.39,1.48,5.56,4.69,1.17,3.22,1.75,8.6,1.73,16.14,0,4.39-.02,8.25-.05,11.58-.03,3.34-.09,6.48-.17,9.41-.09,2.93-.21,5.99-.36,9.16"/>
            <path d="M1157.97,878.74l-16.21-61.77h-.23c-3.91,12.38-7.05,22.44-9.43,30.17-2.38,7.72-4.18,13.68-5.39,17.86-1.21,4.18-2.03,7.13-2.44,8.86-.4,1.73-.6,2.8-.57,3.19-.05,1.31,.37,2.32,1.28,2.99,.9,.68,2.6,1.14,5.1,1.36,.85,.05,1.35,.57,1.5,1.58,.04,.93-.5,1.37-1.62,1.33-1.19-.02-2.55-.1-4.1-.24-1.55-.14-3.46-.23-5.74-.24-2.09,.02-3.82,.1-5.18,.24-1.37,.14-2.69,.23-3.97,.24-.87,0-1.34-.48-1.39-1.45,.04-.84,.54-1.33,1.5-1.45,2.3-.19,4.02-.57,5.17-1.12,1.15-.56,2.05-1.57,2.72-3.04,.67-1.47,1.44-3.67,2.31-6.61,5.54-17.76,9.83-31.33,12.87-40.73,3.03-9.4,4.57-14.92,4.61-16.56,.05-.86-.16-1.45-.64-1.77-.47-.33-1.49-.7-3.07-1.14-1.29-.24-1.95-.72-1.97-1.45-.06-.96,.4-1.45,1.38-1.45,1.99,.09,4.15,.16,6.49,.24,2.2-.08,4.17-.16,5.9-.24,.3-.11,.62,.47,.97,1.74,.34,1.28,.98,3.91,1.92,7.92,.94,4.01,2.45,10.05,4.54,18.14,2.08,8.08,5,18.89,8.78,32.4h.23c4.77-16.36,8.42-29.09,10.97-38.19,2.54-9.09,3.83-14.13,3.85-15.11,.04-1.2-.22-2.11-.79-2.72-.56-.62-1.69-1.05-3.38-1.28-1.91-.1-2.84-.62-2.78-1.57-.06-.81,.52-1.25,1.73-1.34,2.84,.16,5.97,.33,9.38,.49,1.77-.02,3.11-.1,4.01-.25,.89-.14,1.8-.22,2.71-.24,.89,.02,1.31,.47,1.28,1.34-.03,.56-.33,.92-.89,1.06-.56,.14-1.23,.31-2.01,.51-1.37,.34-2.54,1.02-3.52,2.05-.97,1.02-1.88,2.89-2.73,5.59-4.66,15.04-8.29,27.06-10.89,36.03-2.61,8.97-4.52,15.67-5.74,20.09-1.22,4.43-2.1,7.33-2.63,8.72-.54,1.39-1.06,2.02-1.58,1.9-.58,.05-.96-.36-1.16-1.21-.2-.86-.58-2.47-1.16-4.85"/>
            <path d="M1186.95,873.45c0,1.6,.27,2.89,.84,3.85,.57,.96,1.49,1.45,2.75,1.49,2.22-.16,4.97-1.99,8.22-5.49,3.26-3.49,6.51-7.72,9.76-12.68,3.24-4.96,5.95-9.7,8.14-14.23,2.19-4.53,3.32-7.9,3.41-10.12-.16-3.77-1.93-5.67-5.32-5.69-2.98,.12-6.08,1.76-9.28,4.9-3.2,3.14-6.21,7.05-9,11.72-2.8,4.68-5.07,9.4-6.81,14.14-1.74,4.75-2.64,8.78-2.7,12.11m42.38-43.6l-11.23,35.37c-1.07,3.42-1.74,5.82-2.04,7.22-.3,1.4-.43,2.39-.39,2.96,.08,1.23,.5,1.79,1.27,1.7,.51,.03,1.35-.61,2.5-1.94,1.16-1.33,2.72-3.56,4.68-6.67,1.35-2.26,2.16-3.83,2.45-4.69,.29-.87,.67-1.28,1.14-1.24,.56,.02,.83,.34,.81,.97-.04,.93-.62,2.54-1.77,4.84-1.14,2.29-2.62,4.73-4.44,7.34-1.83,2.6-3.78,4.83-5.86,6.7-2.08,1.87-4.08,2.84-6,2.93-1.3-.03-2.15-.46-2.56-1.28-.41-.82-.61-1.85-.57-3.09,0-2.03,.55-4.87,1.68-8.53,1.12-3.65,2.84-9.01,5.15-16.06l-.23-.24c-1.07,1.77-2.65,4.22-4.72,7.37-2.07,3.15-4.41,6.39-7.02,9.72-2.61,3.34-5.25,6.16-7.94,8.48-2.69,2.31-5.2,3.52-7.52,3.63-2.64-.05-4.5-1.05-5.59-2.99-1.1-1.94-1.63-4.54-1.59-7.79,.07-5.38,1.24-10.76,3.51-16.16,2.26-5.4,5.19-10.35,8.76-14.87,3.58-4.52,7.37-8.15,11.37-10.9,4-2.75,7.78-4.15,11.33-4.23,2.78,.06,5.32,1.03,7.64,2.91l1.16-2.91c.15-.47,.34-.79,.59-.96,.25-.18,.71-.26,1.38-.24h3.36c.73-.09,1.12,.19,1.16,.84-.04,.49-.19,1.1-.47,1.82"/>
            <path d="M1246.29,832.09h-7.3l.81-2.91h7.53l5.1-15.99c.22-1.05,.62-1.71,1.2-1.97,.58-.26,2.12-.37,4.59-.33,.72,0,1.18,.04,1.38,.12,.19,.09,.27,.24,.24,.48,.02,.42-.12,1.16-.42,2.22-.29,1.05-.81,2.78-1.55,5.17-.75,2.4-1.78,5.83-3.12,10.29h8.8l-.81,2.91h-9.03c-3.16,10.24-5.75,18.34-7.76,24.33-2.01,5.98-3.51,10.43-4.47,13.35-.96,2.92-1.44,4.89-1.43,5.92,.16,1.31,.66,1.96,1.51,1.94,.6,.02,1.36-.5,2.29-1.52,.92-1.03,2.2-2.66,3.85-4.89,1.81-2.6,3.02-4.52,3.62-5.76,.6-1.25,1.17-1.87,1.7-1.87,.51,.02,.77,.34,.81,.97-.03,.66-.62,2.05-1.77,4.15-1.14,2.11-2.62,4.4-4.43,6.89-1.8,2.48-3.71,4.64-5.73,6.46-2.01,1.81-3.91,2.76-5.68,2.85-2.47-.12-3.66-1.7-3.59-4.72-.03-1.92,.35-4.5,1.13-7.73,.79-3.24,2.17-8,4.16-14.3,1.99-6.29,4.78-14.98,8.38-26.06"/>
            <path d="M1295.37,857.83l-.23-.24c-2.3,3.61-5.1,7.5-8.39,11.66-3.29,4.16-6.71,7.75-10.24,10.75-3.54,3-6.82,4.57-9.86,4.71-3.23-.08-4.89-1.98-4.99-5.69,.08-2.5,.82-5.9,2.25-10.18,1.42-4.28,3.07-8.75,4.93-13.41,1.87-4.65,3.52-8.81,4.94-12.45,1.42-3.65,2.17-6.08,2.24-7.33,.08-.94-.31-1.47-1.16-1.57-1.01,.07-2.17,.79-3.49,2.15-1.31,1.37-2.62,2.99-3.92,4.88-1.91,2.82-3.22,4.84-3.95,6.08-.73,1.22-1.27,1.83-1.61,1.8-.69-.02-1.04-.34-1.04-.96,.04-.46,.65-1.73,1.84-3.82,1.18-2.08,2.71-4.4,4.58-6.96,1.87-2.57,3.85-4.79,5.94-6.7,2.09-1.9,4.08-2.89,5.94-2.99,2.88-.16,4.3,1.62,4.29,5.33-.08,1.77-.82,4.66-2.25,8.68-1.42,4.01-3.06,8.39-4.93,13.12-1.87,4.73-3.52,9.05-4.94,12.94-1.42,3.9-2.16,6.61-2.24,8.14,.13,1.71,.91,2.52,2.32,2.42,1.98-.03,5-1.91,9.05-5.62,4.05-3.72,8.28-9.09,12.73-16.13,4.44-7.03,8.26-15.53,11.45-25.49,.17-.82,.49-1.35,.96-1.6,.46-.25,1.42-.36,2.86-.33,1.35,0,2.24,.09,2.66,.29,.43,.19,.62,.51,.58,.93-.04,.38-.56,2.01-1.56,4.85-1,2.85-2.23,6.36-3.7,10.52-1.48,4.15-2.95,8.39-4.43,12.7-1.47,4.31-2.71,8.12-3.7,11.42-1,3.3-1.51,5.52-1.56,6.66,.09,1.15,.51,1.76,1.28,1.82,.57,.05,1.46-.47,2.7-1.56,1.23-1.08,2.88-3.03,4.95-5.83,1.81-2.57,2.99-4.42,3.53-5.52,.54-1.11,1.02-1.65,1.45-1.63,.64-.06,.98,.3,1.04,1.1-.04,.57-.64,1.88-1.81,3.94-1.17,2.05-2.69,4.31-4.57,6.78-1.88,2.47-3.91,4.61-6.08,6.42-2.16,1.81-4.26,2.76-6.29,2.85-1.21-.04-2.12-.47-2.71-1.3-.59-.82-.88-1.8-.88-2.93,.04-2.49,.62-5.63,1.75-9.42s2.55-8.2,4.27-13.23"/>
            <path d="M1323.51,883.79h-5.67c.73-2.92,1.72-6.78,2.96-11.61,1.24-4.82,2.51-9.79,3.81-14.9,1.29-5.13,2.39-9.6,3.28-13.43,.89-3.84,1.36-6.22,1.4-7.17,.12-1.15-.23-1.76-1.04-1.82-1.58,.12-3.63,2.3-6.13,6.54-1.48,2.73-2.33,4.57-2.55,5.55-.23,.96-.73,1.42-1.51,1.36-.64,0-.98-.37-1.03-1.09,.02-.51,.47-1.73,1.35-3.67,.89-1.94,2.05-4.08,3.52-6.42,1.46-2.34,3.07-4.37,4.84-6.09,1.77-1.73,3.55-2.64,5.34-2.71,3.04,.04,4.59,1.77,4.63,5.2,.02,1.15-.36,3.34-1.11,6.56-.75,3.22-1.97,8.22-3.63,15.01l.23,.24c4.38-10.21,8.19-17.43,11.43-21.64,3.23-4.2,6.02-6.23,8.38-6.1,1.38,.02,2.38,.58,3.01,1.68,.63,1.1,.93,2.6,.93,4.5-.1,3.56-.86,6.35-2.26,8.39-1.41,2.05-2.85,3.08-4.34,3.13-1.7,.12-2.59-.85-2.67-2.91,.08-1.32,.39-2.4,.93-3.24,.54-.83,.85-1.86,.93-3.06,.06-1.19-.4-1.84-1.39-1.94-.82,.03-2.35,1.85-4.57,5.46-2.22,3.62-4.81,8.83-7.76,15.64-2.96,6.81-5.94,15.04-8.97,24.68-.5,1.64-.89,2.71-1.21,3.2-.3,.5-.68,.72-1.11,.67"/>
            <path d="M1360.47,873.45c0,1.6,.27,2.89,.84,3.85,.57,.96,1.49,1.45,2.75,1.49,2.22-.16,4.97-1.99,8.22-5.49,3.26-3.49,6.51-7.72,9.75-12.68,3.24-4.96,5.96-9.7,8.14-14.23,2.19-4.53,3.32-7.9,3.41-10.12-.16-3.77-1.93-5.67-5.32-5.69-2.98,.12-6.08,1.76-9.28,4.9-3.2,3.14-6.21,7.05-9,11.72-2.8,4.68-5.07,9.4-6.81,14.14-1.74,4.75-2.64,8.78-2.7,12.11m42.38-43.6l-11.23,35.37c-1.06,3.42-1.74,5.82-2.04,7.22-.3,1.4-.43,2.39-.39,2.96,.08,1.23,.5,1.79,1.27,1.7,.51,.03,1.35-.61,2.5-1.94,1.17-1.33,2.72-3.56,4.68-6.67,1.35-2.26,2.16-3.83,2.45-4.69,.29-.87,.67-1.28,1.14-1.24,.56,.02,.83,.34,.81,.97-.04,.93-.62,2.54-1.77,4.84-1.14,2.29-2.62,4.73-4.44,7.34-1.83,2.6-3.77,4.83-5.86,6.7-2.08,1.87-4.08,2.84-6,2.93-1.3-.03-2.15-.46-2.56-1.28-.41-.82-.61-1.85-.57-3.09,0-2.03,.55-4.87,1.68-8.53,1.12-3.65,2.84-9.01,5.15-16.06l-.23-.24c-1.07,1.77-2.65,4.22-4.72,7.37-2.07,3.15-4.4,6.39-7.02,9.72-2.61,3.34-5.25,6.16-7.94,8.48-2.69,2.31-5.2,3.52-7.52,3.63-2.64-.05-4.5-1.05-5.59-2.99-1.1-1.94-1.63-4.54-1.59-7.79,.07-5.38,1.24-10.76,3.51-16.16,2.26-5.4,5.19-10.35,8.77-14.87,3.57-4.52,7.36-8.15,11.37-10.9,4.01-2.75,7.78-4.15,11.33-4.23,2.78,.06,5.32,1.03,7.64,2.91l1.16-2.91c.15-.47,.34-.79,.59-.96,.25-.18,.71-.26,1.38-.24h3.36c.73-.09,1.12,.19,1.16,.84-.04,.49-.19,1.1-.47,1.82"/>
            <path d="M1406.77,878.72c.05-2.14,.64-5.69,1.78-10.66,1.14-4.97,2.56-10.6,4.26-16.9,1.69-6.3,3.38-12.51,5.07-18.63,1.69-6.13,3.1-11.41,4.25-15.86,1.14-4.44,1.73-7.3,1.78-8.56,.04-.79-.16-1.45-.57-1.95-.41-.51-1.26-.82-2.56-.96-1.07-.11-1.79-.28-2.15-.51-.37-.23-.54-.58-.51-1.06,.23-.86,1.38-1.31,3.47-1.33,2.61-.05,4.76-.4,6.45-1.07,1.68-.66,2.99-1.32,3.9-1.98,.92-.66,1.52-1.02,1.81-1.07,.56-.05,.83,.28,.81,.96-.02,.32-.26,1.07-.71,2.29-.44,1.21-.94,2.78-1.49,4.74-3.41,12.63-6.24,23.05-8.48,31.25-2.23,8.2-4.01,14.69-5.33,19.46-1.31,4.78-2.28,8.34-2.91,10.7-.63,2.36-1.03,4.02-1.22,4.98-.18,.96-.26,1.73-.24,2.29-.02,1.84,.48,2.76,1.5,2.78,.76,.07,1.62-.4,2.57-1.44,.96-1.03,2.34-3.06,4.14-6.08,1.56-2.73,2.62-4.83,3.21-6.28,.58-1.45,1.1-2.19,1.55-2.19,.56,.05,.83,.42,.81,1.09-.02,.58-.54,2.01-1.52,4.28-.99,2.27-2.31,4.78-3.96,7.53-1.66,2.75-3.49,5.13-5.51,7.16-2.01,2.03-4.07,3.09-6.15,3.19-1.59-.04-2.67-.63-3.24-1.77-.58-1.14-.84-2.61-.81-4.4"/>
            <path d="M1460.66,829.48c-2.06,0-4.35,1.07-6.86,3.21-2.5,2.13-4.88,5.3-7.12,9.51-2.24,4.2-3.98,9.41-5.24,15.64,7.5-1.4,12.92-3.69,16.25-6.86,3.33-3.18,5.38-6.36,6.16-9.53,.79-3.18,1.11-5.47,.97-6.87,0-1.49-.35-2.69-1.04-3.63-.69-.94-1.73-1.42-3.13-1.45m10.42,8c.09,6.31-2.26,11.37-7.02,15.2-4.77,3.83-12.46,6.35-23.09,7.57-.6,2.4-.91,4.99-.93,7.76,.12,7.75,2.43,11.63,6.95,11.63,4.61-.02,9.51-3.62,14.7-10.78,1.25-1.85,2.05-3.15,2.39-3.89,.34-.75,.71-1.1,1.09-1.08,.54,0,.85,.37,.93,1.1-.03,.73-.78,2.35-2.23,4.87-1.45,2.52-3.41,5.18-5.87,7.97-1.84,2.07-4.03,3.84-6.54,5.31-2.51,1.48-5.04,2.25-7.58,2.32-7.34,.12-11.08-5.81-11.23-17.81,.13-7.48,1.71-14.24,4.74-20.31,3.03-6.06,6.73-10.89,11.09-14.49,4.37-3.6,8.63-5.45,12.77-5.53,3.55,.14,6.08,1.26,7.61,3.36,1.52,2.11,2.27,4.38,2.23,6.81"/>
            <path d="M1489.12,827.29c1.22,.04,2.51,.42,3.9,1.15,1.38,.73,2.82,1.6,4.33,2.61,1.45,.95,2.94,1.8,4.46,2.56,1.52,.75,3,1.15,4.46,1.19,1.77,.03,2.89-.26,3.38-.89,.47-.62,1.17-1.74,2.07-3.35,.58-.96,1.24-1.8,1.99-2.56,.75-.75,1.59-1.16,2.52-1.2,.32-.02,.64,.07,.97,.26,.33,.19,.51,.54,.53,1.07-.1,1.7-1.04,3.28-2.82,4.74-1.77,1.47-3.73,3.2-5.87,5.2-2.14,2.19-4.47,4.93-7.01,8.21-2.54,3.28-5.65,7.23-9.33,11.87-3.68,4.64-8.31,10.1-13.89,16.38l.23,.24c.85-.24,1.84-.43,3-.54,1.15-.12,2.24-.19,3.26-.19,2.47,.12,4.85,.56,7.13,1.34,2.29,.77,4.57,1.22,6.88,1.33,4.25-.08,6.29-2.58,6.14-7.51-.08-2.43-.16-4.09-.23-4.96-.02-.72,.25-1.09,.81-1.09,.27-.05,.58,.36,.93,1.24,.36,.88,.54,2.57,.58,5.06-.11,4.68-1.43,8.41-3.95,11.2-2.53,2.79-5.61,4.23-9.25,4.3-1.84-.04-3.49-.42-4.95-1.15-1.46-.73-2.82-1.6-4.08-2.61-1.26-1-2.47-1.87-3.65-2.61-1.17-.73-2.39-1.11-3.65-1.14-.98,.03-1.86,.41-2.63,1.14-.78,.73-1.49,1.6-2.12,2.61-.68,.95-1.31,1.8-1.91,2.56-.59,.75-1.23,1.15-1.91,1.2-1.3-.02-1.95-.71-1.97-2.06,.09-1.71,1-3.2,2.73-4.45,1.73-1.26,3.71-2.19,5.95-2.82,.31-.09,1.31-1.38,2.98-3.88,1.67-2.5,3.91-5.72,6.71-9.64,2.79-3.93,6.01-8.05,9.68-12.39,3.66-4.33,7.62-8.38,11.9-12.12l-.23-.25c-1.93,.89-4.09,1.42-6.48,1.58-2.98-.14-5.74-.71-8.3-1.7-2.55-.99-4.77-1.56-6.64-1.7-3.72-.14-5.66,2.81-5.79,8.84,.02,1.59-.02,2.63-.12,3.11-.09,.47-.37,.69-.81,.65-.79-.04-1.17-.81-1.16-2.3-.02-2.75,.3-5.53,.99-8.35,.68-2.82,1.83-5.2,3.47-7.15,1.65-1.94,3.91-2.94,6.78-3.03"/>
            <path d="M1521.11,873.45c0,1.6,.27,2.89,.84,3.85,.57,.96,1.49,1.45,2.75,1.49,2.22-.16,4.97-1.99,8.22-5.49,3.26-3.49,6.51-7.72,9.75-12.68,3.24-4.96,5.96-9.7,8.14-14.23,2.19-4.53,3.32-7.9,3.41-10.12-.16-3.77-1.93-5.67-5.32-5.69-2.98,.12-6.08,1.76-9.28,4.9-3.2,3.14-6.21,7.05-9,11.72-2.8,4.68-5.07,9.4-6.81,14.14-1.74,4.75-2.64,8.78-2.7,12.11m42.38-43.6l-11.23,35.37c-1.07,3.42-1.74,5.82-2.04,7.22-.3,1.4-.43,2.39-.39,2.96,.08,1.23,.5,1.79,1.27,1.7,.51,.03,1.35-.61,2.5-1.94,1.16-1.33,2.72-3.56,4.68-6.67,1.35-2.26,2.16-3.83,2.45-4.69,.29-.87,.67-1.28,1.14-1.24,.56,.02,.83,.34,.81,.97-.04,.93-.62,2.54-1.77,4.84-1.14,2.29-2.62,4.73-4.44,7.34-1.83,2.6-3.78,4.83-5.86,6.7-2.08,1.87-4.08,2.84-6,2.93-1.3-.03-2.15-.46-2.56-1.28-.41-.82-.61-1.85-.57-3.09,0-2.03,.55-4.87,1.68-8.53,1.12-3.65,2.84-9.01,5.15-16.06l-.23-.24c-1.07,1.77-2.65,4.22-4.72,7.37-2.07,3.15-4.41,6.39-7.02,9.72-2.61,3.34-5.25,6.16-7.94,8.48-2.69,2.31-5.2,3.52-7.53,3.63-2.62-.05-4.49-1.05-5.59-2.99-1.1-1.94-1.63-4.54-1.59-7.79,.08-5.38,1.24-10.76,3.52-16.16,2.26-5.4,5.19-10.35,8.76-14.87,3.58-4.52,7.37-8.15,11.37-10.9,4-2.75,7.78-4.15,11.33-4.23,2.78,.06,5.32,1.03,7.64,2.91l1.16-2.91c.15-.47,.35-.79,.59-.96,.25-.18,.71-.26,1.38-.24h3.36c.73-.09,1.12,.19,1.16,.84-.04,.49-.19,1.1-.47,1.82"/>
          </g>
        </g>
      </g>
    </g>
  </g>
</svg>