<?xml version="1.0" encoding="UTF-8"?>
<svg id="Layer_2" data-name="Layer 2" xmlns="http://www.w3.org/2000/svg" viewBox="0 0 2560 533.69">
  <g id="Isotipos-UACh">
    <g id="Logo-UACh-Horizontal-Negro">
      <rect width="2560" height="533.69" style="fill: none;"/>
      <g>
        <g>
          <polygon points="370.95 146.95 383.81 136.84 397.89 146.57 370.95 146.95" style="fill-rule: evenodd;"/>
          <polygon points="388.34 133.15 403.09 121.62 401.58 142.41 388.34 133.15" style="fill-rule: evenodd;"/>
          <polygon points="379.27 133.53 365.39 144.17 364.43 123.03 379.27 133.53" style="fill-rule: evenodd;"/>
          <path d="M383.71,129.93c0,.28-14.94-10.68-14.94-10.68l31.01-1.89s-16.07,12.29-16.07,12.57Z" style="fill-rule: evenodd;"/>
          <path d="M339.8,285.97l-8.22-5.13-8.22,5.13,2.34-9.41-7.42-6.23,9.67-.68,3.63-8.99,3.63,8.99,9.67,.68-7.42,6.23,2.34,9.41Zm0,30.29l-8.22-5.13-8.22,5.13,2.34-9.41-7.42-6.23,9.67-.68,3.63-8.99,3.63,8.99,9.67,.68-7.42,6.23,2.34,9.41Zm0,30.29l-8.22-5.13-8.22,5.13,2.34-9.41-7.42-6.23,9.67-.68,3.63-8.99,3.63,8.99,9.67,.68-7.42,6.23,2.34,9.41Zm0,30.29l-8.22-5.13-8.22,5.13,2.34-9.41-7.42-6.23,9.67-.68,3.63-8.99,3.63,8.99,9.67,.68-7.42,6.23,2.34,9.41Zm79.31-90.88l-8.22-5.13-8.22,5.13,2.34-9.41-7.42-6.23,9.67-.68,3.63-8.99,3.63,8.99,9.67,.68-7.42,6.23,2.34,9.41Zm0,30.29l-8.22-5.13-8.22,5.13,2.34-9.41-7.42-6.23,9.67-.68,3.63-8.99,3.63,8.99,9.67,.68-7.42,6.23,2.34,9.41Zm0,30.29l-8.22-5.13-8.22,5.13,2.34-9.41-7.42-6.23,9.67-.68,3.63-8.99,3.63,8.99,9.67,.68-7.42,6.23,2.34,9.41Zm0,30.29l-8.22-5.13-8.22,5.13,2.34-9.41-7.42-6.23,9.67-.68,3.63-8.99,3.63,8.99,9.67,.68-7.42,6.23,2.34,9.41Zm-38.6-90.88l-8.22-5.13-8.22,5.13,2.34-9.41-7.42-6.23,9.67-.68,3.63-8.99,3.63,8.99,9.67,.68-7.42,6.23,2.34,9.41Zm0,30.29l-8.22-5.13-8.22,5.13,2.34-9.41-7.42-6.23,9.67-.68,3.63-8.99,3.63,8.99,9.67,.68-7.42,6.23,2.34,9.41Zm0,30.29l-8.22-5.13-8.22,5.13,2.34-9.41-7.42-6.23,9.67-.68,3.63-8.99,3.63,8.99,9.67,.68-7.42,6.23,2.34,9.41Zm0,30.29l-8.22-5.13-8.22,5.13,2.34-9.41-7.42-6.23,9.67-.68,3.63-8.99,3.63,8.99,9.67,.68-7.42,6.23,2.34,9.41Zm0,30.29l-8.22-5.13-8.22,5.13,2.34-9.41-7.42-6.23,9.67-.68,3.63-8.99,3.63,8.99,9.67,.68-7.42,6.23,2.34,9.41ZM560.27,82.2c.82,.59,1.17,1.44,1.6,2.46l2.26,5.38c.9,2.11,1.33,3.28,1.83,3.47,.86,.35,1.64,.31,1.64,.9,0,.35-.19,.39-.66,.39-.66,0-1.48-.12-2.38-.12-.58,0-1.13,.12-1.72,.12-.78,0-.86-.43-1.21-1.29l-3.51-8.85c-.55-1.36-.97-1.75-2.18-1.75h-.39c-.31,0-.51,.23-.51,.55v7.68c0,1.52,.04,2.46,1.72,2.46,.62,0,.86,.19,.86,.66,0,.31-.31,.55-.78,.55-.39,0-1.52-.23-3.55-.23s-3.24,.23-3.7,.23c-.55,0-.82-.23-.82-.62,0-.74,.78-.47,1.52-.66,1.25-.31,1.25-.7,1.25-2.38v-17.86c0-1.25-.08-1.56-.86-1.79-1.01-.27-1.83,.08-1.83-.7,0-.51,.35-.55,1.05-.55,.31,0,1.21,.16,2.57,.16,1.95,0,3.82-.23,5.58-.23,4.17,0,6.4,2.42,6.4,6.04,0,3.12-1.6,5.42-4.17,6.01Zm-5.23-1.4c0,.82,.47,.9,1.79,.9,2.65,0,4.06-1.72,4.06-4.95s-1.36-5.3-3.9-5.3c-1.79,0-1.95,.66-1.95,1.95v7.41Zm-22.07-7.53v13.61c0,4.76,.94,7.25,5.07,7.25,2.07,0,3.63-.74,4.56-2.07,.94-1.4,.98-3.28,.98-5.97v-9.44c0-2.96-.04-4.48-.7-5.03-.7-.55-2.11,0-2.11-.86,0-.35,.23-.55,.66-.55,.47,0,1.33,.12,2.65,.12,1.4,0,2.3-.12,2.69-.12,.55,0,.82,.16,.82,.55,0,.47-.35,.55-1.13,.55-1.64,0-1.72,1.33-1.72,5.23v9.59c0,2.69-.04,4.72-1.05,6.47-1.09,1.87-3.28,2.92-6.28,2.92-3.31,0-5.54-.86-6.86-2.81-1.05-1.52-1.13-3.39-1.13-5.77v-13.69c0-1.29-.04-1.56-.86-1.79-1.01-.31-1.79,.08-1.79-.7,0-.31,.23-.55,.58-.55,.39,0,1.64,.31,3.86,.31s3.47-.31,3.86-.31,.58,.23,.58,.55c0,.82-.9,.43-1.83,.7-.78,.23-.86,.55-.86,1.79Zm-7.22-3.59l-.23,5.15c-.04,.86-.16,1.09-.55,1.09-.7,0-.66-1.09-1.13-2.61-.7-1.68-1.83-1.91-4.21-1.91h-.62c-.31,0-.51,.35-.51,.62v19.11c0,1.64,.04,1.99,1.05,2.34,.9,.31,1.72-.08,1.72,.78,0,.31-.27,.55-.82,.55-.82,0-2.07-.27-3.7-.27s-2.89,.27-3.7,.27c-.55,0-.82-.23-.82-.62,0-.78,.86-.43,1.72-.7,1.01-.31,1.05-.66,1.05-2.34v-18.99c0-.31-.2-.74-.51-.74h-1.09c-1.6,0-2.53,.62-3.51,1.87-.94,1.56-1.29,2.5-1.91,2.5-.27,0-.43-.04-.43-.55,0-.04,.08-.35,.16-.66l.97-3.98c.27-1.17,.27-1.99,.78-1.99,.47,0,.43,1.29,.9,1.33,.27,.27,.9,.35,1.83,.35,.74,0,1.68-.04,2.81-.04h4.8c1.29,0,2.3,.08,3.04,.08,.58,0,1.01-.04,1.25-.2,.7-.43,.86-1.56,1.25-1.56,.31,0,.43,.47,.43,.7v.43Zm-22.1,3.59v17.86c0,1.64,.04,2.03,1.05,2.34,.9,.27,1.72-.08,1.72,.78,0,.31-.27,.55-.82,.55-.47,0-1.68-.23-3.7-.23s-3.24,.23-3.7,.23c-.55,0-.82-.23-.82-.62,0-.74,.78-.47,1.52-.66,1.25-.31,1.25-.7,1.25-2.38v-17.86c0-1.25-.08-1.56-.86-1.79-1.01-.27-1.83,.08-1.83-.7,0-.31,.19-.55,.58-.55s1.64,.31,3.86,.31,3.43-.31,3.86-.31c.35,0,.58,.23,.58,.55,0,.7-.7,.47-1.68,.66-.97,.2-1.01,.58-1.01,1.83Zm-15.53,10.29l-.62-.27c-.12-.04-.2-.08-.27-.08-.31,0-.35,.23-.35,.74v7.29c0,1.33,.04,1.79,.78,2.14,.97,.43,1.87-.08,1.87,.86,0,.31-.31,.58-.82,.58s-1.75-.27-3.7-.27c-1.83,0-3,.27-3.55,.27-.35,0-.58-.11-.7-.3-.09,.23-.33,.3-.78,.3-.66,0-1.72-.23-3.28-.23-2.18,0-3.51,.2-4.02,.2-.47,0-.66-.12-.66-.47s.31-.62,.78-.62c1.29,0,1.6-.23,1.6-.94,0-.35-.12-.94-.35-1.75l-1.52-4.99c-.08-.27-.27-.31-.58-.31h-4.84c-.16,0-.39,.16-.43,.35l-.94,3.47c-.39,1.52-.58,2.53-.58,3,0,.78,.31,.94,1.01,1.05,1.05,.16,1.56,.27,1.56,.86,0,.35-.23,.47-.66,.47-.55,0-1.72-.23-3.39-.23-1.13,0-2.03,.2-2.57,.2-.47,0-.7-.2-.7-.51,0-.82,1.17-.31,1.95-.9,.7-.51,.97-1.48,1.4-2.89l6.2-20.12c.19-.58,.23-.94,.66-.94,.55,0,.58,.74,.94,1.83l5.89,18.56c.55,1.79,.9,2.85,1.91,3.51,.57,.39,1.12,.41,1.34,.61,.11-.53,.79-.32,1.47-.5,1.17-.31,1.17-.94,1.17-2.69v-17.59c0-1.13-.08-1.52-.82-1.75-.97-.31-1.75,.04-1.75-.74,0-.39,.27-.55,.74-.55,.19,0,1.21,.12,3.08,.12h.62c.9,0,2.18-.08,3.9-.08,4.52,0,6.78,2.42,6.78,7.14,0,3.94-2.46,6.86-5.34,6.86-.7,0-1.48-.27-2.42-.7Zm-1.29-2.73c0,1.13,1.05,1.68,2.03,1.68,1.75,0,3.35-2.07,3.35-5.3,0-3.51-1.68-5.85-3.55-5.85-1.6,0-1.83,.55-1.83,1.91v7.56Zm-17.2-4.09c-.08-.23-.16-.35-.23-.35s-.2,.12-.23,.31l-1.83,6.9c-.04,.2-.04,.35-.04,.39,0,.12,.12,.23,.27,.23h3.9c.16,0,.35-.16,.35-.31,0-.12-.04-.23-.08-.39l-2.11-6.78Zm-27.6,5.73c0-7.25,5.23-12.95,11.74-12.95,2.85,0,5.3,.9,5.77,1.44,.27,.27,.51,1.72,.51,4.02,0,.43-.12,.7-.31,.7-.35,0-.7-.58-1.29-1.56-1.4-2.3-2.81-3.55-4.84-3.55-4.21,0-7.56,4.8-7.56,12.09,0,6.75,3.35,11.62,7.21,11.62,2.42,0,3.98-1.33,5.19-4.02,.62-1.4,.9-2.22,1.36-2.22,.23,0,.43,.27,.43,.82,0,.31-.12,1.44-.12,3.31s-2.77,3.35-6.71,3.35c-6.55,0-11.39-5.73-11.39-13.06Zm-24.14-6.16c0-4.02,2.65-6.78,6.9-6.78,2.18,0,4.09,.74,4.45,1.21,.2,.23,.31,1.68,.31,4.25,0,.55-.19,.82-.51,.82-.55,0-.58-.74-1.13-2.07-.82-2.07-1.64-3.2-3.47-3.2-2.3,0-3.74,1.56-3.74,4.02,0,2.07,1.17,3.2,3.63,4.48,4.17,2.18,6.51,4.17,6.51,8.58s-3.16,7.92-7.53,7.92c-3.43,0-5.77-1.13-5.77-3.35,0-.9,.08-1.72,.08-2.46,0-.58-.04-.94-.04-1.01,0-.82,.23-1.21,.58-1.21,.7,0,.51,1.25,.94,2.73,.78,2.61,2.69,4.17,4.68,4.17,2.34,0,4.21-1.99,4.21-4.68,0-2.38-1.48-4.21-4.45-5.89-3.16-1.79-5.65-2.96-5.65-7.53Zm-12.01,.43c-.08-.23-.16-.35-.23-.35s-.19,.12-.23,.31l-1.83,6.9c-.04,.2-.04,.35-.04,.39,0,.12,.12,.23,.27,.23h3.9c.16,0,.35-.16,.35-.31,0-.12-.04-.23-.08-.39l-2.11-6.78Zm1.91-5.38l5.89,18.56c.55,1.79,.9,2.85,1.91,3.51,.74,.51,1.44,.39,1.44,.86,0,.43-.23,.55-.82,.55-.66,0-1.72-.23-3.28-.23-2.18,0-3.51,.2-4.02,.2-.47,0-.66-.12-.66-.47s.31-.62,.78-.62c1.29,0,1.6-.23,1.6-.94,0-.35-.12-.94-.35-1.75l-1.52-4.99c-.08-.27-.27-.31-.58-.31h-4.84c-.16,0-.39,.16-.43,.35l-.94,3.47c-.39,1.52-.59,2.53-.59,3,0,.78,.31,.94,1.01,1.05,1.05,.16,1.56,.27,1.56,.86,0,.35-.23,.47-.66,.47-.55,0-1.72-.23-3.39-.23-1.13,0-2.03,.2-2.57,.2-.47,0-.7-.2-.7-.51,0-.82,1.17-.31,1.95-.9,.7-.51,.97-1.48,1.4-2.89l6.2-20.12c.2-.58,.23-.94,.66-.94,.55,0,.58,.74,.94,1.83Zm-8.2-1.68l-.23,5.15c-.04,.86-.16,1.09-.55,1.09-.7,0-.66-1.09-1.13-2.61-.7-1.68-1.83-1.91-4.21-1.91h-.62c-.31,0-.51,.35-.51,.62v19.11c0,1.64,.04,1.99,1.05,2.34,.9,.31,1.72-.08,1.72,.78,0,.31-.27,.55-.82,.55-.82,0-2.07-.27-3.7-.27s-2.89,.27-3.7,.27c-.55,0-.82-.23-.82-.62,0-.78,.86-.43,1.72-.7,1.01-.31,1.05-.66,1.05-2.34v-18.99c0-.31-.2-.74-.51-.74h-1.09c-1.6,0-2.53,.62-3.51,1.87-.94,1.56-1.29,2.5-1.91,2.5-.27,0-.43-.04-.43-.55,0-.04,.08-.35,.16-.66l.98-3.98c.27-1.17,.27-1.99,.78-1.99,.47,0,.43,1.29,.9,1.33,.27,.27,.9,.35,1.83,.35,.74,0,1.68-.04,2.81-.04h4.8c1.29,0,2.3,.08,3.04,.08,.58,0,1.01-.04,1.25-.2,.7-.43,.86-1.56,1.25-1.56,.31,0,.43,.47,.43,.7v.43Zm-24.12,12.52c.82,.59,1.17,1.44,1.6,2.46l2.26,5.38c.9,2.11,1.33,3.28,1.83,3.47,.86,.35,1.64,.31,1.64,.9,0,.35-.19,.39-.66,.39-.66,0-1.48-.12-2.38-.12-.58,0-1.13,.12-1.72,.12-.78,0-.86-.43-1.21-1.29l-3.51-8.85c-.55-1.36-.97-1.75-2.18-1.75h-.39c-.31,0-.51,.23-.51,.55v7.68c0,1.52,.04,2.46,1.72,2.46,.62,0,.86,.19,.86,.66,0,.31-.31,.55-.78,.55-.39,0-1.52-.23-3.55-.23s-3.24,.23-3.7,.23c-.55,0-.82-.23-.82-.62,0-.74,.78-.47,1.52-.66,1.25-.31,1.25-.7,1.25-2.38v-17.86c0-1.25-.08-1.56-.86-1.79-1.01-.27-1.83,.08-1.83-.7,0-.51,.35-.55,1.05-.55,.31,0,1.21,.16,2.57,.16,1.95,0,3.82-.23,5.58-.23,4.17,0,6.4,2.42,6.4,6.04,0,3.12-1.6,5.42-4.17,6.01Zm-5.23-1.4c0,.82,.47,.9,1.79,.9,2.65,0,4.06-1.72,4.06-4.95s-1.36-5.3-3.9-5.3c-1.79,0-1.95,.66-1.95,1.95v7.41Zm-8.94-9.24v3.35c0,.66-.08,.97-.43,.97-.7,0-.51-1.64-1.91-2.92-1.05-.97-2.61-1.48-4.76-1.48s-2.18,.55-2.18,2.38v6.43c0,.66,0,.78,.7,.78h1.75c1.6,0,2.92-.35,3.28-.7,1.05-1.01,.55-2.38,1.36-2.38,.35,0,.47,.16,.47,.55,0,.97-.19,2.3-.19,3.86,0,1.83,.12,2.96,.12,3.31,0,.47-.2,.7-.47,.7-.66,0-.51-1.21-1.33-2.73-.62-1.17-1.64-1.29-3.28-1.29h-1.72c-.55,0-.7,.16-.7,.7v8.03c0,2.14,.51,2.5,2.81,2.5,2.42,0,3.7-.31,4.91-2.22,.94-1.44,1.25-2.69,1.87-2.69,.16,0,.39,.23,.39,.35,0,0-.04,.27-.08,.7l-.43,3.78c-.12,1.21-.08,1.36-1.21,1.36-1.6,0-4.95-.31-9.94-.31-2.3,0-3.51,.2-3.82,.2-.58,0-.86-.2-.86-.62,0-.7,.7-.47,1.68-.62,1.13-.16,1.17-.9,1.17-2.42v-17.86c0-1.17,0-1.56-.74-1.79-.86-.27-1.68,.08-1.68-.7,0-.35,.23-.55,.66-.55,.31,0,2.22,.16,5.81,.16,4.56,0,7.14-.16,7.64-.16,1.05,0,1.09,.35,1.09,1.17v.16Zm-29.06,10.76c-.31,0-.51,.2-.51,.51v7.99c0,1.99,.82,2.92,3.16,2.92,3.08,0,4.99-2.14,4.99-5.93,0-3.31-1.79-5.5-5.23-5.5h-2.42Zm6.43-.97c3.28,.66,5.11,3.04,5.11,6.67,0,4.17-2.89,7.14-7.29,7.14-2.81,0-5.11-.59-7.02-.59-1.44,0-2.42,.23-2.92,.23-.47,0-.74-.23-.74-.62,0-.43,.27-.58,.94-.58,1.17,0,1.52-.62,1.52-1.68,0-.12,.04-.35,.04-.78v-17.86c0-1.05-.35-1.52-1.05-1.52-.51,0-.98,.2-1.36,.2-.31,0-.47-.2-.47-.55,0-.78,2.46-1.21,7.29-1.21,6.51,0,9.79,1.79,9.79,6.01,0,2.57-1.21,4.17-3.82,5.15Zm-6.94-1.48c0,1.13,.04,1.21,1.21,1.21h.51c3.35,0,5.3-1.68,5.3-4.64,0-3.2-1.68-4.95-4.76-4.95-1.99,0-2.26,.47-2.26,1.87v6.51Zm-10.63-6.59v17.86c0,1.64,.04,2.03,1.05,2.34,.9,.27,1.72-.08,1.72,.78,0,.31-.27,.55-.82,.55-.47,0-1.68-.23-3.7-.23s-3.24,.23-3.7,.23c-.55,0-.82-.23-.82-.62,0-.74,.78-.47,1.52-.66,1.25-.31,1.25-.7,1.25-2.38v-17.86c0-1.25-.08-1.56-.86-1.79-1.01-.27-1.83,.08-1.83-.7,0-.31,.2-.55,.58-.55s1.64,.31,3.86,.31,3.43-.31,3.86-.31c.35,0,.58,.23,.58,.55,0,.7-.7,.47-1.68,.66-.97,.2-1.01,.58-1.01,1.83Zm-16.09,0v17.86c0,1.68,.9,2.53,2.53,2.53s2.92-.7,4.02-2.14c1.17-1.56,1.6-2.61,2.03-2.61,.16,0,.35,.2,.35,.31,0,.04,0,.31-.04,.7l-.39,3.67c-.04,.35-.08,.55-.08,.66,0,.43-.27,.66-.78,.66-1.64,0-4.8-.35-9.4-.35-2.03,0-3.24,.23-3.7,.23-.55,0-.82-.23-.82-.62,0-.74,.78-.47,1.52-.66,1.25-.31,1.25-.7,1.25-2.38v-17.86c0-1.17-.04-1.56-.78-1.79-.94-.31-1.68,.08-1.68-.7,0-.31,.2-.55,.51-.55,.39,0,1.48,.31,3.59,.31,2.34,0,3.59-.31,3.98-.31,.35,0,.58,.23,.58,.55,0,.7-.7,.47-1.68,.66-.97,.2-1.01,.58-1.01,1.83Zm261.47,192.19h3.53c.7,0,1.03,.08,1.03,.45,0,.74-1.72,.53-3.08,2.01-1.03,1.11-1.56,2.75-1.56,5s.57,2.3,2.5,2.3h6.77c.7,0,.82,0,.82-.74v-1.85c0-1.68-.37-3.08-.74-3.44-1.07-1.11-2.5-.57-2.5-1.44,0-.37,.16-.49,.57-.49,1.03,0,2.42,.21,4.06,.21,1.93,0,3.12-.12,3.49-.12,.49,0,.74,.21,.74,.49,0,.7-1.27,.53-2.87,1.39-1.23,.66-1.35,1.72-1.35,3.44v1.8c0,.57,.16,.74,.74,.74h8.45c2.26,0,2.62-.53,2.62-2.95,0-2.54-.33-3.9-2.34-5.17-1.52-.98-2.83-1.31-2.83-1.97,0-.16,.25-.41,.37-.41,0,0,.29,.04,.74,.08l3.98,.45c1.27,.12,1.44,.08,1.44,1.27,0,1.68-.33,5.21-.33,10.46,0,2.42,.21,3.69,.21,4.02,0,.62-.21,.9-.66,.9-.74,0-.49-.74-.66-1.76-.16-1.19-.94-1.23-2.54-1.23h-18.78c-1.23,0-1.64,0-1.89,.78-.29,.9,.08,1.76-.74,1.76-.37,0-.57-.25-.57-.7,0-.33,.16-2.34,.16-6.11,0-4.8-.16-7.51-.16-8.04,0-1.11,.37-1.15,1.23-1.15h.16Zm1.81,28.7h18.78c1.76,0,2.67-.94,2.67-2.67s-.74-3.08-2.26-4.22c-1.64-1.23-2.75-1.68-2.75-2.13,0-.16,.21-.37,.33-.37,.04,0,.33,0,.74,.04l3.86,.41c.37,.04,.57,.08,.7,.08,.45,0,.7,.29,.7,.82,0,1.72-.37,5.04-.37,9.88,0,2.13,.25,3.4,.25,3.9,0,.57-.25,.86-.66,.86-.78,0-.49-.82-.7-1.6-.33-1.31-.74-1.31-2.5-1.31h-18.78c-1.23,0-1.64,.04-1.89,.82-.33,.98,.08,1.76-.74,1.76-.33,0-.57-.21-.57-.53,0-.41,.33-1.56,.33-3.77,0-2.46-.33-3.77-.33-4.18,0-.37,.25-.62,.57-.62,.74,0,.49,.74,.7,1.76,.21,1.03,.62,1.07,1.93,1.07Zm0,13.22h18.78c1.72,0,2.13-.04,2.46-1.11,.29-.94-.08-1.8,.82-1.8,.33,0,.57,.29,.57,.86,0,.49-.25,1.76-.25,3.9s.25,3.4,.25,3.9c0,.57-.25,.86-.66,.86-.78,0-.49-.82-.7-1.6-.33-1.31-.74-1.31-2.5-1.31h-18.78c-1.31,0-1.64,.08-1.89,.9-.29,1.07,.08,1.93-.74,1.93-.33,0-.57-.21-.57-.62s.33-1.72,.33-4.06-.33-3.61-.33-4.06c0-.37,.25-.62,.57-.62,.74,0,.49,.74,.7,1.76,.21,1.03,.62,1.07,1.93,1.07Zm0,27.26h7.46c.37,0,.53-.16,.53-.53v-9.31c0-.33-.25-.49-.57-.49h-7.42c-1.31,0-1.64,.04-1.89,.86-.29,1.07,.08,1.93-.74,1.93-.33,0-.57-.21-.57-.62s.33-1.72,.33-4.06-.33-3.61-.33-4.06c0-.37,.25-.62,.57-.62,.74,0,.49,.74,.7,1.76s.62,1.07,1.93,1.07h18.78c1.72,0,2.13,0,2.46-1.07,.29-.94-.08-1.85,.82-1.85,.33,0,.57,.33,.57,.9,0,.49-.25,1.72-.25,3.86s.25,3.4,.25,3.9c0,.57-.25,.9-.66,.9-.78,0-.49-.82-.7-1.6-.33-1.31-.74-1.31-2.5-1.31h-8.78c-.33,0-.57,.16-.57,.49v9.31c0,.33,.25,.53,.57,.53h8.78c1.72,0,2.13-.04,2.46-1.11,.29-.94-.08-1.8,.82-1.8,.33,0,.57,.29,.57,.86,0,.49-.25,1.76-.25,3.9s.25,3.4,.25,3.9c0,.57-.25,.86-.66,.86-.78,0-.49-.82-.7-1.6-.33-1.31-.74-1.31-2.5-1.31h-18.78c-1.31,0-1.64,.08-1.89,.9-.29,1.07,.08,1.93-.74,1.93-.33,0-.57-.21-.57-.62s.33-1.72,.33-4.06-.33-3.61-.33-4.06c0-.37,.25-.62,.57-.62,.74,0,.49,.74,.7,1.76s.62,1.07,1.93,1.07Zm9.68,30.26c-7.63,0-13.62-5.5-13.62-12.34,0-2.99,.94-5.58,1.52-6.07,.29-.29,1.8-.53,4.22-.53,.45,0,.74,.12,.74,.33,0,.37-.62,.74-1.64,1.35-2.42,1.48-3.73,2.95-3.73,5.09,0,4.43,5.04,7.96,12.71,7.96,7.1,0,12.22-3.53,12.22-7.59,0-2.54-1.39-4.18-4.22-5.45-1.48-.66-2.34-.94-2.34-1.44,0-.25,.29-.45,.86-.45,.33,0,1.52,.12,3.49,.12s3.53,2.91,3.53,7.05c0,6.89-6.03,11.98-13.74,11.98Zm-11.99,19.74l3.52,.12c.7,.02,1.02,.12,1.01,.49-.03,.74-1.74,.47-3.14,1.9-1.06,1.07-1.65,2.69-1.73,4.95-.08,2.17,.49,2.32,2.42,2.38l6.76,.24c.7,.02,.82,.03,.85-.71l.06-1.84c.06-1.68-.26-3.09-.62-3.47-1.03-1.14-2.48-.66-2.45-1.52,.01-.37,.18-.49,.59-.47,1.02,.04,2.41,.29,4.05,.35,1.93,.07,3.12-.01,3.49,0,.49,.02,.73,.23,.72,.52-.02,.7-1.29,.49-2.92,1.29-1.25,.61-1.41,1.67-1.47,3.4l-.06,1.8c-.02,.57,.14,.74,.71,.76l8.44,.29c2.25,.08,2.64-.44,2.73-2.86,.09-2.54-.19-3.91-2.16-5.25-1.48-1.04-2.78-1.41-2.76-2.07,0-.16,.26-.4,.38-.4,0,0,.29,.05,.73,.11l3.96,.59c1.27,.17,1.43,.13,1.39,1.32-.06,1.68-.51,5.19-.69,10.44-.08,2.42,.08,3.7,.06,4.02-.02,.61-.24,.89-.69,.88-.74-.03-.47-.75-.59-1.79-.12-1.19-.9-1.26-2.5-1.32l-18.77-.66c-1.23-.04-1.64-.06-1.91,.71-.32,.89,.02,1.77-.8,1.74-.37-.01-.57-.27-.55-.72,.01-.33,.25-2.33,.38-6.1,.17-4.8,.1-7.51,.12-8.04,.04-1.11,.41-1.13,1.27-1.1h.16Zm7.02,43.1l-15.81-10.66c-.71-.48-1.18-.6-1.57-.02-.34,.51-.29,1.09-.57,1.5-.14,.2-.46,.24-.76,.03-.88-.6,.42-3.92,3.88-9.06,4.36-6.46,11.64-7.43,18.2-3.01,6.63,4.47,8.24,11.1,3.68,17.87-1.19,1.77-2.52,3-3.32,4.19-.71,1.05-1.12,2.17-1.69,3.02-.32,.48-.69,.58-1.03,.35-.65-.44,.05-.96,.32-1.72,.46-1.27,.12-1.5-1.34-2.49Zm1.08-3.72c2.35,1.58,3.51,1.77,4.88-.27,2.94-4.35,1.03-9.74-5.09-13.87-5.75-3.88-11.8-3.85-14.62,.33-1.58,2.35-1.15,3.03,.17,3.93l14.65,9.88Zm-43.84,1.2v18.78c0,1.76,.94,2.67,2.67,2.67s3.08-.74,4.22-2.26c1.23-1.64,1.68-2.75,2.13-2.75,.16,0,.37,.21,.37,.33,0,.04,0,.33-.04,.74l-.41,3.86c-.04,.37-.08,.57-.08,.7,0,.45-.29,.7-.82,.7-1.72,0-5.04-.37-9.88-.37-2.13,0-3.4,.25-3.9,.25-.57,0-.86-.25-.86-.66,0-.78,.82-.49,1.6-.7,1.31-.33,1.31-.74,1.31-2.5v-18.78c0-1.23-.04-1.64-.82-1.89-.98-.33-1.76,.08-1.76-.74,0-.33,.21-.57,.53-.57,.41,0,1.56,.33,3.77,.33,2.46,0,3.77-.33,4.18-.33,.37,0,.62,.25,.62,.57,0,.74-.74,.49-1.76,.7-1.03,.21-1.07,.62-1.07,1.93Zm-20.11,3.65c-.08-.25-.16-.37-.25-.37s-.21,.12-.25,.33l-1.93,7.26c-.04,.21-.04,.37-.04,.41,0,.12,.12,.25,.29,.25h4.1c.16,0,.37-.16,.37-.33,0-.12-.04-.25-.08-.41l-2.21-7.14Zm2.01-5.66l6.19,19.52c.57,1.89,.94,2.99,2.01,3.69,.78,.53,1.52,.41,1.52,.9,0,.45-.25,.57-.86,.57-.7,0-1.8-.25-3.45-.25-2.3,0-3.69,.21-4.22,.21-.49,0-.7-.12-.7-.49s.33-.66,.82-.66c1.35,0,1.68-.25,1.68-.98,0-.37-.12-.98-.37-1.85l-1.6-5.25c-.08-.29-.29-.33-.62-.33h-5.09c-.16,0-.41,.16-.45,.37l-.98,3.65c-.41,1.6-.62,2.67-.62,3.16,0,.82,.33,.98,1.07,1.11,1.11,.16,1.64,.29,1.64,.9,0,.37-.25,.49-.7,.49-.57,0-1.8-.25-3.57-.25-1.19,0-2.13,.21-2.71,.21-.49,0-.74-.21-.74-.53,0-.86,1.23-.33,2.05-.94,.74-.53,1.03-1.56,1.48-3.03l6.52-21.16c.21-.62,.25-.98,.7-.98,.57,0,.62,.78,.98,1.93Zm-19.68,11.4c.86,.62,1.23,1.52,1.68,2.58l2.38,5.66c.94,2.21,1.39,3.45,1.93,3.65,.9,.37,1.72,.33,1.72,.94,0,.37-.21,.41-.7,.41-.7,0-1.56-.12-2.5-.12-.62,0-1.19,.12-1.8,.12-.82,0-.9-.45-1.27-1.35l-3.69-9.31c-.57-1.44-1.03-1.85-2.3-1.85h-.41c-.33,0-.53,.25-.53,.57v8.08c0,1.6,.04,2.58,1.8,2.58,.66,0,.9,.21,.9,.7,0,.33-.33,.57-.82,.57-.41,0-1.6-.25-3.73-.25s-3.4,.25-3.9,.25c-.57,0-.86-.25-.86-.66,0-.78,.82-.49,1.6-.7,1.31-.33,1.31-.74,1.31-2.5v-18.78c0-1.31-.08-1.64-.9-1.89-1.07-.29-1.93,.08-1.93-.74,0-.53,.37-.57,1.11-.57,.33,0,1.27,.16,2.71,.16,2.05,0,4.02-.25,5.86-.25,4.39,0,6.73,2.54,6.73,6.36,0,3.28-1.68,5.7-4.39,6.32Zm-5.5-1.48c0,.86,.49,.94,1.89,.94,2.79,0,4.27-1.8,4.27-5.21s-1.44-5.58-4.1-5.58c-1.89,0-2.05,.7-2.05,2.05v7.79Zm-9.74-11.69l-.25,5.41c-.04,.9-.16,1.15-.57,1.15-.74,0-.7-1.15-1.19-2.75-.74-1.76-1.93-2.01-4.43-2.01h-.66c-.33,0-.53,.37-.53,.66v20.1c0,1.72,.04,2.09,1.11,2.46,.94,.33,1.8-.08,1.8,.82,0,.33-.29,.57-.86,.57-.86,0-2.17-.29-3.9-.29s-3.04,.29-3.9,.29c-.57,0-.86-.25-.86-.66,0-.82,.9-.45,1.8-.74,1.07-.33,1.11-.7,1.11-2.46v-19.97c0-.33-.21-.78-.53-.78h-1.15c-1.68,0-2.67,.66-3.69,1.97-.98,1.64-1.35,2.62-2.01,2.62-.29,0-.45-.04-.45-.57,0-.04,.08-.37,.16-.7l1.03-4.18c.29-1.23,.29-2.09,.82-2.09,.49,0,.45,1.35,.94,1.39,.29,.29,.94,.37,1.93,.37,.78,0,1.76-.04,2.95-.04h5.04c1.35,0,2.42,.08,3.2,.08,.62,0,1.07-.04,1.31-.21,.74-.45,.9-1.64,1.31-1.64,.33,0,.45,.49,.45,.74v.45Zm-36.69,6.97c0-4.22,2.79-7.14,7.26-7.14,2.3,0,4.31,.78,4.68,1.27,.21,.25,.33,1.76,.33,4.47,0,.57-.21,.86-.53,.86-.57,0-.62-.78-1.19-2.17-.86-2.17-1.72-3.36-3.65-3.36-2.42,0-3.94,1.64-3.94,4.22,0,2.17,1.23,3.36,3.81,4.72,4.39,2.3,6.85,4.39,6.85,9.02s-3.32,8.33-7.92,8.33c-3.61,0-6.07-1.19-6.07-3.53,0-.94,.08-1.8,.08-2.58,0-.62-.04-.98-.04-1.07,0-.86,.25-1.27,.62-1.27,.74,0,.53,1.31,.98,2.87,.82,2.75,2.83,4.39,4.92,4.39,2.46,0,4.43-2.09,4.43-4.92,0-2.5-1.56-4.43-4.68-6.19-3.32-1.89-5.95-3.12-5.95-7.92Zm-19.77-3.2v14.31c0,5,.98,7.63,5.33,7.63,2.17,0,3.81-.78,4.8-2.17,.98-1.48,1.03-3.45,1.03-6.27v-9.92c0-3.12-.04-4.72-.74-5.29-.74-.57-2.21,0-2.21-.9,0-.37,.25-.57,.7-.57,.49,0,1.39,.12,2.79,.12,1.48,0,2.42-.12,2.83-.12,.57,0,.86,.16,.86,.57,0,.49-.37,.57-1.19,.57-1.72,0-1.8,1.39-1.8,5.5v10.09c0,2.83-.04,4.96-1.11,6.81-1.15,1.97-3.45,3.08-6.6,3.08-3.49,0-5.82-.9-7.22-2.95-1.11-1.6-1.19-3.57-1.19-6.07v-14.4c0-1.35-.04-1.64-.9-1.89-1.07-.33-1.89,.08-1.89-.74,0-.33,.25-.57,.62-.57,.41,0,1.72,.33,4.06,.33s3.65-.33,4.06-.33,.62,.25,.62,.57c0,.86-.94,.45-1.93,.74-.82,.25-.9,.57-.9,1.89Zm-18.67,3.65c-.08-.25-.16-.37-.25-.37s-.21,.12-.25,.33l-1.93,7.26c-.04,.21-.04,.37-.04,.41,0,.12,.12,.25,.29,.25h4.1c.16,0,.37-.16,.37-.33,0-.12-.04-.25-.08-.41l-2.21-7.14Zm2.01-5.66l6.19,19.52c.57,1.89,.94,2.99,2.01,3.69,.78,.53,1.52,.41,1.52,.9,0,.45-.25,.57-.86,.57-.7,0-1.8-.25-3.44-.25-2.3,0-3.69,.21-4.22,.21-.49,0-.7-.12-.7-.49s.33-.66,.82-.66c1.35,0,1.68-.25,1.68-.98,0-.37-.12-.98-.37-1.85l-1.6-5.25c-.08-.29-.29-.33-.62-.33h-5.09c-.16,0-.41,.16-.45,.37l-.98,3.65c-.41,1.6-.62,2.67-.62,3.16,0,.82,.33,.98,1.07,1.11,1.11,.16,1.64,.29,1.64,.9,0,.37-.25,.49-.7,.49-.57,0-1.8-.25-3.57-.25-1.19,0-2.13,.21-2.71,.21-.49,0-.74-.21-.74-.53,0-.86,1.23-.33,2.05-.94,.74-.53,1.03-1.56,1.48-3.03l6.52-21.16c.2-.62,.25-.98,.7-.98,.57,0,.62,.78,.98,1.93Zm-54.97,20.79v-19.07c0-.86-.16-1.31-.86-1.31-.62,0-1.07,.37-1.56,.37-.25,0-.45-.25-.45-.62,0-1.07,3.49-1.85,9.68-1.85,7.79,0,12.67,5.5,12.67,13.41s-4.59,13.04-12.76,13.04c-2.13,0-3.9-.41-5.33-.41-1.27,0-2.42,.29-3.45,.29-.57,0-.86-.25-.86-.66,0-.78,.82-.49,1.6-.7,1.31-.33,1.31-.74,1.31-2.5Zm3.69-1.19c0,2.83,.49,3.9,2.95,3.9,5.25,0,8.65-4.59,8.65-11.98,0-6.93-3.4-11.93-8.45-11.93-2.83,0-3.16,.74-3.16,2.34v17.68Zm-20.11-13.94c-.08-.25-.16-.37-.25-.37s-.21,.12-.25,.33l-1.93,7.26c-.04,.21-.04,.37-.04,.41,0,.12,.12,.25,.29,.25h4.1c.16,0,.37-.16,.37-.33,0-.12-.04-.25-.08-.41l-2.21-7.14Zm2.01-5.66l6.19,19.52c.57,1.89,.94,2.99,2.01,3.69,.78,.53,1.52,.41,1.52,.9,0,.45-.25,.57-.86,.57-.7,0-1.8-.25-3.44-.25-2.3,0-3.69,.21-4.22,.21-.49,0-.7-.12-.7-.49s.33-.66,.82-.66c1.35,0,1.68-.25,1.68-.98,0-.37-.12-.98-.37-1.85l-1.6-5.25c-.08-.29-.29-.33-.62-.33h-5.09c-.16,0-.41,.16-.45,.37l-.98,3.65c-.41,1.6-.62,2.67-.62,3.16,0,.82,.33,.98,1.07,1.11,1.11,.16,1.64,.29,1.64,.9,0,.37-.25,.49-.7,.49-.57,0-1.8-.25-3.57-.25-1.19,0-2.13,.21-2.71,.21-.49,0-.74-.21-.74-.53,0-.86,1.23-.33,2.05-.94,.74-.53,1.03-1.56,1.48-3.03l6.52-21.16c.21-.62,.25-.98,.7-.98,.57,0,.62,.78,.98,1.93Zm-37.97,13.33l8.36-17.14c.38-.77,.43-1.25-.2-1.56-.55-.27-1.12-.14-1.56-.35-.22-.11-.3-.42-.14-.75,.47-.96,3.94-.13,9.51,2.58,7,3.42,8.98,10.49,5.51,17.61-3.51,7.19-9.85,9.71-17.18,6.13-1.92-.94-3.32-2.08-4.61-2.71-1.14-.56-2.3-.8-3.22-1.25-.52-.25-.67-.6-.49-.97,.34-.7,.95-.08,1.74,.07,1.32,.28,1.5-.09,2.28-1.67Zm3.84,.55c-1.24,2.54-1.27,3.72,.95,4.8,4.72,2.3,9.79-.33,13.03-6.97,3.04-6.23,2.17-12.22-2.36-14.43-2.54-1.24-3.16-.72-3.86,.72l-7.75,15.89Zm-2.11-25.54l-15.93,9.95c-1.46,.91-1.79,1.16-1.5,2.24,.26,.95,1.03,1.49,.26,1.96-.28,.17-.64,.06-.94-.43-.26-.42-.73-1.63-1.86-3.43-1.13-1.81-2.01-2.76-2.27-3.17-.3-.49-.25-.86,.1-1.08,.66-.41,.85,.43,1.44,.99,.97,.94,1.32,.72,2.82-.21l15.93-9.95c1.11-.7,1.35-.94,1.12-1.76-.32-1.06-1.09-1.59-.4-2.03,.28-.17,.6-.13,.81,.22,.22,.35,.63,1.63,1.87,3.62,1.24,1.98,2.19,2.89,2.43,3.27,.2,.31,.12,.65-.16,.83-.63,.39-.81-.37-1.53-1.13-.72-.76-1.09-.58-2.2,.12Zm-8.61-20.25c4.15-.81,7.54,1.38,8.39,5.76,.44,2.25,.06,4.38-.36,4.83-.2,.25-1.67,.66-4.33,1.18-.56,.11-.88-.04-.95-.36-.11-.56,.65-.75,1.91-1.58,1.97-1.26,2.97-2.33,2.6-4.22-.46-2.38-2.36-3.55-4.9-3.06-2.13,.41-3.07,1.85-3.9,4.64-1.42,4.75-3,7.56-7.55,8.44-4.71,.92-8.81-1.67-9.68-6.18-.69-3.54,0-6.19,2.3-6.63,.93-.18,1.79-.26,2.55-.41,.6-.12,.96-.23,1.04-.24,.85-.16,1.3,0,1.37,.36,.14,.72-1.19,.77-2.63,1.51-2.54,1.33-3.77,3.62-3.37,5.67,.47,2.42,2.9,3.95,5.68,3.41,2.46-.48,4.05-2.37,5.19-5.77,1.22-3.62,1.92-6.43,6.64-7.35Zm-5.22-10.67c-.62,.86-1.52,1.23-2.58,1.68l-5.66,2.38c-2.21,.94-3.44,1.39-3.65,1.93-.37,.9-.33,1.72-.94,1.72-.37,0-.41-.21-.41-.7,0-.7,.12-1.56,.12-2.5,0-.62-.12-1.19-.12-1.8,0-.82,.45-.9,1.35-1.27l9.31-3.69c1.44-.57,1.85-1.03,1.85-2.3v-.41c0-.33-.25-.53-.57-.53h-8.08c-1.6,0-2.58,.04-2.58,1.8,0,.66-.21,.9-.7,.9-.33,0-.57-.33-.57-.82,0-.41,.25-1.6,.25-3.73s-.25-3.4-.25-3.9c0-.57,.25-.86,.66-.86,.78,0,.49,.82,.7,1.6,.33,1.31,.74,1.31,2.5,1.31h18.78c1.31,0,1.64-.08,1.89-.9,.29-1.07-.08-1.93,.74-1.93,.53,0,.57,.37,.57,1.11,0,.33-.16,1.27-.16,2.71,0,2.05,.25,4.02,.25,5.86,0,4.39-2.54,6.73-6.36,6.73-3.28,0-5.7-1.68-6.32-4.39Zm1.48-5.5c-.86,0-.94,.49-.94,1.89,0,2.79,1.8,4.27,5.21,4.27s5.58-1.44,5.58-4.1c0-1.89-.7-2.05-2.05-2.05h-7.79Zm9.72-11.42h-3.53c-.7,0-1.03-.08-1.03-.45,0-.74,1.72-.53,3.08-2.01,1.03-1.11,1.56-2.75,1.56-5s-.57-2.3-2.5-2.3h-6.77c-.7,0-.82,0-.82,.74v1.85c0,1.68,.37,3.08,.74,3.45,1.07,1.11,2.5,.57,2.5,1.44,0,.37-.16,.49-.57,.49-1.03,0-2.42-.21-4.06-.21-1.93,0-3.12,.12-3.49,.12-.49,0-.74-.21-.74-.49,0-.7,1.27-.53,2.87-1.39,1.23-.66,1.35-1.72,1.35-3.44v-1.8c0-.57-.16-.74-.74-.74h-8.45c-2.26,0-2.62,.53-2.62,2.95,0,2.54,.33,3.9,2.34,5.17,1.52,.98,2.83,1.31,2.83,1.97,0,.16-.25,.41-.37,.41,0,0-.29-.04-.74-.08l-3.98-.45c-1.27-.12-1.44-.08-1.44-1.27,0-1.68,.33-5.21,.33-10.46,0-2.42-.2-3.69-.2-4.02,0-.62,.2-.9,.66-.9,.74,0,.49,.74,.66,1.76,.16,1.19,.94,1.23,2.54,1.23h18.78c1.23,0,1.64,0,1.89-.78,.29-.9-.08-1.76,.74-1.76,.37,0,.57,.25,.57,.7,0,.33-.16,2.34-.16,6.11,0,4.8,.16,7.51,.16,8.04,0,1.11-.37,1.15-1.23,1.15h-.16Zm-2.09-20.86l-21.94-7.18c-.49-.16-.74-.33-.74-.53,0-.37,.86-.53,1.89-.9l19.19-6.6c2.05-.7,3.32-1.07,3.73-1.89,.29-.57,.04-1.64,.66-1.64,.37,0,.62,.21,.62,.66,0,.25-.25,1.89-.25,5.13,0,1.27,.21,2.21,.21,2.67,0,.41-.12,.57-.49,.57-1.15,0-.12-2.09-1.76-2.09-.41,0-.98,.12-1.72,.37l-13.17,4.55c-.62,.21-.9,.33-.9,.49s.33,.33,.9,.49l11.98,3.53c1.27,.37,2.17,.53,2.67,.53,2.09,0,.9-2.42,2.09-2.42,.33,0,.57,.29,.57,.78,0,.41-.25,1.35-.25,2.87,0,1.68,.16,2.62,.16,2.83,0,.53-.16,.78-.53,.78-.82,0-.41-.98-.74-1.64-.33-.66-1.07-.98-2.17-1.35Zm.29-23.39h-18.78c-1.72,0-2.13,.04-2.46,1.11-.29,.94,.08,1.8-.82,1.8-.33,0-.57-.29-.57-.86,0-.49,.25-1.76,.25-3.9s-.25-3.4-.25-3.9c0-.57,.25-.86,.66-.86,.78,0,.49,.82,.7,1.6,.33,1.31,.74,1.31,2.5,1.31h18.78c1.31,0,1.64-.08,1.89-.9,.29-1.07-.08-1.93,.74-1.93,.33,0,.57,.21,.57,.62s-.33,1.72-.33,4.06,.33,3.61,.33,4.06c0,.37-.25,.62-.57,.62-.74,0-.49-.74-.7-1.76-.21-1.03-.62-1.07-1.93-1.07Zm3.2-31.73v5.25c0,.37-.04,.45-.41,.7l-17.84,10.99c-.04,.16,.16,.25,.41,.25h11.24c1.15,0,1.85-.04,2.09-.04,2.95,0,3.32-.12,3.32-2.38,0-.41,.25-.74,.57-.74,.37,0,.62,.41,.62,1.07,0,.74-.12,1.64-.12,2.83s.12,1.97,.12,2.54-.25,.9-.62,.9c-.45,0-.53-.16-.53-.7v-.41c0-1.44-1.31-1.56-4.31-1.56h-20.47c-.53,0-1.03-.29-1.03-.62,0-.29,.25-.53,.66-.78l21.98-13.49c.04-.16-.16-.25-.41-.25h-15.95c-3.08,0-3.98,.16-3.98,1.8,0,.25,.04,.49,.04,.74,0,.33-.25,.57-.66,.57-.37,0-.62-.37-.62-1.07,0-.74,.16-1.68,.16-2.83,0-1.03-.16-1.89-.16-2.62,0-.66,.25-.98,.62-.98,.45,0,.66,.21,.66,.78v.37c0,1.68,1.15,1.8,4.35,1.8h17.06c1.23,0,1.64-.04,1.89-.82,.29-.98-.04-1.89,.74-1.89,.37,0,.57,.2,.57,.57Zm-3.2-19.32h-14.31c-5,0-7.63,.98-7.63,5.33,0,2.17,.78,3.81,2.17,4.8,1.48,.98,3.45,1.03,6.27,1.03h9.92c3.12,0,4.72-.04,5.29-.74,.57-.74,0-2.21,.9-2.21,.37,0,.57,.25,.57,.7,0,.49-.12,1.39-.12,2.79,0,1.48,.12,2.42,.12,2.83,0,.57-.16,.86-.57,.86-.49,0-.57-.37-.57-1.19,0-1.72-1.39-1.8-5.5-1.8h-10.09c-2.83,0-4.96-.04-6.81-1.11-1.97-1.15-3.08-3.45-3.08-6.6,0-3.49,.9-5.82,2.95-7.22,1.6-1.11,3.57-1.19,6.07-1.19h14.4c1.35,0,1.64-.04,1.89-.9,.33-1.07-.08-1.89,.74-1.89,.33,0,.57,.25,.57,.62,0,.41-.33,1.72-.33,4.06s.33,3.65,.33,4.06-.25,.62-.57,.62c-.86,0-.45-.94-.74-1.93-.25-.82-.57-.9-1.89-.9Zm167.84,1.71c-2.11,7.54,4.02,.15,6.34,.11-1.04-2.06-5.15-.79-6.34-.11Zm78.23,33.94c1.89,2.06-5.58-12.66-9.91-13.74-12.25-3.04-14.47,10.69-14.17,20.63,.09,2.94-2.27,4.52-4.06,4.81-6.33,1.05-11.37,6.3,1.94,1.18,6.55,0,1.1-3.15,3.78-9.15,1.98-4.44,12.06-9.03,12.06-8.99,0,.05,6.88,1.46,10.36,5.25Zm-59.16-18.56c1.36,5.57-7.24,5.09-6.4,11.22,.79,5.78,12.12,8.72,10.27,14.26-.3,.9-14.83-.25-9.78,3.47,5.42-2.26,11.75-.6,12.68,.39,.7-.42,1.4-.61,1.4-1.44,0-2.49-2.73-6.43-5.48-9.5-2.47-2.75,2.46-8.56,6.64-11.77,4.41-3.13-6.74-13.71-9.33-6.63Zm-18.03,4.65c-1.39,.72-1.03,7.01,5.92-1.11,.86-1.01,1.75-1.25,3.06-1.53,2.72-.59,5.81-5.41,3.09-8.34-.2-.31-2.19-1.1-2.11-.9,.03,.08-1.82-2.43-2.37-3.27l-.56,.14c3.46,2.67-.23,8.18-2.03,3.87-.27-.64-1.94,5.14-2.56,4.89l-4.16,3.88c3.56-.27,2.88,1.77,1.72,2.36Zm77.44,26.4c1.1-2.76,.95-4.64,.94-4.64,0,0-1.64,3.73-3.74,5.88-2.08,2.14-3.47,1.65-4.75,1.67-.7-.89-1.35-1.75-3.51-1.35-2.36,.43-3.51,1.06-5.29,2.78,0,0,4.01-3.38,6.27-1.41,.38,.33,.46,.62,.94,.84,.07,.15,.19,.36,.37,.64,3.31,.35,7.16-1.02,8.78-4.41Zm-76.15-22.49c-1.13,.53-2.43,.79-3.8,.79-4.53,0-8.21-3.16-8.21-7.05,0-.46,2.02-1.04,2.12-1.48l1.99-7.84s-.06-1.24,.05-2.14c.11-.9,.48-1.4,.48-1.4-8.41-3.31-4.15-12.28-3.16-13.66,.9-1.25-.13,5.84,2.9,6.9,1.76,.61,2.97,.56,3.78,.53,0,0,3.59-1.45,6.17-1.28,2.58,.17,5.65,2.56,5.91,2.22,8.07,.63,6.7-7.84,8.07-8.25,.75-.23,2.94,9.94-.3,11.26l12.4,6.12s12.32,1.4,25.71,5.87c4.03,1.35,10.36-.48,13.6,1.51,2.72,1.67,7.83,7.53,7.83,7.53,3.19,3.7,5.86,14.04,4.65,19.81-2.32,11.12-11.29,11.49-13.02,11.47-1.51,2.52-3.55,1.71-7.15,1.31-6.16-.19-10.73,0-17.58-.03-3.52,0-1.46-3.79-2.49-3.79h-39.12c-2.73,0-1.39-2.43-.7-4.92,.74-2.63,.07-4.11,2.59-5.16,1.81-.75,.88-.62,1.72-2.51,.58-1.31,.94-2.29-.45-4.97-1.39-2.68-2.38-3.39-2.6-4.85-.39-2.53,.19-6.98-1.35-6.03l-.05,.02Zm-11.32,49.77c-2.11,7.54,4.02,.15,6.34,.11-1.04-2.06-5.15-.79-6.34-.11Zm78.88,32.81c1.89,2.06-5.58-12.66-9.91-13.74-12.25-3.04-14.47,10.69-14.17,20.63,.09,2.94-2.27,4.52-4.06,4.81-6.33,1.05-11.37,6.3,1.94,1.18,6.55,0,1.09-3.15,3.78-9.15,1.98-4.44,12.06-9.03,12.06-8.99s6.88,1.46,10.36,5.25Zm-59.16-18.56c1.36,5.57-7.24,5.09-6.4,11.22,.79,5.78,12.12,8.72,10.27,14.26-.3,.9-14.83-.25-9.78,3.47,5.42-2.26,11.75-.6,12.68,.39,.7-.42,1.4-.61,1.4-1.44,0-2.49-2.73-6.43-5.48-9.5-2.47-2.75,2.46-8.56,6.64-11.77,4.41-3.13-6.74-13.71-9.33-6.63Zm-18.4,5.49c-1.39,.72-1.03,7.01,5.92-1.11,.86-1.01,1.75-1.24,3.06-1.53,2.72-.59,5.81-5.41,3.09-8.34-.2-.31-2.19-1.1-2.11-.9,.03,.08-1.82-2.43-2.37-3.27l-.56,.14c3.46,2.67-.23,8.18-2.03,3.87-.27-.64-1.93,5.14-2.56,4.89l-4.16,3.88c3.56-.27,2.88,1.77,1.72,2.36Zm77.44,26.4c1.1-2.76,.95-4.64,.95-4.64,0,0-1.64,3.73-3.74,5.88-2.09,2.14-3.47,1.65-4.75,1.67-.7-.89-1.35-1.75-3.51-1.35-2.36,.43-3.51,1.06-5.29,2.78,0,0,4.01-3.38,6.27-1.41,.38,.33,.46,.62,.94,.84,.07,.15,.19,.36,.37,.64,3.31,.35,7.16-1.02,8.78-4.41Zm-76.15-22.49c-1.13,.53-2.43,.79-3.8,.79-4.53,0-8.21-3.16-8.21-7.05,0-.46,2.02-1.04,2.12-1.48l1.99-7.84s-.06-1.24,.05-2.14c.11-.9,.48-1.4,.48-1.4-8.41-3.31-4.15-12.28-3.16-13.66,.9-1.25-.13,5.84,2.9,6.9,1.76,.61,2.97,.56,3.78,.53,0,0,3.59-1.45,6.17-1.28,2.58,.17,5.65,2.56,5.91,2.22,8.07,.63,6.7-7.84,8.07-8.25,.75-.23,2.94,9.94-.3,11.26l12.4,6.12s12.32,1.4,25.71,5.87c4.03,1.35,10.36-.48,13.6,1.51,2.72,1.67,7.83,7.53,7.83,7.53,3.19,3.7,5.86,14.04,4.65,19.81-2.32,11.12-11.29,11.49-13.02,11.47-1.51,2.52-3.55,1.71-7.15,1.31-5.02-.14-10.73,0-17.58-.03-3.52,0-1.46-3.79-2.49-3.79h-39.12c-2.73,0-1.39-2.43-.7-4.92,.74-2.63,.07-4.11,2.59-5.16,1.81-.75,.88-.62,1.72-2.51,.58-1.31,.94-2.29-.45-4.97-1.39-2.68-2.38-3.39-2.6-4.85-.39-2.53,.19-6.98-1.35-6.03l-.05,.02Zm-87.66-198.97h8.2c.61,0,1.11,.5,1.11,1.11v8.2c0,.61-.5,1.11-1.11,1.11l-1.08-1.71h-6.36s0-6.27,0-6.27l-1.86-1.32c0-.61,.5-1.11,1.11-1.11Zm-19.03,10.93l-2.89-.98h-1.62v-3.83l-1.28-2.73c0-.35,.19-.65,.43-.68l5.36-1.68c.24-.03,.43,.23,.43,.57v8.65c0,.35-.19,.65-.43,.68Zm204.43,194.44v-118.05h-120.21v154.21h84.05c19.97,0,36.16-16.19,36.16-36.16Zm0-122.75V107.62h-120.21V251.14c5.51-1.88,24.2-5.13,40.12-6.61,4.09-6.04,8.14-14.12,5.74-24.15-2.01,.01-1.46,1.45-3.54,1.45-2.08,0-.78,.43-2.86,.43-1.04,0-1.36,.03-1.67,0-.31-.03-.61-.12-1.63-.35-2.03-.46-.85-2.24-2.87-2.7-2.03-.46-.67-.31-2.38-1.5-1.71-1.19-1.95,.68-3.66-.51-.84-.59-1.11-.76-1.31-1-.2-.24-.32-.54-.9-1.42-1.15-1.73-1.88-.21-3.03-1.94-1.15-1.73-1.61-1.43-2.01-3.47-.41-2.04-.22-4.05-.62-6.09-.41-2.04,.59-1.64,.95-3.69,.35-2.05-.72-1.02-.37-3.07,.35-2.05,1.9-.5,2.91-2.32,1.01-1.82-1.14-1.52-.13-3.34,1.01-1.82,2.05,.48,3.59-.92s-.97-2.2,.57-3.59c1.54-1.4,3.43-8.42,2.8-10.4-.64-1.98,.75-1.42,1.12-3.46,.37-2.05,1.82-.75,2.2-2.79,.37-2.05-1.55-1.51-.49-3.29,1.07-1.79,2.62,.45,3.68-1.33,1.07-1.79-.62-1.03,.99-2.34,1.61-1.32,.95-.32,2.56-1.64,1.61-1.32-.43-2.26,1.54-2.94,1.91-.66,.74-1.09,2.47-1.74-.64-2.17-.13-.53-.71-2.53-.58-2,2-.96,1.42-2.96-.58-2-.31-.29-.89-2.28-.58-2-1.4-.92-.99-2.96,.41-2.04,2.96-3.37,4.13-5.1,1.16-1.72,1.82-4.25-.66-4.74,1.16-1.72,.68-1.94,2.4-3.1,1.72-1.16,2.74,1.81,4.47,.65,1.72-1.16,.03-3.58,2.07-3.99,2.04-.41,1.91,2.49,3.95,2.08,2.04-.41,.89-.19,2.93,.22,2.04,.41,1.23,.89,3.27,1.3,2.04,.41,1.93-2.04,3.66-.88,1.72,1.16,1.29,.34,3.02,1.5,1.72,1.16-.63,2.16,.53,3.89,1.16,1.72,.81,.97,1.97,2.7,1.16,1.72,3.06,.02,3.47,2.06,.41,2.04-.8,1.57-.38,3.61,.41,2.04,1.2,1,.62,3-.58,2,.13,.41-.45,2.41-.58,2,.39,5.18,2.35,5.86,1.97,.68,.75,1.21,2.36,2.52,1.61,1.32,.85,.43,2.46,1.75,1.61,1.32-.67,1.59,.4,3.37,1.07,1.79,1.8,.03,2.87,1.82,1.07,1.79-1.3,1.2-.92,3.24,.37,2.05,2.53,.62,2.9,2.66,.37,2.05,.55,1.07-.09,3.05-.64,1.98-1.26,.21-1.9,2.19-.64,1.98-.3,.52-.94,2.5-.61,1.9,.98,1.05,.53,2.74,.25-.14,.6-.18,1.09,.03,1.91,.82-.54,3.27,1.37,4.1,1.91,.82,1.67-1.39,3.21,0,1.54,1.4,.93,.1,2.47,1.5,1.54,1.4,.18,1.09,1.19,2.91,1.01,1.82,1.02,.32,2.03,2.14,1.01,1.82,1.08,.89,1.43,2.94,.35,2.05-.87,1.04-.52,3.09,.35,2.05,1.96,1.46,1.57,3.5-.39,2.04-3.11,3.39-3.5,5.43-.39,2.04,.94,1.41-.18,3.17-1.12,1.76-1.49,.36-2.61,2.12-1.12,1.76-.56,.29-2.23,1.53-1.67,1.24,.03,1.89-1.63,3.13-1.67,1.24-.85,.67-2.86,1.21-2.01,.55-1.49-.95-3.49-.4-2.01,.55-.52,3.03-2.6,3.03-2.08,0-.78-1.24-2.86-1.24-2.08,0-.78,.75-2.86,.75-2.08,0-.78-.63-2.86-.63-2.08,0,.19-1.36-1.89-1.36-.43,0-1.05,.33-1.25,.48-2.05,9.61,1.35,17.68,5.22,23.67,19.23,1.07,30.75,3.43,44.35,7.03Zm-123.29-143.53h-118.03l-.02,143.86c4.94-1.87,19.19-4.51,19.19-4.51l5.56-53.01c-.54-.29-1.37-1.12-1.3-2.01,.07-.93,1.71-1.68,1.71-1.68l3.76-34.75c0-.25,.32-.41,.32-.41,.8-.24,5.99-1.4,6.18-1.36,1.24,.17,2.02,.37,2.76,.49,.44,.09,.53,.22,.57,.47,0,.04,.88,5.09,.9,5.03,1.32-.19,2.52-.33,3.53-.47,.05-.28,.58-6.59,.92-6.92,.16-.2,.45-.14,3.43-.38,.03-.68,.04-31.95,.03-32.79-1.09-.21-1.43-1.12-1.46-1.72-.03-.51,.45-1.81,1.79-1.81,.2,0,.75,.07,1.14,.43-.52-.35-1.81-.16-1.85,1.12-.01,.37,.43,1.25,1.26,1.25,.71,0,1.13-.54,1.21-.93-.04,.96-.78,1.47-1.21,1.6,.06,.55,1.52,32.44,1.53,32.64,1.51-.1,3.71-.29,4.04-.27,.42,.03,1.59,.53,2.06,.63,.25,1.44,.48,3.17,.75,4.51,.64-.11,5.01-.47,6.05-.48,.18-1.4,.41-3.56,.52-4.32,.06-.31,.31-.35,.5-.35,.47,0,8.81,.67,9.27,.73,.33,.02,.42,.21,.47,.58,.11,.95,.24,2.77,.41,3.81,.99,.13,5.41,.62,5.4,.62-.02,0,.3-2.41,.42-3.04,.27-.08,1.08-.39,1.72-.51,2,.44,4.23,.97,5.75,1.33,.13,.05,2.1,.53,2.13,.76,0,0-1.38,2.7-.86,6.87l3.54,28.3s1.52,.51,1.63,1.61c.05,.54-.62,1.46-1.4,1.82l6.66,52.87s14.17,2.95,19.01,4V107.62Zm126.39,266.27c0,21.68-17.57,39.25-39.25,39.25h-169.05c-21.68,0-39.25-17.57-39.25-39.25l.04-269.36h247.49V373.9Zm-206.79-214.03l1.2,.09-.86-4.6-.99-.23,.65,4.74Zm18.48-1.35l-.84-5.61-.99-.27,.65,5.84,1.18,.04Zm-20.27-3.37c-1.95,.89-2.51,1.53-3.25,2.65-1.06,1.59-1.42,10.04-1.49,11.73-.08,1.94,.04,1.24-.14,3.14-.18,1.91-.33,3.98-.51,5.89-.18,1.91,.44,.14,.26,2.04-.18,1.91-.46,.86-.64,2.77-.18,1.91,1.07,.64,.89,2.55-.11,1.14,1.11,1.38,.72,2.52,0,.97,1.65,.59,2.42,.71,6.88-.83,16.47-1.5,27.71-1.27,10.34,.04,23.35,1.33,27.67,2.23-.31-4.43-1.04-9.8-1.04-9.8l-3.46-1.5-.46-8.16c0-.61,.51-1.02,1.12-.92l2.11,.6c-.14-3.91-1.1-13.16-1.33-13.99-1.25-.28-3.95-1.01-4.82-1.17-.07,.37-.56,4.02-.81,6-.03,.26-.19,.43-.57,.38-1.73-.3-4.81-.79-6.66-1.05-.31-.08-.64-.21-.68-.46-.13-1.03-.51-6.19-.58-6.24-.08-.05-4.78-.54-7.49-.75-.1,1.21-.57,4.33-.78,5.99-.05,.3-.56,.6-.88,.6-2.53,.11-8.5,.18-9.34,.18-.38-5.45-5.03-6.61-6.23-6.54-.61,.04-1.35,.06-2.28,.13-.11,1.02-.6,5.76-.71,6.61-.03,.19-.18,.34-.41,.39-.22,.05-6.14,.34-7.35,.51-.13-.01-.44-3.36-.97-5.75Zm24.11,90.01c-1.46-23.44,23.52-23.09,22.23,.51,0,0,11.37,1.46,11.78,1.34,.92-.27,1.02-1.33,.9-2.27-.08-.58-.82-10.19-.79-10.65,.08-1.28-4.44-41.38-4.44-41.38-5.12-1.53-19.8-1.98-28.94-2.08-.24,.04-.51,.06-.83,.07-5.97,.07-20.5,.77-27.79,1.89,0,0-1.58,1.01-1.72,3.46-.07,.83-1.4,2.17-1.56,4.08-.16,1.91,.64,2.5,.48,4.41-.16,1.91,.46-.11,.3,1.8-.16,1.91-.86,4.36,.94,5.04,1.12,.42,1.99,2.02-.62,2.35-.46,.16-.8,.04-.81,.39-.09,1.91,.96,2.17,.87,4.09-.09,1.91-.75,.74-.84,2.65-.03,.71,.85,3.7-.18,4.09-.17,.33-.09,2.14-.09,2.49,0,.58,2.24,3.25,1.92,4.01-.45,1.07,.77,2.16,1.39,1.93,.93-.35,5.15,1.96-.27,2.6-.59,.25-.87,.59-.67,1.09,.71,1.78,1.45-.04,2.78,1.33,1.34,1.37-.26,2.16,1.08,3.53,1.34,1.37,1.99-.26,3.79,.39,1.8,.65,1.31,2.49,3.11,3.14,.69,.25,17.9-.42,17.99-.29Zm145.81-60.73c-.49-.21-.84-.17-1.09-.03,.45-1.69-1.14-.84-.53-2.74,.64-1.98,.3-.52,.94-2.5,.64-1.98,1.26-.21,1.9-2.19,.64-1.98,.46-1,.09-3.05-.37-2.05-2.53-.62-2.9-2.66-.37-2.05,1.99-1.46,.92-3.24-1.07-1.79-1.8-.03-2.87-1.82-1.07-1.79,1.21-2.06-.4-3.37-1.61-1.32-.85-.43-2.46-1.75-1.61-1.32-.39-1.84-2.36-2.52-1.97-.68-2.94-3.87-2.35-5.86,.58-2-.13-.41,.45-2.41,.58-2-.21-.96-.62-3-.41-2.04,.8-1.57,.38-3.61-.41-2.04-2.31-.33-3.47-2.06-1.16-1.72-.81-.97-1.97-2.7-1.16-1.72,1.19-2.72-.53-3.89-1.72-1.16-2.19,3.6-3.92,2.44-1.72-1.16-3.83-.88-3.86-.42-.14,2.07-3.24-1.89-3.39,.18-.14,2.07-.87,.43-1.11,2.5-.23,2.07-2.04,.45-2.28,2.51-.23,2.07-2.36,2.68-2.59,4.74-.23,2.07-.21,2.13-.44,4.19-.23,2.07,1.59,.69,2.79,2.39,1.2,1.7-3.16,1.78-1.95,3.48,1.2,1.7,1.67,1.09,2.87,2.79,1.2,1.7-6.77,3.63-1.74,7.26,1.69,1.22-3.05,4.78-5.59-.28-1.12-2.23-5.86,3.35-2.79,6.14,1.54,1.4,2.23,2.23-4.75,4.47-1.98,.63,1.68,5.59-3.63,6.7,0,0-2.23,5.59,2.23,4.47,5.03-1.95,2.53,.44,3.59,2.23,1.05,1.79-.78,2.95,.28,4.75,1.05,1.79-4.41,1.56-3.35,3.35,1.05,1.79,3.92,3.77,2.51,5.31-5.17,5.65,3.41,3.79,4.47,5.58,1.05,1.79,5.9,2.23,3.38,6.42-1.07,1.78,7.83,.05,8.66,1.95,.83,1.91,5.03-2.74,5.86-.84,.83,1.91,6.15-3.72,6.98-1.82,.83,1.91,5.73-1.49,6.56,.42,.83,1.91,2.8-.09,3.63,1.82,.83,1.91,4.47-4.42,5.31-2.51,.83,1.91,3.77-.56,7.68-4.75,1.14-1.22,1.58-5.62,3.21-4.75,.39-2.04-1.65-3.64-2-5.69-.35-2.05,2.28-.01,1.93-2.06-.35-2.05-.42-1.12-1.43-2.94-1.01-1.82-1.02-.32-2.03-2.14-1.01-1.82,.35-1.51-1.19-2.91-1.54-1.4-.93-.1-2.47-1.5-1.54-1.4-1.31,.82-3.21,0-1.91-.82,.54-3.27-1.37-4.1Zm-32.42,59.68l20.18,.07c-1.18-4.12-5.73-10.29-4.88-19.23-.93-.93-.73,.5-1.48,.8-.4-.2-1.65-.84-1.9-.84-.23,0-.5,1.29-1.02,1.06-.58-.26-1-1.59-1.02-1.66,0-.02-1.07-.05-2.12,.08-.13,3.03-2.23,.43-2.08,1.08-1.88,.18-2.17-.56-2.32-.55-.3,.01-1.05,13.68-3.35,19.2Zm123.7,160.8c-.01,28.96-33.09,56.86-62.82,56.87h-95.72c-.51-.04-14.28-.74-17.08,9.78l-2.34,8.78-2.43-8.76c-2.93-10.59-15.63-9.83-15.98-9.8h-92.87c-29.83,.02-64.2-27.97-63.81-56.92V53.37s353.06,0,353.06,0V404.89Zm-4.94,0V58.31H260.87V404.89c-.34,25.49,31.04,51.95,58.87,51.93h92.7c6.84-.4,14.61,2.32,18.55,8.18,4.17-6.04,12.57-8.57,19.62-8.18h95.56c27.59,0,57.87-26.24,57.88-51.93Z" style="fill-rule: evenodd;"/>
        </g>
        <g>
          <path d="M787.31,150.24v56.16c-.05,9.99-1.37,17.87-3.96,23.67-2.59,5.8-6.16,9.92-10.7,12.36-4.55,2.45-9.78,3.63-15.71,3.57-4.71,.06-9.38-.74-13.99-2.41-4.62-1.66-8.47-4.53-11.56-8.63-3.08-4.1-4.69-9.78-4.81-17.04v-72.9c.04-2.24,0-3.9-.08-4.97-.1-1.07-.48-1.68-1.14-1.83-3.22-.66-5.29-1.08-6.24-1.27-.95-.18-1.36-.87-1.27-2.05,.05-.53,.4-.92,1.04-1.18,.66-.26,1.35-.39,2.09-.39,2.24,.03,4.04,.15,5.42,.35,1.36,.19,3.52,.31,6.45,.34,3.84-.03,6.76-.15,8.79-.34,2.03-.2,3.69-.32,5-.35,2.79-.23,4.18,.4,4.18,1.91,.04,1.34-1.76,2.15-5.41,2.45-1.98,.04-3.68,.61-5.1,1.72-1.42,1.1-2.16,4.08-2.23,8.92v72.38c.09,5.14,1.21,9.28,3.37,12.37,2.14,3.1,4.78,5.33,7.92,6.7,3.15,1.38,6.25,2.06,9.3,2.03,4.08,.04,7.92-.93,11.51-2.88,3.59-1.97,6.5-5.14,8.75-9.52,2.24-4.38,3.4-10.19,3.48-17.42v-59.99c.02-5.27-.51-8.86-1.6-10.75-1.09-1.89-2.88-2.9-5.39-3.03-1.8-.12-3.08-.32-3.81-.59-.74-.26-1.1-.95-1.07-2.03,0-1.36,1.04-2.11,3.14-2.26,1.04,.03,2.27,.15,3.68,.35,1.42,.19,3.57,.31,6.44,.34,3.71-.03,6.36-.15,7.94-.34,1.57-.2,2.83-.32,3.75-.35,1.63-.04,2.38,.72,2.26,2.26,0,.97-.48,1.56-1.43,1.77-.96,.2-2.41,.49-4.32,.85-1.8,.28-3.05,1.2-3.74,2.75-.68,1.55-1.01,4.64-.97,9.29"/>
          <path d="M823.07,185.96v47.98c-.06,1.97,.23,3.4,.88,4.3,.63,.9,1.97,1.5,4,1.81,2.72,.37,4.49,.67,5.32,.89,.84,.22,1.22,.74,1.14,1.55-.12,1.2-.93,1.77-2.44,1.74-.34-.03-1.45-.14-3.34-.34-1.89-.2-5.66-.32-11.32-.35-3.87,.03-6.51,.15-7.91,.35-1.4,.2-2.44,.31-3.08,.34-2.17,0-3.23-.69-3.14-2.09,.03-1.05,.84-1.74,2.45-2.09,2.81-.26,4.69-1.01,5.64-2.25s1.4-3.52,1.33-6.82v-49.9c.06-2.36-.24-3.85-.92-4.49-.68-.65-2.12-1.01-4.33-1.09-2.55,0-3.71-.53-3.49-1.57-.03-.79,1.08-1.66,3.32-2.62,4.54-2.2,7.84-4.17,9.9-5.93,2.06-1.75,3.35-2.69,3.89-2.8,.75,.1,1.16,.79,1.22,2.09-.02,4.63,0,7.51,.11,8.66,.09,1.15,.34,1.64,.76,1.46,1.05-.14,2.61-1.1,4.69-2.89,2.09-1.79,4.66-3.59,7.72-5.38,3.07-1.79,6.62-2.76,10.63-2.89,5.07-.04,9.54,1.53,13.41,4.72,3.88,3.18,6.03,8.24,6.48,15.17v48.33c0,2.84,.36,4.88,1.13,6.13,.78,1.25,2.03,1.94,3.75,2.08,1.98,.16,3.35,.41,4.12,.76,.78,.35,1.15,.92,1.12,1.68-.2,1.2-1.02,1.77-2.45,1.74-.23-.03-1.25-.14-3.05-.34-1.8-.2-5.1-.32-9.86-.35-4.28,.03-7.15,.15-8.64,.35-1.48,.2-2.61,.31-3.4,.34-1.82,.06-2.7-.57-2.61-1.92,.06-1.1,1.16-1.85,3.31-2.26,2.32-.28,3.93-.85,4.82-1.71,.9-.85,1.33-2.38,1.29-4.58v-48.85c-.08-4.74-1.41-8.36-4.01-10.86-2.6-2.5-6.03-3.77-10.3-3.8-4.65,.12-8.78,1.64-12.4,4.58-3.62,2.95-5.53,6.66-5.74,11.13"/>
          <path d="M891.01,142.32c.06-3.03,.72-5.25,1.98-6.65,1.27-1.4,2.76-2.1,4.47-2.08,1.79-.02,3.31,.67,4.54,2.08,1.23,1.39,1.87,3.61,1.92,6.65-.05,3.12-.69,5.36-1.92,6.72-1.23,1.36-2.75,2.04-4.54,2.01-1.71,.03-3.21-.64-4.47-2.01-1.26-1.36-1.92-3.61-1.98-6.72m1.22,89.68v-51.12c.08-1.95-.38-3.37-1.37-4.28-.99-.91-2.98-1.63-5.95-2.18-.96-.23-1.48-.81-1.57-1.74-.23-.79,1.45-1.83,5.06-3.14,4.05-1.59,7.07-3.13,9.07-4.61,2-1.47,3.28-2.27,3.84-2.38,.91-.03,1.37,.56,1.39,1.74v66.83c-.13,2.43,.13,4.37,.77,5.82,.63,1.45,2.42,2.47,5.34,3.08,3.11,.47,4.57,1.28,4.37,2.45,.18,1.19-.69,1.77-2.62,1.74-.97-.04-2.34-.15-4.07-.35-1.74-.2-4.8-.32-9.19-.35-4.56,.03-7.73,.15-9.49,.35-1.74,.2-2.95,.31-3.6,.35-1.31-.04-2-.67-2.09-1.92-.14-1.11,.85-1.87,2.97-2.27,3.05-.41,5.03-1.12,5.93-2.11,.91-1,1.32-2.97,1.22-5.91"/>
          <path d="M948.52,221.48c.41,.12,.81-.29,1.21-1.23,.4-.95,1.12-3.13,2.18-6.55,1.04-3.42,2.77-8.8,5.15-16.13,2.67-8.07,4.53-13.98,5.61-17.72,1.06-3.73,1.59-6.02,1.54-6.86,.1-1.93-.35-3.19-1.35-3.77-.99-.59-3.1-1.02-6.31-1.3-1.29-.08-2.05-.78-2.27-2.09-.15-1.57,1.01-2.27,3.49-2.09,2.62,.23,5.58,.47,8.9,.69,3.58-.22,6.2-.46,7.85-.69,2.53,0,3.75,.53,3.66,1.57,.04,.53-.13,1-.51,1.44-.37,.44-1.19,.83-2.46,1.17-1.99,.51-3.48,1.86-4.47,4.06-1,2.2-2.19,5.38-3.56,9.55-1.98,5.58-4.14,12.04-6.5,19.38-2.36,7.34-4.6,14.45-6.72,21.35-2.12,6.91-3.83,12.52-5.1,16.83-.45,1.79-.82,3.27-1.11,4.45-.3,1.17-.97,1.78-2.03,1.83-1.05,0-1.79-.72-2.23-2.2-.44-1.49-1.09-3.84-1.96-7.04-1.89-6.3-3.78-12.74-5.7-19.34-1.92-6.59-3.75-12.82-5.48-18.71-1.72-5.9-3.23-10.94-4.53-15.15-1.7-5.69-2.97-9.57-3.83-11.62-.87-2.06-2.15-3.18-3.85-3.38-2.07-.22-3.17-.98-3.31-2.26,.04-.77,.4-1.29,1.09-1.55,.69-.26,1.49-.39,2.4-.37,1.03,.03,2.59,.15,4.65,.35,2.06,.19,4.17,.32,6.34,.34,1.71-.02,3.35-.15,4.91-.34,1.56-.2,3.23-.32,5.04-.35,1.61,0,2.63,.15,3.08,.46,.44,.31,.63,.86,.58,1.64-.03,.87-1.36,1.57-4.01,2.09-1.96,.51-3.27,1.03-3.95,1.58-.67,.54-.98,1.24-.94,2.09-.03,.34,.09,1.02,.35,2.05,.25,1.02,.84,3.15,1.73,6.38,.91,3.23,2.31,8.33,4.19,15.3,2.17,8.01,3.79,13.88,4.84,17.64,1.05,3.74,1.8,6.14,2.24,7.17s.81,1.48,1.12,1.35"/>
          <path d="M988.6,192.24c-.14,1.53,.22,2.56,1.09,3.1,.87,.53,3.06,.77,6.59,.74,11.75-.2,18.44-1.02,20.06-2.45,.79-.57,1.35-1.44,1.72-2.62,.37-1.18,.55-2.91,.55-5.22-.08-6.06-1.33-10.74-3.75-14.03-2.43-3.29-5.6-4.96-9.51-5-4.82,.18-8.79,2.63-11.91,7.38-3.12,4.75-4.74,10.79-4.84,18.1m35.59,8.72h-31.93c-2.82,.18-4.16,1.23-4,3.14,.09,10.59,1.99,18.9,5.71,24.95,3.71,6.05,8.67,9.13,14.87,9.25,3.74-.04,6.87-.95,9.38-2.75,2.51-1.79,4.5-4.19,5.97-7.2,.97-2.08,1.64-3.59,1.99-4.53,.34-.95,.79-1.41,1.33-1.4,.76-.17,1.16,.53,1.23,2.1-.04,5.68-1.93,10.57-5.65,14.67-3.72,4.09-9.05,6.24-15.99,6.43-9.66-.18-17.12-3.84-22.37-10.99-5.26-7.15-7.92-16.75-7.99-28.79,.1-9.75,1.55-17.84,4.37-24.24,2.81-6.4,6.46-11.18,10.94-14.32,4.48-3.14,9.28-4.71,14.36-4.7,6.4,.06,11.64,2.47,15.7,7.24,4.06,4.76,6.15,11.54,6.28,20.33,.09,4.95-.09,8.04-.53,9.27-.44,1.23-1.66,1.74-3.66,1.55"/>
          <path d="M1046.3,230.61v-47.28c.03-3.06-.47-5.09-1.51-6.1-1.03-1.01-2.8-1.48-5.3-1.4-1.19,.06-1.76-.4-1.73-1.39,.03-1.08,.6-1.82,1.71-2.23,1.11-.41,2.54-.97,4.32-1.7,1.76-.72,3.65-2.09,5.66-4.1,1.17-1.3,2.06-2.27,2.66-2.89,.6-.63,1.23-.95,1.88-.94,.87,.19,1.35,1.48,1.44,3.89,.08,2.41,.11,4.81,.08,7.22-.03,2.41,.22,3.7,.75,3.89,.8-.19,1.74-1.48,2.82-3.89,1.07-2.41,2.66-4.81,4.76-7.22,2.1-2.41,5.11-3.7,8.99-3.89,2.89,.03,5.13,1.05,6.69,3.07,1.57,2.02,2.36,4.83,2.38,8.45,0,2.84-.5,5.13-1.53,6.89-1.03,1.74-2.68,2.65-4.93,2.7-2.31-.05-3.92-.73-4.81-2.05-.9-1.32-1.33-2.96-1.3-4.93,.04-1.46-.03-2.78-.21-3.93-.18-1.16-.69-1.76-1.53-1.83-2.54,.19-4.62,1.71-6.22,4.6-1.59,2.88-2.76,6.02-3.5,9.41-.74,3.38-1.11,5.92-1.1,7.62v36.29c-.11,3.91,.2,6.65,.92,8.19,.72,1.56,2.51,2.54,5.37,2.97,3.84,.5,5.76,1.25,5.76,2.27,.23,1.42-1.1,2.06-4.01,1.91-.52-.03-1.62-.15-3.32-.34-1.69-.2-5.06-.32-10.11-.35-3.9,.03-6.61,.15-8.14,.35-1.52,.19-2.53,.31-3.03,.34-2.32,.1-3.43-.6-3.31-2.09,.18-1.23,1.39-1.92,3.66-2.09,2.38-.19,3.95-.86,4.72-1.97,.75-1.11,1.11-3.6,1.04-7.45"/>
          <path d="M1084.14,183.49c.09-5.04,1.31-9.09,3.67-12.18,2.36-3.07,5.34-5.31,8.93-6.7,3.61-1.39,7.32-2.08,11.12-2.06,5.58,.15,9.95,1.08,13.09,2.8,.43,.21,.71,1.08,.86,2.59,.14,1.51,.2,3.9,.19,7.17,.03,3.05-.04,5.33-.22,6.83-.18,1.5-.69,2.25-1.53,2.25-.77,.02-1.39-.69-1.84-2.14-.47-1.45-1.3-3.82-2.51-7.1-.92-2.41-2.13-4.36-3.66-5.87-1.53-1.52-3.62-2.29-6.28-2.34-3.82,.08-6.95,1.23-9.35,3.47-2.41,2.23-3.65,5.1-3.73,8.56,.19,4.13,1.94,7.54,5.26,10.25,3.33,2.71,7.19,5.33,11.58,7.87,4.38,2.55,8.24,5.64,11.58,9.29,3.33,3.64,5.09,8.47,5.26,14.47-.1,7.91-2.47,14.03-7.1,18.37-4.64,4.33-10.93,6.53-18.89,6.59-3.6-.04-6.44-.28-8.53-.72-2.1-.45-3.84-.91-5.25-1.37-.87-.07-1.5-.98-1.88-2.75-.38-1.77-.57-5.56-.57-11.39,0-4.32,.14-7.14,.44-8.48,.29-1.33,.79-1.95,1.48-1.81,.76-.1,1.33,.54,1.71,1.92,.37,1.37,1.2,4.11,2.47,8.19,1.21,3.64,2.85,6.58,4.96,8.79,2.09,2.22,4.75,3.37,7.96,3.43,4.14-.07,7.41-1.37,9.78-3.91,2.39-2.53,3.61-5.89,3.64-10.06-.17-5.43-1.86-9.64-5.1-12.61-3.23-2.97-6.97-5.62-11.22-7.93-4.25-2.31-7.99-5.2-11.22-8.65-3.23-3.46-4.92-8.38-5.1-14.77"/>
          <path d="M1142.77,142.32c.07-3.03,.73-5.25,1.99-6.65,1.27-1.4,2.76-2.1,4.47-2.08,1.79-.02,3.3,.67,4.53,2.08,1.24,1.39,1.88,3.61,1.93,6.65-.05,3.12-.69,5.36-1.93,6.72-1.23,1.36-2.74,2.04-4.53,2.01-1.71,.03-3.21-.64-4.47-2.01-1.26-1.36-1.92-3.61-1.99-6.72m1.23,89.68v-51.12c.08-1.95-.38-3.37-1.37-4.28-.99-.91-2.98-1.63-5.95-2.18-.96-.23-1.48-.81-1.57-1.74-.23-.79,1.45-1.83,5.06-3.14,4.05-1.59,7.07-3.13,9.07-4.61,2-1.47,3.28-2.27,3.84-2.38,.91-.03,1.37,.56,1.39,1.74v66.83c-.13,2.43,.13,4.37,.77,5.82,.63,1.45,2.42,2.47,5.34,3.08,3.11,.47,4.57,1.28,4.37,2.45,.18,1.19-.7,1.77-2.62,1.74-.97-.04-2.34-.15-4.07-.35-1.74-.2-4.8-.32-9.19-.35-4.57,.03-7.73,.15-9.49,.35-1.75,.2-2.95,.31-3.6,.35-1.31-.04-2.01-.67-2.09-1.92-.15-1.11,.85-1.87,2.97-2.27,3.04-.41,5.02-1.12,5.92-2.11,.92-1,1.33-2.97,1.23-5.91"/>
          <path d="M1214.81,226.8v-43.09c-.07-5.07-1.37-9.19-3.93-12.36-2.55-3.18-5.95-4.8-10.2-4.9-2.59-.06-5.25,1.02-8,3.25-2.74,2.23-5.08,5.94-6.99,11.17-1.91,5.21-2.9,12.27-2.99,21.16,0,12.51,1.49,21.76,4.49,27.73,3,5.97,7.55,8.94,13.65,8.9,3.41,.03,6.54-.91,9.4-2.8,2.86-1.89,4.37-4.91,4.56-9.06m0-60.35v-31.57c.05-1.29-.27-2.25-.95-2.9-.7-.64-2.07-1.14-4.1-1.46-2.62-.29-3.84-.93-3.66-1.92-.15-1.01,.66-1.77,2.45-2.26,4.61-1.68,7.94-3,10-3.97,2.07-.97,3.44-1.67,4.12-2.08,.68-.4,1.27-.6,1.75-.59,.55-.23,.84,.58,.87,2.45v108.84c0,2.64,.13,4.42,.37,5.34,.24,.93,.58,1.35,1.02,1.3,1.43-.11,2.53-.82,3.32-2.13,.79-1.32,1.45-2.63,1.97-3.95,.52-1.32,1.08-2.02,1.7-2.12,1.13-.18,1.66,1.05,1.57,3.66,.09,2.87-.34,4.79-1.29,5.78-.95,.97-2.9,2.08-5.87,3.29-3.36,1.5-5.58,2.42-6.66,2.75-1.07,.32-1.76,.46-2.07,.39-1.55,.09-2.47-.79-2.8-2.62l-.7-4.18c-.06-1.08-.47-1.71-1.22-1.92-.53,.11-1.33,.86-2.41,2.26-1.08,1.4-2.75,2.8-5.01,4.2-2.26,1.4-5.43,2.15-9.51,2.26-9.04-.18-15.73-3.93-20.06-11.22-4.34-7.31-6.49-17.11-6.46-29.42,.03-7.39,1.24-14.27,3.61-20.68,2.39-6.4,5.77-11.59,10.17-15.56,4.39-3.98,9.63-6.02,15.71-6.15,4.21,.21,7.35,1.06,9.39,2.53,2.06,1.47,3.4,2.32,4.03,2.52,.5-.03,.73-.31,.7-.87"/>
          <path d="M1281.49,221.25v-19.2c.05-1.63-.41-2.38-1.4-2.27-.46-.03-.97,.08-1.52,.33-.56,.25-1.5,.84-2.84,1.76-5.87,3.89-10.59,7.94-14.18,12.15-3.6,4.21-5.44,8.83-5.54,13.85,.06,3.48,.91,6.07,2.53,7.77,1.63,1.7,3.69,2.53,6.2,2.53,3.93-.23,7.76-2.21,11.51-5.93,1.9-1.68,3.25-3.33,4.06-4.97,.8-1.65,1.2-3.64,1.18-6.02m10.46-46.76v55.31c0,1.49,.43,2.88,1.27,4.19,.83,1.31,2.04,2.01,3.61,2.1,2.14-.1,3.62-.78,4.45-2.04,.83-1.26,1.42-2.52,1.8-3.78,.38-1.26,.97-1.94,1.77-2.04,.9-.15,1.36,.67,1.39,2.45,.02,1.27-.44,3.01-1.36,5.21-.94,2.2-2.42,4.21-4.47,6.03-2.06,1.81-4.76,2.78-8.12,2.88-3.33-.15-5.63-1.19-6.89-3.12-1.27-1.93-2.1-3.87-2.5-5.8-.42-1.93-1-2.97-1.77-3.13-.9,.17-2.28,1.27-4.14,3.31-1.87,2.04-4.39,4.08-7.6,6.13-3.2,2.05-7.25,3.14-12.17,3.3-3.65,0-6.67-1.31-9.05-3.89-2.37-2.58-3.6-6.4-3.68-11.47-.07-4.1,1.3-7.84,4.12-11.23,2.83-3.38,7.56-7.42,14.2-12.14,5.13-3.69,9.03-6.5,11.75-8.43,2.71-1.94,4.55-3.57,5.53-4.9,.98-1.33,1.44-2.94,1.39-4.82v-9.94c0-4.55-.58-7.72-1.77-9.49-1.19-1.77-3.04-2.63-5.56-2.55-4.63,.11-8.18,1.7-10.66,4.78-2.47,3.08-4.34,7.07-5.56,11.97-.6,2.29-1.75,4.35-3.47,6.18-1.71,1.83-4.04,2.8-7,2.89-2.62,.12-3.84-1.16-3.66-3.84-.08-2.09,.59-4.54,2.03-7.35,1.43-2.82,4.06-6,7.91-9.57,3.56-3.14,7.48-5.47,11.78-6.99,4.3-1.52,8.57-2.27,12.82-2.26,5.14-.1,8.73,.74,10.73,2.48,2.02,1.73,2.97,4.92,2.88,9.55"/>
          <path d="M1350.5,226.8v-43.09c-.07-5.07-1.37-9.19-3.93-12.36-2.55-3.18-5.95-4.8-10.2-4.9-2.58-.06-5.25,1.02-8,3.25-2.74,2.23-5.07,5.94-6.98,11.17-1.92,5.21-2.91,12.27-2.99,21.16,0,12.51,1.49,21.76,4.49,27.73,3,5.97,7.55,8.94,13.65,8.9,3.4,.03,6.54-.91,9.39-2.8,2.86-1.89,4.38-4.91,4.56-9.06m0-60.35v-31.57c.05-1.29-.27-2.25-.95-2.9-.7-.64-2.07-1.14-4.1-1.46-2.62-.29-3.84-.93-3.66-1.92-.15-1.01,.66-1.77,2.45-2.26,4.61-1.68,7.94-3,10.01-3.97,2.06-.97,3.43-1.67,4.11-2.08,.68-.4,1.27-.6,1.75-.59,.56-.23,.84,.58,.87,2.45v108.84c0,2.64,.13,4.42,.37,5.34,.25,.93,.58,1.35,1.02,1.3,1.42-.11,2.53-.82,3.32-2.13,.8-1.32,1.44-2.63,1.97-3.95,.52-1.32,1.08-2.02,1.7-2.12,1.13-.18,1.66,1.05,1.57,3.66,.08,2.87-.35,4.79-1.29,5.78-.95,.97-2.89,2.08-5.87,3.29-3.36,1.5-5.58,2.42-6.66,2.75-1.07,.32-1.76,.46-2.08,.39-1.54,.09-2.47-.79-2.79-2.62l-.7-4.18c-.06-1.08-.47-1.71-1.22-1.92-.53,.11-1.33,.86-2.41,2.26-1.08,1.4-2.75,2.8-5.01,4.2s-5.43,2.15-9.51,2.26c-9.03-.18-15.73-3.93-20.05-11.22-4.34-7.31-6.49-17.11-6.46-29.42,.03-7.39,1.24-14.27,3.61-20.68s5.77-11.59,10.16-15.56c4.39-3.98,9.63-6.02,15.71-6.15,4.21,.21,7.35,1.06,9.39,2.53,2.06,1.47,3.4,2.32,4.04,2.52,.49-.03,.72-.31,.69-.87"/>
          <path d="M1436.26,159.23c-.57-.06-1,.28-1.31,1.05-.3,.76-.74,2.33-1.32,4.71-2.35,9.36-4.13,16.49-5.35,21.36-1.21,4.87-2.03,8.22-2.44,10.04-.42,1.81-.61,2.81-.58,2.98-.19,.51,.32,.84,1.5,1,1.19,.16,4.18,.22,8.96,.21,4,0,6.9,0,8.68-.05,1.8-.05,2.9-.17,3.34-.36,.44-.19,.61-.53,.55-.98-.04-1.08-.93-4.58-2.64-10.51-1.71-5.92-4.04-14.58-6.96-25.95-.64-2.56-1.46-3.72-2.45-3.5m10.64,45.54h-20.06c-1.33-.16-2.38,.29-3.14,1.33-.76,1.04-1.64,3.62-2.62,7.74-1.27,5.22-2.22,9.23-2.87,12.03-.66,2.81-1.11,4.86-1.33,6.18-.23,1.32-.34,2.34-.32,3.08-.06,1.06,.23,2.03,.89,2.87,.66,.86,2.05,1.46,4.17,1.83,1.69,.21,3.02,.45,4.03,.7,1,.25,1.52,.84,1.55,1.74-.03,1.42-1.01,2.06-2.96,1.92-3.03-.23-6.58-.47-10.65-.7-3.77,.03-6.26,.15-7.43,.35-1.18,.2-1.96,.32-2.34,.35-1.25-.03-1.88-.67-1.91-1.92,.05-1.03,.53-1.69,1.41-1.97,.89-.27,1.86-.63,2.92-1.07,1.07-.43,1.89-1.4,2.47-2.89,3.24-9.78,6.35-20.26,9.33-31.41,2.98-11.15,5.92-22.53,8.84-34.12,2.9-11.6,5.87-22.96,8.87-34.08,.49-1.75,.95-3.06,1.4-3.93,.44-.88,1.08-1.32,1.91-1.32,.84-.02,1.44,.28,1.81,.93,.38,.62,.76,1.71,1.16,3.26,2.8,10.04,5.49,19.66,8.07,28.89,2.58,9.23,5.39,19.26,8.41,30.1,3.03,10.84,6.61,23.69,10.74,38.55,.45,1.61,1.04,3.05,1.79,4.32,.75,1.26,1.61,2.09,2.57,2.48,1.21,.31,2.37,.65,3.47,1,1.1,.36,1.69,.95,1.76,1.79,.09,.98-1.13,1.45-3.66,1.39-1.87-.03-3.62-.15-5.25-.35-1.64-.2-3.43-.32-5.39-.35-4.75,.23-8.87,.47-12.38,.7-1.78,.06-2.77-.58-2.97-1.92,.12-1.45,1.63-2.21,4.54-2.27,1.26,.05,2.31-.21,3.18-.81,.87-.58,1.33-1.76,1.35-3.55,.02-.73-.41-2.73-1.29-5.98-.88-3.25-2.31-8.65-4.3-16.18-.89-3.57-1.69-5.93-2.42-7.1-.73-1.18-1.84-1.71-3.34-1.62"/>
          <path d="M1496.43,170.64v52.52c.07,4.73,1.41,8.35,4.01,10.85,2.6,2.51,6.03,3.77,10.29,3.8,4.65-.11,8.79-1.64,12.41-4.58,3.62-2.95,5.53-6.66,5.74-11.13v-47.28c.07-1.98-.2-3.43-.81-4.37-.6-.94-1.97-1.51-4.08-1.74-2.22-.19-3.75-.38-4.57-.59-.84-.2-1.23-.88-1.19-2.03-.06-1.28,.94-2.03,2.97-2.27h15.52c.88-.06,1.53,.16,1.97,.64,.44,.48,.65,1.61,.65,3.38v58.97c-.04,3.06,.21,5.17,.76,6.32,.56,1.15,1.64,1.77,3.25,1.87,1.87,.16,3.14,.37,3.79,.66,.66,.28,.96,.76,.92,1.43,.03,.88-1.07,1.74-3.31,2.62-4.04,1.61-7.25,2.96-9.64,4.05s-3.77,1.66-4.15,1.71c-.27,.08-.55-.18-.81-.77-.25-.59-.39-2.02-.41-4.29,0-3.12-.06-5.06-.21-5.83-.17-.78-.5-1.1-1-.98-.91,.14-2.27,1.07-4.1,2.81-1.82,1.73-4.25,3.47-7.28,5.2-3.02,1.74-6.79,2.68-11.3,2.81-5.07,.16-9.54-1.11-13.42-3.79-3.87-2.69-6.02-7.7-6.47-15.05v-51.64c.04-1.72-.3-2.99-1-3.79-.71-.81-2.01-1.29-3.89-1.44-3.25-.2-4.76-1.02-4.53-2.45-.09-1.42,1.13-2.23,3.66-2.45h13.44c1.26-.1,2.05,.28,2.38,1.12,.32,.84,.46,2.74,.41,5.69"/>
          <path d="M1553.99,183.49c.08-5.04,1.31-9.09,3.67-12.18,2.36-3.07,5.33-5.31,8.93-6.7,3.61-1.39,7.32-2.08,11.12-2.06,5.58,.15,9.95,1.08,13.09,2.8,.43,.21,.7,1.08,.85,2.59,.15,1.51,.21,3.9,.19,7.17,.04,3.05-.03,5.33-.21,6.83-.19,1.5-.69,2.25-1.53,2.25-.78,.02-1.39-.69-1.85-2.14s-1.29-3.82-2.5-7.1c-.92-2.41-2.13-4.36-3.66-5.87-1.53-1.52-3.62-2.29-6.28-2.34-3.83,.08-6.95,1.23-9.35,3.47-2.41,2.23-3.65,5.1-3.73,8.56,.18,4.13,1.93,7.54,5.26,10.25,3.33,2.71,7.19,5.33,11.58,7.87,4.38,2.55,8.24,5.64,11.58,9.29,3.33,3.64,5.09,8.47,5.26,14.47-.1,7.91-2.47,14.03-7.11,18.37-4.63,4.33-10.93,6.53-18.88,6.59-3.6-.04-6.44-.28-8.53-.72-2.1-.45-3.84-.91-5.26-1.37-.86-.07-1.49-.98-1.87-2.75-.38-1.77-.57-5.56-.57-11.39,0-4.32,.14-7.14,.44-8.48,.29-1.33,.79-1.95,1.48-1.81,.76-.1,1.33,.54,1.7,1.92,.37,1.37,1.2,4.11,2.48,8.19,1.21,3.64,2.85,6.58,4.96,8.79,2.09,2.22,4.75,3.37,7.96,3.43,4.14-.07,7.41-1.37,9.78-3.91,2.39-2.53,3.6-5.89,3.64-10.06-.17-5.43-1.87-9.64-5.1-12.61-3.23-2.97-6.97-5.62-11.22-7.93-4.25-2.31-7.99-5.2-11.22-8.65-3.23-3.46-4.93-8.38-5.1-14.77"/>
          <path d="M1621.49,173.67v57.58c.02,2.88,.51,4.79,1.44,5.71,.94,.93,2.2,1.34,3.79,1.27,2.17-.12,3.86-.99,5.09-2.62,1.23-1.63,2.23-3.24,3.03-4.87,.8-1.63,1.65-2.5,2.52-2.62,1.05-.06,1.57,.41,1.57,1.39-.02,.82-.4,2.32-1.15,4.49-.75,2.17-1.7,4.29-2.85,6.32-1.24,2.06-2.79,3.45-4.65,4.19-1.87,.74-3.98,1.09-6.34,1.05-3.98,.06-7.1-1.07-9.4-3.38-2.29-2.32-3.46-6.2-3.51-11.63v-58.62c-.07-1.33-.67-2.15-1.81-2.45-1.14-.28-2.4-.41-3.77-.35-.81,.05-1.46-.04-1.99-.25-.52-.22-.79-.83-.81-1.83,0-.62,.59-1.58,1.73-2.87,1.14-1.3,2.78-3.41,4.91-6.35,2.13-2.95,4.69-7.2,7.66-12.76,.82-1.62,1.37-2.74,1.69-3.33,.3-.6,.74-.89,1.29-.85,.53-.07,.92,.19,1.18,.74,.25,.55,.39,1.75,.39,3.61v15.53c-.15,2.68,1.01,3.96,3.49,3.84h6.99c3.02-.18,4.47,.69,4.36,2.62,.03,1.12-.29,1.96-.98,2.5-.68,.55-1.93,.81-3.72,.81h-7.85c-.86-.04-1.45,.17-1.79,.58-.33,.43-.49,1.28-.48,2.55"/>
          <path d="M1651.82,230.61v-47.28c.04-3.06-.47-5.09-1.5-6.1-1.04-1.01-2.81-1.48-5.3-1.4-1.2,.06-1.77-.4-1.74-1.39,.03-1.08,.6-1.82,1.71-2.23,1.11-.41,2.55-.97,4.32-1.7,1.76-.72,3.65-2.09,5.66-4.1,1.18-1.3,2.06-2.27,2.66-2.89,.61-.63,1.23-.95,1.88-.94,.88,.19,1.35,1.48,1.44,3.89,.09,2.41,.12,4.81,.08,7.22-.03,2.41,.22,3.7,.75,3.89,.81-.19,1.74-1.48,2.83-3.89,1.07-2.41,2.66-4.81,4.76-7.22,2.1-2.41,5.11-3.7,8.99-3.89,2.89,.03,5.13,1.05,6.69,3.07,1.57,2.02,2.36,4.83,2.38,8.45,0,2.84-.5,5.13-1.53,6.89-1.03,1.74-2.67,2.65-4.93,2.7-2.31-.05-3.92-.73-4.81-2.05-.9-1.32-1.33-2.96-1.29-4.93,.03-1.46-.04-2.78-.22-3.93-.18-1.16-.68-1.76-1.52-1.83-2.55,.19-4.63,1.71-6.23,4.6-1.59,2.88-2.76,6.02-3.5,9.41-.74,3.38-1.1,5.92-1.09,7.62v36.29c-.12,3.91,.19,6.65,.92,8.19,.72,1.56,2.5,2.54,5.36,2.97,3.84,.5,5.76,1.25,5.76,2.27,.23,1.42-1.1,2.06-4.01,1.91-.51-.03-1.62-.15-3.31-.34-1.7-.2-5.07-.32-10.12-.35-3.9,.03-6.61,.15-8.13,.35-1.53,.19-2.54,.31-3.04,.34-2.32,.1-3.43-.6-3.31-2.09,.18-1.23,1.39-1.92,3.66-2.09,2.38-.19,3.96-.86,4.72-1.97,.76-1.11,1.11-3.6,1.04-7.45"/>
          <path d="M1731.97,221.25v-19.2c.05-1.63-.42-2.38-1.4-2.27-.46-.03-.97,.08-1.53,.33-.55,.25-1.49,.84-2.83,1.76-5.87,3.89-10.59,7.94-14.19,12.15-3.59,4.21-5.43,8.83-5.53,13.85,.06,3.48,.91,6.07,2.53,7.77,1.63,1.7,3.69,2.53,6.19,2.53,3.93-.23,7.77-2.21,11.52-5.93,1.9-1.68,3.25-3.33,4.06-4.97,.8-1.65,1.2-3.64,1.18-6.02m10.46-46.76v55.31c0,1.49,.43,2.88,1.27,4.19,.83,1.31,2.04,2.01,3.61,2.1,2.14-.1,3.62-.78,4.45-2.04,.82-1.26,1.42-2.52,1.8-3.78,.38-1.26,.97-1.94,1.77-2.04,.9-.15,1.36,.67,1.39,2.45,0,1.27-.44,3.01-1.36,5.21-.94,2.2-2.42,4.21-4.47,6.03-2.06,1.81-4.76,2.78-8.12,2.88-3.33-.15-5.63-1.19-6.89-3.12-1.27-1.93-2.1-3.87-2.5-5.8-.42-1.93-1.01-2.97-1.77-3.13-.91,.17-2.28,1.27-4.14,3.31-1.87,2.04-4.39,4.08-7.6,6.13-3.2,2.05-7.25,3.14-12.17,3.3-3.65,0-6.67-1.31-9.05-3.89-2.37-2.58-3.6-6.4-3.68-11.47-.07-4.1,1.3-7.84,4.12-11.23,2.83-3.38,7.56-7.42,14.2-12.14,5.13-3.69,9.03-6.5,11.74-8.43,2.71-1.94,4.56-3.57,5.54-4.9,.97-1.33,1.44-2.94,1.39-4.82v-9.94c0-4.55-.58-7.72-1.77-9.49-1.19-1.77-3.04-2.63-5.56-2.55-4.63,.11-8.18,1.7-10.66,4.78-2.47,3.08-4.33,7.07-5.56,11.97-.6,2.29-1.75,4.35-3.47,6.18-1.71,1.83-4.04,2.8-7,2.89-2.62,.12-3.84-1.16-3.66-3.84-.08-2.09,.59-4.54,2.03-7.35,1.42-2.82,4.06-6,7.91-9.57,3.56-3.14,7.48-5.47,11.78-6.99,4.3-1.52,8.57-2.27,12.82-2.26,5.14-.1,8.72,.74,10.73,2.48,2.01,1.73,2.97,4.92,2.88,9.55"/>
          <path d="M1768.67,232.38v-97.51c.06-1.28-.26-2.24-.95-2.89-.69-.65-2.07-1.14-4.1-1.46-2.62-.29-3.84-.94-3.66-1.92-.15-1.02,.67-1.77,2.45-2.27,4.61-1.68,7.94-2.99,10.01-3.97,2.07-.96,3.43-1.66,4.11-2.07,.69-.41,1.28-.6,1.75-.59,.56-.23,.85,.58,.88,2.45v111.62c-.04,2.06,.56,3.39,1.76,4.01,1.21,.61,3.23,1.26,6.08,1.92,.98,.22,1.77,.47,2.38,.72,.61,.25,.93,.7,.95,1.36-.03,1.32-.67,2.02-1.93,2.1-.53-.03-1.73-.15-3.61-.34-1.88-.2-5.45-.32-10.69-.35-4.65,.03-7.86,.15-9.66,.35-1.79,.19-3.05,.31-3.77,.34-.47,.02-.93-.14-1.37-.46-.45-.31-.69-.86-.73-1.64,.24-1.13,1.17-1.82,2.8-2.09,3.06-.39,5.06-1.14,6.02-2.22,.95-1.09,1.39-2.8,1.31-5.11"/>
          <path d="M1873.53,226.8v-43.09c-.07-5.07-1.37-9.19-3.93-12.36-2.55-3.18-5.95-4.8-10.2-4.9-2.59-.06-5.25,1.02-8,3.25-2.74,2.23-5.08,5.94-6.99,11.17-1.91,5.21-2.91,12.27-2.99,21.16,0,12.51,1.49,21.76,4.49,27.73,3.01,5.97,7.55,8.94,13.65,8.9,3.41,.03,6.54-.91,9.4-2.8,2.86-1.89,4.38-4.91,4.56-9.06m0-60.35v-31.57c.05-1.29-.27-2.25-.96-2.9-.69-.64-2.06-1.14-4.09-1.46-2.62-.29-3.84-.93-3.66-1.92-.15-1.01,.66-1.77,2.44-2.26,4.62-1.68,7.95-3,10.01-3.97,2.07-.97,3.44-1.67,4.12-2.08,.68-.4,1.27-.6,1.74-.59,.56-.23,.85,.58,.88,2.45v108.84c0,2.64,.13,4.42,.37,5.34,.24,.93,.58,1.35,1.02,1.3,1.43-.11,2.53-.82,3.32-2.13,.79-1.32,1.45-2.63,1.97-3.95,.52-1.32,1.08-2.02,1.7-2.12,1.13-.18,1.66,1.05,1.57,3.66,.09,2.87-.34,4.79-1.29,5.78-.95,.97-2.9,2.08-5.87,3.29-3.36,1.5-5.58,2.42-6.66,2.75-1.07,.32-1.76,.46-2.07,.39-1.55,.09-2.48-.79-2.8-2.62l-.7-4.18c-.06-1.08-.47-1.71-1.22-1.92-.53,.11-1.33,.86-2.42,2.26-1.07,1.4-2.74,2.8-5,4.2-2.26,1.4-5.43,2.15-9.51,2.26-9.04-.18-15.73-3.93-20.06-11.22-4.34-7.31-6.49-17.11-6.46-29.42,.03-7.39,1.24-14.27,3.61-20.68,2.38-6.4,5.77-11.59,10.16-15.56,4.4-3.98,9.64-6.02,15.72-6.15,4.21,.21,7.35,1.06,9.39,2.53,2.06,1.47,3.4,2.32,4.03,2.52,.5-.03,.73-.31,.7-.87"/>
          <path d="M1908.88,192.24c-.14,1.53,.23,2.56,1.09,3.1,.87,.53,3.06,.77,6.59,.74,11.75-.2,18.44-1.02,20.06-2.45,.79-.57,1.36-1.44,1.72-2.62,.37-1.18,.55-2.91,.55-5.22-.07-6.06-1.33-10.74-3.75-14.03-2.43-3.29-5.59-4.96-9.51-5-4.81,.18-8.79,2.63-11.91,7.38-3.12,4.75-4.74,10.79-4.84,18.1m35.59,8.72h-31.93c-2.82,.18-4.15,1.23-4,3.14,.09,10.59,2,18.9,5.71,24.95s8.67,9.13,14.87,9.25c3.74-.04,6.87-.95,9.38-2.75,2.51-1.79,4.5-4.19,5.97-7.2,.97-2.08,1.64-3.59,1.99-4.53,.34-.95,.79-1.41,1.33-1.4,.76-.17,1.17,.53,1.23,2.1-.04,5.68-1.93,10.57-5.65,14.67-3.72,4.09-9.05,6.24-15.99,6.43-9.66-.18-17.12-3.84-22.37-10.99-5.25-7.15-7.91-16.75-7.99-28.79,.1-9.75,1.55-17.84,4.37-24.24,2.81-6.4,6.46-11.18,10.94-14.32,4.48-3.14,9.27-4.71,14.36-4.7,6.41,.06,11.64,2.47,15.7,7.24,4.06,4.76,6.16,11.54,6.28,20.33,.09,4.95-.09,8.04-.53,9.27-.43,1.23-1.66,1.74-3.66,1.55"/>
          <path d="M2005.99,187.01c.09,13.75,1.43,24.67,4.03,32.75,2.6,8.08,5.96,13.86,10.08,17.31,4.11,3.47,8.48,5.15,13.1,5.08,5.7-.18,10.06-2.37,13.09-6.57,3.03-4.21,5.13-9.4,6.28-15.6,.8-4.37,1.38-7.37,1.74-9,.36-1.64,.95-2.42,1.74-2.34,.8-.09,1.43,.14,1.9,.68,.47,.54,.71,1.94,.72,4.21l-.18,21.98c.02,1.6-.15,2.76-.49,3.49-.33,.73-.93,1.36-1.78,1.92-1.94,1.52-5.04,2.8-9.29,3.82-4.26,1.01-8.49,1.55-12.7,1.59-8.1-.04-15.32-2.32-21.65-6.85-6.32-4.52-11.32-11.05-14.98-19.57-3.65-8.52-5.52-18.79-5.59-30.81,.05-11.59,1.81-21.68,5.27-30.28,3.47-8.6,8.35-15.28,14.63-20.04,6.28-4.76,13.66-7.18,22.15-7.25,5.35,.12,9.97,.79,13.85,2.03,3.89,1.24,6.37,2.3,7.43,3.21,.41,.24,.72,.78,.95,1.6s.39,2.52,.49,5.12c.1,2.6,.14,6.7,.14,12.31,.03,3.77-.04,6.12-.19,7.04-.17,.92-.62,1.31-1.38,1.16-.71,.14-1.33-.28-1.87-1.27-.54-.99-1.42-3.42-2.66-7.29-4.13-13.03-10.52-19.59-19.2-19.71-3.88-.08-7.78,1.54-11.68,4.84-3.91,3.3-7.19,8.72-9.83,16.24-2.65,7.53-4.02,17.6-4.13,30.21"/>
          <path d="M2086.75,185.63v46.92c-.05,2,.48,3.58,1.59,4.76,1.11,1.17,3.08,1.97,5.91,2.4,1.61,.24,2.66,.55,3.17,.9,.5,.35,.72,.87,.67,1.55-.12,1.19-.94,1.77-2.45,1.74-.33-.04-1.45-.15-3.34-.35-1.88-.2-5.65-.32-11.31-.35-3.86,.03-6.53,.15-8.03,.35-1.49,.2-2.78,.31-3.84,.35-1.45,0-2.2-.7-2.26-2.09,.03-1.05,.84-1.74,2.45-2.09,2.81-.26,4.69-1,5.64-2.25,.95-1.24,1.4-3.51,1.33-6.82v-95.75c.06-1.29-.26-2.25-.95-2.89-.69-.65-2.06-1.15-4.1-1.47-2.62-.29-3.84-.93-3.66-1.91-.15-1.02,.67-1.78,2.45-2.27,4.61-1.68,7.95-3,10.01-3.97,2.06-.97,3.43-1.67,4.11-2.07,.69-.41,1.28-.61,1.75-.6,.56-.22,.85,.58,.88,2.45v51.11c-.03,.85,.38,1.25,1.22,1.22,.55-.14,1.78-1.1,3.72-2.89,1.93-1.78,4.43-3.59,7.51-5.37,3.08-1.79,6.61-2.76,10.57-2.89,5.08-.05,9.55,1.52,13.42,4.71,3.87,3.19,6.03,8.23,6.48,15.17v48.32c-.12,5.34,1.69,8.08,5.41,8.19,3.31,.2,4.88,1.02,4.71,2.45-.2,1.19-1.01,1.77-2.44,1.74-.41-.04-1.77-.15-4.1-.35-2.33-.2-5.27-.32-8.81-.35-4.28,.03-7.16,.15-8.64,.35-1.48,.2-2.61,.31-3.4,.35-1.83,.06-2.7-.58-2.62-1.92,.07-1.36,1.17-2.12,3.32-2.27,2.31-.29,3.92-.89,4.82-1.76,.9-.89,1.33-2.39,1.28-4.51v-48.84c-.07-4.74-1.4-8.36-4-10.86-2.6-2.5-6.04-3.77-10.3-3.79-4.65,.11-8.78,1.64-12.41,4.58-3.61,2.94-5.53,6.65-5.73,11.12"/>
          <path d="M2154.82,142.32c.06-3.03,.72-5.25,1.98-6.65,1.27-1.4,2.76-2.1,4.47-2.08,1.79-.02,3.3,.67,4.54,2.08,1.23,1.39,1.87,3.61,1.92,6.65-.05,3.12-.69,5.36-1.92,6.72-1.24,1.36-2.75,2.04-4.54,2.01-1.71,.03-3.21-.64-4.47-2.01-1.26-1.36-1.92-3.61-1.98-6.72m1.22,89.68v-51.12c.08-1.95-.38-3.37-1.37-4.28-.99-.91-2.98-1.63-5.95-2.18-.96-.23-1.48-.81-1.57-1.74-.23-.79,1.45-1.83,5.06-3.14,4.05-1.59,7.07-3.13,9.07-4.61,2-1.47,3.28-2.27,3.84-2.38,.91-.03,1.37,.56,1.39,1.74v66.83c-.13,2.43,.13,4.37,.77,5.82,.63,1.45,2.42,2.47,5.34,3.08,3.11,.47,4.57,1.28,4.37,2.45,.18,1.19-.7,1.77-2.62,1.74-.97-.04-2.34-.15-4.07-.35-1.74-.2-4.8-.32-9.19-.35-4.56,.03-7.73,.15-9.49,.35-1.75,.2-2.95,.31-3.6,.35-1.31-.04-2.01-.67-2.09-1.92-.14-1.11,.85-1.87,2.97-2.27,3.04-.41,5.03-1.12,5.93-2.11,.91-1,1.32-2.97,1.22-5.91"/>
          <path d="M2194.54,232.38v-97.51c.05-1.28-.27-2.24-.96-2.89-.68-.65-2.06-1.14-4.09-1.46-2.62-.29-3.84-.94-3.66-1.92-.15-1.02,.66-1.77,2.44-2.27,4.62-1.68,7.95-2.99,10.02-3.97,2.06-.96,3.43-1.66,4.11-2.07,.68-.41,1.27-.6,1.75-.59,.55-.23,.85,.58,.87,2.45v111.62c-.03,2.06,.56,3.39,1.77,4.01,1.21,.61,3.23,1.26,6.08,1.92,.97,.22,1.77,.47,2.38,.72s.93,.7,.94,1.36c-.03,1.32-.66,2.02-1.92,2.1-.53-.03-1.73-.15-3.61-.34-1.88-.2-5.45-.32-10.69-.35-4.65,.03-7.87,.15-9.66,.35-1.8,.19-3.06,.31-3.78,.34-.47,.02-.93-.14-1.37-.46-.44-.31-.68-.86-.72-1.64,.23-1.13,1.17-1.82,2.8-2.09,3.05-.39,5.06-1.14,6.02-2.22,.95-1.09,1.39-2.8,1.31-5.11"/>
          <path d="M2233.07,192.24c-.14,1.53,.23,2.56,1.09,3.1,.87,.53,3.06,.77,6.59,.74,11.75-.2,18.44-1.02,20.06-2.45,.79-.57,1.36-1.44,1.72-2.62,.37-1.18,.55-2.91,.55-5.22-.07-6.06-1.33-10.74-3.75-14.03-2.43-3.29-5.59-4.96-9.51-5-4.81,.18-8.79,2.63-11.91,7.38-3.12,4.75-4.74,10.79-4.84,18.1m35.59,8.72h-31.93c-2.82,.18-4.15,1.23-4,3.14,.09,10.59,1.99,18.9,5.71,24.95,3.71,6.05,8.67,9.13,14.87,9.25,3.74-.04,6.87-.95,9.38-2.75,2.51-1.79,4.5-4.19,5.97-7.2,.97-2.08,1.64-3.59,1.99-4.53,.34-.95,.79-1.41,1.33-1.4,.76-.17,1.17,.53,1.23,2.1-.04,5.68-1.93,10.57-5.65,14.67-3.72,4.09-9.05,6.24-15.99,6.43-9.66-.18-17.12-3.84-22.37-10.99-5.26-7.15-7.91-16.75-7.99-28.79,.1-9.75,1.55-17.84,4.37-24.24,2.81-6.4,6.46-11.18,10.94-14.32,4.48-3.14,9.27-4.71,14.36-4.7,6.41,.06,11.64,2.47,15.7,7.24,4.06,4.76,6.15,11.54,6.28,20.33,.09,4.95-.09,8.04-.53,9.27-.44,1.23-1.66,1.74-3.66,1.55"/>
          <line x1="671.16" y1="286.49" x2="2304.08" y2="286.49" style="fill: none; stroke: #000; stroke-miterlimit: 3.86; stroke-width: .42px;"/>
          <path d="M910.92,362.76c.1-8.3,1.75-15.87,4.98-22.7,3.23-6.82,7.45-12.71,12.68-17.67,5.23-4.95,10.89-8.77,16.98-11.46,6.1-2.7,12.06-4.05,17.89-4.08,2.66,0,4.34,.21,5.02,.62,.68,.41,.97,1,.88,1.75,.06,1.9-1.44,7.88-4.51,17.93-.33,1.19-.61,2.08-.87,2.65-.25,.57-.76,.87-1.52,.86-.92,.05-1.46-.41-1.63-1.37,.02-.6,.18-2.11,.45-4.53,.28-2.42,.57-4.88,.85-7.41,.28-2.51,.44-4.22,.46-5.12,.13-1.48-.62-2.28-2.26-2.38-3.63,.14-7.74,1.45-12.28,3.95-4.55,2.5-8.95,6.11-13.21,10.83-4.26,4.73-7.79,10.48-10.56,17.3-2.78,6.8-4.21,14.59-4.32,23.35,.03,6.79,1.07,12,3.14,15.61,2.07,3.6,4.99,5.42,8.78,5.45,3.48-.05,6.64-1.21,9.46-3.48s5.11-5.38,6.83-9.31c1.47-3.42,2.55-5.95,3.23-7.62,.69-1.66,1.23-2.74,1.6-3.23,.37-.51,.81-.73,1.32-.68,.86,.08,1.27,.55,1.26,1.38,0,.81-.53,3.2-1.64,7.14l-3.89,13.91c-.23,.42-1.49,1-3.76,1.77-2.26,.76-4.82,1.46-7.69,2.09-2.86,.64-5.31,.98-7.35,1.02-6.77-.1-11.85-2.48-15.24-7.18-3.38-4.7-5.08-11.16-5.08-19.4"/>
          <path d="M970.33,371.91c.02,4.99,.79,8.64,2.32,10.97,1.52,2.33,3.67,3.47,6.45,3.45,2.57-.09,5.11-1.45,7.6-4.08,2.49-2.63,4.75-6.02,6.8-10.15,2.05-4.12,3.68-8.48,4.9-13.06,1.23-4.58,1.86-8.85,1.89-12.83-.17-9.85-3.1-14.7-8.78-14.54-2.57,.09-5.1,1.46-7.59,4.1-2.49,2.65-4.76,6.04-6.81,10.19-2.05,4.14-3.68,8.52-4.9,13.11-1.23,4.59-1.85,8.88-1.88,12.84m-6.77-4.51c.07-6.12,1.35-12.12,3.88-18.02,2.51-5.88,5.89-10.77,10.08-14.66,4.21-3.9,8.88-5.91,13.99-6.06,4.93,.08,8.74,2.06,11.44,5.95,2.7,3.9,4.07,9.28,4.1,16.12-.06,6.08-1.35,12.05-3.87,17.92-2.52,5.87-5.89,10.75-10.09,14.64-4.2,3.9-8.87,5.91-13.99,6.06-4.92-.07-8.73-2.04-11.44-5.9-2.7-3.86-4.06-9.21-4.1-16.05"/>
          <path d="M1018.61,387.33h-5.9l7.52-21.69c2.59-7.49,4.59-13.59,6.01-18.31,1.4-4.7,2.12-7.8,2.14-9.27,.08-1.7-.59-2.57-2.01-2.64-1.94-.04-4.82,2.68-8.65,8.16-1.87,2.73-3.01,4.5-3.41,5.31-.41,.81-.86,1.17-1.35,1.08-.6,.02-.9-.27-.88-.88,.04-.68,.65-2.09,1.85-4.2,1.2-2.11,2.76-4.41,4.69-6.92,1.92-2.48,3.99-4.65,6.21-6.46,2.22-1.82,4.37-2.78,6.43-2.85,1.81,.03,3.13,.58,3.94,1.68,.82,1.08,1.22,2.48,1.21,4.21-.05,2.19-.47,4.7-1.25,7.5-.77,2.82-1.62,5.58-2.52,8.31-.91,2.74-1.57,5.07-2,7.01l.25,.25c1.13-2.28,2.76-5.03,4.9-8.23,2.12-3.21,4.59-6.38,7.37-9.54,2.79-3.16,5.7-5.79,8.76-7.9,3.07-2.1,6.08-3.21,9.06-3.28,1.97,.02,3.55,.63,4.72,1.84,1.17,1.22,1.77,2.89,1.8,5.05,.03,1.56-.19,3.2-.65,4.89-.47,1.71-1.33,4.15-2.58,7.36-1.26,3.19-3.06,7.8-5.42,13.83-1.85,4.81-3.2,8.41-4.03,10.79-.84,2.38-1.36,4.03-1.58,4.98-.21,.94-.31,1.67-.28,2.16,.07,1.36,.57,2.03,1.51,2.01,1.75,.15,4.26-1.9,7.52-6.14,2.54-3.4,4.12-5.79,4.73-7.16,.61-1.38,1.12-2.05,1.54-2,.6,.07,.9,.44,.88,1.13-.04,.78-.68,2.26-1.92,4.44-1.24,2.17-2.84,4.53-4.78,7.06-1.95,2.52-4.02,4.72-6.2,6.55-2.18,1.83-4.23,2.8-6.15,2.88-1.92-.05-3.26-.64-4.03-1.77-.77-1.13-1.14-2.5-1.11-4.12,.02-1.99,.45-4.56,1.32-7.73,.86-3.17,2.06-6.65,3.58-10.45,2.48-6.2,4.43-11.06,5.85-14.62,1.41-3.55,2.4-6.27,2.97-8.14,.57-1.88,.86-3.41,.83-4.58-.1-2.36-1.01-3.54-2.76-3.52-2.92,.09-6.66,2.58-11.22,7.49-4.55,4.91-9.3,11.73-14.24,20.47-1.2,2.18-2.53,4.81-3.98,7.9-1.44,3.09-2.76,6.05-3.95,8.89-1.2,2.84-2.02,4.97-2.47,6.4-.34,1.16-.64,1.91-.9,2.27-.25,.36-.71,.53-1.36,.49"/>
          <path d="M1081.77,371.91c.02,4.99,.79,8.64,2.32,10.97,1.52,2.33,3.67,3.47,6.45,3.45,2.57-.09,5.11-1.45,7.6-4.08,2.49-2.63,4.75-6.02,6.8-10.15,2.05-4.12,3.68-8.48,4.9-13.06,1.23-4.58,1.86-8.85,1.89-12.83-.17-9.85-3.1-14.7-8.78-14.54-2.57,.09-5.1,1.46-7.59,4.1-2.49,2.65-4.76,6.04-6.81,10.19-2.05,4.14-3.68,8.52-4.9,13.11-1.23,4.59-1.85,8.88-1.88,12.84m-6.77-4.51c.07-6.12,1.35-12.12,3.88-18.02,2.51-5.88,5.89-10.77,10.08-14.66,4.21-3.9,8.88-5.91,13.99-6.06,4.93,.08,8.74,2.06,11.44,5.95,2.7,3.9,4.07,9.28,4.1,16.12-.06,6.08-1.35,12.05-3.87,17.92-2.52,5.87-5.89,10.75-10.09,14.64-4.2,3.9-8.87,5.91-13.99,6.06-4.92-.07-8.73-2.04-11.43-5.9-2.71-3.86-4.07-9.21-4.11-16.05"/>
          <path d="M1123.75,369.03c.11-7.52,1.71-14.31,4.8-20.38,3.09-6.07,7.01-10.89,11.74-14.48,4.74-3.59,9.63-5.42,14.66-5.51,3.41,.03,6.01,.78,7.8,2.26,1.8,1.47,2.72,3.48,2.73,6.01-.02,1.48-.54,2.72-1.55,3.71-1.01,.99-2.38,1.52-4.09,1.56-1.15,.04-2.14-.42-2.97-1.38-.84-.95-1.39-2.68-1.67-5.14-.08-1.16-.29-2.11-.67-2.85-.38-.75-1.2-1.13-2.47-1.16-2.53,.06-5.37,1.67-8.5,4.84-3.12,3.18-5.85,7.56-8.16,13.17-2.32,5.61-3.54,12.1-3.65,19.47,.04,4.24,.94,7.57,2.72,9.98,1.76,2.42,4.21,3.64,7.32,3.68,2.43-.1,4.83-1.18,7.24-3.25,2.4-2.08,4.49-4.54,6.29-7.4,1.88-3.05,3.01-5.08,3.4-6.07,.39-.99,.8-1.48,1.24-1.45,.69-.09,1.07,.33,1.13,1.25,.02,.83-.5,2.44-1.52,4.83-1.03,2.39-2.7,5.13-5,8.21-2.09,2.77-4.53,5.09-7.35,6.97-2.83,1.88-5.93,2.85-9.32,2.93-4.33,0-7.76-1.66-10.28-4.97-2.53-3.3-3.83-8.25-3.89-14.84"/>
          <path d="M1185.78,315.25c.06-2.16,.69-4.08,1.89-5.75,1.21-1.68,2.62-2.56,4.25-2.65,1,.03,1.78,.47,2.32,1.3,.54,.84,.81,1.86,.82,3.09-.06,2.16-.69,4.08-1.9,5.75-1.2,1.68-2.62,2.56-4.25,2.65-1-.03-1.78-.47-2.32-1.3-.54-.84-.81-1.86-.81-3.09m.62,28.96l-10.53,29.47c-.5,1.47-.85,2.63-1.06,3.47-.21,.86-.32,1.57-.31,2.16,0,.95,.5,1.44,1.5,1.51,.77,.08,1.77-.58,3.02-1.99,1.26-1.41,3.05-4.05,5.38-7.92,.99-1.75,1.67-3.07,2.03-3.95,.35-.88,.81-1.32,1.35-1.32,.65,.04,.98,.33,1,.88-.03,.69-.6,2.16-1.71,4.41-1.11,2.25-2.57,4.72-4.39,7.39-1.81,2.68-3.8,4.99-5.94,6.95-2.14,1.95-4.27,2.97-6.37,3.07-1.36-.06-2.36-.6-2.98-1.65-.61-1.04-.92-2.25-.91-3.61,.13-2.86,1.13-6.79,3.01-11.79l8.4-23.44c1.11-2.94,1.87-5.14,2.29-6.62,.42-1.46,.61-2.6,.59-3.41,.04-1.04-.42-1.59-1.38-1.64-.58-.04-1.32,.3-2.17,1.02-.86,.72-2.06,2.1-3.6,4.12-1.82,2.45-3.1,4.34-3.83,5.69-.73,1.35-1.24,2.3-1.52,2.83-.28,.53-.67,.78-1.17,.76-.54,.07-.83-.19-.87-.75,.03-.87,.59-2.33,1.71-4.38,1.1-2.05,2.58-4.35,4.43-6.91,2.25-3.1,4.39-5.51,6.44-7.26,2.05-1.73,4.03-2.62,5.97-2.64,2.59,.04,3.93,1.71,4,5.01,0,1.04-.21,2.5-.62,4.38-.41,1.87-.99,3.93-1.75,6.16"/>
          <path d="M1199.54,387.33h-5.9c.37-1.59,1.18-4.17,2.42-7.72,1.25-3.56,2.69-7.56,4.34-12.01,1.65-4.45,3.26-8.84,4.85-13.14,1.58-4.31,2.9-8.01,3.95-11.11,1.04-3.11,1.59-5.07,1.63-5.91-.04-1.3-.71-1.96-2.01-2.01-.58-.04-1.34,.3-2.29,1.02-.94,.72-2.26,2.1-3.98,4.12-2.57,3.18-4.24,5.5-5,6.98-.77,1.46-1.4,2.19-1.9,2.17-.6,.02-.9-.27-.88-.88,.05-.72,.74-2.16,2.09-4.36,1.34-2.19,3.08-4.58,5.19-7.18,2.06-2.45,4.24-4.48,6.55-6.11,2.31-1.63,4.42-2.48,6.36-2.53,2.54,.17,3.84,1.59,3.89,4.26,.02,1.01-.15,2.33-.5,3.93-.36,1.6-1.01,3.92-1.98,6.94s-2.35,7.17-4.17,12.45l.24,.25c2.69-4.21,5.54-8.44,8.57-12.68,3.03-4.24,6.15-7.8,9.35-10.67s6.42-4.38,9.66-4.48c1.79,0,3.25,.71,4.38,2.14,1.14,1.42,1.72,3.56,1.75,6.37-.03,1.57-.36,3.58-.98,6.03-.63,2.45-1.37,4.96-2.24,7.55-.87,2.58-1.68,4.87-2.42,6.86l.25,.24c1.07-1.97,2.62-4.55,4.67-7.74,2.06-3.19,4.39-6.41,7.04-9.69,2.64-3.27,5.38-6.03,8.23-8.28,2.85-2.24,5.6-3.41,8.26-3.5,2.33,.05,4.07,.78,5.25,2.19,1.18,1.4,1.76,3.14,1.77,5.19-.09,2.45-.9,5.83-2.44,10.13-1.54,4.31-3.31,8.83-5.34,13.53-2.03,4.72-3.81,8.9-5.35,12.55-1.53,3.65-2.35,6.04-2.43,7.16-.1,1.4,.48,2.11,1.75,2.13,1.2-.03,2.53-.69,3.99-1.99,1.47-1.3,3.02-3.06,4.66-5.28,2-2.7,3.36-4.73,4.1-6.1,.74-1.36,1.3-2.05,1.67-2.05,.6,.1,.9,.39,.88,.88-.02,.78-.67,2.33-1.96,4.65-1.29,2.33-3.1,4.92-5.44,7.76-2.42,2.95-4.7,5.17-6.84,6.66-2.12,1.49-4.29,2.24-6.45,2.24-1.44-.03-2.53-.5-3.27-1.4-.74-.89-1.11-2.02-1.11-3.36,.08-2.73,.89-6.2,2.43-10.41,1.54-4.22,3.32-8.64,5.35-13.25,2.02-4.63,3.8-8.91,5.34-12.83,1.54-3.94,2.35-6.99,2.43-9.14-.1-2.03-1.15-3.12-3.13-3.26-2.44,.12-5.59,2.32-9.47,6.63-3.88,4.31-7.92,10.02-12.11,17.13-4.2,7.11-8,14.96-11.39,23.51-.84,2.19-1.42,3.66-1.74,4.38-.32,.72-.62,1.06-.89,1h-7.28c5.28-13.89,9.3-24.79,12.03-32.69,2.75-7.9,4.12-13.35,4.14-16.33,.04-2.34-.93-3.55-2.88-3.63-1.75,.09-4.04,1.59-6.89,4.51-2.84,2.93-5.88,6.75-9.09,11.49-3.23,4.74-6.29,9.85-9.19,15.37-2.91,5.51-5.3,10.89-7.17,16.15-.75,2.25-1.31,3.68-1.65,4.32-.36,.62-.94,.91-1.74,.83"/>
          <path d="M1304.1,315.25c.06-2.16,.69-4.08,1.89-5.75,1.21-1.68,2.62-2.56,4.25-2.65,1,.03,1.78,.47,2.32,1.3,.54,.84,.81,1.86,.82,3.09-.07,2.16-.69,4.08-1.9,5.75-1.2,1.68-2.62,2.56-4.25,2.65-1-.03-1.78-.47-2.32-1.3-.54-.84-.81-1.86-.81-3.09m.62,28.96l-10.53,29.47c-.5,1.47-.86,2.63-1.07,3.47-.21,.86-.31,1.57-.3,2.16,0,.95,.5,1.44,1.5,1.51,.76,.08,1.77-.58,3.02-1.99,1.26-1.41,3.05-4.05,5.38-7.92,.99-1.75,1.67-3.07,2.02-3.95,.35-.88,.82-1.32,1.36-1.32,.65,.04,.98,.33,1,.88-.03,.69-.6,2.16-1.71,4.41s-2.57,4.72-4.39,7.39c-1.82,2.68-3.8,4.99-5.94,6.95-2.14,1.95-4.27,2.97-6.37,3.07-1.37-.06-2.36-.6-2.98-1.65-.61-1.04-.92-2.25-.91-3.61,.13-2.86,1.13-6.79,3.01-11.79l8.4-23.44c1.1-2.94,1.87-5.14,2.29-6.62,.42-1.46,.61-2.6,.59-3.41,.04-1.04-.42-1.59-1.38-1.64-.58-.04-1.32,.3-2.17,1.02-.86,.72-2.06,2.1-3.6,4.12-1.82,2.45-3.1,4.34-3.83,5.69-.73,1.35-1.24,2.3-1.52,2.83-.29,.53-.67,.78-1.17,.76-.55,.07-.83-.19-.88-.75,.03-.87,.6-2.33,1.71-4.38,1.1-2.05,2.58-4.35,4.43-6.91,2.25-3.1,4.39-5.51,6.44-7.26,2.05-1.73,4.03-2.62,5.97-2.64,2.58,.04,3.93,1.71,4,5.01,0,1.04-.21,2.5-.62,4.38-.42,1.87-.99,3.93-1.75,6.16"/>
          <path d="M1341.93,330.92c-2.23,0-4.72,1.1-7.42,3.31-2.72,2.2-5.29,5.49-7.71,9.83-2.43,4.36-4.32,9.75-5.68,16.18,8.14-1.44,14-3.81,17.61-7.1,3.6-3.28,5.83-6.57,6.66-9.86,.86-3.28,1.2-5.65,1.05-7.1,0-1.53-.37-2.79-1.12-3.76-.76-.97-1.88-1.47-3.39-1.5m11.28,8.27c.1,6.53-2.45,11.77-7.6,15.74-5.15,3.96-13.49,6.57-24.99,7.83-.64,2.48-.98,5.15-1,8.02,.13,8.03,2.63,12.03,7.52,12.03,4.99-.02,10.3-3.73,15.92-11.16,1.35-1.91,2.22-3.25,2.58-4.02,.37-.77,.76-1.14,1.18-1.11,.58,0,.92,.38,1,1.13-.04,.75-.85,2.44-2.42,5.04-1.57,2.61-3.69,5.36-6.36,8.24-2,2.14-4.36,3.98-7.08,5.51-2.72,1.53-5.46,2.33-8.2,2.4-7.95,.13-11.99-6.02-12.17-18.44,.15-7.73,1.86-14.74,5.13-21.02,3.28-6.27,7.29-11.27,12.01-15,4.73-3.73,9.33-5.64,13.82-5.73,3.85,.15,6.6,1.31,8.24,3.48,1.66,2.18,2.46,4.53,2.42,7.05"/>
          <path d="M1359.61,387.33h-5.9l7.52-21.69c2.59-7.49,4.59-13.59,6.01-18.31,1.4-4.7,2.12-7.8,2.14-9.27,.08-1.7-.59-2.57-2.01-2.64-1.94-.04-4.82,2.68-8.65,8.16-1.87,2.73-3.01,4.5-3.41,5.31-.41,.81-.86,1.17-1.35,1.08-.6,.02-.9-.27-.88-.88,.04-.68,.65-2.09,1.85-4.2,1.2-2.11,2.76-4.41,4.69-6.92,1.92-2.48,3.99-4.65,6.21-6.46,2.22-1.82,4.37-2.78,6.44-2.85,1.8,.03,3.12,.58,3.93,1.68,.82,1.08,1.22,2.48,1.21,4.21-.05,2.19-.47,4.7-1.25,7.5-.77,2.82-1.62,5.58-2.52,8.31-.91,2.74-1.57,5.07-2,7.01l.25,.25c1.13-2.28,2.76-5.03,4.9-8.23,2.12-3.21,4.59-6.38,7.37-9.54,2.79-3.16,5.7-5.79,8.77-7.9,3.06-2.1,6.07-3.21,9.05-3.28,1.97,.02,3.55,.63,4.72,1.84,1.17,1.22,1.77,2.89,1.8,5.05,.03,1.56-.19,3.2-.65,4.89-.46,1.71-1.33,4.15-2.58,7.36-1.26,3.19-3.06,7.8-5.42,13.83-1.84,4.81-3.2,8.41-4.03,10.79-.84,2.38-1.36,4.03-1.58,4.98-.21,.94-.31,1.67-.28,2.16,.07,1.36,.57,2.03,1.51,2.01,1.75,.15,4.26-1.9,7.52-6.14,2.54-3.4,4.12-5.79,4.74-7.16,.6-1.38,1.11-2.05,1.53-2,.6,.07,.9,.44,.88,1.13-.04,.78-.68,2.26-1.92,4.44-1.24,2.17-2.84,4.53-4.78,7.06-1.95,2.52-4.02,4.72-6.2,6.55-2.18,1.83-4.23,2.8-6.15,2.88-1.92-.05-3.26-.64-4.03-1.77-.77-1.13-1.14-2.5-1.11-4.12,.02-1.99,.45-4.56,1.32-7.73,.86-3.17,2.06-6.65,3.58-10.45,2.48-6.2,4.43-11.06,5.85-14.62,1.41-3.55,2.4-6.27,2.97-8.14,.57-1.88,.86-3.41,.83-4.58-.1-2.36-1.01-3.54-2.75-3.52-2.93,.09-6.66,2.58-11.22,7.49-4.55,4.91-9.3,11.73-14.23,20.47-1.21,2.18-2.54,4.81-3.99,7.9-1.44,3.09-2.76,6.05-3.95,8.89-1.2,2.84-2.02,4.97-2.47,6.4-.34,1.16-.64,1.91-.9,2.27-.25,.36-.71,.53-1.36,.49"/>
          <path d="M1429.91,333.61h-7.89l.87-3.01h8.16l5.51-16.54c.23-1.09,.67-1.77,1.31-2.04,.62-.27,2.28-.39,4.96-.35,.79,0,1.29,.04,1.49,.13,.2,.09,.29,.25,.26,.51,.02,.44-.14,1.2-.45,2.29-.31,1.09-.88,2.87-1.69,5.36-.8,2.48-1.93,6.03-3.38,10.65h9.53l-.88,3.01h-9.77c-3.42,10.59-6.23,18.99-8.41,25.19-2.18,6.19-3.8,10.8-4.84,13.82-1.03,3.01-1.55,5.06-1.55,6.13,.18,1.35,.72,2.03,1.64,2.01,.65,0,1.47-.52,2.47-1.59,.99-1.06,2.39-2.75,4.17-5.06,1.96-2.69,3.26-4.68,3.92-5.97,.64-1.3,1.27-1.94,1.85-1.93,.54,.02,.83,.36,.87,1-.04,.68-.67,2.11-1.92,4.3-1.24,2.17-2.84,4.55-4.78,7.12-1.95,2.58-4.01,4.8-6.2,6.68-2.18,1.88-4.23,2.86-6.15,2.96-2.68-.13-3.98-1.76-3.89-4.89-.04-1.99,.37-4.65,1.22-8.01,.85-3.34,2.35-8.28,4.5-14.79,2.15-6.51,5.18-15.5,9.07-26.97"/>
          <path d="M1450.59,371.91c.02,4.99,.79,8.64,2.32,10.97,1.52,2.33,3.67,3.47,6.45,3.45,2.57-.09,5.11-1.45,7.6-4.08,2.49-2.63,4.75-6.02,6.8-10.15,2.06-4.12,3.68-8.48,4.9-13.06,1.23-4.58,1.86-8.85,1.89-12.83-.17-9.85-3.1-14.7-8.78-14.54-2.57,.09-5.1,1.46-7.59,4.1-2.49,2.65-4.76,6.04-6.81,10.19-2.05,4.14-3.68,8.52-4.9,13.11-1.23,4.59-1.85,8.88-1.88,12.84m-6.77-4.51c.07-6.12,1.35-12.12,3.88-18.02,2.52-5.88,5.89-10.77,10.08-14.66,4.21-3.9,8.88-5.91,13.99-6.06,4.93,.08,8.74,2.06,11.44,5.95,2.7,3.9,4.07,9.28,4.1,16.12-.06,6.08-1.35,12.05-3.87,17.92-2.52,5.87-5.89,10.75-10.09,14.64-4.2,3.9-8.87,5.91-13.99,6.06-4.92-.07-8.73-2.04-11.44-5.9-2.7-3.86-4.06-9.21-4.1-16.05"/>
          <path d="M1542.22,381.81l.37,.25c1.42-1.98,3.62-5.13,6.62-9.46,2.99-4.33,5.77-9.01,8.34-14.06,2.57-5.04,3.94-9.61,4.1-13.72-.11-1.48-.52-3.15-1.26-5-.73-1.84-1.14-3.61-1.25-5.28,.02-1.66,.39-2.98,1.11-3.98,.72-1,1.7-1.51,2.9-1.54,1.6,.03,2.72,.73,3.35,2.1,.63,1.37,.94,3.26,.91,5.67,.06,3.52-.84,7.71-2.69,12.57-1.85,4.86-5,10.84-9.46,17.95-4.45,7.1-10.56,15.78-18.31,26.02-3.24,4.41-6.04,8.01-8.4,10.79-3.26,3.81-6.09,6.44-8.47,7.86-2.38,1.43-4.7,2.11-6.96,2.04-2.3-.06-3.99-.85-5.07-2.36-1.06-1.52-1.59-3.4-1.58-5.66,.02-1.25,.39-2.39,1.13-3.4,.73-1.01,1.73-1.55,3-1.62,1.11-.04,1.94,.39,2.51,1.26,.57,.88,1.03,2.42,1.37,4.64,.16,.87,.51,1.49,1.07,1.85,.56,.36,1.16,.54,1.81,.54,1.79-.13,3.49-.89,5.08-2.27,1.61-1.4,2.92-2.69,3.96-3.88,2.06-2.22,3.9-5.11,5.51-8.63,1.62-3.53,2.71-7.12,3.25-10.8,.31-2.35,.54-5.17,.68-8.48,.14-3.31,.2-7.29,.19-11.96,0-8.4-.14-14.64-.42-18.68-.29-4.06-.73-6.69-1.33-7.9-.58-1.21-1.34-1.75-2.26-1.63-.97,0-1.91,.57-2.81,1.68-.9,1.11-1.92,2.77-3.09,4.97-1.24,2.35-2.09,4.22-2.57,5.62-.48,1.39-1.08,2.11-1.81,2.14-.76,.07-1.13-.44-1.13-1.5,.02-.46,.44-1.66,1.25-3.6,.81-1.93,1.9-4.07,3.26-6.43,1.37-2.36,2.89-4.41,4.58-6.16,1.7-1.74,3.43-2.66,5.19-2.75,2.75-.09,4.76,1.53,6.02,4.86,1.28,3.32,1.9,8.9,1.88,16.7,0,4.54,0,8.55-.05,11.99-.04,3.45-.1,6.7-.19,9.73-.1,3.04-.22,6.21-.39,9.49"/>
          <path d="M1640.58,381.89l-17.55-63.93h-.25c-4.23,12.82-7.64,23.23-10.21,31.22-2.58,8-4.52,14.16-5.84,18.48-1.32,4.33-2.19,7.39-2.64,9.18-.45,1.79-.65,2.88-.62,3.29-.05,1.36,.41,2.4,1.38,3.1,.97,.71,2.82,1.18,5.51,1.41,.92,.05,1.46,.58,1.63,1.64,.05,.95-.54,1.41-1.75,1.37-1.29-.02-2.76-.11-4.43-.25-1.68-.15-3.75-.22-6.23-.25-2.25,.03-4.12,.11-5.6,.25-1.48,.15-2.91,.23-4.3,.25-.95,0-1.44-.51-1.5-1.5,.04-.89,.58-1.38,1.63-1.51,2.48-.2,4.36-.59,5.59-1.17,1.24-.57,2.22-1.62,2.94-3.14,.72-1.52,1.56-3.8,2.49-6.85,6-18.38,10.64-32.42,13.93-42.14,3.29-9.73,4.95-15.44,5-17.15,.06-.88-.18-1.49-.69-1.83-.52-.33-1.62-.72-3.32-1.17-1.39-.25-2.1-.75-2.12-1.5-.07-1,.44-1.51,1.5-1.51,2.15,.08,4.49,.17,7.03,.25,2.38-.09,4.51-.18,6.39-.25,.32-.12,.67,.49,1.04,1.8,.38,1.32,1.07,4.04,2.09,8.19,1.02,4.15,2.65,10.41,4.91,18.77,2.25,8.37,5.42,19.55,9.51,33.53h.25c5.16-16.92,9.12-30.1,11.88-39.51,2.75-9.41,4.14-14.63,4.17-15.64,.04-1.24-.23-2.17-.85-2.82-.61-.64-1.83-1.08-3.67-1.32-2.07-.11-3.07-.65-3-1.64-.07-.83,.56-1.3,1.88-1.37,3.07,.17,6.46,.33,10.15,.51,1.92-.03,3.37-.11,4.34-.25,.97-.15,1.95-.23,2.93-.25,.96,.02,1.42,.48,1.38,1.37-.03,.59-.35,.95-.96,1.1-.6,.15-1.33,.32-2.17,.54-1.48,.35-2.75,1.06-3.81,2.11-1.05,1.06-2.05,2.98-2.96,5.79-5.05,15.56-8.97,27.99-11.79,37.28-2.82,9.29-4.89,16.21-6.22,20.79-1.33,4.58-2.27,7.59-2.85,9.02-.57,1.44-1.15,2.1-1.72,1.96-.62,.06-1.03-.36-1.25-1.25-.21-.89-.64-2.56-1.26-5.02"/>
          <path d="M1671.96,376.43c0,1.66,.29,2.98,.91,3.98,.61,1,1.61,1.51,2.98,1.54,2.41-.17,5.38-2.06,8.91-5.68,3.53-3.61,7.04-7.99,10.55-13.12,3.51-5.13,6.45-10.04,8.82-14.72,2.37-4.69,3.6-8.18,3.69-10.46-.18-3.91-2.09-5.87-5.77-5.89-3.23,.13-6.58,1.82-10.05,5.07-3.47,3.24-6.72,7.3-9.75,12.14-3.02,4.84-5.49,9.71-7.37,14.63-1.9,4.91-2.87,9.09-2.92,12.54m45.88-45.12l-12.16,36.6c-1.15,3.54-1.89,6.02-2.21,7.47s-.46,2.47-.42,3.06c.08,1.28,.54,1.86,1.37,1.75,.56,.04,1.45-.63,2.72-2.01,1.25-1.37,2.94-3.67,5.06-6.89,1.45-2.35,2.34-3.97,2.65-4.86,.31-.9,.72-1.33,1.24-1.29,.6,.02,.9,.36,.88,1-.04,.96-.67,2.64-1.91,5.01-1.24,2.37-2.84,4.9-4.81,7.59-1.98,2.69-4.08,5-6.34,6.94-2.25,1.93-4.41,2.93-6.49,3.03-1.4-.04-2.33-.47-2.78-1.32-.45-.85-.65-1.92-.61-3.2,0-2.1,.6-5.05,1.82-8.83,1.22-3.78,3.08-9.32,5.57-16.62l-.25-.25c-1.16,1.83-2.86,4.38-5.11,7.63-2.24,3.26-4.77,6.62-7.6,10.07-2.83,3.45-5.69,6.37-8.6,8.77-2.91,2.4-5.63,3.64-8.15,3.75-2.85-.05-4.86-1.08-6.05-3.09-1.18-2.01-1.75-4.7-1.72-8.07,.08-5.56,1.35-11.14,3.8-16.72,2.46-5.58,5.62-10.71,9.49-15.39,3.87-4.68,7.97-8.43,12.32-11.27,4.33-2.84,8.42-4.3,12.26-4.38,3.01,.06,5.77,1.06,8.27,3.01l1.26-3.01c.16-.5,.37-.83,.64-1,.26-.18,.76-.26,1.48-.25h3.63c.8-.09,1.22,.2,1.27,.88-.05,.51-.21,1.13-.51,1.88"/>
          <path d="M1736.2,333.61h-7.89l.87-3.01h8.16l5.51-16.54c.23-1.09,.67-1.77,1.3-2.04,.63-.27,2.29-.39,4.97-.35,.79,0,1.29,.04,1.49,.13,.2,.09,.29,.25,.26,.51,.02,.44-.14,1.2-.46,2.29-.31,1.09-.88,2.87-1.68,5.36-.81,2.48-1.93,6.03-3.38,10.65h9.53l-.88,3.01h-9.78c-3.41,10.59-6.22,18.99-8.4,25.19-2.18,6.19-3.8,10.8-4.84,13.82-1.04,3.01-1.55,5.06-1.55,6.13,.17,1.35,.71,2.03,1.63,2.01,.65,0,1.48-.52,2.48-1.59,1-1.06,2.4-2.75,4.17-5.06,1.97-2.69,3.27-4.68,3.92-5.97,.65-1.3,1.27-1.94,1.85-1.93,.55,.02,.84,.36,.88,1-.04,.68-.68,2.11-1.92,4.3-1.24,2.17-2.84,4.55-4.78,7.12-1.95,2.58-4.01,4.8-6.2,6.68-2.18,1.88-4.23,2.86-6.16,2.96-2.67-.13-3.97-1.76-3.88-4.89-.04-1.99,.37-4.65,1.21-8.01,.86-3.34,2.36-8.28,4.51-14.79,2.15-6.51,5.18-15.5,9.07-26.97"/>
          <path d="M1789.34,360.25l-.25-.25c-2.49,3.75-5.52,7.77-9.08,12.07-3.57,4.31-7.26,8.02-11.09,11.13-3.83,3.11-7.39,4.74-10.67,4.88-3.49-.08-5.29-2.05-5.39-5.89,.08-2.6,.89-6.11,2.43-10.54,1.54-4.43,3.32-9.05,5.34-13.88,2.03-4.82,3.81-9.12,5.35-12.89,1.54-3.77,2.35-6.29,2.43-7.58,.09-.97-.33-1.52-1.26-1.63-1.09,.07-2.35,.81-3.77,2.23-1.42,1.41-2.84,3.1-4.25,5.05-2.07,2.91-3.49,5.01-4.28,6.27-.79,1.28-1.37,1.9-1.73,1.87-.76-.02-1.13-.36-1.13-1,.04-.48,.7-1.79,1.98-3.95,1.29-2.15,2.93-4.56,4.96-7.21,2.03-2.65,4.17-4.96,6.44-6.94,2.27-1.96,4.41-2.99,6.43-3.1,3.11-.17,4.65,1.68,4.64,5.52-.09,1.82-.9,4.81-2.44,8.97-1.54,4.16-3.32,8.69-5.34,13.59-2.03,4.89-3.81,9.35-5.34,13.4-1.54,4.03-2.36,6.83-2.44,8.42,.15,1.76,.98,2.6,2.51,2.5,2.15-.04,5.42-1.98,9.8-5.83,4.38-3.85,8.97-9.41,13.78-16.68,4.81-7.28,8.94-16.08,12.39-26.39,.19-.86,.54-1.4,1.03-1.67,.51-.25,1.54-.37,3.1-.34,1.47,0,2.43,.1,2.89,.29,.46,.2,.66,.53,.62,.96-.04,.4-.6,2.08-1.69,5.02-1.07,2.95-2.41,6.59-4,10.88-1.6,4.31-3.2,8.69-4.78,13.14-1.6,4.46-2.94,8.4-4.01,11.82-1.08,3.42-1.64,5.72-1.69,6.89,.09,1.2,.55,1.82,1.38,1.89,.61,.05,1.58-.49,2.91-1.62,1.33-1.13,3.12-3.14,5.36-6.03,1.96-2.67,3.23-4.58,3.82-5.72,.59-1.15,1.11-1.71,1.57-1.68,.69-.07,1.07,.31,1.13,1.12-.04,.59-.69,1.96-1.96,4.08s-2.91,4.46-4.95,7.02c-2.04,2.55-4.23,4.76-6.58,6.65-2.35,1.87-4.62,2.85-6.82,2.94-1.32-.04-2.3-.49-2.93-1.34-.64-.86-.95-1.87-.95-3.04,.04-2.57,.68-5.82,1.89-9.74,1.23-3.93,2.77-8.49,4.63-13.7"/>
          <path d="M1819.81,387.11h-6.15c.8-3.02,1.87-7.03,3.22-12,1.34-4.99,2.72-10.13,4.12-15.43,1.4-5.3,2.59-9.93,3.57-13.89,.96-3.98,1.47-6.45,1.51-7.42,.13-1.2-.24-1.82-1.12-1.89-1.72,.13-3.94,2.39-6.66,6.77-1.59,2.83-2.5,4.74-2.75,5.74-.25,1-.79,1.47-1.64,1.4-.69,0-1.06-.37-1.13-1.13,.03-.52,.52-1.78,1.47-3.79,.96-2.01,2.23-4.22,3.82-6.64,1.58-2.43,3.32-4.53,5.23-6.31,1.92-1.79,3.84-2.73,5.78-2.81,3.3,.04,4.97,1.83,5.02,5.39,0,1.19-.39,3.45-1.21,6.78-.82,3.33-2.13,8.52-3.94,15.53l.25,.25c4.74-10.58,8.87-18.05,12.36-22.4,3.5-4.36,6.53-6.45,9.07-6.3,1.49,.02,2.58,.59,3.25,1.73,.68,1.13,1.02,2.69,1,4.65-.11,3.68-.92,6.58-2.45,8.68-1.52,2.11-3.08,3.2-4.7,3.23-1.84,.12-2.8-.88-2.88-3.01,.09-1.36,.42-2.48,1-3.35,.58-.87,.92-1.92,1-3.17,.06-1.24-.44-1.9-1.5-2.01-.9,.04-2.55,1.92-4.95,5.66-2.41,3.73-5.2,9.13-8.41,16.18-3.2,7.04-6.43,15.57-9.71,25.55-.54,1.7-.96,2.81-1.3,3.32-.34,.51-.74,.74-1.21,.68"/>
          <path d="M1859.83,376.43c0,1.66,.29,2.98,.92,3.98,.61,1,1.6,1.51,2.97,1.54,2.42-.17,5.39-2.06,8.91-5.68,3.53-3.61,7.04-7.99,10.55-13.12,3.52-5.13,6.45-10.04,8.82-14.72,2.37-4.69,3.6-8.18,3.69-10.46-.17-3.91-2.09-5.87-5.77-5.89-3.23,.13-6.57,1.82-10.04,5.07-3.48,3.24-6.73,7.3-9.75,12.14-3.03,4.84-5.49,9.71-7.38,14.63-1.89,4.91-2.86,9.09-2.92,12.54m45.88-45.12l-12.16,36.6c-1.15,3.54-1.89,6.02-2.21,7.47s-.46,2.47-.42,3.06c.09,1.28,.55,1.86,1.38,1.75,.55,.04,1.44-.63,2.71-2.01,1.26-1.37,2.94-3.67,5.06-6.89,1.46-2.35,2.34-3.97,2.65-4.86,.31-.9,.72-1.33,1.24-1.29,.6,.02,.9,.36,.88,1-.04,.96-.67,2.64-1.91,5.01-1.24,2.37-2.84,4.9-4.81,7.59-1.97,2.69-4.08,5-6.34,6.94-2.25,1.93-4.41,2.93-6.49,3.03-1.4-.04-2.33-.47-2.77-1.32-.45-.85-.65-1.92-.61-3.2,0-2.1,.59-5.05,1.81-8.83,1.22-3.78,3.08-9.32,5.57-16.62l-.24-.25c-1.17,1.83-2.87,4.38-5.12,7.63-2.24,3.26-4.76,6.62-7.59,10.07-2.83,3.45-5.69,6.37-8.6,8.77-2.91,2.4-5.63,3.64-8.16,3.75-2.85-.05-4.86-1.08-6.04-3.09-1.19-2.01-1.76-4.7-1.72-8.07,.08-5.56,1.34-11.14,3.8-16.72,2.45-5.58,5.61-10.71,9.49-15.39,3.87-4.68,7.97-8.43,12.31-11.27,4.34-2.84,8.42-4.3,12.26-4.38,3.01,.06,5.77,1.06,8.27,3.01l1.26-3.01c.17-.5,.38-.83,.64-1,.27-.18,.76-.26,1.49-.25h3.63c.79-.09,1.22,.2,1.26,.88-.04,.51-.21,1.13-.51,1.88"/>
          <path d="M1909.96,381.88c.05-2.21,.69-5.89,1.93-11.03,1.24-5.14,2.77-10.98,4.6-17.5,1.83-6.52,3.66-12.95,5.5-19.28,1.83-6.34,3.36-11.81,4.6-16.41,1.24-4.61,1.88-7.56,1.93-8.87,.04-.82-.17-1.5-.61-2.02-.45-.54-1.37-.86-2.78-.99-1.16-.12-1.94-.29-2.33-.54-.4-.23-.58-.59-.56-1.09,.25-.91,1.51-1.35,3.76-1.37,2.83-.06,5.15-.43,6.98-1.11,1.83-.68,3.23-1.37,4.23-2.06,.98-.68,1.64-1.05,1.96-1.1,.6-.04,.9,.29,.88,1-.03,.32-.28,1.11-.77,2.37-.48,1.25-1.01,2.88-1.61,4.9-3.68,13.08-6.75,23.85-9.17,32.34-2.43,8.49-4.35,15.2-5.78,20.14-1.41,4.94-2.47,8.63-3.15,11.08-.68,2.45-1.12,4.16-1.33,5.15-.19,.99-.28,1.78-.26,2.37-.02,1.91,.53,2.86,1.63,2.88,.83,.08,1.75-.42,2.8-1.49,1.03-1.06,2.53-3.16,4.48-6.27,1.68-2.84,2.83-5.01,3.46-6.51,.63-1.5,1.19-2.26,1.68-2.27,.6,.06,.9,.44,.88,1.13-.03,.6-.57,2.08-1.65,4.43-1.07,2.35-2.49,4.94-4.3,7.79-1.78,2.85-3.77,5.32-5.95,7.41-2.18,2.1-4.4,3.21-6.66,3.3-1.72-.04-2.88-.64-3.51-1.83-.62-1.18-.92-2.7-.88-4.56"/>
          <path d="M1968.31,330.92c-2.23,0-4.72,1.1-7.42,3.31-2.72,2.2-5.29,5.49-7.71,9.83-2.43,4.36-4.32,9.75-5.68,16.18,8.14-1.44,14-3.81,17.61-7.1,3.6-3.28,5.83-6.57,6.66-9.86,.86-3.28,1.2-5.65,1.05-7.1,0-1.53-.37-2.79-1.12-3.76-.76-.97-1.88-1.47-3.39-1.5m11.28,8.27c.1,6.53-2.45,11.77-7.6,15.74-5.15,3.96-13.49,6.57-24.99,7.83-.65,2.48-.98,5.15-1,8.02,.13,8.03,2.63,12.03,7.52,12.03,5-.02,10.3-3.73,15.92-11.16,1.35-1.91,2.22-3.25,2.58-4.02,.37-.77,.76-1.14,1.18-1.11,.58,0,.92,.38,1,1.13-.04,.75-.85,2.44-2.42,5.04-1.57,2.61-3.69,5.36-6.36,8.24-2,2.14-4.36,3.98-7.08,5.51-2.72,1.53-5.46,2.33-8.2,2.4-7.95,.13-11.99-6.02-12.17-18.44,.15-7.73,1.85-14.74,5.13-21.02,3.28-6.27,7.29-11.27,12.01-15,4.73-3.73,9.33-5.64,13.82-5.73,3.85,.15,6.6,1.31,8.24,3.48,1.66,2.18,2.46,4.53,2.42,7.05"/>
          <path d="M1999.11,328.64c1.33,.04,2.73,.43,4.22,1.19,1.49,.76,3.05,1.66,4.68,2.7,1.59,.98,3.2,1.87,4.83,2.65,1.64,.78,3.24,1.19,4.82,1.24,1.92,.03,3.14-.28,3.65-.93,.52-.64,1.27-1.8,2.24-3.46,.62-.98,1.34-1.87,2.16-2.65,.81-.78,1.72-1.2,2.73-1.24,.34-.02,.69,.07,1.04,.26,.36,.19,.56,.56,.58,1.11-.12,1.75-1.13,3.39-3.06,4.91-1.92,1.51-4.03,3.3-6.34,5.37-2.32,2.28-4.84,5.11-7.59,8.51-2.75,3.39-6.12,7.48-10.1,12.29-3.98,4.8-8.99,10.46-15.02,16.94l.24,.25c.93-.25,2.01-.44,3.24-.57,1.26-.13,2.43-.19,3.53-.19,2.68,.11,5.26,.57,7.73,1.37,2.47,.81,4.96,1.27,7.44,1.38,4.6-.09,6.81-2.68,6.65-7.78-.09-2.52-.17-4.25-.24-5.14-.03-.75,.26-1.12,.88-1.12,.28-.06,.61,.36,1,1.28,.38,.92,.58,2.66,.61,5.24-.11,4.83-1.54,8.7-4.27,11.6-2.74,2.89-6.07,4.37-10.02,4.45-1.99-.04-3.77-.44-5.36-1.2-1.58-.75-3.06-1.66-4.42-2.7-1.35-1.03-2.67-1.93-3.95-2.69-1.27-.76-2.58-1.16-3.95-1.19-1.06,.03-2.02,.43-2.86,1.19-.84,.76-1.61,1.66-2.29,2.69-.73,.99-1.42,1.87-2.07,2.66-.64,.78-1.33,1.19-2.07,1.24-1.4-.03-2.11-.73-2.13-2.13,.1-1.77,1.09-3.31,2.96-4.61,1.87-1.3,4.01-2.27,6.44-2.91,.34-.09,1.41-1.43,3.23-4.01,1.81-2.59,4.24-5.92,7.26-9.98,3.02-4.06,6.52-8.34,10.47-12.82,3.97-4.49,8.26-8.67,12.89-12.55l-.25-.25c-2.09,.92-4.42,1.46-7.02,1.63-3.23-.15-6.22-.73-8.98-1.75-2.77-1.02-5.16-1.61-7.19-1.75-4.03-.15-6.13,2.9-6.27,9.15,.02,1.65-.02,2.72-.13,3.22-.11,.5-.4,.72-.89,.67-.85-.04-1.27-.84-1.25-2.38-.02-2.85,.33-5.73,1.06-8.65,.73-2.93,1.99-5.39,3.77-7.4,1.77-2.01,4.22-3.05,7.33-3.14"/>
          <path d="M2033.75,376.43c0,1.66,.29,2.98,.91,3.98,.61,1,1.61,1.51,2.98,1.54,2.41-.17,5.38-2.06,8.91-5.68,3.53-3.61,7.04-7.99,10.55-13.12,3.51-5.13,6.45-10.04,8.82-14.72s3.6-8.18,3.69-10.46c-.18-3.91-2.09-5.87-5.77-5.89-3.23,.13-6.58,1.82-10.05,5.07-3.47,3.24-6.72,7.3-9.75,12.14-3.02,4.84-5.49,9.71-7.37,14.63-1.89,4.91-2.86,9.09-2.92,12.54m45.88-45.12l-12.16,36.6c-1.15,3.54-1.89,6.02-2.21,7.47s-.46,2.47-.42,3.06c.08,1.28,.55,1.86,1.37,1.75,.56,.04,1.45-.63,2.72-2.01,1.26-1.37,2.94-3.67,5.06-6.89,1.46-2.35,2.34-3.97,2.65-4.86,.31-.9,.72-1.33,1.24-1.29,.6,.02,.9,.36,.88,1-.04,.96-.67,2.64-1.91,5.01-1.24,2.37-2.84,4.9-4.81,7.59-1.98,2.69-4.08,5-6.34,6.94-2.25,1.93-4.41,2.93-6.49,3.03-1.4-.04-2.33-.47-2.78-1.32-.45-.85-.65-1.92-.61-3.2,0-2.1,.6-5.05,1.82-8.83,1.22-3.78,3.08-9.32,5.57-16.62l-.24-.25c-1.17,1.83-2.87,4.38-5.12,7.63-2.24,3.26-4.77,6.62-7.6,10.07-2.82,3.45-5.69,6.37-8.6,8.77-2.91,2.4-5.62,3.64-8.15,3.75-2.85-.05-4.86-1.08-6.04-3.09-1.19-2.01-1.76-4.7-1.73-8.07,.09-5.56,1.35-11.14,3.8-16.72,2.46-5.58,5.62-10.71,9.49-15.39,3.88-4.68,7.98-8.43,12.32-11.27,4.33-2.84,8.42-4.3,12.26-4.38,3.01,.06,5.77,1.06,8.27,3.01l1.26-3.01c.16-.5,.37-.83,.64-1,.26-.18,.76-.26,1.49-.25h3.63c.79-.09,1.21,.2,1.26,.88-.05,.51-.21,1.13-.51,1.88"/>
        </g>
      </g>
    </g>
  </g>
</svg>