<?xml version="1.0" encoding="UTF-8"?>
<svg id="Layer_2" data-name="Layer 2" xmlns="http://www.w3.org/2000/svg" viewBox="0 0 1023 1133.5">
  <g id="OKAY">
    <g id="Logo-UACh-Pequeno-Centrado-Color-TextoNegro">
      <rect width="1023" height="1133.5" style="fill: none;"/>
      <g>
        <g>
          <path d="M289.52,761.89c0-25.87,2.83-30.11,12.71-32.45,10.35-2.35,15.51-1.42,15.51-7.06,0-4.24-1.41-6.11-6.11-6.11-5.64,0-10.81,1.88-31.5,1.88-16,0-21.18-1.88-27.29-1.88-5.64,0-8.47,2.83-8.47,6.11,0,6.11,3.3,6.11,13.17,7.06,13.63,1.4,18.81,7.99,18.81,37.16v161.81c0,58.8-31.51,80.44-63.97,80.44-23.99,0-55.51-15.05-55.51-56.91v-195.22c0-27.28,9.41-27.28,19.76-28.7,9.88-1.41,14.57-2.35,14.57-6.58,0-4.69-3.75-5.17-11.29-5.17s-15.99,1.88-37.16,1.88c-16.93,0-18.81-1.88-31.98-1.88-3.77,0-8.47,1.41-8.47,4.24,0,7.05,2.36,4.7,20.23,8.94,3.77,.94,3.3,6.11,3.3,18.33v196.64c0,59.27,44.69,75.74,81.85,75.74,47.51,0,81.85-25.4,81.85-106.79v-151.47Z"/>
          <path d="M407.62,785.4c2.82,0,4.71,1.89,6.58,9.42,15.52,61.62,25.87,92.19,25.87,98.32,0,3.75-.94,3.75-33.87,3.75-26.81,0-28.22-.47-28.22-3.3,0-2.35,3.29-15.99,22.57-92.66,3.3-13.18,3.77-15.53,7.06-15.53m28.69,122.78c8.47,0,10.35,3.77,15.52,23.52,10.83,41.39,15.05,55.04,15.05,59.74,0,9.88-5.64,11.76-12.23,11.76-7.52,0-12.24,2.35-12.24,6.11s3.78,5.17,8,5.17c8.94,0,21.17-1.89,33.4-1.89,10.82,0,18.35,1.89,28.69,1.89,7.06,0,9.89-.94,9.89-3.77,0-4.7-8.01-5.64-14.11-7.52-5.17-1.88-9.41-9.88-11.77-18.35-33.86-121.82-50.32-180.15-73.39-262.95-2.34-8.46-3.29-11.29-7.99-11.29s-6.11,4.7-8.94,14.11c-24.45,89.38-46.57,190.04-72.91,268.59-4.24,12.69-18.35,7.05-18.35,15.99,0,3.29,1.88,5.17,5.17,5.17,2.83,0,5.17-1.89,26.34-1.89,10.82,0,20.71,1.89,28.7,1.89,5.17,0,8-.94,8-5.17,0-5.17-6.11-5.17-15.05-6.58-11.77-1.88-13.64-7.06-13.64-12.69,0-6.59,1.88-14.58,12.23-57.39,5.65-23.04,8-24.46,15.53-24.46h54.09Z"/>
          <path d="M559.96,860.2c0-102.54,38.58-138.29,69.15-138.29,23.52,0,40.45,18.34,51.74,53.15,7.06,21.65,7.99,23.07,12.24,23.07s4.22-.95,4.22-22.13c0-46.09-.94-48.44-4.22-51.27-5.17-4.22-29.18-14.11-57.39-14.11-68.2,0-113.37,62.1-113.37,155.24s48.94,154.28,113.84,154.28c21.63,0,49.86-6.59,59.26-14.58,4.72-3.3,6.12-5.64,6.12-14.57l.47-59.27c0-12.71-2.82-13.18-7.05-13.18-4.72,0-4.72,6.58-9.41,30.57-6.58,32.45-21.17,59.74-52.21,59.74-36.69,0-73.39-36.69-73.39-148.65"/>
          <path d="M777.7,857.38c0-23.52,24.93-42.33,48.92-42.33,22.57,0,38.56,14.1,38.56,39.51v131.71c0,11.76-3.75,15.05-16.46,16.93-5.64,.94-8.94,1.88-8.94,6.11,0,3.77,1.89,5.17,7.06,5.17s8.47-1.89,32.45-1.89c18.82,0,32.92,1.89,34.81,1.89,3.29,0,6.58-1.41,6.58-4.7,0-4.24-3.3-5.64-12.7-6.58-10.35-.95-14.58-7.06-14.58-22.12v-130.29c-1.42-37.64-27.29-53.62-53.63-53.62-31.98,0-54.56,30.09-58.79,30.09-2.36,0-3.3-.95-3.3-3.3v-137.82c0-5.64-.94-6.58-2.36-6.58-4.71,0-4.71,4.22-42.8,17.88-5.17,1.88-6.59,2.82-6.59,6.1s2.36,3.77,9.88,5.19c11.3,1.88,13.64,4.7,13.64,11.76v258.23c0,18.36-3.3,22.6-18.81,24.47-4.24,.47-6.59,3.29-6.59,5.64,0,3.75,2.36,5.64,6.12,5.64,6.58,0,10.35-1.89,31.98-1.89,31.51,0,36.69,1.89,39.52,1.89,3.77,0,6.58-1.41,6.58-4.7,0-3.77-1.42-5.17-10.35-6.58-15.52-2.35-20.23-8.46-20.23-19.29v-126.54Z"/>
        </g>
        <g>
          <path d="M642.4,578.13h-110.01c-8.05-.44-17.59,2.45-22.29,9.26-.16,.24-.43,.24-.59,0-4.45-6.62-13.26-9.71-21.04-9.26h-106.72c-32.19,.02-68.52-30.55-68.12-60.13V119.04c0-.19,.17-.36,.36-.36h395.04c.19,0,.36,.17,.36,.36v398.96c-.01,29.8-35.07,60.12-66.98,60.13Z" style="fill: #fff; fill-rule: evenodd;"/>
          <path d="M608.79,524.48h-96.75c-.19,0-.36-.17-.36-.36v-177.52c0-.19,.17-.36,.36-.36h138.37c.19,0,.36,.17,.36,.36v135.89c0,23.18-18.79,41.98-41.97,41.98Z" style="fill: #fab700;"/>
          <path d="M549.1,361.39c1.51-.17,3.23,.03,3.94,1.44,.14,.28,0,.51-.31,.52-.54,0-1.4,.48-2.42,1.16-1.01,.67-2.07,1.47-2.97,2-2.28,1.33-3.49,.65-2.26-3.74,0-.03,.13-.2,.17-.21,.73-.42,2.3-.99,3.85-1.16Z" style="fill: #808285; fill-rule: evenodd;"/>
          <path d="M623.56,396.26l-.36,.16c-.32,.15-.78,.37-1.34,.65-1.12,.56-2.63,1.38-4.21,2.35-3.2,1.96-6.57,4.51-7.66,6.95-.75,1.67-.93,3.14-.89,4.41,.04,1.3,.3,2.38,.42,3.26,.28,2.07-.31,3.07-4.13,3.08-3.8,1.46-6.32,2.19-7.84,2.44-.75,.12-1.32,.14-1.69,.02-.48-.15-.66-.55-.45-.99,.53-1.1,3.98-2.93,7.62-3.54,1.94-.32,4.47-2.04,4.37-5.18-.34-11.28,2.15-27.73,16.75-24.11,2.67,.66,6.14,5.37,8.61,9.42,1.26,2.06,2.29,4.01,2.87,5.29,.29,.63,.48,1.15,.53,1.44,.01,.07,.02,.18,0,.29-.05,.16-.2,.32-.43,.29-.14-.01-.24-.09-.3-.13-.07-.05-.14-.12-.21-.21-1.95-2.12-4.87-3.6-7.33-4.55-1.23-.47-2.33-.82-3.13-1.04-.4-.11-.72-.2-.94-.25l-.25-.06Z" style="fill: #808285; fill-rule: evenodd;"/>
          <path d="M571.52,409.72c.9-2.88-1.54-5.13-4.68-7.64-.78-.62-1.58-1.24-2.35-1.88-.78-.64-1.53-1.3-2.2-1.99-1.34-1.38-2.39-2.9-2.63-4.68-.51-3.76,1.91-5.5,4.05-7.03,2.19-1.57,4.04-2.9,3.32-5.85,0-.02,0-.19,.01-.21,3.18-8.68,16.95,4.02,11.29,8.04-4.97,3.82-10.12,10.2-7.58,13.03,3.14,3.51,6.39,8.15,6.39,11.17,0,.61-.27,1-.65,1.29-.18,.14-.37,.25-.56,.35-.18,.1-.38,.2-.58,.32-.12,.07-.35,.04-.44-.06-.93-.99-8.04-2.93-14.2-.36-.07,.03-.29,0-.35-.04-1.45-1.07-1.87-2.12-.73-2.87,.84-.55,2.49-.82,4.22-.99,1.75-.17,3.7-.23,5.23-.32,.75-.04,1.4-.09,1.87-.16,.23-.03,.4-.07,.51-.11l.05-.02Z" style="fill: #808285; fill-rule: evenodd;"/>
          <path d="M558.23,371.87c.08,.01,.17,.03,.26,.06,.22,.06,.51,.17,.82,.3,.31,.13,.62,.27,.88,.41,.14,.07,.26,.14,.35,.21,.08,.05,.18,.13,.25,.22,3.38,3.66-.49,9.46-3.75,10.17-1.5,.33-2.41,.58-3.33,1.64-8.7,10.17-8.89,1.58-7.25,.73,1.07-.55,1.81-2.32-1.8-2.05-.42,.03-.58-.33-.27-.61l4.79-4.47,.26-.05c.12-.23,.24-.43,.38-.71,.28-.57,.59-1.34,.89-2.1,.31-.77,.6-1.53,.84-2.05,.12-.26,.23-.49,.34-.63,.04-.05,.14-.18,.3-.23,.29-.08,.45,.15,.49,.26,2.11,5.03,4.79-1.73,1.8-4.04-.29-.22-.23-.54,.13-.63l.64-.16c.11-.03,.32,.06,.38,.15,.32,.48,1.01,1.44,1.61,2.26l.79,1.07,.18,.24Z" style="fill: #808285; fill-rule: evenodd;"/>
          <path d="M625.62,421.75c-.05,0-.24-.12-.26-.16-.17-.27-.3-.49-.39-.67-.26-.14-.43-.3-.58-.46l-.22-.26c-.07-.08-.15-.16-.24-.24-2.32-2.03-6.63,1.52-6.75,1.62-.38,.32-.83-.19-.48-.53,2.1-2.02,3.48-2.78,6.28-3.29,2.56-.46,3.47,.53,4.27,1.55,.32,0,.64,.03,.98,.04,.38,.01,.77,0,1.17-.08,.8-.15,1.74-.59,2.9-1.78,1.17-1.2,2.23-2.86,3-4.24,.38-.68,.69-1.29,.9-1.73l.25-.51,.07-.14c.1-.21,.35,.1,.35,.1,0,0,.35-.16,.36,.08v.31c0,.26-.02,.65-.07,1.13-.12,.97-.4,2.34-1.05,3.96-1.94,4.08-6.56,5.71-10.47,5.29Z" style="fill: #808285; fill-rule: evenodd;"/>
          <path d="M538.75,446.25c1.51-.17,3.23,.03,3.94,1.44,.14,.28,0,.51-.31,.52-.54,0-1.4,.48-2.42,1.16-1.01,.67-2.07,1.47-2.97,2-2.28,1.33-3.48,.65-2.26-3.74,0-.03,.13-.2,.17-.21,.73-.42,2.3-.99,3.85-1.16Z" style="fill: #808285; fill-rule: evenodd;"/>
          <path d="M613.96,479.82l-.36,.16c-.32,.15-.78,.37-1.34,.65-1.12,.56-2.63,1.38-4.21,2.35-3.2,1.96-6.57,4.51-7.66,6.95-.75,1.67-.93,3.14-.89,4.41,.04,1.3,.3,2.38,.42,3.26,.28,2.07-.31,3.07-4.13,3.08-3.8,1.46-6.32,2.19-7.84,2.44-.75,.12-1.32,.14-1.69,.02-.48-.15-.66-.56-.45-.99,.53-1.1,3.98-2.93,7.62-3.54,1.94-.32,4.47-2.04,4.37-5.18-.34-11.28,2.15-27.73,16.75-24.11,2.67,.66,6.14,5.37,8.61,9.42,1.26,2.06,2.29,4.01,2.87,5.29,.29,.63,.48,1.15,.53,1.44,.01,.07,.02,.18,0,.29-.05,.16-.2,.32-.43,.29-.14-.01-.24-.09-.3-.13-.07-.05-.14-.12-.21-.21-1.95-2.12-4.87-3.6-7.33-4.55-1.23-.47-2.33-.82-3.13-1.04-.4-.11-.72-.2-.94-.26l-.25-.06Z" style="fill: #808285; fill-rule: evenodd;"/>
          <path d="M561.92,493.28c.9-2.88-1.54-5.13-4.68-7.64-.78-.62-1.58-1.24-2.35-1.88-.78-.64-1.53-1.3-2.2-1.99-1.34-1.38-2.39-2.9-2.63-4.68-.51-3.76,1.91-5.5,4.05-7.04,2.19-1.57,4.04-2.9,3.32-5.85,0-.02,0-.19,.01-.21,3.18-8.68,16.95,4.02,11.29,8.04-4.97,3.82-10.12,10.2-7.58,13.03,3.14,3.51,6.39,8.15,6.39,11.17,0,.61-.27,1-.64,1.29-.18,.14-.37,.25-.56,.35-.18,.1-.38,.2-.58,.32-.12,.07-.35,.04-.44-.06-.93-.99-8.04-2.93-14.2-.36-.07,.03-.29,0-.35-.04-1.45-1.07-1.87-2.12-.73-2.87,.84-.55,2.49-.82,4.22-.99,1.75-.17,3.7-.23,5.23-.32,.75-.04,1.4-.09,1.87-.16,.23-.03,.4-.07,.51-.11l.05-.02Z" style="fill: #808285; fill-rule: evenodd;"/>
          <path d="M548.2,456.39c.08,.01,.17,.03,.26,.06,.22,.06,.51,.17,.82,.3,.31,.13,.62,.27,.88,.41,.14,.07,.26,.14,.35,.21,.08,.05,.18,.13,.25,.22,3.38,3.66-.49,9.46-3.75,10.17-1.5,.33-2.41,.58-3.33,1.64-8.7,10.17-8.89,1.58-7.25,.73,1.07-.55,1.81-2.32-1.8-2.05-.42,.03-.58-.33-.27-.61l4.79-4.47,.26-.05c.12-.23,.24-.43,.38-.71,.28-.57,.59-1.34,.89-2.1,.31-.77,.6-1.53,.84-2.05,.12-.26,.23-.49,.34-.63,.04-.05,.14-.18,.3-.23,.29-.08,.45,.15,.49,.26,2.11,5.03,4.79-1.73,1.8-4.04-.29-.22-.23-.54,.13-.63l.64-.16c.11-.03,.32,.06,.38,.15,.32,.48,1.01,1.44,1.61,2.26l.79,1.07,.18,.24Z" style="fill: #808285; fill-rule: evenodd;"/>
          <path d="M615.59,506.28c-.05,0-.24-.12-.26-.16-.17-.27-.3-.49-.39-.67-.26-.14-.43-.3-.58-.46l-.22-.26c-.07-.08-.15-.16-.24-.24-2.32-2.03-6.63,1.52-6.75,1.62-.38,.32-.83-.19-.48-.53,2.1-2.02,3.48-2.78,6.28-3.29,2.56-.46,3.47,.53,4.27,1.55,.32,0,.64,.03,.98,.04,.38,.01,.77,0,1.17-.08,.8-.15,1.74-.59,2.9-1.78,1.17-1.2,2.23-2.86,3-4.24,.38-.68,.69-1.29,.9-1.73l.25-.51,.06-.14c.1-.21,.35,.1,.35,.1,0,0,.35-.16,.36,.08v.31c0,.26-.02,.65-.07,1.13-.12,.97-.4,2.34-1.05,3.96-1.94,4.08-6.56,5.71-10.46,5.29Z" style="fill: #808285; fill-rule: evenodd;"/>
          <path d="M459.17,419.43l-.67,35.78-33.25-.6,.6-31.75,17.19-1.43,5.89,7.07-6.68,9.41,16.26-5.32-5.87,8.58-10.39-3.26,11.14,15.3-21.96-.49,10.81-14.81-12.06,3.74-5.11-9.38,17.17,5.63v-17.79s16.92-.69,16.92-.69Zm0,34.93l-.67,35.78-33.25-.6,.6-31.75,17.19-1.43,5.89,7.07-6.68,9.41,16.26-5.32-5.87,8.58-10.39-3.26,11.14,15.3-21.96-.49,10.81-14.81-12.06,3.74-5.11-9.38,17.17,5.63v-17.79s16.92-.69,16.92-.69Zm-.06,34.84l-.67,35.78-33.25-.6,.6-31.75,17.19-1.43,5.89,7.07-6.68,9.41,16.26-5.32-5.87,8.58-10.39-3.26,11.14,15.3-21.96-.49,10.81-14.81-12.06,3.74-5.11-9.38,17.17,5.63v-17.79s16.92-.69,16.92-.69Zm-.07-139.55l-.67,35.78-33.25-.6,.6-31.75,17.19-1.43,5.89,7.07-6.68,9.41,16.26-5.32-5.87,8.58-10.39-3.26,11.14,15.3-21.96-.49,10.81-14.81-12.06,3.74-5.11-9.38,17.17,5.63v-17.79s16.92-.69,16.92-.69Zm.13,34.95l-.67,35.78-33.25-.6,.6-31.75,17.19-1.43,5.89,7.07-6.68,9.41,16.26-5.32-5.87,8.58-10.39-3.26,11.14,15.3-21.96-.49,10.81-14.81-12.06,3.74-5.11-9.38,17.17,5.63v-17.79s16.92-.69,16.92-.69Zm-46.81,34.86l-.67,35.78-33.25-.6,.6-31.75,17.19-1.43,5.89,7.07-6.68,9.41,16.26-5.32-5.87,8.58-10.39-3.26,11.14,15.3-21.96-.49,10.81-14.81-12.06,3.74-5.11-9.38,17.17,5.63v-17.79s16.92-.69,16.92-.69Zm-.07,34.75l-.67,35.78-33.25-.6,.6-31.75,17.19-1.43,5.89,7.07-6.68,9.41,16.26-5.32-5.87,8.58-10.39-3.26,11.14,15.3-21.96-.49,10.81-14.81-12.06,3.74-5.11-9.38,17.17,5.63v-17.79s16.92-.69,16.92-.69Zm-.03-104.58l-.67,35.78-33.25-.6,.6-31.75,17.19-1.43,5.89,7.07-6.68,9.41,16.26-5.32-5.87,8.58-10.39-3.26,11.14,15.3-21.96-.49,10.81-14.81-12.06,3.74-5.11-9.38,17.17,5.63v-17.79s16.92-.69,16.92-.69Zm.1,34.87l-.67,35.78-33.25-.6,.6-31.75,17.19-1.43,5.89,7.07-6.68,9.41,16.26-5.32-5.87,8.58-10.39-3.26,11.14,15.3-21.96-.49,10.81-14.81-12.06,3.74-5.11-9.38,17.17,5.63v-17.79s16.92-.69,16.92-.69Zm91.32,34.82l-.67,35.78-33.25-.6,.6-31.75,17.19-1.43,5.89,7.07-6.68,9.41,16.26-5.32-5.87,8.58-10.39-3.26,11.14,15.3-21.96-.49,10.81-14.81-12.06,3.74-5.11-9.38,17.17,5.63v-17.79s16.92-.69,16.92-.69Zm-.07,34.99l-.67,35.78-33.25-.6,.6-31.75,17.19-1.43,5.89,7.07-6.68,9.41,16.26-5.32-5.87,8.58-10.39-3.26,11.14,15.3-21.96-.49,10.81-14.81-12.06,3.74-5.11-9.38,17.17,5.63v-17.79s16.92-.69,16.92-.69Zm0-104.58l-.67,35.78-33.25-.6,.6-31.75,17.19-1.43,5.89,7.07-6.68,9.41,16.26-5.32-5.87,8.58-10.39-3.26,11.14,15.3-21.96-.49,10.81-14.81-12.06,3.74-5.11-9.38,17.17,5.63v-17.79s16.92-.69,16.92-.69Zm0,34.95l-.67,35.78-33.25-.6,.6-31.75,17.19-1.43,5.89,7.07-6.68,9.41,16.26-5.32-5.87,8.58-10.39-3.26,11.14,15.3-21.96-.49,10.81-14.81-12.06,3.74-5.11-9.38,17.17,5.63v-17.79s16.92-.69,16.92-.69Z" style="fill: #bcbec0; fill-rule: evenodd;"/>
          <path d="M440.7,221.08l14.8-11.64,16.21,11.21-31.01,.44Zm20.02-15.89l16.98-13.28-1.74,23.94-15.23-10.66Zm-10.45,.44l-15.97,12.25-1.11-24.33,17.08,12.08Zm5.11-4.14c0,.33-17.19-12.3-17.19-12.3l35.69-2.18s-18.5,14.15-18.5,14.47Zm-36.89,34.63c-.17,.11-.54,.26-.63-.14l-.04-.18-.12-.64-.35-1.98-.51-2.94c-.05-.13-.14-.2-.38-.25-.85-.14-1.75-.37-3.16-.56-.01,0-1.44,.28-3.16,.66-1.58,.35-3.24,.74-3.76,.88-.13,.1-.15,.12-.15,.14l-4.33,40.05c0,.07-.14,.25-.21,.28-.09,.04-1.7,.82-1.76,1.64-.07,.81,.72,1.66,1.31,1.98,.09,.05,.2,.25,.19,.35l-6.4,61.02c-.01,.12-.17,.29-.29,.31-.02,0-16.39,3.04-22.03,5.18-.27,.1-.48-.05-.48-.33l.03-165.6c0-.19,.17-.36,.36-.36h135.86c.19,0,.36,.17,.36,.36v165.29c0,.25-.19,.4-.43,.35-5.57-1.2-21.88-4.6-21.88-4.6-.11-.02-.27-.19-.28-.3l-7.67-60.86c-.01-.12,.1-.32,.21-.37,.83-.38,1.45-1.33,1.41-1.74-.04-.47-.4-.84-.82-1.12-.21-.14-.41-.24-.57-.31l-.2-.09c-.22-.1-.28-.26-.28-.28l-4.08-32.62c-.31-2.45-.05-4.47,.28-5.88,.17-.71,.35-1.26,.5-1.64l.13-.32c-.28-.12-.56-.21-.85-.29-.29-.09-.59-.17-.82-.23l-.3-.08-.13-.04c-1.74-.42-4.26-1.02-6.55-1.52-.59,.12-1.27,.37-1.67,.5-.07,.43-.18,1.15-.26,1.8l-.13,1.03-.04,.32c-.02,.23-.36,.09-.36,.09,0,0,.15,.37-.09,.35l-.16-.02-.59-.07-1.87-.21c-1.42-.16-2.98-.34-3.55-.41-.12-.02-.29-.18-.31-.29-.2-1.2-.34-3.31-.47-4.4-.03-.21-.06-.29-.08-.32-.01,0-.07-.03-.14-.04-.52-.07-10.1-.83-10.63-.83-.19,0-.21,.04-.23,.12-.13,.88-.39,3.35-.6,4.95-.02,.15-.19,.31-.35,.31-1.19,.01-6.17,.43-6.91,.55-.18,.03-.37-.1-.41-.28-.29-1.47-.55-3.36-.82-4.97-.28-.08-.65-.22-1.02-.35-.49-.17-.89-.3-1.07-.31-.16-.01-.85,.03-1.76,.1-.9,.07-1.97,.15-2.84,.2-.19,.01-.37-.14-.38-.34-.01-.22-1.68-36.91-1.76-37.55-.02-.14,.11-.34,.25-.38,.06-.02,.13-.04,.2-.08-1.31,0-1.92-1.24-1.9-1.8,.02-.58,.22-1,.51-1.29-.77,.33-1.07,1.19-1.04,1.57,.04,.61,.37,1.46,1.39,1.65,.14,.03,.29,.2,.29,.34,.01,.96,0,36.98-.03,37.76,0,.16-.17,.33-.33,.34-1.71,.14-2.65,.19-3.19,.23-.27,.02-.41,.04-.48,.06-.08,.11-.09,.2-.12,.3-.05,.23-.11,.54-.16,.89-.11,.73-.23,1.68-.33,2.63-.21,1.91-.38,3.82-.41,3.98-.02,.12-.19,.28-.3,.29-1.16,.16-2.54,.32-4.06,.54l.21-.19Z" style="fill: #a90034; fill-rule: evenodd;"/>
          <path d="M599.34,333.46c-.06,0-.25-.11-.28-.16-4.48-6.94-8.45-16.32-6.06-27.52,0-.03,.11-.19,.13-.21,.26-.2,1.05-.63,1.66-.63,1.41,0,1.53,.58,1.44,1.19l-.02,.13v.13s.15,.12,.75,.12c1.25,0,1.56,.19,1.87,.44,.06,.05,.1,.08,.14,.1,.04,.03,.1,.05,.19,.08,.19,.05,.5,.1,1.09,.1,.58,0,.89-.05,1.07-.12,.16-.06,.23-.12,.33-.22,.31-.3,.63-.53,1.89-.53,1.33,0,1.66,.42,1.95,.88,.11,.18,.19,.29,.33,.37,.16,.09,.44,.18,1.01,.17,.91,0,1.02-.44,1.18-1.23,.04-.21,.08-.42,.14-.62,.06-.22,.14-.44,.26-.65,.25-.44,.65-.8,1.32-.98,1.28-.35,1.81-.04,2.29,.27,.22,.14,.38,.24,.61,.29,.23,.05,.57,.05,1.11-.1,1.15-.31,1.49-.3,1.78-.4,.1-.03,.2-.08,.41-.22,.22-.15,.51-.37,.99-.72,.45-.33,.63-.6,.72-.81,.09-.22,.09-.42,.08-.7-.01-.61,0-1.29,1.08-2.09,.5-.37,.85-.56,1.13-.65,.15-.05,.27-.07,.37-.08,.08,0,.15,0,.22,0,.05,0,.08-.02,.14-.08,.12-.12,.3-.36,.62-.87,.7-1.1,1.21-1.25,1.72-1.37,.21-.05,.37-.09,.55-.22,.19-.13,.42-.37,.73-.85,.31-.49,.43-.78,.46-.96,.03-.15,0-.25-.07-.4-.04-.09-.09-.19-.14-.3-.05-.13-.1-.27-.14-.44-.07-.35-.08-.79,.04-1.42,.13-.66,.44-1.24,.82-1.78,.19-.27,.4-.52,.62-.78,.22-.25,.44-.5,.67-.74,.91-1,1.73-1.89,1.93-2.95,.2-1.03-.09-1.33-.47-1.68-.12-.11-.24-.21-.36-.33-.13-.13-.26-.27-.39-.44-.26-.35-.47-.8-.58-1.44-.22-1.28,.06-1.69,.37-2.07,.12-.15,.2-.25,.25-.42,.05-.19,.07-.5-.03-1.07-.2-1.18-.32-1.42-.48-1.64-.11-.14-.24-.28-.42-.51-.19-.25-.42-.59-.72-1.12-.28-.51-.48-.76-.62-.88-.12-.11-.21-.14-.34-.18-.4-.13-.76-.3-1.37-1.4-.3-.55-.44-.96-.5-1.3-.03-.17-.03-.31-.03-.44,0-.11,.02-.21,.02-.31,0-.15,0-.25-.07-.39-.09-.17-.29-.42-.72-.81-.44-.39-.7-.58-.87-.67-.08-.04-.14-.07-.19-.08-.06-.02-.11-.02-.16-.03-.37-.04-.7-.12-1.62-.95-.42-.38-.66-.45-.78-.45-.12,0-.24,.06-.46,.22-.12,.09-.23,.18-.37,.26-.14,.09-.31,.17-.51,.22-.41,.1-.88,.07-1.49-.19-.66-.28-.97-.73-1.07-1.26-.05-.25-.05-.51-.03-.75,.02-.24,.06-.48,.1-.73,.08-.49,.14-.89,.08-1.23-.06-.29-.21-.55-.66-.74-.48-.21-.77-.15-.94-.06-.34,.19-.62-.02-.52-.4,.12-.45,.08-.67,.04-.78-.02-.06-.06-.11-.11-.16l-.2-.18c-.41-.37-.73-.82-.34-2.04,.37-1.14,.46-1.32,.57-1.51,.04-.07,.07-.13,.14-.3,.08-.19,.19-.51,.37-1.07,.4-1.25,.87-1.42,1.37-1.5,.18-.03,.27-.05,.37-.14,.11-.1,.27-.33,.45-.88,.18-.57,.31-.92,.38-1.17,.08-.24,.09-.34,.09-.43,0-.05-.01-.11-.03-.18l-.08-.31c-.07-.27-.16-.65-.27-1.25-.17-.95-.69-1.08-1.4-1.25-.19-.05-.38-.09-.57-.16-.19-.07-.39-.16-.58-.29-.39-.28-.66-.7-.79-1.37-.12-.66-.03-1.15,.2-1.53,.11-.19,.24-.34,.38-.46,.12-.12,.26-.22,.38-.32,.12-.1,.21-.17,.28-.25,.07-.08,.11-.14,.12-.2,.03-.12,.03-.36-.25-.84-.29-.48-.52-.68-.71-.77-.19-.09-.38-.1-.64-.11-.6-.01-1.26-.05-1.95-1.22-.34-.57-.43-1.05-.38-1.49,.03-.21,.09-.4,.16-.56,.06-.15,.14-.3,.21-.44,.14-.27,.2-.42,.18-.57-.02-.14-.12-.37-.55-.72-.45-.37-.74-.58-.94-.72-.19-.13-.3-.19-.42-.24-.28-.14-.54-.28-1.48-1.05-.49-.4-.78-.75-.97-1.08-.09-.16-.16-.31-.21-.45l-.13-.35c-.12-.32-.24-.6-1.29-.97-2.51-.87-3.63-4.79-2.93-7.19,.16-.55,.23-.85,.26-1.03,.01-.08,.01-.11,0-.12-.07-.24-.08-.5,.25-1.62,.17-.57,.22-.89,.22-1.08,0-.16-.03-.23-.1-.32l-.17-.22c-.07-.1-.15-.21-.23-.35-.16-.29-.32-.69-.44-1.31-.26-1.27,0-1.8,.25-2.31,.11-.23,.21-.41,.25-.67,.05-.26,.05-.62-.06-1.18-.19-.93-.62-.99-1.35-1.03-.2-.01-.4-.02-.61-.05-.23-.03-.45-.07-.68-.14-.47-.16-.93-.45-1.31-1.02-.66-.97-.88-1.25-1.11-1.52-.24-.29-.48-.57-1.16-1.58-.38-.56-.48-1.09-.44-1.58,.02-.23,.07-.45,.14-.66,.06-.19,.13-.38,.2-.56,.24-.66,.37-1.05-.41-1.57-.49-.33-.81-.51-1.05-.62-.24-.11-.41-.15-.58-.2-.41-.11-.82-.22-1.84-.91-.79-.53-1.07-.28-1.53,.15-.13,.12-.27,.26-.42,.38-.16,.13-.33,.26-.54,.36-.42,.22-.94,.31-1.6,.18-1.23-.25-1.63-.53-2.02-.81-.17-.13-.33-.23-.57-.34-.25-.11-.6-.23-1.17-.34-1.18-.24-1.44-.42-1.7-.48-.16-.04-.3-.02-1.53,.23-.68,.14-1.21,0-1.64-.3-.21-.14-.39-.31-.55-.49-.15-.17-.3-.36-.44-.54-.56-.73-.98-1.25-1.92-1.07-.9,.18-.99,.72-1.04,1.64-.01,.24-.03,.48-.05,.72-.03,.26-.07,.52-.14,.76-.15,.52-.45,1.02-1.02,1.41-.58,.39-1.13,.45-1.65,.31-.25-.07-.48-.17-.7-.29-.21-.12-.41-.25-.62-.39-.82-.54-1.4-.9-2.18-.38-.97,.65-1.28,1.01-1.52,1.43-.24,.41-.42,.88-.88,1.63,2.76,.91,1.69,4.09,.48,5.88-.35,.53-.81,1.01-1.29,1.48-.47,.46-.98,.91-1.46,1.38-.96,.93-1.74,1.83-1.95,2.88-.12,.58-.14,.89-.11,1.08,.02,.15,.07,.22,.16,.32l.22,.21c.09,.09,.19,.2,.29,.34,.2,.28,.4,.67,.58,1.28,.16,.55,.26,.85,.33,1.02,.23,.28,.36,.49,.69,1.61,.41,1.42-.39,1.83-1,2.12-.13,.06-.26,.12-.38,.2-.11,.07-.18,.13-.23,.21-.09,.13-.17,.36-.02,.87,.34,1.17,.36,1.27,.39,1.4,.03,.13,.07,.28,.43,1.51,.05,.16-.06,.37-.22,.43-.47,.18-.72,.33-.86,.46-.07,.06-.12,.12-.17,.18-.05,.07-.09,.14-.13,.21-.24,.39-.52,.76-1.69,1.16-.54,.19-.71,.36-.77,.48-.07,.12-.07,.27-.03,.56,.02,.15,.04,.3,.05,.47,0,.17,0,.37-.05,.57-.1,.42-.35,.84-.86,1.25-.95,.77-1.26,.89-1.58,1-.06,.02-.12,.04-.19,.07-.07,.03-.14,.07-.23,.12-.2,.12-.48,.32-.94,.69-.47,.38-.65,.58-.71,.68,.16,.39,.32,.81-.35,1.92-.35,.58-.77,.88-1.24,.98-.22,.05-.45,.05-.65,.04-.2-.02-.4-.05-.6-.08-.75-.13-1.27-.21-1.75,.6-.29,.49-.34,.76-.32,.91,.02,.15,.09,.26,.26,.46,.09,.1,.19,.21,.28,.33,.1,.13,.2,.29,.28,.47,.16,.38,.22,.86,.1,1.5-.25,1.34-.89,1.63-1.48,1.87-.27,.11-.46,.19-.63,.36-.16,.16-.32,.44-.42,.98-.12,.63-.31,1.08-.54,1.43-.11,.17-.22,.31-.33,.44l-.29,.33c-.27,.31-.47,.59-.14,1.62,.78,2.41-1.44,10.64-3.32,12.34-.39,.35-.48,.63-.49,.84,0,.25,.1,.49,.24,.82,.29,.66,.66,1.5-.42,2.47-.5,.45-.99,.63-1.46,.64-.23,0-.44-.02-.64-.07-.19-.04-.36-.1-.54-.15-.61-.18-.97-.28-1.43,.54-.27,.48-.3,.77-.26,.96,.03,.2,.14,.35,.31,.58,.38,.5,.78,1.09,.1,2.31-.32,.58-.7,.92-1.11,1.11-.2,.1-.4,.16-.58,.2-.17,.04-.35,.07-.51,.1-.55,.1-.93,.17-1.1,1.14-.1,.57-.09,.89-.05,1.08,.04,.18,.1,.28,.2,.42,.27,.38,.49,.77,.27,2.03-.11,.62-.26,1.07-.44,1.42-.16,.34-.33,.58-.48,.82-.23,.39-.39,.77-.17,1.87,.47,2.35,.25,4.67,.72,7.01,.23,1.14,.46,1.58,.77,1.98,.18,.22,.38,.44,.62,.72,.25,.29,.54,.66,.88,1.17,.31,.46,.57,.68,.78,.79,.22,.11,.43,.14,.7,.17,.61,.07,1.26,.16,2,1.28,.34,.51,.54,.86,.69,1.11,.15,.26,.23,.39,.32,.5,.08,.1,.19,.2,.41,.36,.22,.17,.54,.38,1.02,.72,.45,.31,.77,.4,1.02,.41,.26,0,.48-.06,.76-.16,.61-.21,1.31-.44,2.42,.34,.51,.35,.8,.62,.99,.83,.1,.11,.16,.2,.21,.27l.11,.16c.08,.07,.12,.1,.21,.13,.2,.08,.53,.16,1.09,.29,1.35,.31,1.65,1.1,1.91,1.78,.12,.33,.23,.59,.42,.81,.18,.21,.46,.4,.98,.52,1.14,.26,1.48,.36,1.83,.4,.35,.04,.71,0,1.88,0,.59,0,.92-.03,1.12-.07,.09-.02,.16-.04,.21-.06,.06-.02,.1-.05,.15-.07,.3-.16,.59-.29,1.82-.29,.56,0,.91-.1,1.16-.22,.26-.13,.44-.3,.66-.51,.11-.11,.23-.22,.35-.32,.13-.11,.28-.22,.46-.31,.36-.19,.81-.3,1.44-.31,.13,0,.32,.14,.35,.27,2.79,11.69-1.94,21.09-6.66,28.08-.03,.04-.21,.15-.26,.15-18.33,1.7-39.8,5.44-46.1,7.59-.26,.09-.47-.06-.47-.34V175.98c0-.19,.17-.36,.36-.36h138.37c.19,0,.36,.17,.36,.36v165.22c0,.26-.19,.41-.44,.34-15.64-4.14-28.88-6.85-50.98-8.08Z" style="fill: #afcfe8;"/>
          <path d="M610.67,265.33c.05,.25,.05,.51,.03,.75-.02,.24-.06,.48-.1,.73-.08,.49-.14,.89-.08,1.23,.06,.29,.21,.55,.66,.74,.5,.21,.81,.21,1.03,.16,.11-.03,.22-.08,.32-.14,.11-.07,.21-.15,.31-.22,.54-.4,1.11-.66,2.14,.27,.44,.4,.7,.58,.87,.67,.08,.04,.14,.06,.19,.08,.06,.02,.11,.02,.16,.03,.37,.04,.7,.12,1.62,.95,.92,.84,1.07,1.25,1.03,1.78,0,.09-.02,.18-.02,.29,0,.09,0,.19,.02,.31,.04,.23,.14,.56,.41,1.06,.28,.51,.48,.76,.62,.88,.12,.11,.21,.14,.34,.18,.4,.13,.76,.3,1.37,1.4,.28,.51,.5,.82,.66,1.03,.18,.23,.31,.37,.42,.51,.27,.37,.41,.77,.61,1.94,.27,1.57-.81,1.6-1.46,1.6-.15,0-.3,0-.44,.02-.13,.02-.2,.04-.24,.07-.04,.03-.18,.14-.08,.68,.09,.54,.3,1.06,.56,1.59,.27,.54,.58,1.06,.87,1.58,.58,1.05,1.12,2.2,.87,3.51-.05,.27-.28,.37-.52,.25-.3-.16-.51-.1-.76,.16-.28,.3-.54,.83-.8,1.48-.26,.66-.51,1.39-.77,2.05-.26,.66-.56,1.29-.94,1.7-2.25,2.41-4.24,4.35-5.81,5.41-1.47,1-2.96,1.45-3.62-.05-.09-.21-.2-.33-.71,0-.5,.31-1.11,.92-1.77,1.56-.33,.32-.65,.64-.96,.93-.31,.29-.63,.55-.93,.73-.57,.36-1.35,.56-1.74-.32-.38-.87-.94-.86-1.75-.83-.21,0-.42,.01-.63,0-.22-.01-.44-.04-.67-.12-.47-.16-.86-.51-1.13-1.14-.15-.34-.48-.5-1.11-.48-.63,.02-1.41,.22-2.25,.44-.42,.11-.84,.22-1.23,.3-.42,.09-.81,.15-1.17,.16-.73,.03-1.46-.15-1.79-.91-.11-.24-.35-.36-1.08-.1-.68,.25-1.54,.76-2.43,1.31-.45,.27-.89,.54-1.32,.78-.44,.24-.86,.45-1.24,.59-.72,.26-1.6,.37-1.97-.48-.13-.31-.37-.41-.91-.26-.55,.15-1.23,.51-1.97,.92-.37,.2-.73,.4-1.09,.57-.35,.17-.71,.32-1.04,.41-.67,.18-1.4,.12-1.74-.67-.15-.34-.75-.62-1.86-.78-1.06-.15-2.38-.17-3.62-.19-1.28-.02-2.5-.03-3.31-.17-.4-.07-.8-.18-1.04-.4-.32-.29-.32-.68-.1-1.04,1.35-2.26,.72-3.4-.33-4.28-.29-.24-.6-.45-.92-.66-.33-.22-.68-.42-1-.63-.64-.41-1.29-.87-1.64-1.47-.21-.35-.86-.59-1.91-.79-1.01-.19-2.19-.33-3.14-.6-2.24-.64-3.12-2.11-.05-5.46,.61-.66,.37-1.44-.41-2.49-.38-.52-.85-1.04-1.3-1.57-.45-.53-.91-1.08-1.23-1.63-.42-.71-.15-1.27,.36-1.65,.23-.17,.52-.32,.82-.44,.29-.12,.62-.24,.94-.35,.65-.23,1.23-.44,1.57-.7,.29-.22,.36-.39,.17-.72-.34-.57-.45-1.11-.44-1.62,0-.25,.04-.48,.08-.72,.04-.22,.1-.44,.16-.66,.22-.85,.4-1.57-.12-2.46-.35-.6-.4-1.24-.39-1.77,0-.26,.02-.51,.03-.73,0-.22,0-.38-.03-.5-.03-.13-.06-.25-.5-.23-.5,.02-1.36,.25-2.8,.81-2.88,.72-3.7-.79-3.7-2.42,0-.77,.17-1.57,.33-2.16,.17-.6,.33-1.02,.33-1.02,.02-.06,.2-.2,.26-.22,2.84-.6,3.25-2.16,3.24-3.72,0-.84-.12-1.67-.1-2.33,.02-.69,.2-1.4,1-1.66,4.06-1.3,5.74-2.15,6.24-2.81,.2-.26,.19-.45,.05-.7-.16-.3-.5-.62-.95-1.03-1.96-1.79-1.38-4.42-.26-6.16,.56-.88,1.3-1.6,2.03-1.93,.75-.34,1.57-.28,2.01,.6,1.39,2.78,3.31,3.1,4.61,2.69,.68-.22,1.19-.63,1.42-1.03,.22-.38,.17-.68-.12-.89-3.13-2.26-2.19-4.14-.68-5.56,.7-.66,1.53-1.25,2.11-1.8,.28-.27,.46-.49,.53-.67,.07-.16,.06-.27-.04-.41-.33-.47-.61-.77-.85-.99-.24-.22-.46-.36-.7-.52-.5-.33-1.02-.67-1.75-1.7-.43-.61-.39-1.16-.02-1.6,.16-.2,.37-.36,.58-.51,.21-.14,.44-.27,.68-.41,.48-.27,.86-.49,1.06-.74,.15-.18,.21-.38-.05-.75-.3-.43-.64-.66-.97-.8-.17-.07-.35-.12-.52-.16-.18-.04-.36-.08-.52-.11-.79-.17-1.43-.51-1.27-1.92,.27-2.38,.24-2.45,.51-4.83,.07-.66,.3-1.2,.59-1.67,.14-.23,.3-.45,.48-.66,.16-.2,.34-.4,.51-.6,.69-.78,1.28-1.47,1.4-2.53,.16-1.42,.94-1.61,1.59-1.75,.13-.03,.27-.06,.39-.1,.11-.04,.2-.09,.28-.15,.14-.12,.3-.35,.36-.89,.14-1.27,.47-1.53,.88-1.72,.12-.05,.16-.08,.21-.17,.07-.13,.15-.39,.19-.98,.05-.74,.44-1.13,1.06-1.03,.24,.04,.48,.14,.71,.25,.23,.11,.47,.25,.71,.39,.23,.13,.45,.26,.67,.37,.21,.1,.38,.17,.5,.19,.14-.02,.23-.11,.25-.38,.01-.21,.14-.35,.26-.44,.12-.09,.27-.16,.42-.21,.31-.1,.72-.15,1.18-.14,.92,.02,2.08,.29,3.14,1,.35,.23,.58,.18,.83-.04,.31-.26,.59-.72,.92-1.26,.16-.27,.32-.53,.49-.77,.17-.24,.36-.48,.57-.66,.46-.39,1.04-.52,1.69-.09,1.2,.81,.96,1.66,.68,2.41-.06,.17-.13,.34-.19,.53-.05,.16-.09,.33-.11,.51-.03,.33,.03,.69,.32,1.12,.66,.97,.88,1.25,1.11,1.52,.24,.29,.48,.57,1.16,1.58,.29,.43,.61,.63,.94,.74,.18,.06,.36,.09,.53,.11,.2,.02,.39,.03,.58,.04,.82,.05,1.71,.18,2,1.6,.26,1.27,0,1.8-.25,2.31-.11,.23-.21,.41-.25,.67-.05,.26-.05,.62,.06,1.18,.11,.56,.25,.89,.37,1.1,.06,.11,.12,.2,.18,.27l.18,.23c.31,.43,.32,.86-.02,2.01-.16,.55-.23,.85-.26,1.03-.01,.08-.01,.11-.01,.12,.07,.24,.08,.5-.25,1.62-.64,2.2,.47,5.62,2.48,6.31,1.21,.42,1.52,.83,1.73,1.39l.13,.34c.04,.11,.09,.22,.16,.35,.14,.24,.37,.53,.81,.89,.45,.37,.74,.58,.94,.72,.19,.13,.3,.19,.41,.24,.28,.14,.54,.28,1.48,1.05,1.09,.89,.88,1.55,.56,2.18-.06,.12-.13,.25-.19,.39-.05,.13-.09,.25-.11,.38-.03,.25,0,.57,.28,1.03,.29,.48,.52,.68,.71,.77,.19,.09,.38,.1,.64,.11,.6,.01,1.25,.05,1.95,1.22,.74,1.23,.24,1.76-.32,2.21-.11,.09-.23,.18-.34,.28-.1,.1-.19,.2-.25,.31-.13,.21-.21,.52-.11,1.04,.17,.95,.69,1.08,1.4,1.25,.19,.05,.39,.09,.57,.16,.19,.07,.39,.16,.58,.29,.39,.28,.66,.7,.79,1.37,.1,.58,.2,.94,.26,1.2l.08,.33c.03,.11,.04,.21,.04,.3,0,.21-.04,.41-.12,.67-.08,.25-.2,.61-.39,1.18-.4,1.25-.87,1.42-1.37,1.5-.18,.03-.27,.05-.37,.14-.11,.1-.27,.33-.45,.88-.37,1.14-.46,1.32-.57,1.51-.04,.07-.07,.13-.14,.3-.08,.2-.19,.51-.37,1.07-.17,.52-.16,.79-.12,.95,.04,.14,.11,.22,.26,.35l.25,.24c.09,.1,.18,.22,.24,.38,.08,.19,.11,.4,.09,.66,.28-.01,.6,.05,.95,.2,.66,.28,.97,.73,1.07,1.26Zm-36.09,54.29c.29-2.36,.52-4.53,.69-6.1,.09-.79,.16-1.44,.22-1.88,.03-.23,.06-.42,.09-.54,.02-.08,.04-.14,.05-.19,.09-.23,.27-.27,.35-.27,.08,0,.19,.02,.3,.1l.13,.11c.08,.07,.18,.15,.33,.22,.27,.14,.75,.28,1.6,.23,.08-.13,.24-.16,.4-.15,.09,0,.18,.04,.22,.07l.17,.09,.36,.21c.12,.07,.25,.14,.38,.18,.26,.09,.4,.07,.5-.02,.13-.12,.31-.46,.34-1.31,0-.15,.16-.32,.31-.34,.62-.07,1.24-.1,1.71-.11,.24,0,.43,0,.57,0h.18c.23,.03,.03,.37,.03,.37l.34-.1s.13,.42,.33,.82c.21,.44,.45,.78,.65,.87,.07-.06,.16-.19,.26-.36,.09-.17,.18-.35,.25-.48,.04-.07,.09-.16,.15-.23,.05-.05,.17-.18,.37-.18,.09,0,.19,.03,.26,.05,.08,.02,.17,.06,.27,.1,.19,.08,.42,.18,.65,.29,.36,.17,.74,.36,1,.49,.07-.05,.13-.13,.19-.23,.11-.18,.2-.38,.29-.54,.33-.57,.83-.67,1.49,0,.03,.03,.11,.24,.1,.29-.49,5.07,.56,9.36,1.91,12.99,1.36,3.66,3.01,6.64,3.69,9.01,.07,.25-.08,.45-.34,.45l-23.23-.08c-.3,0-.44-.22-.33-.49,1.3-3.12,2.18-8.59,2.77-13.33Z" style="fill: #15552b; fill-rule: evenodd;"/>
          <path d="M414.81,230.71c-.04-.28,.15-.46,.43-.39l1.14,.26c.09,.02,.25,.19,.27,.28l.99,5.3c.05,.25-.12,.44-.37,.42l-1.38-.1c-.14,0-.31-.17-.33-.31l-.75-5.46Zm21,4.17c-.15,0-.33-.16-.34-.32l-.75-6.72c-.03-.29,.17-.46,.45-.38l1.14,.31c.09,.02,.25,.2,.26,.29l.97,6.46c.03,.23-.13,.42-.36,.41l-1.36-.04Zm-28.2,24.24c-.13-.06-.27-.17-.33-.43-.05-.21-.05-.55,0-1.1,.21-2.19,.39-4.58,.59-6.78,.1-1.08,.12-1.42,.12-1.76,0-.35,0-.71,.04-1.84,.04-.98,.17-3.9,.43-6.82,.26-2.86,.67-5.86,1.35-6.88,.89-1.34,1.59-2.12,3.89-3.17,.22-.1,.44,0,.5,.25,.3,1.38,.55,3.05,.73,4.36,.09,.65,.17,1.22,.23,1.63l.05,.32c.88-.1,2.69-.21,4.38-.32l2.57-.15c.72-.04,1.15-.07,1.18-.08,.15-.03,.19-.11,.19-.15,.13-.98,.69-6.42,.82-7.6,.02-.14,.18-.3,.33-.32,1.08-.09,1.93-.11,2.63-.15,1.47-.09,6.89,1.28,7.51,7.52,1.68-.01,7.74-.08,10.42-.21,.28,0,.65-.29,.67-.38,.24-1.9,.77-5.48,.89-6.87,.02-.19,.2-.34,.38-.32,3.03,.24,8.59,.81,8.77,.91,.03,.02,.16,.1,.19,.32l.03,.22,.07,.71c.06,.58,.12,1.37,.19,2.19,.14,1.62,.28,3.37,.35,3.98,.21,.16,.35,.2,.51,.25,2.14,.3,5.67,.86,7.66,1.21,.08,.01,.13,0,.16,0,.05-.03,.08-.08,.09-.13,.29-2.29,.85-6.5,.94-6.93,.04-.18,.23-.31,.41-.28,1,.19,4.12,1.03,5.57,1.35,.08,.02,.24,.17,.26,.25,.29,1,1.39,11.7,1.55,16.19,0,.27-.19,.43-.45,.35l-2.39-.68c-.49-.08-.87,.23-.87,.71l.52,9.16,3.79,1.64c.06,.03,.2,.21,.21,.28,0,0,.85,6.2,1.2,11.3,.02,.26-.17,.43-.43,.37-4.94-1.03-19.89-2.51-31.79-2.56-12.92-.26-23.95,.51-31.86,1.47-.3-.03-.57-.03-.85-.02-.31,0-.65,.01-.95-.01-.57-.05-1.39-.24-1.39-1.13,.18-.61,.03-.88-.23-1.25l-.22-.31c-.08-.12-.15-.24-.21-.37-.13-.28-.21-.61-.17-1.01,.05-.52,0-.77-.07-.88-.05-.1-.12-.15-.28-.24-.43-.26-.8-.58-.68-1.8,.11-1.13,.25-1.43,.41-1.73,.03-.05,.06-.11,.09-.17,.03-.06,.05-.13,.08-.23,.06-.22,.11-.54,.16-1.05,.05-.48,.04-.72,.03-.83Zm-1.32,29.8c-.13-.02-.28-.11-.36-.35-.06-.2-.06-.54-.02-1.07,.09-1.04-.08-1.71-.27-2.42-.1-.37-.19-.74-.25-1.17-.06-.43-.09-.91-.04-1.49,.1-1.17,.56-2.16,.98-2.95,.21-.39,.41-.74,.57-1.05,.16-.31,.24-.53,.25-.69,.09-1.49,.62-2.54,1.13-3.23,.25-.34,.5-.59,.69-.76,.2-.18,.33-.26,.33-.26l.14-.05c8.41-1.29,25.17-2.09,32.04-2.18,.35,0,.65-.03,.9-.07,10.56,.11,27.52,.62,33.48,2.4,.09,.03,.24,.2,.25,.3,0,0,1.3,11.54,2.59,23.27,1.29,11.69,2.57,23.65,2.52,24.43-.03,.49,.81,11.52,.9,12.19,.14,1.05,.08,2.61-1.28,3-.33,.1-3.86-.31-7.1-.71-3.33-.4-6.6-.82-6.6-.82-.17-.02-.32-.2-.31-.37,1.45-26.49-26.53-27.25-24.88-.59l-.65,.22c.15,.01,.19,.13,.2,.14h-.15s-.64,0-.64,0c-.55,0-1.34,.02-2.28,.05-1.88,.05-4.4,.12-6.93,.19-4.99,.14-10.27,.27-10.74,.1-.58-.21-.98-.52-1.29-.88-.15-.18-.28-.36-.39-.55-.11-.18-.21-.36-.3-.55-.38-.72-.7-1.32-1.6-1.64-.46-.17-.84-.18-1.18-.14-.37,.04-.69,.16-.99,.24-.72,.2-1.44,.28-2.33-.63-.88-.91-.8-1.67-.72-2.32,.04-.32,.07-.57,0-.84-.05-.25-.19-.55-.53-.9-.34-.35-.62-.47-.85-.52-.12-.02-.23-.02-.35-.02-.13,0-.25,.03-.37,.05-.65,.09-1.23,.03-1.71-1.16-.34-.86,.22-1.41,.96-1.72,1.65-.21,2.42-.51,2.74-.78,.22-.19,.22-.34,.02-.59-.52-.64-1.85-1.08-2.18-.96-1.07,.4-2.66-1.23-2.06-2.69,.02-.06,.01-.27-.19-.72-.19-.41-.47-.88-.76-1.35-.3-.48-.61-.96-.85-1.36-.12-.21-.23-.4-.3-.56-.07-.15-.14-.34-.14-.51,0-.2-.02-.83-.02-1.44,0-.32,0-.64,.03-.9,.01-.14,.02-.27,.04-.37,.02-.1,.05-.22,.1-.32,.01-.03,.16-.16,.19-.17,.12-.04,.24-.18,.3-.54,.06-.35,.05-.81,0-1.31-.05-.5-.14-1.02-.21-1.45-.07-.43-.13-.84-.12-1.09,.06-1.17,.3-1.47,.59-1.76,.1-.1,.16-.16,.22-.31,.07-.16,.13-.45,.16-.98,.05-1.02-.2-1.58-.47-2.19-.15-.33-.29-.66-.39-1.05-.11-.41-.17-.88-.14-1.46,.02-.42,.3-.57,.55-.63,.09-.02,.19-.03,.31-.06,.09-.02,.2-.04,.31-.08,2.36-.3,1.99-1.56,.71-2.04-1.23-.46-1.58-1.55-1.61-2.69-.03-1.09,.21-2.36,.31-3.47,.03-.33,.03-.53,.03-.65Z" style="fill: #a8a9ac; fill-rule: evenodd;"/>
          <path d="M404.84,381.1l-9.47-5.91-9.47,5.91,2.7-10.83-8.55-7.18,11.13-.78,4.18-10.35,4.18,10.35,11.13,.78-8.55,7.18,2.7,10.83Zm0,34.87l-9.47-5.91-9.47,5.91,2.7-10.83-8.55-7.18,11.13-.78,4.18-10.34,4.18,10.34,11.13,.78-8.55,7.18,2.7,10.83Zm0,34.87l-9.47-5.91-9.47,5.91,2.7-10.83-8.55-7.18,11.13-.78,4.18-10.35,4.18,10.34,11.13,.78-8.55,7.18,2.7,10.83Zm0,34.87l-9.47-5.91-9.47,5.91,2.7-10.83-8.55-7.18,11.13-.78,4.18-10.35,4.18,10.34,11.13,.78-8.55,7.18,2.7,10.83Zm91.29-104.61l-9.47-5.91-9.46,5.91,2.7-10.83-8.55-7.18,11.13-.78,4.18-10.35,4.18,10.35,11.13,.78-8.55,7.18,2.7,10.83Zm0,34.87l-9.47-5.91-9.46,5.91,2.7-10.83-8.55-7.18,11.13-.78,4.18-10.34,4.18,10.34,11.13,.78-8.55,7.18,2.7,10.83Zm0,34.87l-9.47-5.91-9.46,5.91,2.7-10.83-8.55-7.18,11.13-.78,4.18-10.35,4.18,10.34,11.13,.78-8.55,7.18,2.7,10.83Zm0,34.87l-9.47-5.91-9.46,5.91,2.7-10.83-8.55-7.18,11.13-.78,4.18-10.35,4.18,10.34,11.13,.78-8.55,7.18,2.7,10.83Zm-44.44-104.61l-9.47-5.91-9.46,5.91,2.7-10.83-8.55-7.18,11.13-.78,4.18-10.35,4.18,10.35,11.13,.78-8.55,7.18,2.7,10.83Zm0,34.87l-9.47-5.91-9.46,5.91,2.7-10.83-8.55-7.18,11.13-.78,4.18-10.34,4.18,10.34,11.13,.78-8.55,7.18,2.7,10.83Zm0,34.87l-9.47-5.91-9.46,5.91,2.7-10.83-8.55-7.18,11.13-.78,4.18-10.35,4.18,10.34,11.13,.78-8.55,7.18,2.7,10.83Zm0,34.87l-9.47-5.91-9.46,5.91,2.7-10.83-8.55-7.18,11.13-.78,4.18-10.35,4.18,10.34,11.13,.78-8.55,7.18,2.7,10.83Zm0,34.87l-9.47-5.91-9.46,5.91,2.7-10.83-8.55-7.18,11.13-.78,4.18-10.34,4.18,10.34,11.13,.78-8.55,7.18,2.7,10.83Zm206.94-374.05c.94,.67,1.35,1.66,1.84,2.83l2.6,6.19c1.03,2.42,1.53,3.77,2.11,4,.99,.4,1.89,.36,1.89,1.03,0,.4-.22,.45-.76,.45-.76,0-1.71-.13-2.74-.13-.67,0-1.3,.13-1.98,.13-.9,0-.99-.49-1.39-1.48l-4.04-10.19c-.63-1.57-1.12-2.02-2.51-2.02h-.45c-.36,0-.58,.27-.58,.63v8.84c0,1.75,.04,2.83,1.97,2.83,.72,0,.99,.22,.99,.76,0,.36-.36,.63-.9,.63-.45,0-1.75-.27-4.08-.27s-3.73,.27-4.26,.27c-.63,0-.94-.27-.94-.72,0-.85,.9-.54,1.75-.76,1.44-.36,1.44-.81,1.44-2.74v-20.56c0-1.44-.09-1.8-.99-2.06-1.17-.31-2.11,.09-2.11-.81,0-.58,.4-.63,1.21-.63,.36,0,1.39,.18,2.96,.18,2.24,0,4.4-.27,6.42-.27,4.8,0,7.36,2.78,7.36,6.96,0,3.59-1.84,6.24-4.8,6.91Zm-6.01-1.62c0,.94,.54,1.03,2.06,1.03,3.05,0,4.67-1.98,4.67-5.7s-1.57-6.1-4.49-6.1c-2.06,0-2.24,.76-2.24,2.24v8.53Zm-25.41-8.66v15.67c0,5.48,1.08,8.35,5.84,8.35,2.38,0,4.17-.85,5.25-2.38,1.08-1.62,1.12-3.77,1.12-6.87v-10.86c0-3.41-.04-5.16-.81-5.79-.81-.63-2.42,0-2.42-.99,0-.4,.27-.63,.76-.63,.54,0,1.53,.13,3.05,.13,1.62,0,2.65-.13,3.1-.13,.63,0,.94,.18,.94,.63,0,.54-.4,.63-1.3,.63-1.88,0-1.97,1.53-1.97,6.01v11.04c0,3.1-.04,5.43-1.21,7.45-1.26,2.15-3.77,3.37-7.23,3.37-3.82,0-6.37-.99-7.9-3.23-1.21-1.75-1.3-3.91-1.3-6.64v-15.76c0-1.48-.04-1.8-.99-2.06-1.17-.36-2.06,.09-2.06-.81,0-.36,.27-.63,.67-.63,.45,0,1.89,.36,4.44,.36s3.99-.36,4.44-.36,.67,.27,.67,.63c0,.94-1.03,.49-2.11,.81-.9,.27-.99,.63-.99,2.06Zm-8.32-4.13l-.27,5.93c-.04,.99-.18,1.26-.63,1.26-.81,0-.76-1.26-1.3-3.01-.81-1.93-2.11-2.2-4.85-2.2h-.72c-.36,0-.58,.4-.58,.72v21.99c0,1.89,.04,2.29,1.21,2.69,1.03,.36,1.97-.09,1.97,.9,0,.36-.31,.63-.94,.63-.94,0-2.38-.31-4.26-.31s-3.32,.31-4.26,.31c-.63,0-.94-.27-.94-.72,0-.9,.99-.49,1.98-.81,1.17-.36,1.21-.76,1.21-2.69v-21.86c0-.36-.22-.85-.58-.85h-1.26c-1.84,0-2.92,.72-4.04,2.15-1.08,1.8-1.48,2.87-2.2,2.87-.31,0-.49-.04-.49-.63,0-.05,.09-.4,.18-.76l1.12-4.58c.31-1.35,.31-2.29,.9-2.29,.54,0,.49,1.48,1.03,1.53,.31,.31,1.03,.4,2.11,.4,.85,0,1.93-.04,3.23-.04h5.52c1.48,0,2.65,.09,3.5,.09,.67,0,1.17-.05,1.44-.22,.81-.49,.99-1.8,1.44-1.8,.36,0,.49,.54,.49,.81v.49Zm-25.44,4.13v20.56c0,1.89,.04,2.33,1.21,2.69,1.03,.31,1.98-.09,1.98,.9,0,.36-.31,.63-.94,.63-.54,0-1.93-.27-4.26-.27s-3.73,.27-4.26,.27c-.63,0-.94-.27-.94-.72,0-.85,.9-.54,1.75-.76,1.44-.36,1.44-.81,1.44-2.74v-20.56c0-1.44-.09-1.8-.99-2.06-1.17-.31-2.11,.09-2.11-.81,0-.36,.22-.63,.67-.63s1.89,.36,4.44,.36,3.95-.36,4.44-.36c.4,0,.67,.27,.67,.63,0,.81-.81,.54-1.93,.76-1.12,.22-1.17,.67-1.17,2.11Zm-17.87,11.85l-.72-.31c-.13-.04-.22-.09-.31-.09-.36,0-.4,.27-.4,.85v8.39c0,1.53,.04,2.06,.9,2.47,1.12,.49,2.15-.09,2.15,.99,0,.36-.36,.67-.94,.67s-2.02-.31-4.26-.31c-2.11,0-3.46,.31-4.08,.31-.4,0-.67-.13-.81-.35-.1,.27-.38,.35-.9,.35-.76,0-1.98-.27-3.77-.27-2.51,0-4.04,.22-4.62,.22-.54,0-.76-.13-.76-.54s.36-.72,.9-.72c1.48,0,1.84-.27,1.84-1.08,0-.4-.13-1.08-.4-2.02l-1.75-5.75c-.09-.31-.31-.36-.67-.36h-5.57c-.18,0-.45,.18-.49,.4l-1.08,4c-.45,1.75-.67,2.92-.67,3.46,0,.9,.36,1.08,1.17,1.21,1.21,.18,1.8,.31,1.8,.99,0,.4-.27,.54-.76,.54-.63,0-1.98-.27-3.91-.27-1.3,0-2.33,.22-2.96,.22-.54,0-.81-.22-.81-.58,0-.94,1.35-.36,2.24-1.03,.81-.58,1.12-1.71,1.62-3.32l7.14-23.16c.22-.67,.27-1.08,.76-1.08,.63,0,.67,.85,1.08,2.11l6.78,21.37c.63,2.06,1.03,3.28,2.2,4.04,.66,.45,1.29,.47,1.54,.71,.13-.61,.91-.37,1.69-.57,1.35-.36,1.35-1.08,1.35-3.1v-20.24c0-1.3-.09-1.75-.94-2.02-1.12-.36-2.02,.04-2.02-.85,0-.45,.31-.63,.85-.63,.22,0,1.39,.13,3.55,.13h.72c1.03,0,2.51-.09,4.49-.09,5.21,0,7.81,2.78,7.81,8.21,0,4.53-2.83,7.9-6.15,7.9-.81,0-1.71-.31-2.78-.81Zm-1.48-3.14c0,1.3,1.21,1.93,2.33,1.93,2.02,0,3.86-2.38,3.86-6.1,0-4.04-1.93-6.73-4.08-6.73-1.84,0-2.11,.63-2.11,2.2v8.71Zm-19.8-4.71c-.09-.27-.18-.4-.27-.4s-.22,.13-.27,.36l-2.11,7.95c-.04,.22-.04,.4-.04,.45,0,.13,.13,.27,.31,.27h4.49c.18,0,.4-.18,.4-.36,0-.13-.05-.27-.09-.45l-2.42-7.81Zm-31.77,6.6c0-8.35,6.01-14.9,13.51-14.9,3.28,0,6.1,1.03,6.64,1.66,.31,.31,.58,1.98,.58,4.62,0,.49-.13,.81-.36,.81-.4,0-.81-.67-1.48-1.8-1.62-2.65-3.23-4.08-5.57-4.08-4.85,0-8.71,5.52-8.71,13.92,0,7.77,3.86,13.38,8.3,13.38,2.78,0,4.58-1.53,5.97-4.62,.72-1.62,1.03-2.56,1.57-2.56,.27,0,.49,.31,.49,.94,0,.36-.13,1.66-.13,3.82s-3.19,3.86-7.72,3.86c-7.54,0-13.11-6.6-13.11-15.04Zm-27.79-7.09c0-4.62,3.05-7.81,7.95-7.81,2.51,0,4.71,.85,5.12,1.39,.22,.27,.36,1.93,.36,4.89,0,.63-.22,.94-.58,.94-.63,0-.67-.85-1.3-2.38-.94-2.38-1.89-3.68-4-3.68-2.65,0-4.31,1.8-4.31,4.62,0,2.38,1.35,3.68,4.17,5.16,4.8,2.51,7.5,4.8,7.5,9.88s-3.64,9.11-8.66,9.11c-3.95,0-6.64-1.3-6.64-3.86,0-1.03,.09-1.98,.09-2.83,0-.67-.05-1.08-.05-1.17,0-.94,.27-1.39,.67-1.39,.81,0,.58,1.44,1.08,3.14,.9,3.01,3.1,4.8,5.39,4.8,2.69,0,4.85-2.29,4.85-5.39,0-2.74-1.71-4.85-5.12-6.78-3.64-2.06-6.51-3.41-6.51-8.66Zm-13.83,.49c-.09-.27-.18-.4-.27-.4s-.22,.13-.27,.36l-2.11,7.95c-.05,.22-.05,.4-.05,.45,0,.13,.13,.27,.31,.27h4.49c.18,0,.4-.18,.4-.36,0-.13-.05-.27-.09-.45l-2.42-7.81Zm2.2-6.19l6.78,21.37c.63,2.06,1.03,3.28,2.2,4.04,.85,.58,1.66,.45,1.66,.99,0,.49-.27,.63-.94,.63-.76,0-1.98-.27-3.77-.27-2.51,0-4.04,.22-4.62,.22-.54,0-.76-.13-.76-.54s.36-.72,.9-.72c1.48,0,1.84-.27,1.84-1.08,0-.4-.13-1.08-.4-2.02l-1.75-5.75c-.09-.31-.31-.36-.67-.36h-5.57c-.18,0-.45,.18-.49,.4l-1.08,4c-.45,1.75-.67,2.92-.67,3.46,0,.9,.36,1.08,1.17,1.21,1.21,.18,1.8,.31,1.8,.99,0,.4-.27,.54-.76,.54-.63,0-1.98-.27-3.91-.27-1.3,0-2.33,.22-2.96,.22-.54,0-.81-.22-.81-.58,0-.94,1.35-.36,2.24-1.03,.81-.58,1.12-1.71,1.62-3.32l7.14-23.16c.22-.67,.27-1.08,.76-1.08,.63,0,.67,.85,1.08,2.11Zm-9.43-1.93l-.27,5.93c-.05,.99-.18,1.26-.63,1.26-.81,0-.76-1.26-1.3-3.01-.81-1.93-2.11-2.2-4.85-2.2h-.72c-.36,0-.58,.4-.58,.72v21.99c0,1.89,.04,2.29,1.21,2.69,1.03,.36,1.97-.09,1.97,.9,0,.36-.31,.63-.94,.63-.94,0-2.38-.31-4.26-.31s-3.32,.31-4.26,.31c-.63,0-.94-.27-.94-.72,0-.9,.99-.49,1.98-.81,1.17-.36,1.21-.76,1.21-2.69v-21.86c0-.36-.22-.85-.58-.85h-1.26c-1.84,0-2.92,.72-4.04,2.15-1.08,1.8-1.48,2.87-2.2,2.87-.31,0-.49-.04-.49-.63,0-.05,.09-.4,.18-.76l1.12-4.58c.31-1.35,.31-2.29,.9-2.29,.54,0,.49,1.48,1.03,1.53,.31,.31,1.03,.4,2.11,.4,.85,0,1.93-.04,3.23-.04h5.52c1.48,0,2.65,.09,3.5,.09,.67,0,1.17-.05,1.44-.22,.81-.49,.99-1.8,1.44-1.8,.36,0,.49,.54,.49,.81v.49Zm-27.77,14.41c.94,.67,1.35,1.66,1.84,2.83l2.6,6.19c1.03,2.42,1.53,3.77,2.11,4,.99,.4,1.89,.36,1.89,1.03,0,.4-.22,.45-.76,.45-.76,0-1.71-.13-2.74-.13-.67,0-1.3,.13-1.98,.13-.9,0-.99-.49-1.39-1.48l-4.04-10.19c-.63-1.57-1.12-2.02-2.51-2.02h-.45c-.36,0-.58,.27-.58,.63v8.84c0,1.75,.05,2.83,1.98,2.83,.72,0,.99,.22,.99,.76,0,.36-.36,.63-.9,.63-.45,0-1.75-.27-4.08-.27s-3.73,.27-4.26,.27c-.63,0-.94-.27-.94-.72,0-.85,.9-.54,1.75-.76,1.44-.36,1.44-.81,1.44-2.74v-20.56c0-1.44-.09-1.8-.99-2.06-1.17-.31-2.11,.09-2.11-.81,0-.58,.4-.63,1.21-.63,.36,0,1.39,.18,2.96,.18,2.24,0,4.4-.27,6.42-.27,4.8,0,7.36,2.78,7.36,6.96,0,3.59-1.84,6.24-4.8,6.91Zm-6.01-1.62c0,.94,.54,1.03,2.06,1.03,3.05,0,4.67-1.98,4.67-5.7s-1.57-6.1-4.49-6.1c-2.06,0-2.24,.76-2.24,2.24v8.53Zm-10.29-10.64v3.86c0,.76-.09,1.12-.49,1.12-.81,0-.58-1.89-2.2-3.37-1.21-1.12-3.01-1.71-5.48-1.71s-2.51,.63-2.51,2.74v7.41c0,.76,0,.9,.81,.9h2.02c1.84,0,3.37-.4,3.77-.81,1.21-1.17,.63-2.74,1.57-2.74,.4,0,.54,.18,.54,.63,0,1.12-.22,2.65-.22,4.44,0,2.11,.13,3.41,.13,3.82,0,.54-.22,.81-.54,.81-.76,0-.58-1.39-1.53-3.14-.72-1.35-1.88-1.48-3.77-1.48h-1.98c-.63,0-.81,.18-.81,.81v9.25c0,2.47,.58,2.87,3.23,2.87,2.78,0,4.26-.36,5.66-2.56,1.08-1.66,1.44-3.1,2.15-3.1,.18,0,.45,.27,.45,.4,0,0-.04,.31-.09,.81l-.49,4.35c-.13,1.39-.09,1.57-1.39,1.57-1.84,0-5.7-.36-11.45-.36-2.65,0-4.04,.22-4.4,.22-.67,0-.99-.22-.99-.72,0-.81,.81-.54,1.93-.72,1.3-.18,1.35-1.03,1.35-2.78v-20.56c0-1.35,0-1.8-.85-2.06-.99-.31-1.93,.09-1.93-.81,0-.4,.27-.63,.76-.63,.36,0,2.56,.18,6.69,.18,5.25,0,8.21-.18,8.8-.18,1.21,0,1.26,.4,1.26,1.35v.18Zm-33.45,12.39c-.36,0-.58,.22-.58,.58v9.2c0,2.29,.94,3.37,3.64,3.37,3.55,0,5.75-2.47,5.75-6.82,0-3.82-2.06-6.33-6.01-6.33h-2.78Zm7.41-1.12c3.77,.76,5.88,3.5,5.88,7.68,0,4.8-3.32,8.21-8.39,8.21-3.23,0-5.88-.67-8.08-.67-1.66,0-2.78,.27-3.37,.27-.54,0-.85-.27-.85-.72,0-.49,.31-.67,1.08-.67,1.35,0,1.75-.72,1.75-1.93,0-.13,.05-.4,.05-.9v-20.56c0-1.21-.4-1.75-1.21-1.75-.58,0-1.12,.22-1.57,.22-.36,0-.54-.22-.54-.63,0-.9,2.83-1.39,8.39-1.39,7.5,0,11.27,2.06,11.27,6.91,0,2.96-1.39,4.8-4.4,5.93Zm-7.99-1.71c0,1.3,.05,1.39,1.39,1.39h.58c3.86,0,6.1-1.93,6.1-5.34,0-3.68-1.93-5.7-5.48-5.7-2.29,0-2.6,.54-2.6,2.15v7.5Zm-12.24-7.59v20.56c0,1.89,.05,2.33,1.21,2.69,1.03,.31,1.98-.09,1.98,.9,0,.36-.31,.63-.94,.63-.54,0-1.93-.27-4.26-.27s-3.73,.27-4.26,.27c-.63,0-.94-.27-.94-.72,0-.85,.9-.54,1.75-.76,1.44-.36,1.44-.81,1.44-2.74v-20.56c0-1.44-.09-1.8-.99-2.06-1.17-.31-2.11,.09-2.11-.81,0-.36,.22-.63,.67-.63s1.89,.36,4.44,.36,3.95-.36,4.44-.36c.4,0,.67,.27,.67,.63,0,.81-.81,.54-1.93,.76-1.12,.22-1.17,.67-1.17,2.11Zm-18.52,0v20.56c0,1.93,1.03,2.92,2.92,2.92s3.37-.81,4.62-2.47c1.35-1.8,1.84-3.01,2.33-3.01,.18,0,.4,.22,.4,.36,0,.05,0,.36-.04,.81l-.45,4.22c-.04,.4-.09,.63-.09,.76,0,.49-.31,.76-.9,.76-1.89,0-5.52-.4-10.82-.4-2.33,0-3.73,.27-4.26,.27-.63,0-.94-.27-.94-.72,0-.85,.9-.54,1.75-.76,1.44-.36,1.44-.81,1.44-2.74v-20.56c0-1.35-.05-1.8-.9-2.06-1.08-.36-1.93,.09-1.93-.81,0-.36,.22-.63,.58-.63,.45,0,1.71,.36,4.13,.36,2.69,0,4.13-.36,4.58-.36,.4,0,.67,.27,.67,.63,0,.81-.81,.54-1.93,.76-1.12,.22-1.17,.67-1.17,2.11Zm300.99,221.24h4.06c.8,0,1.18,.09,1.18,.52,0,.85-1.98,.61-3.54,2.31-1.18,1.27-1.79,3.16-1.79,5.76s.66,2.64,2.88,2.64h7.79c.8,0,.94,0,.94-.85v-2.12c0-1.94-.43-3.54-.85-3.97-1.23-1.27-2.88-.66-2.88-1.65,0-.42,.19-.57,.66-.57,1.18,0,2.79,.24,4.67,.24,2.22,0,3.59-.14,4.01-.14,.57,0,.85,.24,.85,.57,0,.8-1.46,.61-3.3,1.61-1.42,.76-1.56,1.98-1.56,3.97v2.08c0,.66,.19,.85,.85,.85h9.73c2.6,0,3.02-.61,3.02-3.4,0-2.93-.38-4.49-2.69-5.95-1.75-1.13-3.26-1.51-3.26-2.27,0-.19,.28-.47,.43-.47,0,0,.33,.05,.85,.09l4.58,.52c1.46,.14,1.65,.09,1.65,1.46,0,1.94-.38,6-.38,12.04,0,2.79,.24,4.25,.24,4.63,0,.71-.24,1.04-.76,1.04-.85,0-.57-.85-.76-2.03-.19-1.37-1.09-1.42-2.93-1.42h-21.62c-1.42,0-1.89,0-2.17,.9-.33,1.04,.09,2.03-.85,2.03-.42,0-.66-.28-.66-.8,0-.38,.19-2.69,.19-7.03,0-5.52-.19-8.64-.19-9.25,0-1.27,.43-1.32,1.42-1.32h.19Zm2.08,33.04h21.62c2.03,0,3.07-1.09,3.07-3.07s-.85-3.54-2.6-4.86c-1.89-1.42-3.16-1.94-3.16-2.46,0-.19,.24-.42,.38-.42,.05,0,.38,0,.85,.05l4.44,.47c.42,.05,.66,.09,.8,.09,.52,0,.8,.33,.8,.94,0,1.98-.43,5.81-.43,11.38,0,2.45,.28,3.92,.28,4.48,0,.66-.28,.99-.76,.99-.9,0-.57-.94-.8-1.84-.38-1.51-.85-1.51-2.88-1.51h-21.62c-1.42,0-1.89,.05-2.17,.94-.38,1.13,.09,2.03-.85,2.03-.38,0-.66-.24-.66-.61,0-.47,.38-1.79,.38-4.34,0-2.83-.38-4.34-.38-4.82,0-.43,.28-.71,.66-.71,.85,0,.57,.85,.8,2.03,.24,1.18,.71,1.23,2.22,1.23Zm0,15.21h21.62c1.98,0,2.46-.05,2.83-1.27,.33-1.09-.09-2.08,.94-2.08,.38,0,.66,.33,.66,.99,0,.57-.28,2.03-.28,4.49s.28,3.92,.28,4.48c0,.66-.28,.99-.76,.99-.9,0-.57-.94-.8-1.84-.38-1.51-.85-1.51-2.88-1.51h-21.62c-1.51,0-1.89,.09-2.17,1.04-.33,1.23,.09,2.22-.85,2.22-.38,0-.66-.24-.66-.71s.38-1.98,.38-4.67-.38-4.15-.38-4.67c0-.43,.28-.71,.66-.71,.85,0,.57,.85,.8,2.03,.24,1.18,.71,1.23,2.22,1.23Zm0,31.38h8.59c.42,0,.61-.19,.61-.61v-10.72c0-.38-.28-.57-.66-.57h-8.55c-1.51,0-1.89,.05-2.17,.99-.33,1.23,.09,2.22-.85,2.22-.38,0-.66-.24-.66-.71s.38-1.98,.38-4.67-.38-4.15-.38-4.67c0-.42,.28-.71,.66-.71,.85,0,.57,.85,.8,2.03,.24,1.18,.71,1.23,2.22,1.23h21.62c1.98,0,2.45,0,2.83-1.23,.33-1.09-.09-2.12,.94-2.12,.38,0,.66,.38,.66,1.04,0,.57-.28,1.98-.28,4.44s.28,3.92,.28,4.48c0,.66-.28,1.04-.76,1.04-.9,0-.57-.94-.8-1.84-.38-1.51-.85-1.51-2.88-1.51h-10.1c-.38,0-.66,.19-.66,.57v10.72c0,.38,.28,.61,.66,.61h10.1c1.98,0,2.45-.05,2.83-1.27,.33-1.09-.09-2.08,.94-2.08,.38,0,.66,.33,.66,.99,0,.57-.28,2.03-.28,4.49s.28,3.92,.28,4.48c0,.66-.28,.99-.76,.99-.9,0-.57-.94-.8-1.84-.38-1.51-.85-1.51-2.88-1.51h-21.62c-1.51,0-1.89,.09-2.17,1.04-.33,1.23,.09,2.22-.85,2.22-.38,0-.66-.24-.66-.71s.38-1.98,.38-4.67-.38-4.15-.38-4.67c0-.43,.28-.71,.66-.71,.85,0,.57,.85,.8,2.03,.24,1.18,.71,1.23,2.22,1.23Zm11.14,34.84c-8.78,0-15.67-6.33-15.67-14.21,0-3.45,1.09-6.42,1.75-6.99,.33-.33,2.08-.61,4.86-.61,.52,0,.85,.14,.85,.38,0,.43-.71,.85-1.89,1.56-2.79,1.7-4.3,3.4-4.3,5.85,0,5.1,5.81,9.16,14.64,9.16,8.17,0,14.07-4.06,14.07-8.73,0-2.93-1.61-4.82-4.86-6.28-1.7-.76-2.69-1.09-2.69-1.65,0-.28,.33-.52,.99-.52,.38,0,1.75,.14,4.01,.14s4.06,3.35,4.06,8.12c0,7.93-6.94,13.79-15.82,13.79Zm-13.8,22.72l4.06,.14c.8,.03,1.18,.14,1.16,.56-.03,.85-2,.54-3.62,2.19-1.22,1.23-1.9,3.1-1.99,5.69-.09,2.5,.57,2.67,2.79,2.74l7.78,.27c.8,.03,.94,.03,.97-.82l.07-2.12c.07-1.93-.3-3.55-.71-3.99-1.18-1.32-2.86-.76-2.82-1.75,.01-.42,.21-.56,.68-.54,1.18,.04,2.78,.33,4.66,.4,2.22,.08,3.59-.02,4.02,0,.57,.02,.84,.27,.83,.6-.03,.8-1.48,.56-3.36,1.49-1.44,.71-1.63,1.93-1.7,3.91l-.07,2.08c-.02,.66,.16,.86,.82,.88l9.72,.34c2.6,.09,3.04-.51,3.14-3.29,.1-2.93-.22-4.5-2.48-6.04-1.71-1.19-3.2-1.62-3.18-2.38,0-.19,.3-.46,.44-.46,0,0,.33,.06,.85,.12l4.56,.68c1.46,.19,1.65,.15,1.6,1.52-.07,1.93-.59,5.98-.8,12.02-.1,2.78,.09,4.25,.07,4.63-.02,.71-.27,1.03-.79,1.01-.85-.03-.54-.87-.68-2.05-.14-1.37-1.04-1.45-2.88-1.52l-21.61-.75c-1.42-.05-1.89-.07-2.2,.82-.37,1.03,.02,2.03-.92,2-.42-.02-.65-.31-.63-.83,.01-.38,.28-2.68,.43-7.02,.19-5.52,.11-8.64,.13-9.25,.04-1.27,.47-1.31,1.46-1.27h.19Zm8.08,49.61l-18.2-12.28c-.82-.55-1.36-.69-1.81-.02-.4,.59-.33,1.26-.65,1.72-.16,.23-.53,.27-.88,.03-1.02-.69,.48-4.51,4.47-10.42,5.02-7.44,13.4-8.56,20.96-3.46,7.63,5.15,9.49,12.78,4.24,20.57-1.37,2.04-2.9,3.45-3.82,4.82-.82,1.21-1.28,2.49-1.94,3.47-.37,.55-.79,.66-1.18,.4-.74-.5,.06-1.1,.36-1.98,.53-1.46,.14-1.73-1.54-2.86Zm1.24-4.29c2.7,1.82,4.03,2.04,5.62-.31,3.38-5.01,1.19-11.21-5.86-15.97-6.61-4.46-13.58-4.43-16.83,.38-1.82,2.7-1.33,3.49,.2,4.52l16.87,11.38Zm-50.46,1.39v21.62c0,2.03,1.09,3.07,3.07,3.07s3.54-.85,4.86-2.6c1.42-1.89,1.94-3.16,2.46-3.16,.19,0,.42,.24,.42,.38,0,.05,0,.38-.05,.85l-.47,4.44c-.05,.43-.09,.66-.09,.8,0,.52-.33,.8-.94,.8-1.98,0-5.81-.43-11.38-.43-2.45,0-3.92,.28-4.48,.28-.66,0-.99-.28-.99-.76,0-.9,.94-.57,1.84-.8,1.51-.38,1.51-.85,1.51-2.88v-21.62c0-1.42-.05-1.89-.94-2.17-1.13-.38-2.03,.09-2.03-.85,0-.38,.24-.66,.61-.66,.47,0,1.79,.38,4.34,.38,2.83,0,4.34-.38,4.82-.38,.43,0,.71,.28,.71,.66,0,.85-.85,.57-2.03,.8-1.18,.24-1.23,.71-1.23,2.22Zm-23.15,4.2c-.09-.28-.19-.42-.28-.42s-.24,.14-.28,.38l-2.22,8.36c-.05,.24-.05,.43-.05,.47,0,.14,.14,.28,.33,.28h4.72c.19,0,.43-.19,.43-.38,0-.14-.05-.28-.09-.47l-2.55-8.21Zm2.31-6.52l7.13,22.47c.66,2.17,1.09,3.45,2.31,4.25,.9,.61,1.75,.47,1.75,1.04,0,.52-.28,.66-.99,.66-.8,0-2.08-.28-3.97-.28-2.64,0-4.25,.24-4.86,.24-.57,0-.8-.14-.8-.57s.38-.76,.94-.76c1.56,0,1.94-.28,1.94-1.13,0-.42-.14-1.13-.42-2.12l-1.84-6.04c-.09-.33-.33-.38-.71-.38h-5.85c-.19,0-.47,.19-.52,.43l-1.13,4.2c-.47,1.84-.71,3.07-.71,3.64,0,.94,.38,1.13,1.23,1.27,1.27,.19,1.89,.33,1.89,1.04,0,.42-.28,.57-.8,.57-.66,0-2.08-.28-4.11-.28-1.37,0-2.46,.24-3.12,.24-.57,0-.85-.24-.85-.61,0-.99,1.42-.38,2.36-1.09,.85-.61,1.18-1.79,1.7-3.49l7.51-24.36c.24-.71,.28-1.13,.8-1.13,.66,0,.71,.9,1.13,2.22Zm-22.65,13.12c.99,.71,1.42,1.75,1.94,2.97l2.74,6.51c1.09,2.55,1.61,3.97,2.22,4.2,1.04,.42,1.98,.38,1.98,1.09,0,.43-.24,.47-.8,.47-.8,0-1.79-.14-2.88-.14-.71,0-1.37,.14-2.08,.14-.94,0-1.04-.52-1.46-1.56l-4.25-10.72c-.66-1.65-1.18-2.12-2.64-2.12h-.47c-.38,0-.61,.28-.61,.66v9.3c0,1.84,.05,2.97,2.08,2.97,.76,0,1.04,.24,1.04,.8,0,.38-.38,.66-.94,.66-.47,0-1.84-.28-4.3-.28s-3.92,.28-4.48,.28c-.66,0-.99-.28-.99-.76,0-.9,.94-.57,1.84-.8,1.51-.38,1.51-.85,1.51-2.88v-21.62c0-1.51-.09-1.89-1.04-2.17-1.23-.33-2.22,.09-2.22-.85,0-.61,.42-.66,1.27-.66,.38,0,1.46,.19,3.12,.19,2.36,0,4.63-.28,6.75-.28,5.05,0,7.74,2.93,7.74,7.32,0,3.78-1.94,6.56-5.05,7.27Zm-6.33-1.7c0,.99,.57,1.09,2.17,1.09,3.21,0,4.91-2.08,4.91-6s-1.65-6.42-4.72-6.42c-2.17,0-2.36,.8-2.36,2.36v8.97Zm-11.21-13.46l-.28,6.23c-.05,1.04-.19,1.32-.66,1.32-.85,0-.8-1.32-1.37-3.16-.85-2.03-2.22-2.31-5.1-2.31h-.75c-.38,0-.61,.43-.61,.76v23.13c0,1.98,.05,2.41,1.27,2.83,1.09,.38,2.08-.09,2.08,.94,0,.38-.33,.66-.99,.66-.99,0-2.5-.33-4.48-.33s-3.49,.33-4.49,.33c-.66,0-.99-.28-.99-.76,0-.94,1.04-.52,2.08-.85,1.23-.38,1.27-.8,1.27-2.83v-22.99c0-.38-.24-.9-.61-.9h-1.32c-1.94,0-3.07,.76-4.25,2.27-1.13,1.89-1.56,3.02-2.31,3.02-.33,0-.52-.05-.52-.66,0-.05,.09-.43,.19-.8l1.18-4.82c.33-1.42,.33-2.41,.94-2.41,.57,0,.52,1.56,1.09,1.61,.33,.33,1.09,.43,2.22,.43,.9,0,2.03-.05,3.4-.05h5.81c1.56,0,2.79,.09,3.68,.09,.71,0,1.23-.05,1.51-.24,.85-.52,1.04-1.89,1.51-1.89,.38,0,.52,.57,.52,.85v.52Zm-42.23,8.03c0-4.86,3.21-8.21,8.36-8.21,2.64,0,4.96,.9,5.38,1.46,.24,.28,.38,2.03,.38,5.15,0,.66-.24,.99-.61,.99-.66,0-.71-.9-1.37-2.5-.99-2.5-1.98-3.87-4.2-3.87-2.79,0-4.53,1.89-4.53,4.86,0,2.5,1.42,3.87,4.39,5.43,5.05,2.64,7.88,5.05,7.88,10.39s-3.82,9.58-9.11,9.58c-4.15,0-6.99-1.37-6.99-4.06,0-1.09,.09-2.08,.09-2.97,0-.71-.05-1.13-.05-1.23,0-.99,.28-1.46,.71-1.46,.85,0,.61,1.51,1.13,3.3,.94,3.16,3.26,5.05,5.67,5.05,2.83,0,5.1-2.41,5.1-5.67,0-2.88-1.79-5.1-5.38-7.13-3.82-2.17-6.85-3.59-6.85-9.11Zm-22.76-3.68v16.48c0,5.76,1.13,8.78,6.14,8.78,2.5,0,4.39-.9,5.52-2.5,1.13-1.7,1.18-3.97,1.18-7.22v-11.42c0-3.59-.05-5.43-.85-6.09-.85-.66-2.55,0-2.55-1.04,0-.43,.28-.66,.8-.66,.57,0,1.61,.14,3.21,.14,1.7,0,2.79-.14,3.26-.14,.66,0,.99,.19,.99,.66,0,.57-.43,.66-1.37,.66-1.98,0-2.08,1.61-2.08,6.33v11.61c0,3.26-.05,5.71-1.27,7.84-1.32,2.27-3.97,3.54-7.6,3.54-4.01,0-6.7-1.04-8.31-3.4-1.27-1.84-1.37-4.11-1.37-6.99v-16.57c0-1.56-.05-1.89-1.04-2.17-1.23-.38-2.17,.09-2.17-.85,0-.38,.28-.66,.71-.66,.47,0,1.98,.38,4.67,.38s4.2-.38,4.67-.38,.71,.28,.71,.66c0,.99-1.09,.52-2.22,.85-.94,.28-1.04,.66-1.04,2.17Zm-21.49,4.2c-.09-.28-.19-.42-.28-.42s-.24,.14-.28,.38l-2.22,8.36c-.05,.24-.05,.43-.05,.47,0,.14,.14,.28,.33,.28h4.72c.19,0,.43-.19,.43-.38,0-.14-.05-.28-.09-.47l-2.55-8.21Zm2.31-6.52l7.13,22.47c.66,2.17,1.09,3.45,2.31,4.25,.9,.61,1.75,.47,1.75,1.04,0,.52-.28,.66-.99,.66-.8,0-2.08-.28-3.97-.28-2.64,0-4.25,.24-4.86,.24-.57,0-.8-.14-.8-.57s.38-.76,.94-.76c1.56,0,1.94-.28,1.94-1.13,0-.42-.14-1.13-.42-2.12l-1.84-6.04c-.09-.33-.33-.38-.71-.38h-5.85c-.19,0-.47,.19-.52,.43l-1.13,4.2c-.47,1.84-.71,3.07-.71,3.64,0,.94,.38,1.13,1.23,1.27,1.27,.19,1.89,.33,1.89,1.04,0,.42-.28,.57-.8,.57-.66,0-2.08-.28-4.11-.28-1.37,0-2.46,.24-3.12,.24-.57,0-.85-.24-.85-.61,0-.99,1.42-.38,2.36-1.09,.85-.61,1.18-1.79,1.7-3.49l7.51-24.36c.24-.71,.28-1.13,.8-1.13,.66,0,.71,.9,1.13,2.22Zm-63.28,23.94v-21.95c0-.99-.19-1.51-.99-1.51-.71,0-1.23,.42-1.79,.42-.28,0-.52-.28-.52-.71,0-1.23,4.01-2.12,11.14-2.12,8.97,0,14.59,6.33,14.59,15.44s-5.29,15.01-14.68,15.01c-2.45,0-4.48-.47-6.14-.47-1.46,0-2.79,.33-3.97,.33-.66,0-.99-.28-.99-.76,0-.9,.94-.57,1.84-.8,1.51-.38,1.51-.85,1.51-2.88Zm4.25-1.37c0,3.26,.57,4.49,3.4,4.49,6.04,0,9.96-5.29,9.96-13.79,0-7.98-3.92-13.74-9.73-13.74-3.26,0-3.64,.85-3.64,2.69v20.35Zm-23.15-16.05c-.09-.28-.19-.42-.28-.42s-.24,.14-.28,.38l-2.22,8.36c-.05,.24-.05,.43-.05,.47,0,.14,.14,.28,.33,.28h4.72c.19,0,.43-.19,.43-.38,0-.14-.05-.28-.09-.47l-2.55-8.21Zm2.31-6.52l7.13,22.47c.66,2.17,1.09,3.45,2.31,4.25,.9,.61,1.75,.47,1.75,1.04,0,.52-.28,.66-.99,.66-.8,0-2.08-.28-3.97-.28-2.64,0-4.25,.24-4.86,.24-.57,0-.8-.14-.8-.57s.38-.76,.94-.76c1.56,0,1.94-.28,1.94-1.13,0-.42-.14-1.13-.43-2.12l-1.84-6.04c-.09-.33-.33-.38-.71-.38h-5.85c-.19,0-.47,.19-.52,.43l-1.13,4.2c-.47,1.84-.71,3.07-.71,3.64,0,.94,.38,1.13,1.23,1.27,1.27,.19,1.89,.33,1.89,1.04,0,.42-.28,.57-.8,.57-.66,0-2.08-.28-4.11-.28-1.37,0-2.46,.24-3.12,.24-.57,0-.85-.24-.85-.61,0-.99,1.42-.38,2.36-1.09,.85-.61,1.18-1.79,1.7-3.49l7.51-24.36c.24-.71,.28-1.13,.8-1.13,.66,0,.71,.9,1.13,2.22Zm-43.71,15.35l9.62-19.73c.43-.89,.49-1.44-.23-1.79-.64-.31-1.29-.16-1.8-.4-.25-.12-.34-.48-.16-.86,.54-1.1,4.54-.15,10.94,2.98,8.06,3.93,10.34,12.08,6.34,20.27-4.04,8.27-11.33,11.18-19.78,7.06-2.21-1.08-3.82-2.39-5.31-3.11-1.32-.64-2.65-.92-3.71-1.44-.59-.29-.77-.69-.56-1.11,.39-.81,1.1-.1,2.01,.09,1.52,.32,1.73-.1,2.62-1.93Zm4.42,.63c-1.43,2.93-1.46,4.28,1.09,5.52,5.43,2.65,11.27-.39,15-8.02,3.5-7.17,2.5-14.07-2.72-16.61-2.93-1.43-3.64-.83-4.45,.83l-8.92,18.29Zm-2.43-29.4l-18.34,11.46c-1.68,1.05-2.06,1.34-1.73,2.58,.29,1.1,1.18,1.71,.3,2.26-.32,.2-.74,.07-1.09-.49-.3-.48-.84-1.87-2.14-3.95-1.3-2.08-2.32-3.17-2.62-3.65-.35-.56-.29-.99,.12-1.24,.76-.48,.98,.5,1.66,1.14,1.12,1.08,1.52,.83,3.24-.25l18.34-11.46c1.28-.8,1.55-1.08,1.29-2.03-.37-1.22-1.26-1.83-.46-2.33,.32-.2,.69-.15,.94,.25,.25,.4,.73,1.88,2.16,4.16,1.43,2.28,2.52,3.32,2.8,3.76,.23,.36,.14,.75-.19,.95-.72,.45-.93-.42-1.76-1.3-.83-.88-1.25-.67-2.53,.13Zm-9.91-23.32c4.77-.93,8.68,1.58,9.66,6.64,.5,2.6,.07,5.04-.41,5.56-.23,.29-1.92,.76-4.98,1.35-.65,.13-1.02-.04-1.09-.41-.13-.65,.75-.87,2.19-1.82,2.27-1.45,3.42-2.69,3-4.86-.53-2.73-2.72-4.09-5.64-3.52-2.46,.48-3.53,2.13-4.49,5.35-1.63,5.46-3.45,8.7-8.69,9.72-5.42,1.05-10.14-1.93-11.15-7.12-.79-4.08,.01-7.12,2.65-7.63,1.07-.21,2.06-.3,2.94-.48,.7-.13,1.1-.26,1.2-.28,.97-.19,1.49,0,1.57,.42,.16,.83-1.37,.89-3.03,1.74-2.92,1.53-4.34,4.16-3.88,6.53,.54,2.78,3.34,4.55,6.53,3.92,2.83-.55,4.66-2.73,5.97-6.64,1.4-4.17,2.22-7.4,7.64-8.46Zm-6.01-12.28c-.71,.99-1.75,1.42-2.97,1.94l-6.52,2.74c-2.55,1.09-3.97,1.61-4.2,2.22-.43,1.04-.38,1.98-1.09,1.98-.42,0-.47-.24-.47-.8,0-.8,.14-1.79,.14-2.88,0-.71-.14-1.37-.14-2.08,0-.94,.52-1.04,1.56-1.46l10.72-4.25c1.65-.66,2.12-1.18,2.12-2.64v-.47c0-.38-.28-.61-.66-.61h-9.3c-1.84,0-2.97,.05-2.97,2.08,0,.76-.24,1.04-.8,1.04-.38,0-.66-.38-.66-.94,0-.47,.28-1.84,.28-4.3s-.28-3.92-.28-4.49c0-.66,.28-.99,.76-.99,.9,0,.57,.94,.8,1.84,.38,1.51,.85,1.51,2.88,1.51h21.62c1.51,0,1.89-.09,2.17-1.04,.33-1.23-.09-2.22,.85-2.22,.61,0,.66,.43,.66,1.27,0,.38-.19,1.46-.19,3.12,0,2.36,.28,4.63,.28,6.75,0,5.05-2.93,7.74-7.32,7.74-3.78,0-6.56-1.94-7.27-5.05Zm1.7-6.33c-.99,0-1.09,.57-1.09,2.17,0,3.21,2.08,4.91,6,4.91s6.42-1.65,6.42-4.72c0-2.17-.8-2.36-2.36-2.36h-8.97Zm11.19-13.15h-4.06c-.8,0-1.18-.09-1.18-.52,0-.85,1.98-.61,3.54-2.31,1.18-1.27,1.79-3.16,1.79-5.76s-.66-2.64-2.88-2.64h-7.79c-.8,0-.94,0-.94,.85v2.12c0,1.94,.42,3.54,.85,3.97,1.23,1.27,2.88,.66,2.88,1.65,0,.42-.19,.57-.66,.57-1.18,0-2.79-.24-4.67-.24-2.22,0-3.59,.14-4.01,.14-.57,0-.85-.24-.85-.57,0-.8,1.46-.61,3.3-1.61,1.42-.76,1.56-1.98,1.56-3.97v-2.08c0-.66-.19-.85-.85-.85h-9.73c-2.6,0-3.02,.61-3.02,3.4,0,2.93,.38,4.49,2.69,5.95,1.75,1.13,3.26,1.51,3.26,2.27,0,.19-.28,.47-.43,.47,0,0-.33-.05-.85-.09l-4.58-.52c-1.46-.14-1.65-.09-1.65-1.46,0-1.94,.38-6,.38-12.04,0-2.79-.24-4.25-.24-4.63,0-.71,.24-1.04,.76-1.04,.85,0,.57,.85,.76,2.03,.19,1.37,1.09,1.42,2.93,1.42h21.62c1.42,0,1.89,0,2.17-.9,.33-1.04-.09-2.03,.85-2.03,.42,0,.66,.28,.66,.8,0,.38-.19,2.69-.19,7.03,0,5.52,.19,8.64,.19,9.25,0,1.27-.42,1.32-1.42,1.32h-.19Zm-2.4-24.01l-25.26-8.26c-.57-.19-.85-.38-.85-.61,0-.43,.99-.61,2.17-1.04l22.09-7.6c2.36-.8,3.82-1.23,4.3-2.17,.33-.66,.05-1.89,.76-1.89,.43,0,.71,.24,.71,.76,0,.28-.28,2.17-.28,5.9,0,1.46,.24,2.55,.24,3.07,0,.47-.14,.66-.57,.66-1.32,0-.14-2.41-2.03-2.41-.47,0-1.13,.14-1.98,.42l-15.15,5.24c-.71,.24-1.04,.38-1.04,.57s.38,.38,1.04,.57l13.79,4.06c1.46,.43,2.5,.61,3.07,.61,2.41,0,1.04-2.79,2.41-2.79,.38,0,.66,.33,.66,.9,0,.47-.28,1.56-.28,3.3,0,1.94,.19,3.02,.19,3.26,0,.61-.19,.9-.61,.9-.94,0-.47-1.13-.85-1.89-.38-.76-1.23-1.13-2.5-1.56Zm.33-26.92h-21.62c-1.98,0-2.46,.05-2.83,1.27-.33,1.09,.09,2.08-.94,2.08-.38,0-.66-.33-.66-.99,0-.57,.28-2.03,.28-4.49s-.28-3.92-.28-4.49c0-.66,.28-.99,.76-.99,.9,0,.57,.94,.8,1.84,.38,1.51,.85,1.51,2.88,1.51h21.62c1.51,0,1.89-.09,2.17-1.04,.33-1.23-.09-2.22,.85-2.22,.38,0,.66,.24,.66,.71s-.38,1.98-.38,4.67,.38,4.15,.38,4.67c0,.43-.28,.71-.66,.71-.85,0-.57-.85-.8-2.03-.24-1.18-.71-1.23-2.22-1.23Zm3.69-36.52v6.04c0,.42-.05,.52-.47,.8l-20.54,12.65c-.05,.19,.19,.28,.47,.28h12.94c1.32,0,2.12-.05,2.41-.05,3.4,0,3.82-.14,3.82-2.74,0-.47,.28-.85,.66-.85,.42,0,.71,.47,.71,1.23,0,.85-.14,1.89-.14,3.26s.14,2.27,.14,2.93-.28,1.04-.71,1.04c-.52,0-.61-.19-.61-.8v-.47c0-1.65-1.51-1.79-4.96-1.79h-23.56c-.61,0-1.18-.33-1.18-.71,0-.33,.28-.61,.76-.9l25.3-15.53c.05-.19-.19-.28-.47-.28h-18.37c-3.54,0-4.58,.19-4.58,2.08,0,.28,.05,.57,.05,.85,0,.38-.28,.66-.76,.66-.42,0-.71-.43-.71-1.23,0-.85,.19-1.94,.19-3.26,0-1.18-.19-2.17-.19-3.02,0-.76,.28-1.13,.71-1.13,.52,0,.76,.24,.76,.9v.43c0,1.94,1.32,2.08,5,2.08h19.64c1.42,0,1.89-.05,2.17-.94,.33-1.13-.05-2.17,.85-2.17,.42,0,.66,.24,.66,.66Zm-3.68-22.24h-16.48c-5.76,0-8.78,1.13-8.78,6.14,0,2.5,.9,4.39,2.5,5.52,1.7,1.13,3.97,1.18,7.22,1.18h11.42c3.59,0,5.43-.05,6.09-.85,.66-.85,0-2.55,1.04-2.55,.43,0,.66,.28,.66,.8,0,.57-.14,1.61-.14,3.21,0,1.7,.14,2.79,.14,3.26,0,.66-.19,.99-.66,.99-.57,0-.66-.42-.66-1.37,0-1.98-1.61-2.08-6.33-2.08h-11.61c-3.26,0-5.71-.05-7.84-1.27-2.27-1.32-3.54-3.97-3.54-7.6,0-4.01,1.04-6.7,3.4-8.31,1.84-1.27,4.11-1.37,6.99-1.37h16.57c1.56,0,1.89-.05,2.17-1.04,.38-1.23-.09-2.17,.85-2.17,.38,0,.66,.28,.66,.71,0,.47-.38,1.98-.38,4.67s.38,4.2,.38,4.67-.28,.71-.66,.71c-.99,0-.52-1.09-.85-2.22-.28-.94-.66-1.04-2.17-1.04Zm193.21,1.96c-2.43,8.68,4.62,.18,7.3,.13-1.2-2.37-5.93-.91-7.3-.13Zm90.05,39.07c2.17,2.37-6.42-14.57-11.41-15.81-14.1-3.5-16.65,12.31-16.31,23.75,.1,3.38-2.62,5.2-4.67,5.54-7.28,1.21-13.08,7.25,2.23,1.35,7.54,0,1.26-3.62,4.35-10.54,2.28-5.11,13.88-10.4,13.88-10.34,0,.05,7.92,1.68,11.92,6.05Zm-68.1-21.36c1.56,6.42-8.33,5.86-7.37,12.92,.91,6.66,13.95,10.04,11.83,16.41-.35,1.04-17.08-.28-11.26,4,6.24-2.6,13.52-.69,14.6,.45,.8-.48,1.61-.7,1.61-1.66,0-2.87-3.14-7.41-6.3-10.94-2.84-3.17,2.83-9.85,7.64-13.55,5.07-3.6-7.75-15.78-10.74-7.63Zm-20.76,5.36c-1.6,.82-1.18,8.07,6.82-1.28,1-1.16,2.01-1.43,3.52-1.76,3.13-.68,6.68-6.23,3.55-9.6-.23-.35-2.52-1.27-2.43-1.04,.04,.09-2.09-2.8-2.73-3.76l-.64,.16c3.99,3.07-.26,9.42-2.34,4.46-.31-.74-2.23,5.91-2.95,5.63l-4.79,4.47c4.09-.31,3.31,2.04,1.98,2.72Zm89.14,30.39c1.27-3.18,1.09-5.34,1.09-5.35,0,0-1.89,4.29-4.3,6.77-2.4,2.46-4,1.9-5.47,1.93-.8-1.02-1.56-2.01-4.04-1.56-2.72,.49-4.04,1.22-6.09,3.2,0,0,4.61-3.89,7.22-1.62,.43,.38,.53,.71,1.08,.97,.08,.17,.22,.41,.42,.74,3.81,.41,8.25-1.17,10.1-5.08Zm-87.65-25.89c-1.3,.61-2.8,.91-4.37,.91-5.22,0-9.45-3.63-9.45-8.12,0-.53,2.33-1.2,2.44-1.7l2.29-9.03s-.07-1.42,.06-2.46c.13-1.03,.55-1.62,.55-1.62-9.68-3.82-4.77-14.13-3.63-15.72,1.03-1.44-.15,6.73,3.34,7.94,2.03,.71,3.42,.65,4.35,.61,0,0,4.13-1.67,7.11-1.48,2.97,.19,6.51,2.95,6.8,2.56,9.29,.72,7.71-9.02,9.28-9.49,.87-.26,3.38,11.44-.35,12.96l14.27,7.05s14.19,1.61,29.59,6.76c4.64,1.55,11.93-.55,15.66,1.73,3.13,1.92,9.02,8.67,9.02,8.67,3.67,4.26,6.74,16.16,5.36,22.81-2.67,12.8-13,13.22-14.98,13.21-1.74,2.9-4.08,1.97-8.24,1.51-7.1-.22-12.35,0-20.24-.03-4.05,0-1.68-4.37-2.87-4.37h-45.03c-3.15,0-1.6-2.8-.8-5.66,.85-3.03,.08-4.74,2.98-5.94,2.09-.86,1.01-.71,1.98-2.89,.67-1.5,1.08-2.63-.52-5.72-1.6-3.09-2.74-3.9-3-5.58-.45-2.91,.22-8.04-1.55-6.94l-.06,.02Zm-13.03,57.29c-2.43,8.68,4.62,.18,7.3,.13-1.2-2.37-5.93-.91-7.3-.13Zm90.8,37.77c2.17,2.37-6.42-14.57-11.41-15.81-14.1-3.5-16.65,12.31-16.31,23.75,.1,3.38-2.62,5.2-4.67,5.54-7.28,1.21-13.08,7.25,2.23,1.35,7.54,0,1.26-3.62,4.35-10.54,2.28-5.11,13.88-10.4,13.88-10.34s7.92,1.68,11.93,6.05Zm-68.1-21.36c1.56,6.42-8.33,5.86-7.37,12.92,.91,6.66,13.95,10.04,11.83,16.41-.35,1.04-17.08-.28-11.26,4,6.24-2.6,13.52-.69,14.6,.45,.8-.48,1.61-.7,1.61-1.66,0-2.87-3.14-7.41-6.3-10.94-2.84-3.17,2.83-9.85,7.64-13.55,5.07-3.6-7.75-15.78-10.74-7.63Zm-21.18,6.32c-1.6,.83-1.18,8.07,6.82-1.28,1-1.16,2.01-1.43,3.52-1.76,3.13-.68,6.68-6.23,3.55-9.6-.23-.35-2.52-1.27-2.43-1.04,.04,.09-2.09-2.8-2.73-3.76l-.64,.16c3.99,3.07-.26,9.42-2.34,4.46-.31-.74-2.23,5.91-2.95,5.63l-4.79,4.47c4.09-.31,3.31,2.04,1.98,2.72Zm89.14,30.39c1.27-3.18,1.09-5.34,1.09-5.35,0,0-1.89,4.29-4.3,6.77-2.4,2.46-4,1.9-5.47,1.93-.8-1.02-1.56-2.01-4.04-1.56-2.72,.49-4.04,1.22-6.09,3.2,0,0,4.61-3.89,7.22-1.62,.43,.38,.53,.71,1.08,.97,.08,.17,.22,.41,.42,.74,3.81,.41,8.25-1.17,10.1-5.08Zm-87.65-25.89c-1.3,.61-2.8,.91-4.37,.91-5.22,0-9.45-3.63-9.45-8.12,0-.53,2.33-1.2,2.44-1.7l2.29-9.03s-.07-1.42,.06-2.46c.13-1.03,.55-1.62,.55-1.62-9.68-3.82-4.77-14.13-3.63-15.72,1.03-1.44-.15,6.73,3.34,7.94,2.03,.71,3.42,.65,4.35,.61,0,0,4.13-1.67,7.11-1.48,2.97,.19,6.51,2.94,6.8,2.56,9.29,.72,7.71-9.02,9.28-9.49,.87-.26,3.38,11.44-.35,12.96l14.27,7.05s14.19,1.61,29.59,6.76c4.64,1.55,11.93-.55,15.66,1.73,3.13,1.92,9.02,8.67,9.02,8.67,3.67,4.26,6.74,16.16,5.36,22.81-2.67,12.8-12.99,13.22-14.98,13.21-1.74,2.9-4.08,1.97-8.24,1.51-5.78-.16-12.35,0-20.24-.03-4.05,0-1.68-4.37-2.87-4.37h-45.03c-3.15,0-1.6-2.8-.8-5.66,.85-3.03,.08-4.74,2.98-5.94,2.09-.86,1.01-.71,1.98-2.89,.67-1.5,1.08-2.63-.52-5.72-1.6-3.09-2.74-3.9-3-5.58-.45-2.91,.22-8.04-1.55-6.94l-.06,.02Zm-100.91-229.04h9.44c.7,0,1.27,.57,1.27,1.27v9.44c0,.7-.57,1.27-1.27,1.27l-1.25-1.97h-7.32s0-7.22,0-7.22l-2.15-1.52c0-.7,.57-1.27,1.27-1.27Zm-21.91,12.58l-3.32-1.13h-1.87v-4.41l-1.47-3.14c0-.4,.22-.75,.49-.79l6.17-1.94c.27-.03,.49,.26,.49,.66v9.96c0,.4-.22,.75-.49,.79Zm235.33,223.82v-135.89h-138.38v177.52h96.75c22.99,0,41.62-18.64,41.62-41.62Zm0-141.3V175.8h-138.37v165.21c6.34-2.16,27.85-5.91,46.18-7.61,4.7-6.96,9.37-16.25,6.61-27.79-2.31,.02-1.68,1.67-4.07,1.67-2.39,0-.9,.5-3.29,.5-1.2,0-1.56,.03-1.92,0-.36-.04-.7-.14-1.87-.4-2.33-.53-.97-2.58-3.31-3.11-2.34-.53-.77-.36-2.74-1.73-1.96-1.37-2.24,.78-4.21-.59-.97-.68-1.28-.88-1.5-1.15-.23-.28-.37-.63-1.03-1.64-1.32-2-2.17-.24-3.49-2.24-1.32-2-1.85-1.64-2.32-3.99-.47-2.35-.25-4.67-.72-7.01-.47-2.35,.68-1.89,1.09-4.24,.41-2.36-.83-1.17-.43-3.53,.41-2.36,2.18-.58,3.34-2.67,1.16-2.09-1.31-1.75-.15-3.85,1.16-2.09,2.36,.55,4.14-1.06,1.77-1.61-1.11-2.53,.66-4.14,1.77-1.61,3.95-9.69,3.22-11.97-.73-2.28,.86-1.63,1.29-3.99,.43-2.35,2.1-.86,2.53-3.21,.43-2.36-1.79-1.74-.56-3.79,1.23-2.06,3.01,.52,4.24-1.53,1.23-2.06-.72-1.18,1.14-2.69,1.85-1.51,1.09-.37,2.94-1.88,1.85-1.51-.49-2.6,1.77-3.39,2.2-.76,.86-1.26,2.84-2-.74-2.5-.15-.61-.82-2.91-.67-2.3,2.3-1.11,1.63-3.4-.67-2.3-.36-.33-1.03-2.63-.67-2.3-1.61-1.06-1.14-3.41,.47-2.35,3.41-3.88,4.75-5.87,1.34-1.98,2.09-4.89-.75-5.46,1.34-1.98,.78-2.23,2.77-3.57,1.98-1.34,3.16,2.09,5.14,.75,1.98-1.34,.04-4.12,2.38-4.59,2.35-.47,2.2,2.87,4.55,2.4,2.35-.47,1.03-.22,3.38,.25,2.35,.47,1.41,1.02,3.76,1.49,2.35,.47,2.22-2.35,4.21-1.02,1.98,1.34,1.49,.39,3.47,1.73,1.98,1.34-.73,2.49,.61,4.47,1.34,1.98,.93,1.12,2.27,3.1,1.34,1.98,3.52,.02,4,2.37,.47,2.35-.92,1.8-.44,4.15,.47,2.35,1.38,1.15,.71,3.45-.67,2.3,.15,.48-.52,2.78-.67,2.3,.45,5.97,2.71,6.75,2.26,.78,.86,1.39,2.71,2.9,1.85,1.51,.98,.5,2.84,2.01,1.85,1.51-.77,1.83,.46,3.88,1.23,2.06,2.08,.04,3.3,2.09,1.23,2.06-1.49,1.38-1.06,3.73,.43,2.36,2.91,.71,3.34,3.07,.43,2.36,.63,1.23-.1,3.51-.73,2.28-1.45,.25-2.19,2.52-.73,2.28-.35,.6-1.08,2.88-.71,2.19,1.12,1.21,.61,3.16,.29-.16,.69-.2,1.25,.04,2.2,.95-.62,3.77,1.58,4.71,2.2,.95,1.93-1.6,3.7,0,1.77,1.61,1.07,.12,2.84,1.73,1.77,1.61,.21,1.26,1.37,3.35,1.16,2.09,1.17,.37,2.33,2.47,1.16,2.09,1.25,1.02,1.65,3.38,.4,2.36-1,1.2-.59,3.56,.41,2.36,2.26,1.68,1.81,4.03-.45,2.35-3.58,3.9-4.03,6.25-.45,2.35,1.08,1.62-.2,3.65-1.28,2.02-1.72,.42-3,2.44-1.28,2.02-.65,.34-2.57,1.77-1.92,1.43,.04,2.17-1.88,3.6-1.92,1.43-.98,.77-3.29,1.4-2.31,.63-1.71-1.09-4.02-.46-2.31,.63-.59,3.49-2.99,3.49-2.39,0-.9-1.43-3.29-1.42-2.39,0-.9,.86-3.29,.87-2.39,0-.9-.73-3.29-.72-2.39,0,.22-1.57-2.18-1.57-.5,0-1.21,.37-1.44,.55-2.36,11.07,1.56,20.36,6.01,27.25,22.14,1.24,35.39,3.94,51.05,8.09Zm-141.93-165.22h-135.86l-.03,165.6c5.68-2.15,22.09-5.19,22.09-5.19l6.4-61.02c-.63-.34-1.58-1.29-1.49-2.32,.09-1.07,1.97-1.93,1.97-1.93l4.32-40c0-.28,.37-.47,.37-.48,.92-.27,6.89-1.61,7.11-1.57,1.43,.19,2.32,.42,3.18,.56,.51,.1,.61,.25,.66,.54,0,.05,1.02,5.86,1.04,5.79,1.52-.22,2.91-.38,4.06-.54,.06-.33,.66-7.59,1.06-7.96,.18-.23,.52-.16,3.95-.44,.03-.78,.05-36.78,.03-37.74-1.25-.24-1.64-1.29-1.68-1.98-.03-.59,.52-2.08,2.06-2.08,.23,0,.87,.09,1.32,.5-.6-.41-2.08-.18-2.13,1.29-.01,.42,.5,1.44,1.45,1.44,.81,0,1.31-.62,1.4-1.07-.05,1.11-.9,1.69-1.39,1.84,.07,.64,1.75,37.35,1.76,37.57,1.74-.11,4.27-.33,4.65-.31,.48,.03,1.82,.61,2.38,.73,.29,1.65,.55,3.65,.86,5.19,.74-.12,5.77-.54,6.96-.56,.21-1.61,.47-4.1,.6-4.97,.07-.35,.35-.41,.58-.41,.54,0,10.14,.77,10.67,.84,.38,.03,.49,.24,.54,.67,.13,1.09,.28,3.19,.47,4.38,1.14,.14,6.23,.71,6.22,.71-.02,0,.34-2.77,.49-3.5,.31-.09,1.24-.45,1.98-.59,2.3,.5,4.87,1.12,6.62,1.54,.15,.06,2.41,.61,2.46,.87,0,0-1.59,3.11-.99,7.91l4.07,32.58s1.75,.59,1.87,1.86c.06,.62-.72,1.68-1.62,2.09l7.67,60.86s16.32,3.4,21.89,4.6V175.8Zm145.49,306.52c0,24.95-20.23,45.18-45.18,45.18h-194.6c-24.95,0-45.18-20.23-45.18-45.18l.05-310.07h284.9V482.32Zm-238.05-246.38l1.38,.1-.99-5.3-1.14-.26,.75,5.46Zm21.28-1.55l-.97-6.46-1.14-.31,.75,6.72,1.36,.04Zm-23.33-3.88c-2.24,1.03-2.89,1.76-3.74,3.05-1.22,1.83-1.64,11.56-1.72,13.51-.09,2.23,.05,1.42-.16,3.62-.21,2.19-.39,4.58-.59,6.78-.21,2.19,.51,.16,.3,2.35-.21,2.19-.53,.99-.74,3.19-.21,2.19,1.23,.74,1.03,2.93-.12,1.32,1.27,1.59,.83,2.91,0,1.12,1.9,.68,2.79,.81,7.92-.96,18.96-1.73,31.9-1.47,11.91,.05,26.88,1.54,31.85,2.57-.36-5.09-1.2-11.28-1.2-11.28l-3.99-1.73-.53-9.4c0-.7,.58-1.18,1.29-1.06l2.43,.69c-.16-4.5-1.26-15.15-1.53-16.11-1.44-.32-4.55-1.16-5.55-1.35-.08,.43-.65,4.62-.93,6.9-.04,.3-.22,.5-.66,.43-1.99-.35-5.54-.91-7.67-1.21-.35-.09-.73-.24-.79-.53-.14-1.18-.59-7.13-.67-7.18-.09-.05-5.51-.62-8.63-.87-.12,1.39-.66,4.99-.89,6.89-.05,.34-.64,.69-1.01,.69-2.91,.13-9.79,.21-10.75,.21-.44-6.27-5.79-7.61-7.17-7.53-.7,.04-1.55,.07-2.63,.15-.13,1.18-.69,6.64-.82,7.61-.03,.22-.21,.4-.47,.45-.25,.05-7.07,.39-8.46,.59-.15-.02-.51-3.87-1.11-6.62Zm27.76,103.62c-1.67-26.99,27.08-26.58,25.59,.59,0,0,13.08,1.68,13.56,1.54,1.06-.31,1.18-1.53,1.03-2.61-.09-.67-.94-11.74-.91-12.26,.09-1.47-5.11-47.64-5.11-47.64-5.89-1.76-22.8-2.28-33.32-2.39-.27,.05-.59,.07-.96,.08-6.87,.08-23.6,.89-31.99,2.17,0,0-1.81,1.16-1.98,3.98-.08,.95-1.61,2.5-1.79,4.7-.18,2.2,.74,2.88,.55,5.08-.18,2.2,.53-.12,.34,2.08-.18,2.2-.99,5.02,1.08,5.8,1.29,.48,2.29,2.33-.71,2.71-.52,.19-.92,.05-.94,.44-.11,2.2,1.1,2.5,1,4.7-.11,2.2-.86,.85-.96,3.05-.04,.82,.97,4.26-.2,4.71-.2,.38-.1,2.46-.11,2.87-.01,.67,2.58,3.74,2.21,4.62-.51,1.24,.88,2.49,1.6,2.22,1.07-.4,5.93,2.25-.31,2.99-.68,.29-1,.68-.77,1.26,.82,2.05,1.67-.05,3.2,1.53,1.54,1.58-.29,2.48,1.24,4.06,1.54,1.58,2.29-.3,4.37,.45,2.07,.75,1.51,2.87,3.58,3.61,.79,.28,20.61-.49,20.71-.34Zm167.85-69.91c-.56-.24-.97-.2-1.25-.04,.51-1.95-1.32-.97-.61-3.16,.73-2.28,.35-.6,1.08-2.88,.73-2.28,1.45-.25,2.19-2.52,.73-2.28,.53-1.15,.1-3.51-.43-2.36-2.91-.71-3.34-3.07-.43-2.36,2.29-1.68,1.06-3.73-1.23-2.06-2.08-.04-3.3-2.09-1.23-2.06,1.39-2.37-.46-3.88-1.85-1.51-.98-.5-2.84-2.01-1.85-1.51-.45-2.12-2.71-2.9-2.26-.78-3.38-4.45-2.71-6.75,.67-2.3-.15-.48,.52-2.78,.67-2.3-.24-1.1-.71-3.45-.47-2.35,.92-1.8,.44-4.15-.47-2.35-2.66-.38-4-2.37-1.34-1.98-.93-1.12-2.27-3.1-1.34-1.98,1.37-3.13-.61-4.47-1.98-1.34-2.52,4.15-4.51,2.81-1.98-1.34-4.41-1.02-4.44-.49-.16,2.39-3.73-2.18-3.9,.21-.16,2.39-1.01,.5-1.28,2.88-.27,2.38-2.35,.51-2.62,2.89-.27,2.38-2.71,3.08-2.98,5.46-.27,2.38-.24,2.45-.51,4.83-.27,2.38,1.83,.8,3.21,2.75,1.38,1.95-3.63,2.05-2.25,4,1.38,1.95,1.92,1.26,3.3,3.21,1.38,1.95-7.79,4.18-2.01,8.36,1.94,1.4-3.52,5.51-6.43-.32-1.29-2.57-6.75,3.86-3.21,7.07,1.77,1.61,2.57,2.57-5.46,5.14-2.28,.73,1.93,6.43-4.18,7.72,0,0-2.57,6.43,2.57,5.14,5.79-2.25,2.92,.51,4.13,2.57,1.21,2.06-.89,3.4,.32,5.46,1.21,2.06-5.07,1.79-3.86,3.86,1.21,2.06,4.51,4.34,2.89,6.11-5.95,6.51,3.93,4.37,5.14,6.43,1.21,2.06,6.79,2.57,3.9,7.39-1.23,2.05,9.01,.06,9.97,2.25,.96,2.19,5.79-3.16,6.75-.96,.96,2.19,7.08-4.28,8.04-2.09,.96,2.19,6.6-1.71,7.55,.48,.96,2.19,3.22-.1,4.18,2.09,.96,2.19,5.15-5.09,6.11-2.89,.96,2.19,4.34-.64,8.84-5.46,1.32-1.41,1.82-6.47,3.7-5.46,.45-2.35-1.9-4.19-2.3-6.55-.41-2.36,2.62-.02,2.22-2.38-.41-2.36-.49-1.29-1.65-3.38-1.16-2.09-1.17-.37-2.33-2.47-1.16-2.09,.4-1.74-1.37-3.35-1.77-1.61-1.07-.12-2.84-1.73-1.77-1.61-1.5,.94-3.7,0-2.2-.95,.62-3.77-1.58-4.71Zm-37.32,68.69l23.23,.08c-1.36-4.74-6.6-11.85-5.61-22.13-1.07-1.07-.84,.57-1.7,.92-.46-.23-1.9-.97-2.19-.97-.27,0-.58,1.48-1.17,1.22-.67-.3-1.15-1.83-1.17-1.91,0-.03-1.23-.05-2.45,.09-.15,3.49-2.56,.5-2.4,1.24-2.16,.21-2.5-.65-2.67-.64-.35,.01-1.21,15.75-3.86,22.1Zm142.4,185.1c-.02,33.34-38.09,65.45-72.32,65.46h-110.19c-.58-.04-16.44-.85-19.67,11.25l-2.7,10.11-2.79-10.08c-3.38-12.19-17.99-11.31-18.4-11.28h-106.9c-34.34,.03-73.91-32.2-73.46-65.52V113.35s406.42,0,406.42,0v404.65Zm-5.69,0V119.04H313.98v398.96c-.39,29.34,35.73,59.8,67.77,59.78h106.71c7.87-.46,16.81,2.67,21.35,9.41,4.8-6.95,14.47-9.86,22.59-9.41h110c31.76,0,66.61-30.21,66.63-59.78Z" style="fill-rule: evenodd;"/>
        </g>
      </g>
    </g>
  </g>
</svg>