<?xml version="1.0" encoding="UTF-8"?>
<svg id="Layer_2" data-name="Layer 2" xmlns="http://www.w3.org/2000/svg" viewBox="0 0 1023 855.71">
  <g id="Isotipos-FCI">
    <g id="Isotipo-FCI-Outline2-Negro">
      <rect width="1023" height="855.71" style="fill: none;"/>
      <path d="M230.35,85.59L102.3,304.94l253.97,.33L484.33,85.93l-253.99-.35Zm115.2,194.37l-202.23-.26L245.28,105.03l202.24,.28-101.97,174.65Z"/>
      <path d="M666.73,306.36l-127.3,219.8,253.99-.58,127.28-219.79-253.97,.56Zm115.42,196.4l-202.34,.46,101.41-175.1,202.33-.45-101.4,175.09Z"/>
      <path d="M406.47,268.86l-21.12,36.49,23.16,40.62,102.71,179.81,94.27-162.59,33-57.03-36.17-63.43-89.69-157.01-106.17,183.14Zm105.33,210.64l-100.37-175.7,101.35-175.11,100.36,175.69-101.34,175.13Z"/>
      <path d="M726.82,550.63l-188.12,.26,93.69,160.99,34.01,58.25h68.89s184.84-.24,184.84-.24l-99.92-171.69-27.77-47.57h-65.61Zm-49.64,194.28l-101.97-174.65,202.24-.27,101.96,174.66-202.23,.26Z"/>
    </g>
  </g>
</svg>