<?xml version="1.0" encoding="UTF-8"?>
<svg id="Layer_2" data-name="Layer 2" xmlns="http://www.w3.org/2000/svg" xmlns:xlink="http://www.w3.org/1999/xlink" viewBox="0 0 2047 1945.35">
  <defs>
    <filter id="drop-shadow-1" filterUnits="userSpaceOnUse">
      <feOffset dx="1.07" dy="1.07"/>
      <feGaussianBlur result="blur" stdDeviation=".76"/>
      <feFlood flood-color="#000" flood-opacity=".75"/>
      <feComposite in2="blur" operator="in"/>
      <feComposite in="SourceGraphic"/>
    </filter>
    <filter id="drop-shadow-2" filterUnits="userSpaceOnUse">
      <feOffset dx="4.36" dy="4.36"/>
      <feGaussianBlur result="blur-2" stdDeviation="3.12"/>
      <feFlood flood-color="#000" flood-opacity=".75"/>
      <feComposite in2="blur-2" operator="in"/>
      <feComposite in="SourceGraphic"/>
    </filter>
    <filter id="drop-shadow-3" filterUnits="userSpaceOnUse">
      <feOffset dx="4.36" dy="4.36"/>
      <feGaussianBlur result="blur-3" stdDeviation="3.12"/>
      <feFlood flood-color="#000" flood-opacity=".75"/>
      <feComposite in2="blur-3" operator="in"/>
      <feComposite in="SourceGraphic"/>
    </filter>
    <filter id="drop-shadow-4" filterUnits="userSpaceOnUse">
      <feOffset dx="4.36" dy="4.36"/>
      <feGaussianBlur result="blur-4" stdDeviation="3.12"/>
      <feFlood flood-color="#000" flood-opacity=".75"/>
      <feComposite in2="blur-4" operator="in"/>
      <feComposite in="SourceGraphic"/>
    </filter>
    <filter id="drop-shadow-5" filterUnits="userSpaceOnUse">
      <feOffset dx="4.36" dy="4.36"/>
      <feGaussianBlur result="blur-5" stdDeviation="3.12"/>
      <feFlood flood-color="#000" flood-opacity=".75"/>
      <feComposite in2="blur-5" operator="in"/>
      <feComposite in="SourceGraphic"/>
    </filter>
    <filter id="drop-shadow-6" filterUnits="userSpaceOnUse">
      <feOffset dx="4.36" dy="4.36"/>
      <feGaussianBlur result="blur-6" stdDeviation="3.12"/>
      <feFlood flood-color="#000" flood-opacity=".75"/>
      <feComposite in2="blur-6" operator="in"/>
      <feComposite in="SourceGraphic"/>
    </filter>
    <filter id="drop-shadow-7" filterUnits="userSpaceOnUse">
      <feOffset dx="4.36" dy="4.36"/>
      <feGaussianBlur result="blur-7" stdDeviation="3.12"/>
      <feFlood flood-color="#000" flood-opacity=".75"/>
      <feComposite in2="blur-7" operator="in"/>
      <feComposite in="SourceGraphic"/>
    </filter>
    <filter id="drop-shadow-8" filterUnits="userSpaceOnUse">
      <feOffset dx="4.36" dy="4.36"/>
      <feGaussianBlur result="blur-8" stdDeviation="3.12"/>
      <feFlood flood-color="#000" flood-opacity=".75"/>
      <feComposite in2="blur-8" operator="in"/>
      <feComposite in="SourceGraphic"/>
    </filter>
    <filter id="drop-shadow-9" filterUnits="userSpaceOnUse">
      <feOffset dx="4.36" dy="4.36"/>
      <feGaussianBlur result="blur-9" stdDeviation="3.12"/>
      <feFlood flood-color="#000" flood-opacity=".75"/>
      <feComposite in2="blur-9" operator="in"/>
      <feComposite in="SourceGraphic"/>
    </filter>
    <filter id="drop-shadow-10" filterUnits="userSpaceOnUse">
      <feOffset dx="4.36" dy="4.36"/>
      <feGaussianBlur result="blur-10" stdDeviation="3.12"/>
      <feFlood flood-color="#000" flood-opacity=".75"/>
      <feComposite in2="blur-10" operator="in"/>
      <feComposite in="SourceGraphic"/>
    </filter>
    <filter id="drop-shadow-11" filterUnits="userSpaceOnUse">
      <feOffset dx="4.36" dy="4.36"/>
      <feGaussianBlur result="blur-11" stdDeviation="3.12"/>
      <feFlood flood-color="#000" flood-opacity=".75"/>
      <feComposite in2="blur-11" operator="in"/>
      <feComposite in="SourceGraphic"/>
    </filter>
  </defs>
  <g id="Logos-IngCivilObrasCiviles">
    <g id="Logo-IngCivilObrasCiviles-Oficial-Color">
      <rect width="2047" height="1945.35" style="fill: none; filter: url(#drop-shadow-1);"/>
      <g>
        <g>
          <path d="M1612.16,550.12c-11.71-4.39-22.4-10.96-32.1-18.84-19.56-2.55-39.54-4.73-59.92-6.47v18.5c31.39,1.2,62.16,3.47,92.01,6.81Z" style="fill: #999; filter: url(#drop-shadow-2);"/>
          <path d="M1201.62,555.25c12.43-1.23,24.79-11.84,36.31-27.08-16.31,1.81-32.36,3.87-48.08,6.22,4.14,6.83,8.08,13.78,11.77,20.87Z" style="fill: #999; filter: url(#drop-shadow-3);"/>
          <path d="M1395.12,544.21c-18.22-2.33-33.61-11.45-46.47-23.87-14.3,.46-28.46,1.11-42.46,1.97v29.79c28.63-3.63,58.38-6.28,88.93-7.89Z" style="fill: #999; filter: url(#drop-shadow-4);"/>
          <path d="M1206.06,564.1c.85,1.75,1.7,3.49,2.52,5.25,25.56-5.99,52.75-11,81.15-15.04v-30.91c-13.26,.97-26.35,2.12-39.29,3.43-13.2,19.12-28.25,33.91-44.38,37.26Z" style="fill: #999; filter: url(#drop-shadow-5);"/>
          <path d="M1623.18,543.83c1.2-.94,2.69-1.52,4.33-1.52v-3.97c-8.89-1.51-17.9-2.93-27-4.27,7.12,4.22,14.66,7.59,22.67,9.77Z" style="fill: #999; filter: url(#drop-shadow-6);"/>
          <path d="M1467.63,542.3c12.09,0,24.11,.16,36.05,.48v-19.23c-14.1-1.04-28.34-1.91-42.77-2.54-11.52,10.6-24.99,18.75-40.61,22.12,15.62-.53,31.4-.82,47.33-.82Z" style="fill: #999; filter: url(#drop-shadow-7);"/>
          <path d="M1033.46,687.29c0-25.7,22.15-49.76,60.69-70.36-8.94-19.84-20.31-38.48-33.77-55.6-159.06,43.75-263.59,117.68-263.59,201.52,0,134.36,268.42,243.28,599.53,243.28,81.95,0,160.04-6.68,231.19-18.76v-171.81c-49.48,6.23-103.42,9.65-159.87,9.65-239.79,0-434.17-61.75-434.17-137.93Z" style="fill: #999; filter: url(#drop-shadow-8);"/>
          <path d="M1404.35,535.44c16.13,0,30.2-5.85,42.32-14.95-16.62-.56-33.38-.92-50.36-.92-11.29,0-22.49,.14-33.63,.39,11.9,9.42,25.73,15.48,41.66,15.48Z" style="fill: #999; filter: url(#drop-shadow-9);"/>
        </g>
        <path d="M995.86,943.89c-16.44,11.09-34.15,20.64-52.92,28.36v119.93c74.51-19.99,140.39-58.79,191.29-110.48-50.5-9.98-97.03-22.75-138.37-37.82Z" style="fill: #0a71b4;"/>
        <g>
          <path d="M535.03,722.7c0-64.2,23.77-123.17,63.43-169.74v-152.07c-112.58,68.88-186.86,187.13-186.86,321.47,0,212.63,186.05,384.99,415.56,384.99,24.66,0,48.82-2,72.3-5.82v-115.11c-23.47,5.72-48.09,8.77-73.47,8.77-160.69,0-290.95-122-290.95-272.48Z" style="fill: #999; filter: url(#drop-shadow-10);"/>
          <path d="M827.16,337.36c-24.81,0-49.12,2.02-72.74,5.89v115.3c22.9-5.42,46.86-8.33,71.56-8.33s50,3.05,73.47,8.77v-115.8c-23.48-3.82-47.64-5.82-72.3-5.82Z" style="fill: #999; filter: url(#drop-shadow-11);"/>
        </g>
        <path d="M1627.51,542.3h0c-1.64,0-3.13,.58-4.33,1.52-58.14-15.77-92.84-93.25-103.04-119.37v-17.15h-16.46v22.67c-10.68,31.42-41.92,105.46-99.33,105.46s-88.35-80.21-98.16-112.46v-15.67h-16.46v13.77c-15.19,45.1-51.4,130.55-88.12,134.18-50.79-97.5-144.63-172.13-258.67-202.73v120.62c102.44,42.18,173.98,138.03,173.98,249.55,0,15.06-1.35,29.81-3.85,44.2,32.32,14.5,73.24,26.93,120.39,36.54,6.05-26.14,9.25-53.27,9.25-81.09,0-49.34-10.02-96.52-28.28-139.87,23.8-5.49,49.01-10.14,75.3-13.93v33.89h16.46v-36.13c50.79-6.52,105.29-9.91,161.44-9.91,12.1,0,24.11,.18,36.05,.5v45.55h16.46v-45c36.51,1.4,72.18,4.24,106.48,8.56l7.93,1v-17.65c0-3.9-3.15-7.05-7.05-7.05Zm-337.78,12.01c-28.4,4.04-55.59,9.05-81.15,15.04-.82-1.76-1.67-3.51-2.52-5.25,36.31-7.54,67.19-73,83.67-115.56v105.78Zm16.46-2.21v-100.19c14.61,36.81,42.66,86.38,88.93,92.3-30.55,1.62-60.31,4.27-88.93,7.89Zm161.44-9.8c-15.92,0-31.7,.29-47.33,.82,42.36-9.12,69-53.34,83.38-86.58v86.23c-11.94-.31-23.96-.48-36.05-.48Zm52.51,1.02v-94.69c15.46,33.18,45.84,84.21,92.02,101.5-29.86-3.33-60.63-5.6-92.02-6.81Z" style="fill: #0a71b4;"/>
        <g>
          <path d="M338.02,1475.66h-17.92v-132.33h17.92v132.33Z"/>
          <path d="M382.07,1395.69c2.03-2.28,4.19-4.34,6.46-6.19,2.28-1.85,4.69-3.43,7.25-4.76,2.55-1.32,5.26-2.34,8.13-3.05,2.86-.71,5.96-1.06,9.28-1.06,5.11,0,9.62,.85,13.53,2.54,3.91,1.69,7.17,4.1,9.79,7.2,2.62,3.11,4.6,6.85,5.96,11.22,1.35,4.37,2.03,9.2,2.03,14.5v59.56h-16.53v-59.56c0-7.08-1.62-12.57-4.85-16.48-3.23-3.91-8.14-5.86-14.73-5.86-4.86,0-9.4,1.17-13.62,3.51-4.22,2.34-8.11,5.51-11.68,9.51v68.89h-16.53v-93.55h9.88c2.34,0,3.79,1.14,4.34,3.42l1.29,10.16Z"/>
          <path d="M548.57,1385.81v6.09c0,2.03-1.29,3.32-3.88,3.88l-10.62,1.39c2.09,4.06,3.14,8.56,3.14,13.48,0,4.56-.88,8.7-2.63,12.42-1.75,3.73-4.17,6.91-7.25,9.56-3.08,2.65-6.77,4.68-11.08,6.09-4.31,1.42-8.99,2.12-14.04,2.12-4.37,0-8.5-.52-12.37-1.57-1.97,1.23-3.48,2.54-4.52,3.92-1.05,1.39-1.57,2.79-1.57,4.2,0,2.22,.91,3.89,2.72,5.03,1.82,1.14,4.2,1.96,7.16,2.45,2.96,.49,6.33,.8,10.11,.92,3.79,.12,7.66,.32,11.64,.6,3.97,.28,7.85,.75,11.64,1.43,3.79,.68,7.16,1.79,10.11,3.32,2.96,1.54,5.34,3.66,7.16,6.37,1.82,2.71,2.72,6.22,2.72,10.53,0,4-1,7.88-3,11.64-2,3.75-4.88,7.09-8.63,10.02-3.76,2.92-8.36,5.26-13.81,7.02-5.45,1.75-11.59,2.63-18.42,2.63s-12.81-.68-17.91-2.03c-5.11-1.35-9.36-3.17-12.74-5.45-3.39-2.28-5.93-4.91-7.62-7.9-1.69-2.99-2.54-6.11-2.54-9.37,0-4.62,1.45-8.53,4.34-11.73,2.89-3.2,6.86-5.76,11.91-7.66-2.77-1.23-4.97-2.88-6.6-4.94-1.63-2.06-2.45-4.85-2.45-8.36,0-1.35,.25-2.75,.74-4.2,.49-1.45,1.25-2.89,2.26-4.34,1.02-1.45,2.26-2.82,3.74-4.11s3.2-2.43,5.17-3.42c-4.62-2.59-8.22-6.02-10.8-10.3-2.59-4.28-3.88-9.25-3.88-14.91,0-4.56,.88-8.7,2.63-12.42,1.75-3.72,4.2-6.89,7.34-9.51,3.14-2.62,6.88-4.63,11.22-6.05,4.34-1.42,9.1-2.12,14.27-2.12,4.06,0,7.85,.45,11.36,1.34,3.51,.89,6.71,2.2,9.6,3.92h25.39Zm-16.71,94.93c0-2.28-.65-4.13-1.94-5.54-1.29-1.42-3.03-2.52-5.22-3.32-2.19-.8-4.73-1.37-7.62-1.71-2.89-.34-5.96-.6-9.19-.79-3.23-.18-6.51-.37-9.83-.55-3.32-.18-6.53-.49-9.6-.92-3.45,1.6-6.27,3.62-8.45,6.05-2.19,2.43-3.28,5.28-3.28,8.54,0,2.09,.54,4.05,1.62,5.86,1.08,1.82,2.72,3.39,4.94,4.71,2.22,1.32,5,2.37,8.36,3.14,3.35,.77,7.31,1.15,11.87,1.15s8.4-.4,11.91-1.2c3.51-.8,6.48-1.94,8.91-3.42,2.43-1.48,4.29-3.23,5.59-5.26,1.29-2.03,1.94-4.28,1.94-6.74Zm-29.64-50.79c3.32,0,6.25-.46,8.77-1.39,2.52-.92,4.65-2.22,6.37-3.88,1.72-1.66,3.02-3.65,3.88-5.96,.86-2.31,1.29-4.85,1.29-7.62,0-5.73-1.74-10.28-5.22-13.67-3.48-3.39-8.51-5.08-15.1-5.08s-11.71,1.69-15.19,5.08c-3.48,3.39-5.22,7.94-5.22,13.67,0,2.77,.45,5.31,1.34,7.62,.89,2.31,2.2,4.29,3.92,5.96,1.72,1.66,3.85,2.95,6.37,3.88,2.52,.92,5.45,1.39,8.77,1.39Z"/>
          <path d="M640.09,1462.55c-2.03,2.46-4.46,4.6-7.3,6.42-2.83,1.82-5.86,3.31-9.1,4.48-3.23,1.17-6.57,2.05-10.02,2.63-3.45,.58-6.87,.88-10.25,.88-6.46,0-12.42-1.09-17.87-3.28s-10.16-5.39-14.13-9.6c-3.97-4.22-7.06-9.43-9.28-15.65-2.22-6.22-3.32-13.36-3.32-21.42,0-6.52,1-12.62,3-18.28,2-5.66,4.88-10.57,8.63-14.73,3.75-4.16,8.34-7.42,13.76-9.79,5.42-2.37,11.51-3.56,18.28-3.56,5.6,0,10.79,.94,15.56,2.82,4.77,1.88,8.9,4.59,12.37,8.13,3.48,3.54,6.2,7.91,8.17,13.11,1.97,5.2,2.96,11.13,2.96,17.78,0,2.59-.28,4.31-.83,5.17-.55,.86-1.6,1.29-3.14,1.29h-62.52c.18,5.91,1,11.05,2.45,15.42,1.45,4.37,3.46,8.02,6.05,10.94,2.59,2.92,5.66,5.11,9.23,6.56,3.57,1.45,7.57,2.17,12,2.17,4.12,0,7.68-.48,10.67-1.43,2.99-.95,5.56-1.99,7.71-3.09,2.15-1.11,3.95-2.14,5.4-3.09,1.45-.95,2.69-1.43,3.74-1.43,1.35,0,2.4,.52,3.14,1.57l4.62,6Zm-13.3-43.86c0-3.82-.54-7.31-1.62-10.48-1.08-3.17-2.65-5.91-4.71-8.22-2.06-2.31-4.57-4.09-7.53-5.36-2.96-1.26-6.31-1.89-10.07-1.89-7.88,0-14.11,2.29-18.7,6.88-4.59,4.59-7.43,10.94-8.54,19.07h51.16Z"/>
          <path d="M677.21,1395.69c2.03-2.28,4.19-4.34,6.46-6.19,2.28-1.85,4.69-3.43,7.25-4.76,2.55-1.32,5.26-2.34,8.13-3.05,2.86-.71,5.96-1.06,9.28-1.06,5.11,0,9.62,.85,13.53,2.54,3.91,1.69,7.17,4.1,9.79,7.2,2.62,3.11,4.6,6.85,5.96,11.22,1.35,4.37,2.03,9.2,2.03,14.5v59.56h-16.53v-59.56c0-7.08-1.62-12.57-4.85-16.48-3.23-3.91-8.14-5.86-14.73-5.86-4.86,0-9.4,1.17-13.62,3.51-4.22,2.34-8.11,5.51-11.68,9.51v68.89h-16.53v-93.55h9.88c2.34,0,3.79,1.14,4.34,3.42l1.29,10.16Z"/>
          <path d="M785.62,1352.75c0,1.6-.32,3.09-.97,4.48-.65,1.39-1.51,2.62-2.59,3.69-1.08,1.08-2.34,1.92-3.79,2.54-1.45,.62-2.97,.92-4.57,.92s-3.09-.31-4.48-.92c-1.39-.61-2.6-1.46-3.65-2.54-1.05-1.08-1.88-2.31-2.49-3.69-.62-1.39-.92-2.88-.92-4.48s.31-3.12,.92-4.57c.61-1.45,1.45-2.71,2.49-3.79,1.05-1.08,2.26-1.92,3.65-2.54,1.39-.61,2.88-.92,4.48-.92s3.12,.31,4.57,.92c1.45,.62,2.71,1.46,3.79,2.54,1.08,1.08,1.94,2.34,2.59,3.79,.65,1.45,.97,2.97,.97,4.57Zm-3.51,29.37v93.55h-16.44v-93.55h16.44Z"/>
          <path d="M884.98,1462.55c-2.03,2.46-4.46,4.6-7.3,6.42-2.83,1.82-5.86,3.31-9.1,4.48-3.23,1.17-6.57,2.05-10.02,2.63-3.45,.58-6.87,.88-10.25,.88-6.46,0-12.42-1.09-17.87-3.28s-10.16-5.39-14.13-9.6c-3.97-4.22-7.06-9.43-9.28-15.65-2.22-6.22-3.32-13.36-3.32-21.42,0-6.52,1-12.62,3-18.28,2-5.66,4.88-10.57,8.63-14.73,3.75-4.16,8.34-7.42,13.76-9.79,5.42-2.37,11.51-3.56,18.28-3.56,5.6,0,10.79,.94,15.56,2.82,4.77,1.88,8.9,4.59,12.37,8.13,3.48,3.54,6.2,7.91,8.17,13.11,1.97,5.2,2.95,11.13,2.95,17.78,0,2.59-.28,4.31-.83,5.17-.55,.86-1.6,1.29-3.14,1.29h-62.52c.18,5.91,1,11.05,2.45,15.42,1.45,4.37,3.46,8.02,6.05,10.94,2.59,2.92,5.66,5.11,9.23,6.56,3.57,1.45,7.57,2.17,12,2.17,4.12,0,7.68-.48,10.67-1.43,2.99-.95,5.56-1.99,7.71-3.09,2.15-1.11,3.95-2.14,5.4-3.09,1.45-.95,2.69-1.43,3.74-1.43,1.35,0,2.4,.52,3.14,1.57l4.62,6Zm-13.3-43.86c0-3.82-.54-7.31-1.62-10.48-1.08-3.17-2.65-5.91-4.71-8.22-2.06-2.31-4.57-4.09-7.53-5.36-2.96-1.26-6.31-1.89-10.07-1.89-7.88,0-14.11,2.29-18.7,6.88-4.59,4.59-7.43,10.94-8.54,19.07h51.16Z"/>
          <path d="M922.2,1400.86c2.96-6.4,6.59-11.4,10.9-15.01,4.31-3.6,9.57-5.4,15.79-5.4,1.97,0,3.86,.22,5.68,.65,1.82,.43,3.43,1.11,4.85,2.03l-1.2,12.28c-.37,1.54-1.29,2.31-2.77,2.31-.86,0-2.12-.18-3.79-.55-1.66-.37-3.54-.55-5.63-.55-2.96,0-5.59,.43-7.9,1.29-2.31,.86-4.37,2.14-6.19,3.83-1.82,1.69-3.45,3.79-4.89,6.28-1.45,2.49-2.76,5.34-3.92,8.54v59.1h-16.53v-93.55h9.42c1.78,0,3.02,.34,3.69,1.02,.68,.68,1.14,1.85,1.39,3.51l1.11,14.22Z"/>
          <path d="M1010.3,1341.85l-21.52,23.83c-.86,.92-1.71,1.59-2.54,1.99-.83,.4-1.89,.6-3.19,.6h-9.79l13.67-22.35c.86-1.42,1.8-2.45,2.82-3.09s2.51-.97,4.48-.97h16.07Zm-19.02,40.26v93.55h-16.53v-93.55h16.53Z"/>
          <path d="M1015.74,1395.32c5.17-4.99,10.74-8.71,16.71-11.17,5.97-2.46,12.59-3.69,19.85-3.69,5.23,0,9.88,.86,13.94,2.59,4.06,1.72,7.48,4.13,10.25,7.2,2.77,3.08,4.86,6.8,6.28,11.17,1.42,4.37,2.12,9.17,2.12,14.41v59.84h-7.3c-1.6,0-2.83-.26-3.69-.79-.86-.52-1.54-1.55-2.03-3.09l-1.85-8.87c-2.46,2.28-4.86,4.29-7.2,6.05-2.34,1.75-4.8,3.23-7.39,4.43-2.59,1.2-5.34,2.12-8.26,2.77-2.92,.65-6.17,.97-9.74,.97s-7.05-.51-10.25-1.52c-3.2-1.02-5.99-2.54-8.36-4.57-2.37-2.03-4.25-4.6-5.63-7.71-1.39-3.11-2.08-6.79-2.08-11.04,0-3.69,1.02-7.25,3.05-10.67s5.32-6.45,9.88-9.1c4.56-2.65,10.5-4.82,17.82-6.51,7.33-1.69,16.31-2.66,26.96-2.91v-7.3c0-7.26-1.57-12.76-4.71-16.48-3.14-3.72-7.73-5.59-13.76-5.59-4.06,0-7.47,.51-10.2,1.52-2.74,1.02-5.11,2.16-7.11,3.42-2,1.26-3.73,2.4-5.17,3.42-1.45,1.02-2.88,1.52-4.29,1.52-1.11,0-2.06-.29-2.86-.88-.8-.58-1.48-1.31-2.03-2.17l-2.95-5.26Zm53.1,38.23c-7.57,.25-14.02,.85-19.35,1.8-5.33,.96-9.67,2.2-13.02,3.74-3.36,1.54-5.79,3.36-7.3,5.45-1.51,2.09-2.26,4.43-2.26,7.02s.4,4.59,1.2,6.37c.8,1.79,1.89,3.25,3.28,4.39,1.39,1.14,3.02,1.97,4.89,2.49,1.88,.52,3.89,.79,6.05,.79,2.89,0,5.54-.29,7.94-.88,2.4-.58,4.66-1.43,6.79-2.54,2.12-1.11,4.16-2.43,6.09-3.97,1.94-1.54,3.83-3.29,5.68-5.26v-19.39Z"/>
          <path d="M1253.99,1448.33c.98,0,1.85,.4,2.59,1.2l7.11,7.66c-5.42,6.28-11.99,11.17-19.72,14.68-7.73,3.51-17.07,5.26-28.03,5.26-9.48,0-18.1-1.65-25.86-4.94-7.76-3.29-14.38-7.91-19.85-13.85-5.48-5.94-9.73-13.07-12.74-21.38-3.02-8.31-4.52-17.45-4.52-27.43s1.57-19.12,4.71-27.43c3.14-8.31,7.56-15.45,13.25-21.42,5.69-5.97,12.51-10.6,20.45-13.9,7.94-3.29,16.71-4.94,26.32-4.94s17.73,1.51,24.93,4.52c7.2,3.02,13.54,7.11,19.02,12.28l-5.91,8.22c-.37,.62-.85,1.12-1.43,1.52-.59,.4-1.37,.6-2.35,.6-1.11,0-2.46-.6-4.06-1.8-1.6-1.2-3.69-2.54-6.28-4.02-2.59-1.48-5.82-2.82-9.7-4.02-3.88-1.2-8.65-1.8-14.31-1.8-6.83,0-13.08,1.19-18.75,3.56-5.66,2.37-10.54,5.8-14.64,10.3-4.09,4.49-7.28,9.97-9.56,16.44-2.28,6.46-3.42,13.76-3.42,21.89s1.18,15.61,3.56,22.07c2.37,6.46,5.6,11.93,9.7,16.39,4.09,4.46,8.93,7.87,14.5,10.2,5.57,2.34,11.59,3.51,18.05,3.51,3.94,0,7.49-.23,10.67-.69,3.17-.46,6.09-1.18,8.77-2.17,2.68-.98,5.17-2.23,7.48-3.74,2.31-1.51,4.6-3.31,6.88-5.4,1.05-.92,2.09-1.39,3.14-1.39Z"/>
          <path d="M1301.46,1352.75c0,1.6-.32,3.09-.97,4.48s-1.51,2.62-2.59,3.69c-1.08,1.08-2.34,1.92-3.79,2.54-1.45,.62-2.97,.92-4.57,.92s-3.09-.31-4.48-.92c-1.39-.61-2.6-1.46-3.65-2.54-1.05-1.08-1.88-2.31-2.49-3.69-.62-1.39-.92-2.88-.92-4.48s.31-3.12,.92-4.57c.61-1.45,1.45-2.71,2.49-3.79,1.05-1.08,2.26-1.92,3.65-2.54,1.39-.61,2.88-.92,4.48-.92s3.12,.31,4.57,.92c1.45,.62,2.71,1.46,3.79,2.54,1.08,1.08,1.94,2.34,2.59,3.79,.65,1.45,.97,2.97,.97,4.57Zm-3.51,29.37v93.55h-16.44v-93.55h16.44Z"/>
          <path d="M1405.07,1382.11l-38.14,93.55h-14.78l-38.14-93.55h13.39c1.35,0,2.46,.34,3.32,1.02,.86,.68,1.45,1.48,1.75,2.4l23.73,60.21c.74,2.28,1.39,4.49,1.94,6.65,.55,2.16,1.08,4.31,1.57,6.46,.49-2.15,1.02-4.31,1.57-6.46,.55-2.15,1.23-4.37,2.03-6.65l24.01-60.21c.37-.98,.98-1.8,1.85-2.45,.86-.65,1.88-.97,3.05-.97h12.84Z"/>
          <path d="M1441.08,1352.75c0,1.6-.32,3.09-.97,4.48s-1.51,2.62-2.59,3.69c-1.08,1.08-2.34,1.92-3.79,2.54-1.45,.62-2.97,.92-4.57,.92s-3.09-.31-4.48-.92c-1.39-.61-2.6-1.46-3.65-2.54-1.05-1.08-1.88-2.31-2.49-3.69-.62-1.39-.92-2.88-.92-4.48s.31-3.12,.92-4.57c.61-1.45,1.45-2.71,2.49-3.79,1.05-1.08,2.26-1.92,3.65-2.54,1.39-.61,2.88-.92,4.48-.92s3.12,.31,4.57,.92c1.45,.62,2.71,1.46,3.79,2.54,1.08,1.08,1.94,2.34,2.59,3.79,.65,1.45,.97,2.97,.97,4.57Zm-3.51,29.37v93.55h-16.44v-93.55h16.44Z"/>
          <path d="M1481.52,1339.64v136.02h-16.44v-136.02h16.44Z"/>
          <path d="M1631.31,1462.55c-2.03,2.46-4.46,4.6-7.3,6.42-2.83,1.82-5.86,3.31-9.1,4.48-3.23,1.17-6.57,2.05-10.02,2.63-3.45,.58-6.87,.88-10.25,.88-6.46,0-12.42-1.09-17.87-3.28-5.45-2.18-10.16-5.39-14.13-9.6-3.97-4.22-7.06-9.43-9.28-15.65-2.22-6.22-3.32-13.36-3.32-21.42,0-6.52,1-12.62,3-18.28,2-5.66,4.88-10.57,8.63-14.73,3.75-4.16,8.34-7.42,13.76-9.79,5.42-2.37,11.51-3.56,18.28-3.56,5.6,0,10.79,.94,15.56,2.82,4.77,1.88,8.9,4.59,12.37,8.13,3.48,3.54,6.2,7.91,8.17,13.11,1.97,5.2,2.95,11.13,2.95,17.78,0,2.59-.28,4.31-.83,5.17-.55,.86-1.6,1.29-3.14,1.29h-62.52c.18,5.91,1,11.05,2.45,15.42,1.45,4.37,3.46,8.02,6.05,10.94,2.59,2.92,5.66,5.11,9.23,6.56,3.57,1.45,7.57,2.17,12,2.17,4.12,0,7.68-.48,10.67-1.43,2.99-.95,5.56-1.99,7.71-3.09,2.15-1.11,3.95-2.14,5.4-3.09,1.45-.95,2.69-1.43,3.74-1.43,1.35,0,2.4,.52,3.14,1.57l4.62,6Zm-13.3-43.86c0-3.82-.54-7.31-1.62-10.48-1.08-3.17-2.65-5.91-4.71-8.22-2.06-2.31-4.57-4.09-7.53-5.36-2.96-1.26-6.31-1.89-10.07-1.89-7.88,0-14.11,2.29-18.7,6.88-4.59,4.59-7.43,10.94-8.54,19.07h51.16Z"/>
          <path d="M1668.43,1395.69c2.03-2.28,4.19-4.34,6.46-6.19,2.28-1.85,4.69-3.43,7.25-4.76,2.55-1.32,5.26-2.34,8.13-3.05,2.86-.71,5.96-1.06,9.28-1.06,5.11,0,9.62,.85,13.53,2.54,3.91,1.69,7.17,4.1,9.79,7.2,2.62,3.11,4.6,6.85,5.96,11.22,1.35,4.37,2.03,9.2,2.03,14.5v59.56h-16.53v-59.56c0-7.08-1.62-12.57-4.85-16.48-3.23-3.91-8.14-5.86-14.73-5.86-4.86,0-9.4,1.17-13.62,3.51-4.22,2.34-8.11,5.51-11.68,9.51v68.89h-16.53v-93.55h9.88c2.34,0,3.79,1.14,4.34,3.42l1.29,10.16Z"/>
          <path d="M415.84,1646.92c0,14.69-2.53,28.36-7.6,41-5.07,12.64-12.2,23.64-21.41,32.98-9.2,9.34-20.29,16.66-33.26,21.96-12.97,5.3-27.36,7.95-43.16,7.95s-30.22-2.65-43.23-7.95c-13.02-5.3-24.15-12.62-33.4-21.96-9.25-9.34-16.41-20.34-21.48-32.98-5.07-12.64-7.6-26.31-7.6-41s2.53-28.36,7.6-41c5.07-12.64,12.22-23.61,21.48-32.91,9.25-9.3,20.38-16.6,33.4-21.89,13.02-5.3,27.42-7.95,43.23-7.95s30.19,2.67,43.16,8.02c12.97,5.35,24.06,12.67,33.26,21.96,9.2,9.3,16.34,20.27,21.41,32.91,5.07,12.64,7.6,26.27,7.6,40.86Zm-48.25,0c0-10.04-1.3-19.08-3.9-27.12-2.6-8.04-6.35-14.85-11.23-20.43-4.88-5.58-10.86-9.85-17.92-12.83-7.07-2.97-15.11-4.46-24.13-4.46s-17.22,1.49-24.33,4.46c-7.11,2.98-13.11,7.25-17.99,12.83-4.88,5.58-8.62,12.39-11.23,20.43-2.6,8.04-3.9,17.08-3.9,27.12s1.3,19.22,3.9,27.26c2.6,8.04,6.35,14.85,11.23,20.43,4.88,5.58,10.88,9.83,17.99,12.76,7.11,2.93,15.22,4.39,24.33,4.39s17.06-1.46,24.13-4.39c7.06-2.93,13.04-7.18,17.92-12.76,4.88-5.58,8.62-12.39,11.23-20.43,2.6-8.04,3.9-17.13,3.9-27.26Z"/>
          <path d="M479.85,1619.31c5.58-5.3,11.69-9.55,18.34-12.76,6.65-3.21,14.06-4.81,22.24-4.81s15.62,1.67,22.31,5.02c6.69,3.35,12.41,8.11,17.15,14.29,4.74,6.18,8.39,13.64,10.95,22.38,2.56,8.74,3.84,18.5,3.84,29.29,0,11.71-1.49,22.36-4.46,31.94-2.98,9.58-7.18,17.78-12.62,24.61-5.44,6.83-11.92,12.13-19.45,15.9-7.53,3.77-15.85,5.65-24.96,5.65-4.37,0-8.28-.42-11.71-1.26-3.44-.84-6.6-2.02-9.48-3.56-2.88-1.53-5.51-3.37-7.88-5.51-2.37-2.14-4.67-4.46-6.9-6.97l-1.53,7.25c-.75,2.98-1.95,5.02-3.63,6.14s-3.9,1.67-6.69,1.67h-28.73v-208.76h43.23v79.49Zm0,89.95c3.25,3.53,6.79,6.04,10.6,7.53,3.81,1.49,7.67,2.23,11.57,2.23s7.86-.77,11.3-2.3c3.44-1.53,6.39-4.04,8.86-7.53,2.46-3.49,4.39-8.09,5.79-13.81,1.39-5.72,2.09-12.76,2.09-21.13,0-7.25-.54-13.41-1.6-18.48-1.07-5.07-2.65-9.2-4.74-12.41-2.09-3.21-4.7-5.53-7.81-6.97-3.12-1.44-6.67-2.16-10.67-2.16-5.3,0-9.9,1.16-13.81,3.49-3.9,2.33-7.76,5.72-11.57,10.18v61.36Z"/>
          <path d="M637.29,1626.28c4.46-7.81,9.6-13.95,15.41-18.41,5.81-4.46,12.48-6.69,20.01-6.69,6.51,0,11.81,1.53,15.9,4.6l-2.79,31.8c-.47,2.05-1.23,3.44-2.3,4.18-1.07,.75-2.53,1.12-4.39,1.12-.75,0-1.72-.05-2.93-.14-1.21-.09-2.46-.21-3.77-.35-1.3-.14-2.63-.28-3.97-.42-1.35-.14-2.58-.21-3.7-.21-6.32,0-11.37,1.67-15.13,5.02-3.77,3.35-6.95,8-9.55,13.95v87.86h-43.23v-144.61h25.66c2.14,0,3.93,.19,5.37,.56,1.44,.37,2.65,.95,3.63,1.74,.98,.79,1.72,1.84,2.23,3.14,.51,1.3,.95,2.88,1.32,4.74l2.23,12.13Z"/>
          <path d="M698.65,1624.05c8.74-7.72,18.43-13.46,29.08-17.22,10.64-3.77,22.06-5.65,34.24-5.65,8.74,0,16.62,1.42,23.64,4.25,7.02,2.84,12.97,6.79,17.85,11.85,4.88,5.07,8.62,11.09,11.23,18.06,2.6,6.97,3.9,14.6,3.9,22.87v90.37h-19.8c-4.09,0-7.18-.56-9.27-1.67-2.09-1.12-3.83-3.44-5.23-6.97l-3.07-7.95c-3.63,3.07-7.11,5.77-10.46,8.09-3.35,2.32-6.81,4.3-10.39,5.93-3.58,1.63-7.39,2.83-11.44,3.63-4.04,.79-8.53,1.19-13.46,1.19-6.6,0-12.6-.86-17.99-2.58-5.39-1.72-9.97-4.25-13.74-7.6-3.77-3.35-6.67-7.51-8.72-12.48-2.05-4.97-3.07-10.71-3.07-17.22,0-5.21,1.3-10.48,3.9-15.83,2.6-5.35,7.11-10.23,13.53-14.64,6.41-4.41,15.06-8.11,25.94-11.09,10.88-2.97,24.59-4.65,41.14-5.02v-6.14c0-8.46-1.74-14.57-5.23-18.34s-8.44-5.65-14.85-5.65c-5.11,0-9.3,.56-12.55,1.67-3.26,1.12-6.16,2.37-8.72,3.77-2.56,1.39-5.04,2.65-7.46,3.77-2.42,1.12-5.3,1.67-8.65,1.67-2.98,0-5.49-.74-7.53-2.23-2.05-1.49-3.72-3.25-5.02-5.3l-7.81-13.53Zm77.82,65.68c-8.65,.37-15.76,1.12-21.34,2.23-5.58,1.12-9.99,2.51-13.25,4.18-3.26,1.67-5.51,3.58-6.76,5.72-1.26,2.14-1.88,4.46-1.88,6.97,0,4.93,1.35,8.39,4.04,10.39,2.7,2,6.65,3,11.85,3,5.58,0,10.46-.98,14.64-2.93,4.18-1.95,8.41-5.11,12.69-9.48v-20.08Z"/>
          <path d="M938.09,1635.63c-1.12,1.77-2.3,3.02-3.56,3.77-1.26,.75-2.86,1.12-4.81,1.12s-4.09-.44-6.14-1.32c-2.05-.88-4.25-1.83-6.62-2.86-2.37-1.02-5.04-1.97-8.02-2.86-2.98-.88-6.37-1.32-10.18-1.32-5.49,0-9.69,1.05-12.62,3.14-2.93,2.09-4.39,5-4.39,8.72,0,2.7,.95,4.93,2.86,6.69,1.9,1.77,4.44,3.33,7.6,4.67,3.16,1.35,6.74,2.63,10.74,3.84,4,1.21,8.09,2.56,12.27,4.04,4.18,1.49,8.27,3.23,12.27,5.23,4,2,7.58,4.46,10.74,7.39,3.16,2.93,5.69,6.48,7.6,10.67,1.9,4.18,2.86,9.2,2.86,15.06,0,7.16-1.3,13.76-3.9,19.8-2.6,6.04-6.48,11.25-11.64,15.62-5.16,4.37-11.53,7.76-19.11,10.18-7.58,2.42-16.29,3.63-26.15,3.63-4.93,0-9.86-.47-14.78-1.39-4.93-.93-9.69-2.18-14.29-3.77-4.6-1.58-8.86-3.46-12.76-5.65-3.9-2.18-7.25-4.53-10.04-7.04l10.04-15.9c1.12-1.86,2.53-3.32,4.25-4.39,1.72-1.07,3.93-1.6,6.62-1.6,2.51,0,4.76,.56,6.76,1.67,2,1.12,4.16,2.32,6.48,3.63,2.32,1.3,5.04,2.51,8.16,3.63,3.11,1.12,7.04,1.67,11.78,1.67,3.35,0,6.18-.35,8.51-1.05,2.32-.7,4.18-1.65,5.58-2.86,1.39-1.21,2.42-2.56,3.07-4.04,.65-1.49,.98-3.02,.98-4.6,0-2.88-.98-5.25-2.93-7.11-1.95-1.86-4.51-3.46-7.67-4.81-3.16-1.35-6.76-2.6-10.81-3.77-4.04-1.16-8.16-2.49-12.34-3.97-4.18-1.49-8.3-3.28-12.34-5.37-4.04-2.09-7.65-4.74-10.81-7.95-3.16-3.21-5.72-7.13-7.67-11.78-1.95-4.65-2.93-10.27-2.93-16.87,0-6.14,1.19-11.97,3.56-17.5,2.37-5.53,5.93-10.39,10.67-14.57,4.74-4.18,10.69-7.51,17.85-9.97,7.16-2.46,15.53-3.7,25.1-3.7,5.21,0,10.25,.47,15.13,1.39,4.88,.93,9.46,2.23,13.74,3.9,4.28,1.67,8.18,3.65,11.71,5.93,3.53,2.28,6.65,4.77,9.34,7.46l-9.76,15.2Z"/>
          <path d="M1176.83,1696.01c1.12,0,2.23,.21,3.35,.63s2.18,1.14,3.21,2.16l18.69,19.66c-8.18,10.69-18.43,18.76-30.75,24.2-12.32,5.44-26.89,8.16-43.72,8.16-15.43,0-29.26-2.63-41.49-7.88-12.23-5.25-22.59-12.5-31.1-21.76-8.51-9.25-15.04-20.22-19.59-32.91-4.56-12.69-6.83-26.47-6.83-41.35s2.46-29.08,7.39-41.77c4.93-12.69,11.85-23.64,20.78-32.84s19.62-16.36,32.07-21.48c12.46-5.11,26.17-7.67,41.14-7.67,7.62,0,14.8,.68,21.55,2.02,6.74,1.35,13.04,3.21,18.9,5.58,5.86,2.37,11.25,5.23,16.18,8.58,4.93,3.35,9.3,6.97,13.11,10.88l-15.9,21.34c-1.02,1.3-2.23,2.49-3.63,3.56-1.39,1.07-3.35,1.6-5.86,1.6-1.67,0-3.26-.37-4.74-1.12-1.49-.74-3.07-1.65-4.74-2.72-1.67-1.07-3.51-2.23-5.51-3.49-2-1.26-4.37-2.42-7.11-3.49-2.74-1.07-5.95-1.97-9.62-2.72-3.67-.74-7.97-1.12-12.9-1.12-7.81,0-14.95,1.44-21.41,4.32-6.46,2.88-12.04,7.09-16.73,12.62-4.7,5.53-8.32,12.32-10.88,20.36-2.56,8.04-3.84,17.22-3.84,27.54s1.42,19.66,4.25,27.75c2.83,8.09,6.69,14.9,11.57,20.43,4.88,5.53,10.57,9.74,17.08,12.62,6.51,2.88,13.48,4.32,20.92,4.32,4.28,0,8.18-.21,11.71-.63,3.53-.42,6.83-1.12,9.9-2.09,3.07-.98,5.95-2.28,8.65-3.9,2.7-1.63,5.44-3.7,8.23-6.21,1.12-.93,2.32-1.7,3.63-2.3,1.3-.6,2.65-.91,4.04-.91Z"/>
          <path d="M1266.36,1564.36c0,3.44-.7,6.67-2.09,9.69-1.39,3.02-3.3,5.67-5.72,7.95-2.42,2.28-5.23,4.09-8.44,5.44-3.21,1.35-6.62,2.02-10.25,2.02s-6.83-.67-9.9-2.02c-3.07-1.35-5.79-3.16-8.16-5.44-2.37-2.28-4.23-4.93-5.58-7.95-1.35-3.02-2.02-6.25-2.02-9.69s.67-6.83,2.02-9.9c1.35-3.07,3.21-5.76,5.58-8.09,2.37-2.32,5.09-4.14,8.16-5.44,3.07-1.3,6.37-1.95,9.9-1.95s7.04,.65,10.25,1.95c3.21,1.3,6.02,3.12,8.44,5.44,2.42,2.32,4.32,5.02,5.72,8.09,1.39,3.07,2.09,6.37,2.09,9.9Zm-4.46,39.61v144.61h-43.23v-144.61h43.23Z"/>
          <path d="M1428.41,1603.97l-56.06,144.61h-39.33l-56.06-144.61h35.98c3.07,0,5.65,.72,7.74,2.16,2.09,1.44,3.51,3.23,4.25,5.37l20.08,64.85c1.76,5.3,3.32,10.46,4.67,15.48,1.35,5.02,2.53,10.04,3.56,15.06,2.04-10.04,4.88-20.22,8.51-30.54l20.92-64.85c.74-2.14,2.14-3.93,4.18-5.37,2.04-1.44,4.46-2.16,7.25-2.16h34.31Z"/>
          <path d="M1491.16,1564.36c0,3.44-.7,6.67-2.09,9.69-1.39,3.02-3.3,5.67-5.72,7.95-2.42,2.28-5.23,4.09-8.44,5.44-3.21,1.35-6.62,2.02-10.25,2.02s-6.83-.67-9.9-2.02c-3.07-1.35-5.79-3.16-8.16-5.44-2.37-2.28-4.23-4.93-5.58-7.95-1.35-3.02-2.02-6.25-2.02-9.69s.67-6.83,2.02-9.9c1.35-3.07,3.21-5.76,5.58-8.09,2.37-2.32,5.09-4.14,8.16-5.44,3.07-1.3,6.37-1.95,9.9-1.95s7.04,.65,10.25,1.95c3.21,1.3,6.02,3.12,8.44,5.44,2.42,2.32,4.32,5.02,5.72,8.09,1.39,3.07,2.09,6.37,2.09,9.9Zm-4.46,39.61v144.61h-43.23v-144.61h43.23Z"/>
          <path d="M1560.19,1539.82v208.76h-43.23v-208.76h43.23Z"/>
          <path d="M1625.03,1684.02c1.39,12.09,5.07,20.85,11.02,26.29,5.95,5.44,13.62,8.16,23.01,8.16,5.02,0,9.34-.6,12.97-1.81,3.63-1.21,6.86-2.56,9.69-4.04,2.83-1.49,5.44-2.83,7.81-4.04,2.37-1.21,4.86-1.81,7.46-1.81,3.44,0,6.04,1.26,7.81,3.77l12.55,15.48c-4.46,5.11-9.27,9.27-14.43,12.48-5.16,3.21-10.46,5.72-15.9,7.53s-10.88,3.07-16.32,3.77c-5.44,.7-10.62,1.05-15.55,1.05-10.13,0-19.64-1.65-28.52-4.95-8.88-3.3-16.64-8.2-23.29-14.71-6.65-6.51-11.9-14.59-15.76-24.27-3.86-9.67-5.79-20.92-5.79-33.75,0-9.67,1.65-18.83,4.95-27.47,3.3-8.65,8.04-16.22,14.22-22.73,6.18-6.51,13.67-11.67,22.45-15.48,8.79-3.81,18.71-5.72,29.77-5.72,9.57,0,18.34,1.49,26.29,4.46,7.95,2.98,14.78,7.3,20.5,12.97,5.72,5.67,10.18,12.62,13.39,20.85,3.21,8.23,4.81,17.55,4.81,27.96,0,3.26-.14,5.91-.42,7.95-.28,2.05-.79,3.67-1.53,4.88-.75,1.21-1.74,2.05-3,2.51-1.26,.47-2.86,.7-4.81,.7h-83.39Zm54.39-25.1c0-3.44-.44-6.79-1.32-10.04-.88-3.25-2.33-6.16-4.32-8.72-2-2.56-4.63-4.62-7.88-6.21-3.26-1.58-7.21-2.37-11.85-2.37-8.18,0-14.6,2.35-19.24,7.04-4.65,4.7-7.72,11.46-9.2,20.29h53.83Z"/>
          <path d="M1831.7,1635.63c-1.12,1.77-2.3,3.02-3.56,3.77-1.26,.75-2.86,1.12-4.81,1.12s-4.09-.44-6.14-1.32c-2.05-.88-4.25-1.83-6.62-2.86-2.37-1.02-5.04-1.97-8.02-2.86-2.98-.88-6.37-1.32-10.18-1.32-5.49,0-9.69,1.05-12.62,3.14-2.93,2.09-4.39,5-4.39,8.72,0,2.7,.95,4.93,2.86,6.69,1.9,1.77,4.44,3.33,7.6,4.67,3.16,1.35,6.74,2.63,10.74,3.84,4,1.21,8.09,2.56,12.27,4.04,4.18,1.49,8.27,3.23,12.27,5.23,4,2,7.58,4.46,10.74,7.39,3.16,2.93,5.69,6.48,7.6,10.67,1.9,4.18,2.86,9.2,2.86,15.06,0,7.16-1.3,13.76-3.9,19.8-2.6,6.04-6.48,11.25-11.64,15.62-5.16,4.37-11.53,7.76-19.11,10.18-7.58,2.42-16.29,3.63-26.15,3.63-4.93,0-9.86-.47-14.78-1.39-4.93-.93-9.69-2.18-14.29-3.77-4.6-1.58-8.86-3.46-12.76-5.65-3.9-2.18-7.25-4.53-10.04-7.04l10.04-15.9c1.12-1.86,2.53-3.32,4.25-4.39,1.72-1.07,3.93-1.6,6.62-1.6,2.51,0,4.76,.56,6.76,1.67,2,1.12,4.16,2.32,6.48,3.63,2.32,1.3,5.04,2.51,8.16,3.63,3.11,1.12,7.04,1.67,11.78,1.67,3.35,0,6.18-.35,8.51-1.05,2.32-.7,4.18-1.65,5.58-2.86,1.39-1.21,2.42-2.56,3.07-4.04,.65-1.49,.98-3.02,.98-4.6,0-2.88-.98-5.25-2.93-7.11-1.95-1.86-4.51-3.46-7.67-4.81-3.16-1.35-6.76-2.6-10.81-3.77-4.04-1.16-8.16-2.49-12.34-3.97-4.18-1.49-8.3-3.28-12.34-5.37-4.04-2.09-7.65-4.74-10.81-7.95-3.16-3.21-5.72-7.13-7.67-11.78-1.95-4.65-2.93-10.27-2.93-16.87,0-6.14,1.19-11.97,3.56-17.5,2.37-5.53,5.93-10.39,10.67-14.57,4.74-4.18,10.69-7.51,17.85-9.97,7.16-2.46,15.53-3.7,25.1-3.7,5.21,0,10.25,.47,15.13,1.39,4.88,.93,9.46,2.23,13.74,3.9,4.28,1.67,8.18,3.65,11.71,5.93,3.53,2.28,6.65,4.77,9.34,7.46l-9.76,15.2Z"/>
        </g>
        <path d="M598.46,273.79l73.47-30.88v37.62l-73.47,27.9v-34.64Zm0,79.91l73.47-24.8v-37.62l-73.47,27.45v34.97Zm0,45.27l73.47-21.7v-37.62l-73.47,24.02v35.3Zm0,45.27l73.47-18.6v-37.62l-73.47,20.59v35.63Zm0,45.27l73.47-15.5v-37.62l-73.47,17.16v35.96Zm0,45.27l73.47-12.4v-37.62l-73.47,13.72v36.3Zm0,45.27l73.47-9.3v-37.62l-73.47,10.29v36.63Zm0,45.27l73.47-6.2v-37.62l-73.47,6.86v36.96Zm0,45.27l73.47-3.1v-37.62l-73.47,3.43v37.29Zm0-441.77v34.31l73.47-31.01v-37.62l-73.47,34.31Zm0,487.04h73.47v-37.62h-73.47v37.62Zm82.48-521.36v37.62l73.47,31.01v-34.31l-73.47-34.31Zm0,48.37l73.47,30.88v34.64l-73.47-27.9v-37.62Zm0,48.37l73.47,27.45v34.97l-73.47-24.8v-37.62Zm0,48.37l73.47,24.02v35.3l-73.47-21.7v-37.62Zm0,48.37l73.47,20.59v35.63l-73.47-18.6v-37.62Zm0,48.37l73.47,17.16v35.96l-73.47-15.5v-37.62Zm0,48.37l73.47,13.72v36.29l-73.47-12.4v-37.62Zm0,48.37l73.47,10.29v36.63l-73.47-9.3v-37.62Zm0,48.37l73.47,6.86v36.96l-73.47-6.2v-37.62Zm0,48.37l73.47,3.43v37.29l-73.47-3.1v-37.62Zm0,48.37h73.47v37.62h-73.47v-37.62Zm-82.48,181.09l73.47,12.4v37.62l-70.25-13.12c-1.1-1.25-2.15-2.55-3.23-3.82v-33.08Zm13.82,48.19l59.65,12.59v33.69c-22.03-12.91-42.09-28.48-59.65-46.27Zm-13.82-93.46l73.47,9.3v37.62l-73.47-10.29v-36.63Zm0-45.27l73.47,6.2v37.62l-73.47-6.86v-36.96Zm0,362.19l73.47,31v37.62l-73.47-34.31v-34.31Zm111.87-39.11l-29.39,10.98v-20.07c9.63,3.35,19.43,6.39,29.39,9.09Zm-111.87-6.17l73.47,27.9v37.62l-73.47-30.88v-34.64Zm0-41.91c23,14.07,47.59,26.08,73.47,35.74v23.31l-73.47-27.45v-31.61Zm128.67,52.27c8.99,2.06,18.08,3.86,27.28,5.37v18.91l-73.47,30.88v-37.62l46.19-17.54Zm-46.19-272.7l73.47-9.3v36.63l-73.47,10.29v-37.62Zm-82.48-99.85l73.47,3.1v37.62l-73.47-3.43v-37.29Zm82.48,3.1l73.47-3.1v37.29l-73.47,3.43v-37.62Zm0,145.12l73.47-12.4v36.29l-73.47,13.72v-37.62Zm0-96.75l73.47-6.2v36.96l-73.47,6.86v-37.62Zm0,386.99l73.47-31v34.31l-73.47,34.31v-37.62Zm0-241.87l73.47-15.5v35.96l-73.47,17.16v-37.62Zm12.64,45.17l60.83-15.4v35.63l-2.5,.7c-20.42-5.02-39.93-12.11-58.33-20.93Z" style="fill: #0a71b4;"/>
        <g>
          <polygon points="1497.12 535.12 1497.05 537.11 1503.68 537.43 1503.68 535.53 1497.12 535.12" style="fill: #fff;"/>
          <path d="M1438.32,536.72h0s-.01,0-.02,0h.02Z" style="fill: #fff;"/>
          <path d="M1404.35,535.44c4.28,0,8.4-.46,12.4-1.23l-22.39,.4c3.24,.53,6.56,.83,9.99,.83Z" style="fill: #fff;"/>
          <polygon points="1555.81 538.8 1520.14 536.56 1520.14 538.21 1555.73 539.9 1555.81 538.8" style="fill: #fff;"/>
          <polygon points="1262.14 544.41 1262.88 549.94 1289.73 546.75 1289.73 541.56 1262.14 544.41" style="fill: #fff;"/>
          <path d="M1081.78,592.87c-1.44-2.49-2.93-4.96-4.45-7.4-14.65,5.07-29.15,10.67-43.36,16.98l3.79,8.35c14.36-6.65,29.09-12.55,44.02-17.93Z" style="fill: #fff;"/>
          <path d="M1201.62,555.25c.85-.08,1.71-.26,2.56-.43l-.29-1.53-2.99,.63c.23,.44,.48,.88,.71,1.33Z" style="fill: #fff;"/>
          <polygon points="1320.72 538.35 1306.19 539.86 1306.19 544.79 1321.13 543.02 1320.72 538.35" style="fill: #fff;"/>
          <polygon points="1568.11 893.41 1570.05 915.94 1629.05 909.97 1625.97 886.66 1568.11 893.41" style="fill: #fff;"/>
          <polygon points="1333.47 915.01 1392.54 918.84 1393.27 898.93 1334.96 896.04 1333.47 915.01" style="fill: #fff;"/>
          <polygon points="1216.1 899.48 1274.61 908.63 1276.84 890.64 1219.07 882.5 1216.1 899.48" style="fill: #fff;"/>
          <path d="M929.97,728.58l-11.8,1.14c.95,10.62,4.24,20.91,9.01,30.2,4.77,9.32,10.94,17.72,17.77,25.33l9.41-8.61c-6.35-6.86-11.98-14.32-16.27-22.4-4.29-8.06-7.18-16.75-8.12-25.67Z" style="fill: #fff;"/>
          <polygon points="1451.64 899.44 1451.72 920.26 1510.92 919.32 1509.97 897.62 1451.64 899.44" style="fill: #fff;"/>
          <path d="M1100.98,871.21c18.86,6.04,37.94,11.32,57.14,15.99l3.74-15.91c-18.94-4.3-37.73-9.2-56.28-14.83l-4.6,14.74Z" style="fill: #fff;"/>
          <path d="M936.82,671.09l8.81,6.53c11.08-15.09,25.83-27.67,41.61-38.55l-5.63-8.34c-16.56,11.08-32.34,23.99-44.78,40.37Z" style="fill: #fff;"/>
          <path d="M992.02,823.19c17.05,10.54,34.94,19.44,53.19,27.31l5.65-13.4c-17.85-7.38-35.28-15.73-51.74-25.56l-7.1,11.66Z" style="fill: #fff;"/>
        </g>
      </g>
    </g>
  </g>
</svg>