<?xml version="1.0" encoding="UTF-8"?>
<svg id="Layer_2" data-name="Layer 2" xmlns="http://www.w3.org/2000/svg" viewBox="0 0 2047 2807.31">
  <g id="Logos-IngPlanComun">
    <g id="Logo-IngPlanComun-Oficial-Blanco">
      <rect width="2047" height="2807.31" style="fill: none;"/>
      <g>
        <g>
          <path d="M255.2,2057.85v207.32h-50.5v-207.32h50.5Z" style="fill: #fff;"/>
          <path d="M477.29,2265.17h-50.5l-84.47-127.88v127.88h-50.5v-207.32h50.5l84.47,128.47v-128.47h50.5v207.32Z" style="fill: #fff;"/>
          <path d="M651.54,2123.42c-3.74-6.89-9.11-12.15-16.1-15.8-6.99-3.64-15.21-5.46-24.66-5.46-16.35,0-29.44,5.37-39.28,16.1-9.85,10.73-14.77,25.06-14.77,42.97,0,19.1,5.17,34.01,15.5,44.74,10.34,10.73,24.56,16.1,42.68,16.1,12.4,0,22.89-3.15,31.45-9.45,8.56-6.3,14.81-15.36,18.75-27.17h-64.09v-37.21h109.86v46.96c-3.74,12.6-10.09,24.32-19.05,35.14-8.96,10.83-20.33,19.59-34.11,26.28-13.78,6.7-29.34,10.04-46.66,10.04-20.48,0-38.74-4.48-54.78-13.44-16.05-8.96-28.55-21.41-37.51-37.36-8.96-15.95-13.44-34.16-13.44-54.64s4.48-38.74,13.44-54.78c8.96-16.05,21.41-28.55,37.36-37.51,15.95-8.96,34.16-13.44,54.64-13.44,24.81,0,45.73,6.01,62.76,18.02,17.03,12.01,28.3,28.65,33.82,49.91h-55.82Z" style="fill: #fff;"/>
          <path d="M789.45,2098.31v41.94h67.63v38.98h-67.63v45.48h76.49v40.46h-126.99v-207.32h126.99v40.46h-76.49Z" style="fill: #fff;"/>
          <path d="M1084.19,2265.17h-50.5l-84.46-127.88v127.88h-50.5v-207.32h50.5l84.46,128.47v-128.47h50.5v207.32Z" style="fill: #fff;"/>
          <path d="M1171.31,2057.85v207.32h-50.5v-207.32h50.5Z" style="fill: #fff;"/>
          <path d="M1258.44,2098.31v41.94h67.63v38.98h-67.63v45.48h76.49v40.46h-126.99v-207.32h126.99v40.46h-76.49Z" style="fill: #fff;"/>
          <path d="M1473.43,2265.17l-43.12-78.26h-12.11v78.26h-50.5v-207.32h84.76c16.34,0,30.27,2.86,41.79,8.56,11.52,5.71,20.13,13.54,25.84,23.48,5.71,9.94,8.56,21.02,8.56,33.22,0,13.78-3.89,26.09-11.67,36.92-7.78,10.83-19.25,18.51-34.41,23.04l47.84,82.1h-57Zm-55.23-114h31.3c9.25,0,16.19-2.26,20.82-6.79,4.62-4.53,6.94-10.93,6.94-19.2s-2.32-14.07-6.94-18.61c-4.63-4.53-11.57-6.79-20.82-6.79h-31.3v51.39Z" style="fill: #fff;"/>
          <path d="M1619.92,2016.21l-71.17,29.83v-34.85l71.17-34.26v39.28Zm-9.16,41.64v207.32h-50.5v-207.32h50.5Z" style="fill: #fff;"/>
          <path d="M1776.44,2228.55h-77.38l-12.4,36.62h-52.86l75.01-207.32h58.48l75.01,207.32h-53.45l-12.4-36.62Zm-12.99-38.98l-25.69-75.9-25.4,75.9h51.09Z" style="fill: #fff;"/>
          <path d="M422.61,2449.59c-8.59,8.3-21.7,12.45-39.31,12.45h-29.02v63.02h-19.71v-150.95h48.73c17.03,0,30,4.11,38.87,12.34,8.88,8.23,13.32,18.84,13.32,31.84s-4.3,22.99-12.89,31.3Zm-15.05-10.94c5.2-4.76,7.8-11.55,7.8-20.36,0-18.63-10.69-27.94-32.05-27.94h-29.02v55.44h29.02c10.97,0,19.06-2.38,24.26-7.15Z" style="fill: #fff;"/>
          <path d="M479.67,2509.04h52.84v16.03h-72.55v-150.95h19.71v134.93Z" style="fill: #fff;"/>
          <path d="M642.75,2491.5h-65.84l-12.13,33.57h-20.79l54.58-150.09h22.74l54.36,150.09h-20.79l-12.13-33.57Zm-5.63-16.03l-27.29-76.24-27.29,76.24h54.58Z" style="fill: #fff;"/>
          <path d="M818.18,2525.07h-19.71l-79.27-120.2v120.2h-19.71v-151.17h19.71l79.27,119.98v-119.98h19.71v151.17Z" style="fill: #fff;"/>
          <path d="M912.17,2409.74c6.64-11.77,15.7-20.97,27.18-27.61,11.48-6.64,24.22-9.96,38.22-9.96,16.46,0,30.83,3.97,43.1,11.91,12.27,7.94,21.23,19.2,26.86,33.79h-23.61c-4.19-9.1-10.22-16.1-18.08-21.01-7.87-4.91-17.29-7.36-28.26-7.36s-20,2.46-28.37,7.36c-8.38,4.91-14.94,11.88-19.71,20.9-4.76,9.03-7.15,19.6-7.15,31.73s2.38,22.49,7.15,31.51c4.76,9.02,11.33,15.99,19.71,20.9,8.37,4.91,17.83,7.36,28.37,7.36s20.39-2.42,28.26-7.26c7.87-4.84,13.89-11.8,18.08-20.9h23.61c-5.63,14.44-14.58,25.59-26.86,33.46-12.27,7.87-26.64,11.8-43.1,11.8-14.01,0-26.75-3.28-38.22-9.85-11.48-6.57-20.54-15.7-27.18-27.4-6.64-11.7-9.96-24.91-9.96-39.63s3.32-27.97,9.96-39.74Z" style="fill: #fff;"/>
          <path d="M1106.87,2516.73c-11.55-6.57-20.68-15.74-27.4-27.51-6.71-11.77-10.07-25.01-10.07-39.74s3.36-27.97,10.07-39.74c6.71-11.77,15.84-20.93,27.4-27.5,11.55-6.57,24.33-9.85,38.33-9.85s27,3.29,38.55,9.85c11.55,6.57,20.65,15.7,27.29,27.4,6.64,11.7,9.96,24.98,9.96,39.85s-3.32,28.16-9.96,39.85c-6.64,11.7-15.74,20.83-27.29,27.4-11.55,6.57-24.4,9.85-38.55,9.85s-26.78-3.28-38.33-9.85Zm66.81-14.62c8.45-4.91,15.09-11.91,19.93-21.01,4.84-9.1,7.26-19.63,7.26-31.62s-2.42-22.7-7.26-31.73c-4.84-9.02-11.45-15.99-19.82-20.9-8.38-4.91-17.9-7.36-28.59-7.36s-20.22,2.46-28.59,7.36c-8.38,4.91-14.98,11.88-19.82,20.9-4.84,9.03-7.26,19.6-7.26,31.73s2.42,22.52,7.26,31.62c4.84,9.1,11.48,16.1,19.93,21.01,8.45,4.91,17.94,7.36,28.48,7.36s20.03-2.45,28.48-7.36Z" style="fill: #fff;"/>
          <path d="M1400.12,2375.2v149.87h-19.71v-111.75l-49.81,111.75h-13.86l-50.03-111.97v111.97h-19.71v-149.87h21.22l55.44,123.88,55.44-123.88h21.01Z" style="fill: #fff;"/>
          <path d="M1452.74,2374.11v95.51c0,13.43,3.28,23.39,9.85,29.89,6.57,6.5,15.7,9.75,27.4,9.75s20.61-3.25,27.18-9.75c6.57-6.5,9.85-16.46,9.85-29.89v-95.51h19.71v95.29c0,12.56-2.53,23.14-7.58,31.73-5.06,8.59-11.88,14.98-20.47,19.17-8.59,4.19-18.23,6.28-28.91,6.28s-20.32-2.09-28.91-6.28c-8.59-4.19-15.38-10.58-20.36-19.17-4.98-8.59-7.47-19.17-7.47-31.73v-95.29h19.71Zm58.26-32.7l-46.13,24.69v-14.73l46.13-27.07v17.11Z" style="fill: #fff;"/>
          <path d="M1698.34,2525.07h-19.71l-79.27-120.2v120.2h-19.71v-151.17h19.71l79.27,119.98v-119.98h19.71v151.17Z" style="fill: #fff;"/>
        </g>
        <g>
          <path d="M1177.43,1539.84c-2.62-1.64-5.24-3.05-7.96-4.47,2.73,1.41,5.34,2.94,7.96,4.47Z" style="fill: #fff;"/>
          <polygon points="1108.13 849.29 1095.36 780.99 1082.93 849.29 1108.13 849.29" style="fill: #fff;"/>
          <path d="M1023.61,280.73c-452.19,0-818.91,366.51-818.91,818.69,0,363.46,237,671.53,564.8,778.36-17.34-72.5-34.66-144.88-52-217.38-10.24-42.84-20.39-85.68-30.85-128.42-1.53-6.21-.54-9.81,5.45-13.08,12.1-6.65,23.55-14.39,36.74-22.67,27.36,125.25,54.4,249.1,81.54,373.48,22.02-10.69,42.73-21.48,64.1-30.85,87.87-38.49,178.57-59.31,275.04-42.52,39.35,6.87,80.01,22.45,104.21,39.9-137.03-25.95-256.18,3.05-363.35,70.96,43.38,7.08,87.87,11.01,133.22,11.01,244.74,0,464.18-107.48,614.29-277.76-127.44,14.83-239.4,67.59-330.32,174.31,4.91-11.34,9.16-22.9,14.72-33.79,31.39-61.37,79.36-106.83,137.36-142.48,63.34-38.81,132.89-61.05,205.39-75.22,1.86-.33,3.6-.87,7.08-1.64-58.32-114.14-115.99-226.97-174.09-340.78,16.35-2.18,31.28-4.47,46.22-5.78,2.51-.22,6.65,3.05,8.07,5.67,14.39,28.78,28.34,57.67,42.41,86.56,35.32,72.5,70.64,144.99,105.96,217.6,3.27,6.65,6.43,13.3,9.7,19.84,83.28-128.2,131.9-281.04,131.9-445.33,0-452.18-366.5-818.69-818.69-818.69Zm369.78,332.71l13.85-69.99,38.49,60.72,73.47-10.91-44.92,58.21,32.05,63.77-66.72-25.29-53.09,50.69,3.05-74.13-64.43-31.94,68.26-21.12Zm-73.82,195.37c-4.69,0-10.14,3.16-14.62,7.09v86.74h-19.96v-151.44h0v-.11h0v.11h19.96v54.66c7.31-6.99,16.15-12.77,27.17-12.77,12.66,0,16.04,11.57,16.04,22.04v87.51h-19.96v-81.72c0-7.63-1.75-12.11-8.62-12.11Zm-152.83-367.84l58.54,41.86,63.99-37.61-19.84,70.75,53.64,47.09-71.4,1.64-30.2,66.93-24.85-69.88-71.74-5.56,55.38-45.13-13.51-70.09Zm-186.83,446.61c17.79,0,20.18-15.49,20.18-35.13v-101.36h20.07v100.49c0,31.75-7.3,52.7-40.26,52.7s-40.37-20.95-40.37-52.7v-100.49h20.18v101.36c0,19.64,2.4,35.13,20.18,35.13Zm22.44,250.53c9.27-38.16,36.95-74.57,62.8-103.45,4.8-5.34,9.7-10.57,14.72-15.8,28.45,31.39,57.23,62.47,86.23,93.32,8.29,8.83,16.57,17.55,24.96,26.38-51.79,46.87-101.17,106.29-102.92,178.78-2.4-3.81-4.8-8.94-6.87-12.86-16.13-29.87-33.03-59.31-50.15-88.63-8.72-15.15-17.66-30.2-26.6-45.13-.76-1.3-1.53-2.62-2.07-4.03-3.7-8.94-2.07-19.18-.11-28.56Zm206.92-372.09c-18.01,0-19.64,12.44-19.64,31.1v60.01c0,22.81,5.03,30.34,19.64,30.34,17.02,0,18.01-12.11,18.01-30.12v-11.24h19.96v11.24c0,27.93-8.41,46.81-38.19,46.81-32.19,0-40.81-22.04-40.81-50.3v-53.46c0-30.66,8.62-50.62,40.81-50.74,28.26,0,38.19,16.26,38.19,43.54v12h-19.96v-10.69c0-16.91-.44-28.48-18.01-28.48Zm2.82,380.92l8.18-6.43c-16.02-18.31-32.05-36.74-48.19-54.94,7.52-7.74,15.15-15.37,22.9-22.78,3.38-3.27,6.87-6.43,10.46-9.7,38.92,59.42,79.04,119.58,118.93,177.92,10.24,15.26,24.53,35.76,36.41,52.87-81.44,60.39-153.49,145.21-156.98,250.62-3.6-7.63-6.1-15.81-9.05-23.55-23.66-60.29-48.73-120.14-74.34-179.65-6.97-16.13-14.61-33.9-21.8-50.15,21.91-54.74,67.81-97.9,113.48-134.21Zm-74.4-244.3h-19.96l-6.87-38.19h-30.88l-7.31,38.19h-19.85l32.18-151.55h20.29l32.4,151.55Zm-162.27-449.78l45.24-58.76,8.18,73.04,67.26,23.55-65.52,28.23-2.94,73.36-49.27-55.49-68.57,21.69,34.45-62.47-38.7-59.96,69.86,16.8Zm-104.98,556.19c8.29-24.53,23.55-50.03,42.19-76.53,27.15,16.24,54.18,32.49,81.22,48.73-37.28,45.68-62.02,88.63-63.01,127-2.07-2.07-3.81-3.7-5.45-5.34-18.42-17.99-36.85-36.08-55.49-53.96-3.05-2.94-4.47-7.19-4.58-12.64-.12-8.19,1.74-17.35,5.12-27.26Zm50.15,105.52c.54,.43,1.09,.98,1.64,1.53-37.94,2.62-80.01,28.23-124.82,66.72-16.9-26.6-33.79-53.09-50.91-80.01,5.45-3.81,10.46-7.52,15.48-11.01,24.64-17.01,48.62-30.63,70.86-36.41,5.13-1.3,9.92-1.97,14.5-2.4,.87-.11,1.75-.11,2.62,0,5.24,0,9.16,1.53,12.21,4.47,19.28,19.18,38.91,38.16,58.42,57.12Zm-135.73-113.26c-11.23-6.43-22.34-12.86-33.68-19.07-1.86-1.09-2.84-3.49-2.94-7.08-.33-5.45,.65-12.1,2.4-19.84,4.36-18.97,12.86-40.77,23.11-64.32,16.24,2.51,32.49,5.13,48.73,7.63-20.93,42.08-34.55,78.49-34.34,104.54-1.19-.65-2.29-1.31-3.27-1.86Zm-52.32-482.5l19.95-71.52,34.88,64.64,71.29-3.38-50.26,50.8,24.74,69.12-66.5-33.03-55.38,45.89,8.51-70.96-58.43-41.1,71.19-10.46Zm-264.79,686.14l-61.26-36.63-61.37,36.63,19.4-69.33-57.25-47.32,73.26-5.56,25.95-66.5,25.95,66.5,73.15,5.56-57.13,47.32,19.3,69.33Zm13.18-286.49l-8.07,71.4-43.06-56.91-70.64,11.01,43.93-57.02-35.32-65.3,69.99,22.34,48.95-52-.87,71.4,65.85,32.6-70.76,22.46Zm111.53-189.24l-34.23,63.23-18.75-68.9-69.44-16.24,62.02-36.41-8.29-73.8,56.47,46.87,64.86-29.76-27.47,65.85,48.73,54.83-73.9-5.67Zm118.93,365.08c-10.46-12.54-21.04-25.18-31.61-37.93,3.05-4.25,6-8.18,8.83-12.1,14.18-18.97,27.91-35.54,40.88-46.22,2.94-2.51,5.78-4.47,8.51-6.1,2.4-1.53,4.47-2.29,6.32-2.29,.87,0,1.75,.22,2.51,.65,11.77,6.97,23.66,13.62,35.54,20.39,.33,.22,.65,.33,.98,.54-22.24,13.29-46.44,43.49-71.96,83.06Zm527.74,704.78c-65.19-48.19-138.45-60.18-216.93-47.64-61.48,9.81-118.17,32.6-171.37,64.32-1.3,.76-2.73,1.64-5.24,3.05-3.6-12.75-6.97-25.07-10.35-37.28-30.74-114.25-61.16-228.6-92.33-342.74-3.6-13.08-2.29-22.45,7.3-32.49,12.86-13.3,23.77-28.45,37.17-44.81,32.6,126.13,64.75,250.29,96.59,373.27,37.5-6.76,73.04-14.5,108.91-19.18,50.8-6.65,101.38-4.47,150.55,11.99,40.33,13.51,74.57,35.65,100.08,73.15-2.62-.88-3.71-1.1-4.36-1.64Zm-323.11-134.3c-10.46-43.28-20.82-86.56-31.28-129.95,50.37-17.88,103.78-30.41,156.43-30.52,45.39,0,90.07,9.37,131.65,32.76-42.41-24.14-91.02-36.48-139.82-38.76-49.16-2.4-98.44,4.14-146.3,15.26-18.42-71.07-37.82-141.94-59.08-212.47,2.83,6,5.56,11.99,8.4,17.88,7.74,16.57,15.8,33.14,23.77,49.6,60.23-33.11,131.41-63.58,200.66-47-31.03-7.86-63.83-7.2-95.36-1.84-33.58,5.67-66.07,16.02-97.57,28.78-17.77-48.73-36.63-97.46-56.8-145.21,0,0-2.07-4.91-4.14-9.7,4.8-1.75,9.7-3.49,14.5-5.13,32.92-10.8,67.26-20.39,102.26-20.28,3.81,0,7.74,.11,11.56,.33,7.3,.54,14.39,1.86,21.48,3.6,6.65,1.53,12.86,4.14,17.99,8.72,2.51,2.18,4.69,5.13,6.65,7.96,30.96,43.49,60.94,87.65,89.72,132.67v.11c.22,.22,2.29,3.6,2.4,3.7-.26-.08-.51-.17-.77-.25,3.34,6.26,6.47,12.19,9.39,17.7,33.68,63.34,66.17,127.87,96.81,192.62v.22c.22,.65,3.05,6.54,3.16,6.76-.54-.43-1.2-.76-1.75-1.09-.21-.13-.42-.25-.63-.38,24.41,68.44,48.93,136.77,73.45,205.11,1.2,3.27,2.4,6.65,3.6,9.92-97.37-91.46-213.14-110.64-340.36-91.13Zm365.3,85.79c-4.69-12.97-8.29-23.22-11.99-33.47-21.8-60.94-43.6-121.99-65.41-182.92,20.71-105.53,98.54-178.89,185.98-234.16l12.21-7.74c-15.04-24.53-34.34-54.83-49.6-79.58-25.84-41.21-52.43-82.63-79.03-123.73,7.3-6.43,14.72-12.75,22.34-19.07,63.45,130.71,126.46,260.65,189.68,390.93-110.65,65.51-188.39,154.13-204.19,289.74Zm338.05-825.68l-52.54-48.4-68.24,27.15,30.63-67.59-47.64-53.86,71.07,6.1,39.03-59.85,13.08,70.75,72.06,17.44-63.34,37.17,5.89,71.08Z" style="fill: #fff;"/>
        </g>
      </g>
    </g>
  </g>
</svg>