<?xml version="1.0" encoding="UTF-8"?>
<svg id="Layer_2" data-name="Layer 2" xmlns="http://www.w3.org/2000/svg" viewBox="0 0 2047 842.25">
  <g id="Logos-90A-Miraflores">
    <g id="Logo-90A-Miraflores-Color">
      <rect width="2047" height="842.25" style="fill: none;"/>
      <g>
        <path d="M1042.28,674.4c-47.19,40.56-106.42,67.51-171.59,74.75-2.7,.3-5.22-1.43-5.92-4.05-11.13-41.54-17.06-85.22-17.06-130.28,0-149.78,65.52-284.26,169.47-376.33,4.57-4.04,11.36,1.26,8.56,6.68-30.31,58.61-47.42,125.14-47.42,195.68,0,83.18,23.81,160.81,64.99,226.44,1.45,2.31,1.04,5.34-1.03,7.12Z" style="fill: #e15200;"/>
        <path d="M819.84,633.18c-105.06-7.94-187.8-97.13-185.37-204.73,2.45-108.39,91.72-195.81,200.14-196.07,42.34-.1,81.66,12.98,114.12,35.35,2.3,1.58,5.41,1.17,7.26-.92,23.66-26.78,50-51.13,78.61-72.64,2.87-2.15,2.93-6.45,.14-8.7-54.58-44.06-124.01-70.46-199.62-70.46-81.52,0-155.89,30.67-212.18,81.11-38.78-66.9-111.17-111.89-194.06-111.89-122.39,0-221.89,98.1-224.13,219.97-2.29,124.91,96.74,227.01,221.67,228.35,15.47,.17,30.59-1.23,45.2-4.06l-68.2,215.44c-1.13,3.56,1.53,7.2,5.27,7.2h111.19c2.41,0,4.54-1.56,5.27-3.86l44.15-139.49c56.87,86.36,154.69,143.35,265.82,143.35,.02,0,.05,0,.07,0,3.54,0,6.14-3.36,5.27-6.79-8.63-34.09-13.94-69.5-15.55-105.88-.12-2.79-2.28-5.07-5.07-5.28Zm-287.06-299.17s0,.02-.01,.04c-.96,3.98-2.16,7.88-3.57,11.65,0,.01-.01,.02-.01,.02-15.09,40.68-54.29,69.74-100.16,69.74-58.89,0-106.8-47.92-106.8-106.8s47.91-106.8,106.8-106.8,106.8,47.91,106.8,106.8c0,8.73-1.06,17.23-3.05,25.35Z" style="fill: #0097a6;"/>
        <text transform="translate(1082.96 328.87)" style="fill: #333; font-size: 152.57px;"><tspan style="font-family: Poppins-ExtraBold, Poppins; font-weight: 700;"><tspan x="0" y="0">Años</tspan></tspan><tspan style="font-family: Poppins-MediumItalic, Poppins; font-style: italic; font-weight: 500;"><tspan x="0" y="161.96">Campus</tspan></tspan><tspan style="font-family: Poppins-MediumItalic, Poppins; font-style: italic; font-weight: 500;"><tspan x="0" y="340.35">Miraflores</tspan></tspan></text>
      </g>
    </g>
  </g>
</svg>