<?xml version="1.0" encoding="UTF-8"?>
<svg id="Layer_2" data-name="Layer 2" xmlns="http://www.w3.org/2000/svg" xmlns:xlink="http://www.w3.org/1999/xlink" viewBox="0 0 2047 2807.31">
  <defs>
    <linearGradient id="Degradado_sin_nombre" data-name="Degradado sin nombre" x1="1307.46" y1="2244.03" x2="804.4" y2="1394.75" gradientTransform="translate(0 -536.46)" gradientUnits="userSpaceOnUse">
      <stop offset="0" stop-color="#715ea0"/>
      <stop offset=".15" stop-color="#9c3682"/>
      <stop offset=".27" stop-color="#df3468"/>
      <stop offset=".42" stop-color="#ec453d"/>
      <stop offset=".58" stop-color="#ed9e5b"/>
      <stop offset=".73" stop-color="#afb85d"/>
      <stop offset=".89" stop-color="#5fafac"/>
      <stop offset="1" stop-color="#3c88ba"/>
    </linearGradient>
  </defs>
  <g id="Logos-IngPlanComun">
    <g id="Logo-IngPlanComun-Oficial-Color">
      <rect width="2047" height="2807.31" style="fill: none;"/>
      <g>
        <g>
          <path d="M1307.59,1814.75c4.91-11.34,9.16-22.89,14.72-33.79,31.39-61.37,79.36-106.83,137.36-142.48,63.34-38.81,132.89-61.05,205.38-75.22,1.86-.33,3.6-.87,7.08-1.64-58.32-114.13-115.99-226.96-174.09-340.78,16.35-2.18,31.28-4.47,46.22-5.78,2.51-.22,6.65,3.05,8.07,5.67,14.39,28.78,28.34,57.67,42.41,86.55,35.32,72.5,70.64,144.99,105.96,217.59,3.27,6.65,6.43,13.3,9.7,19.84,83.28-128.2,131.9-281.03,131.9-445.32,0-452.18-366.5-818.69-818.69-818.69S204.7,647.22,204.7,1099.41c0,363.45,237,671.52,564.79,778.35-17.34-72.5-34.66-144.88-52-217.37-10.24-42.84-20.39-85.68-30.85-128.42-1.53-6.21-.54-9.81,5.45-13.08,12.1-6.65,23.55-14.39,36.74-22.67,27.36,125.25,54.4,249.1,81.54,373.48,22.02-10.68,42.73-21.48,64.1-30.85,87.87-38.49,178.57-59.3,275.04-42.52,39.35,6.87,80.01,22.45,104.21,39.9-137.03-25.95-256.18,3.05-363.34,70.96,43.38,7.08,87.87,11.01,133.22,11.01,244.73,0,464.17-107.48,614.28-277.76-127.43,14.84-239.39,67.6-330.29,174.33Zm-68.46-15.7c-65.19-48.19-138.44-60.18-216.93-47.64-61.48,9.81-118.17,32.6-171.37,64.32-1.3,.76-2.73,1.64-5.24,3.05-3.6-12.75-6.97-25.07-10.35-37.28-30.74-114.24-61.16-228.6-92.33-342.73-3.6-13.08-2.29-22.45,7.3-32.49,12.86-13.3,23.77-28.45,37.17-44.81,32.6,126.12,64.75,250.29,96.59,373.26,37.5-6.76,73.04-14.5,108.91-19.18,50.8-6.65,101.38-4.47,150.54,11.99,40.33,13.51,74.56,35.65,100.08,73.15-2.62-.88-3.71-1.1-4.36-1.64Z" style="fill: #001937;"/>
          <path d="M1177.42,1539.82c-2.62-1.53-5.24-3.05-7.96-4.47,2.73,1.41,5.34,2.83,7.96,4.47m-292.7-5.02c10.46,43.38,20.82,86.66,31.28,129.95,127.22-19.51,242.99-.33,340.34,91.14-1.2-3.27-2.4-6.65-3.6-9.92-24.53-68.35-49.05-136.7-73.47-205.16-43.38-26.17-90.38-36.52-138.12-36.52-52.64,.11-106.06,12.64-156.42,30.52m1.97-21.26c47.86-11.12,97.13-17.66,146.3-15.26,51.56,2.4,102.91,16.02,146.95,42.95,.54,.33,1.2,.65,1.75,1.09-.11-.22-2.94-6.1-3.16-6.76v-.22c-30.63-64.75-63.12-129.29-96.81-192.62-2.94-5.56-6.1-11.56-9.48-17.88-72.93-23.33-148.8,8.72-212.47,43.71-7.96-16.46-16.02-33.03-23.77-49.6-2.84-5.89-5.56-11.88-8.4-17.88,21.25,70.53,40.65,141.39,59.08,212.47m-65.63-325.08c-4.8,1.64-9.7,3.38-14.5,5.13,2.07,4.8,4.14,9.7,4.14,9.7,20.17,47.75,39.03,96.48,56.8,145.21,31.5-12.75,63.99-23.12,97.57-28.78,35.87-6.1,73.37-6.1,108.03,5.56-.11-.11-2.18-3.49-2.4-3.7h0v-.11c-28.77-45.02-58.76-89.17-89.71-132.67-1.97-2.84-4.14-5.78-6.65-7.96-5.13-4.58-11.34-7.19-17.99-8.72-7.08-1.75-14.18-3.05-21.48-3.6-3.81-.22-7.74-.33-11.56-.33-34.99-.11-69.34,9.49-102.26,20.28m452.4-99.53c26.6,41.1,53.19,82.52,79.04,123.73,15.26,24.74,34.55,55.05,49.6,79.58l-12.21,7.74c-87.43,55.27-165.26,128.63-185.98,234.16,21.8,60.94,43.6,121.99,65.4,182.92,3.7,10.24,7.3,20.5,11.99,33.47,15.8-135.61,93.54-224.24,204.18-289.76-63.23-130.27-126.23-260.21-189.68-390.92-7.63,6.34-15.04,12.66-22.34,19.09m-78.5-26.17c-7.74,7.41-15.37,15.04-22.89,22.78,16.13,18.21,32.16,36.63,48.19,54.94l-8.18,6.43c-45.68,36.3-91.57,79.47-113.48,134.19,7.19,16.24,14.83,34.01,21.8,50.14,25.61,59.52,50.69,119.37,74.34,179.65,2.94,7.74,5.45,15.91,9.05,23.55h0c3.49-105.42,75.55-190.22,156.98-250.62-11.88-17.12-26.17-37.61-36.41-52.87-39.9-58.32-80.01-118.5-118.93-177.91-3.59,3.29-7.08,6.45-10.46,9.72m-347.64-9.81c-4.58,.43-9.37,1.09-14.5,2.4-22.24,5.78-46.22,19.4-70.86,36.41-5.02,3.49-10.03,7.19-15.48,11.01,17.12,26.93,34.01,53.42,50.91,80.01,44.81-38.49,86.88-64.1,124.82-66.72-.54-.54-1.09-1.09-1.64-1.53-19.51-18.97-39.14-37.93-58.43-57.13-3.05-2.94-6.97-4.47-12.21-4.47-.86-.09-1.74-.09-2.61,0m217.81-18.31c-25.83,28.89-53.53,65.29-62.8,103.45-1.97,9.37-3.6,19.62,.11,28.56,.54,1.41,1.3,2.73,2.07,4.03,8.94,14.94,17.88,29.98,26.6,45.13,17.12,29.33,34.01,58.76,50.14,88.63,2.07,3.92,4.47,9.05,6.87,12.86,1.75-72.5,51.13-131.9,102.91-178.78-8.4-8.83-16.68-17.55-24.96-26.38-29-30.85-57.78-61.92-86.23-93.32-5.01,5.23-9.91,10.46-14.71,15.8m-327.15-42.73c-2.73,1.64-5.56,3.6-8.51,6.1-12.97,10.68-26.71,27.25-40.88,46.22-2.84,3.92-5.78,7.85-8.83,12.1,10.57,12.75,21.15,25.4,31.61,37.93,25.51-39.57,49.71-69.77,71.95-83.07-.33-.22-.65-.33-.98-.54-11.88-6.76-23.77-13.4-35.54-20.39-.76-.43-1.64-.65-2.51-.65-1.84,0-3.91,.77-6.31,2.3m132.45,17.12c-3.38,9.92-5.24,19.07-5.13,27.25,.11,5.45,1.53,9.7,4.58,12.64,18.64,17.88,37.06,35.98,55.49,53.96,1.64,1.64,3.38,3.27,5.45,5.34,.98-38.38,25.72-81.33,63.01-127-27.04-16.24-54.07-32.49-81.22-48.73-18.63,26.5-33.89,52.01-42.18,76.54m-119.8-53.75c-1.75,7.74-2.73,14.39-2.4,19.84,.11,3.6,1.09,6,2.94,7.08,11.34,6.21,22.45,12.64,33.68,19.07,.98,.54,2.07,1.2,3.27,1.86-.22-26.06,13.4-62.46,34.34-104.54-16.24-2.51-32.49-5.13-48.73-7.63-10.24,23.55-18.75,45.35-23.11,64.32" style="fill: url(#Degradado_sin_nombre);"/>
          <g>
            <polygon points="406.48 1016.23 432.43 1082.73 505.58 1088.29 448.45 1135.6 467.75 1204.93 406.48 1168.3 345.11 1204.93 364.51 1135.6 307.28 1088.29 380.54 1082.73 406.48 1016.23" style="fill: #3c88ba;"/>
            <polygon points="486.71 791.99 485.84 863.39 551.69 895.99 480.94 918.44 472.87 989.85 429.81 932.94 359.17 943.96 403.1 886.94 367.78 821.65 437.77 843.99 486.71 791.99" style="fill: #5fafac;"/>
            <polygon points="645.11 614.2 617.64 680.03 666.37 734.87 592.46 729.2 558.23 792.43 539.48 723.53 470.04 707.29 532.06 670.88 523.78 597.08 580.25 643.95 645.11 614.2" style="fill: #afb85d;"/>
            <polygon points="858.67 508.56 808.41 559.36 833.16 628.47 766.66 595.44 711.28 641.34 719.79 570.37 661.36 529.27 732.54 518.8 752.49 447.3 787.37 511.94 858.67 508.56" style="fill: #ed9e5b;"/>
            <polygon points="1096.09 490.68 1030.58 518.91 1027.64 592.28 978.37 536.79 909.79 558.48 944.25 496.02 905.54 436.06 975.42 452.86 1020.66 394.09 1028.83 467.13 1096.09 490.68" style="fill: #ec453d;"/>
            <polygon points="1323.06 563.07 1251.66 564.7 1221.46 631.63 1196.6 561.75 1124.88 556.2 1180.26 511.07 1166.74 440.97 1225.28 482.83 1289.27 445.22 1269.43 515.97 1323.06 563.07" style="fill: #df3468;"/>
            <polygon points="1506.31 715.25 1439.6 689.95 1386.51 740.65 1389.56 666.52 1325.13 634.57 1393.38 613.43 1407.22 543.44 1445.7 604.16 1519.18 593.26 1474.26 651.48 1506.31 715.25" style="fill: #9c3682;"/>
            <polygon points="1619.36 924.88 1566.82 876.48 1498.57 903.62 1529.2 836.03 1481.57 782.18 1552.64 788.29 1591.67 728.44 1604.75 799.18 1676.81 816.63 1613.47 853.8 1619.36 924.88" style="fill: #715ea0;"/>
          </g>
          <path d="M1000.1,751.1v101.36c0,19.64-2.4,35.13-20.18,35.13s-20.18-15.49-20.18-35.13v-101.36h-20.18v100.49c0,31.75,7.31,52.7,40.37,52.7s40.26-20.95,40.26-52.7v-100.49h-20.07Zm95.25,29.9l12.77,68.3h-25.2l12.43-68.3Zm-10.36-29.9l-32.18,151.55h19.85l7.31-38.19h30.88l6.87,38.19h19.96l-32.4-151.55h-20.29Zm200,0v151.55h19.96v-86.74c4.47-3.93,9.93-7.09,14.62-7.09,6.87,0,8.62,4.47,8.62,12.11v81.72h19.96v-87.51c0-10.47-3.38-22.04-16.04-22.04-11.02,0-19.85,5.78-27.17,12.77v-54.66h-19.96v-.11h0Zm-116.75,49.32v53.46c0,28.26,8.62,50.3,40.81,50.3,29.79,0,38.19-18.88,38.19-46.81v-11.24h-19.96v11.24c0,18.01-.98,30.12-18.01,30.12-14.62,0-19.64-7.52-19.64-30.34v-60.01c0-18.66,1.64-31.1,19.64-31.1s18.01,11.57,18.01,28.48v10.69h19.96v-12c0-27.28-9.93-43.54-38.19-43.54-32.19,.12-40.81,20.08-40.81,50.74" style="fill: #fff;"/>
        </g>
        <g>
          <path d="M255.2,2057.85v207.32h-50.5v-207.32h50.5Z" style="fill: #001937;"/>
          <path d="M477.29,2265.17h-50.5l-84.47-127.88v127.88h-50.5v-207.32h50.5l84.47,128.47v-128.47h50.5v207.32Z" style="fill: #001937;"/>
          <path d="M651.54,2123.42c-3.74-6.89-9.11-12.15-16.1-15.8-6.99-3.64-15.21-5.46-24.66-5.46-16.35,0-29.44,5.37-39.28,16.1-9.85,10.73-14.77,25.06-14.77,42.97,0,19.1,5.17,34.01,15.5,44.74,10.34,10.73,24.56,16.1,42.68,16.1,12.4,0,22.89-3.15,31.45-9.45,8.56-6.3,14.81-15.36,18.75-27.17h-64.09v-37.21h109.86v46.96c-3.74,12.6-10.09,24.32-19.05,35.14-8.96,10.83-20.33,19.59-34.11,26.28-13.78,6.7-29.34,10.04-46.66,10.04-20.48,0-38.74-4.48-54.78-13.44-16.05-8.96-28.55-21.41-37.51-37.36-8.96-15.95-13.44-34.16-13.44-54.64s4.48-38.74,13.44-54.78c8.96-16.05,21.41-28.55,37.36-37.51,15.95-8.96,34.16-13.44,54.64-13.44,24.81,0,45.73,6.01,62.76,18.02,17.03,12.01,28.3,28.65,33.82,49.91h-55.82Z" style="fill: #001937;"/>
          <path d="M789.45,2098.31v41.94h67.63v38.98h-67.63v45.48h76.49v40.46h-126.99v-207.32h126.99v40.46h-76.49Z" style="fill: #001937;"/>
          <path d="M1084.19,2265.17h-50.5l-84.46-127.88v127.88h-50.5v-207.32h50.5l84.46,128.47v-128.47h50.5v207.32Z" style="fill: #001937;"/>
          <path d="M1171.31,2057.85v207.32h-50.5v-207.32h50.5Z" style="fill: #001937;"/>
          <path d="M1258.44,2098.31v41.94h67.63v38.98h-67.63v45.48h76.49v40.46h-126.99v-207.32h126.99v40.46h-76.49Z" style="fill: #001937;"/>
          <path d="M1473.43,2265.17l-43.12-78.26h-12.11v78.26h-50.5v-207.32h84.76c16.34,0,30.27,2.86,41.79,8.56,11.52,5.71,20.13,13.54,25.84,23.48,5.71,9.94,8.56,21.02,8.56,33.22,0,13.78-3.89,26.09-11.67,36.92-7.78,10.83-19.25,18.51-34.41,23.04l47.84,82.1h-57Zm-55.23-114h31.3c9.25,0,16.19-2.26,20.82-6.79,4.62-4.53,6.94-10.93,6.94-19.2s-2.32-14.07-6.94-18.61c-4.63-4.53-11.57-6.79-20.82-6.79h-31.3v51.39Z" style="fill: #001937;"/>
          <path d="M1619.92,2016.21l-71.17,29.83v-34.85l71.17-34.26v39.28Zm-9.16,41.64v207.32h-50.5v-207.32h50.5Z" style="fill: #001937;"/>
          <path d="M1776.44,2228.55h-77.38l-12.4,36.62h-52.86l75.01-207.32h58.48l75.01,207.32h-53.45l-12.4-36.62Zm-12.99-38.98l-25.69-75.9-25.4,75.9h51.09Z" style="fill: #001937;"/>
          <path d="M422.61,2449.59c-8.59,8.3-21.7,12.45-39.31,12.45h-29.02v63.02h-19.71v-150.95h48.73c17.03,0,30,4.11,38.87,12.34,8.88,8.23,13.32,18.84,13.32,31.84s-4.3,22.99-12.89,31.3Zm-15.05-10.94c5.2-4.76,7.8-11.55,7.8-20.36,0-18.63-10.69-27.94-32.05-27.94h-29.02v55.44h29.02c10.97,0,19.06-2.38,24.26-7.15Z" style="fill: #001937;"/>
          <path d="M479.67,2509.04h52.84v16.03h-72.55v-150.95h19.71v134.93Z" style="fill: #001937;"/>
          <path d="M642.75,2491.5h-65.84l-12.13,33.57h-20.79l54.58-150.09h22.74l54.36,150.09h-20.79l-12.13-33.57Zm-5.63-16.03l-27.29-76.24-27.29,76.24h54.58Z" style="fill: #001937;"/>
          <path d="M818.18,2525.07h-19.71l-79.27-120.2v120.2h-19.71v-151.17h19.71l79.27,119.98v-119.98h19.71v151.17Z" style="fill: #001937;"/>
          <path d="M912.17,2409.74c6.64-11.77,15.7-20.97,27.18-27.61,11.48-6.64,24.22-9.96,38.22-9.96,16.46,0,30.83,3.97,43.1,11.91,12.27,7.94,21.23,19.2,26.86,33.79h-23.61c-4.19-9.1-10.22-16.1-18.08-21.01-7.87-4.91-17.29-7.36-28.26-7.36s-20,2.46-28.37,7.36c-8.38,4.91-14.94,11.88-19.71,20.9-4.76,9.03-7.15,19.6-7.15,31.73s2.38,22.49,7.15,31.51c4.76,9.02,11.33,15.99,19.71,20.9,8.37,4.91,17.83,7.36,28.37,7.36s20.39-2.42,28.26-7.26c7.87-4.84,13.89-11.8,18.08-20.9h23.61c-5.63,14.44-14.58,25.59-26.86,33.46-12.27,7.87-26.64,11.8-43.1,11.8-14.01,0-26.75-3.28-38.22-9.85-11.48-6.57-20.54-15.7-27.18-27.4-6.64-11.7-9.96-24.91-9.96-39.63s3.32-27.97,9.96-39.74Z" style="fill: #001937;"/>
          <path d="M1106.87,2516.73c-11.55-6.57-20.68-15.74-27.4-27.51-6.71-11.77-10.07-25.01-10.07-39.74s3.36-27.97,10.07-39.74c6.71-11.77,15.84-20.93,27.4-27.5,11.55-6.57,24.33-9.85,38.33-9.85s27,3.29,38.55,9.85c11.55,6.57,20.65,15.7,27.29,27.4,6.64,11.7,9.96,24.98,9.96,39.85s-3.32,28.16-9.96,39.85c-6.64,11.7-15.74,20.83-27.29,27.4-11.55,6.57-24.4,9.85-38.55,9.85s-26.78-3.28-38.33-9.85Zm66.81-14.62c8.45-4.91,15.09-11.91,19.93-21.01,4.84-9.1,7.26-19.63,7.26-31.62s-2.42-22.7-7.26-31.73c-4.84-9.02-11.45-15.99-19.82-20.9-8.38-4.91-17.9-7.36-28.59-7.36s-20.22,2.46-28.59,7.36c-8.38,4.91-14.98,11.88-19.82,20.9-4.84,9.03-7.26,19.6-7.26,31.73s2.42,22.52,7.26,31.62c4.84,9.1,11.48,16.1,19.93,21.01,8.45,4.91,17.94,7.36,28.48,7.36s20.03-2.45,28.48-7.36Z" style="fill: #001937;"/>
          <path d="M1400.12,2375.2v149.87h-19.71v-111.75l-49.81,111.75h-13.86l-50.03-111.97v111.97h-19.71v-149.87h21.22l55.44,123.88,55.44-123.88h21.01Z" style="fill: #001937;"/>
          <path d="M1452.74,2374.11v95.51c0,13.43,3.28,23.39,9.85,29.89,6.57,6.5,15.7,9.75,27.4,9.75s20.61-3.25,27.18-9.75c6.57-6.5,9.85-16.46,9.85-29.89v-95.51h19.71v95.29c0,12.56-2.53,23.14-7.58,31.73-5.06,8.59-11.88,14.98-20.47,19.17-8.59,4.19-18.23,6.28-28.91,6.28s-20.32-2.09-28.91-6.28c-8.59-4.19-15.38-10.58-20.36-19.17-4.98-8.59-7.47-19.17-7.47-31.73v-95.29h19.71Zm58.26-32.7l-46.13,24.69v-14.73l46.13-27.07v17.11Z" style="fill: #001937;"/>
          <path d="M1698.34,2525.07h-19.71l-79.27-120.2v120.2h-19.71v-151.17h19.71l79.27,119.98v-119.98h19.71v151.17Z" style="fill: #001937;"/>
        </g>
      </g>
    </g>
  </g>
</svg>