<?xml version="1.0" encoding="UTF-8"?>
<svg id="Layer_2" data-name="Layer 2" xmlns="http://www.w3.org/2000/svg" viewBox="0 0 640 120">
  <g id="Logos-Acustica-Horizontal">
    <g id="Logo-Acustica-Horizontal-Blanco">
      <rect width="640" height="120" style="fill: none;"/>
      <g>
        <g>
          <path d="M159.96,20.85c1.57,3.61,2.9,7.31,4.09,11.06,1.06,3.34,1.9,6.74,2.5,10.19,.34,1.93,.63,3.86,.8,5.81,.15,1.73,.28,3.46,.36,5.19,.08,2.02,.07,4.04-.02,6.07-.07,1.83-.21,3.66-.4,5.49-.24,2.26-.58,4.51-1.01,6.75-.77,3.99-1.83,7.89-3.19,11.72-1.09,3.08-2.24,6.14-3.55,9.14-.91,2.1-1.91,4.16-3.15,6.09-.3,.47-.63,.93-.96,1.43,.24,.14,.48,.27,.77,.44,.06-.08,.09-.14,.14-.19,2.16-2.2,3.99-4.64,5.59-7.27,1.71-2.8,3.13-5.74,4.37-8.77,1.63-3.99,2.85-8.1,3.69-12.33,.43-2.15,.76-4.31,1-6.48,.22-1.98,.37-3.96,.43-5.95,.07-2.53,.07-5.06-.1-7.59-.1-1.53-.21-3.07-.36-4.59-.25-2.5-.65-4.97-1.17-7.43-.83-3.92-1.98-7.75-3.52-11.45-2.42-5.84-5.7-11.15-9.88-15.9-.07-.08-.15-.16-.23-.25-.26,.18-.49,.34-.74,.51,.3,.45,.59,.86,.87,1.28,1.44,2.22,2.6,4.59,3.66,7.02Z" style="fill: #fff;"/>
          <path d="M71.13,47.94c-.21,2.15-.34,4.3-.39,6.45-.07,2.85,0,5.7,.23,8.55,.17,2.11,.42,4.2,.76,6.28,.47,2.84,1.1,5.64,1.92,8.4,1.41,4.77,3.29,9.35,5.75,13.69,1.58,2.79,3.4,5.41,5.56,7.78,.33,.37,.68,.72,1.03,1.09,.27-.15,.5-.29,.75-.43-.05-.08-.08-.13-.11-.17-.87-1.2-1.62-2.48-2.31-3.79-1.02-1.94-1.89-3.95-2.7-5.98-1.44-3.6-2.81-7.23-3.9-10.95-1.01-3.45-1.81-6.95-2.34-10.5-.27-1.84-.49-3.68-.66-5.53-.14-1.51-.21-3.02-.26-4.53-.07-2.1-.05-4.2,.06-6.3,.11-2.12,.29-4.23,.57-6.34,.35-2.67,.84-5.32,1.45-7.95,.67-2.86,1.52-5.67,2.48-8.46,1.21-3.51,2.51-6.99,4.1-10.35,1-2.11,2.1-4.16,3.46-6.07,.05-.07,.09-.14,.16-.24-.25-.17-.48-.34-.74-.51-.1,.1-.17,.17-.23,.24-2.25,2.57-4.26,5.31-6.02,8.24-2.39,3.98-4.26,8.19-5.66,12.61-1.53,4.81-2.47,9.74-2.96,14.76Z" style="fill: #fff;"/>
          <path d="M168.19,25.42c.89,1.95,1.63,3.96,2.28,6.01,1.65,5.13,2.93,10.35,3.52,15.72,.2,1.82,.36,3.65,.42,5.48,.09,2.33,.08,4.66-.03,7-.09,1.91-.24,3.82-.47,5.72-.31,2.62-.75,5.23-1.34,7.8-1.32,5.85-3.34,11.45-6.04,16.8-.04,.08-.07,.16-.11,.25,.12,.09,.23,.18,.4,.31,.05-.08,.08-.13,.12-.17,1.95-2.14,3.64-4.48,5.06-7,1.49-2.65,2.66-5.44,3.56-8.34,1.17-3.76,1.88-7.61,2.27-11.52,.22-2.24,.33-4.48,.36-6.72,.03-3.26-.13-6.52-.56-9.76-.28-2.15-.67-4.28-1.21-6.38-1.16-4.53-2.9-8.83-5.2-12.91-1.11-1.97-2.4-3.81-3.96-5.46-.14-.15-.29-.29-.45-.46-.13,.1-.24,.19-.37,.28,.06,.11,.11,.2,.17,.29,.6,.98,1.12,2.01,1.6,3.05Z" style="fill: #fff;"/>
          <path d="M64.24,62.12c.17,2.18,.44,4.35,.84,6.51,.62,3.38,1.52,6.68,2.8,9.87,1.61,4,3.78,7.67,6.6,10.94,.29,.34,.6,.68,.91,1.02,.14-.11,.26-.21,.38-.3-.06-.13-.11-.23-.16-.33-1.11-2.21-2.11-4.48-3-6.79-2.24-5.86-3.68-11.92-4.39-18.15-.24-2.14-.41-4.29-.46-6.45-.04-1.94-.01-3.89,.03-5.84,.04-1.98,.23-3.95,.46-5.91,.23-1.89,.52-3.77,.9-5.63,.84-4.07,1.97-8.07,3.37-11.98,.79-2.21,1.71-4.36,2.89-6.39,.11-.19,.22-.37,.34-.58-.13-.1-.24-.18-.37-.28-.09,.08-.17,.16-.25,.24-.84,.85-1.6,1.78-2.29,2.75-1.47,2.03-2.65,4.23-3.72,6.49-2.34,4.98-3.86,10.2-4.57,15.66-.27,2.12-.45,4.24-.52,6.38-.06,1.93-.07,3.87,.03,5.8,.05,.99,.09,1.99,.16,2.98Z" style="fill: #fff;"/>
          <path d="M147.85,29.68c1.14,2.21,2.05,4.53,2.9,6.86,1.48,4.07,2.6,8.23,3.14,12.54,.22,1.75,.37,3.5,.42,5.25,.03,1.24,0,2.48-.03,3.71-.04,1.68-.19,3.35-.41,5.02-.35,2.71-.88,5.38-1.64,8.01-1.03,3.57-2.35,7.04-3.87,10.43-.62,1.39-1.34,2.74-2.22,3.99-.06,.08-.11,.16-.17,.26,.18,.1,.35,.18,.53,.28,.14-.15,.27-.29,.4-.42,1.25-1.33,2.35-2.79,3.32-4.34,2.05-3.3,3.55-6.84,4.65-10.56,.76-2.57,1.28-5.19,1.61-7.85,.19-1.57,.32-3.14,.36-4.72,.05-1.88,.05-3.76-.11-5.63-.12-1.43-.24-2.86-.43-4.29-.36-2.64-.94-5.24-1.76-7.78-1.59-4.97-4.02-9.47-7.38-13.46-.22-.26-.45-.52-.68-.78-.18,.13-.34,.24-.51,.35,.04,.06,.06,.1,.08,.14,.68,.94,1.26,1.95,1.79,2.98Z" style="fill: #fff;"/>
          <path d="M96.18,85.73c-.03-.06-.05-.09-.07-.12-.86-1.2-1.56-2.49-2.18-3.82-.93-1.98-1.71-4.03-2.47-6.08-1.43-3.82-2.47-7.74-3.05-11.78-.31-2.15-.5-4.3-.55-6.47-.03-1.15,0-2.3,.03-3.45,.03-1.51,.17-3.02,.35-4.53,.23-1.97,.58-3.91,1.04-5.84,.96-4.02,2.33-7.9,3.97-11.69,.79-1.83,1.7-3.6,2.86-5.22,.03-.04,.04-.1,.07-.16-.16-.11-.31-.22-.52-.36-.06,.09-.1,.16-.16,.23-1.08,1.24-2.09,2.55-3.01,3.92-2.27,3.39-3.95,7.05-5.11,10.95-1.3,4.37-1.91,8.85-2.03,13.4-.05,1.78-.02,3.56,.1,5.34,.13,1.85,.35,3.69,.67,5.52,.73,4.19,2.01,8.21,3.85,12.05,1.27,2.65,2.8,5.14,4.75,7.36,.31,.35,.64,.69,.97,1.05,.19-.11,.35-.2,.5-.3Z" style="fill: #fff;"/>
          <path d="M138.46,33.88c1.6,3,2.73,6.18,3.72,9.42,.82,2.69,1.35,5.44,1.63,8.24,.15,1.52,.23,3.04,.23,4.57,0,1.53-.08,3.05-.24,4.57-.17,1.66-.43,3.31-.78,4.94-.88,4.1-2.35,8.01-4.07,11.82-.35,.76-.72,1.53-1.21,2.21-1.87,2.56-3.04,5.4-3.64,8.49-.44,2.31-.57,4.65-.41,7,.17,2.49,.71,4.89,1.66,7.2,.71,1.72,1.58,3.33,2.79,4.76,.25,.29,.52,.57,.78,.86,.11-.05,.18-.09,.24-.12-.39-.71-.79-1.37-1.13-2.06-.64-1.31-1.14-2.68-1.62-4.06-1.05-3.08-1.52-6.24-1.41-9.49,.04-1.35,.19-2.69,.45-4.02,.54-2.78,1.54-5.39,2.77-7.92,.1-.22,.25-.42,.4-.6,.69-.82,1.32-1.69,1.9-2.59,1.5-2.37,2.64-4.9,3.53-7.55,1.26-3.74,1.91-7.58,2.04-11.51,.09-2.48-.01-4.95-.3-7.41-.27-2.25-.7-4.47-1.35-6.65-1.34-4.55-3.52-8.64-6.63-12.24-.08-.1-.18-.19-.27-.29-.15,.1-.27,.19-.41,.29,.06,.1,.11,.17,.16,.24,.39,.64,.82,1.26,1.17,1.92Z" style="fill: #fff;"/>
          <path d="M107.95,98.7c.51-2.27,.68-4.56,.55-6.88-.09-1.64-.3-3.26-.69-4.85-.62-2.55-1.66-4.91-3.19-7.05-.16-.22-.33-.45-.46-.69-.33-.61-.67-1.22-.97-1.85-.88-1.86-1.6-3.79-2.3-5.72-1.68-4.61-2.58-9.36-2.74-14.26-.07-2.23,.03-4.46,.3-6.68,.24-1.99,.61-3.95,1.11-5.89,.67-2.57,1.55-5.07,2.55-7.53,.64-1.57,1.35-3.1,2.25-4.54,.21-.34,.43-.66,.66-1.02-.14-.1-.27-.19-.41-.28-.08,.08-.14,.14-.2,.21-2.46,2.83-4.37,6-5.73,9.49-1.64,4.21-2.41,8.6-2.6,13.11-.07,1.59-.09,3.18,.05,4.77,.1,1.22,.19,2.45,.37,3.66,.47,3.35,1.37,6.59,2.71,9.71,1.04,2.42,2.27,4.73,3.94,6.77,.57,.69,.97,1.44,1.33,2.24,.04,.09,.08,.18,.12,.27,1.56,3.53,2.55,7.2,2.57,11.09,0,1.74-.13,3.47-.44,5.18-.37,2.05-1.03,4.02-1.8,5.95-.53,1.33-1.09,2.64-1.92,3.81,0,.01,0,.04,0,.07,.07,.04,.15,.08,.24,.13,.64-.63,1.19-1.3,1.67-2.01,1.48-2.2,2.45-4.62,3.04-7.2Z" style="fill: #fff;"/>
          <path d="M121.09,62.06c3.46,0,6.22-2.87,6.17-6.18,.05-3.29-2.69-6.16-6.15-6.17-3.33-.01-6.19,2.7-6.2,6.17,0,3.45,2.82,6.19,6.17,6.19Z" style="fill: #fff;"/>
          <path d="M144.44,39.3c.77,1.74,1.32,3.56,1.84,5.39,.73,2.62,1.21,5.28,1.41,7.98,.1,1.34,.14,2.69,.11,4.04-.04,1.81-.17,3.62-.41,5.42-.38,2.75-1.01,5.43-1.94,8.04-.65,1.82-1.4,3.59-2.41,5.26-1.72,2.84-2.54,5.98-2.75,9.29-.09,1.46-.07,2.92,.04,4.37,.12,1.48,.35,2.94,.75,4.37,.65,2.35,1.7,4.5,3.31,6.35,.08,.09,.16,.18,.25,.27,.09,.09,.15,.04,.21-.06-.02-.04-.04-.1-.06-.14-1.82-3.62-2.8-7.46-3.03-11.49-.13-2.33-.03-4.66,.39-6.97,.41-2.23,1.02-4.41,1.9-6.51,.06-.14,.14-.28,.23-.39,1.48-1.79,2.62-3.77,3.48-5.92,1.05-2.64,1.64-5.38,1.93-8.2,.22-2.15,.27-4.3,.16-6.46-.09-1.83-.3-3.63-.69-5.42-.68-3.17-1.86-6.15-3.53-8.93-.56-.93-1.21-1.79-1.97-2.58-.04-.05-.1-.08-.15-.12-.05,.03-.09,.05-.12,.08-.02,.02-.04,.05-.07,.09,.04,.08,.08,.15,.12,.23,.34,.67,.71,1.33,1.01,2.01Z" style="fill: #fff;"/>
          <path d="M98.85,74.92c-.35-.55-.65-1.12-.92-1.72-2.37-5.34-3.49-10.95-3.56-16.77-.02-1.39,.02-2.79,.17-4.17,.12-1.15,.25-2.31,.44-3.45,.31-1.95,.83-3.87,1.41-5.76,.63-2.05,1.35-4.07,2.46-5.92,0-.02,0-.04,0-.08-.04-.04-.1-.08-.17-.13-.06,.05-.1,.08-.14,.12-.56,.57-1.06,1.19-1.51,1.85-1.23,1.79-2.12,3.75-2.88,5.77-1.17,3.13-1.7,6.38-1.83,9.7-.08,1.95-.03,3.89,.16,5.83,.21,2.13,.58,4.22,1.2,6.27,.89,2.96,2.26,5.68,4.24,8.08,.09,.11,.17,.24,.22,.37,.3,.82,.62,1.63,.89,2.46,.81,2.52,1.3,5.09,1.42,7.73,.06,1.47,.03,2.94-.11,4.41-.17,1.79-.49,3.55-.97,5.27-.49,1.74-1.14,3.42-1.95,5.03-.04,.08-.15,.17-.03,.26,.12,.09,.17-.04,.24-.1,.02-.02,.04-.05,.07-.08,1.2-1.34,2.1-2.87,2.76-4.53,.89-2.22,1.3-4.54,1.44-6.91,.13-2.36,.05-4.71-.45-7.03-.49-2.31-1.33-4.49-2.6-6.49Z" style="fill: #fff;"/>
          <path d="M155.16,36.54c.8,1.99,1.41,4.04,1.98,6.11,.95,3.47,1.5,7,1.69,10.58,.1,1.97,.08,3.93-.03,5.9-.12,2.05-.35,4.1-.7,6.12-.64,3.63-1.65,7.14-3.08,10.54-.47,1.11-1,2.19-1.5,3.28-.03,.06-.04,.12-.06,.19,.08,.06,.15,.11,.26,.19,.36-.42,.71-.81,1.03-1.21,2.36-2.89,3.97-6.18,5.04-9.74,1.08-3.64,1.53-7.37,1.63-11.15,.05-1.84,0-3.67-.16-5.5-.17-1.95-.47-3.88-.92-5.79-.63-2.68-1.61-5.23-2.83-7.7-.81-1.63-1.74-3.18-2.92-4.57-.28-.33-.57-.64-.87-.97-.1,.08-.18,.13-.26,.2,.04,.08,.07,.15,.11,.22,.64,1.05,1.15,2.17,1.61,3.3Z" style="fill: #fff;"/>
          <path d="M81.47,47.84c-.44,2.31-.65,4.64-.7,6.99-.05,2.06,.03,4.11,.22,6.16,.21,2.23,.58,4.43,1.16,6.59,.87,3.25,2.18,6.3,4.11,9.08,.64,.93,1.34,1.81,2.11,2.64,.04,.04,.08,.06,.13,.1,.08-.06,.15-.11,.24-.18-.06-.12-.1-.21-.14-.3-2.79-5.55-4.44-11.43-5.06-17.61-.2-2.03-.28-4.06-.25-6.09,.02-1.62,.12-3.25,.29-4.86,.17-1.54,.4-3.07,.71-4.58,.55-2.62,1.27-5.19,2.16-7.72,.6-1.69,1.29-3.34,2.22-4.88,.02-.04,.03-.08,.05-.14-.08-.06-.16-.12-.28-.2-.08,.1-.14,.19-.22,.27-.69,.72-1.31,1.5-1.85,2.34-2.46,3.81-4.06,7.96-4.9,12.41Z" style="fill: #fff;"/>
          <path d="M134.25,64.42c-.56,2.36-1.41,4.63-2.32,6.87-.55,1.35-1.17,2.67-2.02,3.87-.02,.02-.02,.06-.04,.11,.11,.05,.21,.11,.31,.16,.15-.15,.27-.27,.39-.4,1.44-1.57,2.54-3.37,3.44-5.29,1.76-3.77,2.66-7.74,2.83-11.88,.05-1.2,.01-2.41-.03-3.61-.07-2.1-.38-4.18-.87-6.23-.95-3.93-2.65-7.49-5.25-10.6-.16-.19-.33-.38-.5-.59-.12,.08-.22,.14-.29,.19,.46,.83,.93,1.6,1.34,2.41,.82,1.62,1.44,3.32,2.03,5.04,1.1,3.18,1.77,6.45,1.93,9.82,.08,1.62,.05,3.25-.09,4.87-.16,1.78-.44,3.53-.86,5.26Z" style="fill: #fff;"/>
          <path d="M105.27,56.09c-.01,1.86,.12,3.71,.41,5.55,.45,2.88,1.29,5.64,2.54,8.27,.87,1.83,1.92,3.54,3.29,5.04,.15,.16,.3,.31,.46,.47,.12-.07,.21-.13,.31-.19-.04-.06-.07-.11-.09-.16-.38-.65-.79-1.28-1.13-1.95-.8-1.58-1.41-3.24-2.01-4.9-1.44-3.95-2.13-8.04-2.15-12.25,0-.84,.05-1.68,.11-2.52,.1-1.65,.35-3.27,.71-4.88,.56-2.52,1.4-4.95,2.38-7.34,.58-1.42,1.25-2.81,2.14-4.07,.02-.03,.02-.06,.03-.11-.1-.07-.19-.13-.28-.19-.04,.02-.06,.03-.08,.04-.08,.08-.15,.16-.22,.25-2.4,2.81-4.09,6-5.12,9.54-.9,3.07-1.27,6.21-1.29,9.39Z" style="fill: #fff;"/>
          <path d="M135.56,42.98c1.13,2.67,1.88,5.45,2.3,8.31,.28,1.88,.38,3.78,.32,5.69-.06,1.67-.21,3.33-.49,4.98-.45,2.59-1.2,5.09-2.27,7.5-.21,.47-.44,.94-.66,1.41-.06,.12-.11,.23,.09,.29,.04-.03,.07-.05,.09-.07,.08-.09,.16-.18,.24-.27,1.53-1.76,2.62-3.77,3.36-5.97,.75-2.24,1.12-4.54,1.24-6.89,.09-1.66,.06-3.31-.1-4.97-.21-2.09-.65-4.12-1.4-6.08-.61-1.58-1.33-3.11-2.33-4.49-.33-.46-.68-.89-1.09-1.28-.23,.05-.16,.16-.09,.29,.27,.52,.56,1.03,.79,1.57Z" style="fill: #fff;"/>
          <path d="M102.36,57.48c.07,1.69,.26,3.37,.62,5.03,.55,2.49,1.46,4.82,2.93,6.91,.42,.61,.88,1.19,1.4,1.73,.06-.04,.11-.08,.16-.11,0-.04,0-.06-.02-.08-.03-.07-.07-.14-.1-.21-1.27-2.56-2.19-5.24-2.74-8.04-.34-1.74-.54-3.49-.62-5.26-.08-1.77-.01-3.54,.19-5.3,.21-1.85,.6-3.66,1.12-5.45,.55-1.87,1.15-3.72,2.15-5.41,0-.02,0-.04,.01-.06-.13-.18-.23-.07-.31,.04-.43,.54-.89,1.05-1.26,1.62-2.05,3.21-3.15,6.75-3.45,10.54-.11,1.35-.13,2.69-.08,4.04Z" style="fill: #fff;"/>
        </g>
        <g>
          <path d="M214.34,40.67l-14.4,34.79h7.15l3.55-8.61h15.02l3.44,8.61h7.2l-14.08-34.79h-7.88Zm-2.03,20.97l5.89-14.92,5.74,14.92h-11.63Z" style="fill: #fff;"/>
          <path d="M240.88,53.04c-2.35,2.35-3.6,5.79-3.6,9.96,0,3.7,1.2,7.09,3.23,9.28,2.14,2.3,4.8,3.18,9.81,3.18h8.76v-4.64h-7.82c-2.87,0-4.28-.36-5.48-1.36-1.62-1.3-2.45-3.49-2.45-6.57,0-5.89,2.14-8.19,7.56-8.19h8.19v-4.64h-8.76c-4.69,0-7.25,.83-9.44,2.97Z" style="fill: #fff;"/>
          <path d="M281.04,70.82h-6.05c-3.7,0-4.95-1.3-4.95-5.27v-15.49h-5.89v15.28c0,3.44,.57,5.58,1.98,7.3,1.83,2.24,3.6,2.82,8.55,2.82h12.26v-25.4h-5.89v20.76Z" style="fill: #fff;"/>
          <polygon points="272.23 46.93 276.24 46.93 282.66 40.15 276.97 40.15 272.23 46.93" style="fill: #fff;"/>
          <path d="M314,61.75c-1.36-.99-2.97-1.3-6.78-1.3h-3.76c-3.91,0-4.8-.52-4.8-2.82,0-1.1,.31-1.93,.94-2.4,.63-.42,1.3-.52,3.86-.52h11.84v-4.64h-13.72c-2.87,0-4.49,.31-5.79,1.04-1.98,1.2-3.23,3.65-3.23,6.36,0,2.5,1.04,4.9,2.66,6.31,1.51,1.2,2.97,1.51,7.41,1.51h3.08c1.98,0,2.82,.05,3.29,.21,.99,.31,1.46,1.2,1.46,2.61s-.47,2.19-1.41,2.45c-.63,.21-1.72,.26-3.86,.26h-12.31v4.64h13.87c3.39,0,4.8-.16,5.89-.68,2.29-.99,3.76-3.86,3.76-7.2,0-2.56-.89-4.75-2.4-5.84Z" style="fill: #fff;"/>
          <path d="M329.7,40.67h-5.89v9.39h-4.64v4.64h4.64v12.26c0,3.65,.52,5.42,1.93,6.83,1.36,1.25,2.82,1.67,6,1.67h5.01v-4.64h-2.87c-3.55,0-4.17-.68-4.17-4.64v-11.47h7.04v-4.64h-7.04v-9.39Z" style="fill: #fff;"/>
          <rect x="341.64" y="50.06" width="5.89" height="25.4" style="fill: #fff;"/>
          <rect x="341.64" y="40.67" width="5.89" height="5.95" style="fill: #fff;"/>
          <path d="M365.9,75.46h8.76v-4.64h-7.82c-2.87,0-4.28-.36-5.48-1.36-1.62-1.3-2.45-3.49-2.45-6.57,0-5.89,2.14-8.19,7.56-8.19h8.19v-4.64h-8.76c-4.69,0-7.25,.83-9.44,2.97-2.35,2.35-3.6,5.79-3.6,9.96,0,3.7,1.2,7.09,3.23,9.28,2.14,2.3,4.8,3.18,9.81,3.18Z" style="fill: #fff;"/>
          <path d="M382.58,60.81c-2.45,1.1-3.96,3.81-3.96,7.04,0,2.56,.99,4.75,2.76,6.1,1.67,1.25,3.08,1.51,8.24,1.51h13.67v-15.28c0-4.02-.47-5.84-1.93-7.56-1.67-1.98-3.6-2.56-8.92-2.56h-12.47v4.64h11.89c2.92,0,4.02,.36,4.8,1.46,.63,.89,.73,1.62,.73,3.81h-8.81c-2.92,0-4.8,.26-6,.83Zm14.81,3.81v6.21h-8.29c-3.18,0-4.43-.83-4.43-3.03,0-1.41,.63-2.45,1.67-2.87,.63-.26,1.2-.31,2.76-.31h8.29Z" style="fill: #fff;"/>
          <path d="M440.91,65.74c0,5.12-2.33,6.34-14.79,6.34s-14.93-1.21-14.93-6.34v-25.17h-4.12v25.17c0,7.6,3.45,9.35,19.09,9.35s18.92-1.75,18.92-9.35v-25.17h-4.17v25.17Z" style="fill: #fff;"/>
          <path d="M469.91,40.57l-20.3,34.11h4.35l5.11-8.72h26.04l5.02,8.72h4.44l-19.68-34.11h-4.98Zm-9.05,22.38l11.43-19.41,11.12,19.41h-22.55Z" style="fill: #fff;"/>
          <path d="M538.66,62.5h-3.94c-.09,6.34-1.93,9.62-15.6,9.62-15.24,0-16.14-3.73-16.14-14.52s.94-14.52,16.14-14.52c13.72,0,15.51,2.97,15.6,8.81h3.94c0-7.1-1.57-11.82-19.54-11.82s-20.35,5.62-20.35,17.53,2.06,17.48,20.35,17.48,19.54-4.94,19.54-12.58Z" style="fill: #fff;"/>
          <path d="M576,74.68v-18.29c0-4.09-1.79-6.07-12.95-6.07-8.96,0-12.33,2.2-14.16,4.09v-13.84h-3.81v34.11h3.81v-17.03c1.34-2.02,5.29-4.67,13.09-4.67,8.96,0,10.26,1.44,10.26,4.18v17.53h3.76Z" style="fill: #fff;"/>
        </g>
        <text transform="translate(342.34 91.77)" style="fill: #fff; font-family: Helvetica, Helvetica; font-size: 13.85px;"><tspan x="0" y="0" style="letter-spacing: .43em;">ww</tspan><tspan x="31.77" y="0" style="letter-spacing: .37em;">w</tspan><tspan x="46.89" y="0" style="letter-spacing: .42em;">.acusticauach.cl</tspan></text>
      </g>
    </g>
  </g>
</svg>