<?xml version="1.0" encoding="UTF-8"?>
<svg id="Layer_2" data-name="Layer 2" xmlns="http://www.w3.org/2000/svg" viewBox="0 0 2047 1187.77">
  <g id="Logos-IngNaval">
    <g id="Logo-IngNaval-Oficial-FondoPantone2758C">
      <rect width="2047" height="1187.77" style="fill: #fefefe;"/>
      <path d="M383.43,347.16c24.41-6.86,48.8-13.71,72.42-20.35,3.71,2.26,7.58,4.28,11.37,6.47,4.89,2.59,9.99,4.79,14.99,7.21,5.16,2.02,10.32,4.04,15.46,6.05,5.24,1.72,10.45,3.43,15.63,5.13,1.28,.37,2.53,.69,3.8,1.06-.21,10.13-.45,22.25-.73,35.95-.04,3.6-.09,7.42-.15,11.22-11.3-.11-23-.22-35.02-.34-4.56-.02-9.26-.03-13.9-.05-9.59-3.58-19.18-7.39-28.51-11.75-12.76-5.7-25.28-11.99-36.8-19.41-9.1-5.75-17.69-12.23-25.35-19.33,2.26-.62,4.52-1.24,6.79-1.86Zm-12.68-3.87c.44,.46,.94,.89,1.39,1.35,3.28-.92,6.55-1.84,9.83-2.76,22.96-6.28,45.87-12.54,68.18-18.64-8.28-5.3-15.84-11.43-22.82-17.73-2.13-2.07-4.16-4.19-6.11-6.35-2.28,.49-6.01,1.29-11.05,2.37-8.68,1.7-21.06,4.3-36.01,6.88-1.65,.28-3.43,.59-5.14,.88,.15,10.42,.3,21.31,.41,32.72l1.33,1.29Zm-214.47,64.9c-6.88,1.79-13.05,3.4-18.49,4.81,2.46,10.42,5.44,21.01,9.2,31.68,6.6,18.82,15.62,37.75,26.89,56,6.72-.12,14.23-.25,22.45-.39-13.86-20.2-24.31-41.71-31.68-62.93-3.42-9.84-6.11-19.57-8.38-29.17Zm2.31-5.29c.2,.86,.45,1.73,.66,2.59,2.68-.79,5.44-1.6,8.31-2.44-3.09-.05-6.08-.1-8.97-.15Zm322.05,1.42c5.49,1.89,11,3.68,16.41,5.51,6.4,1.94,12.72,3.85,18.95,5.73,.06-3.91,.12-7.83,.17-11.58-11.28,.11-22.97,.22-34.96,.33-.19,0-.38,0-.57,0Zm-345.09-1.8c.63,3.12,1.23,6.21,1.96,9.37,5.39-1.59,11.52-3.39,18.35-5.4-.28-1.22-.58-2.44-.84-3.65-7.24-.12-13.75-.22-19.46-.32Zm310.29,101.48c5.47,2.67,10.95,5.33,16.36,8.11,3.12,1.62,6.18,3.34,9.28,5,8.8-4.48,17.52-8.92,26.16-13.32-2.46,.01-4.85,.04-7.34,.05-14.43,.05-29.34,.11-44.46,.17Zm-12.26,.05c-12.59,.05-25.27,.1-37.98,.14-8.66-.03-17.31-.07-25.93-.1-.03,7.57-.06,15.05-.09,22.41,7.59,3.13,15.26,6.15,23.07,9.02,7.99,3.2,15.89,6.59,23.74,10.07,12.48-6.49,25.16-13.09,37.85-19.7,3.88-1.98,7.75-3.95,11.62-5.92-2.02-1.05-4.01-2.17-6.04-3.21-8.66-4.41-17.42-8.61-26.23-12.71Zm62-89.51c-6.48-2.12-13.09-4.14-19.67-6.41-3.49-1.23-6.99-2.48-10.49-3.75-27.26,.1-55.69,.2-84.2,.3-3.83-.01-7.65-.03-11.48-.04,.01,3.43,.03,6.9,.04,10.35,13.47,8.37,27.71,15.95,42.59,22.18,3.85,1.84,7.88,3.27,11.83,4.87,3.95,1.47,7.97,3.34,11.84,4.48,8.2,2.6,16.3,5.32,24.3,8.12,16.01,5.6,31.62,11.49,46.6,17.54,2.87,1.16,5.69,2.33,8.5,3.51,.03-5.73,.05-11.42,.08-17.01,.05-13.29,.22-26.08,.39-38.2-.33-.09-.65-.17-.98-.26-6.36-1.86-12.82-3.76-19.36-5.67Zm-36.9,44.93c-7.98-2.72-16.07-5.38-24.21-7.89-4.34-1.27-8.14-3.03-12.24-4.52-4.01-1.6-8.12-3-12.03-4.87-14.04-6-27.54-13.23-40.39-21.17,.04,8.17,.07,16.37,.11,24.58-.04,8.74-.07,17.46-.11,26.16,15.35,5.47,30.39,11.49,45.3,17.94,6.75,2.94,13.43,6.04,20.09,9.18,18.78,.07,37.31,.14,55.1,.21,5.56,.02,10.98,.06,16.39,.1,2.92-1.49,5.79-2.95,8.68-4.42,.02-4.71,.04-9.4,.06-14.05-3.38-1.38-6.8-2.75-10.25-4.13-14.94-5.91-30.53-11.66-46.5-17.12Zm-134.44,44.45c.96,.58,1.87,1.23,2.85,1.8,12.01,7.18,24.67,13.23,37.69,18.77-.03-6.72-.06-13.52-.09-20.42-13.65-.05-27.2-.1-40.45-.16Zm-128.94-82.26c-2.54-6.13-4.74-12.22-6.78-18.28-4.45-.07-8.8-.14-12.96-.21-5.58,1.45-10.87,2.83-15.83,4.12,2.37,9.47,5.17,19.07,8.68,28.74,7.87,21.74,19,43.62,33.53,64.17,5.22-.09,10.67-.18,16.36-.28,8.6-.09,17.85-.18,27.38-.28-5.54-5.93-10.89-11.98-15.76-18.27-14.77-18.96-26.26-39.39-34.62-59.71Zm35.37-9.29c-1.47-2.86-2.74-5.72-4.07-8.58-11.43-.11-22.35-.21-32.55-.31-.55,0-1.06-.02-1.6-.03,1.98,5.53,4.12,11.08,6.52,16.65,8.53,19.92,20.19,39.75,34.7,58.35,5.73,7.32,12.07,14.32,18.71,21.12,15.34-.16,31.56-.32,48.53-.49,2.15,0,4.38-.02,6.56-.03-14.08-9.84-27.07-20.83-38.47-32.81-15.95-16.63-28.69-35.15-38.32-53.88Zm133.91,62.93c-5.68-2.81-11.48-5.37-17.04-8.4-5.51-3.2-11.22-6.06-16.46-9.71l-8-5.24-7.65-5.75c-5.22-3.68-9.79-8.18-14.68-12.28-4.49-4.54-9.24-8.82-13.34-13.73-4.36-4.67-8.14-9.82-12.02-14.88-.24-.35-.47-.7-.71-1.04-15.19-.15-29.85-.29-43.76-.42,1.1,2.23,2.11,4.46,3.3,6.68,9.75,18.27,22.57,36.17,38.21,52.44,12.88,13.4,27.82,25.47,44.08,36.07,15.73-.06,31.84-.12,48.17-.19-.03-7.78-.07-15.63-.1-23.54Zm-139.9-85.09c1.38,3.29,2.81,6.57,4.37,9.87,13.51-.13,27.73-.27,42.5-.41-2.31-3.4-4.57-6.82-6.55-10.42-1.71-2.78-3.26-5.64-4.75-8.54-12.34,3.3-24.23,6.47-35.57,9.5Zm-27.74,7.41c-2.02,.53-3.97,1.03-5.94,1.55,.15,.43,.28,.86,.43,1.29,.88-.01,1.72-.03,2.61-.04,9.69-.09,20-.19,30.8-.3-1.33-3-2.53-5.97-3.72-8.96-8.4,2.24-16.51,4.41-24.2,6.47Zm84.32,6.7c-.37,0-.73,0-1.1-.01,3.44,4.37,6.88,8.74,10.7,12.78,4.02,4.78,8.7,8.93,13.1,13.34,4.81,3.97,9.28,8.35,14.41,11.92l7.51,5.59,7.86,5.08c5.14,3.55,10.76,6.32,16.17,9.42,4.78,2.58,9.74,4.8,14.65,7.14-.03-7.97-.07-15.97-.1-23.97,.04-9.3,.08-18.58,.12-27.82-6.38-4.11-12.46-8.56-18.3-13.22-22.18-.08-44.07-.16-65.01-.24Zm-95.56-3.77c.62,0,1.27-.02,1.9-.03-.05-.14-.09-.29-.14-.43-.6,.16-1.17,.3-1.77,.46Zm178.93,4.08c-3.39-.01-6.78-.02-10.16-.04,3.29,2.44,6.67,4.79,10.13,7.06,0-2.34,.02-4.69,.03-7.02Zm-54.44-37.43c-8.88,2.43-17.67,4.83-26.29,7.19-6.7,1.79-13.29,3.55-19.79,5.29,1.38,2.54,2.79,5.06,4.35,7.5,2.48,4.32,5.36,8.39,8.24,12.44,1.52-.01,3.02-.03,4.55-.04,18.98-.07,38.76-.14,58.8-.21-4.95-4.28-9.73-8.68-14.15-13.31-5.8-6-11.03-12.34-15.72-18.85Zm340.17,3.9v.32c2.92,.1,4.52,.15,4.52,.15,0,0-1.61-.17-4.52-.47Zm-125.41-50.45c4.16,1.78,8.42,3.31,12.59,4.96,8.51,2.86,16.96,5.54,25.33,7.44,8.29,2.24,16.51,3.59,24.21,5.31,7.8,1.25,15.17,2.44,21.98,3.53,6.86,.77,13.14,1.58,18.71,2.32,5.57,.72,10.46,1.02,14.48,1.43,3.34,.33,6.05,.61,8.11,.81v-76.03c-3.68,1.11-10.5,3.16-19.98,6.01-14.74,4.34-35.81,10.54-61.09,17.97-18.45,5.3-39.16,11.25-61.28,17.6,1.58,.88,3.18,1.74,4.73,2.66,3.94,2.22,8.15,3.97,12.2,5.98Zm105.16,81.84c-14.89,.24-36.16,.59-61.69,1.01-14.93,.14-31.35,.3-48.77,.47,.06,4.1,.12,8.38,.19,12.68,11.4,3.17,22.48,6.27,33.07,8.96,11.71,2.97,22.82,5.68,33.12,7.99,13.76,3.1,25.95,5.8,36.17,7.98,5.28-2.58,9.99-4.89,14.05-6.88,6.45-3.1,11.22-5.39,14.11-6.78v-25.88c-3.72,.08-10.62,.24-20.25,.46Zm9.67-31.42c-4.8-.26-10.65-.29-17.33-.86-6.68-.5-14.23-1.02-22.45-1.82-8.19-1.06-17.09-1.97-26.46-3.38-9.34-1.57-19.25-2.92-29.32-5.38-8.38-1.7-16.9-4.02-25.49-6.45,.2,10.04,.45,22.01,.72,35.5,.04,3.61,.1,7.44,.15,11.25,17.44,.17,33.88,.32,48.83,.47,25.53,.42,46.8,.77,61.69,1.01,9.62,.22,16.53,.38,20.25,.46v-30.46c-2.55-.09-6.1-.2-10.58-.36Zm-138.69-57.06c-6.02,1.73-12.11,3.48-18.31,5.26-6.58,1.85-13.3,3.74-20.04,5.63,2.3,1.22,4.64,2.41,6.92,3.7,4.8,2.48,9.83,4.57,14.73,6.88,5.04,2.03,10.09,4.07,15.11,6.1,5.14,1.75,10.25,3.49,15.33,5.22,.8,.24,1.59,.46,2.39,.69,.06-2.97,.12-5.78,.17-8.31,.21-7.44,.36-12.9,.45-15.95-2.59-1.16-5.17-2.35-7.67-3.73-3.03-1.83-6.11-3.56-9.08-5.49Zm16.75,9.22c.05,.02,.11,.05,.16,.07-.05-1.89-.08-2.9-.08-2.9,0,0-.03,.98-.08,2.83Zm118.9,112.4c-3.51,1.9-7.56,4.08-12,6.48,4.07,.86,7.83,1.64,11.16,2.3,6.35,1.31,11.22,2.31,14.45,2.98v-19.26c-2.81,1.55-7.42,4.08-13.62,7.5Zm978.92,58.51c2.27-.21,4.32-.6,6.12-1.16,3.64-1.11,6.43-2.89,8.41-5.33,1.98-2.44,2.95-5.63,2.95-9.58-.02-3.69-.97-6.66-2.81-8.91-1.84-2.25-4.41-3.87-7.65-4.85-1.55-.47-3.4-.82-5.53-1.03-2.16-.21-4.86-.31-8.16-.31h-11.9v31.5h10.35c3.22,0,5.96-.11,8.23-.33Zm-973.47-147.43c-4.04-.15-8.96-.11-14.58-.46-5.62-.34-11.97-.73-18.9-1.29-6.9-.82-14.37-1.71-22.28-2.65-7.84-1.41-16.22-2.38-24.66-4.63-8.53-1.82-17.18-4.43-25.92-7.24-4.3-1.64-8.68-3.15-12.99-4.92-1.6-.77-3.23-1.49-4.86-2.22,.09,3.07,.24,8.49,.45,15.88,.05,2.65,.11,5.59,.18,8.72,8.98,2.66,17.88,5.22,26.65,7.1,9.94,2.46,19.7,4.2,28.92,6.08,9.25,1.71,18.07,2.92,26.18,4.26,8.16,1.04,15.63,2,22.26,2.85,6.62,.94,12.45,1.29,17.22,1.82,4.45,.47,7.97,.83,10.5,1.1v-24.27c-2.08-.03-4.81-.08-8.18-.13Zm1096.5,149.36c-3.53-8.91-7.13-18.63-10.8-29.19h-.25c-3.85,10.71-7.51,20.44-11,29.19l-3.22,8.1h28.52l-3.26-8.1Zm-1102.96-50.61c-3.89-.58-8.34-1.31-13.22-2.14-8.65,4.67-18.82,10.17-30.17,16.3-15.29,8.08-32.7,17.46-51.36,27.27,9.29,4.29,18.19,8.64,26.6,12.97,1.75,.02,3.63,.04,5.34,.06,24.18,.42,44.33,.77,58.43,1.01,8.95,.22,15.45,.37,19.01,.46v-53.75c-3.27-.49-8.2-1.23-14.64-2.19Zm14.64-17.55v.22c2.02-1.11,3.15-1.73,3.15-1.73,0,0-1.12,.54-3.15,1.51Zm-149.27-113.9c2.32-.67,4.64-1.33,6.93-1.99-1.71-.95-3.35-2.01-4.96-3.08-2.24,.6-4.5,1.2-6.76,1.81l1.87,1.34c.93,.72,1.94,1.29,2.92,1.92Zm-171.76,68.76c5.63,5.81,11.74,11.35,18.24,16.58,5.68-.02,11.37-.04,17.09-.06,.06-13.17,.11-26.15,.17-38.72,.01-2.82,.04-5.53,.06-8.31-16.88,4.61-33.62,9.19-50.04,13.68,4.42,5.77,9.24,11.41,14.48,16.83Zm199.97,110.25c-2.9,1.51-5.88,3.06-8.83,4.59,0,.57,0,1.14,0,1.7,13.58,.14,26.53,.31,38.68,.46-7.36-3.47-15.04-6.92-22.99-10.36-2.3,1.2-4.53,2.39-6.87,3.6Zm-8.92-15.25c5.2,2.21,10.29,4.46,15.29,6.72,20.03-10.12,38.92-19.4,55.26-27.59,10.69-5.24,20.32-9.95,28.69-14.05-1.89-.32-3.83-.65-5.85-1-8.48-1.37-18.01-3.16-28.38-5.23-10.38-2.03-21.58-4.46-33.42-7.12-5.9-1.39-11.97-2.82-18.17-4.28-4.54-1.2-9.22-2.44-13.89-3.67,.17,11.81,.32,24.26,.38,37.15,.03,6.26,.06,12.63,.09,19.07Zm10.22,9.28c-3.36-1.43-6.76-2.85-10.2-4.27,.01,3.13,.03,6.27,.04,9.43,2.22-1.13,4.49-2.28,6.68-3.4,1.18-.6,2.31-1.16,3.48-1.76Zm119.77-85.16v.14c2.03-.05,3.15-.07,3.15-.07,0,0-1.12-.03-3.15-.07Zm-269.12-2.67c24.01,.09,47.98,.17,71.24,.26-5.35-2.1-10.67-4.3-15.92-6.7-12.89-5.9-25.57-12.4-37.31-20.11-10.25-6.61-19.64-13.99-27.97-22.16-.6,.16-1.19,.33-1.79,.49,.02,3.19,.06,6.32,.07,9.57,.05,12.56,.11,25.54,.17,38.7,3.84-.01,7.67-.03,11.51-.04Zm269.12,48.17v.26c2.92,.44,4.52,.68,4.52,.68,0,0-1.6-.33-4.52-.93Zm0,54v.15c2.05-.05,3.15-.08,3.15-.08,0,0-1.1-.03-3.15-.08Zm-228.31-2.56c-3.04-1.37-6.06-2.79-9.12-4.13-14.2-6.24-28.62-12.08-43.14-17.4-.03,7.24-.06,14.41-.09,21.53,8.61-.03,17.25-.07,25.9-.1,8.83,.03,17.65,.07,26.44,.1Zm164.89,249.01c-12.58-11.64-26.95-23.18-42.64-34.42-4.33,4.11-8.44,7.99-12.17,11.57-.86,.83-1.66,1.57-2.5,2.36,19.95,13.85,38.09,28.07,53.78,42.41,6.49,5.9,12.41,11.84,18,17.76,2.49-.05,5.01-.09,7.54-.09,4.84,0,9.66,.12,14.24,.29-9.64-12.99-21.8-26.46-36.25-39.87Zm-6.51-48.29c13.03,.16,25.19,.63,35.61,.87,1.22,.03,2.32,.07,3.49,.11-3.04-4.41-6.24-8.85-9.75-13.3-5.47-6.93-11.56-13.81-18.14-20.63-2.92,2.97-5.82,5.94-8.76,8.92-5.58,5.57-11.11,11.09-16.58,16.51,2.81,2.48,5.48,4.97,8.16,7.45,1.98,.03,4.04,.03,5.98,.07Zm-40.83-.33c4.18,.02,8.31,.04,12.46,.06,.17-.18,.33-.35,.5-.53,2.34-2.46,4.84-5.01,7.28-7.52-12.27-10.26-25.67-20.41-40-30.36-.15,9.93-.3,19.47-.4,28.28,0,.78-.02,1.52-.03,2.29,3.95,2.58,7.8,5.19,11.62,7.82,2.86-.01,5.7-.03,8.57-.04Zm0,5.48c-.24,0-.48,0-.73,0,1.62,1.15,3.17,2.32,4.76,3.47,1.09-1.16,2.17-2.31,3.3-3.5-2.45,0-4.87,.02-7.32,.03Zm-20.25-8.22c-.01,.97-.03,1.89-.05,2.84,1.44,0,2.91-.01,4.36-.02-1.44-.94-2.85-1.89-4.31-2.82Zm34.09,8.16c-2.14,2.08-4.24,4.11-6.31,6.08,15.42,11.4,29.55,23.07,41.93,34.86,14.91,14.11,27.22,28.48,36.74,42.23,4.33,.2,8.41,.45,11.93,.76,1.37,.11,2.54,.25,3.73,.38-.28-.54-.53-1.07-.83-1.61-1.27-2.46-2.61-5.05-4.02-7.77-1.42-2.71-3.21-5.38-4.91-8.25-3.3-5.81-7.62-11.61-12-17.95-9.27-12.32-20.65-25.52-34.13-38.87-3.38-3.36-6.9-6.72-10.55-10.08-7.04,.1-14.24,.16-21.57,.2Zm69.5-4.01c7.37,.27,13.62,.63,18.3,.8,4.4,.25,7.38,.41,8.72,.49-.13-.55-.26-1.09-.38-1.64-.51-2.09-.93-4.21-1.52-6.28l-2.11-6.12c-1.38-4.08-2.73-8.17-4.67-12.04-1.9-3.87-3.32-7.96-5.6-11.63-2.15-3.73-4.16-7.54-6.42-11.2l-7.16-10.75c-1.02-1.37-2.08-2.71-3.1-4.08-3.11,3.32-6.32,6.73-9.7,10.23-4.87,5.1-10,10.37-15.21,15.68,6.58,7.04,12.65,14.13,18.12,21.23,3.94,5.11,7.44,10.22,10.74,15.3Zm-53.58-1.21c-1.86-1.64-3.65-3.29-5.56-4.93-1.64,1.62-3.28,3.24-4.9,4.82,3.56,.02,6.98,.07,10.47,.11Zm-39.41,23.38c3.42-3.62,7.1-7.59,11-11.77-1.99-1.4-3.91-2.82-5.94-4.21-1.06-.72-2.18-1.43-3.25-2.15-4.2-.02-8.41-.03-12.55-.06-.11,5.52-.22,10.66-.34,15.45,2.81,1.88,5.64,3.75,8.39,5.64,.89-.96,1.74-1.89,2.69-2.89Zm1012.6,109.54c-12.4,0-22.21,2.46-29.4,7.38-7.2,4.91-10.8,12.44-10.8,22.55,0,4.71,.82,8.81,2.46,12.3,1.64,3.5,3.85,6.38,6.63,8.66,2.78,2.28,6.02,3.99,9.73,5.13,3.71,1.15,7.63,1.71,11.76,1.71,5.13,0,9.98-.67,14.54-2.03,4.56-1.35,8.77-3.06,12.62-5.13,3.85-2.07,7.3-4.38,10.37-6.95,3.06-2.57,5.66-5.06,7.81-7.48v-31.65c-4.85-1.13-10.41-2.17-16.68-3.1-6.27-.93-12.61-1.39-19.03-1.39ZM2047,0V1187.77H0V0H2047Zm-358.84,539.5h11.25l10.28-25.91h35.96l10.26,25.91h11.38l-35.02-86.02h-9.06l-35.04,86.02Zm-23.59-90.57h8.93l11.65-15.88h-11.2l-9.38,15.88Zm-.07,90.57h10.48v-86.02h-10.48v86.02Zm-77.91,0h10.48v-35.61h12.66l26.49,35.61h10.48l-25.46-36.77v-.26c3.42-.6,6.54-1.54,9.36-2.82,2.79-1.29,5.22-2.94,7.22-4.95,2.02-2.01,3.58-4.4,4.7-7.14,1.1-2.74,1.66-5.85,1.66-9.32,0-5.87-1.57-10.76-4.75-14.69-3.17-3.92-7.76-6.69-13.74-8.32-2.18-.61-4.59-1.05-7.22-1.32-2.63-.28-5.85-.43-9.6-.43h-22.29v86.02Zm-72.58,0h54.58v-9.45h-44.1v-29.89h37.09v-9.46h-37.09v-27.76h41.72v-9.46h-52.2v86.02Zm-32.34,0h10.48v-86.02h-10.48v86.02Zm-91.65,0h10.48v-43.9c0-10.46-.29-19.61-.85-27.45h.4c4.57,7.24,9.78,15.03,15.61,23.4l33.76,47.95h10.48v-86.02h-10.55v45.78c0,8.69,.27,17.23,.83,25.58h-.38c-5.15-8.02-10.35-15.82-15.63-23.4l-33.74-47.96h-10.41v86.02Zm-72.58,0h54.56v-9.45h-44.08v-29.89h37.09v-9.46h-37.09v-27.76h41.72v-9.46h-52.2v86.02Zm-91.15-41.01c0,6.47,.99,12.34,2.96,17.61,1.97,5.27,4.86,9.75,8.68,13.44,3.81,3.69,8.54,6.53,14.17,8.55,5.63,2.01,12.15,3.03,19.51,3.03,2.49,0,5-.13,7.56-.38,2.54-.26,4.94-.61,7.16-1.03,2.23-.43,4.22-.89,5.95-1.38,1.73-.49,3.05-.97,3.95-1.44v-41.6h-30.08v9.45h19.61v25.59c-1.87,.47-4.01,.83-6.42,1.09-2.41,.26-4.85,.38-7.32,.38-5.34,0-10.2-.67-14.56-2.02-4.36-1.35-8.07-3.44-11.14-6.26-3.06-2.83-5.42-6.41-7.1-10.74-1.68-4.33-2.51-9.47-2.51-15.43s1.01-11.39,3.03-15.91c2.01-4.52,4.71-8.28,8.1-11.28,3.38-3,7.3-5.24,11.73-6.71,4.44-1.48,9.1-2.23,13.99-2.23,3.34,0,6.68,.29,10.02,.88,3.35,.57,6.31,1.29,8.87,2.15v-9.26c-.99-.43-2.2-.83-3.67-1.23-1.45-.38-3.04-.71-4.76-.99-1.71-.28-3.51-.49-5.4-.64-1.89-.16-3.77-.22-5.66-.22-6.98,0-13.38,1.1-19.18,3.31-5.81,2.2-10.76,5.34-14.85,9.41-4.1,4.07-7.23,8.99-9.39,14.72-2.16,5.75-3.24,12.13-3.24,19.16Zm-88.46,41.01h10.48v-43.9c0-10.46-.28-19.61-.84-27.45h.39c4.58,7.24,9.78,15.03,15.62,23.4l33.75,47.95h10.48v-86.02h-10.55v45.78c0,8.69,.28,17.23,.83,25.58h-.38c-5.14-8.02-10.35-15.82-15.62-23.4l-33.75-47.96h-10.41v86.02Zm-32.33,0h10.48v-86.02h-10.48v86.02Zm-904.54,53.04c13.57,12.51,28.63,23.57,44.52,33.42,1.45-1.12,2.93-2.25,4.46-3.38-11.01-6.69-21.56-14.05-31.55-22.03,3.22,.09,8.01,.22,14.17,.4,9.49,.19,22.23,.45,37.3,.75,2.09,1.3,4.27,2.45,6.39,3.7,1.74-1.01,3.53-2.03,5.35-3.04-.26-.15-.52-.28-.78-.43,.51,.01,1,.02,1.51,.03,1.89-1.05,3.83-2.1,5.8-3.15-1.9,.02-3.9,.05-5.74,.07-2.25,.05-4.44,.09-6.61,.13-13.38-8.04-26.23-16.82-38.24-26.47-21.77-17.5-40.72-37.79-55.85-59.67-2.42-3.5-4.59-7.08-6.82-10.64,6.88,.12,14.57,.25,22.98,.4,.26,.37,.47,.76,.74,1.13,14.97,21.23,33.73,40.83,55.22,57.59,14.8,11.59,30.89,21.71,47.66,30.7,1.98-.95,4.01-1.9,6.07-2.85-17.85-9.24-34.95-19.74-50.59-31.87-20.6-15.92-38.58-34.49-53.16-54.59,4.66,.08,9.46,.16,14.49,.25,9.65,.1,20.09,.2,30.89,.31,10.28,10.59,21.47,20.58,33.62,29.58,20.27,15,42.7,27.71,66.26,37.69,.83,.33,1.63,.68,2.45,1.02,2.59-.9,5.23-1.8,7.91-2.69-2.74-1.13-5.47-2.28-8.22-3.38-23.26-9.72-45.39-22.12-65.37-36.76-10.65-7.81-20.58-16.35-29.79-25.41,14.24,.14,29.26,.3,44.86,.45,4.54,.02,9.2,.04,13.82,.05,3.23,2.11,6.42,4.25,9.74,6.23,10.41,6.1,21.11,11.89,32.35,16.82l7.99,3.64s0,.05,0,.08c.04,12.62,.18,24.73,.34,36.38,1.34-.43,2.73-.85,4.1-1.28,.14-10.7,.26-21.8,.31-33.31l4.12,1.6,17,6.58c6.6,2.6,13.14,5.33,19.65,8.13-7.28,3.79-14.45,7.52-21.53,11.2,7.03-1.96,14.34-3.87,21.88-5.73,1.87-.95,3.72-1.89,5.6-2.85,.73,.32,1.43,.67,2.16,1,2.8-.66,5.59-1.32,8.46-1.96-1.52-.7-2.99-1.46-4.51-2.15,11.35-5.78,22.85-11.64,34.36-17.5,4.96-2.58,9.91-5.16,14.86-7.73,3.7,1.96,7.43,3.86,11.09,5.89,4.98,2.8,9.95,5.63,14.88,8.51,2.57-.38,5.24-.73,7.86-1.1-6.68-4.09-13.47-7.98-20.27-11.85-2.66-1.49-5.37-2.87-8.04-4.33,10.65-5.54,21.2-11.03,31.56-16.43,2.22-.02,4.44-.03,6.64-.05-.05,10.37-.09,20.84-.14,31.32,1.79-.24,3.63-.45,5.44-.68-.05-10.27-.09-20.54-.14-30.7,16.2-.17,31.49-.38,45.6-.54,6.66,3.24,13.05,6.48,19.07,9.74,8.42,4.54,16.21,8.99,23.27,13.3,1.28-.08,2.57-.16,3.86-.24-7.62-5.13-16.16-10.44-25.64-15.77-4.19-2.36-8.59-4.74-13.09-7.12,23.89-.41,43.82-.76,57.79-1,8.95-.22,15.45-.37,19.01-.46v22.46c24.48-.95,50.2-1.47,77.37-1.47,90.17,0,190.77,5.56,300.43,16.5,47.74-51.49,89.98-139.02,58.66-280.42,0,0-103.12-98.5-436.46-162.35v48.17c9.94,2.6,20.07,5.05,30.09,8.12,20.11,6.55,40.85,12.4,61.05,19.73,10.06,3.76,20.13,7.53,30.15,11.28l15,5.62c4.91,2.05,9.81,4.1,14.68,6.14,9.76,4.05,19.4,8.19,28.87,12.38,9.49,4.15,18.91,8.13,27.89,12.68,18.15,8.68,35.49,17.48,51.95,25.75,16.23,8.72,31.32,17.44,45.27,25.41,6.96,3.99,13.64,7.82,19.98,11.46,6.27,3.77,12.04,7.67,17.55,11.16,10.92,7.14,20.43,13.37,28.27,18.5,15.58,10.38,24.33,16.51,24.33,16.51,0,0-9.83-4.31-26.79-12.18-8.43-4-18.66-8.86-30.4-14.43-11.59-5.82-24.99-11.74-39.54-18.27-14.57-6.5-30.26-13.68-46.79-21.36-16.83-7.05-34.59-14.4-52.75-22.43-18.14-8.1-37.63-14.64-56.8-22.76-4.83-1.94-9.68-3.89-14.54-5.85l-14.84-5.32c-9.91-3.56-19.86-7.14-29.81-10.72-19.78-7.5-40.05-13.49-59.74-20.22-7.77-2.26-15.45-4.6-23.09-6.94v101.6c-3.72,.94-10.63,2.7-20.26,5.14-14.87,3.87-36.12,9.4-61.62,16.04-19.61,5.24-41.75,11.15-65.42,17.48-.62-.42-1.3-.76-1.9-1.21l-5.51-3.83-5.08-4.3c-6.49-5.92-12.38-12.47-16.24-19.91-3.95-7.35-6.58-15.09-7.79-22.71-1.29-7.62-.99-15.04-.2-21.78,1.68-13.53,5.63-24.47,8.86-31.8,3.2-7.39,5.64-11.33,5.64-11.33,0,0-2.84,3.67-6.6,10.87-1.9,3.59-3.97,8.07-5.96,13.38-2.04,5.29-3.88,11.48-4.98,18.44-1.09,6.93-1.73,14.65-.7,22.75,.96,8.08,3.34,16.54,7.56,24.44,4.04,8.03,10.21,15.09,16.99,21.44l5.3,4.61,3.85,2.76c-4.88,1.3-9.79,2.62-14.78,3.95-8.1,2.21-16.34,4.47-24.68,6.75-.4-.25-.84-.46-1.23-.72-9.21-5.41-17.43-11.96-25.02-18.65-7.27-7.02-13.78-14.34-19-22.02-5.06-7.77-8.87-15.72-11.49-23.39-5.26-15.39-5.8-29.3-5.14-38.78,.68-9.55,2.29-14.86,2.29-14.86,0,0-2.07,5.15-3.35,14.76-.64,4.79-.94,10.68-.61,17.44,.34,6.74,1.36,14.4,3.88,22.39,2.43,8,6.09,16.37,11.07,24.61,3.64,5.76,7.96,11.4,12.83,16.81-6.38,.86-23.76,3.2-47.38,6.39-1.51,.19-3.15,.41-4.71,.61-.09-6.79-.18-13.4-.25-19.63-.42-21.72-.76-39.81-1.01-52.48-.34-12.67-.53-19.91-.53-19.91,0,0-.19,7.24-.53,19.91-.24,12.67-.59,30.76-1.01,52.48-.07,6.37-.16,13.14-.26,20.1-6.39,.82-13.12,1.69-20.16,2.6-1.92-3.59-3.77-7.13-5.04-10.83-.97-2.63-2.2-5.13-2.92-7.74-.73-2.61-1.45-5.17-2.16-7.68-2.41-10.13-3.65-19.7-3.58-28.21-.21-8.52,.82-15.93,1.78-21.98,1.17-6.02,2.28-10.74,3.33-13.86,.97-3.15,1.66-4.78,1.66-4.78,0,0-3.22,6.34-6.04,18.43-1.23,6.05-2.6,13.5-2.77,22.17-.45,8.65,.36,18.49,2.62,28.94,.66,2.6,1.33,5.25,2.01,7.95,.68,2.71,1.86,5.3,2.79,8.04,1.08,3.43,2.63,6.75,4.29,10.08-6.13,.79-12.39,1.6-18.86,2.43-10.8,1.39-22.04,2.75-33.45,4.03-.82-2.66-1.6-5.32-2.25-7.93-6.12-24.86-5.54-46.64-3.68-61.44,1.85-14.9,4.64-23.1,4.64-23.1,0,0-3.24,8.04-5.69,22.95-2.3,14.81-4,36.81,1.74,62.31,.56,2.49,1.26,5.04,1.98,7.58-7.36,.82-14.77,1.61-22.2,2.33-7,.76-13.98,1.46-20.93,2.12-.25-1.15-.52-2.3-.75-3.45-1.26-6.14-2.29-12.34-3.09-18.57-1.61-12.46-2.3-25.05-2.17-37.64,.18-12.58,1.02-25.2,3.15-37.64-2.59,12.35-3.92,24.97-4.4,37.6-.47,12.64-.12,25.32,1.15,37.93,.65,6.3,1.48,12.59,2.63,18.83,.2,1.07,.43,2.13,.64,3.19-11.16,1.04-22.16,1.92-32.8,2.57-.76-5.64-1.4-11.15-1.82-16.37-1.16-14.73-1.09-27.64-.58-38.25,1.05-21.23,3.65-33.18,3.65-33.18,0,0-3.08,11.84-4.72,33.11-.79,10.63-1.19,23.6-.39,38.45,.28,5.22,.78,10.74,1.4,16.4-9.43,.5-18.54,1.06-27.19,1.29-.64,.02-1.24,.02-1.87,.04-2.08-21.53-1.97-40.2-1.16-54.62,1.24-22.17,3.79-34.67,3.79-34.67,0,0-3.02,12.39-4.85,34.59-1.09,14.39-1.77,33.09-.18,54.74-7.05,.17-13.84,.21-20.1,0-1.05-.03-1.98-.1-3.01-.13-.1-20.46,1.4-38.22,3.25-52.16,3.22-23.8,7.06-37.04,7.06-37.04,0,0-4.16,13.14-7.97,36.91-1.88,11.88-3.57,26.42-4.3,43.18-.13,2.91-.18,5.97-.24,9.01-5.48-.24-10.7-.57-15.32-1.09-1.32-.15-2.59-.31-3.83-.49,.26-19.04,1.79-35.65,3.59-48.94,3.47-24.8,7.51-38.59,7.51-38.59,0,0-4.37,13.69-8.42,38.45-1.98,12.38-3.8,27.53-4.63,45-.06,1.21-.07,2.52-.11,3.76-3.62-.57-6.89-1.25-9.66-2.06-2.16-.47-3.95-1.25-5.53-1.88-1.61-.6-2.96-1.14-3.9-1.85-.65-.41-1.17-.73-1.62-1.02,.49-20.09,2.01-37.6,3.7-51.66,3.2-26.32,6.88-41.07,6.88-41.07,0,0-4,14.66-7.79,40.95-3.63,26.24-7.52,64.26-4.18,109.82,1.7,22.74,5.19,47.32,11.76,72.69,6.57,25.33,16.24,51.5,30.35,76.46,14,24.98,32.35,48.7,54.53,69.07Zm420.57,257.47c2.43,3.55,4.76,6.98,7.01,10.27,2.14,3.35,3.96,6.72,5.84,9.86,.92,1.58,1.82,3.12,2.69,4.63,.76,1.57,1.5,3.09,2.22,4.58,1.43,2.98,2.79,5.8,4.07,8.46,1.25,2.67,2.08,5.31,3.03,7.7,1.85,4.8,3.43,8.89,4.22,12.36,1.89,6.85,2.89,10.5,2.89,10.5,0,0-.92-3.68-2.66-10.57-.72-3.5-2.21-7.62-3.96-12.47-.9-2.41-1.68-5.09-2.87-7.8-1.22-2.69-2.52-5.56-3.9-8.58-.69-1.51-1.4-3.06-2.13-4.66-.85-1.53-1.71-3.1-2.6-4.71-1.81-3.19-3.57-6.62-5.65-10.05-2.19-3.36-4.46-6.86-6.82-10.49-2.33-3.65-5.2-7.11-7.92-10.86-11.25-14.73-25.48-30.19-42.53-45.35-.85-.76-1.79-1.51-2.66-2.27,.3,.04,.57,.08,.91,.12,2.29,.23,5.56,.73,9.48,1.04,6.31,.56,14.32,.95,22.65,1.1,6.9,7.26,13.11,14.48,18.5,21.56,10.56,13.8,17.96,27.12,22.97,38.55,4.54,11.63,6.96,21.2,7.93,27.82,.82,6.66,1.26,10.21,1.26,10.21,0,0-.35-3.56-1.02-10.24-.82-6.66-3.01-16.32-7.32-28.13-4.77-11.62-11.91-25.22-22.24-39.39-4.83-6.68-10.39-13.49-16.53-20.34,.85,0,1.69,.03,2.55,.03,6.05,0,12.03-.18,17.58-.44,8.52,12.38,14.56,24.27,18.67,34.49,1.9,5.67,3.96,10.64,4.79,15.24,1.02,4.54,2.15,8.36,2.34,11.58,.76,6.39,1.17,9.8,1.17,9.8,0,0-.32-3.42-.93-9.83-.11-3.24-1.16-7.09-2.07-11.67-.72-4.64-2.67-9.68-4.44-15.44-3.78-10.12-9.41-21.92-17.37-34.28,3.22-.17,6.31-.37,9.02-.61,1.79-.14,3.4-.32,4.88-.5,1.62,3.44,2.87,6.71,4.16,9.58,1.81,3.92,2.96,7.4,3.86,10.24,1.88,5.65,2.88,8.66,2.88,8.66,0,0-.9-3.04-2.6-8.75-.81-2.87-1.85-6.4-3.54-10.38-1.16-2.84-2.29-6.06-3.77-9.45,1.34-.16,2.6-.33,3.6-.43,2.29-.29,3.6-.53,3.6-.53,0,0-1.31-.24-3.6-.53-1.23-.13-2.79-.33-4.55-.54-.35-.73-.67-1.46-1.07-2.2-1.22-2.51-2.5-5.15-3.85-7.91-1.37-2.76-3.1-5.48-4.73-8.42-3.19-5.93-7.38-11.87-11.65-18.36-9.02-12.65-20.17-26.24-33.6-39.86-2.6-2.65-5.34-5.3-8.1-7.95,.26,0,.53,0,.79,0,13.03-.16,25.19-.63,35.61-.87,1.87-.04,3.62-.11,5.38-.17,5.84,8.73,10.88,17.32,14.94,25.51,1.54,3.35,3.03,6.59,4.47,9.72,1.32,3.18,2.34,6.34,3.46,9.33,2.41,5.93,3.51,11.72,4.96,16.82,2.21,10.34,3.52,18.62,3.68,24.32,.38,5.69,.59,8.72,.59,8.72,0,0-.1-3.04-.29-8.74,0-5.69-.94-14.05-2.94-24.54-1.32-5.16-2.29-11.04-4.57-17.07-1.05-3.04-2-6.27-3.25-9.51-1.37-3.2-2.79-6.51-4.26-9.93-3.68-7.95-8.25-16.29-13.59-24.76,6.63-.26,12.31-.58,16.63-.73,4.42-.25,7.41-.41,8.74-.49,.85,3.62,1.82,7.23,2.08,10.96,.39,4.29,1.31,8.56,1.33,12.89l.12,12.99,.36-13.01c.13-4.34-.6-8.66-.88-12.99-.18-4.37-1.35-8.58-2.15-12.86-.46-2.13-.82-4.28-1.36-6.39l-1.96-6.23c-1.28-4.17-2.54-8.35-4.39-12.3-1.81-3.96-3.15-8.16-5.35-11.93-2.07-3.83-4.01-7.76-6.2-11.53l-7.07-11.02c-1.12-1.56-2.28-3.09-3.41-4.64,3.84-4.11,7.46-8.01,10.82-11.57,2.28-2.42,4.33-4.66,6.29-6.82-1.19,.01-2.39,.02-3.58,.04-1.57,1.46-3.2,3-4.89,4.62-3.4,3.26-7.12,6.77-11.03,10.48-3.26-4.38-6.59-8.7-10.21-12.78-.5-.61-1.06-1.15-1.57-1.75-1.51,.04-3.02,.09-4.53,.14,1.17,1.29,2.42,2.5,3.54,3.83,3.72,4.06,7.15,8.36,10.5,12.72-3.42,3.26-6.95,6.63-10.57,10.18-5.04,4.89-10.24,10.04-15.49,15.26-12.98-13.45-27.86-26.64-44.21-39.24-2.29,.16-4.52,.35-6.79,.52,17.98,13.22,34.33,27.06,48.48,41.24-2.95,2.94-5.9,5.88-8.87,8.85-5.62,5.72-11.18,11.38-16.63,16.99-12.93-11.19-27.15-22.27-42.43-33.06,.15-10.39,.27-21.32,.33-32.56-1.58,.14-3.12,.31-4.7,.45,.05,10.05,.16,19.83,.29,29.22-9.95-6.9-20.3-13.68-31.05-20.27-2.63-1.61-5.4-3.16-8.07-4.75-2.56,.32-5.1,.64-7.64,.97,4.46,2.59,8.88,5.2,13.23,7.84,11.65,7.07,22.85,14.32,33.61,21.68,.16,10.95,.33,21.37,.44,30.99,0,.11,0,.22,0,.34-13.43-8.68-27.52-17.16-42.25-25.31-17.59-9.68-35.97-19.02-54.93-27.86-2.92,.52-5.79,1.07-8.67,1.62,21.21,9.57,41.76,19.77,61.31,30.41,15.53,8.57,30.44,17.34,44.61,26.32,.02,1.59,.05,3.15,.07,4.69-6.02,.05-11.99,.1-17.74,.2-4.12,.05-8.11,.14-12.03,.24-7.82-4.66-15.77-9.28-23.97-13.75-23.56-12.99-48.45-25.42-74.23-36.97-3.38-1.52-6.84-2.96-10.26-4.43-2.85,.65-5.75,1.28-8.57,1.96,5.62,2.33,11.22,4.69,16.75,7.15,25.69,11.38,50.53,23.64,74.02,36.47,5.93,3.24,11.78,6.51,17.55,9.81-5.24,.15-10.25,.3-14.88,.41-10.42,.25-19.11,.78-25.19,1.01-1.92,.11-3.47,.19-4.84,.27-21.09-10.53-43.11-20.48-65.81-29.74,.09-3.39,.22-8.34,.39-14.63,.06-3.09,.13-6.57,.2-10.28-.49,.12-.96,.25-1.45,.37,.07,3.56,.13,6.93,.19,9.9,.17,6.23,.3,11.13,.39,14.52-1.29-.53-2.55-1.08-3.84-1.6-11.11-4.48-22.51-8.66-33.98-12.63-2.87,.87-5.84,1.69-8.65,2.59,13.84,4.55,27.36,9.46,40.74,14.79,27.65,11,54.39,23.03,79.63,35.92,25.24,12.88,49.12,26.37,70.89,40.53,2.06,1.33,4,2.7,6.03,4.04,.04,1.24,.06,1.95,.06,1.95,0,0,.02-.69,.05-1.88,19.33,12.86,37.03,26.14,52.46,39.59,17.06,14.89,31.51,29.9,43.01,44.26,2.78,3.66,5.71,7.04,8.1,10.61Zm44.37,233c-6.63-.42-13.26-.67-19.88-.95-.79-13.51-2.05-26.96-3.04-40.44-1.17-13.75-2.44-27.49-3.85-41.21-1.33-13.73-2.9-27.44-4.41-41.15-1.4-12.2-2.93-24.39-4.55-36.57,4.71,4.01,9.38,8.06,14.2,11.96,5.98,4.9,11.91,9.87,17.99,14.66-5.43-5.52-11.01-10.87-16.54-16.28-5.5-5.44-11.19-10.67-16.79-16l-3.33-3.17,.35,4.69c1.03,13.76,2.21,27.51,3.52,41.25,1.36,13.73,2.68,27.46,4.23,41.17,1.47,13.72,3.08,27.42,4.79,41.11,1.86,13.68,3.44,27.38,5.53,41.03l.14,.93,.85-.04c6.94-.3,13.87-.55,20.81-.99Zm126.32-113.71h-12.99v66.12c0,2.01-.1,4.1-.32,6.25-.21,2.16-.58,4.1-1.11,5.86-.8,2.81-1.94,5.38-3.43,7.68-1.49,2.31-3.34,4.29-5.57,5.94-2.23,1.65-4.84,2.92-7.84,3.82-3.01,.89-6.45,1.35-10.32,1.35-7.13,0-12.84-1.49-17.17-4.46-4.33-2.97-7.42-7.03-9.29-12.19-.74-2.06-1.28-4.36-1.62-6.89-.34-2.52-.52-4.98-.52-7.36v-66.12h-12.99v65.8c0,2.86,.18,5.81,.52,8.83,.34,3.03,.92,5.87,1.71,8.53,1.13,3.66,2.68,7.04,4.7,10.15,2.02,3.11,4.61,5.79,7.77,8.05,3.15,2.26,6.93,4.02,11.35,5.3,4.4,1.27,9.52,1.91,15.37,1.91s11.43-.69,15.97-2.08c4.54-1.38,8.43-3.29,11.67-5.74,3.25-2.43,5.87-5.34,7.88-8.68,2.02-3.34,3.54-6.97,4.55-10.91,.58-2.34,1-4.86,1.27-7.57,.26-2.71,.4-5.31,.4-7.8v-65.8Zm17.58-175.89l93.23,131.71h54.95v-285.81c-.62-.09-1.26-.19-1.89-.28h-50.5v129.57c0,16.96,.86,44.05,2.57,81.25h-1.28c-12.83-22.67-29.51-48.61-50.03-77.83l-94.08-132.99h-54.95v286.09h52.38v-129.57c0-19.25-.86-46.4-2.57-81.46h1.29c17.53,30.07,34.49,56.52,50.89,79.32Zm154.2,282.47l-43.42-106.58h-11.23l-43.4,106.58h13.94l12.71-32.1h44.57l12.71,32.1h14.12Zm149.54-13.3c-1.51,.54-3.22,1.02-5.12,1.47-1.9,.45-3.88,.85-5.89,1.2-2.01,.34-4.02,.61-6,.8-2.01,.19-3.88,.28-5.64,.28-6.52,0-12.41-.84-17.72-2.55-5.28-1.71-9.82-4.32-13.57-7.84-3.77-3.54-6.69-7.99-8.72-13.39-2.04-5.39-3.05-11.75-3.05-19.08s1.1-13.84,3.3-19.4c2.2-5.54,5.2-10.19,9.03-13.94,3.82-3.74,8.31-6.56,13.51-8.45,5.2-1.88,10.76-2.82,16.73-2.82,3.88,0,7.73,.36,11.53,1.07,3.82,.72,7.35,1.61,10.57,2.67v-11.47c-1.21-.52-2.67-1.03-4.38-1.51-1.71-.48-3.55-.88-5.53-1.24-1.98-.34-4.07-.61-6.25-.78-2.17-.19-4.4-.29-6.63-.29-8.42,0-16.04,1.4-22.81,4.18-6.77,2.79-12.55,6.69-17.28,11.67-4.76,4.99-8.39,10.98-10.92,17.93-2.53,6.96-3.77,14.58-3.77,22.86s1.18,16,3.58,22.66c2.39,6.67,5.92,12.31,10.57,16.94,4.62,4.61,10.37,8.16,17.22,10.63,6.85,2.46,14.72,3.7,23.58,3.7,4.35,0,8.61-.33,12.74-1,4.15-.66,7.79-1.6,10.92-2.82v-11.47Zm76.21-137.46c-.29-7.7-.57-16.46-.86-26.3-.29-9.83-.43-21.6-.43-35.28v-78.04c0-10.41-1.9-20.03-5.66-28.86-3.78-8.84-9.49-16.5-17.11-22.99-7.62-6.48-17.1-11.58-28.44-15.29-11.33-3.7-24.55-5.56-39.66-5.56-12.84,.14-25.09,1.42-36.78,3.85-11.69,2.43-22.74,5.92-33.14,10.48v39.56c11.98-4.56,23.09-7.98,33.36-10.26,10.26-2.28,20.52-3.42,30.78-3.42,8.42,0,15.54,1.03,21.38,3.1,5.85,2.07,10.59,4.84,14.23,8.34,3.63,3.49,6.26,7.48,7.9,11.97,1.64,4.49,2.46,9.16,2.46,14v8.34c-5.71-1.57-12.33-2.92-19.88-4.06-7.56-1.14-15.82-1.71-24.81-1.71-12.26,0-23.45,1.6-33.56,4.81-10.12,3.21-18.82,7.88-26.09,14-7.27,6.13-12.93,13.62-17,22.45-4.06,8.84-6.09,18.82-6.09,29.94,0,10.12,1.74,19.28,5.24,27.47,3.49,8.2,8.3,15.18,14.43,20.95,6.13,5.78,13.47,10.2,22.02,13.26,8.55,3.06,17.75,4.6,27.58,4.6,7.27,0,14.04-.86,20.31-2.57,6.27-1.71,11.98-3.96,17.11-6.73,5.13-2.78,9.69-5.73,13.68-8.87,3.99-3.14,7.41-6.2,10.27-9.2h.86l2.13,22.02h45.76Zm71.6,100.1c0-5.53-.77-10.04-2.31-13.55-1.54-3.49-3.52-6.23-5.97-8.2-2.45-1.97-5.09-3.33-7.98-4.1-2.86-.77-5.72-1.16-8.58-1.16s-5.34,.32-7.73,.95c-2.39,.65-4.62,1.5-6.69,2.59-2.06,1.1-3.96,2.39-5.67,3.91-1.71,1.51-3.22,3.15-4.62,4.9h-.22v-50.02h-12.35v115.34h12.35v-53.76c2.86-4.14,6.25-7.4,10.18-9.77,3.93-2.35,8.09-3.54,12.44-3.54,5.26,0,9.03,1.54,11.34,4.62,2.31,3.08,3.47,7.66,3.47,13.77v48.67h12.35v-50.66Zm169.15-307.29h-53.88l-28.87,80.4c-8.84,24.37-16.25,46.18-22.24,65.43h-.86c-6.84-22.24-14.4-44.48-22.66-66.71l-28.86-79.12h-53.46l80.4,207.19h50.25l80.18-207.19Zm199.7,207.19c-.28-7.7-.57-16.46-.86-26.3-.28-9.83-.42-21.6-.42-35.28v-78.04c0-10.41-1.9-20.03-5.67-28.86-3.78-8.84-9.48-16.5-17.1-22.99-7.63-6.48-17.1-11.58-28.44-15.29-11.33-3.7-24.56-5.56-39.66-5.56-12.83,.14-25.09,1.42-36.78,3.85-11.69,2.43-22.74,5.92-33.14,10.48v39.56c11.98-4.56,23.09-7.98,33.36-10.26,10.26-2.28,20.52-3.42,30.79-3.42,8.41,0,15.54,1.03,21.38,3.1,5.85,2.07,10.59,4.84,14.22,8.34,3.63,3.49,6.27,7.48,7.91,11.97,1.64,4.49,2.46,9.16,2.46,14v8.34c-5.71-1.57-12.33-2.92-19.89-4.06-7.56-1.14-15.82-1.71-24.8-1.71-12.26,0-23.45,1.6-33.57,4.81-10.12,3.21-18.81,7.88-26.08,14-7.27,6.13-12.94,13.62-17,22.45-4.06,8.84-6.09,18.82-6.09,29.94,0,10.12,1.74,19.28,5.24,27.47,3.49,8.2,8.3,15.18,14.43,20.95,6.12,5.78,13.47,10.2,22.02,13.26,8.55,3.06,17.75,4.6,27.59,4.6,7.27,0,14.04-.86,20.31-2.57,6.27-1.71,11.98-3.96,17.1-6.73,5.13-2.78,9.69-5.73,13.69-8.87,3.99-3.14,7.41-6.2,10.26-9.2h.86l2.14,22.02h45.75Zm108.41-296.8c-15.86,4.56-32.75,8.94-50.67,13.08v283.72h50.67v-296.8Zm204.58-117.6c-123.78,97.35-479.27,85.76-626.69,76.26-40.48-2.61-93.06-9.13-106.68-11.04-941.23-132.15-1000.94,117.95-1000.94,117.95,196.91-122.86,570.86-91.75,703.04-75.94,30.17,3.61,72.63,10.38,84.86,12.22,726.94,109.19,946.41-119.43,946.41-119.43Zm-841.11,321.6c-12.4,0-22.21,2.46-29.4,7.38-7.19,4.91-10.8,12.44-10.8,22.55,0,4.71,.82,8.81,2.46,12.3,1.64,3.5,3.85,6.38,6.63,8.66,2.78,2.28,6.02,3.99,9.73,5.13,3.7,1.15,7.62,1.71,11.76,1.71,5.14,0,9.98-.67,14.54-2.03,4.56-1.35,8.77-3.06,12.62-5.13,3.84-2.07,7.3-4.38,10.36-6.95,3.06-2.57,5.66-5.06,7.81-7.48v-31.65c-4.85-1.13-10.41-2.17-16.68-3.1-6.27-.93-12.61-1.39-19.03-1.39Zm-187.23,153.54c-4.76,13.28-9.3,25.33-13.62,36.17l-3.99,10.04h35.33l-4.04-10.03c-4.37-11.05-8.83-23.1-13.37-36.18h-.3Zm-396.11-260.93c-.09,3.74-.17,7.21-.24,10.38,1.8-2.01,3.78-4.22,5.98-6.63-1.88-1.26-3.82-2.5-5.74-3.75Zm61.44,63.64c4.99-.44,11.08-.77,17.51-.97-5.15-5.19-10.53-10.39-16.36-15.59-15.95-14.22-34.38-28.24-54.68-41.91-3.03,2.81-5.81,5.33-8.2,7.51,0,.33-.01,.7-.02,1.03-.14,5.06-.26,9.14-.35,12.23,18.69,12.69,35.76,25.76,50.89,38.96,.5-.07,1.05-.15,1.73-.24,2.29-.23,5.56-.73,9.48-1.04ZM158.18,400.98c5.42-.09,11.19-.18,17.32-.28,3.6-1.06,7.28-2.14,11.11-3.27-3.75-11.97-6.72-23.73-8.85-35-2.22-11.73-3.6-22.85-4.5-33.37-7.22-.09-14.17-.3-20.57-.76-1-.06-1.89-.18-2.86-.25,.18,13.54,1.07,28.22,3.1,43.84,1.25,9.41,3.01,19.17,5.27,29.09Zm194.48-79.56c1.79,2.48,3.3,5.2,5.37,7.56,2.02,2.39,4.06,4.81,6.12,7.25l.83,.99c.1-9.46,.23-18.55,.35-27.3-5.74,.99-11.76,2-18.04,3.04,.15,.29,.31,.57,.46,.86,1.31,2.68,3.28,5.03,4.91,7.6Zm164.7,417.21c-.83,.76-1.68,1.53-2.4,2.21-2.29,2.04-3.98,3.56-5.11,4.56,2.65,1.74,5.26,3.48,7.85,5.23-.09-3.06-.2-7.06-.34-11.97,0,0,0-.02,0-.03ZM135.31,401.36c5.67-.09,12.14-.2,19.34-.32-2.07-9.83-3.68-19.47-4.79-28.77-1.91-15.84-2.48-30.74-2.31-44.42-5.57-.48-10.87-1.1-15.54-1.94-1.23-.21-2.4-.44-3.55-.67-.15,15.93,.58,33.48,2.92,52.43,.97,7.69,2.34,15.64,3.93,23.69Zm116.73-47.85c1.17,2.9,2.26,5.84,3.49,8.71l3.91,8.53c.85,1.66,1.72,3.31,2.58,4.97,6.76-1.94,13.62-3.91,20.6-5.92,8.09-2.27,16.32-4.58,24.65-6.92-3.27-4.85-6.33-9.77-8.97-14.74-4.73-8.9-8.36-17.88-11.15-26.69-7.67,.95-15.4,1.87-23.16,2.73-6.81,.67-13.6,1.27-20.37,1.83,.76,3.25,1.59,6.48,2.54,9.67,1.64,6.05,3.7,11.97,5.88,17.83Zm-28.78,33.33c11.17-3.21,22.87-6.57,35.02-10.06-.73-1.48-1.48-2.96-2.21-4.44l-3.83-8.74c-1.2-2.94-2.26-5.95-3.4-8.91-2.11-5.99-4.11-12.04-5.67-18.19-.95-3.39-1.75-6.81-2.5-10.25-11.28,.91-22.41,1.67-33.18,2.2,1.34,8.85,3.12,18.1,5.59,27.69,2.59,9.98,6,20.3,10.17,30.7Zm-94.94-8.8c-2.2-19.26-2.51-37.12-1.96-53.23-3.74-.82-7.1-1.73-9.93-2.75-2.15-.6-3.93-1.52-5.48-2.3-1.57-.73-2.88-1.39-3.79-2.2-.58-.44-1.05-.79-1.46-1.1-.42,17.39-.08,36.68,1.68,57.61,.78,8.99,1.96,18.33,3.39,27.82,3.17-.07,10.46-.24,21.1-.48-1.45-7.95-2.69-15.8-3.55-23.38Zm61.74,18.38c2-.59,3.98-1.17,6.04-1.78,7.53-2.16,15.47-4.44,23.7-6.81-4.02-10.51-7.26-20.91-9.7-30.95-2.41-9.82-4.02-19.27-5.17-28.3-.09,0-.19,.01-.28,.02-9.49,.48-18.68,.63-27.4,.54-.51,0-.99-.02-1.5-.03,1.12,10.35,2.69,21.25,5.02,32.73,2.29,11.15,5.4,22.77,9.3,34.57Zm-58,6.05c-10.74-.24-18.09-.41-21.28-.48,.85,5.61,1.85,11.29,2.97,17.04,3.12-.94,10.14-3.05,20.36-6.13-.77-3.52-1.4-6.97-2.04-10.43Zm385.26,334.17c-.08-3.83-.18-8.09-.29-12.81-10.29-6.68-20.99-13.27-32.07-19.74-7.8-.2-15.18-.43-21.8-.59-10.42-.25-19.11-.78-25.19-1.01-1.37-.08-2.56-.14-3.66-.2,2.93,1.47,5.9,2.9,8.79,4.39,23.71,12.11,45.99,25.11,66.56,38.59,1-1.13,2.5-2.85,4.56-5.18,.95-1.03,1.99-2.19,3.12-3.45Zm-205.62-375.01c17.43-4.9,35.25-9.9,53.2-14.94,0-.82,.01-1.65,.02-2.46l-1.13-1.11-3.16-3.82c-2.08-2.55-4.13-5.09-6.16-7.59-2.06-2.48-3.56-5.34-5.33-7.94-1.62-2.7-3.57-5.17-4.85-7.97-.35-.73-.71-1.44-1.07-2.16-6.55,1.06-13.26,2.1-20.24,3.09-10.47,1.48-21.36,2.93-32.41,4.32,2.89,8.36,6.55,16.84,11.24,25.21,2.91,5.22,6.28,10.34,9.91,15.39Zm204.9,342.95c-6.05-.05-12.05-.1-17.83-.21-1.54-.02-3.02-.06-4.54-.08,7.77,4.76,15.32,9.58,22.68,14.46-.1-4.43-.21-9.15-.31-14.17Zm-250.56-105.35c-11.02-7.03-21.67-14.55-31.71-22.7-22.06-17.88-41.25-38.61-56.54-60.94-3.05-4.42-5.89-8.91-8.62-13.43-3.32-.06-6.47-.11-9.31-.16-9.37-.22-16-.38-19.44-.47,3.13,6.59,6.48,13.15,10.15,19.62,13.88,24.52,31.99,47.73,53.85,67.64,4.38,4.01,9.01,7.78,13.67,11.52,3.22-.09,8.1-.23,14.48-.41,8.68-.18,20.08-.41,33.48-.68Zm-97.7-98.44c-10.66-17.89-18.94-36.46-25.11-54.8-3.65-10.83-6.52-21.56-8.87-32.09-10.33,2.62-17.43,4.42-20.58,5.22,1.73,8.85,3.68,17.8,6.16,26.88,4.99,18.35,11.73,37.05,20.43,55.4,3.42-.08,10.07-.24,19.5-.47,2.6-.04,5.48-.09,8.48-.15Z" style="fill: #001e61;"/>
    </g>
  </g>
</svg>