<?xml version="1.0" encoding="UTF-8"?>
<svg id="Layer_2" data-name="Layer 2" xmlns="http://www.w3.org/2000/svg" viewBox="0 0 2047 411.2">
  <g id="Logos-FCI">
    <g id="Logo-FCI-Horizontal-Outline-Blanco">
      <rect width="2047" height="411.2" style="fill: none;"/>
      <g>
        <path d="M259.49,41.13l-54.79,93.86,108.67,.14,54.79-93.85-108.67-.15Zm49.29,83.17l-86.53-.11,43.63-74.73,86.53,.12-43.63,74.73Z" style="fill: #fff;"/>
        <path d="M446.21,135.59l-54.47,94.05,108.67-.25,54.46-94.04-108.67,.24Zm49.38,84.04l-86.58,.2,43.39-74.92,86.57-.19-43.39,74.92Z" style="fill: #fff;"/>
        <polygon points="577.06 135.36 603.41 135.36 603.41 140.66 583.45 140.66 583.45 156.92 601.9 156.92 601.9 162.15 583.45 162.15 583.45 184.3 577.06 184.3 577.06 135.36" style="fill: #fff;"/>
        <path d="M633.69,175.87c0,3.06,.15,6.03,.52,8.43h-5.75l-.51-4.43h-.22c-1.96,2.76-5.73,5.23-10.75,5.23-7.1,0-10.74-5.01-10.74-10.09,0-8.5,7.55-13.14,21.13-13.07v-.73c0-2.83-.8-8.13-7.98-8.07-3.35,0-6.76,.95-9.23,2.62l-1.45-4.29c2.9-1.81,7.18-3.05,11.61-3.05,10.76,0,13.36,7.34,13.36,14.3v13.14Zm-6.17-9.51c-6.97-.14-14.89,1.09-14.89,7.92,0,4.21,2.76,6.09,5.96,6.09,4.64,0,7.62-2.9,8.64-5.88,.22-.73,.29-1.45,.29-2.04v-6.1Z" style="fill: #fff;"/>
        <path d="M669.05,183.06c-1.67,.8-5.37,2.03-10.09,2.03-10.6,0-17.5-7.18-17.5-17.94s7.4-18.73,18.87-18.73c3.78,0,7.12,.94,8.86,1.89l-1.44,4.86c-1.52-.8-3.92-1.67-7.41-1.67-8.06,0-12.41,6.02-12.41,13.28,0,8.14,5.23,13.15,12.19,13.15,3.64,0,6.03-.86,7.84-1.67l1.09,4.8Z" style="fill: #fff;"/>
        <path d="M705.93,174.64c0,3.7,.07,6.89,.28,9.66h-5.65l-.36-5.74h-.15c-1.59,2.83-5.37,6.53-11.61,6.53-5.52,0-12.13-3.12-12.13-15.39v-20.55h6.39v19.39c0,6.68,2.1,11.25,7.84,11.25,4.28,0,7.25-2.98,8.42-5.89,.36-.86,.58-2.02,.58-3.27v-21.49h6.39v25.49Z" style="fill: #fff;"/>
        <rect x="716.53" y="132.74" width="6.38" height="51.55" style="fill: #fff;"/>
        <path d="M741.36,140.73v8.43h9.15v4.86h-9.15v18.95c0,4.36,1.23,6.83,4.8,6.83,1.74,0,2.76-.15,3.7-.43l.29,4.86c-1.23,.43-3.2,.87-5.67,.87-2.97,0-5.37-1.02-6.89-2.68-1.75-1.96-2.47-5.09-2.47-9.23v-19.17h-5.44v-4.86h5.44v-6.53l6.25-1.89Z" style="fill: #fff;"/>
        <path d="M782.38,175.87c0,3.06,.14,6.03,.51,8.43h-5.75l-.5-4.43h-.22c-1.96,2.76-5.73,5.23-10.75,5.23-7.12,0-10.75-5.01-10.75-10.09,0-8.5,7.55-13.14,21.13-13.07v-.73c0-2.83-.79-8.13-7.99-8.07-3.34,0-6.75,.95-9.21,2.62l-1.46-4.29c2.91-1.81,7.19-3.05,11.62-3.05,10.75,0,13.36,7.34,13.36,14.3v13.14Zm-6.17-9.51c-6.97-.14-14.89,1.09-14.89,7.92,0,4.21,2.77,6.09,5.96,6.09,4.65,0,7.62-2.9,8.65-5.88,.21-.73,.28-1.45,.28-2.04v-6.1Z" style="fill: #fff;"/>
        <path d="M822.96,132.74v42.48c0,3.12,.15,6.68,.29,9.07h-5.66l-.29-6.1h-.22c-1.89,3.92-6.1,6.89-11.83,6.89-8.5,0-15.11-7.19-15.11-17.85-.07-11.7,7.26-18.81,15.76-18.81,5.44,0,9,2.54,10.6,5.3h.15v-20.99h6.31Zm-6.31,30.72c0-.8-.08-1.89-.29-2.69-.94-3.99-4.43-7.33-9.21-7.33-6.61,0-10.54,5.81-10.54,13.51,0,7.12,3.55,12.99,10.38,12.99,4.29,0,8.21-2.9,9.37-7.61,.21-.88,.29-1.75,.29-2.77v-6.1Z" style="fill: #fff;"/>
        <path d="M879.31,132.74v42.48c0,3.12,.14,6.68,.29,9.07h-5.67l-.29-6.1h-.22c-1.89,3.92-6.1,6.89-11.83,6.89-8.49,0-15.1-7.19-15.1-17.85-.07-11.7,7.26-18.81,15.75-18.81,5.45,0,9,2.54,10.6,5.3h.15v-20.99h6.31Zm-6.31,30.72c0-.8-.08-1.89-.3-2.69-.94-3.99-4.43-7.33-9.22-7.33-6.6,0-10.53,5.81-10.53,13.51,0,7.12,3.56,12.99,10.39,12.99,4.29,0,8.2-2.9,9.36-7.61,.22-.88,.3-1.75,.3-2.77v-6.1Z" style="fill: #fff;"/>
        <path d="M893.53,167.89c.15,8.64,5.59,12.2,12.05,12.2,4.58,0,7.41-.8,9.74-1.81l1.15,4.57c-2.24,1.02-6.17,2.25-11.76,2.25-10.82,0-17.28-7.18-17.28-17.78s6.25-18.88,16.48-18.88c11.55,0,14.52,10.02,14.52,16.48,0,1.31-.07,2.25-.21,2.98h-24.69Zm18.73-4.58c.07-3.99-1.67-10.31-8.85-10.31-6.54,0-9.3,5.88-9.81,10.31h18.66Z" style="fill: #fff;"/>
        <path d="M976.08,182.77c-2.25,1.17-6.97,2.33-12.93,2.33-13.79,0-24.1-8.71-24.1-24.83s10.38-25.71,25.55-25.71c6.03,0,9.95,1.31,11.62,2.17l-1.6,5.16c-2.31-1.17-5.73-2.03-9.8-2.03-11.47,0-19.09,7.33-19.09,20.18,0,12.05,6.9,19.68,18.73,19.68,3.93,0,7.85-.8,10.39-2.04l1.23,5.09Z" style="fill: #fff;"/>
        <path d="M990.75,139.28c0,2.18-1.52,3.92-4.06,3.92-2.33,0-3.86-1.73-3.86-3.92s1.6-3.99,4-3.99,3.92,1.74,3.92,3.99m-7.11,9.88h6.39v35.14h-6.39v-35.14Z" style="fill: #fff;"/>
        <path d="M1004.18,167.89c.14,8.64,5.59,12.2,12.05,12.2,4.58,0,7.41-.8,9.73-1.81l1.16,4.57c-2.25,1.02-6.17,2.25-11.76,2.25-10.82,0-17.29-7.18-17.29-17.78s6.25-18.88,16.48-18.88c11.55,0,14.53,10.02,14.53,16.48,0,1.31-.07,2.25-.22,2.98h-24.69Zm18.73-4.58c.07-3.99-1.67-10.31-8.86-10.31-6.53,0-9.29,5.88-9.8,10.31h18.66Z" style="fill: #fff;"/>
        <path d="M1037,158.66c0-3.7-.08-6.6-.3-9.5h5.67l.37,5.81h.14c1.75-3.27,5.81-6.54,11.62-6.54,4.86,0,12.41,2.91,12.41,14.95v20.91h-6.39v-20.26c0-5.66-2.1-10.38-8.13-10.38-4.13,0-7.4,2.98-8.56,6.53-.3,.8-.44,1.89-.44,2.98v21.13h-6.38v-25.63Z" style="fill: #fff;"/>
        <path d="M1102.33,183.06c-1.66,.8-5.37,2.03-10.09,2.03-10.6,0-17.5-7.18-17.5-17.94s7.4-18.73,18.87-18.73c3.78,0,7.12,.94,8.86,1.89l-1.46,4.86c-1.52-.8-3.91-1.67-7.41-1.67-8.05,0-12.41,6.02-12.41,13.28,0,8.14,5.23,13.15,12.2,13.15,3.63,0,6.03-.86,7.84-1.67l1.09,4.8Z" style="fill: #fff;"/>
        <path d="M1116.94,139.28c0,2.18-1.54,3.92-4.07,3.92-2.32,0-3.85-1.73-3.85-3.92s1.6-3.99,3.99-3.99,3.93,1.74,3.93,3.99m-7.12,9.88h6.38v35.14h-6.38v-35.14Z" style="fill: #fff;"/>
        <path d="M1151.49,175.87c0,3.06,.15,6.03,.51,8.43h-5.73l-.51-4.43h-.21c-1.97,2.76-5.75,5.23-10.75,5.23-7.12,0-10.75-5.01-10.75-10.09,0-8.5,7.55-13.14,21.13-13.07v-.73c0-2.83-.8-8.13-7.99-8.07-3.34,0-6.75,.95-9.23,2.62l-1.44-4.29c2.9-1.81,7.19-3.05,11.61-3.05,10.75,0,13.36,7.34,13.36,14.3v13.14Zm-6.17-9.51c-6.97-.14-14.89,1.09-14.89,7.92,0,4.21,2.76,6.09,5.95,6.09,4.65,0,7.62-2.9,8.64-5.88,.22-.73,.3-1.45,.3-2.04v-6.1Z" style="fill: #fff;"/>
        <path d="M1160.92,177.83c1.96,1.15,5.31,2.47,8.5,2.47,4.58,0,6.75-2.25,6.75-5.23s-1.81-4.65-6.46-6.39c-6.39-2.33-9.36-5.74-9.36-9.95,0-5.66,4.64-10.31,12.12-10.31,3.55,0,6.68,.94,8.57,2.18l-1.52,4.65c-1.38-.87-3.93-2.11-7.19-2.11-3.77,0-5.81,2.18-5.81,4.8,0,2.9,2.04,4.21,6.61,6.02,6.02,2.26,9.21,5.31,9.21,10.54,0,6.24-4.86,10.6-13.06,10.6-3.85,0-7.41-1.02-9.88-2.46l1.52-4.8Z" style="fill: #fff;"/>
        <path d="M1236.21,132.74v42.48c0,3.12,.15,6.68,.29,9.07h-5.66l-.29-6.1h-.22c-1.89,3.92-6.1,6.89-11.84,6.89-8.49,0-15.1-7.19-15.1-17.85-.07-11.7,7.26-18.81,15.76-18.81,5.44,0,9,2.54,10.6,5.3h.14v-20.99h6.31Zm-6.31,30.72c0-.8-.07-1.89-.29-2.69-.94-3.99-4.43-7.33-9.21-7.33-6.61,0-10.54,5.81-10.54,13.51,0,7.12,3.57,12.99,10.39,12.99,4.28,0,8.2-2.9,9.36-7.61,.22-.88,.29-1.75,.29-2.77v-6.1Z" style="fill: #fff;"/>
        <path d="M1250.44,167.89c.14,8.64,5.59,12.2,12.05,12.2,4.58,0,7.41-.8,9.74-1.81l1.15,4.57c-2.25,1.02-6.17,2.25-11.76,2.25-10.82,0-17.28-7.18-17.28-17.78s6.24-18.88,16.48-18.88c11.55,0,14.52,10.02,14.52,16.48,0,1.31-.06,2.25-.22,2.98h-24.68Zm18.73-4.58c.07-3.99-1.67-10.31-8.86-10.31-6.53,0-9.29,5.88-9.8,10.31h18.66Z" style="fill: #fff;"/>
        <rect x="1298.65" y="132.74" width="6.39" height="51.55" style="fill: #fff;"/>
        <path d="M1340.47,175.87c0,3.06,.14,6.03,.51,8.43h-5.73l-.51-4.43h-.22c-1.96,2.76-5.73,5.23-10.75,5.23-7.1,0-10.75-5.01-10.75-10.09,0-8.5,7.55-13.14,21.13-13.07v-.73c0-2.83-.8-8.13-7.99-8.07-3.34,0-6.75,.95-9.22,2.62l-1.45-4.29c2.91-1.81,7.19-3.05,11.61-3.05,10.76,0,13.37,7.34,13.37,14.3v13.14Zm-6.17-9.51c-6.97-.14-14.89,1.09-14.89,7.92,0,4.21,2.76,6.09,5.95,6.09,4.65,0,7.63-2.9,8.65-5.88,.22-.73,.29-1.45,.29-2.04v-6.1Z" style="fill: #fff;"/>
        <rect x="577.06" y="217.79" width="26.22" height="116.25" style="fill: #fff;"/>
        <path d="M625.16,276.6c0-10.52-.34-19.31-.69-26.91h22.76l1.2,11.74h.52c3.45-5.54,11.89-13.63,26.04-13.63,17.24,0,30.19,11.56,30.19,36.4v49.84h-26.22v-46.75c0-10.86-3.8-18.28-13.28-18.28-7.25,0-11.56,5.02-13.45,9.83-.69,1.73-.86,4.15-.86,6.55v48.64h-26.22v-57.44Z" style="fill: #fff;"/>
        <path d="M806.08,321.78c0,16.21-3.28,29.5-12.94,37.95-9.14,7.93-21.74,10.34-34.16,10.34-11.21,0-22.76-2.24-30.35-6.39l5.17-20.01c5.35,3.12,14.49,6.39,24.5,6.39,12.42,0,21.9-6.55,21.9-22.25v-5.34h-.35c-5,6.89-13.1,10.87-22.77,10.87-20.87,0-35.69-16.9-35.69-41.05,0-27.24,17.41-44.5,38.27-44.5,11.57,0,18.79,5.01,23.12,11.91h.35l.86-10.01h22.76c-.35,5.53-.69,12.6-.69,25.19v46.9Zm-26.22-37.77c0-1.56-.18-3.28-.51-4.84-1.9-6.89-6.91-11.55-14.15-11.55-9.65,0-17.24,8.63-17.24,23.98,0,12.59,6.21,22.42,17.07,22.42,6.9,0,12.25-4.49,13.98-10.52,.68-2.07,.86-4.84,.86-7.07v-12.42Z" style="fill: #fff;"/>
        <path d="M847.29,300.06c.86,11.03,11.55,16.21,23.8,16.21,8.96,0,16.19-1.21,23.28-3.63l3.44,17.77c-8.62,3.62-19.15,5.35-30.53,5.35-28.63,0-45.01-16.56-45.01-43.12,0-21.37,13.44-45.02,42.6-45.02,27.24,0,37.6,21.22,37.6,42.09,0,4.48-.52,8.45-.86,10.52l-54.32-.17Zm30.87-17.94c0-6.2-2.76-17.06-14.65-17.06-11.21,0-15.7,10.17-16.4,17.06h31.05Z" style="fill: #fff;"/>
        <path d="M918.16,276.6c0-10.52-.35-19.31-.69-26.91h22.77l1.2,11.74h.51c3.46-5.54,11.91-13.63,26.04-13.63,17.26,0,30.19,11.56,30.19,36.4v49.84h-26.21v-46.75c0-10.86-3.8-18.28-13.29-18.28-7.24,0-11.55,5.02-13.45,9.83-.69,1.73-.86,4.15-.86,6.55v48.64h-26.21v-57.44Z" style="fill: #fff;"/>
        <path d="M1032.16,238.65c-8.8,0-14.49-6.2-14.49-13.97s5.86-13.96,14.84-13.96,14.48,6.04,14.66,13.96c0,7.77-5.7,13.97-14.84,13.97h-.17Zm-12.94,11.04h26.21v84.34h-26.21v-84.34Z" style="fill: #fff;"/>
        <path d="M1086.65,300.06c.86,11.03,11.57,16.21,23.81,16.21,8.97,0,16.22-1.21,23.29-3.63l3.44,17.77c-8.62,3.62-19.14,5.35-30.52,5.35-28.63,0-45.02-16.56-45.02-43.12,0-21.37,13.45-45.02,42.6-45.02,27.25,0,37.6,21.22,37.6,42.09,0,4.48-.52,8.45-.87,10.52l-54.33-.17Zm30.87-17.94c0-6.2-2.76-17.06-14.66-17.06-11.21,0-15.68,10.17-16.39,17.06h31.04Z" style="fill: #fff;"/>
        <path d="M1157.7,277.46c0-12.41-.18-20.52-.69-27.77h22.42l1.02,15.71h.68c4.32-12.43,14.49-17.6,22.77-17.6,2.41,0,3.62,.19,5.51,.52v24.65c-2.24-.35-4.31-.69-7.23-.69-9.66,0-16.22,5.01-17.94,13.29-.35,1.71-.51,3.62-.51,5.86v42.6h-26.22l.18-56.58Z" style="fill: #fff;"/>
        <path d="M1223.05,249.7h26.22v84.34h-26.22v-84.34Zm41.21-36.39l-21.03,26.21h-17.94l14.82-26.21h24.15Z" style="fill: #fff;"/>
        <path d="M1340.5,313.68c0,7.93,.34,15.69,1.38,20.35h-23.63l-1.55-8.45h-.52c-5.51,6.72-14.13,10.34-24.14,10.34-17.08,0-27.26-12.41-27.26-25.87,0-21.9,19.68-32.25,49.5-32.25v-1.03c0-4.49-2.41-10.86-15.36-10.86-8.62,0-17.75,2.92-23.28,6.2l-4.83-16.73c5.88-3.28,17.42-7.6,32.77-7.6,28.11,0,36.91,16.56,36.91,36.4v29.49Zm-25.36-19.49c-13.79,0-24.49,3.28-24.49,13.28,0,6.73,4.48,10,10.34,10,6.39,0,11.91-4.31,13.63-9.65,.34-1.37,.51-2.93,.51-4.49v-9.14Z" style="fill: #fff;"/>
        <polygon points="325.8 135.14 379.64 229.54 434.14 135.53 380.31 41.12 325.8 135.14" style="fill: #fff;"/>
        <polygon points="446.02 334.03 554.69 334.03 500.03 240.11 391.36 240.1 446.02 334.03" style="fill: #fff;"/>
        <g>
          <path d="M1473.58,181.79v89.33c0,22.64-4.18,38.77-12.54,48.42-8.37,9.67-20.12,14.5-35.22,14.5-8.04,0-15.69-1.39-22.93-4.15-7.24-2.77-13.2-7.46-17.84-14.03-4.66-6.58-6.99-15.36-6.99-26.37v-116.15c0-4.11-.1-6.86-.33-8.24-.22-1.39-.77-2.22-1.67-2.5-3.4-.71-5.99-1.22-7.78-1.53-1.78-.32-2.9-.68-3.35-1.08-.43-.4-.67-1.28-.67-2.62,0-.8,.57-1.42,1.68-1.88,1.12-.44,2.22-.67,3.28-.67,2.87,0,5.82,.2,8.85,.6,3.04,.41,6.32,.59,9.8,.59,4.93,0,9.39-.18,13.42-.59,4.02-.4,6.79-.6,8.31-.6,2.32,0,3.99,.17,5.01,.53,1.05,.37,1.56,1.22,1.56,2.57,0,1.15-.68,1.99-2.02,2.54-1.34,.53-3.49,.98-6.44,1.34-2.86,.37-4.99,.82-6.37,1.41-1.39,.57-2.6,2.12-3.62,4.62-1.03,2.51-1.55,6.17-1.55,10.99v115.09c0,7.7,1.62,14.05,4.84,19.05,3.21,5.01,7.29,8.69,12.21,11.01,4.91,2.32,10,3.48,15.28,3.48,6.62,0,12.76-1.61,18.45-4.83,5.68-3.21,10.26-8.41,13.74-15.57,3.5-7.15,5.23-16.22,5.23-27.21v-95.25c0-8.31-.8-13.94-2.4-16.89-1.62-2.96-4.48-4.65-8.59-5.11-3.31-.36-5.41-.72-6.31-1.12-.9-.41-1.34-1.41-1.34-3.03,0-2.43,1.65-3.62,4.96-3.62,1.16,0,3.22,.2,6.18,.6,2.94,.41,6.17,.59,9.66,.59,4.82,0,8.86-.18,12.15-.59,3.25-.4,5.37-.6,6.35-.6,2.33,0,3.49,1.2,3.49,3.62,0,.98-.26,1.67-.81,2.09-.53,.39-1.54,.74-3.02,1.06-1.47,.31-3.19,.65-5.16,1-2.95,.72-4.94,2.22-5.96,4.51-1.03,2.28-1.54,7.17-1.54,14.68" style="fill: #fff;"/>
          <path d="M1559.29,268.04h-31.52c-2.33,0-4,.73-5.03,2.2-1.04,1.49-2.39,5.54-4.1,12.15-1.88,7.96-3.39,14.42-4.55,19.37-1.16,4.97-1.88,8.33-2.15,10.08-.27,1.74-.4,3.28-.4,4.62,0,4.11,2.63,6.56,7.9,7.37,3.93,.63,6.4,1.12,7.39,1.47,.98,.37,1.47,1.18,1.47,2.42,0,1.08-.38,1.84-1.13,2.29-.77,.45-1.94,.67-3.56,.67-1.43,0-4.02-.17-7.78-.53-3.75-.37-6.75-.54-8.98-.54-4.92,0-8.81,.17-11.66,.54-2.87,.36-4.12,.53-3.77,.53-1.96,0-2.93-.98-2.93-2.95,0-1.14,.3-1.96,.94-2.42,.62-.43,1.74-.94,3.35-1.47,1.61-.54,2.96-1.21,4.09-2.02,1.11-.8,1.9-1.96,2.35-3.48,4.02-12.16,7.56-23.79,10.6-34.89,3.03-11.07,6.68-24.85,10.93-41.31,4.24-16.44,8.23-32.09,11.93-46.94,3.71-14.84,6.73-26.65,9.04-35.41,1.18-3.57,2.04-5.83,2.62-6.77,.59-.94,1.47-1.41,2.63-1.41,1.33,0,2.29,.41,2.8,1.22,.54,.8,1.16,2.58,1.88,5.36,2.24,8.14,5.11,18.47,8.59,30.98,3.48,12.53,6.9,24.84,10.26,36.96,3.35,12.12,7.36,26.53,11.99,43.26,4.66,16.71,8.64,31.3,11.94,43.73,1.8,6.34,4.11,10,6.98,10.98,.81,.27,2.02,.64,3.63,1.09,1.61,.45,2.76,.91,3.48,1.4,.71,.49,1.08,1.13,1.08,1.95,0,1.42-1.93,2.13-5.77,2.13-1.96,0-4.7-.17-8.19-.53-3.48-.37-6.34-.54-8.58-.54-2.51,0-5.95,.17-10.33,.54-4.38,.36-7.41,.53-9.12,.53-3.13,0-4.69-.98-4.69-2.95,0-2.42,2.37-3.62,7.1-3.62s7.1-2.27,7.1-6.83c0-1.07-2.9-12.87-8.71-35.41-1.52-5.89-2.79-9.67-3.82-11.33-1.04-1.66-2.8-2.48-5.3-2.48m-16.77-72.43c-.9,0-1.53,.52-1.93,1.54-.41,1.04-1.11,3.51-2.09,7.45-6.71,27.09-10.6,42.84-11.66,47.28-1.07,4.42-1.61,6.91-1.61,7.44,0,.98,.93,1.58,2.81,1.82,1.88,.22,6.43,.32,13.67,.32s11.94-.03,14.36-.13c2.4-.09,3.93-.27,4.56-.54,.62-.27,.94-.85,.94-1.75,0-.8-.27-2.25-.8-4.36-.54-2.1-1.83-6.81-3.89-14.15-2.06-7.33-3.68-13.21-4.83-17.64-1.16-4.42-3.05-11.69-5.64-21.8-.9-3.65-2.19-5.5-3.89-5.5" style="fill: #fff;"/>
          <path d="M1631.58,239.73c0,30.49,4.11,52.74,12.33,66.73,8.23,13.99,18.43,20.98,30.58,20.98,15.47,0,25.63-11.75,30.46-35.26,.98-4.83,1.7-8.54,2.14-11.14,.45-2.6,.9-4.41,1.34-5.42,.45-1.04,1.12-1.54,2.01-1.54,1.53,0,2.61,.39,3.22,1.2,.63,.8,.95,3.01,.95,6.58l-.27,35.14c0,2.67-.25,4.53-.73,5.56-.5,1.04-1.47,1.98-2.89,2.88-2.67,2.24-7.49,4.23-14.42,5.96-6.93,1.76-13.65,2.62-20.18,2.62-12.53,0-23.88-3.63-34.08-10.92-10.19-7.29-18.15-17.77-23.87-31.47-5.72-13.67-8.58-29.85-8.58-48.55,0-13.76,1.61-26.3,4.82-37.62,3.22-11.3,7.7-20.91,13.41-28.83,5.72-7.91,12.7-14.06,20.94-18.45,8.24-4.38,17.25-6.58,27.09-6.58,7.24,0,14.14,.97,20.72,2.88,6.57,1.93,10.83,3.7,12.81,5.3,1.07,.9,1.75,2.93,2.02,6.1,.27,3.18,.4,11.25,.4,24.21,0,6.26-.09,9.97-.27,11.14-.17,1.16-.88,1.75-2.15,1.75s-2.27-.74-3.07-2.22c-.82-1.48-2.17-5.21-4.03-11.19-3.4-10.47-7.58-18.32-12.55-23.54-4.96-5.24-10.88-7.85-17.77-7.85-4.66,0-9.34,1.48-14.08,4.43-4.74,2.95-9.12,7.73-13.14,14.35-4.03,6.62-7.22,15.23-9.61,25.81-2.37,10.61-3.55,22.93-3.55,36.97" style="fill: #fff;"/>
          <path d="M1757.4,133.23c.88,0,1.34,1.26,1.34,3.77v81.4c0,1.25,.67,1.88,2.02,1.88,.36,0,2.45-1.68,6.31-5.02,3.84-3.34,8.13-6.33,12.87-8.93,4.74-2.59,9.79-3.89,15.15-3.89,8.42,0,15.64,2.71,21.68,8.13,6.03,5.4,9.23,13.28,9.58,23.66v76.74c0,4.37,.67,7.59,2,9.65,1.35,2.06,3.49,3.21,6.45,3.49,3.03,.26,5.03,.67,6.04,1.2,.97,.54,1.47,1.43,1.47,2.7,0,1.77-1.29,2.67-3.88,2.67,.53,0-1.62-.17-6.45-.53-4.83-.38-9.43-.54-13.81-.54-5.55,0-10.06,.16-13.54,.54-3.5,.36-5.33,.53-5.51,.53-1.35,0-2.35-.26-3.02-.74-.67-.5-1.01-1.22-1.01-2.2,0-1.08,.41-1.89,1.22-2.43,.8-.53,2.09-.94,3.88-1.2,3.76-.55,6.31-1.48,7.65-2.84,1.34-1.33,2.02-3.78,2.02-7.36v-77.39c0-7.51-2.07-13.28-6.18-17.3-4.12-4.02-9.56-6.04-16.36-6.04-4.73,0-9.3,1.12-13.68,3.34-4.39,2.24-7.96,5.27-10.73,9.07-2.77,3.81-4.16,7.98-4.16,12.54" style="fill: #fff;"/>
          <path d="M1758.74,238.12v74.45c0,3.4,.89,6.01,2.68,7.85,1.78,1.82,4.83,3.05,9.12,3.69,2.5,.36,4.14,.79,4.89,1.33,.76,.55,1.14,1.39,1.14,2.57,0,1.77-1.24,2.67-3.76,2.67-.36,0-.95-.06-1.81-.2-.85-.13-2.08-.26-3.68-.41-1.62-.13-3.56-.24-5.84-.32-2.26-.1-6.19-.13-11.74-.13-4.92,0-9.12,.16-12.6,.54-3.49,.36-5.54,.53-6.18,.53-2.33,0-3.48-1.07-3.48-3.22,0-1.96,1.25-3.08,3.75-3.34,3.14-.45,5.48-1.1,7.04-1.95,1.56-.85,2.62-2.26,3.16-4.23,.53-1.96,.8-4.79,.8-8.45V157.38c0-2.14-.54-3.69-1.61-4.62-1.07-.96-3.17-1.68-6.31-2.23-3.84-.7-5.77-1.82-5.77-3.33s1.29-2.61,3.89-3.49c8.23-2.95,14.26-5.43,18.12-7.44,3.84-2.03,6.11-3.03,6.84-3.03" style="fill: #fff;"/>
        </g>
      </g>
    </g>
  </g>
</svg>