<?xml version="1.0" encoding="UTF-8"?>
<svg id="Layer_2" data-name="Layer 2" xmlns="http://www.w3.org/2000/svg" viewBox="0 0 2047 1407.96">
  <g id="Logos-IngCivilElectronica">
    <g id="Logo-IngCivilElectronica-Oficial-Color">
      <rect width="2047" height="1407.96" style="fill: none;"/>
      <g>
        <g>
          <path d="M1646.7,1120.28c1.13-.35,2.26-.69,3.39-1.04,.26,.85-3.04,2.06-3.39,1.04Z" style="fill: blue;"/>
          <path d="M1646.7,1120.28c1.13-.35,2.26-.69,3.39-1.04,.26,.85-3.04,2.06-3.39,1.04Z"/>
        </g>
        <g id="Electronica">
          <path d="M754.69,712.99c-13.75-10.44-27.32-20.74-40.77-30.96-2.93,2.49-5.51,4.98-8.38,7.07-15.61,11.36-36.74,10.41-51.35-2.21-10.71-9.26-16.62-21.03-18.21-35.03-1.53-13.46,.96-26.09,8.4-37.51,7.18-11.01,16.98-18.38,30.17-20.75,.69-.12,1.38-.28,2.35-.48,1.52-18.61,3.03-37.21,4.55-55.96-.79-.28-1.42-.57-2.09-.74-18.84-4.78-31.82-16.55-39.96-33.88-4.35-9.25-6.56-19.08-7.08-29.31-1.44-28.69,7.92-53.64,26.33-75.33,9.89-11.65,21.94-20.51,36.36-25.84,16.21-5.99,32.38-6.29,48.29,1.1,9.29,4.31,16.81,10.8,22.75,19.12,.89,1.24,1.73,2.51,2.81,4.08,19.43-14.23,38.76-28.38,58.32-42.7-.39-1.09-.73-2.13-1.12-3.14-2.07-5.33-2.86-10.89-2.57-16.54,.56-10.94,4.42-20.77,11.05-29.4,12.49-16.26,29.1-25.33,49.47-27.41,11.81-1.21,23.06,.83,33.31,6.98,16.14,9.69,23.55,27.58,19.22,45.9-.25,1.07-.49,2.15-.77,3.38,18.88,7.73,37.57,15.39,56.35,23.08,2.18-2.3,4.25-4.54,6.38-6.71,12.81-13.03,27.54-23.37,43.85-31.56,16.77-8.42,34.39-14.15,52.94-16.76,21.94-3.09,43.66-2.15,64.77,5.3,18.61,6.57,34.36,17.1,45.39,33.82,9.01,13.67,12.87,28.78,12.07,45.12-.9,18.39-7.37,34.87-17.31,50.11-13.7,21-32.12,36.9-53.86,49.1-14.44,8.1-29.71,14.07-45.84,17.82-3.97,.92-8.01,1.59-12.02,2.38-.79,.16-1.58,.35-2.53,.57v75.57c3,.8,5.97,1.48,8.86,2.4,15.45,4.87,28.4,13.42,38.17,26.46,17.82,23.77,16.61,55.62-2.86,78.07-12.16,14.02-27.59,22.23-45.71,25.35-19.77,3.41-38.46,.13-55.85-9.99-7.67-4.46-14.29-10.2-19.85-17.14-.57-.71-1.16-1.39-1.9-2.27-22.35,12.07-44.62,24.1-67.06,36.22,.78,2.35,1.55,4.54,2.24,6.75,13.48,42.88-3.29,88.72-41.24,112.97-14.51,9.27-30.35,14.65-47.47,15.87-41.76,2.98-79.04-18.58-97.59-53.45-6.71-12.63-10.38-26.12-11.11-40.46-.84-16.58,2.25-32.31,9.36-47.29,.22-.45,.4-.92,.75-1.74m198.82-227.45c16.28,29.64,13.62,58.45-2.5,86.99,20.03,11.1,39.91,22.11,59.84,33.15,14.26-15.48,31.89-23.51,52.28-25.53,.68-3.96,.51-70.5-.2-72.98-33.06-.99-62.68-10.19-84.54-37.19-8.31,5.2-16.52,10.33-24.87,15.56m-12.45,100.63c-21.94,24.29-49.15,37.31-81.62,39.71v32.48c29.08,4.54,52.28,18.63,69.69,42.47,22.66-12.25,45.19-24.42,67.89-36.68-1.76-7.53-2.83-14.96-1.99-22.57,.84-7.67,2.97-14.94,6.37-21.96-20.28-11.24-40.27-22.32-60.33-33.43m-61.5-141.54c24.78,1.44,46.3,9.75,63.7,27.52,9.04-5.65,17.86-11.16,26.76-16.72-.56-1.56-1.03-2.89-1.51-4.22-3.43-9.32-4.96-18.94-4.58-28.85,.54-14.12,4.44-27.34,10.84-39.87,1.24-2.43,2.54-4.83,3.94-7.47-17.93-7.34-35.66-14.59-53.54-21.91-5.82,7.1-12.68,12.66-20.53,17.01-7.83,4.34-16.27,6.91-25.08,8.34v66.17Zm-112.71,249.68c20.06-23.1,45.13-35.34,75.44-36.83v-32.19c-25.54-3.16-46.98-13.68-62.93-34.24-18.64,11.66-36.99,23.14-55.44,34.67,4.11,12.2,4.06,24.38,.76,36.57,14.1,10.7,28,21.27,42.17,32.02m10.56-276.61c4.87,22.04,1.74,43.13-7.24,63.72,4.97,2.11,9.74,4.14,14.68,6.25,9.67-12.02,21.22-21.65,34.7-28.92,13.43-7.24,27.73-11.84,42.8-13.56,.74-4.6,.5-64.9-.24-67.06-7.16-1.26-13.95-3.64-20.17-7.7-21.55,15.79-42.98,31.49-64.52,47.27m-61.48,193.23c18.5-11.57,36.67-22.93,54.98-34.38-10.74-25.64-8.16-50.39,4.49-74.68-4.62-1.94-8.99-3.78-13.34-5.62-14.52,20.93-32.86,35.85-58.31,41.05-1.61,19.84-3.21,39.66-4.83,59.64,6.75,3.32,12.27,7.94,17.02,13.98" style="fill: #00ace4;"/>
        </g>
        <path d="M1460.81,287.19c-12.63-35.43-66.38-49.15-122.72-32.71-2.4-2.68-4.79-5.38-7.27-7.99-15.78-16.58-33.13-31.31-52.07-44.16-25.96-17.62-53.9-31.18-83.63-41.14-21.27-7.13-43.03-12.22-65.19-15.63-14.76-2.27-29.6-3.82-44.51-4.38-10.32-.39-20.65-.18-30.98-.34-14.85-.23-29.64,.85-44.39,2.28-20.35,1.97-40.54,5.11-60.57,9.22-31.47,6.45-62.3,15.2-92.65,25.71-31.26,10.83-61.52,23.84-90.31,40.21-33.05,18.79-63.46,41.13-90.99,67.35-27.08,25.8-50.57,54.54-70.4,86.28-22.63,36.22-39.66,74.89-51.21,116-9.7,34.5-15.13,69.67-16.36,105.46-.68,19.73-.16,39.46,1.83,59.13,1.8,17.7,4.63,35.24,8.36,52.64,5.45,25.43,13.77,49.82,25.87,72.87,16.47,31.41,38.28,58.67,64.7,82.25,28.39,25.34,60.35,45.11,95.09,60.48,21.63,9.57,43.93,17.21,66.84,23.07,19.43,4.97,39.08,8.67,58.99,11.18,14.32,1.8,28.68,2.93,43.08,3.53,14.41,.6,28.82,.42,43.24-.28,15.02-.73,29.98-2.1,44.87-4.15,20.06-2.77,39.89-6.72,59.48-11.88,25.74-6.79,50.79-15.52,75.15-26.26,33.21-14.65,64.73-32.27,94.48-53.06,36.56-25.55,69.46-55.16,98.39-89.14,21.68-25.47,40.6-52.84,56.54-82.24,14.42-26.59,26.06-54.35,34.75-83.32,6.17-20.59,10.76-41.54,13.56-62.86,1.85-14.09,2.97-28.23,3.32-42.46,.47-18.95-.52-37.81-2.87-56.6-2.88-22.94-7.95-45.41-15.04-67.41,14.87-8.87,27.87-19.36,37.46-31.25,16.43-20.35,21.82-41.79,15.2-60.37Zm-82.28,261.74c-3.25,22.82-8.54,45.17-15.81,67.04-11.21,33.74-26.61,65.49-45.9,95.34-31.84,49.26-71.87,90.77-119.12,125.39-22.22,16.29-45.66,30.61-70.2,43.14-16.95,8.65-34.28,16.42-52.11,23.03-32.4,12.01-65.71,20.39-99.95,25.14-18.35,2.55-36.79,3.93-55.28,4.48-12.57,.37-25.14-.08-37.7-.82-16.85-.99-33.59-2.92-50.22-5.76-19.67-3.37-39.01-8.08-58-14.2-21.63-6.97-42.55-15.69-62.6-26.42-27.67-14.81-52.93-32.9-75.18-55.1-19.54-19.5-35.86-41.39-48.57-65.91-7.93-15.29-14.24-31.23-18.86-47.83-5.84-21.01-9.93-42.36-12.35-64.03-1.58-14.13-2.5-28.3-2.66-42.51-.18-15.55,.66-31.05,2.22-46.52,2.12-21.09,5.89-41.87,11.19-62.38,7.06-27.3,16.82-53.6,29.26-78.9,10.26-20.87,22.21-40.74,35.84-59.59,16.34-22.62,34.81-43.37,55.31-62.29,17.47-16.12,36.21-30.63,56.1-43.65,18.34-12,37.45-22.6,57.33-31.81,24.04-11.14,48.88-20.23,74.14-28.2,36.34-11.46,73.33-19.92,111.21-24.37,18.5-2.17,37.06-3.38,55.67-3.43,18.62-.05,37.18,1.04,55.67,3.45,22.05,2.88,43.69,7.54,64.86,14.32,27.6,8.84,53.62,21.02,77.85,36.95,20.95,13.78,39.85,29.95,56.73,48.47-41.53,24.38-64.8,61.97-53.87,92.65,6.61,18.58,24.35,31.78,49.93,37.17,8.23,1.73,16.96,2.59,26.01,2.59,15.34,0,31.56-2.61,47.72-7.44,7.68,25.25,12.41,51.04,14.13,77.39,1.63,24.97,.75,49.86-2.77,74.64Z" style="fill: #003068;"/>
        <path d="M1408.15,378.81c14.87-8.87,27.87-19.36,37.46-31.25,16.43-20.35,21.82-41.79,15.2-60.37-12.63-35.43-66.38-49.15-122.72-32.71l-40.7,17.46c-41.53,24.38-64.8,61.97-53.87,92.65,6.61,18.58,24.35,31.78,49.93,37.17,8.23,1.73,16.96,2.59,26.01,2.59,15.34,0,31.56-2.61,47.72-7.44l40.97-18.1Z" style="fill: #00ace4;"/>
        <path d="M1318.07,334.32v-24.03c2.3-.63,72.71-.85,77.55-.28,.66,2.23,.89,17.97,.36,24.04-.07,.08-.13,.16-.2,.23-.07,.07-.15,.14-.24,.16-.4,.07-.8,.17-1.2,.17-25.06,0-50.11,0-75.17,0-.28,0-.57-.15-1.09-.29" style="fill: #003068;"/>
        <path d="M1772.7,1093.97c14.59,2.54,7.48,10.91,4.93,21.78-2.58,11.03-5.74,21.81-8.58,32.87-1.04,4.07-9,23.69-6.4,27.26,1.36,1.86,17.12-11.93,19.55-13.39,8.74-5.25,17.99-9.93,27.91-12.63,7.32-1.99,22.59-7.48,29.3-.57,6.59,6.79,.29,18.85-3.03,25.47-4.69,9.32-7.73,19.16-7.95,30.05-.25,12.27-3.13,20.98-17.35,20.98-16.04,0-12.9-13.86-9.38-25.36,2.5-8.17,7.05-15.62,8.55-24.08,2.42-13.6-8.22-6.77-15.94-2.4-14.93,8.44-29.39,22.58-38.63,37.55-4.6,7.45-6.59,18.86-16.19,20.96-11.86,2.6-15.7-4.91-13.74-14.88,4.49-22.83,12.48-45.36,17.38-68.13,2.47-11.48,6.18-22.51,8.8-33.78,1.23-5.31,2.8-13.29,6.81-17.1,1.19-1.13,14.17-6.27,13.95-4.59Z" style="fill: #00ace4;"/>
        <path d="M1557.03,1252.21c-12.78,1.5-1.94-42.54-8.46-45.63-2.56-1.21-15.92,2.76-18.99,3.54-9.6,2.42-19.16,6.71-28.17,10.53-8,3.39-9.62,9.03-12.79,16.75-2.88,7.02-3.28,18.81-7.61,24.89-5.29,7.44-15.8,6.42-15.34-3.34,.38-7.99,8.16-18.63,6.55-26.3-1.35-6.43-9.28-10.68-4.68-19.2,1.91-3.54,6.52-4.61,9.81-6.58,4.61-2.76,4.52-2.76,6.97-7.89,2.94-6.14,5.25-11.85,7.22-18.42,2.86-9.57,7.97-17.62,11.52-26.69,.6-1.55,1.29-3.11,1.6-4.3,.31-1.19-2.07-1.97-1.55-3.7,1.64-5.42,4.54-3.81,8.6-5.88,8.22-4.19,13.19-12.68,22.96-14.2,15.46-2.41,5.19,3.66,6.79,10.78,1.47,6.53,15.28,3.84,19.6,9.59,5.36,7.12,3.42,18.6,5.21,26.63,1.03,4.63,.55,11.82,2.98,15.7,2.09,3.32,4.45,1.96,4,5.96-.06,.56-3.13,3.95-3.52,5.39-.83,3.12,.49,7.11,.35,10.28-.24,5.88-1.63,11.91-1.86,17.91-.29,7.45-.08,24.18-11.19,24.21Zm-47.48-50.54c-.15-.87,31.81-5.69,34.05-7.54,8-6.61-.35-26.41-8.51-31.21-11.62-6.84-14.58,7.01-19.1,15.66-2.34,4.48-14,23.09-6.44,23.09Z" style="fill: #00ace4;"/>
        <path d="M1461.53,1128.72c15.97-2.13,4.21,43.13,1.44,51.96-3.5,11.16-5.26,22.76-6.72,34.41-.74,5.85-2.6,14.85-1.86,20.66,.49,3.83,4.68,7.87,4.17,11.09-1.08,6.8-19.21,17.5-24.48,11.24-3.25-3.86,.5-26.09-5.12-24.49-.76,.22-7.37,10.29-8.76,11.66-2.25,2.21-4.26,3.9-6.85,5.72-9.36,6.57-22.83,10.3-33.58,5.15-15.41-7.38-20.63-29.48-22.03-45.04-.94-10.42-12.28-67.36,8.01-62.75,5.93,1.35,13.26,6.29,14.24,11.99,1.96,11.33-1.23,25.36-1.05,37.1,.17,11.31,9.12,51.29,28.81,41.76,7.29-3.53,14.99-15.34,18.42-22.49,3.53-7.35,6.28-16.32,8.38-24.43,3.4-13.14,5.53-26.55,9.23-39.43,2.86-9.95,5.84-23.2,17.77-24.12Z" style="fill: #00ace4;"/>
        <path d="M1636.44,1241.12c-13.73,0-28.55,.08-39.43-9.39-8.72-7.59-13.91-18.87-14.94-30.37-2.18-24.4,14.59-46.64,31.93-61.51,7.27-6.23,15.36-10.28,23.53-15.17,9.62-5.77,18.55-7.15,29.81-8.24,12.09-1.18,23.93-1.12,27.3,12.55,2.78,11.25,.68,25.18-2.73,36.01-2.83,8.98-5.4,18.58-15.16,21.36-16.66,4.74-13.83-10.44-11.4-22.44,1.07-5.26,1.93-9.59,4.66-14.1,1.8-2.97,7.99-9.29,5.95-12.97-5.01-9.09-29.74-1.56-36.46,1.49-18.93,8.59-31.75,33.03-31.36,53.44,.06,3.19-.29,10.92,.77,13.77,1.57,4.23,6.91,8.54,10.2,11.71,8.7,8.37,20.19,10.85,31.96,9.48,10.66-1.24,23.14-4.59,32.28-10.53,4.19-2.72,7.82-6.45,12.7-8.34,5.52-2.14,12.5-.94,8.54,6.69-2.24,4.32-10.24,7.29-14.31,9.7-5.01,2.96-10.84,5.2-15.91,7.99-2.49,1.37-37.94,14-37.95,8.87Zm10.26-120.84c.35,1.02,3.65-.18,3.39-1.04-1.13,.35-2.26,.69-3.39,1.04Z" style="fill: #00ace4;"/>
        <g>
          <g>
            <path d="M1472.62,977.61c16.98-.62,34.43,3.65,51.36,10.28,1.36,.53,2.68,2.92,2.8,4.54,.38,5.06,.29,10.16,.18,15.24-.07,3.17-1.85,3.88-4.95,2.03-3.73-2.22-7.25-4.88-11.12-6.8-20.65-10.22-41.91-13.85-64.16-5.39-15.64,5.94-25.96,16.73-30.79,32.92-4.3,14.39-4.21,28.6,.36,42.84,7.47,23.27,27.77,35.05,50.42,36.19,14.41,.72,28.13-2.23,41.28-7.67,4.86-2.01,9.17-5.45,13.55-8.49,2.08-1.45,3.62-2.17,5.21,.41,1.73,2.81,3.27,1.68,4.25-.5,3.59-7.97,7.06-16,10.56-24.01,4.44-10.18,8.93-20.34,13.3-30.55,4.32-10.11,8.46-20.29,12.77-30.4,3.8-8.92,7.66-17.83,11.71-26.63,.48-1.04,2.34-1.99,3.59-2.03,7.2-.22,14.41-.14,21.62-.21,3.72-.03,5.84,1.73,7.32,5.18,7.04,16.45,14.36,32.79,21.46,49.22,5.13,11.87,9.97,23.86,15.15,35.71,5.75,13.15,11.77,26.2,17.62,39.31,.68,1.53,1.17,3.18,1.5,4.82,.53,2.61-.57,3.74-3.34,4.1-4.84,.63-9.7,1.46-14.4,2.76-3.14,.87-4.29-.89-5.19-2.92-3.06-6.97-5.9-14.04-8.84-21.07-1.52-3.64-2.89-7.36-4.66-10.87-.61-1.2-2.1-2.34-3.42-2.71-2.14-.59-4.46-.71-6.71-.71-18.94-.05-37.87,.03-56.81-.06-3.41-.02-5.59,1.12-6.92,4.32-4.16,10-8.52,19.91-12.66,29.93-2.62,6.34-2.75,6.39-9.31,5.71-3.49-.36-7.06-.1-10.58,.02-2.59,.09-4.57-.2-5.68-3.17-.35-.94-3.16-1.92-4.31-1.48-24.02,9.12-48.53,9.94-73.3,4.15-6.08-1.42-11.69-4.74-17.63-6.85-6.88-2.44-12.42-6.99-16.81-12.3-5.12-6.2-9.43-13.28-12.98-20.52-7.04-14.36-6.56-29.99-4.8-45.25,.86-7.44,4.49-14.7,7.62-21.71,4.11-9.18,10.92-16.42,19.26-21.91,5.71-3.75,11.78-7.18,18.1-9.73,11.79-4.77,24.31-6.04,38.37-5.73Zm145.54,89.29c2.38,.06,4.1-1.45,3.46-4.53-.37-1.78-.91-3.56-1.64-5.22-4.11-9.42-8.36-18.78-12.45-28.21-3.53-8.15-6.84-16.4-10.41-24.53-.49-1.11-2.16-2.66-2.91-2.48-1.21,.29-2.36,1.71-3.07,2.93-.68,1.17-.59,2.76-1.13,4.04-7.14,16.84-14.34,33.65-21.5,50.48-2.58,6.07-1.44,7.59,5.05,7.55,14.39-.08,28.78-.03,44.59-.03Z" style="fill: #003068;"/>
            <path d="M782.08,1059.15c0,19.08,.02,38.15-.01,57.23-.01,5.82-.07,5.67-5.88,5.42-4.5-.2-9.05-.25-13.53,.15-3.21,.29-4.08-1.05-4.07-3.78,.02-5.79,.05-11.59,.05-17.38,0-31.79-.04-63.59,.04-95.38,.02-9.75-.41-10.05-10.43-9.83-11.72,.27-23.45,.25-35.17-.05-5.48-.14-9.42,.99-8.4,7.66,.36,2.35-.87,4.95-1.38,7.43-2.48-1.15-5.13-2.04-7.41-3.5-16.6-10.61-34.56-15.56-54.33-13.79-14.36,1.29-26.68,7.02-36.88,16.96-5.41,5.27-8.7,12.18-10.98,19.33-4.63,14.53-4.27,29.12,.19,43.7,2.94,9.63,8.65,17.62,16.07,23.89,9.24,7.81,20.62,11.34,32.73,12.06,11.1,.66,22.14-.32,32.69-3.7,8.93-2.86,17.66-6.54,25.04-12.7,.83-.69,2.55-1.38,3.17-.99,.83,.52,1.35,2.1,1.36,3.24,.08,4.93,.27,9.91-.34,14.77-.22,1.75-2.27,4-4.02,4.71-25.91,10.51-52.64,13.73-80.04,7.42-13.32-3.07-25.54-8.86-35.26-18.89-11.86-12.24-18-27.09-19.18-43.95-.94-13.51,.04-26.88,5.81-39.39,5.41-11.75,13.48-21.32,24.4-28.47,9.95-6.52,20.81-10.13,32.48-12.24,15.55-2.82,30.95-1.43,46.33,.53,5.37,.68,10.6,2.87,15.76,4.73,3.2,1.15,5.23,1.12,6.71-2.49,.49-1.19,2.73-2.37,4.17-2.38,44.37-.09,88.74-.04,133.11,0,1.69,0,3.4-.06,5.08,.11,2.67,.27,3.98,1.68,3.78,4.55-.16,2.37,.14,4.77,.12,7.16-.03,3.22-1.41,4.78-4.97,4.72-16.81-.29-33.62-.44-50.43-.5-5.55-.02-6.68,1.39-6.67,6.83,.03,18.93,.01,37.87,.01,56.8,.09,0,.17,0,.26,0Z" style="fill: #003068;"/>
            <path d="M1183.53,1002.02c-.29,1.84-.84,3.68-.83,5.52,.11,31.09,.29,62.17,.47,93.25,.03,5.93,.12,11.86,.23,17.79,.05,2.54-.42,3.85-3.63,3.49-4.18-.47-8.45-.22-12.67-.06-4.75,.18-5.85-.58-5.89-5.37-.1-11.73-.07-23.46-.09-35.19-.03-21.89-.04-43.78-.08-65.67-.02-9.75-.14-19.5-.1-29.25,.03-6.09,1.26-7.14,7.21-7.1,7.48,.05,15-.4,22.43,.2,2.63,.21,5.93,2.32,7.44,4.56,10.37,15.41,20.29,31.11,30.46,46.65,8.47,12.94,17.13,25.75,25.59,38.69,3.85,5.89,7.33,12.02,11.17,17.92,.73,1.12,2.34,1.67,3.55,2.48,.59-1.46,1.7-2.92,1.7-4.37-.08-30.66-.29-61.31-.48-91.97-.02-2.82-.1-5.65-.25-8.47-.21-4.06,.99-5.51,4.95-5.57,3.81-.06,7.63-.04,11.44,0,4.57,.04,5.71,1.12,5.73,5.82,.08,17.1,.11,34.2,.11,51.3,0,26.29-.06,52.57-.09,78.86,0,6.29-.14,6.35-6.33,6.39-5.22,.04-10.45,.13-15.65,.52-5.53,.41-7.6-3.72-9.97-7.27-10.55-15.86-20.96-31.8-31.39-47.73-6.72-10.26-13.38-20.57-20.11-30.83-7.01-10.69-14.05-21.36-21.12-32.01-.67-1.02-1.63-1.85-2.45-2.77-.46,.06-.91,.12-1.37,.17Z" style="fill: #003068;"/>
            <path d="M984.57,1048.5c-.78-13.27,2.93-25.75,9.38-36.76,7.93-13.56,19.6-23.38,35.07-28.76,11.85-4.12,23.86-5.82,36.15-5.88,8.58-.04,17.48-.05,25.68,2.09,20.54,5.34,37.77,15.56,47.76,35.71,9.86,19.89,10.27,40.66,4.63,61.09-5.72,20.7-19.69,35.37-40.36,42.91-22.23,8.12-44.78,7.88-67.51,2.57-13.03-3.05-24.16-9.87-33.13-19.46-7.51-8.03-13.12-17.65-15.09-28.8-1.44-8.16-2.47-16.4-3.68-24.6,.37-.03,.74-.07,1.11-.1Zm24.58,4.83c-.35,.06-.71,.12-1.06,.19,1.81,8.37,2.48,17.2,5.65,25.02,6.73,16.58,20.01,26.36,37.43,29.44,8.35,1.47,17.18,1.34,25.68,.62,15.02-1.27,26.61-9.29,35.7-20.96,2.12-2.73,3.95-5.99,4.86-9.29,1.78-6.47,3.29-13.09,4.08-19.75,1.98-16.61-.77-32.33-10.68-46.21-4.84-6.78-11.24-12.16-18.99-15.05-13.45-5.03-27.44-6.4-41.63-3.43-14.85,3.11-26.73,11.05-33.85,24.34-5.74,10.71-8.33,22.66-7.18,35.1Z" style="fill: #003068;"/>
            <path d="M991.51,1121.7c-2.65,.31-4.11,.63-5.57,.63-6.63-.02-13.3-.52-19.9-.08-5.23,.35-8.11-3.08-11.14-5.89-7.97-7.37-15.47-15.24-23.23-22.84-9.06-8.87-18.15-17.71-27.34-26.43-1.11-1.06-2.98-1.81-4.51-1.85-6.76-.17-13.52-.11-20.28,.03-4.82,.1-5.51,1-5.46,5.89,.17,15.25,.23,30.51,.5,45.76,.07,3.82-.5,5.75-5.17,5.14-4.71-.62-9.62-.43-14.36,.1-3.56,.4-4.24-1.09-4.22-3.96,.04-6.22,.09-12.43,.08-18.65-.02-32.92-.07-65.84-.09-98.76,0-5.78,.05-11.57,.1-17.36,.02-2.75,1.37-4.17,4.18-4.16,10.99,.07,21.99-.14,32.97,.26,13.53,.49,27.17,.65,40.54,2.52,11.59,1.62,22.24,6.91,29.77,16.35,11.09,13.91,7.29,37.02-4.78,47.31-6.94,5.92-14.35,10.31-22.89,13.12-2.8,.92-3.22,2.38-.92,4.56,14.64,13.85,29.2,27.8,43.87,41.63,4.81,4.53,9.85,8.81,14.76,13.23,.8,.72,1.46,1.59,3.09,3.41Zm-117.49-96.78s.08,0,.12,0c0,6.63,.19,13.27-.07,19.88-.14,3.57,.92,5.47,4.63,5.33,12.37-.48,24.81-.38,37.1-1.68,12.11-1.29,20.3-8.39,23.59-20.42,4.35-15.91-3.73-27.66-18.52-30.24-13.64-2.38-27.77-2.01-41.7-2.66-3.26-.15-5.21,1.64-5.17,5.26,.08,8.17,.03,16.35,.03,24.53Z" style="fill: #003068;"/>
            <path d="M204.73,1051.14c0-22.18,.03-44.36-.03-66.55,0-3.3,1.13-5.03,4.65-5.02,34.05,.05,68.1,.06,102.15,.07,1.13,0,2.26,0,3.38-.11,3.39-.31,5.18,1.21,5.04,4.6-.47,12.13,1.91,11.8-11.02,11.64-25-.3-50.01-.1-75.02-.07-4.32,0-5.46,1.22-5.45,5.6,.03,9.47,.08,18.93,.16,28.4,.04,5.27,1.64,6.56,6.99,6.52,23.31-.18,46.62-.33,69.93-.32,7.94,0,7.94,.22,7.73,8.11q-.22,8.13-8.31,8.12c-23.59,0-47.19,.01-70.78,.01-4.54,0-5.68,1.21-5.69,5.76-.04,14.69-.19,29.38-.08,44.07,0,1.23,1.43,3.14,2.59,3.51,2.07,.66,4.44,.5,6.69,.5,25.71,.01,51.43,.06,77.14-.11,3.89-.03,4.91,1.57,4.96,4.99,.15,11.18,.2,11.24-10.56,11.24-33.34,0-66.68-.08-100.02,0-3.35,0-4.42-1.08-4.4-4.41,.11-22.18,.06-44.37,.06-66.55-.04,0-.07,0-.11,0Z" style="fill: #003068;"/>
            <path d="M446.99,1050.76c0-22.19,.03-44.37-.03-66.56,0-3.32,1.04-4.82,4.66-4.81,35.47,.11,70.94,.11,106.41,.05,2.99,0,4.12,1.25,4.07,4.01-.04,2.26-.11,4.52-.12,6.78-.03,5.03-.8,5.8-5.97,5.78-26.7-.1-53.39-.21-80.09-.31-4.18-.02-5.52,1.38-5.46,5.12,.15,9.88,.46,19.78,.11,29.64-.15,4.05,1.37,5.5,4.86,5.61,4.5,.15,9.01,.06,13.51,.06,18.94,0,37.87,0,56.81,.01q9.24,0,9.64,9.3c.27,6.36-.3,6.81-6.41,6.78-24.02-.1-48.04-.15-72.06-.12-6.03,0-6.38,.75-6.36,6.78,.05,14.4-.16,28.81,0,43.21,.01,1.17,1.93,3.24,3.1,3.34,5.75,.49,11.55,.6,17.33,.6,21.9,0,43.81,0,65.71-.21,4.03-.04,5.6,1.14,5.43,5.27-.5,11.92,2.57,10.92-11.08,10.92-32.22,0-64.44,0-96.65,.04-7.17,0-7.03,.07-7-7.29,.08-21.34,.03-42.68,.03-64.01-.13,0-.27,0-.4,0Z" style="fill: #003068;"/>
            <path d="M1333.7,1050.66c0-17.23-.05-34.47,.04-51.7,.02-3.72-1.26-5.56-5.18-5.35-4.51,.24-9.04,.21-13.55,.37-3.55,.13-5.1-1.37-5.05-5.05,.13-8.55-1.56-9.5,9.49-9.31,18.36,.32,36.72,.01,55.09,.02,6.15,0,6.56,.63,6.49,8.79-.04,4.53-1.1,5.42-6.49,5.38-4.1-.03-8.19-.02-12.28-.2-3.73-.17-5.45,1.33-5.44,5.18,.12,31.92,.17,63.84,.22,95.76,0,2.54-.09,5.08-.21,7.62-.22,4.34,1.04,5.88,5.54,6.07,4.09,.17,8.19,.08,12.28,.05,5.51-.04,6.18,.59,6.17,5.92,0,.71,0,1.41,.03,2.12,.21,5.27-.24,5.6-5.71,5.61-19.63,.05-39.26,.14-58.89,.29-5.81,.04-6.14-.18-6.18-6.14,0-1.13,.06-2.27-.06-3.39-.32-3.15,1.27-4.42,4.21-4.4,4.1,.03,8.19,.03,12.29,.15,6.22,.18,7.07-.56,7.08-6.92,.03-16.95,0-33.9,0-50.86h.11Z" style="fill: #003068;"/>
            <path d="M334.08,1051.41c0-21.61,0-43.22,0-64.83,0-6.47,.51-7,6.89-7.06,4.09-.04,8.18-.15,12.27-.15,4.1,0,5.02,1.29,4.83,5.45-.26,5.78-.28,11.57-.28,17.36-.02,32.91,.01,65.82-.01,98.72,0,3.36,1.15,5.48,4.84,5.46,18.92-.1,37.83-.2,56.75-.3,5.64-.03,11.29,.06,16.93-.07,3.18-.07,4.24,1.56,4.24,4.43,0,13.56,1.73,11.65-10.74,11.69-30.78,.11-61.57-.08-92.35-.1-2.36,0-3.21-.84-3.21-3.25,.07-22.45,.04-44.9,.04-67.35-.07,0-.13,0-.2,0Z" style="fill: #003068;"/>
          </g>
          <g>
            <path d="M1472.62,977.61c16.98-.62,34.43,3.65,51.36,10.28,1.36,.53,2.68,2.92,2.8,4.54,.38,5.06,.29,10.16,.18,15.24-.07,3.17-1.85,3.88-4.95,2.03-3.73-2.22-7.25-4.88-11.12-6.8-20.65-10.22-41.91-13.85-64.16-5.39-15.64,5.94-25.96,16.73-30.79,32.92-4.3,14.39-4.21,28.6,.36,42.84,7.47,23.27,27.77,35.05,50.42,36.19,14.41,.72,28.13-2.23,41.28-7.67,4.86-2.01,9.17-5.45,13.55-8.49,2.08-1.45,3.62-2.17,5.21,.41,1.73,2.81,3.27,1.68,4.25-.5,3.59-7.97,7.06-16,10.56-24.01,4.44-10.18,8.93-20.34,13.3-30.55,4.32-10.11,8.46-20.29,12.77-30.4,3.8-8.92,7.66-17.83,11.71-26.63,.48-1.04,2.34-1.99,3.59-2.03,7.2-.22,14.41-.14,21.62-.21,3.72-.03,5.84,1.73,7.32,5.18,7.04,16.45,14.36,32.79,21.46,49.22,5.13,11.87,9.97,23.86,15.15,35.71,5.75,13.15,11.77,26.2,17.62,39.31,.68,1.53,1.17,3.18,1.5,4.82,.53,2.61-.57,3.74-3.34,4.1-4.84,.63-9.7,1.46-14.4,2.76-3.14,.87-4.29-.89-5.19-2.92-3.06-6.97-5.9-14.04-8.84-21.07-1.52-3.64-2.89-7.36-4.66-10.87-.61-1.2-2.1-2.34-3.42-2.71-2.14-.59-4.46-.71-6.71-.71-18.94-.05-37.87,.03-56.81-.06-3.41-.02-5.59,1.12-6.92,4.32-4.16,10-8.52,19.91-12.66,29.93-2.62,6.34-2.75,6.39-9.31,5.71-3.49-.36-7.06-.1-10.58,.02-2.59,.09-4.57-.2-5.68-3.17-.35-.94-3.16-1.92-4.31-1.48-24.02,9.12-48.53,9.94-73.3,4.15-6.08-1.42-11.69-4.74-17.63-6.85-6.88-2.44-12.42-6.99-16.81-12.3-5.12-6.2-9.43-13.28-12.98-20.52-7.04-14.36-6.56-29.99-4.8-45.25,.86-7.44,4.49-14.7,7.62-21.71,4.11-9.18,10.92-16.42,19.26-21.91,5.71-3.75,11.78-7.18,18.1-9.73,11.79-4.77,24.31-6.04,38.37-5.73Zm145.54,89.29c2.38,.06,4.1-1.45,3.46-4.53-.37-1.78-.91-3.56-1.64-5.22-4.11-9.42-8.36-18.78-12.45-28.21-3.53-8.15-6.84-16.4-10.41-24.53-.49-1.11-2.16-2.66-2.91-2.48-1.21,.29-2.36,1.71-3.07,2.93-.68,1.17-.59,2.76-1.13,4.04-7.14,16.84-14.34,33.65-21.5,50.48-2.58,6.07-1.44,7.59,5.05,7.55,14.39-.08,28.78-.03,44.59-.03Z" style="fill: #003068;"/>
            <path d="M782.08,1059.15c0,19.08,.02,38.15-.01,57.23-.01,5.82-.07,5.67-5.88,5.42-4.5-.2-9.05-.25-13.53,.15-3.21,.29-4.08-1.05-4.07-3.78,.02-5.79,.05-11.59,.05-17.38,0-31.79-.04-63.59,.04-95.38,.02-9.75-.41-10.05-10.43-9.83-11.72,.27-23.45,.25-35.17-.05-5.48-.14-9.42,.99-8.4,7.66,.36,2.35-.87,4.95-1.38,7.43-2.48-1.15-5.13-2.04-7.41-3.5-16.6-10.61-34.56-15.56-54.33-13.79-14.36,1.29-26.68,7.02-36.88,16.96-5.41,5.27-8.7,12.18-10.98,19.33-4.63,14.53-4.27,29.12,.19,43.7,2.94,9.63,8.65,17.62,16.07,23.89,9.24,7.81,20.62,11.34,32.73,12.06,11.1,.66,22.14-.32,32.69-3.7,8.93-2.86,17.66-6.54,25.04-12.7,.83-.69,2.55-1.38,3.17-.99,.83,.52,1.35,2.1,1.36,3.24,.08,4.93,.27,9.91-.34,14.77-.22,1.75-2.27,4-4.02,4.71-25.91,10.51-52.64,13.73-80.04,7.42-13.32-3.07-25.54-8.86-35.26-18.89-11.86-12.24-18-27.09-19.18-43.95-.94-13.51,.04-26.88,5.81-39.39,5.41-11.75,13.48-21.32,24.4-28.47,9.95-6.52,20.81-10.13,32.48-12.24,15.55-2.82,30.95-1.43,46.33,.53,5.37,.68,10.6,2.87,15.76,4.73,3.2,1.15,5.23,1.12,6.71-2.49,.49-1.19,2.73-2.37,4.17-2.38,44.37-.09,88.74-.04,133.11,0,1.69,0,3.4-.06,5.08,.11,2.67,.27,3.98,1.68,3.78,4.55-.16,2.37,.14,4.77,.12,7.16-.03,3.22-1.41,4.78-4.97,4.72-16.81-.29-33.62-.44-50.43-.5-5.55-.02-6.68,1.39-6.67,6.83,.03,18.93,.01,37.87,.01,56.8,.09,0,.17,0,.26,0Z" style="fill: #003068;"/>
            <path d="M1183.53,1002.02c-.29,1.84-.84,3.68-.83,5.52,.11,31.09,.29,62.17,.47,93.25,.03,5.93,.12,11.86,.23,17.79,.05,2.54-.42,3.85-3.63,3.49-4.18-.47-8.45-.22-12.67-.06-4.75,.18-5.85-.58-5.89-5.37-.1-11.73-.07-23.46-.09-35.19-.03-21.89-.04-43.78-.08-65.67-.02-9.75-.14-19.5-.1-29.25,.03-6.09,1.26-7.14,7.21-7.1,7.48,.05,15-.4,22.43,.2,2.63,.21,5.93,2.32,7.44,4.56,10.37,15.41,20.29,31.11,30.46,46.65,8.47,12.94,17.13,25.75,25.59,38.69,3.85,5.89,7.33,12.02,11.17,17.92,.73,1.12,2.34,1.67,3.55,2.48,.59-1.46,1.7-2.92,1.7-4.37-.08-30.66-.29-61.31-.48-91.97-.02-2.82-.1-5.65-.25-8.47-.21-4.06,.99-5.51,4.95-5.57,3.81-.06,7.63-.04,11.44,0,4.57,.04,5.71,1.12,5.73,5.82,.08,17.1,.11,34.2,.11,51.3,0,26.29-.06,52.57-.09,78.86,0,6.29-.14,6.35-6.33,6.39-5.22,.04-10.45,.13-15.65,.52-5.53,.41-7.6-3.72-9.97-7.27-10.55-15.86-20.96-31.8-31.39-47.73-6.72-10.26-13.38-20.57-20.11-30.83-7.01-10.69-14.05-21.36-21.12-32.01-.67-1.02-1.63-1.85-2.45-2.77-.46,.06-.91,.12-1.37,.17Z" style="fill: #003068;"/>
            <path d="M984.57,1048.5c-.78-13.27,2.93-25.75,9.38-36.76,7.93-13.56,19.6-23.38,35.07-28.76,11.85-4.12,23.86-5.82,36.15-5.88,8.58-.04,17.48-.05,25.68,2.09,20.54,5.34,37.77,15.56,47.76,35.71,9.86,19.89,10.27,40.66,4.63,61.09-5.72,20.7-19.69,35.37-40.36,42.91-22.23,8.12-44.78,7.88-67.51,2.57-13.03-3.05-24.16-9.87-33.13-19.46-7.51-8.03-13.12-17.65-15.09-28.8-1.44-8.16-2.47-16.4-3.68-24.6,.37-.03,.74-.07,1.11-.1Zm24.58,4.83c-.35,.06-.71,.12-1.06,.19,1.81,8.37,2.48,17.2,5.65,25.02,6.73,16.58,20.01,26.36,37.43,29.44,8.35,1.47,17.18,1.34,25.68,.62,15.02-1.27,26.61-9.29,35.7-20.96,2.12-2.73,3.95-5.99,4.86-9.29,1.78-6.47,3.29-13.09,4.08-19.75,1.98-16.61-.77-32.33-10.68-46.21-4.84-6.78-11.24-12.16-18.99-15.05-13.45-5.03-27.44-6.4-41.63-3.43-14.85,3.11-26.73,11.05-33.85,24.34-5.74,10.71-8.33,22.66-7.18,35.1Z" style="fill: #003068;"/>
            <path d="M991.51,1121.7c-2.65,.31-4.11,.63-5.57,.63-6.63-.02-13.3-.52-19.9-.08-5.23,.35-8.11-3.08-11.14-5.89-7.97-7.37-15.47-15.24-23.23-22.84-9.06-8.87-18.15-17.71-27.34-26.43-1.11-1.06-2.98-1.81-4.51-1.85-6.76-.17-13.52-.11-20.28,.03-4.82,.1-5.51,1-5.46,5.89,.17,15.25,.23,30.51,.5,45.76,.07,3.82-.5,5.75-5.17,5.14-4.71-.62-9.62-.43-14.36,.1-3.56,.4-4.24-1.09-4.22-3.96,.04-6.22,.09-12.43,.08-18.65-.02-32.92-.07-65.84-.09-98.76,0-5.78,.05-11.57,.1-17.36,.02-2.75,1.37-4.17,4.18-4.16,10.99,.07,21.99-.14,32.97,.26,13.53,.49,27.17,.65,40.54,2.52,11.59,1.62,22.24,6.91,29.77,16.35,11.09,13.91,7.29,37.02-4.78,47.31-6.94,5.92-14.35,10.31-22.89,13.12-2.8,.92-3.22,2.38-.92,4.56,14.64,13.85,29.2,27.8,43.87,41.63,4.81,4.53,9.85,8.81,14.76,13.23,.8,.72,1.46,1.59,3.09,3.41Zm-117.49-96.78s.08,0,.12,0c0,6.63,.19,13.27-.07,19.88-.14,3.57,.92,5.47,4.63,5.33,12.37-.48,24.81-.38,37.1-1.68,12.11-1.29,20.3-8.39,23.59-20.42,4.35-15.91-3.73-27.66-18.52-30.24-13.64-2.38-27.77-2.01-41.7-2.66-3.26-.15-5.21,1.64-5.17,5.26,.08,8.17,.03,16.35,.03,24.53Z" style="fill: #003068;"/>
            <path d="M204.73,1051.14c0-22.18,.03-44.36-.03-66.55,0-3.3,1.13-5.03,4.65-5.02,34.05,.05,68.1,.06,102.15,.07,1.13,0,2.26,0,3.38-.11,3.39-.31,5.18,1.21,5.04,4.6-.47,12.13,1.91,11.8-11.02,11.64-25-.3-50.01-.1-75.02-.07-4.32,0-5.46,1.22-5.45,5.6,.03,9.47,.08,18.93,.16,28.4,.04,5.27,1.64,6.56,6.99,6.52,23.31-.18,46.62-.33,69.93-.32,7.94,0,7.94,.22,7.73,8.11q-.22,8.13-8.31,8.12c-23.59,0-47.19,.01-70.78,.01-4.54,0-5.68,1.21-5.69,5.76-.04,14.69-.19,29.38-.08,44.07,0,1.23,1.43,3.14,2.59,3.51,2.07,.66,4.44,.5,6.69,.5,25.71,.01,51.43,.06,77.14-.11,3.89-.03,4.91,1.57,4.96,4.99,.15,11.18,.2,11.24-10.56,11.24-33.34,0-66.68-.08-100.02,0-3.35,0-4.42-1.08-4.4-4.41,.11-22.18,.06-44.37,.06-66.55-.04,0-.07,0-.11,0Z" style="fill: #003068;"/>
            <path d="M446.99,1050.76c0-22.19,.03-44.37-.03-66.56,0-3.32,1.04-4.82,4.66-4.81,35.47,.11,70.94,.11,106.41,.05,2.99,0,4.12,1.25,4.07,4.01-.04,2.26-.11,4.52-.12,6.78-.03,5.03-.8,5.8-5.97,5.78-26.7-.1-53.39-.21-80.09-.31-4.18-.02-5.52,1.38-5.46,5.12,.15,9.88,.46,19.78,.11,29.64-.15,4.05,1.37,5.5,4.86,5.61,4.5,.15,9.01,.06,13.51,.06,18.94,0,37.87,0,56.81,.01q9.24,0,9.64,9.3c.27,6.36-.3,6.81-6.41,6.78-24.02-.1-48.04-.15-72.06-.12-6.03,0-6.38,.75-6.36,6.78,.05,14.4-.16,28.81,0,43.21,.01,1.17,1.93,3.24,3.1,3.34,5.75,.49,11.55,.6,17.33,.6,21.9,0,43.81,0,65.71-.21,4.03-.04,5.6,1.14,5.43,5.27-.5,11.92,2.57,10.92-11.08,10.92-32.22,0-64.44,0-96.65,.04-7.17,0-7.03,.07-7-7.29,.08-21.34,.03-42.68,.03-64.01-.13,0-.27,0-.4,0Z" style="fill: #003068;"/>
            <path d="M1333.7,1050.66c0-17.23-.05-34.47,.04-51.7,.02-3.72-1.26-5.56-5.18-5.35-4.51,.24-9.04,.21-13.55,.37-3.55,.13-5.1-1.37-5.05-5.05,.13-8.55-1.56-9.5,9.49-9.31,18.36,.32,36.72,.01,55.09,.02,6.15,0,6.56,.63,6.49,8.79-.04,4.53-1.1,5.42-6.49,5.38-4.1-.03-8.19-.02-12.28-.2-3.73-.17-5.45,1.33-5.44,5.18,.12,31.92,.17,63.84,.22,95.76,0,2.54-.09,5.08-.21,7.62-.22,4.34,1.04,5.88,5.54,6.07,4.09,.17,8.19,.08,12.28,.05,5.51-.04,6.18,.59,6.17,5.92,0,.71,0,1.41,.03,2.12,.21,5.27-.24,5.6-5.71,5.61-19.63,.05-39.26,.14-58.89,.29-5.81,.04-6.14-.18-6.18-6.14,0-1.13,.06-2.27-.06-3.39-.32-3.15,1.27-4.42,4.21-4.4,4.1,.03,8.19,.03,12.29,.15,6.22,.18,7.07-.56,7.08-6.92,.03-16.95,0-33.9,0-50.86h.11Z" style="fill: #003068;"/>
            <path d="M334.08,1051.41c0-21.61,0-43.22,0-64.83,0-6.47,.51-7,6.89-7.06,4.09-.04,8.18-.15,12.27-.15,4.1,0,5.02,1.29,4.83,5.45-.26,5.78-.28,11.57-.28,17.36-.02,32.91,.01,65.82-.01,98.72,0,3.36,1.15,5.48,4.84,5.46,18.92-.1,37.83-.2,56.75-.3,5.64-.03,11.29,.06,16.93-.07,3.18-.07,4.24,1.56,4.24,4.43,0,13.56,1.73,11.65-10.74,11.69-30.78,.11-61.57-.08-92.35-.1-2.36,0-3.21-.84-3.21-3.25,.07-22.45,.04-44.9,.04-67.35-.07,0-.13,0-.2,0Z" style="fill: #003068;"/>
          </g>
        </g>
      </g>
    </g>
  </g>
</svg>