<?xml version="1.0" encoding="UTF-8"?>
<svg id="Layer_2" data-name="Layer 2" xmlns="http://www.w3.org/2000/svg" viewBox="0 0 2047 877.61">
  <g id="Logos-IngCivilInformatica">
    <g id="Logo-IngCivilInformatica-Oficial-Blanco">
      <rect y="0" width="2047" height="877.61" style="fill: none;"/>
      <g>
        <g>
          <rect x="204.7" y="486.33" width="17.93" height="131.3" style="fill: #fff;"/>
          <polygon points="331.86 619.43 264.02 523.44 264.02 617.63 246.99 617.63 246.99 486.33 254.16 486.33 320.22 577.12 320.22 486.33 337.24 486.33 337.24 619.43 331.86 619.43" style="fill: #fff; fill-rule: evenodd;"/>
          <polygon points="382.08 502.46 382.08 538.94 428.23 538.94 428.23 554.17 382.08 554.17 382.08 617.63 364.15 617.63 364.15 486.33 445.26 486.33 445.26 502.46 382.08 502.46" style="fill: #fff; fill-rule: evenodd;"/>
          <path d="M454.25,550.86c0-19.01,4.75-34.9,14.25-47.69,9.56-12.78,22.43-19.17,38.63-19.18,18.22,0,32.17,5.89,41.85,17.66,9.74,11.77,14.6,28.17,14.61,49.21,0,21.57-4.87,38.48-14.61,50.72-9.74,12.19-23.69,18.29-41.85,18.29-16.55,0-29.52-6.46-38.9-19.36-9.32-12.91-13.98-29.46-13.98-49.65Zm18.82,0c0,15.05,2.96,27.63,8.87,37.73,5.98,10.1,14.37,15.15,25.19,15.15,12.24,0,21.57-4.63,27.96-13.89,6.45-9.26,9.68-22.26,9.68-38.99,0-33.82-12.55-50.73-37.64-50.73-11.11,0-19.57,4.55-25.36,13.62-5.8,9.09-8.7,21.45-8.7,37.11Z" style="fill: #fff; fill-rule: evenodd;"/>
          <path d="M657.09,617.63l-35.04-56.37c-4.01,0-10.34-.3-19-.89v57.27h-17.93v-131.3c.66,0,5.29-.21,13.9-.63,8.66-.48,14.96-.72,18.91-.72,31.55,0,47.32,12.55,47.32,37.64,0,8.25-2.54,15.69-7.62,22.32-5.08,6.57-11.11,10.66-18.11,12.28l38.1,60.41h-20.53Zm-54.05-115.17v42.66c4.3,.6,8.48,.89,12.55,.89,10.75,0,18.58-1.73,23.48-5.2,4.9-3.46,7.35-9.65,7.35-18.55,0-7.35-2.63-12.64-7.89-15.87-5.26-3.23-13.56-4.84-24.91-4.84-1.79,0-5.32,.3-10.58,.9Z" style="fill: #fff; fill-rule: evenodd;"/>
          <polygon points="805.57 617.63 789.97 533.29 761.29 619.43 756.81 619.43 727.32 533.29 712.08 617.63 695.05 617.63 719.61 486.33 727.77 486.33 759.05 582.14 787.91 486.33 795.98 486.33 822.59 617.63 805.57 617.63" style="fill: #fff; fill-rule: evenodd;"/>
          <path d="M925.73,617.63l-9.05-27.7h-48.84l-9.68,27.7h-20.07l53.33-133.1h4.75l49.47,133.1h-19.9Zm-32.8-98.68l-20.35,57.81h38.99l-18.64-57.81Zm21.78-73.23l-20.26,29.85h-12.55l15.15-29.85h17.66Z" style="fill: #fff; fill-rule: evenodd;"/>
          <polygon points="1000.21 502.46 1000.21 617.63 982.28 617.63 982.28 502.46 940.52 502.46 940.52 486.33 1043.86 486.33 1043.86 502.46 1000.21 502.46" style="fill: #fff; fill-rule: evenodd;"/>
          <rect x="1062.07" y="486.33" width="17.92" height="131.3" style="fill: #fff;"/>
          <path d="M1193.84,491.17l-6,15.33c-5.74-4.18-14.76-6.28-27.07-6.28-11.53,0-20.79,4.96-27.78,14.88-6.94,9.92-10.4,22.7-10.4,38.36s3.56,27.07,10.66,36.39c7.18,9.26,16.41,13.89,27.7,13.89,12.31,0,21.77-4.36,28.41-13.08l9.86,13.71c-10.39,10.34-23.78,15.5-40.15,15.51-17.15,0-30.65-6.19-40.51-18.56-9.86-12.37-14.79-28.68-14.79-48.94s5.26-35.88,15.77-48.85c10.52-12.96,24.11-19.44,40.78-19.45,14.28,0,25.45,2.37,33.52,7.08Z" style="fill: #fff; fill-rule: evenodd;"/>
          <path d="M1305.79,617.63l-9.05-27.7h-48.84l-9.68,27.7h-20.08l53.33-133.1h4.75l49.47,133.1h-19.89Zm-32.81-98.68l-20.34,57.81h38.99l-18.65-57.81Z" style="fill: #fff; fill-rule: evenodd;"/>
        </g>
        <g>
          <rect x="205.67" y="330.24" width="12.15" height="102.47" style="fill: #fff;"/>
          <path d="M291.3,432.7v-41.72c0-7.61-1.12-13.32-3.36-17.13-2.16-3.9-6.16-5.85-12.01-5.85-5.17,0-9.47,1.41-12.88,4.25-3.32,2.73-5.66,6.19-7.02,10.39v50.06h-11.72v-73.19h10.1l.29,8.93h.59c2.34-3.12,5.46-5.66,9.37-7.62,4-2.05,8.74-3.07,14.2-3.07,4,0,7.51,.49,10.54,1.47,3.02,.88,5.51,2.49,7.46,4.83,2.05,2.34,3.56,5.52,4.54,9.52,1.07,3.9,1.61,8.88,1.61,14.93v44.21h-11.72Z" style="fill: #fff; fill-rule: evenodd;"/>
          <path d="M380.46,436.07c0,9.47-2.53,16.45-7.61,20.94-4.98,4.49-12.4,6.74-22.25,6.74-5.86,0-10.59-.39-14.2-1.17-3.51-.68-6.54-1.61-9.08-2.78l3.07-9.95c2.25,.88,4.74,1.71,7.47,2.49,2.73,.78,6.29,1.18,10.69,1.18,4.1,0,7.42-.4,9.95-1.18,2.64-.68,4.73-1.91,6.3-3.66,1.56-1.66,2.63-3.86,3.22-6.59,.58-2.63,.88-5.8,.88-9.51v-7.03h-.59c-1.95,2.83-4.44,5.03-7.47,6.58-3.02,1.47-6.98,2.2-11.86,2.2-9.86,0-17.13-3.07-21.81-9.22-4.59-6.15-6.88-15.72-6.88-28.7s2.97-21.96,8.92-28.4c5.96-6.54,14.74-9.8,26.35-9.8,5.56,0,10.3,.43,14.2,1.31,4,.88,7.56,1.9,10.69,3.08v73.48Zm-29.42-12c4.97,0,8.88-1.22,11.71-3.66,2.83-2.54,4.83-6.44,6.01-11.71v-37.47c-3.9-1.85-8.88-2.78-14.93-2.78-6.63,0-11.86,2.24-15.66,6.73-3.81,4.49-5.71,11.52-5.71,21.09,0,4.09,.34,7.85,1.03,11.27,.68,3.42,1.76,6.35,3.22,8.78,1.47,2.45,3.37,4.34,5.71,5.71,2.35,1.36,5.23,2.05,8.64,2.05Z" style="fill: #fff; fill-rule: evenodd;"/>
          <path d="M456.43,427.88c-2.93,2.34-6.64,4.2-11.13,5.56-4.39,1.36-9.08,2.05-14.05,2.05-5.56,0-10.39-.92-14.49-2.78-4.1-1.75-7.47-4.3-10.11-7.6-2.64-3.42-4.58-8.2-5.85-14.35-1.27-6.14-1.9-10.59-1.9-13.32,0-12.49,2.79-22.01,8.35-28.54,5.56-6.54,13.52-9.81,23.86-9.81,3.32,0,6.64,.39,9.95,1.17,3.32,.69,6.29,2.06,8.93,4.1,2.64,2.05,4.79,4.98,6.45,8.78,1.66,3.71,2.49,8.64,2.49,14.78,0,3.22-.29,6.79-.88,10.69h-46.99c0,1.17,.44,4.14,1.31,8.93,.88,4.78,2.25,8.34,4.1,10.69,1.85,2.24,4.25,4,7.18,5.27,3.02,1.17,6.68,1.75,10.98,1.75,3.32,0,6.64-.59,9.95-1.75,3.31-1.17,5.8-2.54,7.46-4.1l4.4,8.49Zm-25.18-58.56c-5.76,0-10.39,1.52-13.9,4.53-3.42,3.03-5.46,8.2-6.15,15.52h36.31c0-7.42-1.41-12.59-4.25-15.52-2.83-3.02-6.83-4.53-12-4.53Z" style="fill: #fff; fill-rule: evenodd;"/>
          <path d="M524.35,432.7v-41.72c0-7.61-1.12-13.32-3.37-17.13-2.15-3.9-6.15-5.85-12-5.85-5.17,0-9.47,1.41-12.88,4.25-3.32,2.73-5.66,6.19-7.03,10.39v50.06h-11.71v-73.19h10.1l.29,8.93h.59c2.34-3.12,5.47-5.66,9.37-7.62,4-2.05,8.74-3.07,14.2-3.07,4,0,7.51,.49,10.54,1.47,3.02,.88,5.51,2.49,7.46,4.83,2.05,2.34,3.56,5.52,4.55,9.52,1.07,3.9,1.61,8.88,1.61,14.93v44.21h-11.72Z" style="fill: #fff; fill-rule: evenodd;"/>
          <path d="M559.93,359.51h11.71v73.19h-11.71v-73.19Zm-2.49-22.25c0-2.24,2.68-4.97,8.04-8.2,2.35,0,5.18,2.73,8.49,8.2-3.32,5.17-6.15,7.76-8.49,7.76-5.37-2.93-8.04-5.51-8.04-7.76Z" style="fill: #fff; fill-rule: evenodd;"/>
          <path d="M650.1,427.88c-2.92,2.34-6.63,4.2-11.12,5.56-4.4,1.36-9.08,2.05-14.06,2.05-5.56,0-10.4-.92-14.49-2.78-4.1-1.75-7.46-4.3-10.1-7.6-2.63-3.42-4.58-8.2-5.85-14.35-1.27-6.14-1.9-10.59-1.9-13.32,0-12.49,2.78-22.01,8.34-28.54,5.57-6.54,13.52-9.81,23.87-9.81,3.32,0,6.64,.39,9.95,1.17,3.32,.69,6.3,2.06,8.93,4.1,2.63,2.05,4.78,4.98,6.43,8.78,1.67,3.71,2.5,8.64,2.5,14.78,0,3.22-.3,6.79-.89,10.69h-46.99c0,1.17,.44,4.14,1.32,8.93,.88,4.78,2.25,8.34,4.1,10.69,1.85,2.24,4.24,4,7.17,5.27,3.03,1.17,6.69,1.75,10.98,1.75,3.32,0,6.63-.59,9.95-1.75,3.32-1.17,5.8-2.54,7.47-4.1l4.38,8.49Zm-25.17-58.56c-5.76,0-10.4,1.52-13.91,4.53-3.42,3.03-5.46,8.2-6.15,15.52h36.3c0-7.42-1.41-12.59-4.25-15.52-2.83-3.02-6.83-4.53-12-4.53Z" style="fill: #fff; fill-rule: evenodd;"/>
          <path d="M705.58,370.78c-2.92-.98-5.71-1.46-8.34-1.46-4.19,0-7.51,1.17-9.96,3.51-2.44,2.24-3.95,5.12-4.53,8.64v51.23h-11.72v-73.19h10.54l-.15,8.93h.59c1.86-3.32,4.06-5.85,6.59-7.62,2.64-1.85,5.95-2.78,9.96-2.78,2.83,0,6,.49,9.51,1.47l-2.49,11.27Z" style="fill: #fff; fill-rule: evenodd;"/>
          <path d="M723.29,359.51h11.72v73.19h-11.72v-73.19Zm8.79-32.2h13.03v3.07l-14.78,18.74h-6.88l8.64-21.81Z" style="fill: #fff; fill-rule: evenodd;"/>
          <path d="M758.86,364.93c3.71-2.24,8-3.9,12.89-4.97,4.98-1.07,10.15-1.61,15.51-1.61,5.07,0,9.13,.68,12.15,2.05,3.12,1.36,5.47,3.17,7.02,5.41,1.66,2.15,2.73,4.54,3.22,7.18,.59,2.64,.87,5.27,.87,7.91,0,5.85-.14,11.56-.44,17.13-.29,5.56-.44,10.83-.44,15.81,0,3.61,.63,7.13,1.9,10.54,1.37,3.32,3.52,6.2,6.45,8.64h-10.39c-3.03,0-5.56-3.41-7.62-10.25h-.73c-.89,1.37-2.01,2.73-3.37,4.1-1.27,1.27-2.83,2.44-4.68,3.51-1.85,.98-4.34,1.81-7.46,2.49-3.12,.68-6.25,1.03-9.37,1.03s-6.05-.49-8.78-1.47c-2.64-.97-4.93-2.34-6.88-4.1-1.95-1.85-3.51-4.05-4.68-6.58-1.07-2.54-1.61-5.42-1.61-8.64,0-4.3,1.66-8.73,4.98-13.32,3.32-4.59,8-7.22,14.05-7.9,6.05-.79,12.44-1.18,19.17-1.18h3.96c1.36,0,2.73,.1,4.1,.29,.29-2.93,.44-5.56,.44-7.9,0-5.37-1.08-9.12-3.22-11.27-2.15-2.14-6.05-3.22-11.71-3.22-1.66,0-3.46,.15-5.42,.44-1.85,.2-3.81,.54-5.86,1.03-1.95,.39-3.85,.92-5.71,1.61-1.76,.59-3.32,1.27-4.68,2.05l-3.66-8.79Zm18.74,58.71c2.73,0,5.52-.34,8.34-1.03,2.83-.78,5.03-1.71,6.59-2.78,1.56-1.17,2.83-2.44,3.8-3.81,1.07-1.36,1.85-2.68,2.34-3.95v-12.15c-1.36-.1-2.78-.15-4.24-.15-1.37-.1-2.73-.14-4.1-.14-4.4,0-8.84,.2-13.33,.59-4.49,.29-7.7,1.71-9.66,4.24-1.86,2.54-2.78,5.03-2.78,7.47,0,3.42,1.22,6.25,3.66,8.49,2.44,2.15,5.56,3.22,9.37,3.22Z" style="fill: #fff; fill-rule: evenodd;"/>
          <path d="M941.85,425.83c-5.17,4-10.01,6.44-14.5,7.32-4.49,.88-9.27,1.32-14.35,1.32-6.14,0-11.91-1.03-17.27-3.07-5.37-2.15-10.05-5.37-14.05-9.66-4-4.3-7.18-9.76-9.52-16.4-2.34-6.73-3.51-14.68-3.51-23.86s1.26-17.67,3.8-24.3c2.64-6.73,6.05-12.19,10.25-16.39,4.29-4.3,9.08-7.42,14.35-9.37s10.64-2.93,16.1-2.93c5.86,0,10.64,.34,14.35,1.03,3.71,.59,8,1.75,12.88,3.51l-6.29,9.67c-4.68-2.25-11.37-3.37-20.05-3.37-4,0-7.95,.73-11.86,2.19-3.9,1.47-7.42,3.86-10.54,7.18-3.03,3.32-5.46,7.66-7.32,13.03-1.86,5.37-2.78,11.95-2.78,19.76,0,7.03,.88,13.18,2.64,18.45,1.76,5.27,4.15,9.66,7.18,13.17,3.12,3.52,6.73,6.15,10.83,7.91,4.2,1.75,8.74,2.64,13.61,2.64,4.39,0,8.2-.44,11.42-1.32,3.32-.88,6.1-2,8.34-3.37l6.3,6.88Z" style="fill: #fff; fill-rule: evenodd;"/>
          <path d="M957.8,359.51h11.72v73.19h-11.72v-73.19Zm-2.49-22.25c0-2.24,2.68-4.97,8.05-8.2,2.34,0,5.17,2.73,8.48,8.2-3.31,5.17-6.14,7.76-8.48,7.76-5.37-2.93-8.05-5.51-8.05-7.76Z" style="fill: #fff; fill-rule: evenodd;"/>
          <polygon points="1019.87 416.31 1039.93 359.51 1052.52 359.51 1021.34 434.32 1016.36 434.32 984.59 359.51 998.06 359.51 1019.87 416.31" style="fill: #fff; fill-rule: evenodd;"/>
          <path d="M1067.6,359.51h11.71v73.19h-11.71v-73.19Zm-2.49-22.25c0-2.24,2.68-4.97,8.04-8.2,2.34,0,5.17,2.73,8.49,8.2-3.32,5.17-6.14,7.76-8.49,7.76-5.37-2.93-8.04-5.51-8.04-7.76Z" style="fill: #fff; fill-rule: evenodd;"/>
          <path d="M1117.37,414.7c0,3.42,.59,5.86,1.75,7.32,1.17,1.47,2.83,2.2,4.98,2.2,1.27,0,2.63-.1,4.1-.29,1.46-.2,3.12-.64,4.98-1.32l1.32,9.22c-1.57,.78-3.76,1.41-6.59,1.9-2.73,.49-5.13,.73-7.18,.73-4.39,0-8-1.22-10.83-3.66-2.83-2.54-4.25-6.78-4.25-12.74v-87.83h11.71v84.46Z" style="fill: #fff; fill-rule: evenodd;"/>
          <path d="M1239.6,427.88c-2.93,2.34-6.64,4.2-11.13,5.56-4.39,1.36-9.08,2.05-14.05,2.05-5.57,0-10.39-.92-14.5-2.78-4.1-1.75-7.46-4.3-10.1-7.6-2.64-3.42-4.59-8.2-5.86-14.35-1.27-6.14-1.89-10.59-1.89-13.32,0-12.49,2.78-22.01,8.34-28.54,5.56-6.54,13.51-9.81,23.86-9.81,3.32,0,6.63,.39,9.95,1.17,3.32,.69,6.3,2.06,8.93,4.1,2.64,2.05,4.78,4.98,6.45,8.78,1.65,3.71,2.49,8.64,2.49,14.78,0,3.22-.29,6.79-.88,10.69h-46.98c0,1.17,.44,4.14,1.31,8.93,.87,4.78,2.25,8.34,4.1,10.69,1.85,2.24,4.24,4,7.18,5.27,3.03,1.17,6.69,1.75,10.98,1.75,3.31,0,6.63-.59,9.95-1.75,3.31-1.17,5.81-2.54,7.46-4.1l4.4,8.49Zm-25.18-58.56c-5.77,0-10.39,1.52-13.91,4.53-3.42,3.03-5.46,8.2-6.15,15.52h36.31c0-7.42-1.41-12.59-4.24-15.52-2.83-3.02-6.83-4.53-12-4.53Z" style="fill: #fff; fill-rule: evenodd;"/>
          <path d="M1307.52,432.7v-41.72c0-7.61-1.12-13.32-3.37-17.13-2.14-3.9-6.14-5.85-12-5.85-5.17,0-9.46,1.41-12.88,4.25-3.31,2.73-5.66,6.19-7.03,10.39v50.06h-11.71v-73.19h10.1l.29,8.93h.59c2.34-3.12,5.46-5.66,9.37-7.62,4-2.05,8.73-3.07,14.19-3.07,4.01,0,7.52,.49,10.54,1.47,3.03,.88,5.51,2.49,7.46,4.83,2.05,2.34,3.57,5.52,4.54,9.52,1.07,3.9,1.61,8.88,1.61,14.93v44.21h-11.71Z" style="fill: #fff; fill-rule: evenodd;"/>
        </g>
        <g>
          <path d="M982.51,650.82h14.93v74.89c0,6.67,2.12,12.17,6.35,16.5,4.23,4.28,9.83,6.42,16.8,6.42,7.36,0,13.16-2.09,17.39-6.27,4.23-4.18,6.35-9.86,6.35-17.02v-74.52h14.93v76.09c0,11.05-3.46,19.69-10.38,25.91-6.87,6.18-16.26,9.25-28.15,9.26-12.24,0-21.68-3.03-28.29-9.11-6.62-6.07-9.93-14.78-9.93-26.13v-76.02Z" style="fill: #fff; fill-rule: evenodd;"/>
          <path d="M1142.42,760.21l-7.54-23.07h-40.69l-8.06,23.07h-16.73l44.43-110.88h3.96l41.22,110.88h-16.57Zm-27.33-82.21l-16.95,48.16h32.48l-15.53-48.16Z" style="fill: #fff; fill-rule: evenodd;"/>
          <path d="M1238.93,654.85l-5.01,12.77c-4.78-3.49-12.29-5.22-22.55-5.23-9.61,0-17.32,4.13-23.15,12.4-5.77,8.27-8.66,18.92-8.66,31.96s2.96,22.55,8.88,30.32c5.97,7.72,13.66,11.57,23.07,11.57,10.25,0,18.15-3.63,23.67-10.9l8.22,11.43c-8.66,8.61-19.81,12.91-33.45,12.92-14.29,0-25.54-5.15-33.75-15.45-8.22-10.31-12.32-23.9-12.32-40.77s4.38-29.89,13.14-40.7c8.76-10.8,20.08-16.2,33.98-16.2,11.9,0,21.2,1.97,27.93,5.9Z" style="fill: #fff; fill-rule: evenodd;"/>
          <path d="M1307.36,760.21v-50.25c0-5.97-1.47-10.68-4.41-14.11-2.94-3.43-7.07-5.15-12.39-5.15-3.44,0-6.9,1.02-10.38,3.06-3.44,2-6.08,4.34-7.92,7.02v59.44h-14.18v-112.75h14.18v41.59c1.89-2.94,4.93-5.38,9.11-7.32,4.23-2,8.59-2.99,13.07-2.99,8.46,0,15.08,2.79,19.86,8.36,4.83,5.58,7.25,13.19,7.25,22.85v50.25h-14.19Z" style="fill: #fff; fill-rule: evenodd;"/>
        </g>
        <path d="M1804.26,380.66c2.58-3.52,6.27-6.15,10.56-7.43-20.22-86.75-72.66-155.65-155.22-207.75,46.43,58.55,73.74,125.36,76.38,192.41,23.75,5.9,47.63,13.31,68.18,22.85l.11-.08Zm-45.87,235.37c0-11.59,9.39-20.71,20.99-20.37,1.76,.05,3.47,.32,5.1,.77,29.28-60.82,41.24-120.06,36.51-182.07-3.38-.15-6.55-1.09-9.36-2.63-29.24,32.01-56.47,56.18-82.99,73.51-.69-3.3-1.92-6.31-3.67-9.03,22.95-15.28,48.49-36.82,79.52-70.78-2.61-3.57-4.15-7.96-4.15-12.66,0-1.14,.09-2.24,.26-3.33-22.22-9.88-42.89-16.22-64.33-21.63,1.16,20.64-4.12,68.37-16.31,102.7-1.93-1.82-4.75-3.44-8.45-4.86,12.73-38.8,16.11-76.45,15.24-100.3-44.9-10.56-89.16-17.65-130.93-20.81,.48-2.94,.49-6.13,.04-9.56,48.07,4,91.73,11.24,130.5,20.49-2.23-58.25-29.36-133.76-83.22-195.29-3.51,2.51-7.84,3.93-12.54,3.79-11.59-.34-20.99-10.01-20.99-21.6s9.39-20.71,20.99-20.36c11.58,.34,20.98,10.01,20.98,21.59,0,2.13-.31,4.17-.9,6.1,94.53,54.57,152.06,128.94,173.02,222.9,10.48,1.48,18.62,10.61,18.62,21.4,0,8.39-4.92,15.48-12.04,18.64,5.45,62.36-7.74,127.72-37.42,188.3,4.59,3.98,7.51,9.85,7.51,16.31,0,11.59-9.39,20.71-20.98,20.37-11.59-.34-20.99-10.01-20.99-21.6Z" style="fill: #fff;"/>
        <path d="M1500.75,764.64s-98.69,10.41-108.5-90.94l-5.65-246.33c-.97-52.98-38.39-104.44-96.58-113.58h7.35c65.36,1.07,125.7,55.97,126.75,113.96l3.05,244.41c1.44,46.27,24.45,77.01,73.57,92.47Z" style="fill: #fff; fill-rule: evenodd;"/>
        <path d="M1371.83,237.96c66.63,16.94,127.46,43.56,177.2,76.63-3.14,2.08-5.5,4.36-7.1,6.84-51.63-33.48-109-58.35-172.09-74.63-7.07,22.66-28.22,39.11-53.21,39.11-30.78,0-55.74-24.95-55.74-55.73l.05-2.34c-40.16-3.92-83.33-4.79-129.51-2.61l14.83,6.2c6.54,2.4,1.72,11.44-3.36,8.95l-38.05-16.57-7.52-3.27,7.52-3.27,38.06-16.57c5.08-2.49,9.9,6.55,3.36,8.95l-15.67,6.55c42.6-3.27,86.45-2.5,131.53,2.36,5.34-25.2,27.72-44.11,54.52-44.11,30.77,0,55.73,24.95,55.73,55.73,0,2.64-.19,5.24-.54,7.78Z" style="fill: #fff;"/>
        <path d="M1446.88,87.76l7.58,3.14,38.35,15.86c5.32,1.93,2.16,11.67-4.1,8.64l-14.58-6.28c57.93,57.21,89.65,125.88,97.9,201.15-3.4-.72-6.59-.87-9.59-.43-7.72-72.15-40.17-140.19-95.44-194.79l6.04,15.48c2.82,6.37-7.03,9.19-8.77,3.81l-14.52-38.88-2.87-7.68Z" style="fill: #fff;"/>
        <path d="M1418.01,359.05l6.24-5.33,31.55-26.97c4.13-3.86,11.38,3.38,5.83,7.58l-11.74,9.75c23.03-7.18,51.5-11.06,86.57-11.72-.74,3.23-1.03,6.42-.87,9.58-30.29,.42-58.41,3.64-84.11,11.58l16.52,1.65c6.96,.38,4.99,10.43-.59,9.54l-41.24-4.72-8.15-.94Z" style="fill: #fff;"/>
        <path d="M1524.85,488.95l.5-8.19,2.51-41.43c.09-5.65,10.33-5.84,9.51,1.08l-1.21,16.09c12.25-24.05,21.85-53.15,25.94-86.6,3.09,.38,6.28,.28,9.59-.32-3.09,29.91-11.97,60.54-26.71,90.73l11.81-10.01c5.1-4.74,10.98,3.66,6.45,7.05l-32.04,26.39-6.34,5.22Z" style="fill: #fff;"/>
        <path d="M1574.81,368.76c2.91-.84,5.76-2.25,8.53-4.24,24.34,53.95,38.34,105.85,43.49,154.46,16.26-3.68,33.91-9.26,53.36-17.79,1.42,2.97,3.34,5.58,5.77,7.84-20.23,9.16-39.76,15.41-58.16,19.51,1.72,20.93,2.18,39.85,1.35,57.52-3.16-.68-6.33-.65-9.53,.12,.64-18.67,.48-36.13-1.21-55.67-32.83,6.18-64.42,7.62-95.66,6.14,1.03-3.07,1.31-6.22,.82-9.44,30.57,1.37,63.42-.32,93.89-6.23-4.4-46.78-20.9-105.61-42.66-152.23Z" style="fill: #fff; fill-rule: evenodd;"/>
        <path d="M1590.46,357.56c1.77-2.3,3.22-5.21,4.36-8.72,40.09,33.44,72.72,72.77,97.44,118.13-3.1,1.59-5.71,3.53-7.82,5.81-24.73-46.38-57.03-83.93-93.97-115.23Z" style="fill: #fff; fill-rule: evenodd;"/>
        <path d="M1691.6,513c3.11,1.56,6.23,2.45,9.33,2.71-7.5,15.11-26.56,48.58-57.05,81.06-1.7-2.92-3.85-5.28-6.44-7.06,28.76-30.75,45.83-60.64,54.16-76.71Z" style="fill: #fff; fill-rule: evenodd;"/>
        <path d="M1684.44,789.85l.35-8.19,1.79-41.47c0-5.65,10.23-6.02,9.52,.91l-.88,15.39c41.63-98.49,28.71-184.45,8.32-240.65,3.28-.03,6.43-.65,9.45-1.87,19.45,53.68,34.64,142.83-9.33,247.24l12.03-10.57c5.02-4.83,11.04,3.46,6.57,6.94l-31.57,26.94-6.25,5.32Z" style="fill: #fff;"/>
        <path d="M1441.17,693.21l6.92-4.41,34.99-22.32c4.63-3.25,10.8,4.92,4.72,8.31l-13.99,8.65c46.65-8.19,90.71-29.7,132.26-64.01,1.87,2.82,4.12,5.07,6.74,6.74-38.36,32.23-84.99,57.24-136.46,66.53l14.86,3.62c6.84,1.34,3.49,11.03-1.92,9.36l-40.18-10.41-7.94-2.06Z" style="fill: #fff;"/>
        <path d="M1585.8,740.61l-.22-8.2-1.11-41.49c-.4-5.65,9.78-6.73,9.56,.24l.2,16.15c10.64-26.04,17.54-52.98,21.44-79.63,2.99,1.34,6.09,2,9.33,1.97-4.73,30.9-12.03,56.83-21.56,80.56l10.8-10.89c4.67-5.17,11.25,2.68,7.04,6.47l-29.62,29.08-5.86,5.75Z" style="fill: #fff;"/>
        <circle cx="1565.82" cy="339.8" r="24.5" style="fill: #fff;"/>
        <circle cx="1703.47" cy="490.27" r="20.25" transform="translate(1148.63 2173.82) rotate(-87.82)" style="fill: #fff;"/>
        <path d="M1608.53,607.58c0-8.96,7.27-16.23,16.23-16.23s16.23,7.27,16.23,16.23-7.27,16.23-16.23,16.23-16.23-7.27-16.23-16.23Z" style="fill: #fff; fill-rule: evenodd;"/>
        <path d="M1489.24,530.21c0-8.1,6.56-14.65,14.65-14.65s14.65,6.56,14.65,14.65-6.56,14.65-14.65,14.65-14.65-6.56-14.65-14.65Z" style="fill: #fff; fill-rule: evenodd;"/>
      </g>
    </g>
  </g>
</svg>