<?xml version="1.0" encoding="UTF-8"?>
<svg id="Layer_2" data-name="Layer 2" xmlns="http://www.w3.org/2000/svg" viewBox="0 0 2560 1137.15">
  <g id="Layer_1-2" data-name="Layer 1">
    <g id="Logo-SomosIngenieriaUACh-Color-TextoNegro">
      <rect width="2560" height="1137.15" style="fill: none;"/>
      <g>
        <g>
          <path d="M883.91,653.01c-8.8-3.98-15.72-9.54-20.74-16.67-5.03-7.13-7.71-15.09-8.04-23.88h18.61c.84,8.46,4.61,15.88,11.31,22.26,6.7,6.39,16.51,9.58,29.42,9.58,11.9,0,21.33-3.02,28.29-9.08,6.95-6.05,10.43-13.72,10.43-23.01,0-7.46-1.93-13.47-5.78-18.04-3.86-4.56-8.64-7.96-14.33-10.2-5.7-2.24-13.58-4.69-23.63-7.34-11.73-3.15-21.04-6.22-27.91-9.21-6.87-2.98-12.74-7.62-17.6-13.93-4.86-6.3-7.29-14.84-7.29-25.62,0-8.96,2.35-16.96,7.04-24.01,4.69-7.05,11.31-12.56,19.86-16.54,8.55-3.98,18.36-5.97,29.42-5.97,16.26,0,29.37,3.94,39.35,11.82,9.97,7.88,15.72,18.04,17.22,30.47h-19.11c-1.17-7.13-5.12-13.47-11.82-19.03-6.71-5.55-15.76-8.33-27.15-8.33-10.56,0-19.36,2.78-26.4,8.33-7.04,5.56-10.56,13.15-10.56,22.76,0,7.3,1.93,13.19,5.79,17.66,3.85,4.48,8.67,7.88,14.46,10.2,5.78,2.33,13.62,4.81,23.51,7.46,11.4,3.15,20.62,6.26,27.66,9.33s12.99,7.75,17.85,14.05c4.86,6.31,7.29,14.76,7.29,25.37,0,8.13-2.18,15.84-6.54,23.14-4.36,7.3-10.81,13.18-19.36,17.66-8.55,4.48-18.77,6.71-30.67,6.71s-21.75-1.99-30.55-5.97Z"/>
          <path d="M1030.25,650.65c-10.31-5.72-18.44-13.84-24.39-24.38-5.95-10.53-8.93-22.84-8.93-36.94s3.02-26.41,9.05-36.95c6.03-10.53,14.25-18.66,24.64-24.38,10.39-5.72,22.04-8.58,34.95-8.58s24.6,2.86,35.08,8.58c10.47,5.72,18.69,13.85,24.64,24.38,5.95,10.54,8.93,22.85,8.93,36.95s-3.02,26.21-9.05,36.82c-6.04,10.62-14.33,18.78-24.9,24.51-10.56,5.72-22.3,8.58-35.2,8.58s-24.52-2.86-34.83-8.58Zm59.97-12.69c7.71-4.06,13.96-10.2,18.73-18.41,4.78-8.21,7.17-18.29,7.17-30.23s-2.35-22.02-7.04-30.23c-4.69-8.21-10.9-14.34-18.61-18.41-7.71-4.06-16.09-6.1-25.15-6.1s-17.44,2.04-25.15,6.1c-7.71,4.07-13.87,10.2-18.48,18.41-4.61,8.21-6.92,18.29-6.92,30.23s2.3,22.02,6.92,30.23c4.61,8.21,10.72,14.35,18.36,18.41,7.63,4.07,15.97,6.09,25.02,6.09s17.43-2.03,25.14-6.09Z"/>
          <path d="M1369.2,533.97c10.14,10.04,15.21,24.59,15.21,43.66v79.61h-17.35v-77.62c0-14.76-3.61-26.04-10.81-33.84-7.21-7.79-17.01-11.69-29.42-11.69s-23.22,4.23-30.93,12.69c-7.71,8.46-11.57,20.73-11.57,36.82v73.64h-17.35v-77.62c0-14.76-3.61-26.04-10.81-33.84-7.21-7.79-17.1-11.69-29.67-11.69s-23.22,4.23-30.93,12.69c-7.71,8.46-11.57,20.73-11.57,36.82v73.64h-17.6v-135.83h17.6v23.38c4.36-8.46,10.56-14.88,18.61-19.28,8.04-4.39,17.01-6.59,26.9-6.59,11.9,0,22.33,2.82,31.31,8.46,8.96,5.64,15.46,13.93,19.49,24.88,3.69-10.78,10.01-19.03,18.98-24.75,8.97-5.72,19.15-8.58,30.55-8.58,16.09,0,29.21,5.02,39.35,15.05Z"/>
          <path d="M1448.66,650.65c-10.31-5.72-18.44-13.84-24.39-24.38-5.95-10.53-8.93-22.84-8.93-36.94s3.02-26.41,9.05-36.95c6.03-10.53,14.25-18.66,24.64-24.38,10.39-5.72,22.04-8.58,34.95-8.58s24.6,2.86,35.08,8.58c10.47,5.72,18.69,13.85,24.64,24.38,5.95,10.54,8.93,22.85,8.93,36.95s-3.02,26.21-9.05,36.82c-6.04,10.62-14.33,18.78-24.9,24.51-10.56,5.72-22.3,8.58-35.2,8.58s-24.52-2.86-34.83-8.58Zm59.97-12.69c7.71-4.06,13.96-10.2,18.73-18.41,4.78-8.21,7.17-18.29,7.17-30.23s-2.35-22.02-7.04-30.23c-4.69-8.21-10.9-14.34-18.61-18.41-7.71-4.06-16.09-6.1-25.15-6.1s-17.44,2.04-25.15,6.1c-7.71,4.07-13.87,10.2-18.48,18.41-4.61,8.21-6.92,18.29-6.92,30.23s2.3,22.02,6.92,30.23c4.61,8.21,10.72,14.35,18.36,18.41,7.63,4.07,15.97,6.09,25.02,6.09s17.43-2.03,25.14-6.09Z"/>
          <path d="M1593.49,648.41c-9.98-7.21-15.55-17.04-16.72-29.48h18.11c.84,7.63,4.48,13.81,10.94,18.53,6.45,4.73,15.12,7.09,26.02,7.09,9.56,0,17.06-2.24,22.5-6.72,5.45-4.48,8.18-10.03,8.18-16.67,0-4.64-1.51-8.46-4.53-11.44s-6.83-5.35-11.44-7.09c-4.61-1.74-10.85-3.6-18.73-5.6-10.23-2.65-18.52-5.31-24.89-7.96-6.37-2.65-11.78-6.59-16.22-11.82-4.44-5.22-6.66-12.23-6.66-21.02,0-6.63,2.01-12.77,6.03-18.41,4.02-5.64,9.72-10.11,17.1-13.43,7.38-3.32,15.76-4.98,25.15-4.98,14.75,0,26.65,3.69,35.71,11.07,9.05,7.38,13.91,17.54,14.58,30.47h-17.6c-.5-7.96-3.64-14.38-9.43-19.28-5.79-4.89-13.7-7.34-23.76-7.34-8.89,0-16.09,2.07-21.62,6.22-5.53,4.15-8.3,9.29-8.3,15.42,0,5.31,1.64,9.66,4.9,13.06,3.27,3.4,7.33,6.06,12.2,7.96,4.86,1.91,11.4,4.02,19.61,6.34,9.89,2.66,17.77,5.23,23.63,7.71,5.87,2.49,10.9,6.14,15.09,10.95,4.19,4.81,6.37,11.19,6.54,19.15,0,7.3-2.01,13.81-6.03,19.53-4.02,5.72-9.64,10.24-16.85,13.56-7.21,3.32-15.51,4.98-24.9,4.98-15.76,0-28.62-3.61-38.6-10.82Z"/>
          <path d="M284.66,782.87v172.9h-28.66v-172.9h28.66Z"/>
          <path d="M421.57,823.17c8.63,4.48,15.38,11.11,20.24,19.9,4.86,8.79,7.29,19.4,7.29,31.84v80.85h-28.41v-76.62c0-12.27-3.1-21.68-9.3-28.24-6.21-6.55-14.67-9.82-25.4-9.82s-19.24,3.28-25.52,9.82c-6.29,6.55-9.43,15.96-9.43,28.24v76.62h-28.66v-137.07h28.66v15.67c4.69-5.63,10.69-10.03,17.98-13.19,7.29-3.15,15.04-4.72,23.26-4.72,10.89,0,20.66,2.24,29.29,6.71Z"/>
          <path d="M569.93,822.8c8.3,4.23,14.79,9.5,19.49,15.8v-19.9h28.92v139.31c0,12.6-2.69,23.84-8.05,33.71-5.37,9.87-13.12,17.62-23.26,23.26-10.15,5.63-22.25,8.46-36.33,8.46-18.77,0-34.36-4.35-46.77-13.06-12.41-8.71-19.45-20.52-21.12-35.45h28.41c2.18,7.13,6.83,12.9,13.95,17.29,7.13,4.39,15.63,6.59,25.52,6.59,11.57,0,20.91-3.48,28.04-10.45,7.13-6.97,10.69-17.09,10.69-30.35v-22.89c-4.86,6.47-11.44,11.9-19.74,16.3-8.3,4.39-17.72,6.59-28.29,6.59-12.07,0-23.1-3.02-33.07-9.08-9.97-6.05-17.85-14.51-23.63-25.38-5.78-10.86-8.68-23.17-8.68-36.94s2.89-25.95,8.68-36.57c5.78-10.61,13.66-18.86,23.63-24.75,9.97-5.89,21-8.83,33.07-8.83,10.73,0,20.24,2.11,28.54,6.34Zm13.58,39.68c-3.94-6.97-9.09-12.27-15.46-15.92-6.37-3.65-13.25-5.47-20.62-5.47s-14.25,1.79-20.62,5.35c-6.37,3.57-11.53,8.79-15.46,15.67-3.94,6.89-5.91,15.05-5.91,24.51s1.97,17.75,5.91,24.88c3.94,7.13,9.13,12.56,15.59,16.29,6.45,3.73,13.28,5.6,20.49,5.6s14.25-1.82,20.62-5.47c6.37-3.65,11.52-8.99,15.46-16.04,3.94-7.05,5.91-15.3,5.91-24.75s-1.97-17.67-5.91-24.63Z"/>
          <path d="M782.02,897.8h-105.86c.84,10.95,4.94,19.74,12.32,26.37,7.37,6.63,16.42,9.95,27.15,9.95,15.42,0,26.32-6.38,32.69-19.15h30.93c-4.19,12.6-11.78,22.93-22.75,30.97-10.98,8.05-24.6,12.07-40.86,12.07-13.24,0-25.1-2.94-35.58-8.83-10.48-5.89-18.69-14.18-24.64-24.88-5.95-10.7-8.93-23.09-8.93-37.19s2.89-26.5,8.68-37.19c5.78-10.7,13.91-18.94,24.39-24.75,10.47-5.8,22.5-8.71,36.08-8.71s24.72,2.82,34.95,8.46c10.22,5.64,18.19,13.56,23.88,23.76,5.7,10.2,8.55,21.94,8.55,35.2,0,5.14-.34,9.79-1.01,13.93Zm-28.92-22.89c-.17-10.45-3.94-18.82-11.31-25.13-7.38-6.3-16.51-9.45-27.41-9.45-9.89,0-18.36,3.11-25.4,9.33-7.04,6.22-11.23,14.64-12.57,25.25h76.69Z"/>
          <path d="M910.38,823.17c8.63,4.48,15.38,11.11,20.24,19.9,4.86,8.79,7.29,19.4,7.29,31.84v80.85h-28.41v-76.62c0-12.27-3.1-21.68-9.3-28.24-6.21-6.55-14.67-9.82-25.4-9.82s-19.24,3.28-25.52,9.82c-6.29,6.55-9.43,15.96-9.43,28.24v76.62h-28.66v-137.07h28.66v15.67c4.69-5.63,10.69-10.03,17.98-13.19,7.29-3.15,15.04-4.72,23.26-4.72,10.89,0,20.66,2.24,29.29,6.71Z"/>
          <path d="M975.88,795.31c-3.52-3.48-5.28-7.79-5.28-12.93s1.76-9.46,5.28-12.94,7.88-5.22,13.07-5.22,9.31,1.74,12.83,5.22,5.28,7.8,5.28,12.94-1.76,9.45-5.28,12.93-7.8,5.23-12.83,5.23-9.55-1.74-13.07-5.23Zm27.15,23.39v137.07h-28.66v-137.07h28.66Z"/>
          <path d="M1166.72,897.8h-105.86c.84,10.95,4.94,19.74,12.32,26.37,7.37,6.63,16.42,9.95,27.15,9.95,15.42,0,26.32-6.38,32.69-19.15h30.93c-4.19,12.6-11.78,22.93-22.75,30.97-10.98,8.05-24.6,12.07-40.86,12.07-13.24,0-25.1-2.94-35.58-8.83-10.48-5.89-18.69-14.18-24.64-24.88-5.95-10.7-8.93-23.09-8.93-37.19s2.89-26.5,8.68-37.19c5.78-10.7,13.91-18.94,24.39-24.75,10.47-5.8,22.5-8.71,36.08-8.71s24.72,2.82,34.95,8.46c10.22,5.64,18.19,13.56,23.88,23.76,5.7,10.2,8.55,21.94,8.55,35.2,0,5.14-.34,9.79-1.01,13.93Zm-28.92-22.89c-.17-10.45-3.94-18.82-11.31-25.13-7.38-6.3-16.51-9.45-27.41-9.45-9.89,0-18.36,3.11-25.4,9.33-7.04,6.22-11.23,14.64-12.57,25.25h76.69Z"/>
          <path d="M1241.27,822.3c6.95-3.89,15.21-5.84,24.77-5.84v29.36h-7.29c-11.23,0-19.74,2.82-25.52,8.46-5.78,5.64-8.68,15.42-8.68,29.36v72.14h-28.66v-137.07h28.66v19.9c4.19-6.97,9.76-12.39,16.72-16.3Z"/>
          <path d="M1332.67,781.87l-55.57,27.12v-20.9l55.57-30.35v24.13Zm-11.57,36.82v137.07h-28.66v-137.07h28.66Z"/>
          <path d="M1357.94,850.04c5.78-10.61,13.66-18.86,23.63-24.75,9.97-5.89,21-8.83,33.07-8.83,10.9,0,20.41,2.11,28.54,6.34,8.13,4.23,14.62,9.5,19.49,15.8v-19.9h28.92v137.07h-28.92v-20.4c-4.86,6.47-11.48,11.86-19.86,16.17-8.39,4.31-17.94,6.47-28.67,6.47-11.9,0-22.8-3.02-32.69-9.08-9.89-6.05-17.73-14.51-23.51-25.38-5.78-10.86-8.68-23.17-8.68-36.94s2.89-25.95,8.68-36.57Zm98.82,12.44c-3.94-6.97-9.09-12.27-15.46-15.92-6.37-3.65-13.25-5.47-20.62-5.47s-14.25,1.79-20.62,5.35c-6.37,3.57-11.53,8.79-15.46,15.67-3.94,6.89-5.91,15.05-5.91,24.51s1.97,17.75,5.91,24.88c3.94,7.13,9.13,12.56,15.59,16.29,6.45,3.73,13.28,5.6,20.49,5.6s14.25-1.82,20.62-5.47c6.37-3.65,11.52-8.99,15.46-16.04,3.94-7.05,5.91-15.3,5.91-24.75s-1.97-17.67-5.91-24.63Z"/>
          <path d="M1642.95,779.64v99.26c0,8.13,1.8,14.55,5.41,19.28s9.43,7.09,17.48,7.09,13.99-2.36,17.85-7.09c3.86-4.73,5.78-11.15,5.78-19.28v-99.26h55.57v99.26c0,16.75-3.52,31.06-10.56,42.91-7.04,11.86-16.68,20.77-28.92,26.74-12.24,5.97-25.9,8.95-40.99,8.95s-28.46-2.98-40.11-8.95c-11.65-5.97-20.74-14.84-27.28-26.62-6.54-11.78-9.81-26.12-9.81-43.04v-99.26h55.57Z"/>
          <path d="M1883.34,929.15h-59.34l-8.8,26.62h-58.59l65.12-176.13h64.37l64.87,176.13h-58.84l-8.8-26.62Zm-13.58-41.55l-16.09-49.01-16.09,49.01h32.18Z"/>
          <path d="M1969.2,820.93c7.13-13.6,17.31-24.17,30.55-31.72,13.24-7.54,28.83-11.32,46.77-11.32,15.42,0,29.21,2.86,41.36,8.58,12.15,5.72,22.04,13.81,29.67,24.25s12.7,22.64,15.22,36.57h-58.84c-2.68-5.8-6.5-10.33-11.44-13.56-4.94-3.24-10.6-4.85-16.97-4.85-9.39,0-16.81,3.48-22.25,10.45-5.45,6.97-8.17,16.34-8.17,28.11s2.72,21.14,8.17,28.11c5.44,6.97,12.86,10.45,22.25,10.45,6.37,0,12.03-1.62,16.97-4.85,4.94-3.23,8.76-7.75,11.44-13.56h58.84c-2.52,13.93-7.59,26.12-15.22,36.57s-17.52,18.53-29.67,24.25c-12.15,5.72-25.94,8.58-41.36,8.58-17.94,0-33.53-3.77-46.77-11.32-13.24-7.54-23.43-18.12-30.55-31.72-7.13-13.6-10.68-29.11-10.68-46.52s3.56-32.92,10.68-46.52Z"/>
          <path d="M2290.3,830.63c9.13,10.78,13.7,25.37,13.7,43.79v81.35h-55.57v-74.38c0-6.63-1.8-11.9-5.41-15.8-3.61-3.89-8.42-5.84-14.46-5.84s-11.06,1.95-14.59,5.84c-3.52,3.9-5.28,9.17-5.28,15.8v74.38h-55.82v-184.09h55.82v65.18c4.36-6.63,10.18-12.02,17.47-16.17,7.29-4.15,15.97-6.22,26.03-6.22,16.26,0,28.96,5.39,38.09,16.17Z"/>
        </g>
        <g>
          <path d="M2208.89,689.63h-136.32c-9.98-.55-21.79,3.03-27.62,11.47-.2,.3-.53,.29-.73,0-5.51-8.2-16.43-12.03-26.07-11.47h-132.23c-39.88,.03-84.9-37.85-84.41-74.51V120.76c0-.23,.21-.44,.44-.44h489.5c.23,0,.44,.21,.44,.44v494.36c-.02,36.93-43.46,74.5-83,74.51Z" style="fill: #fff; fill-rule: evenodd;"/>
          <path d="M2167.24,623.15h-119.89c-.23,0-.44-.21-.44-.44v-219.96c0-.23,.21-.44,.44-.44h171.46c.23,0,.44,.21,.44,.44v168.39c0,28.73-23.28,52.02-52.01,52.02Z" style="fill: #fab700;"/>
          <path d="M2093.29,421.07c1.87-.21,4,.04,4.88,1.78,.17,.34,0,.63-.39,.64-.67,.01-1.73,.59-3,1.44-1.25,.83-2.56,1.82-3.68,2.48-2.83,1.65-4.32,.8-2.79-4.64,.01-.04,.17-.24,.21-.26,.9-.52,2.85-1.23,4.77-1.44Z" style="fill: #808285; fill-rule: evenodd;"/>
          <path d="M2185.55,464.27l-.45,.2c-.4,.18-.96,.46-1.65,.81-1.38,.7-3.26,1.7-5.22,2.91-3.96,2.43-8.14,5.59-9.49,8.61-.93,2.07-1.15,3.89-1.1,5.46,.05,1.61,.37,2.96,.51,4.04,.35,2.56-.39,3.8-5.12,3.82-4.71,1.81-7.83,2.72-9.72,3.03-.93,.15-1.64,.17-2.09,.03-.6-.19-.81-.69-.55-1.22,.66-1.37,4.94-3.64,9.44-4.39,2.41-.4,5.54-2.52,5.42-6.42-.42-13.98,2.66-34.36,20.75-29.87,3.31,.82,7.61,6.66,10.67,11.67,1.56,2.56,2.84,4.97,3.56,6.56,.35,.78,.6,1.42,.66,1.79,.01,.09,.03,.22-.01,.36-.06,.2-.25,.39-.53,.36-.17-.02-.3-.11-.37-.17-.08-.07-.17-.15-.27-.25-2.41-2.63-6.03-4.46-9.08-5.64-1.52-.59-2.89-1.01-3.88-1.29-.49-.14-.89-.24-1.17-.32l-.31-.08Z" style="fill: #808285; fill-rule: evenodd;"/>
          <path d="M2121.06,480.95c1.12-3.56-1.9-6.36-5.8-9.46-.96-.77-1.96-1.54-2.92-2.33-.97-.8-1.9-1.61-2.73-2.46-1.66-1.7-2.96-3.6-3.26-5.8-.64-4.66,2.37-6.81,5.02-8.72,2.71-1.94,5.01-3.59,4.12-7.24,0-.02,0-.23,.01-.26,3.95-10.76,21,4.98,13.99,9.96-6.15,4.73-12.54,12.63-9.4,16.14,3.9,4.35,7.92,10.1,7.92,13.85,0,.76-.34,1.24-.8,1.6-.22,.17-.46,.31-.7,.44-.23,.12-.47,.25-.72,.4-.14,.09-.43,.05-.55-.08-1.16-1.23-9.96-3.63-17.6-.45-.08,.03-.36,0-.43-.05-1.79-1.32-2.31-2.63-.9-3.55,1.04-.68,3.09-1.02,5.23-1.22,2.17-.21,4.59-.29,6.48-.4,.93-.05,1.73-.12,2.32-.2,.29-.04,.5-.09,.63-.14l.06-.02Z" style="fill: #808285; fill-rule: evenodd;"/>
          <path d="M2104.59,434.05c.1,.01,.21,.04,.32,.07,.27,.08,.64,.21,1.02,.37,.38,.16,.77,.34,1.09,.51,.17,.09,.32,.18,.43,.26,.1,.07,.22,.16,.31,.28,4.18,4.54-.61,11.72-4.65,12.6-1.86,.4-2.99,.71-4.12,2.04-10.79,12.61-11.02,1.96-8.98,.91,1.33-.69,2.25-2.87-2.22-2.54-.52,.04-.71-.41-.33-.76l5.93-5.53,.33-.06c.15-.28,.3-.54,.47-.89,.35-.7,.74-1.66,1.11-2.6,.38-.96,.74-1.9,1.04-2.54,.14-.32,.29-.6,.43-.78,.05-.07,.18-.23,.38-.28,.36-.09,.56,.19,.61,.32,2.62,6.24,5.94-2.14,2.23-5-.36-.28-.28-.67,.16-.78l.79-.2c.13-.03,.4,.07,.47,.18,.39,.59,1.25,1.78,1.99,2.8l.98,1.32,.23,.3Z" style="fill: #808285; fill-rule: evenodd;"/>
          <path d="M2188.1,495.86c-.06,0-.29-.15-.33-.2-.21-.33-.37-.6-.49-.83-.32-.17-.53-.37-.72-.57l-.28-.32c-.09-.1-.18-.2-.3-.3-2.87-2.51-8.21,1.88-8.37,2.01-.47,.39-1.03-.23-.59-.65,2.6-2.5,4.32-3.45,7.78-4.08,3.17-.57,4.3,.66,5.3,1.93,.39,0,.79,.03,1.21,.04,.47,.01,.95,0,1.45-.1,.99-.19,2.15-.73,3.59-2.2,1.45-1.49,2.76-3.55,3.71-5.25,.47-.85,.86-1.6,1.12-2.14l.3-.64,.08-.17c.12-.27,.43,.13,.43,.13,0,0,.44-.2,.45,.1v.38c0,.32-.02,.8-.09,1.4-.14,1.2-.5,2.9-1.3,4.91-2.4,5.06-8.13,7.07-12.97,6.55Z" style="fill: #808285; fill-rule: evenodd;"/>
          <path d="M2080.46,526.22c1.87-.21,4,.04,4.88,1.78,.17,.34,0,.63-.39,.64-.67,.01-1.73,.59-3,1.44-1.25,.83-2.56,1.82-3.68,2.48-2.83,1.65-4.32,.8-2.79-4.64,.01-.04,.17-.24,.21-.26,.9-.52,2.85-1.23,4.77-1.44Z" style="fill: #808285; fill-rule: evenodd;"/>
          <path d="M2173.65,567.81l-.45,.2c-.4,.18-.96,.46-1.65,.81-1.38,.7-3.26,1.7-5.22,2.91-3.96,2.43-8.14,5.59-9.49,8.61-.93,2.07-1.15,3.89-1.1,5.46,.05,1.61,.37,2.96,.51,4.04,.35,2.56-.39,3.8-5.12,3.82-4.71,1.81-7.83,2.72-9.72,3.03-.93,.15-1.64,.17-2.09,.03-.6-.19-.81-.69-.55-1.22,.66-1.37,4.94-3.64,9.44-4.39,2.41-.4,5.54-2.52,5.42-6.42-.42-13.98,2.66-34.36,20.75-29.87,3.31,.82,7.61,6.66,10.67,11.67,1.56,2.55,2.84,4.97,3.56,6.56,.35,.78,.6,1.42,.66,1.79,.01,.09,.03,.22-.01,.36-.06,.2-.25,.39-.53,.36-.17-.02-.3-.11-.37-.17-.08-.07-.17-.15-.27-.25-2.41-2.63-6.03-4.46-9.08-5.64-1.52-.59-2.89-1.01-3.88-1.29-.49-.14-.89-.24-1.17-.32l-.31-.08Z" style="fill: #808285; fill-rule: evenodd;"/>
          <path d="M2109.16,584.48c1.12-3.56-1.9-6.36-5.8-9.46-.96-.77-1.96-1.54-2.92-2.33-.97-.8-1.9-1.61-2.73-2.46-1.66-1.7-2.96-3.6-3.26-5.8-.64-4.66,2.37-6.81,5.02-8.72,2.71-1.94,5.01-3.59,4.12-7.24,0-.02,0-.23,.01-.26,3.95-10.76,21,4.98,13.99,9.96-6.15,4.73-12.54,12.63-9.4,16.14,3.9,4.35,7.92,10.1,7.92,13.85,0,.76-.34,1.24-.8,1.6-.22,.17-.46,.31-.7,.44-.23,.12-.47,.25-.72,.4-.14,.09-.43,.05-.55-.08-1.16-1.23-9.96-3.63-17.6-.45-.08,.03-.36,0-.43-.05-1.79-1.32-2.31-2.63-.9-3.55,1.04-.68,3.09-1.02,5.23-1.22,2.17-.21,4.59-.29,6.48-.4,.93-.05,1.73-.11,2.32-.2,.29-.04,.5-.09,.63-.14l.06-.02Z" style="fill: #808285; fill-rule: evenodd;"/>
          <path d="M2092.17,538.78c.1,.01,.21,.04,.32,.07,.27,.08,.64,.21,1.02,.37,.38,.16,.77,.34,1.09,.51,.17,.09,.32,.18,.43,.26,.1,.07,.22,.16,.31,.28,4.18,4.54-.61,11.72-4.65,12.6-1.86,.4-2.99,.71-4.12,2.04-10.78,12.61-11.02,1.96-8.98,.91,1.33-.69,2.25-2.87-2.22-2.54-.52,.04-.71-.41-.33-.76l5.93-5.53,.33-.06c.15-.28,.3-.54,.47-.89,.35-.7,.74-1.66,1.11-2.6,.38-.96,.74-1.9,1.04-2.54,.14-.32,.29-.6,.43-.78,.05-.07,.18-.23,.38-.28,.36-.09,.55,.19,.61,.32,2.62,6.24,5.94-2.14,2.23-5-.36-.28-.28-.67,.16-.78l.79-.2c.13-.03,.4,.07,.47,.18,.39,.59,1.25,1.78,1.99,2.8l.98,1.32,.23,.3Z" style="fill: #808285; fill-rule: evenodd;"/>
          <path d="M2175.67,600.59c-.06,0-.29-.15-.33-.2-.21-.33-.37-.6-.49-.83-.32-.17-.53-.37-.72-.57l-.28-.32c-.09-.1-.18-.2-.3-.3-2.87-2.51-8.21,1.88-8.37,2.01-.47,.39-1.03-.23-.59-.65,2.6-2.5,4.32-3.45,7.78-4.08,3.17-.57,4.3,.66,5.3,1.93,.39,0,.79,.03,1.21,.04,.47,.01,.95,0,1.45-.1,.99-.19,2.15-.73,3.59-2.2,1.45-1.49,2.76-3.55,3.71-5.25,.47-.85,.86-1.6,1.12-2.14l.3-.64,.08-.17c.12-.27,.43,.13,.43,.13,0,0,.44-.2,.45,.1v.38c0,.32-.02,.8-.09,1.4-.15,1.2-.5,2.9-1.3,4.91-2.4,5.06-8.13,7.07-12.97,6.55Z" style="fill: #808285; fill-rule: evenodd;"/>
          <path d="M1981.85,492.99l-.83,44.33-41.2-.74,.74-39.34,21.3-1.78,7.3,8.76-8.28,11.66,20.14-6.6-7.27,10.63-12.87-4.03,13.81,18.96-27.21-.61,13.4-18.35-14.94,4.64-6.33-11.62,21.27,6.98v-22.04s20.97-.86,20.97-.86Zm0,43.28l-.83,44.33-41.2-.74,.74-39.34,21.3-1.78,7.3,8.76-8.28,11.66,20.14-6.59-7.27,10.63-12.87-4.03,13.81,18.96-27.21-.61,13.4-18.35-14.94,4.64-6.33-11.62,21.27,6.98v-22.04s20.97-.86,20.97-.86Zm-.07,43.17l-.83,44.33-41.2-.74,.74-39.34,21.3-1.78,7.3,8.76-8.28,11.66,20.14-6.59-7.27,10.63-12.87-4.03,13.81,18.96-27.21-.61,13.4-18.35-14.94,4.64-6.33-11.62,21.27,6.98v-22.04s20.97-.86,20.97-.86Zm-.09-172.91l-.83,44.33-41.2-.74,.74-39.34,21.3-1.78,7.3,8.76-8.28,11.66,20.14-6.6-7.27,10.63-12.87-4.03,13.81,18.96-27.21-.61,13.4-18.35-14.94,4.64-6.33-11.62,21.27,6.98v-22.04s20.97-.86,20.97-.86Zm.16,43.31l-.83,44.33-41.2-.74,.74-39.34,21.3-1.77,7.3,8.75-8.28,11.66,20.14-6.59-7.27,10.63-12.87-4.03,13.81,18.96-27.21-.61,13.4-18.35-14.94,4.64-6.33-11.62,21.27,6.98v-22.04s20.97-.86,20.97-.86Zm-58,43.2l-.84,44.33-41.2-.74,.74-39.34,21.3-1.78,7.3,8.76-8.28,11.66,20.14-6.59-7.27,10.63-12.87-4.03,13.81,18.96-27.21-.61,13.4-18.35-14.94,4.64-6.33-11.62,21.27,6.98v-22.04s20.97-.86,20.97-.86Zm-.08,43.06l-.83,44.33-41.2-.74,.74-39.34,21.3-1.77,7.3,8.76-8.28,11.66,20.14-6.59-7.27,10.63-12.87-4.03,13.81,18.96-27.21-.61,13.4-18.35-14.94,4.64-6.33-11.62,21.27,6.98v-22.04s20.97-.86,20.97-.86Zm-.04-129.59l-.83,44.33-41.2-.74,.74-39.34,21.3-1.78,7.3,8.76-8.28,11.66,20.14-6.59-7.27,10.63-12.87-4.03,13.81,18.96-27.21-.61,13.4-18.35-14.94,4.64-6.33-11.62,21.27,6.98v-22.04s20.97-.86,20.97-.86Zm.12,43.21l-.84,44.33-41.2-.74,.74-39.34,21.3-1.78,7.3,8.76-8.28,11.66,20.14-6.6-7.27,10.63-12.87-4.03,13.81,18.96-27.21-.61,13.4-18.35-14.94,4.64-6.33-11.62,21.27,6.98v-22.04s20.97-.86,20.97-.86Zm113.16,43.15l-.84,44.33-41.2-.74,.74-39.34,21.3-1.78,7.3,8.76-8.28,11.66,20.14-6.59-7.27,10.63-12.87-4.03,13.81,18.96-27.21-.61,13.4-18.35-14.94,4.64-6.33-11.62,21.27,6.98v-22.04s20.97-.86,20.97-.86Zm-.08,43.36l-.83,44.33-41.2-.74,.74-39.34,21.3-1.78,7.3,8.76-8.28,11.66,20.14-6.6-7.27,10.63-12.87-4.03,13.81,18.96-27.21-.61,13.4-18.35-14.94,4.64-6.33-11.62,21.27,6.98v-22.04s20.97-.86,20.97-.86Zm0-129.58l-.83,44.33-41.2-.74,.74-39.34,21.3-1.78,7.3,8.76-8.28,11.66,20.14-6.59-7.27,10.63-12.87-4.03,13.81,18.96-27.21-.61,13.4-18.35-14.94,4.64-6.33-11.62,21.27,6.98v-22.04s20.97-.86,20.97-.86Zm0,43.31l-.83,44.33-41.2-.74,.74-39.34,21.3-1.78,7.3,8.76-8.28,11.66,20.14-6.59-7.27,10.63-12.87-4.03,13.81,18.96-27.21-.61,13.4-18.35-14.94,4.64-6.33-11.62,21.27,6.98v-22.04s20.97-.86,20.97-.86Z" style="fill: #bcbec0; fill-rule: evenodd;"/>
          <path d="M1958.96,247.2l18.34-14.43,20.09,13.89-38.43,.54Zm24.81-19.69l21.03-16.45-2.16,29.66-18.88-13.21Zm-12.94,.54l-19.79,15.18-1.38-30.15,21.17,14.97Zm6.34-5.12c0,.4-21.3-15.24-21.3-15.24l44.23-2.7s-22.92,17.53-22.92,17.93Zm-45.71,42.91c-.21,.14-.67,.32-.78-.17l-.05-.22-.15-.8-.44-2.46-.64-3.64c-.06-.16-.17-.25-.47-.31-1.05-.17-2.17-.46-3.92-.7-.02,0-1.79,.35-3.91,.82-1.96,.43-4.02,.91-4.65,1.09-.16,.12-.18,.15-.19,.17l-5.36,49.63c0,.09-.17,.32-.25,.35-.11,.05-2.1,1.02-2.18,2.03-.08,1.01,.9,2.06,1.62,2.45,.11,.06,.24,.31,.23,.43l-7.93,75.61c-.02,.15-.21,.36-.36,.39-.02,0-20.3,3.77-27.3,6.42-.33,.13-.6-.06-.6-.41l.03-205.2c0-.23,.21-.44,.44-.44h168.35c.23,0,.44,.21,.44,.44v204.81c0,.3-.24,.5-.53,.43-6.9-1.49-27.12-5.7-27.12-5.7-.13-.03-.33-.24-.35-.38l-9.5-75.41c-.02-.14,.12-.4,.25-.46,1.03-.47,1.79-1.65,1.75-2.15-.05-.58-.49-1.04-1.02-1.39-.26-.17-.51-.3-.7-.39l-.24-.11c-.28-.12-.34-.32-.35-.35l-5.06-40.42c-.38-3.03-.07-5.54,.34-7.29,.21-.88,.44-1.56,.61-2.03l.16-.39c-.35-.14-.7-.26-1.05-.36-.36-.11-.73-.21-1.01-.29l-.37-.1-.17-.05c-2.15-.51-5.28-1.26-8.11-1.88-.73,.15-1.58,.45-2.07,.62-.09,.53-.22,1.42-.33,2.23l-.17,1.27-.05,.39c-.03,.29-.45,.11-.45,.11,0,0,.18,.46-.11,.43l-.2-.02-.73-.08-2.32-.26c-1.75-.2-3.69-.42-4.4-.51-.15-.02-.36-.22-.38-.37-.24-1.48-.42-4.1-.59-5.45-.03-.26-.07-.36-.1-.4-.02,0-.09-.04-.17-.05-.65-.08-12.51-1.03-13.18-1.03-.24,0-.26,.05-.28,.14-.16,1.09-.49,4.15-.74,6.14-.02,.19-.24,.38-.43,.38-1.47,.02-7.64,.53-8.56,.68-.22,.04-.46-.13-.5-.35-.37-1.83-.68-4.17-1.02-6.16-.35-.1-.81-.27-1.27-.43-.6-.21-1.1-.37-1.32-.39-.19-.01-1.05,.04-2.19,.13-1.11,.08-2.44,.19-3.51,.25-.24,.02-.45-.18-.47-.42-.02-.28-2.09-45.74-2.18-46.53-.02-.18,.14-.42,.31-.47,.07-.02,.16-.05,.24-.1-1.63,0-2.38-1.54-2.36-2.23,.02-.71,.27-1.24,.63-1.6-.95,.41-1.32,1.48-1.29,1.95,.04,.76,.46,1.81,1.73,2.05,.17,.03,.36,.25,.36,.43,.02,1.19,0,45.82-.04,46.79,0,.2-.21,.41-.4,.42-2.12,.17-3.29,.23-3.95,.29-.34,.03-.5,.05-.6,.08-.1,.13-.12,.25-.15,.37-.07,.28-.13,.66-.2,1.11-.14,.91-.28,2.08-.41,3.26-.26,2.37-.47,4.73-.5,4.94-.02,.14-.23,.34-.38,.36-1.43,.19-3.15,.4-5.03,.67l.27-.24Z" style="fill: #a90034; fill-rule: evenodd;"/>
          <path d="M2155.53,386.46c-.07,0-.31-.14-.35-.2-5.55-8.6-10.47-20.23-7.51-34.1,0-.03,.13-.24,.16-.26,.32-.25,1.3-.78,2.05-.78,1.75,0,1.89,.72,1.78,1.47l-.02,.16v.16s.19,.15,.93,.15c1.55,0,1.94,.24,2.32,.55,.07,.06,.12,.1,.18,.13,.05,.03,.13,.07,.24,.1,.23,.07,.62,.12,1.35,.12,.72,0,1.11-.07,1.33-.15,.2-.07,.28-.15,.41-.27,.38-.37,.78-.66,2.34-.66,1.64,0,2.06,.53,2.41,1.09,.14,.22,.23,.35,.41,.46,.19,.11,.55,.22,1.25,.22,1.12,0,1.26-.54,1.46-1.52,.05-.26,.1-.52,.17-.77,.07-.27,.17-.54,.32-.81,.31-.55,.81-.99,1.64-1.21,1.58-.43,2.24-.05,2.84,.34,.27,.17,.47,.3,.76,.35,.29,.06,.71,.06,1.38-.12,1.42-.39,1.84-.38,2.2-.49,.12-.04,.25-.1,.5-.27,.27-.18,.64-.46,1.22-.9,.55-.41,.78-.74,.89-1,.11-.27,.11-.52,.1-.87-.01-.76,0-1.59,1.34-2.59,.62-.46,1.06-.69,1.41-.8,.18-.06,.33-.08,.45-.09,.1,0,.19,0,.27-.01,.06,0,.1-.03,.17-.09,.15-.14,.37-.44,.77-1.07,.86-1.36,1.5-1.55,2.13-1.7,.26-.06,.46-.11,.69-.27,.23-.16,.53-.45,.91-1.05,.39-.61,.53-.97,.57-1.19,.03-.19,0-.31-.09-.49-.05-.12-.11-.24-.17-.38-.07-.16-.13-.33-.17-.55-.09-.43-.1-.98,.05-1.75,.16-.81,.54-1.54,1.01-2.2,.23-.33,.49-.65,.77-.97,.27-.31,.55-.61,.83-.92,1.13-1.23,2.14-2.35,2.39-3.66,.25-1.28-.11-1.65-.59-2.08-.14-.13-.3-.26-.45-.41-.16-.16-.33-.33-.49-.55-.32-.43-.58-.99-.72-1.79-.27-1.59,.07-2.09,.46-2.56,.15-.18,.25-.3,.31-.52,.06-.24,.09-.62-.03-1.33-.25-1.47-.39-1.77-.59-2.03-.13-.18-.3-.34-.51-.63-.23-.3-.52-.73-.89-1.39-.35-.63-.59-.94-.77-1.09-.15-.14-.26-.17-.43-.23-.5-.16-.94-.37-1.7-1.73-.38-.68-.55-1.19-.61-1.61-.03-.21-.04-.39-.03-.55,0-.14,.02-.27,.03-.39,.01-.19,0-.31-.09-.49-.11-.21-.36-.52-.9-1.01-.54-.49-.87-.72-1.08-.83-.1-.05-.18-.08-.24-.1-.07-.02-.14-.03-.2-.03-.46-.05-.87-.15-2.01-1.18-.52-.48-.81-.56-.97-.56-.15,0-.29,.07-.57,.28-.14,.11-.29,.22-.45,.32-.18,.11-.39,.21-.63,.27-.5,.13-1.09,.08-1.84-.24-.81-.35-1.2-.91-1.33-1.56-.06-.31-.06-.63-.03-.93,.03-.29,.07-.6,.12-.9,.1-.6,.18-1.1,.1-1.52-.07-.36-.26-.68-.81-.92-.6-.26-.96-.18-1.16-.07-.42,.24-.77-.03-.64-.5,.15-.56,.1-.83,.05-.97-.03-.07-.07-.14-.13-.2l-.25-.23c-.51-.46-.9-1.02-.42-2.53,.46-1.41,.58-1.64,.71-1.87,.05-.08,.09-.16,.18-.37,.1-.24,.23-.63,.46-1.33,.5-1.55,1.07-1.76,1.7-1.86,.22-.04,.33-.06,.45-.17,.14-.13,.34-.41,.56-1.09,.23-.7,.38-1.14,.48-1.45,.09-.3,.11-.42,.11-.53,0-.07-.02-.14-.03-.22l-.1-.39c-.09-.33-.2-.8-.34-1.55-.21-1.17-.86-1.33-1.74-1.55-.24-.06-.48-.12-.71-.2-.24-.08-.49-.19-.72-.36-.48-.34-.82-.87-.97-1.69-.15-.81-.03-1.42,.25-1.9,.14-.23,.3-.42,.47-.57,.15-.15,.32-.28,.47-.4,.15-.12,.26-.21,.35-.31,.08-.09,.13-.17,.15-.25,.04-.15,.04-.44-.32-1.04-.35-.59-.65-.84-.88-.95-.24-.12-.47-.12-.79-.13-.74-.01-1.56-.07-2.42-1.51-.42-.71-.54-1.31-.47-1.84,.03-.26,.11-.49,.2-.7,.08-.19,.17-.37,.26-.54,.17-.34,.25-.52,.22-.71-.02-.17-.15-.46-.69-.9-.56-.46-.91-.72-1.16-.89-.24-.16-.38-.23-.51-.3-.34-.17-.67-.35-1.84-1.3-.61-.5-.97-.93-1.2-1.34-.11-.2-.2-.38-.26-.55l-.16-.44c-.15-.39-.29-.74-1.6-1.2-3.11-1.08-4.5-5.93-3.64-8.9,.2-.68,.29-1.06,.32-1.28,.01-.1,.01-.14,.01-.15-.09-.3-.09-.62,.31-2.01,.21-.71,.28-1.1,.28-1.34,0-.2-.04-.28-.12-.39l-.21-.27c-.09-.12-.19-.26-.29-.44-.2-.36-.4-.86-.55-1.62-.32-1.57,0-2.24,.31-2.86,.14-.28,.26-.51,.31-.83,.06-.32,.06-.77-.08-1.46-.23-1.15-.77-1.22-1.67-1.28-.25-.02-.5-.03-.76-.06-.28-.03-.56-.08-.84-.17-.58-.19-1.15-.56-1.62-1.26-.81-1.21-1.1-1.55-1.38-1.89-.29-.35-.59-.71-1.43-1.96-.47-.7-.6-1.35-.55-1.95,.02-.28,.09-.56,.17-.82,.08-.24,.17-.47,.25-.7,.3-.81,.45-1.3-.51-1.95-.6-.41-1-.63-1.3-.76-.3-.14-.51-.19-.72-.24-.51-.13-1.02-.28-2.29-1.13-.98-.66-1.32-.35-1.89,.18-.16,.15-.33,.32-.52,.47-.19,.16-.41,.32-.67,.45-.52,.27-1.16,.39-1.98,.22-1.52-.31-2.02-.65-2.5-1-.22-.16-.4-.29-.71-.43-.31-.14-.75-.28-1.45-.42-1.47-.3-1.79-.52-2.11-.6-.2-.05-.38-.02-1.9,.29-.84,.17-1.5,0-2.03-.37-.26-.18-.48-.39-.68-.61-.19-.21-.37-.44-.54-.67-.7-.91-1.22-1.55-2.38-1.32-1.11,.22-1.22,.89-1.29,2.04-.02,.29-.03,.59-.06,.89-.03,.32-.08,.64-.17,.95-.19,.65-.55,1.27-1.27,1.75-.72,.49-1.41,.55-2.05,.38-.31-.08-.6-.22-.86-.36-.26-.14-.51-.31-.77-.48-1.01-.67-1.74-1.11-2.7-.47-1.2,.81-1.58,1.25-1.88,1.77-.3,.51-.52,1.09-1.09,2.02,3.42,1.13,2.1,5.07,.6,7.29-.44,.65-1,1.26-1.59,1.83-.58,.57-1.21,1.13-1.81,1.7-1.19,1.15-2.15,2.27-2.41,3.57-.15,.72-.17,1.11-.14,1.34,.02,.19,.08,.28,.2,.4l.27,.26c.11,.11,.23,.25,.36,.42,.25,.35,.5,.84,.72,1.59,.2,.68,.32,1.05,.41,1.26,.29,.34,.45,.61,.86,2,.51,1.76-.48,2.26-1.24,2.63-.16,.08-.32,.15-.47,.25-.13,.08-.22,.17-.29,.26-.11,.16-.21,.44-.02,1.08,.42,1.44,.45,1.57,.48,1.73,.04,.16,.08,.34,.53,1.87,.06,.2-.07,.46-.27,.54-.59,.22-.89,.41-1.07,.56-.09,.08-.15,.15-.2,.22-.06,.09-.11,.17-.16,.26-.29,.49-.65,.94-2.09,1.44-.66,.23-.88,.45-.96,.59-.08,.15-.08,.33-.03,.69,.02,.18,.05,.38,.06,.58,.01,.22,0,.45-.06,.71-.12,.52-.43,1.03-1.07,1.55-1.17,.96-1.56,1.11-1.96,1.24-.07,.03-.15,.05-.23,.09-.08,.04-.18,.08-.29,.15-.24,.14-.59,.39-1.16,.86-.58,.47-.8,.71-.88,.84,.19,.48,.39,1-.43,2.38-.43,.72-.95,1.09-1.53,1.22-.28,.06-.55,.06-.81,.04-.24-.02-.49-.06-.74-.1-.92-.16-1.57-.27-2.17,.74-.36,.61-.42,.94-.4,1.13,.02,.18,.11,.32,.33,.57,.11,.13,.24,.26,.35,.41,.12,.16,.25,.35,.34,.59,.2,.47,.27,1.06,.12,1.86-.3,1.66-1.11,2.02-1.83,2.32-.33,.14-.57,.24-.78,.45-.2,.2-.4,.54-.52,1.21-.14,.78-.39,1.34-.67,1.77-.14,.21-.28,.38-.41,.54l-.36,.4c-.34,.39-.59,.73-.17,2.01,.96,2.99-1.79,13.19-4.11,15.29-.49,.44-.6,.78-.6,1.04,0,.3,.12,.61,.3,1.02,.36,.81,.81,1.86-.52,3.07-.62,.56-1.22,.78-1.81,.79-.28,0-.55-.03-.79-.08-.23-.05-.45-.12-.67-.18-.75-.22-1.2-.35-1.77,.67-.33,.6-.37,.95-.33,1.19,.04,.25,.18,.44,.39,.72,.47,.62,.96,1.36,.13,2.86-.4,.72-.87,1.14-1.38,1.38-.25,.12-.49,.19-.72,.25-.22,.05-.43,.08-.64,.12-.69,.12-1.15,.21-1.36,1.42-.12,.71-.11,1.1-.06,1.34,.05,.22,.13,.34,.25,.52,.33,.47,.61,.95,.34,2.52-.13,.77-.33,1.32-.54,1.76-.2,.42-.41,.72-.59,1.02-.29,.48-.49,.95-.22,2.31,.58,2.91,.31,5.78,.89,8.69,.28,1.41,.57,1.96,.95,2.45,.22,.28,.47,.54,.76,.89,.31,.36,.67,.81,1.09,1.45,.38,.58,.7,.84,.97,.98,.27,.14,.53,.17,.87,.21,.75,.08,1.57,.2,2.48,1.58,.42,.63,.67,1.06,.86,1.37,.19,.32,.28,.48,.4,.62,.11,.13,.24,.25,.51,.45,.28,.21,.67,.48,1.27,.89,.56,.39,.96,.5,1.26,.51,.32,.01,.59-.08,.95-.2,.76-.26,1.62-.54,3,.42,.63,.44,.99,.76,1.23,1.02,.12,.13,.2,.24,.27,.34l.13,.19c.1,.09,.15,.12,.26,.16,.25,.1,.66,.2,1.35,.36,1.67,.38,2.05,1.36,2.36,2.2,.15,.41,.28,.74,.52,1.01,.22,.26,.57,.5,1.22,.64,1.41,.32,1.83,.45,2.27,.49,.43,.04,.87,0,2.33,0,.73,0,1.14-.04,1.39-.09,.11-.02,.19-.05,.26-.07,.07-.03,.13-.06,.18-.09,.37-.2,.73-.36,2.25-.36,.69,0,1.13-.12,1.44-.28,.32-.16,.55-.37,.81-.63,.14-.14,.28-.27,.44-.4,.16-.14,.35-.27,.57-.38,.45-.23,1.01-.38,1.78-.38,.17,0,.39,.18,.43,.34,3.46,14.49-2.4,26.13-8.26,34.79-.03,.05-.26,.19-.32,.19-22.71,2.11-49.32,6.74-57.12,9.41-.33,.11-.58-.07-.58-.42V191.32c0-.23,.21-.44,.44-.44h171.45c.23,0,.44,.21,.44,.44v204.72c0,.32-.24,.51-.55,.43-19.38-5.14-35.78-8.49-63.17-10.01Z" style="fill: #afcfe8;"/>
          <path d="M2169.58,302.03c.06,.31,.06,.63,.03,.93-.03,.29-.07,.6-.12,.9-.1,.6-.18,1.1-.1,1.52,.07,.36,.26,.68,.81,.92,.61,.27,1,.26,1.27,.19,.14-.04,.27-.1,.39-.17,.14-.09,.27-.18,.39-.27,.67-.5,1.38-.82,2.65,.34,.54,.49,.87,.72,1.08,.83,.1,.05,.18,.08,.24,.1,.07,.02,.14,.03,.2,.03,.46,.05,.87,.15,2.01,1.18,1.14,1.04,1.32,1.55,1.28,2.21,0,.11-.02,.23-.03,.36,0,.11,0,.24,.02,.38,.05,.29,.17,.7,.51,1.32,.35,.63,.59,.94,.77,1.09,.15,.14,.26,.18,.43,.23,.5,.16,.94,.37,1.7,1.73,.35,.63,.62,1.02,.82,1.28,.22,.29,.39,.46,.52,.64,.34,.45,.5,.95,.75,2.41,.33,1.95-1,1.98-1.81,1.99-.19,0-.37,0-.54,.02-.16,.02-.25,.05-.3,.09-.05,.04-.22,.17-.1,.84,.12,.67,.37,1.32,.7,1.97,.33,.66,.72,1.31,1.08,1.95,.72,1.3,1.39,2.72,1.07,4.35-.06,.33-.34,.46-.64,.31-.37-.2-.63-.13-.94,.2-.35,.37-.67,1.02-1,1.84-.33,.82-.63,1.72-.95,2.54-.32,.81-.69,1.6-1.16,2.11-2.79,2.99-5.26,5.39-7.2,6.71-1.83,1.24-3.67,1.79-4.48-.06-.12-.27-.25-.4-.88,0-.62,.39-1.38,1.13-2.19,1.94-.4,.4-.81,.8-1.19,1.15-.39,.35-.78,.68-1.15,.91-.71,.45-1.68,.69-2.15-.4-.47-1.07-1.17-1.06-2.17-1.03-.26,0-.53,.02-.78,0-.27-.01-.55-.05-.83-.15-.58-.2-1.06-.63-1.4-1.41-.19-.43-.6-.62-1.38-.59-.78,.03-1.75,.28-2.79,.55-.52,.13-1.04,.27-1.53,.37-.52,.11-1.01,.19-1.45,.2-.9,.03-1.81-.19-2.22-1.12-.13-.3-.43-.45-1.33-.12-.85,.31-1.9,.95-3.01,1.62-.55,.33-1.11,.67-1.63,.96-.55,.3-1.06,.56-1.53,.73-.89,.33-1.98,.46-2.45-.6-.17-.38-.46-.5-1.12-.33-.68,.18-1.53,.64-2.44,1.14-.45,.25-.91,.5-1.35,.71-.44,.21-.88,.4-1.29,.51-.83,.22-1.73,.15-2.16-.83-.19-.42-.93-.77-2.3-.96-1.32-.19-2.94-.21-4.49-.23-1.59-.02-3.1-.04-4.11-.21-.5-.08-.99-.22-1.29-.49-.4-.36-.4-.85-.13-1.29,1.68-2.8,.9-4.21-.41-5.3-.35-.29-.74-.56-1.14-.82-.41-.27-.84-.52-1.24-.78-.8-.51-1.6-1.08-2.04-1.82-.26-.44-1.07-.73-2.37-.98-1.26-.24-2.71-.4-3.89-.74-2.78-.79-3.87-2.61-.06-6.77,.75-.82,.46-1.78-.51-3.09-.47-.64-1.06-1.29-1.61-1.94-.56-.66-1.12-1.34-1.52-2.02-.52-.88-.19-1.57,.44-2.04,.29-.22,.65-.39,1.02-.55,.36-.15,.76-.3,1.17-.44,.81-.29,1.52-.54,1.95-.86,.36-.27,.44-.49,.21-.89-.42-.71-.56-1.38-.55-2.01,0-.3,.05-.6,.1-.89,.05-.28,.13-.55,.2-.82,.28-1.05,.5-1.94-.15-3.05-.44-.74-.5-1.54-.49-2.2,0-.32,.03-.63,.04-.91,0-.27,0-.47-.03-.61-.04-.16-.08-.31-.62-.29-.62,.03-1.68,.31-3.47,1.01-3.57,.9-4.58-.98-4.58-3,0-.95,.21-1.94,.41-2.68,.21-.75,.41-1.27,.41-1.27,.03-.07,.24-.25,.32-.27,3.53-.74,4.02-2.68,4.02-4.61,0-1.04-.15-2.07-.13-2.89,.03-.86,.25-1.74,1.24-2.06,5.03-1.61,7.11-2.67,7.73-3.48,.24-.32,.23-.56,.06-.87-.2-.37-.62-.77-1.18-1.28-2.43-2.21-1.71-5.48-.32-7.63,.7-1.09,1.62-1.98,2.51-2.39,.93-.42,1.95-.34,2.49,.74,1.72,3.44,4.1,3.85,5.71,3.34,.84-.27,1.47-.78,1.76-1.27,.27-.47,.21-.84-.15-1.11-3.88-2.8-2.71-5.12-.85-6.89,.87-.82,1.9-1.55,2.61-2.23,.35-.33,.57-.61,.66-.84,.08-.19,.07-.34-.04-.5-.41-.58-.75-.96-1.06-1.23-.3-.27-.57-.45-.87-.65-.62-.41-1.26-.83-2.16-2.1-.53-.75-.48-1.43-.03-1.99,.2-.24,.46-.45,.72-.63,.26-.17,.55-.34,.84-.5,.59-.33,1.06-.61,1.31-.92,.18-.22,.26-.47-.06-.92-.38-.53-.79-.81-1.2-.99-.22-.09-.43-.15-.64-.2-.23-.05-.45-.1-.65-.14-.98-.22-1.77-.63-1.57-2.38,.33-2.95,.29-3.04,.63-5.98,.09-.81,.37-1.48,.73-2.07,.18-.29,.38-.56,.59-.82,.2-.25,.42-.49,.63-.74,.85-.96,1.59-1.82,1.74-3.14,.2-1.75,1.17-2,1.97-2.17,.16-.04,.33-.07,.49-.13,.14-.05,.25-.11,.35-.19,.18-.15,.37-.43,.44-1.1,.18-1.57,.58-1.89,1.09-2.13,.14-.07,.19-.09,.25-.21,.08-.16,.18-.49,.23-1.21,.06-.92,.55-1.4,1.32-1.28,.29,.04,.6,.17,.88,.31,.28,.14,.58,.31,.88,.49,.28,.16,.56,.33,.82,.46,.26,.13,.47,.21,.62,.23,.17-.02,.28-.14,.31-.47,.02-.26,.18-.44,.32-.55,.15-.11,.33-.2,.52-.26,.39-.12,.89-.18,1.46-.17,1.13,.03,2.58,.36,3.89,1.25,.43,.29,.72,.22,1.03-.05,.38-.32,.73-.89,1.14-1.56,.2-.33,.4-.66,.61-.96,.21-.3,.45-.59,.71-.82,.58-.49,1.29-.65,2.1-.11,1.49,1.01,1.19,2.06,.85,2.99-.08,.21-.16,.43-.23,.65-.06,.2-.11,.41-.13,.63-.03,.41,.04,.86,.4,1.39,.81,1.21,1.1,1.55,1.38,1.89,.29,.35,.59,.71,1.43,1.96,.36,.53,.76,.78,1.16,.91,.22,.07,.44,.11,.66,.14,.24,.03,.48,.04,.72,.05,1.01,.07,2.12,.23,2.48,1.99,.32,1.57,0,2.23-.31,2.86-.14,.28-.26,.51-.31,.83-.06,.32-.06,.77,.08,1.46,.14,.69,.31,1.1,.46,1.37,.08,.14,.15,.24,.22,.33l.22,.29c.39,.54,.39,1.07-.02,2.5-.2,.68-.29,1.06-.32,1.28-.01,.1-.01,.14-.01,.15,.09,.3,.09,.61-.31,2.01-.8,2.73,.59,6.96,3.08,7.82,1.49,.52,1.88,1.03,2.14,1.72l.16,.43c.05,.13,.12,.28,.2,.43,.17,.3,.46,.66,1,1.1,.56,.46,.91,.72,1.16,.89,.24,.16,.37,.23,.51,.3,.34,.17,.67,.35,1.84,1.3,1.35,1.11,1.09,1.92,.69,2.7-.08,.15-.16,.31-.23,.48-.07,.16-.11,.31-.13,.47-.04,.31,0,.71,.35,1.28,.35,.59,.65,.84,.88,.95,.24,.12,.47,.12,.79,.13,.74,.01,1.55,.07,2.42,1.51,.91,1.53,.3,2.19-.39,2.74-.14,.11-.28,.22-.42,.35-.13,.12-.23,.24-.31,.38-.16,.26-.26,.65-.14,1.29,.21,1.17,.86,1.33,1.74,1.55,.24,.06,.48,.12,.71,.2,.24,.08,.49,.19,.72,.36,.48,.34,.82,.87,.97,1.69,.13,.71,.24,1.16,.33,1.48l.1,.41c.03,.14,.05,.26,.05,.37,.01,.26-.05,.51-.14,.83-.1,.31-.25,.76-.48,1.47-.5,1.55-1.07,1.76-1.7,1.86-.22,.04-.33,.06-.45,.17-.14,.13-.34,.41-.56,1.09-.46,1.41-.58,1.64-.71,1.87-.05,.08-.09,.16-.18,.37-.1,.24-.23,.63-.46,1.33-.21,.65-.2,.98-.15,1.17,.04,.17,.14,.27,.32,.43l.31,.29c.11,.12,.22,.27,.3,.47,.1,.23,.13,.5,.11,.82,.35-.02,.74,.06,1.18,.24,.81,.35,1.2,.91,1.33,1.56Zm-44.72,67.27c.37-2.93,.64-5.61,.85-7.56,.11-.98,.2-1.78,.27-2.33,.04-.29,.08-.52,.11-.67,.02-.1,.05-.18,.07-.23,.11-.29,.33-.33,.44-.34,.1,0,.23,.02,.37,.13l.16,.13c.1,.08,.22,.18,.41,.27,.34,.17,.93,.34,1.98,.29,.1-.16,.3-.2,.5-.18,.12,0,.22,.05,.28,.08l.21,.11,.44,.27c.15,.08,.31,.17,.47,.23,.32,.12,.49,.09,.61-.02,.16-.15,.38-.57,.43-1.63,0-.18,.2-.4,.39-.42,.77-.09,1.54-.13,2.12-.14,.29,0,.54,0,.71,0h.22c.28,.03,.04,.46,.04,.46l.42-.13s.16,.52,.4,1.02c.26,.55,.56,.96,.81,1.07,.08-.07,.2-.24,.32-.44,.12-.21,.22-.43,.31-.6,.05-.09,.11-.19,.19-.28,.06-.07,.22-.23,.46-.23,.11,0,.23,.03,.32,.06,.09,.03,.21,.07,.33,.12,.23,.09,.52,.22,.81,.36,.45,.21,.92,.45,1.24,.61,.08-.07,.16-.16,.24-.28,.14-.23,.25-.47,.36-.67,.41-.7,1.02-.82,1.84,0,.04,.04,.13,.29,.13,.35-.6,6.29,.7,11.6,2.37,16.09,1.69,4.54,3.73,8.22,4.58,11.17,.09,.32-.1,.56-.43,.56l-28.79-.1c-.37,0-.55-.27-.41-.61,1.62-3.87,2.7-10.65,3.43-16.52Z" style="fill: #15552b; fill-rule: evenodd;"/>
          <path d="M1926.89,259.13c-.05-.35,.19-.57,.54-.49l1.42,.33c.11,.03,.31,.23,.33,.35l1.22,6.56c.06,.31-.15,.54-.46,.52l-1.71-.12c-.17-.01-.38-.21-.4-.38l-.93-6.77Zm26.02,5.17c-.19,0-.4-.2-.42-.39l-.93-8.33c-.04-.36,.21-.57,.55-.47l1.42,.38c.11,.03,.3,.24,.32,.36l1.2,8c.04,.29-.16,.52-.45,.51l-1.69-.05Zm-34.94,30.04c-.16-.07-.33-.2-.41-.53-.06-.27-.06-.68,0-1.36,.26-2.72,.48-5.68,.73-8.4,.13-1.34,.15-1.76,.15-2.18,0-.44-.01-.88,.05-2.28,.05-1.21,.2-4.84,.54-8.45,.32-3.54,.83-7.27,1.67-8.52,1.11-1.66,1.97-2.62,4.82-3.93,.28-.13,.55,0,.61,.31,.38,1.71,.68,3.77,.91,5.41,.11,.81,.21,1.51,.29,2.01l.07,.4c1.09-.12,3.33-.26,5.43-.39l3.19-.19c.9-.05,1.43-.09,1.46-.1,.19-.04,.23-.13,.24-.19,.16-1.21,.85-7.96,1.01-9.42,.02-.18,.23-.38,.4-.39,1.34-.11,2.4-.14,3.26-.19,1.82-.11,8.54,1.59,9.31,9.32,2.08-.01,9.59-.1,12.91-.25,.35,0,.81-.36,.83-.47,.29-2.35,.96-6.79,1.1-8.51,.02-.23,.24-.42,.47-.4,3.76,.3,10.64,1,10.87,1.13,.03,.02,.19,.12,.24,.4l.04,.27,.09,.88c.07,.72,.15,1.7,.24,2.72,.17,2,.35,4.18,.44,4.93,.26,.19,.43,.25,.63,.31,2.65,.37,7.03,1.07,9.49,1.5,.1,.01,.16,.01,.2,0,.07-.04,.1-.1,.11-.16,.36-2.83,1.06-8.05,1.16-8.58,.04-.23,.29-.39,.51-.35,1.24,.23,5.1,1.28,6.9,1.68,.1,.02,.3,.22,.33,.31,.35,1.24,1.72,14.49,1.92,20.06,.01,.34-.23,.53-.56,.44l-2.96-.85c-.61-.1-1.07,.29-1.08,.88l.65,11.34,4.69,2.03c.08,.03,.25,.26,.26,.34,0,0,1.05,7.68,1.49,14.01,.02,.33-.21,.53-.53,.46-6.12-1.27-24.65-3.11-39.39-3.17-16.01-.32-29.68,.63-39.47,1.82-.38-.04-.7-.04-1.05-.03-.39,0-.8,.02-1.18-.01-.71-.06-1.72-.29-1.72-1.4,.23-.75,.03-1.09-.29-1.55l-.27-.38c-.1-.15-.19-.3-.26-.46-.16-.35-.26-.75-.21-1.25,.06-.65,0-.95-.08-1.09-.06-.13-.15-.19-.34-.3-.53-.32-.99-.71-.85-2.24,.13-1.4,.31-1.77,.51-2.14,.04-.07,.07-.13,.11-.21,.03-.08,.07-.17,.1-.28,.07-.27,.14-.66,.2-1.31,.06-.59,.05-.89,.03-1.03Zm-1.63,36.93c-.17-.03-.35-.13-.44-.43-.08-.25-.08-.67-.02-1.33,.11-1.28-.1-2.12-.33-3-.12-.46-.23-.92-.31-1.44-.08-.53-.11-1.13-.05-1.85,.12-1.45,.69-2.68,1.21-3.66,.26-.48,.51-.91,.7-1.3,.19-.38,.29-.65,.31-.86,.11-1.84,.76-3.15,1.39-4,.32-.43,.62-.74,.86-.94,.25-.22,.41-.32,.41-.32l.17-.06c10.42-1.59,31.18-2.6,39.71-2.7,.43,0,.8-.04,1.12-.09,13.09,.14,34.11,.77,41.48,2.98,.11,.03,.3,.25,.31,.37,0,0,1.61,14.3,3.21,28.83,1.59,14.48,3.19,29.31,3.13,30.27-.04,.6,1.01,14.28,1.12,15.11,.18,1.3,.1,3.23-1.59,3.72-.41,.12-4.78-.39-8.8-.88-4.13-.5-8.18-1.02-8.18-1.02-.21-.03-.4-.25-.38-.46,1.8-32.82-32.88-33.77-30.83-.73l-.8,.28c.19,.01,.24,.16,.25,.18h-.19s-.79,0-.79,0c-.68,0-1.66,.03-2.82,.06-2.34,.06-5.45,.15-8.59,.23-6.18,.17-12.72,.33-13.31,.12-.72-.26-1.22-.64-1.6-1.09-.19-.22-.35-.45-.48-.68-.13-.22-.26-.45-.38-.68-.47-.89-.87-1.63-1.98-2.03-.57-.21-1.04-.23-1.46-.18-.45,.05-.85,.19-1.23,.3-.89,.25-1.79,.35-2.89-.78-1.09-1.12-.99-2.06-.89-2.88,.05-.39,.08-.71,.01-1.04-.07-.32-.23-.68-.66-1.12-.42-.44-.77-.59-1.05-.64-.14-.03-.29-.03-.43-.02-.16,.01-.32,.04-.46,.06-.8,.11-1.53,.04-2.12-1.44-.42-1.06,.27-1.75,1.19-2.13,2.05-.26,3-.63,3.39-.96,.27-.23,.27-.43,.02-.74-.64-.8-2.29-1.34-2.71-1.19-1.33,.5-3.3-1.52-2.55-3.33,.03-.07,.02-.34-.23-.89-.23-.51-.58-1.09-.94-1.67-.37-.6-.76-1.19-1.05-1.68-.15-.26-.28-.5-.37-.69-.09-.19-.18-.42-.17-.63,0-.25-.02-1.02-.02-1.79,0-.39,0-.79,.03-1.11,.01-.17,.03-.33,.05-.46,.02-.13,.06-.27,.12-.4,.02-.03,.2-.19,.23-.21,.14-.05,.29-.22,.37-.67,.08-.43,.06-1,0-1.62-.06-.62-.17-1.26-.25-1.8-.08-.53-.17-1.04-.15-1.35,.07-1.45,.37-1.83,.73-2.18,.12-.12,.2-.2,.28-.38,.08-.2,.16-.55,.19-1.22,.06-1.26-.25-1.96-.58-2.72-.18-.41-.36-.82-.49-1.3-.13-.51-.2-1.08-.17-1.81,.03-.52,.38-.71,.69-.78,.11-.03,.24-.04,.38-.07,.12-.02,.24-.05,.38-.1,2.93-.38,2.46-1.93,.88-2.53-1.53-.57-1.95-1.93-2-3.33-.04-1.35,.26-2.93,.38-4.3,.03-.4,.04-.66,.04-.81Z" style="fill: #a8a9ac; fill-rule: evenodd;"/>
          <path d="M1914.52,445.49l-11.73-7.32-11.73,7.32,3.34-13.42-10.59-8.89,13.79-.97,5.18-12.82,5.18,12.82,13.79,.97-10.59,8.89,3.34,13.42Zm0,43.21l-11.73-7.32-11.73,7.32,3.34-13.42-10.59-8.89,13.79-.97,5.18-12.82,5.18,12.82,13.79,.97-10.59,8.89,3.34,13.42Zm0,43.21l-11.73-7.32-11.73,7.32,3.34-13.42-10.59-8.89,13.79-.97,5.18-12.82,5.18,12.82,13.79,.97-10.59,8.89,3.34,13.42Zm0,43.21l-11.73-7.32-11.73,7.32,3.34-13.42-10.59-8.89,13.79-.97,5.18-12.82,5.18,12.82,13.79,.97-10.59,8.89,3.34,13.42Zm113.12-129.62l-11.73-7.32-11.73,7.32,3.34-13.42-10.59-8.89,13.79-.97,5.18-12.82,5.18,12.82,13.79,.97-10.59,8.89,3.34,13.42Zm0,43.21l-11.73-7.32-11.73,7.32,3.34-13.42-10.59-8.89,13.79-.97,5.18-12.82,5.18,12.82,13.79,.97-10.59,8.89,3.34,13.42Zm0,43.21l-11.73-7.32-11.73,7.32,3.34-13.42-10.59-8.89,13.79-.97,5.18-12.82,5.18,12.82,13.79,.97-10.59,8.89,3.34,13.42Zm0,43.21l-11.73-7.32-11.73,7.32,3.34-13.42-10.59-8.89,13.79-.97,5.18-12.82,5.18,12.82,13.79,.97-10.59,8.89,3.34,13.42Zm-55.06-129.62l-11.73-7.32-11.73,7.32,3.34-13.42-10.59-8.89,13.79-.97,5.18-12.82,5.18,12.82,13.79,.97-10.59,8.89,3.34,13.42Zm0,43.21l-11.73-7.32-11.73,7.32,3.34-13.42-10.59-8.89,13.79-.97,5.18-12.82,5.18,12.82,13.79,.97-10.59,8.89,3.34,13.42Zm0,43.21l-11.73-7.32-11.73,7.32,3.34-13.42-10.59-8.89,13.79-.97,5.18-12.82,5.18,12.82,13.79,.97-10.59,8.89,3.34,13.42Zm0,43.21l-11.73-7.32-11.73,7.32,3.34-13.42-10.59-8.89,13.79-.97,5.18-12.82,5.18,12.82,13.79,.97-10.59,8.89,3.34,13.42Zm0,43.21l-11.73-7.32-11.73,7.32,3.34-13.42-10.59-8.89,13.79-.97,5.18-12.82,5.18,12.82,13.79,.97-10.59,8.89,3.34,13.42Zm256.42-463.49c1.17,.83,1.67,2.06,2.28,3.5l3.23,7.68c1.28,3,1.89,4.67,2.61,4.95,1.22,.5,2.34,.45,2.34,1.28,0,.5-.28,.56-.95,.56-.95,0-2.11-.17-3.39-.17-.83,0-1.61,.17-2.45,.17-1.11,0-1.22-.61-1.72-1.84l-5.01-12.63c-.78-1.95-1.39-2.5-3.11-2.5h-.56c-.45,0-.72,.33-.72,.78v10.96c0,2.17,.06,3.5,2.45,3.5,.89,0,1.22,.28,1.22,.95,0,.44-.45,.78-1.11,.78-.56,0-2.17-.33-5.06-.33s-4.62,.33-5.28,.33c-.78,0-1.17-.33-1.17-.89,0-1.06,1.11-.67,2.17-.95,1.78-.45,1.78-1,1.78-3.39v-25.47c0-1.78-.11-2.22-1.22-2.56-1.45-.39-2.61,.11-2.61-1,0-.72,.5-.78,1.5-.78,.44,0,1.72,.22,3.67,.22,2.78,0,5.45-.33,7.95-.33,5.95,0,9.12,3.45,9.12,8.62,0,4.45-2.28,7.73-5.95,8.57Zm-7.45-2c0,1.17,.67,1.28,2.56,1.28,3.78,0,5.78-2.45,5.78-7.06s-1.95-7.56-5.56-7.56c-2.56,0-2.78,.95-2.78,2.78v10.57Zm-31.48-10.73v19.41c0,6.79,1.33,10.35,7.23,10.35,2.95,0,5.17-1.06,6.51-2.95,1.34-2,1.39-4.67,1.39-8.51v-13.46c0-4.23-.06-6.4-1-7.17-1-.78-3,0-3-1.22,0-.5,.33-.78,.95-.78,.67,0,1.89,.17,3.78,.17,2,0,3.28-.17,3.84-.17,.78,0,1.17,.22,1.17,.78,0,.67-.5,.78-1.61,.78-2.34,0-2.45,1.89-2.45,7.45v13.68c0,3.84-.06,6.73-1.5,9.23-1.56,2.67-4.67,4.17-8.95,4.17-4.73,0-7.9-1.22-9.79-4-1.5-2.17-1.61-4.84-1.61-8.23v-19.52c0-1.84-.06-2.22-1.22-2.56-1.45-.45-2.56,.11-2.56-1,0-.45,.33-.78,.83-.78,.56,0,2.34,.45,5.51,.45s4.95-.45,5.51-.45,.83,.33,.83,.78c0,1.17-1.28,.61-2.61,1-1.11,.33-1.22,.78-1.22,2.56Zm-10.3-5.12l-.33,7.34c-.06,1.22-.22,1.56-.78,1.56-1,0-.95-1.56-1.61-3.73-1-2.39-2.61-2.73-6.01-2.73h-.89c-.44,0-.72,.5-.72,.89v27.25c0,2.34,.06,2.84,1.5,3.34,1.28,.44,2.45-.11,2.45,1.11,0,.44-.39,.78-1.17,.78-1.17,0-2.95-.39-5.28-.39s-4.12,.39-5.28,.39c-.78,0-1.17-.33-1.17-.89,0-1.11,1.22-.61,2.45-1,1.45-.45,1.5-.95,1.5-3.34v-27.09c0-.45-.28-1.06-.72-1.06h-1.56c-2.28,0-3.62,.89-5.01,2.67-1.33,2.22-1.84,3.56-2.73,3.56-.39,0-.61-.06-.61-.78,0-.06,.11-.5,.22-.95l1.39-5.67c.39-1.67,.39-2.84,1.11-2.84,.67,0,.61,1.84,1.28,1.89,.39,.39,1.28,.5,2.61,.5,1.06,0,2.39-.06,4-.06h6.84c1.84,0,3.28,.11,4.34,.11,.83,0,1.45-.06,1.78-.28,1-.61,1.22-2.22,1.78-2.22,.45,0,.61,.67,.61,1v.61Zm-31.52,5.12v25.47c0,2.34,.06,2.89,1.5,3.34,1.28,.39,2.45-.11,2.45,1.11,0,.44-.39,.78-1.17,.78-.67,0-2.39-.33-5.28-.33s-4.62,.33-5.28,.33c-.78,0-1.17-.33-1.17-.89,0-1.06,1.11-.67,2.17-.95,1.78-.45,1.78-1,1.78-3.39v-25.47c0-1.78-.11-2.22-1.22-2.56-1.45-.39-2.61,.11-2.61-1,0-.45,.28-.78,.83-.78s2.34,.45,5.51,.45,4.89-.45,5.51-.45c.5,0,.83,.33,.83,.78,0,1-1,.67-2.39,.95-1.39,.28-1.45,.83-1.45,2.61Zm-22.15,14.68l-.89-.39c-.17-.06-.28-.11-.39-.11-.45,0-.5,.33-.5,1.06v10.4c0,1.89,.06,2.56,1.11,3.06,1.39,.61,2.67-.11,2.67,1.22,0,.44-.45,.83-1.17,.83s-2.5-.39-5.28-.39c-2.61,0-4.28,.39-5.06,.39-.49,0-.83-.16-1-.43-.12,.33-.47,.43-1.12,.43-.95,0-2.45-.33-4.67-.33-3.11,0-5.01,.28-5.73,.28-.67,0-.95-.17-.95-.67s.45-.89,1.11-.89c1.84,0,2.28-.33,2.28-1.33,0-.5-.17-1.33-.5-2.5l-2.17-7.12c-.11-.39-.39-.45-.83-.45h-6.9c-.22,0-.56,.22-.61,.5l-1.33,4.95c-.56,2.17-.83,3.62-.83,4.28,0,1.11,.44,1.33,1.45,1.5,1.5,.22,2.22,.39,2.22,1.22,0,.5-.33,.67-.95,.67-.78,0-2.45-.33-4.84-.33-1.61,0-2.89,.28-3.67,.28-.67,0-1-.28-1-.72,0-1.17,1.67-.44,2.78-1.28,1-.72,1.39-2.11,2-4.12l8.84-28.7c.28-.83,.33-1.33,.95-1.33,.78,0,.83,1.06,1.33,2.61l8.4,26.48c.78,2.56,1.28,4.06,2.73,5.01,.82,.56,1.6,.59,1.91,.88,.16-.76,1.12-.46,2.09-.71,1.67-.44,1.67-1.33,1.67-3.84v-25.08c0-1.61-.11-2.17-1.17-2.5-1.39-.45-2.5,.06-2.5-1.06,0-.56,.39-.78,1.06-.78,.28,0,1.72,.17,4.39,.17h.89c1.28,0,3.11-.11,5.56-.11,6.45,0,9.68,3.45,9.68,10.18,0,5.62-3.5,9.79-7.62,9.79-1,0-2.11-.39-3.45-1Zm-1.84-3.89c0,1.61,1.5,2.39,2.89,2.39,2.5,0,4.78-2.95,4.78-7.56,0-5.01-2.39-8.34-5.06-8.34-2.28,0-2.61,.78-2.61,2.73v10.79Zm-24.53-5.84c-.11-.33-.22-.5-.33-.5s-.28,.17-.33,.44l-2.61,9.84c-.06,.28-.06,.5-.06,.56,0,.17,.17,.33,.39,.33h5.56c.22,0,.5-.22,.5-.45,0-.17-.06-.33-.11-.56l-3-9.68Zm-39.37,8.18c0-10.35,7.45-18.47,16.74-18.47,4.06,0,7.56,1.28,8.23,2.06,.39,.39,.72,2.45,.72,5.73,0,.61-.17,1-.45,1-.5,0-1-.83-1.84-2.23-2-3.28-4-5.06-6.9-5.06-6.01,0-10.79,6.84-10.79,17.24,0,9.62,4.78,16.57,10.29,16.57,3.45,0,5.67-1.89,7.4-5.73,.89-2,1.28-3.17,1.95-3.17,.33,0,.61,.39,.61,1.17,0,.44-.17,2.06-.17,4.73s-3.95,4.78-9.57,4.78c-9.34,0-16.24-8.18-16.24-18.63Zm-34.43-8.79c0-5.73,3.78-9.68,9.84-9.68,3.11,0,5.84,1.06,6.34,1.72,.28,.33,.45,2.39,.45,6.06,0,.78-.28,1.17-.72,1.17-.78,0-.83-1.06-1.61-2.95-1.17-2.95-2.34-4.56-4.95-4.56-3.28,0-5.34,2.22-5.34,5.73,0,2.95,1.67,4.56,5.17,6.4,5.95,3.11,9.29,5.95,9.29,12.24s-4.51,11.29-10.73,11.29c-4.89,0-8.23-1.61-8.23-4.78,0-1.28,.11-2.45,.11-3.5,0-.83-.06-1.33-.06-1.45,0-1.17,.33-1.72,.83-1.72,1,0,.72,1.78,1.34,3.89,1.11,3.73,3.84,5.95,6.67,5.95,3.34,0,6.01-2.84,6.01-6.67,0-3.39-2.11-6.01-6.34-8.4-4.5-2.56-8.06-4.23-8.06-10.73Zm-17.13,.61c-.11-.33-.22-.5-.33-.5s-.28,.17-.33,.44l-2.61,9.84c-.06,.28-.06,.5-.06,.56,0,.17,.17,.33,.39,.33h5.56c.22,0,.5-.22,.5-.45,0-.17-.06-.33-.11-.56l-3-9.68Zm2.73-7.68l8.4,26.48c.78,2.56,1.28,4.06,2.73,5.01,1.06,.72,2.06,.56,2.06,1.22,0,.61-.33,.78-1.17,.78-.95,0-2.45-.33-4.67-.33-3.11,0-5.01,.28-5.73,.28-.67,0-.95-.17-.95-.67s.45-.89,1.11-.89c1.84,0,2.28-.33,2.28-1.33,0-.5-.17-1.33-.5-2.5l-2.17-7.12c-.11-.39-.39-.45-.83-.45h-6.9c-.22,0-.56,.22-.61,.5l-1.33,4.95c-.56,2.17-.83,3.62-.83,4.28,0,1.11,.45,1.33,1.45,1.5,1.5,.22,2.22,.39,2.22,1.22,0,.5-.33,.67-.95,.67-.78,0-2.45-.33-4.84-.33-1.61,0-2.89,.28-3.67,.28-.67,0-1-.28-1-.72,0-1.17,1.67-.44,2.78-1.28,1-.72,1.39-2.11,2-4.12l8.84-28.7c.28-.83,.33-1.33,.95-1.33,.78,0,.83,1.06,1.33,2.61Zm-11.69-2.39l-.33,7.34c-.06,1.22-.22,1.56-.78,1.56-1,0-.95-1.56-1.61-3.73-1-2.39-2.61-2.73-6.01-2.73h-.89c-.44,0-.72,.5-.72,.89v27.25c0,2.34,.06,2.84,1.5,3.34,1.28,.44,2.45-.11,2.45,1.11,0,.44-.39,.78-1.17,.78-1.17,0-2.95-.39-5.28-.39s-4.12,.39-5.28,.39c-.78,0-1.17-.33-1.17-.89,0-1.11,1.22-.61,2.45-1,1.45-.45,1.5-.95,1.5-3.34v-27.09c0-.45-.28-1.06-.72-1.06h-1.56c-2.28,0-3.62,.89-5.01,2.67-1.33,2.22-1.84,3.56-2.73,3.56-.39,0-.61-.06-.61-.78,0-.06,.11-.5,.22-.95l1.39-5.67c.39-1.67,.39-2.84,1.11-2.84,.67,0,.61,1.84,1.28,1.89,.39,.39,1.28,.5,2.61,.5,1.06,0,2.39-.06,4-.06h6.84c1.84,0,3.28,.11,4.34,.11,.83,0,1.45-.06,1.78-.28,1-.61,1.22-2.22,1.78-2.22,.45,0,.61,.67,.61,1v.61Zm-34.41,17.85c1.17,.83,1.67,2.06,2.28,3.5l3.23,7.68c1.28,3,1.89,4.67,2.61,4.95,1.22,.5,2.34,.45,2.34,1.28,0,.5-.28,.56-.95,.56-.95,0-2.11-.17-3.39-.17-.83,0-1.61,.17-2.45,.17-1.11,0-1.22-.61-1.72-1.84l-5.01-12.63c-.78-1.95-1.39-2.5-3.11-2.5h-.56c-.45,0-.72,.33-.72,.78v10.96c0,2.17,.06,3.5,2.45,3.5,.89,0,1.22,.28,1.22,.95,0,.44-.45,.78-1.11,.78-.56,0-2.17-.33-5.06-.33s-4.62,.33-5.28,.33c-.78,0-1.17-.33-1.17-.89,0-1.06,1.11-.67,2.17-.95,1.78-.45,1.78-1,1.78-3.39v-25.47c0-1.78-.11-2.22-1.22-2.56-1.45-.39-2.61,.11-2.61-1,0-.72,.5-.78,1.5-.78,.45,0,1.72,.22,3.67,.22,2.78,0,5.45-.33,7.95-.33,5.95,0,9.12,3.45,9.12,8.62,0,4.45-2.28,7.73-5.95,8.57Zm-7.45-2c0,1.17,.67,1.28,2.56,1.28,3.78,0,5.78-2.45,5.78-7.06s-1.95-7.56-5.56-7.56c-2.56,0-2.78,.95-2.78,2.78v10.57Zm-12.76-13.18v4.78c0,.95-.11,1.39-.61,1.39-1,0-.72-2.34-2.73-4.17-1.5-1.39-3.73-2.11-6.79-2.11s-3.11,.78-3.11,3.39v9.18c0,.95,0,1.11,1,1.11h2.5c2.28,0,4.17-.5,4.67-1,1.5-1.45,.78-3.39,1.95-3.39,.5,0,.67,.22,.67,.78,0,1.39-.28,3.28-.28,5.51,0,2.61,.17,4.23,.17,4.73,0,.67-.28,1-.67,1-.95,0-.72-1.72-1.89-3.89-.89-1.67-2.34-1.84-4.67-1.84h-2.45c-.78,0-1,.22-1,1v11.46c0,3.06,.72,3.56,4,3.56,3.45,0,5.28-.45,7.01-3.17,1.33-2.06,1.78-3.84,2.67-3.84,.22,0,.56,.33,.56,.5,0,0-.06,.39-.11,1l-.61,5.4c-.17,1.72-.11,1.95-1.72,1.95-2.28,0-7.06-.45-14.18-.45-3.28,0-5.01,.28-5.45,.28-.83,0-1.22-.28-1.22-.89,0-1,1-.67,2.39-.89,1.61-.22,1.67-1.28,1.67-3.45v-25.47c0-1.67,0-2.22-1.06-2.56-1.22-.39-2.39,.11-2.39-1,0-.5,.33-.78,.95-.78,.44,0,3.17,.22,8.29,.22,6.51,0,10.18-.22,10.9-.22,1.5,0,1.56,.5,1.56,1.67v.22Zm-41.45,15.35c-.45,0-.72,.28-.72,.72v11.4c0,2.84,1.17,4.17,4.51,4.17,4.39,0,7.12-3.06,7.12-8.45,0-4.73-2.56-7.84-7.45-7.84h-3.45Zm9.18-1.39c4.67,.95,7.29,4.34,7.29,9.51,0,5.95-4.12,10.18-10.4,10.18-4,0-7.29-.83-10.01-.83-2.06,0-3.45,.33-4.17,.33-.67,0-1.06-.33-1.06-.89,0-.61,.39-.83,1.33-.83,1.67,0,2.17-.89,2.17-2.39,0-.17,.06-.5,.06-1.11v-25.47c0-1.5-.5-2.17-1.5-2.17-.72,0-1.39,.28-1.95,.28-.44,0-.67-.28-.67-.78,0-1.11,3.5-1.72,10.4-1.72,9.29,0,13.96,2.56,13.96,8.57,0,3.67-1.72,5.95-5.45,7.34Zm-9.9-2.11c0,1.61,.06,1.72,1.72,1.72h.72c4.78,0,7.56-2.39,7.56-6.62,0-4.56-2.39-7.06-6.79-7.06-2.84,0-3.23,.67-3.23,2.67v9.29Zm-15.17-9.4v25.47c0,2.34,.06,2.89,1.5,3.34,1.28,.39,2.45-.11,2.45,1.11,0,.44-.39,.78-1.17,.78-.67,0-2.39-.33-5.28-.33s-4.62,.33-5.28,.33c-.78,0-1.17-.33-1.17-.89,0-1.06,1.11-.67,2.17-.95,1.78-.45,1.78-1,1.78-3.39v-25.47c0-1.78-.11-2.22-1.22-2.56-1.45-.39-2.61,.11-2.61-1,0-.45,.28-.78,.83-.78s2.34,.45,5.51,.45,4.89-.45,5.51-.45c.5,0,.83,.33,.83,.78,0,1-1,.67-2.39,.95-1.39,.28-1.45,.83-1.45,2.61Zm-22.95,0v25.47c0,2.39,1.28,3.62,3.62,3.62s4.17-1,5.73-3.06c1.67-2.22,2.28-3.73,2.89-3.73,.22,0,.5,.28,.5,.44,0,.06,0,.45-.06,1l-.56,5.23c-.06,.5-.11,.78-.11,.95,0,.61-.39,.95-1.11,.95-2.34,0-6.84-.5-13.4-.5-2.89,0-4.62,.33-5.28,.33-.78,0-1.17-.33-1.17-.89,0-1.06,1.11-.67,2.17-.95,1.78-.45,1.78-1,1.78-3.39v-25.47c0-1.67-.06-2.22-1.11-2.56-1.33-.45-2.39,.11-2.39-1,0-.45,.28-.78,.72-.78,.56,0,2.11,.45,5.12,.45,3.34,0,5.12-.45,5.67-.45,.5,0,.83,.33,.83,.78,0,1-1,.67-2.39,.95-1.39,.28-1.45,.83-1.45,2.61Zm372.96,274.14h5.03c.99,0,1.46,.12,1.46,.64,0,1.05-2.46,.76-4.39,2.87-1.46,1.58-2.22,3.92-2.22,7.14s.82,3.28,3.57,3.28h9.65c.99,0,1.17,0,1.17-1.05v-2.63c0-2.4-.53-4.39-1.05-4.91-1.52-1.58-3.57-.82-3.57-2.05,0-.53,.23-.7,.82-.7,1.46,0,3.45,.29,5.79,.29,2.75,0,4.45-.18,4.97-.18,.7,0,1.05,.29,1.05,.7,0,.99-1.81,.76-4.1,1.99-1.75,.94-1.93,2.46-1.93,4.91v2.57c0,.82,.23,1.05,1.05,1.05h12.05c3.22,0,3.74-.76,3.74-4.21,0-3.63-.47-5.56-3.33-7.37-2.16-1.4-4.04-1.87-4.04-2.81,0-.23,.35-.59,.53-.59,0,0,.41,.06,1.05,.12l5.67,.64c1.81,.18,2.05,.12,2.05,1.81,0,2.4-.47,7.43-.47,14.92,0,3.45,.29,5.27,.29,5.73,0,.88-.29,1.29-.94,1.29-1.05,0-.7-1.05-.94-2.52-.23-1.7-1.35-1.75-3.63-1.75h-26.79c-1.75,0-2.34,0-2.69,1.11-.41,1.29,.12,2.52-1.05,2.52-.53,0-.82-.35-.82-.99,0-.47,.23-3.33,.23-8.72,0-6.84-.23-10.71-.23-11.47,0-1.58,.53-1.64,1.75-1.64h.23Zm2.57,40.94h26.79c2.52,0,3.8-1.35,3.8-3.8s-1.05-4.39-3.22-6.03c-2.34-1.76-3.92-2.4-3.92-3.04,0-.23,.29-.53,.47-.53,.06,0,.47,0,1.05,.06l5.5,.58c.53,.06,.82,.12,.99,.12,.64,0,.99,.41,.99,1.17,0,2.46-.53,7.2-.53,14.1,0,3.04,.35,4.86,.35,5.56,0,.82-.35,1.23-.94,1.23-1.11,0-.7-1.17-.99-2.28-.47-1.87-1.05-1.87-3.57-1.87h-26.79c-1.76,0-2.34,.06-2.69,1.17-.47,1.4,.12,2.52-1.05,2.52-.47,0-.82-.29-.82-.76,0-.58,.47-2.22,.47-5.38,0-3.51-.47-5.38-.47-5.97,0-.53,.35-.88,.82-.88,1.05,0,.7,1.05,.99,2.52,.29,1.46,.88,1.52,2.75,1.52Zm0,18.85h26.79c2.46,0,3.04-.06,3.51-1.58,.41-1.35-.12-2.57,1.17-2.57,.47,0,.82,.41,.82,1.23,0,.7-.35,2.52-.35,5.56s.35,4.86,.35,5.56c0,.82-.35,1.23-.94,1.23-1.11,0-.7-1.17-.99-2.28-.47-1.87-1.05-1.87-3.57-1.87h-26.79c-1.87,0-2.34,.12-2.69,1.29-.41,1.52,.12,2.75-1.05,2.75-.47,0-.82-.29-.82-.88s.47-2.46,.47-5.79-.47-5.15-.47-5.79c0-.53,.35-.88,.82-.88,1.05,0,.7,1.05,.99,2.52,.29,1.46,.88,1.52,2.75,1.52Zm0,38.89h10.65c.53,0,.76-.23,.76-.76v-13.28c0-.47-.35-.7-.82-.7h-10.59c-1.87,0-2.34,.06-2.69,1.23-.41,1.52,.12,2.75-1.05,2.75-.47,0-.82-.29-.82-.88s.47-2.46,.47-5.79-.47-5.15-.47-5.79c0-.53,.35-.88,.82-.88,1.05,0,.7,1.05,.99,2.52s.88,1.52,2.75,1.52h26.79c2.46,0,3.04,0,3.51-1.52,.41-1.35-.12-2.63,1.17-2.63,.47,0,.82,.47,.82,1.29,0,.7-.35,2.46-.35,5.5s.35,4.86,.35,5.56c0,.82-.35,1.29-.94,1.29-1.11,0-.7-1.17-.99-2.28-.47-1.87-1.05-1.87-3.57-1.87h-12.52c-.47,0-.82,.23-.82,.7v13.28c0,.47,.35,.76,.82,.76h12.52c2.46,0,3.04-.06,3.51-1.58,.41-1.35-.12-2.57,1.17-2.57,.47,0,.82,.41,.82,1.23,0,.7-.35,2.52-.35,5.56s.35,4.86,.35,5.56c0,.82-.35,1.23-.94,1.23-1.11,0-.7-1.17-.99-2.28-.47-1.87-1.05-1.87-3.57-1.87h-26.79c-1.87,0-2.34,.12-2.69,1.29-.41,1.52,.12,2.75-1.05,2.75-.47,0-.82-.29-.82-.88s.47-2.46,.47-5.79-.47-5.15-.47-5.79c0-.53,.35-.88,.82-.88,1.05,0,.7,1.05,.99,2.52s.88,1.52,2.75,1.52Zm13.81,43.17c-10.88,0-19.42-7.84-19.42-17.61,0-4.27,1.35-7.96,2.16-8.66,.41-.41,2.57-.76,6.03-.76,.64,0,1.05,.18,1.05,.47,0,.53-.88,1.05-2.34,1.93-3.45,2.11-5.32,4.21-5.32,7.25,0,6.32,7.2,11.35,18.14,11.35,10.12,0,17.43-5.03,17.43-10.82,0-3.63-1.99-5.97-6.03-7.78-2.11-.94-3.33-1.35-3.33-2.05,0-.35,.41-.64,1.23-.64,.47,0,2.16,.18,4.97,.18s5.03,4.15,5.03,10.06c0,9.83-8.6,17.08-19.6,17.08Zm-17.1,28.15l5.03,.18c.99,.03,1.46,.17,1.44,.69-.04,1.05-2.48,.67-4.48,2.71-1.52,1.53-2.36,3.84-2.47,7.05-.11,3.1,.7,3.3,3.45,3.4l9.65,.34c.99,.03,1.17,.04,1.21-1.01l.09-2.63c.08-2.4-.37-4.4-.88-4.95-1.46-1.63-3.54-.94-3.49-2.17,.02-.53,.26-.69,.84-.67,1.46,.05,3.44,.41,5.78,.49,2.75,.1,4.45-.02,4.98,0,.7,.02,1.04,.33,1.03,.74-.03,.99-1.84,.7-4.16,1.84-1.79,.87-2.01,2.39-2.1,4.84l-.09,2.57c-.03,.82,.2,1.06,1.02,1.09l12.04,.42c3.22,.11,3.77-.63,3.89-4.08,.13-3.62-.27-5.57-3.08-7.48-2.11-1.48-3.97-2.01-3.94-2.95,0-.23,.37-.57,.55-.57,0,0,.41,.07,1.05,.15l5.65,.84c1.81,.24,2.04,.19,1.98,1.88-.08,2.4-.73,7.41-.99,14.89-.12,3.45,.11,5.27,.09,5.74-.03,.88-.34,1.28-.98,1.25-1.05-.04-.67-1.08-.85-2.55-.17-1.7-1.28-1.8-3.56-1.88l-26.78-.93c-1.75-.06-2.34-.08-2.73,1.02-.45,1.27,.03,2.52-1.14,2.48-.53-.02-.81-.38-.78-1.02,.02-.47,.35-3.32,.54-8.7,.24-6.84,.14-10.71,.17-11.47,.06-1.58,.58-1.62,1.81-1.58h.23Zm10.01,61.47l-22.55-15.21c-1.02-.69-1.68-.85-2.24-.03-.49,.73-.41,1.56-.81,2.14-.2,.29-.65,.34-1.09,.04-1.26-.85,.6-5.59,5.54-12.92,6.22-9.21,16.61-10.6,25.97-4.29,9.46,6.38,11.76,15.83,5.25,25.48-1.7,2.52-3.59,4.28-4.74,5.98-1.01,1.5-1.59,3.09-2.41,4.3-.46,.68-.98,.82-1.46,.49-.92-.62,.07-1.36,.45-2.45,.66-1.81,.17-2.14-1.91-3.55Zm1.54-5.31c3.35,2.26,5,2.53,6.96-.38,4.19-6.21,1.47-13.9-7.26-19.78-8.2-5.53-16.83-5.49-20.85,.47-2.26,3.35-1.65,4.32,.25,5.6l20.9,14.1Zm-62.53,1.72v26.79c0,2.52,1.35,3.8,3.8,3.8s4.39-1.05,6.03-3.22c1.75-2.34,2.4-3.92,3.04-3.92,.23,0,.53,.29,.53,.47,0,.06,0,.47-.06,1.05l-.58,5.5c-.06,.53-.12,.82-.12,.99,0,.64-.41,.99-1.17,.99-2.46,0-7.2-.53-14.1-.53-3.04,0-4.86,.35-5.56,.35-.82,0-1.23-.35-1.23-.94,0-1.11,1.17-.7,2.28-.99,1.87-.47,1.87-1.05,1.87-3.57v-26.79c0-1.76-.06-2.34-1.17-2.69-1.4-.47-2.52,.12-2.52-1.05,0-.47,.29-.82,.76-.82,.58,0,2.22,.47,5.38,.47,3.51,0,5.38-.47,5.97-.47,.53,0,.88,.35,.88,.82,0,1.05-1.05,.7-2.52,.99-1.46,.29-1.52,.88-1.52,2.75Zm-28.68,5.21c-.12-.35-.23-.53-.35-.53s-.29,.18-.35,.47l-2.75,10.35c-.06,.29-.06,.53-.06,.58,0,.18,.18,.35,.41,.35h5.85c.23,0,.53-.23,.53-.47,0-.18-.06-.35-.12-.59l-3.16-10.18Zm2.87-8.07l8.83,27.85c.82,2.69,1.35,4.27,2.87,5.27,1.11,.76,2.16,.58,2.16,1.29,0,.64-.35,.82-1.23,.82-.99,0-2.57-.35-4.91-.35-3.28,0-5.27,.29-6.03,.29-.7,0-.99-.18-.99-.7s.47-.94,1.17-.94c1.93,0,2.4-.35,2.4-1.4,0-.53-.18-1.4-.53-2.63l-2.28-7.49c-.12-.41-.41-.47-.88-.47h-7.25c-.23,0-.59,.23-.64,.53l-1.4,5.21c-.58,2.28-.88,3.8-.88,4.5,0,1.17,.47,1.4,1.52,1.58,1.58,.23,2.34,.41,2.34,1.29,0,.53-.35,.7-.99,.7-.82,0-2.57-.35-5.09-.35-1.7,0-3.04,.29-3.86,.29-.7,0-1.05-.29-1.05-.76,0-1.23,1.75-.47,2.92-1.35,1.05-.76,1.46-2.22,2.11-4.33l9.3-30.19c.29-.88,.35-1.4,.99-1.4,.82,0,.88,1.11,1.4,2.75Zm-28.07,16.26c1.23,.88,1.75,2.16,2.4,3.69l3.39,8.07c1.35,3.16,1.99,4.91,2.75,5.21,1.29,.53,2.46,.47,2.46,1.35,0,.53-.29,.59-.99,.59-.99,0-2.22-.18-3.57-.18-.88,0-1.7,.18-2.57,.18-1.17,0-1.29-.64-1.81-1.93l-5.27-13.28c-.82-2.05-1.46-2.63-3.28-2.63h-.58c-.47,0-.76,.35-.76,.82v11.52c0,2.28,.06,3.69,2.57,3.69,.94,0,1.29,.29,1.29,.99,0,.47-.47,.82-1.17,.82-.59,0-2.28-.35-5.32-.35s-4.86,.35-5.56,.35c-.82,0-1.23-.35-1.23-.94,0-1.11,1.17-.7,2.28-.99,1.87-.47,1.87-1.05,1.87-3.57v-26.79c0-1.87-.12-2.34-1.29-2.69-1.52-.41-2.75,.12-2.75-1.05,0-.76,.53-.82,1.58-.82,.47,0,1.81,.23,3.86,.23,2.92,0,5.73-.35,8.37-.35,6.26,0,9.59,3.63,9.59,9.07,0,4.68-2.4,8.13-6.26,9.01Zm-7.84-2.11c0,1.23,.7,1.35,2.69,1.35,3.98,0,6.08-2.57,6.08-7.43s-2.05-7.96-5.85-7.96c-2.69,0-2.93,.99-2.93,2.92v11.11Zm-13.89-16.67l-.35,7.72c-.06,1.29-.23,1.64-.82,1.64-1.05,0-.99-1.64-1.7-3.92-1.05-2.52-2.75-2.87-6.32-2.87h-.94c-.47,0-.76,.53-.76,.94v28.66c0,2.46,.06,2.98,1.58,3.51,1.35,.47,2.57-.12,2.57,1.17,0,.47-.41,.82-1.23,.82-1.23,0-3.1-.41-5.56-.41s-4.33,.41-5.56,.41c-.82,0-1.23-.35-1.23-.94,0-1.17,1.29-.64,2.57-1.05,1.52-.47,1.58-.99,1.58-3.51v-28.49c0-.47-.29-1.11-.76-1.11h-1.64c-2.4,0-3.8,.94-5.27,2.81-1.4,2.34-1.93,3.74-2.87,3.74-.41,0-.64-.06-.64-.82,0-.06,.12-.53,.23-.99l1.46-5.97c.41-1.76,.41-2.98,1.17-2.98,.7,0,.64,1.93,1.35,1.99,.41,.41,1.35,.53,2.75,.53,1.11,0,2.52-.06,4.21-.06h7.2c1.93,0,3.45,.12,4.56,.12,.88,0,1.52-.06,1.87-.29,1.05-.64,1.29-2.34,1.87-2.34,.47,0,.64,.7,.64,1.05v.64Zm-52.33,9.94c0-6.03,3.98-10.18,10.35-10.18,3.28,0,6.14,1.11,6.67,1.81,.29,.35,.47,2.52,.47,6.38,0,.82-.29,1.23-.76,1.23-.82,0-.88-1.11-1.7-3.1-1.23-3.1-2.46-4.8-5.21-4.8-3.45,0-5.62,2.34-5.62,6.03,0,3.1,1.76,4.8,5.44,6.73,6.26,3.28,9.77,6.26,9.77,12.87s-4.74,11.88-11.29,11.88c-5.15,0-8.66-1.7-8.66-5.03,0-1.35,.12-2.57,.12-3.69,0-.88-.06-1.4-.06-1.52,0-1.23,.35-1.81,.88-1.81,1.05,0,.76,1.87,1.4,4.1,1.17,3.92,4.04,6.26,7.02,6.26,3.51,0,6.32-2.98,6.32-7.02,0-3.57-2.22-6.32-6.67-8.83-4.74-2.69-8.48-4.45-8.48-11.29Zm-28.2-4.56v20.42c0,7.14,1.4,10.88,7.6,10.88,3.1,0,5.44-1.11,6.84-3.1,1.4-2.11,1.46-4.91,1.46-8.95v-14.16c0-4.45-.06-6.73-1.05-7.55-1.05-.82-3.16,0-3.16-1.29,0-.53,.35-.82,.99-.82,.7,0,1.99,.18,3.98,.18,2.11,0,3.45-.18,4.04-.18,.82,0,1.23,.23,1.23,.82,0,.7-.53,.82-1.7,.82-2.46,0-2.57,1.99-2.57,7.84v14.39c0,4.04-.06,7.08-1.58,9.71-1.64,2.81-4.91,4.39-9.42,4.39-4.97,0-8.31-1.29-10.3-4.21-1.58-2.28-1.7-5.09-1.7-8.66v-20.53c0-1.93-.06-2.34-1.29-2.69-1.52-.47-2.69,.12-2.69-1.05,0-.47,.35-.82,.88-.82,.59,0,2.46,.47,5.79,.47s5.21-.47,5.79-.47,.88,.35,.88,.82c0,1.23-1.35,.64-2.75,1.05-1.17,.35-1.29,.82-1.29,2.69Zm-26.63,5.21c-.12-.35-.23-.53-.35-.53s-.29,.18-.35,.47l-2.75,10.35c-.06,.29-.06,.53-.06,.58,0,.18,.18,.35,.41,.35h5.85c.23,0,.53-.23,.53-.47,0-.18-.06-.35-.12-.59l-3.16-10.18Zm2.87-8.07l8.83,27.85c.82,2.69,1.35,4.27,2.87,5.27,1.11,.76,2.16,.58,2.16,1.29,0,.64-.35,.82-1.23,.82-.99,0-2.57-.35-4.91-.35-3.28,0-5.27,.29-6.03,.29-.7,0-.99-.18-.99-.7s.47-.94,1.17-.94c1.93,0,2.4-.35,2.4-1.4,0-.53-.18-1.4-.53-2.63l-2.28-7.49c-.12-.41-.41-.47-.88-.47h-7.25c-.23,0-.58,.23-.64,.53l-1.4,5.21c-.58,2.28-.88,3.8-.88,4.5,0,1.17,.47,1.4,1.52,1.58,1.58,.23,2.34,.41,2.34,1.29,0,.53-.35,.7-.99,.7-.82,0-2.57-.35-5.09-.35-1.7,0-3.04,.29-3.86,.29-.7,0-1.05-.29-1.05-.76,0-1.23,1.75-.47,2.92-1.35,1.05-.76,1.46-2.22,2.11-4.33l9.3-30.19c.29-.88,.35-1.4,.99-1.4,.82,0,.88,1.11,1.4,2.75Zm-78.41,29.66v-27.2c0-1.23-.23-1.87-1.23-1.87-.88,0-1.52,.53-2.22,.53-.35,0-.64-.35-.64-.88,0-1.52,4.97-2.63,13.81-2.63,11.11,0,18.08,7.84,18.08,19.13s-6.55,18.6-18.19,18.6c-3.04,0-5.56-.59-7.6-.59-1.81,0-3.45,.41-4.91,.41-.82,0-1.23-.35-1.23-.94,0-1.11,1.17-.7,2.28-.99,1.87-.47,1.87-1.05,1.87-3.57Zm5.26-1.7c0,4.04,.7,5.56,4.21,5.56,7.49,0,12.34-6.55,12.34-17.08,0-9.89-4.86-17.02-12.05-17.02-4.04,0-4.5,1.05-4.5,3.33v25.21Zm-28.68-19.89c-.12-.35-.23-.53-.35-.53s-.29,.18-.35,.47l-2.75,10.35c-.06,.29-.06,.53-.06,.58,0,.18,.18,.35,.41,.35h5.85c.23,0,.53-.23,.53-.47,0-.18-.06-.35-.12-.59l-3.16-10.18Zm2.87-8.07l8.83,27.85c.82,2.69,1.35,4.27,2.87,5.27,1.11,.76,2.16,.58,2.16,1.29,0,.64-.35,.82-1.23,.82-.99,0-2.57-.35-4.91-.35-3.28,0-5.27,.29-6.03,.29-.7,0-.99-.18-.99-.7s.47-.94,1.17-.94c1.93,0,2.4-.35,2.4-1.4,0-.53-.18-1.4-.53-2.63l-2.28-7.49c-.12-.41-.41-.47-.88-.47h-7.25c-.23,0-.58,.23-.64,.53l-1.4,5.21c-.58,2.28-.88,3.8-.88,4.5,0,1.17,.47,1.4,1.52,1.58,1.58,.23,2.34,.41,2.34,1.29,0,.53-.35,.7-.99,.7-.82,0-2.57-.35-5.09-.35-1.7,0-3.04,.29-3.86,.29-.7,0-1.05-.29-1.05-.76,0-1.23,1.75-.47,2.92-1.35,1.05-.76,1.46-2.22,2.11-4.33l9.3-30.19c.29-.88,.35-1.4,.99-1.4,.82,0,.88,1.11,1.4,2.75Zm-54.16,19.02l11.92-24.45c.54-1.1,.61-1.79-.28-2.22-.79-.38-1.6-.19-2.23-.5-.32-.15-.42-.6-.19-1.07,.67-1.37,5.62-.19,13.56,3.69,9.99,4.87,12.81,14.97,7.86,25.12-5,10.25-14.04,13.85-24.51,8.74-2.73-1.33-4.74-2.96-6.58-3.86-1.63-.8-3.28-1.15-4.6-1.79-.74-.36-.95-.85-.69-1.38,.49-1,1.36-.12,2.49,.11,1.89,.4,2.14-.13,3.25-2.39Zm5.48,.78c-1.77,3.63-1.81,5.3,1.35,6.84,6.73,3.28,13.97-.48,18.58-9.94,4.33-8.89,3.1-17.43-3.37-20.58-3.63-1.77-4.51-1.03-5.51,1.02l-11.05,22.66Zm-3.01-36.43l-22.72,14.2c-2.08,1.3-2.55,1.66-2.14,3.2,.37,1.36,1.46,2.12,.37,2.8-.4,.25-.91,.09-1.35-.61-.37-.6-1.04-2.32-2.65-4.9-1.61-2.58-2.87-3.93-3.24-4.53-.43-.69-.35-1.23,.14-1.54,.94-.59,1.22,.62,2.05,1.41,1.39,1.34,1.88,1.03,4.02-.3l22.72-14.2c1.59-.99,1.92-1.34,1.6-2.52-.46-1.51-1.56-2.27-.56-2.89,.4-.25,.85-.19,1.16,.31,.31,.5,.91,2.33,2.67,5.16,1.77,2.83,3.12,4.12,3.47,4.66,.28,.45,.17,.93-.23,1.18-.89,.56-1.15-.52-2.18-1.61-1.02-1.09-1.55-.82-3.14,.17Zm-12.28-28.89c5.91-1.15,10.75,1.96,11.97,8.22,.63,3.22,.08,6.24-.51,6.89-.29,.35-2.38,.94-6.17,1.68-.8,.16-1.26-.05-1.35-.51-.16-.8,.92-1.07,2.72-2.26,2.81-1.8,4.24-3.33,3.72-6.03-.66-3.39-3.37-5.07-6.99-4.36-3.04,.59-4.37,2.64-5.57,6.62-2.02,6.77-4.28,10.78-10.77,12.05-6.72,1.31-12.56-2.39-13.81-8.82-.98-5.05,.01-8.82,3.29-9.46,1.32-.26,2.55-.38,3.64-.59,.86-.17,1.37-.33,1.48-.35,1.21-.23,1.85,0,1.95,.52,.2,1.03-1.69,1.1-3.75,2.16-3.62,1.9-5.37,5.16-4.81,8.09,.67,3.45,4.13,5.63,8.1,4.86,3.5-.68,5.78-3.39,7.4-8.23,1.74-5.16,2.75-9.17,9.46-10.48Zm-7.44-15.22c-.88,1.23-2.16,1.76-3.69,2.4l-8.07,3.39c-3.16,1.35-4.91,1.99-5.21,2.75-.53,1.29-.47,2.46-1.35,2.46-.53,0-.58-.29-.58-.99,0-.99,.18-2.22,.18-3.57,0-.88-.18-1.7-.18-2.57,0-1.17,.64-1.29,1.93-1.81l13.28-5.27c2.05-.82,2.63-1.46,2.63-3.28v-.58c0-.47-.35-.76-.82-.76h-11.52c-2.28,0-3.69,.06-3.69,2.57,0,.94-.29,1.29-.99,1.29-.47,0-.82-.47-.82-1.17,0-.58,.35-2.28,.35-5.32s-.35-4.86-.35-5.56c0-.82,.35-1.23,.94-1.23,1.11,0,.7,1.17,.99,2.28,.47,1.87,1.05,1.87,3.57,1.87h26.79c1.87,0,2.34-.12,2.69-1.29,.41-1.52-.12-2.75,1.05-2.75,.76,0,.82,.53,.82,1.58,0,.47-.23,1.81-.23,3.86,0,2.92,.35,5.73,.35,8.37,0,6.26-3.63,9.59-9.07,9.59-4.68,0-8.13-2.4-9.01-6.26Zm2.11-7.84c-1.23,0-1.35,.7-1.35,2.69,0,3.98,2.57,6.08,7.43,6.08s7.96-2.05,7.96-5.85c0-2.69-.99-2.92-2.92-2.92h-11.11Zm13.87-16.3h-5.03c-.99,0-1.46-.12-1.46-.64,0-1.05,2.46-.76,4.39-2.87,1.46-1.58,2.22-3.92,2.22-7.14s-.82-3.28-3.57-3.28h-9.65c-.99,0-1.17,0-1.17,1.05v2.63c0,2.4,.53,4.39,1.05,4.91,1.52,1.58,3.57,.82,3.57,2.05,0,.53-.23,.7-.82,.7-1.46,0-3.45-.29-5.79-.29-2.75,0-4.45,.18-4.97,.18-.7,0-1.05-.29-1.05-.7,0-.99,1.81-.76,4.09-1.99,1.75-.94,1.93-2.46,1.93-4.91v-2.57c0-.82-.23-1.05-1.05-1.05h-12.05c-3.22,0-3.74,.76-3.74,4.21,0,3.63,.47,5.56,3.33,7.37,2.16,1.4,4.04,1.87,4.04,2.81,0,.23-.35,.58-.53,.58,0,0-.41-.06-1.05-.12l-5.67-.64c-1.81-.18-2.05-.12-2.05-1.81,0-2.4,.47-7.43,.47-14.92,0-3.45-.29-5.26-.29-5.73,0-.88,.29-1.29,.94-1.29,1.05,0,.7,1.05,.94,2.52,.23,1.7,1.35,1.75,3.63,1.75h26.79c1.75,0,2.34,0,2.69-1.11,.41-1.29-.12-2.52,1.05-2.52,.53,0,.82,.35,.82,.99,0,.47-.23,3.33-.23,8.72,0,6.84,.23,10.71,.23,11.47,0,1.58-.53,1.64-1.75,1.64h-.23Zm-2.98-29.75l-31.3-10.24c-.7-.23-1.05-.47-1.05-.76,0-.53,1.23-.76,2.69-1.29l27.38-9.42c2.92-.99,4.74-1.52,5.32-2.69,.41-.82,.06-2.34,.94-2.34,.53,0,.88,.29,.88,.94,0,.35-.35,2.69-.35,7.31,0,1.81,.29,3.16,.29,3.8,0,.59-.18,.82-.7,.82-1.64,0-.18-2.98-2.52-2.98-.58,0-1.4,.18-2.46,.53l-18.78,6.49c-.88,.29-1.29,.47-1.29,.7s.47,.47,1.29,.7l17.08,5.03c1.81,.53,3.1,.76,3.8,.76,2.98,0,1.29-3.45,2.98-3.45,.47,0,.82,.41,.82,1.11,0,.58-.35,1.93-.35,4.09,0,2.4,.23,3.74,.23,4.04,0,.76-.23,1.11-.76,1.11-1.17,0-.58-1.4-1.05-2.34-.47-.94-1.52-1.4-3.1-1.93Zm.41-33.36h-26.79c-2.46,0-3.04,.06-3.51,1.58-.41,1.35,.12,2.57-1.17,2.57-.47,0-.82-.41-.82-1.23,0-.7,.35-2.52,.35-5.56s-.35-4.86-.35-5.56c0-.82,.35-1.23,.94-1.23,1.11,0,.7,1.17,.99,2.28,.47,1.87,1.05,1.87,3.57,1.87h26.79c1.87,0,2.34-.12,2.69-1.29,.41-1.52-.12-2.75,1.05-2.75,.47,0,.82,.29,.82,.88s-.47,2.46-.47,5.79,.47,5.15,.47,5.79c0,.53-.35,.88-.82,.88-1.05,0-.7-1.05-.99-2.52-.29-1.46-.88-1.52-2.75-1.52Zm4.57-45.26v7.49c0,.53-.06,.64-.58,.99l-25.45,15.68c-.06,.23,.23,.35,.58,.35h16.03c1.64,0,2.63-.06,2.98-.06,4.21,0,4.74-.18,4.74-3.39,0-.58,.35-1.05,.82-1.05,.53,0,.88,.58,.88,1.52,0,1.05-.18,2.34-.18,4.04s.18,2.81,.18,3.63-.35,1.29-.88,1.29c-.64,0-.76-.23-.76-.99v-.58c0-2.05-1.87-2.22-6.14-2.22h-29.19c-.76,0-1.46-.41-1.46-.88,0-.41,.35-.76,.94-1.11l31.36-19.25c.06-.23-.23-.35-.58-.35h-22.76c-4.39,0-5.67,.23-5.67,2.57,0,.35,.06,.7,.06,1.05,0,.47-.35,.82-.94,.82-.53,0-.88-.53-.88-1.52,0-1.05,.23-2.4,.23-4.04,0-1.46-.23-2.69-.23-3.74,0-.94,.35-1.4,.88-1.4,.64,0,.94,.29,.94,1.11v.53c0,2.4,1.64,2.57,6.2,2.57h24.34c1.75,0,2.34-.06,2.69-1.17,.41-1.4-.06-2.69,1.05-2.69,.53,0,.82,.29,.82,.82Zm-4.56-27.55h-20.42c-7.14,0-10.88,1.4-10.88,7.61,0,3.1,1.11,5.44,3.1,6.84,2.11,1.4,4.91,1.46,8.95,1.46h14.16c4.45,0,6.73-.06,7.55-1.05,.82-1.05,0-3.16,1.29-3.16,.53,0,.82,.35,.82,.99,0,.7-.18,1.99-.18,3.98,0,2.11,.18,3.45,.18,4.04,0,.82-.23,1.23-.82,1.23-.7,0-.82-.53-.82-1.7,0-2.46-1.99-2.57-7.84-2.57h-14.39c-4.04,0-7.08-.06-9.71-1.58-2.81-1.64-4.39-4.91-4.39-9.42,0-4.97,1.29-8.31,4.21-10.3,2.28-1.58,5.09-1.7,8.66-1.7h20.53c1.93,0,2.34-.06,2.69-1.29,.47-1.52-.12-2.69,1.05-2.69,.47,0,.82,.35,.82,.88,0,.59-.47,2.46-.47,5.79s.47,5.21,.47,5.79-.35,.88-.82,.88c-1.23,0-.64-1.35-1.05-2.75-.35-1.17-.82-1.29-2.69-1.29Zm239.4,2.43c-3.01,10.76,5.73,.22,9.05,.16-1.49-2.93-7.35-1.13-9.05-.16Zm111.58,48.41c2.69,2.93-7.95-18.06-14.14-19.59-17.47-4.34-20.63,15.25-20.2,29.43,.13,4.19-3.24,6.44-5.79,6.87-9.02,1.5-16.21,8.99,2.76,1.68,9.35,0,1.56-4.49,5.39-13.06,2.83-6.33,17.2-12.89,17.2-12.82,0,.07,9.81,2.08,14.78,7.49Zm-84.39-26.47c1.93,7.95-10.33,7.27-9.13,16.01,1.13,8.25,17.29,12.44,14.65,20.34-.43,1.29-21.16-.35-13.95,4.95,7.73-3.22,16.76-.86,18.09,.55,.99-.59,2-.87,2-2.06,0-3.55-3.89-9.18-7.81-13.55-3.52-3.93,3.5-12.2,9.46-16.79,6.29-4.46-9.61-19.55-13.31-9.45Zm-25.72,6.64c-1.98,1.02-1.47,10,8.45-1.59,1.23-1.44,2.49-1.78,4.36-2.18,3.88-.84,8.28-7.72,4.4-11.89-.28-.44-3.13-1.57-3.01-1.29,.05,.11-2.59-3.46-3.38-4.66l-.79,.2c4.94,3.8-.32,11.67-2.9,5.52-.38-.91-2.76,7.33-3.65,6.98l-5.93,5.53c5.07-.38,4.11,2.52,2.46,3.37Zm110.46,37.66c1.57-3.94,1.35-6.62,1.35-6.62-.01,0-2.34,5.32-5.33,8.39-2.97,3.05-4.95,2.36-6.78,2.39-.99-1.27-1.93-2.49-5-1.93-3.37,.61-5.01,1.51-7.55,3.96,0,0,5.72-4.83,8.94-2.01,.54,.47,.66,.89,1.34,1.2,.09,.21,.27,.51,.53,.92,4.72,.5,10.22-1.45,12.52-6.29Zm-108.61-32.08c-1.61,.76-3.47,1.13-5.42,1.13-6.47,0-11.71-4.5-11.71-10.06,0-.65,2.89-1.49,3.03-2.11l2.84-11.19s-.09-1.76,.07-3.05c.16-1.28,.68-2,.68-2-12-4.73-5.92-17.51-4.5-19.48,1.28-1.78-.19,8.33,4.14,9.84,2.51,.88,4.24,.8,5.39,.75,0,0,5.12-2.07,8.81-1.83,3.68,.24,8.06,3.65,8.43,3.17,11.51,.9,9.55-11.18,11.5-11.77,1.07-.32,4.19,14.18-.43,16.06l17.69,8.73s17.58,2,36.67,8.38c5.75,1.92,14.78-.69,19.4,2.15,3.88,2.37,11.17,10.74,11.17,10.74,4.55,5.28,8.35,20.03,6.64,28.26-3.31,15.86-16.1,16.38-18.57,16.37-2.16,3.59-5.06,2.44-10.21,1.87-8.79-.27-15.3,0-25.07-.04-5.02,0-2.08-5.41-3.55-5.41h-55.8c-3.9,0-1.98-3.47-.99-7.01,1.05-3.75,.1-5.87,3.7-7.36,2.59-1.07,1.25-.88,2.45-3.58,.83-1.86,1.34-3.26-.64-7.09-1.98-3.83-3.39-4.83-3.71-6.92-.56-3.61,.27-9.96-1.93-8.6l-.07,.02Zm-16.14,70.99c-3.01,10.76,5.73,.22,9.04,.16-1.49-2.93-7.34-1.13-9.04-.16Zm112.51,46.8c2.69,2.93-7.95-18.06-14.14-19.59-17.47-4.34-20.63,15.25-20.21,29.43,.13,4.19-3.24,6.44-5.79,6.87-9.02,1.5-16.21,8.99,2.76,1.68,9.35,0,1.56-4.49,5.39-13.06,2.83-6.33,17.2-12.89,17.2-12.82s9.81,2.08,14.78,7.49Zm-84.39-26.47c1.93,7.95-10.33,7.27-9.13,16.01,1.13,8.25,17.29,12.44,14.65,20.34-.43,1.29-21.16-.35-13.95,4.95,7.73-3.22,16.76-.86,18.09,.55,.99-.59,2-.87,2-2.06,0-3.55-3.89-9.18-7.81-13.55-3.52-3.93,3.5-12.2,9.46-16.79,6.29-4.46-9.61-19.55-13.31-9.45Zm-26.25,7.83c-1.98,1.02-1.47,10,8.44-1.59,1.23-1.44,2.49-1.78,4.36-2.18,3.88-.84,8.28-7.72,4.4-11.89-.28-.44-3.13-1.57-3.01-1.29,.05,.11-2.59-3.46-3.38-4.66l-.79,.2c4.94,3.8-.32,11.67-2.9,5.52-.38-.91-2.76,7.33-3.65,6.98l-5.93,5.53c5.07-.38,4.11,2.52,2.46,3.37Zm110.45,37.66c1.57-3.94,1.35-6.62,1.35-6.62-.01,0-2.34,5.32-5.33,8.39-2.97,3.05-4.95,2.36-6.78,2.39-.99-1.27-1.93-2.49-5-1.93-3.37,.61-5.01,1.51-7.55,3.96,0,0,5.72-4.83,8.94-2.01,.54,.47,.66,.89,1.34,1.2,.09,.21,.27,.51,.53,.92,4.72,.5,10.22-1.45,12.52-6.29Zm-108.61-32.08c-1.61,.76-3.47,1.13-5.42,1.13-6.47,0-11.71-4.5-11.71-10.06,0-.65,2.89-1.49,3.03-2.11l2.84-11.19s-.09-1.76,.07-3.05c.16-1.28,.68-2,.68-2-11.99-4.73-5.92-17.51-4.5-19.48,1.28-1.78-.19,8.33,4.14,9.84,2.51,.88,4.24,.8,5.39,.75,0,0,5.12-2.07,8.81-1.83,3.68,.24,8.06,3.65,8.43,3.17,11.51,.9,9.55-11.18,11.5-11.77,1.07-.32,4.19,14.18-.43,16.06l17.69,8.73s17.58,2,36.67,8.38c5.75,1.92,14.78-.69,19.4,2.15,3.88,2.37,11.17,10.74,11.17,10.74,4.55,5.28,8.35,20.03,6.64,28.26-3.31,15.86-16.1,16.38-18.57,16.37-2.16,3.59-5.06,2.44-10.21,1.87-7.16-.2-15.3,0-25.07-.04-5.02,0-2.08-5.41-3.55-5.41h-55.8c-3.9,0-1.98-3.47-.99-7.01,1.05-3.75,.1-5.87,3.7-7.36,2.59-1.07,1.25-.88,2.45-3.58,.83-1.86,1.34-3.26-.64-7.09-1.98-3.83-3.39-4.83-3.71-6.92-.56-3.61,.27-9.96-1.93-8.6l-.07,.02Zm-125.03-283.8h11.7c.87,0,1.58,.71,1.58,1.58v11.7c0,.87-.71,1.58-1.58,1.58l-1.54-2.44h-9.07s0-8.95,0-8.95l-2.66-1.88c0-.87,.71-1.58,1.58-1.58Zm-27.15,15.59l-4.12-1.4h-2.32v-5.47l-1.82-3.89c0-.5,.27-.93,.61-.97l7.64-2.4c.34-.04,.61,.32,.61,.82v12.34c0,.5-.27,.93-.61,.97Zm291.59,277.34v-168.39h-171.46v219.96h119.89c28.48,0,51.57-23.09,51.57-51.57Zm0-175.08V191.1h-171.46v204.71c7.86-2.68,34.51-7.32,57.22-9.43,5.83-8.62,11.61-20.14,8.19-34.44-2.86,.02-2.08,2.07-5.04,2.07-2.97,0-1.11,.61-4.08,.62-1.48,0-1.93,.04-2.38,0-.44-.04-.87-.17-2.32-.5-2.89-.65-1.21-3.2-4.1-3.86-2.89-.65-.96-.45-3.39-2.14-2.43-1.7-2.78,.97-5.21-.73-1.2-.84-1.59-1.09-1.86-1.42-.28-.34-.45-.78-1.28-2.03-1.64-2.47-2.69-.3-4.32-2.77-1.64-2.47-2.29-2.04-2.87-4.95-.58-2.91-.31-5.78-.89-8.69-.58-2.91,.85-2.34,1.35-5.26,.5-2.92-1.03-1.45-.53-4.38,.5-2.92,2.7-.71,4.14-3.31,1.44-2.59-1.63-2.17-.19-4.77,1.44-2.59,2.93,.68,5.12-1.31s-1.38-3.13,.82-5.12c2.2-1.99,4.9-12.01,3.99-14.83-.91-2.82,1.07-2.02,1.6-4.94,.53-2.92,2.6-1.06,3.13-3.98,.53-2.92-2.21-2.15-.69-4.7,1.52-2.55,3.73,.65,5.25-1.9,1.52-2.55-.89-1.46,1.41-3.34,2.3-1.88,1.35-.46,3.65-2.34,2.3-1.88-.61-3.23,2.19-4.19,2.72-.94,1.06-1.56,3.52-2.48-.91-3.1-.19-.76-1.02-3.61-.83-2.85,2.85-1.37,2.02-4.22-.83-2.85-.44-.41-1.27-3.26-.83-2.85-2-1.31-1.41-4.22,.59-2.91,4.23-4.81,5.88-7.27,1.66-2.46,2.6-6.06-.93-6.77,1.66-2.46,.97-2.76,3.43-4.42,2.46-1.66,3.91,2.59,6.37,.93,2.46-1.66,.05-5.1,2.95-5.69,2.91-.59,2.73,3.56,5.63,2.97,2.91-.59,1.28-.28,4.18,.31,2.91,.59,1.75,1.27,4.66,1.85,2.91,.59,2.76-2.92,5.22-1.26,2.46,1.66,1.84,.48,4.3,2.14,2.46,1.66-.9,3.08,.76,5.54,1.66,2.46,1.16,1.39,2.81,3.85,1.66,2.46,4.36,.02,4.95,2.93,.59,2.91-1.14,2.24-.55,5.14,.59,2.91,1.71,1.43,.88,4.27-.83,2.85,.18,.59-.65,3.44-.83,2.85,.55,7.39,3.36,8.36,2.8,.97,1.07,1.72,3.36,3.6,2.3,1.88,1.22,.62,3.52,2.5,2.3,1.88-.95,2.26,.57,4.81,1.52,2.55,2.57,.05,4.09,2.59,1.52,2.55-1.85,1.7-1.32,4.62,.53,2.92,3.6,.88,4.14,3.8,.53,2.92,.78,1.52-.12,4.35-.91,2.82-1.8,.31-2.71,3.13-.91,2.82-.43,.75-1.34,3.57-.87,2.72,1.39,1.5,.76,3.91,.35-.2,.86-.25,1.55,.05,2.72,1.17-.77,4.67,1.95,5.84,2.72,1.17,2.39-1.98,4.59,.01,2.2,1.99,1.32,.15,3.52,2.14,2.2,1.99,.26,1.56,1.7,4.15,1.44,2.59,1.45,.46,2.89,3.06,1.44,2.59,1.54,1.26,2.05,4.19,.5,2.92-1.24,1.49-.74,4.41,.5,2.92,2.8,2.08,2.24,4.99-.56,2.91-4.44,4.83-5,7.74-.56,2.91,1.34,2.01-.25,4.52-1.59,2.5-2.13,.52-3.72,3.02-1.59,2.5-.8,.42-3.18,2.19-2.38,1.77,.05,2.69-2.33,4.46-2.38,1.77-1.22,.95-4.08,1.73-2.86,.78-2.12-1.35-4.98-.57-2.86,.78-.74,4.32-3.7,4.33-2.97,0-1.11-1.77-4.08-1.76-2.97,0-1.11,1.07-4.08,1.08-2.97,0-1.11-.9-4.08-.9-2.97,0,.27-1.94-2.7-1.94-.61,0-1.5,.46-1.79,.68-2.93,13.71,1.93,25.22,7.45,33.77,27.43,1.53,43.86,4.89,63.26,10.03Zm-175.86-204.72h-168.35l-.03,205.2c7.04-2.66,27.37-6.44,27.37-6.44l7.93-75.61c-.78-.42-1.95-1.6-1.85-2.87,.11-1.33,2.44-2.39,2.44-2.39l5.36-49.57c0-.35,.45-.58,.46-.59,1.14-.34,8.54-1.99,8.81-1.94,1.77,.24,2.88,.53,3.94,.7,.63,.13,.75,.31,.81,.67,.01,.06,1.26,7.26,1.28,7.17,1.89-.27,3.6-.47,5.03-.67,.07-.4,.82-9.4,1.32-9.87,.22-.29,.65-.2,4.89-.54,.04-.97,.06-45.58,.04-46.77-1.55-.29-2.04-1.59-2.08-2.46-.04-.73,.64-2.58,2.56-2.58,.29,.01,1.08,.11,1.63,.62-.74-.51-2.58-.23-2.64,1.6-.02,.52,.62,1.78,1.8,1.78,1.01,0,1.62-.77,1.73-1.32-.06,1.37-1.12,2.09-1.73,2.28,.09,.79,2.17,46.28,2.18,46.56,2.15-.14,5.29-.41,5.76-.38,.6,.04,2.26,.76,2.94,.91,.36,2.05,.68,4.52,1.07,6.43,.92-.15,7.14-.67,8.62-.69,.26-2,.59-5.07,.75-6.16,.08-.44,.44-.5,.72-.5,.67,0,12.57,.95,13.22,1.04,.47,.03,.6,.29,.67,.83,.16,1.35,.34,3.95,.59,5.43,1.42,.18,7.72,.89,7.7,.88-.03-.01,.42-3.43,.6-4.34,.39-.11,1.54-.56,2.46-.73,2.86,.62,6.03,1.38,8.21,1.9,.19,.08,2.99,.75,3.04,1.08,0,0-1.97,3.86-1.23,9.8l5.05,40.37c.01,.05,2.17,.73,2.32,2.3,.07,.77-.89,2.09-2,2.59l9.5,75.41s20.22,4.21,27.12,5.7V191.1Zm180.28,379.81c0,30.92-25.06,55.98-55.98,55.98h-241.13c-30.92,0-55.98-25.06-55.98-55.98l.06-384.21h353.02v384.21Zm-294.97-305.29l1.71,.12-1.22-6.56-1.42-.33,.93,6.77Zm26.36-1.92l-1.2-8-1.42-.38,.93,8.33,1.69,.05Zm-28.91-4.81c-2.78,1.27-3.58,2.18-4.64,3.77-1.52,2.27-2.03,14.32-2.13,16.74-.12,2.77,.06,1.76-.2,4.48-.26,2.72-.48,5.68-.73,8.4-.26,2.72,.63,.2,.37,2.92-.26,2.72-.66,1.23-.92,3.95-.26,2.72,1.53,.91,1.27,3.63-.15,1.63,1.58,1.97,1.03,3.6,0,1.39,2.35,.84,3.45,1.01,9.81-1.18,23.5-2.14,39.53-1.82,14.76,.06,33.31,1.9,39.47,3.18-.44-6.31-1.49-13.98-1.49-13.98l-4.94-2.14-.66-11.65c0-.87,.72-1.46,1.6-1.31l3.01,.86c-.2-5.58-1.56-18.77-1.9-19.96-1.79-.4-5.64-1.44-6.88-1.67-.1,.53-.8,5.73-1.16,8.55-.05,.37-.28,.62-.81,.54-2.47-.43-6.86-1.13-9.5-1.5-.44-.11-.91-.3-.97-.66-.18-1.46-.72-8.84-.83-8.9-.11-.07-6.82-.77-10.69-1.07-.15,1.72-.81,6.18-1.11,8.54-.06,.42-.8,.85-1.25,.85-3.6,.16-12.13,.26-13.32,.26-.55-7.77-7.18-9.42-8.88-9.33-.87,.05-1.92,.08-3.25,.19-.16,1.46-.85,8.22-1.01,9.43-.04,.27-.25,.49-.59,.56-.31,.06-8.76,.48-10.48,.73-.18-.02-.63-4.8-1.38-8.21Zm34.39,128.39c-2.08-33.44,33.55-32.94,31.71,.73,0,0,16.21,2.08,16.81,1.91,1.31-.38,1.46-1.9,1.28-3.24-.11-.83-1.16-14.54-1.12-15.19,.11-1.82-6.33-59.03-6.33-59.03-7.3-2.18-28.25-2.82-41.29-2.96-.34,.06-.73,.09-1.19,.1-8.51,.1-29.24,1.1-39.65,2.69,0,0-2.25,1.44-2.46,4.93-.1,1.18-1.99,3.1-2.22,5.82-.23,2.72,.91,3.57,.68,6.29-.23,2.72,.65-.15,.42,2.57-.23,2.72-1.22,6.22,1.33,7.18,1.59,.6,2.83,2.89-.89,3.35-.65,.23-1.14,.06-1.16,.55-.13,2.73,1.37,3.1,1.24,5.83-.13,2.73-1.06,1.06-1.2,3.78-.05,1.02,1.21,5.28-.25,5.83-.25,.47-.13,3.05-.13,3.55-.01,.83,3.19,4.63,2.74,5.72-.64,1.53,1.1,3.09,1.99,2.75,1.32-.5,7.35,2.79-.39,3.71-.84,.35-1.24,.85-.95,1.56,1.01,2.54,2.06-.06,3.97,1.9,1.91,1.96-.36,3.08,1.54,5.03,1.91,1.96,2.84-.37,5.41,.56,2.57,.92,1.87,3.55,4.44,4.48,.98,.35,25.54-.6,25.67-.42Zm207.98-86.63c-.69-.3-1.2-.25-1.55-.05,.64-2.42-1.63-1.2-.76-3.91,.91-2.82,.43-.75,1.34-3.57,.91-2.82,1.8-.31,2.71-3.13,.91-2.82,.66-1.43,.12-4.35-.53-2.92-3.6-.88-4.14-3.8-.53-2.92,2.84-2.08,1.32-4.62-1.52-2.55-2.57-.05-4.09-2.59-1.52-2.55,1.73-2.93-.57-4.81-2.3-1.88-1.22-.62-3.52-2.5-2.3-1.88-.56-2.63-3.36-3.6-2.8-.97-4.19-5.52-3.36-8.36,.83-2.85-.18-.59,.65-3.44,.83-2.85-.3-1.37-.88-4.27-.59-2.91,1.13-2.24,.55-5.14-.59-2.91-3.29-.47-4.95-2.93-1.66-2.46-1.16-1.39-2.81-3.85-1.66-2.46,1.7-3.88-.76-5.54-2.46-1.66-3.13,5.14-5.59,3.48-2.46-1.66-5.46-1.26-5.5-.6-.2,2.96-4.62-2.7-4.83,.26-.2,2.96-1.25,.62-1.58,3.56-.33,2.95-2.91,.64-3.25,3.58-.33,2.95-3.36,3.82-3.69,6.76-.33,2.95-.29,3.04-.63,5.98-.33,2.95,2.27,.99,3.98,3.41,1.71,2.42-4.5,2.54-2.79,4.96,1.71,2.42,2.38,1.56,4.09,3.98,1.71,2.42-9.66,5.18-2.49,10.36,2.4,1.74-4.36,6.82-7.97-.4-1.59-3.19-8.37,4.78-3.98,8.76,2.19,2,3.19,3.19-6.77,6.37-2.83,.9,2.39,7.97-5.18,9.56,0,0-3.19,7.97,3.19,6.37,7.17-2.79,3.61,.63,5.12,3.19,1.5,2.56-1.11,4.21,.4,6.77,1.5,2.56-6.28,2.22-4.78,4.78,1.5,2.56,5.59,5.38,3.58,7.57-7.37,8.06,4.87,5.41,6.37,7.97,1.5,2.56,8.41,3.19,4.83,9.16-1.53,2.54,11.16,.07,12.35,2.79,1.19,2.72,7.18-3.91,8.36-1.19,1.19,2.72,8.77-5.31,9.96-2.59,1.19,2.72,8.17-2.12,9.36,.6,1.19,2.72,3.99-.13,5.18,2.59,1.19,2.72,6.38-6.3,7.57-3.58,1.19,2.72,5.38-.8,10.95-6.77,1.63-1.75,2.26-8.01,4.58-6.77,.56-2.91-2.35-5.19-2.85-8.11-.5-2.92,3.25-.02,2.75-2.94-.5-2.92-.6-1.6-2.05-4.19-1.44-2.59-1.45-.46-2.89-3.06-1.44-2.59,.5-2.16-1.7-4.15-2.2-1.99-1.32-.15-3.52-2.14-2.2-1.99-1.86,1.16-4.59-.01-2.72-1.17,.77-4.67-1.95-5.84Zm-46.25,85.12l28.79,.1c-1.68-5.87-8.18-14.68-6.96-27.42-1.32-1.32-1.04,.71-2.11,1.14-.57-.29-2.35-1.2-2.72-1.2-.33,0-.71,1.84-1.46,1.51-.83-.37-1.43-2.27-1.46-2.37-.01-.03-1.52-.07-3.03,.11-.18,4.33-3.17,.62-2.97,1.54-2.68,.26-3.09-.8-3.31-.79-.43,.02-1.5,19.52-4.78,27.38Zm176.44,229.36c-.02,41.31-47.2,81.1-89.61,81.12h-136.54c-.72-.05-20.37-1.05-24.37,13.94l-3.34,12.53-3.46-12.49c-4.19-15.1-22.29-14.02-22.8-13.98h-132.47c-42.55,.03-91.58-39.9-91.02-81.18V113.71s503.6,0,503.6,0v501.41Zm-7.05,0V120.76h-489.5v494.36c-.49,36.36,44.27,74.1,83.97,74.07h132.22c9.75-.57,20.83,3.3,26.45,11.66,5.94-8.62,17.93-12.22,27.99-11.66h136.31c39.35-.01,82.54-37.43,82.56-74.07Z" style="fill-rule: evenodd;"/>
        </g>
      </g>
    </g>
  </g>
</svg>