<?xml version="1.0" encoding="UTF-8"?>
<svg id="Layer_2" data-name="Layer 2" xmlns="http://www.w3.org/2000/svg" viewBox="0 0 2047 1696.59">
  <g id="Logos-Acustica">
    <g id="Logo-Acustica-Oficial-Blanco">
      <rect width="2047" height="1696.59" style="fill: none;"/>
      <g>
        <path d="M1463.83,269.74c17.87,41,32.91,83.07,46.49,125.66,12.1,37.94,21.54,76.56,28.43,115.8,3.85,21.89,7.17,43.86,9.04,66,1.66,19.63,3.21,39.29,4.04,58.97,.96,22.96,.76,45.95-.18,68.93-.85,20.83-2.37,41.61-4.56,62.34-2.73,25.73-6.56,51.28-11.48,76.68-8.77,45.29-20.81,89.69-36.24,133.18-12.42,35.02-25.45,69.81-40.29,103.89-10.38,23.86-21.73,47.22-35.74,69.2-3.43,5.39-7.1,10.62-10.88,16.24,2.77,1.58,5.46,3.11,8.76,5,.64-.89,1.01-1.58,1.53-2.11,24.49-24.96,45.28-52.77,63.5-82.54,19.46-31.77,35.6-65.2,49.65-99.68,18.48-45.35,32.35-92.07,41.97-140.07,4.89-24.38,8.64-48.93,11.38-73.64,2.49-22.48,4.21-45.01,4.83-67.61,.79-28.76,.81-57.52-1.15-86.25-1.19-17.41-2.34-34.83-4.11-52.19-2.9-28.36-7.41-56.49-13.3-84.39-9.41-44.56-22.48-88.01-39.94-130.1-27.53-66.34-64.8-126.62-112.2-180.61-.8-.92-1.67-1.78-2.63-2.79-2.91,2-5.56,3.83-8.36,5.76,3.43,5.07,6.73,9.77,9.86,14.6,16.36,25.26,29.58,52.19,41.58,79.72Z" style="fill: #fff;"/>
        <path d="M454.64,577.49c-2.41,24.38-3.83,48.82-4.4,73.3-.75,32.41-.05,64.79,2.58,97.13,1.95,23.92,4.79,47.72,8.69,71.38,5.31,32.23,12.48,64.05,21.76,95.38,16.07,54.24,37.43,106.28,65.28,155.58,17.91,31.7,38.64,61.42,63.21,88.38,3.78,4.15,7.72,8.16,11.7,12.36,3.02-1.73,5.68-3.25,8.47-4.85-.56-.9-.86-1.44-1.22-1.93-9.94-13.63-18.44-28.14-26.26-43.06-11.56-22.04-21.47-44.84-30.67-67.93-16.31-40.93-31.88-82.12-44.3-124.44-11.51-39.19-20.58-78.94-26.53-119.34-3.07-20.85-5.53-41.81-7.5-62.8-1.61-17.11-2.39-34.32-2.99-51.51-.83-23.85-.58-47.73,.64-71.57,1.23-24.08,3.34-48.08,6.48-72,3.98-30.39,9.49-60.49,16.5-90.33,7.64-32.53,17.28-64.47,28.14-96.06,13.72-39.9,28.55-79.37,46.62-117.54,11.36-23.98,23.89-47.3,39.33-68.95,.56-.79,1.07-1.62,1.78-2.7-2.84-1.97-5.49-3.81-8.35-5.79-1.08,1.14-1.88,1.93-2.62,2.77-25.54,29.18-48.38,60.34-68.34,93.59-27.14,45.2-48.36,93.06-64.32,143.28-17.37,54.65-28.03,110.65-33.67,167.65Z" style="fill: #fff;"/>
        <path d="M1557.35,321.57c10.08,22.21,18.49,45.04,25.94,68.25,18.74,58.33,33.3,117.58,40.01,178.61,2.28,20.73,4.04,41.49,4.82,62.31,1,26.49,.92,52.98-.36,79.47-1.05,21.71-2.77,43.35-5.31,64.93-3.51,29.82-8.58,59.37-15.19,88.65-15.01,66.45-37.99,130.03-68.63,190.86-.44,.87-.8,1.79-1.28,2.87,1.38,1.06,2.64,2.03,4.53,3.49,.6-.91,.89-1.49,1.32-1.96,22.17-24.34,41.33-50.84,57.46-79.55,16.92-30.11,30.22-61.76,40.48-94.71,13.31-42.71,21.36-86.45,25.74-130.93,2.5-25.39,3.8-50.84,4.07-76.35,.39-37.09-1.52-74.06-6.38-110.86-3.22-24.42-7.65-48.61-13.76-72.47-13.18-51.5-33-100.35-59.12-146.62-12.64-22.38-27.32-43.34-45.02-62.08-1.62-1.71-3.32-3.35-5.16-5.18-1.5,1.15-2.77,2.12-4.22,3.23,.69,1.19,1.29,2.28,1.93,3.33,6.76,11.19,12.73,22.8,18.13,34.7Z" style="fill: #fff;"/>
        <path d="M376.34,738.51c1.93,24.79,5.03,49.45,9.49,73.93,6.99,38.4,17.22,75.87,31.84,112.09,18.34,45.43,42.91,87.12,74.94,124.29,3.35,3.89,6.82,7.67,10.34,11.62,1.6-1.27,2.94-2.33,4.28-3.39-.71-1.45-1.25-2.58-1.81-3.7-12.67-25.13-24.03-50.85-34.09-77.13-25.49-66.59-41.8-135.42-49.86-206.22-2.78-24.34-4.7-48.77-5.18-73.25-.44-22.09-.12-44.21,.36-66.31,.49-22.48,2.6-44.87,5.27-67.2,2.56-21.45,5.89-42.78,10.25-63.93,9.55-46.28,22.38-91.66,38.32-136.15,8.99-25.09,19.4-49.57,32.88-72.64,1.25-2.13,2.52-4.26,3.88-6.57-1.5-1.13-2.78-2.09-4.22-3.17-1,.96-1.92,1.79-2.79,2.68-9.54,9.69-18.13,20.18-26.06,31.21-16.65,23.12-30.16,48.03-42.24,73.78-26.55,56.59-43.85,115.87-51.9,177.86-3.12,24.05-5.13,48.19-5.88,72.43-.69,21.97-.82,43.96,.34,65.93,.6,11.29,.98,22.59,1.86,33.85Z" style="fill: #fff;"/>
        <path d="M1326.24,369.99c12.97,25.16,23.31,51.42,32.96,77.99,16.81,46.27,29.55,93.54,35.7,142.48,2.49,19.83,4.18,39.71,4.75,59.66,.39,14.05,0,28.13-.3,42.19-.42,19.1-2.2,38.09-4.61,57.04-3.93,30.81-10.05,61.17-18.68,91-11.73,40.58-26.68,79.99-43.92,118.54-7.08,15.84-15.25,31.11-25.27,45.34-.63,.89-1.21,1.83-1.98,2.98,2.09,1.1,3.92,2.08,5.97,3.16,1.65-1.73,3.11-3.27,4.56-4.82,14.24-15.16,26.72-31.66,37.69-49.31,23.27-37.48,40.29-77.71,52.82-119.92,8.66-29.19,14.58-58.93,18.25-89.16,2.17-17.84,3.6-35.73,4.12-53.68,.62-21.35,.53-42.71-1.23-64.01-1.35-16.26-2.7-32.54-4.88-48.7-4.05-30.03-10.72-59.51-19.97-88.39-18.05-56.41-45.71-107.54-83.84-152.93-2.49-2.97-5.08-5.85-7.71-8.87-2.06,1.45-3.88,2.72-5.75,4.03,.42,.69,.65,1.13,.94,1.54,7.72,10.72,14.34,22.11,20.39,33.85Z" style="fill: #fff;"/>
        <path d="M739.24,1006.81c-.39-.68-.55-1.03-.76-1.33-9.81-13.6-17.71-28.29-24.79-43.44-10.54-22.53-19.38-45.74-28.07-69.03-16.2-43.42-28.03-87.95-34.65-133.85-3.52-24.38-5.62-48.89-6.3-73.49-.36-13.04,.06-26.11,.31-39.17,.34-17.21,1.9-34.33,3.93-51.42,2.66-22.33,6.54-44.44,11.78-66.3,10.93-45.65,26.51-89.75,45.13-132.79,8.99-20.77,19.29-40.87,32.49-59.36,.34-.48,.49-1.09,.8-1.81-1.84-1.28-3.56-2.47-5.86-4.06-.68,.98-1.18,1.86-1.83,2.61-12.31,14.13-23.73,28.93-34.17,44.49-25.8,38.46-44.89,80.06-58.09,124.4-14.78,49.66-21.65,100.52-23.09,152.19-.56,20.22-.28,40.42,1.11,60.62,1.45,21.06,3.95,41.98,7.59,62.77,8.34,47.64,22.89,93.28,43.79,136.89,14.45,30.15,31.78,58.45,53.96,83.6,3.55,4.03,7.3,7.89,11.01,11.88,2.14-1.27,3.93-2.33,5.71-3.39Z" style="fill: #fff;"/>
        <path d="M1219.53,417.7c18.14,34.06,31.02,70.24,42.24,107.02,9.34,30.57,15.38,61.83,18.54,93.66,1.71,17.26,2.65,34.56,2.58,51.9-.07,17.33-.96,34.64-2.74,51.89-1.95,18.87-4.88,37.58-8.87,56.12-10.03,46.63-26.65,91.01-46.26,134.31-3.93,8.66-8.16,17.43-13.73,25.06-21.2,29.06-34.55,61.34-41.31,96.48-5.05,26.28-6.51,52.79-4.69,79.5,1.93,28.29,8.05,55.59,18.83,81.83,8.01,19.51,17.99,37.88,31.67,54.06,2.82,3.33,5.88,6.47,8.87,9.75,1.21-.58,2.08-1.01,2.78-1.35-4.41-8.03-8.94-15.57-12.79-23.44-7.29-14.91-13-30.48-18.36-46.17-11.93-34.94-17.24-70.88-16.02-107.8,.51-15.34,2.19-30.55,5.1-45.62,6.09-31.55,17.51-61.24,31.49-90.01,1.19-2.45,2.79-4.77,4.54-6.86,7.84-9.36,15.05-19.17,21.57-29.47,17.03-26.88,29.96-55.68,40.07-85.79,14.26-42.43,21.65-86.11,23.19-130.79,.97-28.16-.13-56.23-3.46-84.23-3.04-25.61-7.99-50.82-15.28-75.56-15.23-51.69-40-98.21-75.29-139.03-.96-1.11-2.01-2.14-3.11-3.3-1.69,1.18-3.1,2.16-4.65,3.25,.71,1.09,1.26,1.9,1.78,2.74,4.46,7.28,9.3,14.35,13.3,21.87Z" style="fill: #fff;"/>
        <path d="M872.88,1154.09c5.83-25.75,7.72-51.82,6.23-78.2-1.05-18.61-3.4-36.99-7.8-55.09-7.05-28.98-18.83-55.84-36.24-80.15-1.82-2.55-3.74-5.07-5.24-7.8-3.8-6.94-7.63-13.87-11-21.01-9.98-21.13-18.12-43.01-26.12-64.95-19.07-52.33-29.36-106.35-31.16-161.99-.82-25.39,.36-50.71,3.39-75.95,2.72-22.59,6.9-44.89,12.66-66.89,7.64-29.18,17.65-57.58,28.99-85.5,7.23-17.81,15.34-35.22,25.51-51.59,2.38-3.83,4.93-7.55,7.54-11.54-1.56-1.08-3.08-2.13-4.66-3.23-.87,.91-1.58,1.6-2.24,2.35-28,32.12-49.61,68.12-65.11,107.8-18.69,47.88-27.37,97.76-29.52,148.9-.76,18.06-1,36.16,.51,54.2,1.16,13.88,2.21,27.79,4.16,41.58,5.37,38.1,15.59,74.9,30.76,110.29,11.77,27.47,25.76,53.7,44.81,76.86,6.42,7.81,11.07,16.36,15.11,25.42,.46,1.03,.9,2.07,1.36,3.1,17.78,40.15,28.92,81.81,29.18,126.03,.11,19.78-1.5,39.37-5.05,58.82-4.25,23.33-11.73,45.67-20.46,67.64-5.99,15.07-12.37,29.94-21.86,43.25-.11,.15-.01,.45-.01,.85,.79,.42,1.65,.87,2.74,1.45,7.28-7.18,13.51-14.72,18.99-22.87,16.82-25.01,27.87-52.47,34.51-81.76Z" style="fill: #fff;"/>
        <path d="M1022.25,737.84c39.33,.02,70.72-32.62,70.14-70.23,.52-37.38-30.56-69.98-69.85-70.15-37.87-.16-70.34,30.68-70.43,70.04-.09,39.2,32.05,70.31,70.14,70.33Z" style="fill: #fff;"/>
        <path d="M1287.46,479.34c8.78,19.78,15.01,40.44,20.85,61.25,8.33,29.71,13.7,59.94,16.01,90.69,1.15,15.27,1.54,30.58,1.24,45.92-.4,20.61-1.89,41.12-4.69,61.54-4.28,31.19-11.48,61.68-22.07,91.32-7.39,20.68-15.9,40.75-27.36,59.72-19.5,32.28-28.9,67.95-31.27,105.5-1.05,16.57-.83,33.12,.5,49.68,1.35,16.82,4.01,33.39,8.5,49.65,7.38,26.75,19.34,51.13,37.63,72.2,.9,1.04,1.83,2.07,2.8,3.05,1.05,1.07,1.75,.43,2.4-.69-.23-.51-.45-1.08-.73-1.63-20.68-41.08-31.84-84.7-34.44-130.51-1.5-26.53-.39-52.99,4.42-79.18,4.66-25.38,11.63-50.1,21.59-73.94,.66-1.59,1.57-3.15,2.67-4.48,16.79-20.31,29.78-42.84,39.55-67.27,11.98-29.95,18.66-61.16,21.9-93.16,2.47-24.4,3.06-48.85,1.83-73.36-1.03-20.74-3.44-41.28-7.8-61.58-7.73-36.03-21.11-69.86-40.13-101.42-6.37-10.57-13.79-20.39-22.4-29.26-.5-.52-1.13-.93-1.71-1.4-.55,.36-.99,.6-1.37,.92-.28,.23-.46,.57-.79,.99,.46,.85,.96,1.7,1.4,2.58,3.85,7.61,8.02,15.09,11.47,22.87Z" style="fill: #fff;"/>
        <path d="M769.5,883.96c-3.97-6.3-7.43-12.77-10.44-19.54-26.94-60.66-39.65-124.35-40.48-190.54-.2-15.83,.25-31.65,1.92-47.4,1.39-13.1,2.87-26.21,4.96-39.21,3.57-22.21,9.39-43.92,15.99-65.41,7.17-23.32,15.37-46.22,28-67.28,.11-.18,.01-.48,.01-.89-.5-.4-1.09-.86-1.93-1.52-.69,.59-1.19,.96-1.63,1.39-6.41,6.42-12,13.53-17.11,21-13.92,20.34-24.13,42.55-32.73,65.55-13.28,35.51-19.3,72.43-20.8,110.16-.87,22.11-.28,44.19,1.85,66.23,2.35,24.18,6.62,47.97,13.63,71.25,10.15,33.68,25.63,64.56,48.17,91.75,1.02,1.23,1.89,2.69,2.45,4.18,3.46,9.29,7.1,18.52,10.13,27.95,9.19,28.58,14.8,57.85,16.09,87.88,.71,16.7,.36,33.39-1.21,50.06-1.92,20.3-5.51,40.28-11.04,59.9-5.56,19.75-12.93,38.8-22.11,57.15-.45,.9-1.67,1.98-.34,2.98,1.35,1.02,1.94-.46,2.71-1.16,.28-.25,.49-.57,.74-.85,13.62-15.25,23.83-32.58,31.39-51.52,10.06-25.22,14.81-51.58,16.34-78.54,1.52-26.79,.51-53.47-5.08-79.84-5.58-26.28-15.16-50.99-29.49-73.73Z" style="fill: #fff;"/>
        <path d="M1409.3,447.92c9.1,22.63,16.07,45.94,22.53,69.43,10.83,39.37,17.07,79.47,19.18,120.21,1.16,22.33,.93,44.67-.38,67.01-1.36,23.34-3.93,46.53-7.97,69.54-7.24,41.19-18.71,81.17-35.03,119.69-5.34,12.59-11.37,24.88-17.07,37.31-.3,.65-.46,1.36-.71,2.13,.93,.67,1.72,1.24,2.91,2.1,4.1-4.78,8.02-9.18,11.74-13.75,26.84-32.86,45.15-70.15,57.2-110.66,12.29-41.32,17.43-83.71,18.56-126.67,.55-20.85-.06-41.67-1.84-62.47-1.9-22.17-5.3-44.09-10.42-65.75-7.2-30.44-18.3-59.45-32.16-87.44-9.16-18.51-19.79-36.11-33.17-51.94-3.15-3.72-6.52-7.25-9.93-11.02-1.17,.87-2.04,1.52-2.99,2.22,.49,.95,.83,1.75,1.28,2.49,7.23,11.96,13.06,24.6,18.27,37.54Z" style="fill: #fff;"/>
        <path d="M572.12,576.37c-5,26.22-7.38,52.72-7.99,79.37-.54,23.37,.31,46.71,2.54,69.99,2.42,25.3,6.58,50.27,13.14,74.83,9.87,36.94,24.81,71.59,46.66,103.11,7.31,10.54,15.26,20.58,23.99,29.99,.4,.44,.95,.74,1.53,1.18,.88-.66,1.66-1.24,2.7-2.02-.65-1.37-1.12-2.39-1.62-3.4-31.67-63.11-50.49-129.91-57.44-200.11-2.28-23.01-3.23-46.1-2.9-69.23,.26-18.46,1.32-36.88,3.32-55.25,1.91-17.49,4.5-34.86,8.08-52.07,6.2-29.77,14.46-58.99,24.55-87.68,6.77-19.22,14.62-37.96,25.24-55.43,.25-.41,.35-.9,.59-1.55-.95-.68-1.82-1.31-3.19-2.29-.87,1.1-1.59,2.16-2.45,3.06-7.81,8.21-14.9,17.03-21.05,26.54-27.94,43.27-46.07,90.44-55.71,140.95Z" style="fill: #fff;"/>
        <path d="M1171.74,764.65c-6.39,26.83-15.97,52.57-26.35,78.04-6.27,15.37-13.32,30.35-22.93,43.99-.19,.27-.22,.66-.42,1.28,1.22,.61,2.39,1.19,3.55,1.78,1.67-1.7,3.11-3.1,4.47-4.57,16.41-17.83,28.81-38.26,39.03-60.1,20.02-42.78,30.22-87.95,32.15-135,.56-13.65,.12-27.37-.34-41.04-.82-23.91-4.27-47.49-9.9-70.74-10.8-44.63-30.15-85.04-59.66-120.41-1.84-2.2-3.74-4.34-5.74-6.65-1.32,.86-2.45,1.59-3.35,2.17,5.27,9.41,10.6,18.23,15.27,27.38,9.37,18.38,16.36,37.75,23.12,57.21,12.55,36.17,20.05,73.33,21.9,111.58,.89,18.45,.56,36.9-1.08,55.33-1.8,20.17-5.04,40.08-9.74,59.78Z" style="fill: #fff;"/>
        <path d="M842.49,670.05c-.13,21.13,1.38,42.14,4.66,63.04,5.13,32.72,14.68,64.06,28.87,93.97,9.85,20.75,21.76,40.18,37.32,57.22,1.66,1.82,3.45,3.54,5.24,5.38,1.36-.82,2.41-1.45,3.57-2.14-.43-.72-.75-1.25-1.06-1.78-4.31-7.37-8.98-14.54-12.84-22.13-9.13-17.94-15.97-36.84-22.85-55.71-16.37-44.93-24.24-91.37-24.42-139.12-.03-9.53,.62-19.07,1.21-28.59,1.18-18.7,4.02-37.18,8.05-55.48,6.31-28.66,15.88-56.26,26.99-83.36,6.63-16.17,14.2-31.89,24.35-46.23,.2-.28,.21-.7,.37-1.27-1.09-.74-2.21-1.5-3.22-2.18-.45,.25-.72,.32-.88,.5-.85,.92-1.7,1.85-2.51,2.8-27.3,31.87-46.44,68.13-58.2,108.35-10.18,34.85-14.44,70.52-14.66,106.74Z" style="fill: #fff;"/>
        <path d="M1186.6,521.07c12.78,30.34,21.37,61.89,26.16,94.43,3.15,21.39,4.31,42.94,3.58,64.59-.64,18.98-2.36,37.82-5.59,56.53-5.09,29.46-13.66,57.86-25.8,85.17-2.39,5.39-4.99,10.69-7.53,16.01-.64,1.34-1.29,2.58,1.05,3.28,.43-.36,.75-.58,1-.85,.94-1.01,1.87-2.03,2.78-3.07,17.38-19.98,29.75-42.79,38.18-67.81,8.56-25.41,12.67-51.63,14.12-78.31,1.02-18.83,.72-37.63-1.16-56.42-2.36-23.73-7.34-46.84-15.95-69.11-6.94-17.97-15.14-35.3-26.43-51.02-3.74-5.2-7.77-10.16-12.35-14.56-2.64,.56-1.78,1.87-1.02,3.33,3.05,5.91,6.38,11.7,8.96,17.81Z" style="fill: #fff;"/>
        <path d="M809.42,685.79c.82,19.24,2.9,38.3,7.03,57.11,6.2,28.24,16.62,54.72,33.27,78.55,4.82,6.9,10.02,13.48,15.94,19.69,.7-.5,1.28-.91,1.79-1.28-.08-.43-.07-.69-.17-.91-.37-.8-.76-1.59-1.16-2.37-14.42-29.06-24.83-59.49-31.11-91.32-3.9-19.75-6.14-39.68-7.01-59.78-.87-20.12-.16-40.18,2.11-60.18,2.39-21,6.78-41.6,12.7-61.88,6.2-21.24,13.08-42.22,24.44-61.41,.11-.19,.08-.46,.12-.7-1.46-2.04-2.59-.75-3.54,.46-4.84,6.09-10.17,11.87-14.33,18.4-23.3,36.52-35.74,76.68-39.21,119.73-1.23,15.28-1.52,30.57-.87,45.91Z" style="fill: #fff;"/>
        <path d="M267.33,1285.19l-62.63,151.36h31.09l15.43-37.44h65.35l14.98,37.44h31.32l-61.27-151.36h-34.27Zm-8.85,91.22l25.64-64.9,24.96,64.9h-50.6Z" style="fill: #fff;"/>
        <path d="M382.83,1338.97c-10.21,10.21-15.66,25.19-15.66,43.34,0,16.11,5.22,30.86,14.07,40.39,9.3,9.99,20.88,13.84,42.66,13.84h38.12v-20.2h-34.04c-12.48,0-18.61-1.59-23.83-5.9-7.04-5.67-10.67-15.2-10.67-28.59,0-25.64,9.3-35.63,32.9-35.63h35.63v-20.2h-38.12c-20.42,0-31.54,3.63-41.07,12.93Z" style="fill: #fff;"/>
        <path d="M557.55,1416.36h-26.32c-16.11,0-21.56-5.67-21.56-22.92v-67.4h-25.64v66.49c0,14.98,2.5,24.28,8.62,31.77,7.94,9.76,15.66,12.25,37.22,12.25h53.33v-110.51h-25.64v90.32Z" style="fill: #fff;"/>
        <polygon points="519.2 1312.42 536.68 1312.42 564.59 1282.92 539.85 1282.92 519.2 1312.42" style="fill: #fff;"/>
        <path d="M700.96,1376.87c-5.9-4.31-12.94-5.67-29.5-5.67h-16.34c-17.02,0-20.88-2.27-20.88-12.25,0-4.77,1.36-8.4,4.08-10.44,2.72-1.81,5.67-2.27,16.79-2.27h51.51v-20.2h-59.68c-12.48,0-19.52,1.36-25.19,4.54-8.62,5.22-14.07,15.88-14.07,27.69,0,10.89,4.54,21.33,11.57,27.46,6.58,5.22,12.94,6.58,32.22,6.58h13.39c8.62,0,12.25,.23,14.3,.91,4.31,1.36,6.35,5.22,6.35,11.35s-2.04,9.53-6.13,10.67c-2.72,.91-7.49,1.13-16.79,1.13h-53.55v20.2h60.36c14.75,0,20.88-.68,25.64-2.95,9.98-4.31,16.34-16.79,16.34-31.31,0-11.12-3.86-20.65-10.44-25.42Z" style="fill: #fff;"/>
        <path d="M769.26,1285.19h-25.64v40.85h-20.2v20.2h20.2v53.33c0,15.89,2.27,23.6,8.4,29.73,5.9,5.45,12.25,7.26,26.1,7.26h21.78v-20.2h-12.48c-15.43,0-18.15-2.95-18.15-20.2v-49.92h30.64v-20.2h-30.64v-40.85Z" style="fill: #fff;"/>
        <rect x="821.22" y="1326.04" width="25.64" height="110.51" style="fill: #fff;"/>
        <rect x="821.22" y="1285.19" width="25.64" height="25.87" style="fill: #fff;"/>
        <path d="M926.73,1436.55h38.12v-20.2h-34.04c-12.48,0-18.61-1.59-23.83-5.9-7.04-5.67-10.67-15.2-10.67-28.59,0-25.64,9.3-35.63,32.9-35.63h35.63v-20.2h-38.12c-20.42,0-31.54,3.63-41.07,12.93-10.21,10.21-15.66,25.19-15.66,43.34,0,16.11,5.22,30.86,14.07,40.39,9.3,9.99,20.88,13.84,42.66,13.84Z" style="fill: #fff;"/>
        <path d="M999.34,1372.79c-10.67,4.77-17.25,16.57-17.25,30.64,0,11.12,4.31,20.65,12.03,26.55,7.26,5.45,13.39,6.58,35.85,6.58h59.46v-66.49c0-17.47-2.04-25.42-8.4-32.9-7.26-8.62-15.66-11.12-38.8-11.12h-54.24v20.2h51.74c12.71,0,17.47,1.59,20.88,6.35,2.72,3.86,3.18,7.04,3.18,16.57h-38.35c-12.71,0-20.88,1.14-26.1,3.63Zm64.45,16.57v27h-36.08c-13.84,0-19.29-3.63-19.29-13.16,0-6.13,2.72-10.66,7.26-12.48,2.72-1.13,5.22-1.36,12.03-1.36h36.08Z" style="fill: #fff;"/>
        <path d="M1253.08,1394.24c0,22.29-10.14,27.57-64.36,27.57s-64.94-5.28-64.94-27.57v-109.49h-17.94v109.49c0,33.04,15.02,40.67,83.08,40.67s82.3-7.63,82.3-40.67v-109.49h-18.14v109.49Z" style="fill: #fff;"/>
        <path d="M1379.25,1284.74l-88.34,148.41h18.92l22.23-37.93h113.31l21.84,37.93h19.31l-85.61-148.41h-21.65Zm-39.39,97.37l49.73-84.47,48.36,84.47h-98.09Z" style="fill: #fff;"/>
        <path d="M1678.4,1380.16h-17.16c-.39,27.57-8.39,41.84-67.87,41.84-66.3,0-70.21-16.23-70.21-63.16s4.1-63.16,70.21-63.16c59.68,0,67.48,12.91,67.87,38.32h17.16c0-30.89-6.83-51.42-85.03-51.42s-88.54,24.44-88.54,76.26,8.97,76.06,88.54,76.06,85.03-21.51,85.03-54.75Z" style="fill: #fff;"/>
        <path d="M1840.85,1433.15v-79.58c0-17.79-7.8-26.4-56.36-26.4-39,0-53.63,9.58-61.62,17.79v-60.22h-16.58v148.41h16.58v-74.11c5.85-8.8,23.01-20.34,56.94-20.34,39,0,44.66,6.26,44.66,18.19v76.26h16.38Z" style="fill: #fff;"/>
        <polygon points="947.26 1517.56 945.34 1517.56 936.57 1480.15 915.84 1480.15 907.07 1517.56 905.15 1517.56 897.3 1480.15 883.97 1480.15 894.56 1526.93 916.48 1526.93 925.16 1489.28 927.17 1489.28 935.93 1526.93 957.76 1526.93 968.36 1480.15 955.02 1480.15 947.26 1517.56" style="fill: #fff;"/>
        <polygon points="1035.11 1517.56 1033.19 1517.56 1024.42 1480.15 1003.69 1480.15 994.92 1517.56 993.01 1517.56 985.15 1480.15 971.82 1480.15 982.41 1526.93 1004.33 1526.93 1013.01 1489.28 1015.02 1489.28 1023.79 1526.93 1045.61 1526.93 1056.21 1480.15 1042.87 1480.15 1035.11 1517.56" style="fill: #fff;"/>
        <polygon points="1122.96 1517.56 1121.04 1517.56 1112.28 1480.15 1091.54 1480.15 1082.78 1517.56 1080.86 1517.56 1073 1480.15 1059.67 1480.15 1070.26 1526.93 1092.18 1526.93 1100.86 1489.28 1102.87 1489.28 1111.64 1526.93 1133.47 1526.93 1144.06 1480.15 1130.73 1480.15 1122.96 1517.56" style="fill: #fff;"/>
        <rect x="1149.08" y="1514.99" width="13.52" height="11.93" style="fill: #fff;"/>
        <path d="M1200.31,1480.15h-27.76v10.25h27.76c2.1,0,3.2,.96,3.2,2.8v5.21h-18.17c-11.14,0-16.71,4.33-16.71,12.97v1.68c0,9.21,5.57,13.86,16.71,13.86h31.69v-32.12c0-9.77-5.57-14.66-16.71-14.66Zm3.2,36.52h-18.17c-2.1,0-3.2-.64-3.2-2v-4.97c0-1.84,1.1-2.72,3.2-2.72h18.17v9.69Z" style="fill: #fff;"/>
        <path d="M1238.57,1506.9v-7.85c0-4.24,1.92-8.65,5.94-8.65h21.28v-10.25h-22.47c-12.88,0-17.99,10.17-17.99,18.9v7.85c0,9.05,5.11,20.02,17.99,20.02h22.65v-10.25h-21.46c-4.2,0-5.94-5.13-5.94-9.77Z" style="fill: #fff;"/>
        <path d="M1307.7,1516.68h-16.71c-2.1,0-3.2-.96-3.2-2.8v-33.72h-13.61v32.12c0,9.77,5.57,14.66,16.8,14.66h30.32v-46.77h-13.61v36.52Z" style="fill: #fff;"/>
        <path d="M1358.84,1498.33h-11.05c-2.1,0-3.2-.8-3.2-3.76s1.1-4.08,3.2-4.08h24.48v-10.33h-25.57c-11.23,0-15.34,4.81-15.34,14.66s4.11,13.78,15.16,13.78h11.05c2.1,0,3.2,.96,3.2,3.92s-1.1,4.08-3.2,4.08h-26.21v10.33h27.31c11.24,0,15.34-4.81,15.34-14.66s-4.11-13.94-15.16-13.94Z" style="fill: #fff;"/>
        <path d="M1397.38,1469.82h-13.61v10.33h-4.48v8.33h4.48v30.44c0,5.37,3.56,8.01,10.78,8.01h13.24v-8.57h-7.4c-2.01,0-3.01-.88-3.01-2.72v-27.15h11.33v-8.33h-11.33v-10.33Z" style="fill: #fff;"/>
        <rect x="1416.56" y="1461.09" width="13.61" height="9.29" style="fill: #fff;"/>
        <rect x="1416.56" y="1480.15" width="13.61" height="46.77" style="fill: #fff;"/>
        <path d="M1451.62,1506.9v-7.85c0-4.24,1.92-8.65,5.94-8.65h21.28v-10.25h-22.47c-12.88,0-17.99,10.17-17.99,18.9v7.85c0,9.05,5.11,20.02,17.99,20.02h22.65v-10.25h-21.46c-4.2,0-5.94-5.13-5.94-9.77Z" style="fill: #fff;"/>
        <path d="M1516.19,1480.15h-27.76v10.25h27.76c2.1,0,3.2,.96,3.2,2.8v5.21h-18.17c-11.14,0-16.71,4.33-16.71,12.97v1.68c0,9.21,5.57,13.86,16.71,13.86h31.69v-32.12c0-9.77-5.57-14.66-16.71-14.66Zm3.2,36.52h-18.17c-2.1,0-3.2-.64-3.2-2v-4.97c0-1.84,1.1-2.72,3.2-2.72h18.17v9.69Z" style="fill: #fff;"/>
        <path d="M1577.47,1516.68h-16.71c-2.1,0-3.2-.96-3.2-2.8v-33.72h-13.61v32.12c0,9.77,5.57,14.66,16.8,14.66h30.32v-46.77h-13.61v36.52Z" style="fill: #fff;"/>
        <path d="M1630.98,1480.15h-27.76v10.25h27.76c2.1,0,3.2,.96,3.2,2.8v5.21h-18.17c-11.14,0-16.71,4.33-16.71,12.97v1.68c0,9.21,5.57,13.86,16.71,13.86h31.69v-32.12c0-9.77-5.57-14.66-16.71-14.66Zm3.2,36.52h-18.17c-2.1,0-3.2-.64-3.2-2v-4.97c0-1.84,1.1-2.72,3.2-2.72h18.17v9.69Z" style="fill: #fff;"/>
        <path d="M1669.24,1506.9v-7.85c0-4.24,1.92-8.65,5.94-8.65h21.28v-10.25h-22.47c-12.88,0-17.99,10.17-17.99,18.9v7.85c0,9.05,5.11,20.02,17.99,20.02h22.65v-10.25h-21.46c-4.2,0-5.94-5.13-5.94-9.77Z" style="fill: #fff;"/>
        <path d="M1734.81,1480.15h-16.35v-19.06h-13.61v65.84h13.61v-36.52h16.35c2.1,0,3.2,.96,3.2,2.8v33.72h13.52v-32.12c0-9.77-5.57-14.66-16.71-14.66Z" style="fill: #fff;"/>
        <rect x="1760.29" y="1514.99" width="13.52" height="11.93" style="fill: #fff;"/>
        <path d="M1793.08,1506.9v-7.85c0-4.24,1.92-8.65,5.94-8.65h21.28v-10.25h-22.47c-12.88,0-17.99,10.17-17.99,18.9v7.85c0,9.05,5.11,20.02,17.99,20.02h22.65v-10.25h-21.46c-4.2,0-5.94-5.13-5.94-9.77Z" style="fill: #fff;"/>
        <rect x="1828.69" y="1461.09" width="13.61" height="65.84" style="fill: #fff;"/>
      </g>
    </g>
  </g>
</svg>