<?xml version="1.0" encoding="UTF-8"?>
<svg id="Layer_2" data-name="Layer 2" xmlns="http://www.w3.org/2000/svg" xmlns:xlink="http://www.w3.org/1999/xlink" viewBox="0 0 1280 396.68">
  <defs>
    <clipPath id="clippath">
      <rect x="128" y="39.67" width="1024" height="317.34" style="fill: none;"/>
    </clipPath>
  </defs>
  <g id="Logos-InnovING2030">
    <g id="Logo-InnovING2030-Color">
      <rect width="1280" height="396.68" style="fill: none;"/>
      <g>
        <polygon points="470.7 39.67 470.7 123.64 490.39 123.64 490.39 59.35 554.68 59.35 554.68 39.67 470.7 39.67" style="fill: #ffa859;"/>
        <polygon points="704.07 39.67 704.07 59.35 768.36 59.35 768.36 123.64 788.05 123.64 788.05 39.67 704.07 39.67" style="fill: #ffa859;"/>
        <polygon points="768.36 273.03 768.36 337.32 704.07 337.32 704.07 357.01 788.05 357.01 788.05 273.03 768.36 273.03" style="fill: #ffa859;"/>
        <polygon points="470.71 273.03 470.71 357.01 554.68 357.01 554.68 337.32 490.39 337.32 490.39 273.03 470.71 273.03" style="fill: #ffa859;"/>
        <g style="clip-path: url(#clippath);">
          <path d="M779.76,185.84c6.16,.7,10.55,5.5,10.5,12.07-.06,7.07-5.25,12.01-12.16,11.95-6.42-.06-11.09-4.21-11.84-10.27-.96-7.7,5.8-14.63,13.5-13.75"/>
          <path d="M205.18,173.46c-10.29,0-19.61,6.11-19.61,19.77v45.65h-20.25v-82.13h20.25v10.93c6.59-8.84,16.55-13.18,26.36-13.18,18,0,30.22,12.05,30.22,34.23v50.15h-20.25v-45.65c0-13.66-6.91-19.77-16.72-19.77"/>
          <path d="M297.54,173.46c-10.29,0-19.61,6.11-19.61,19.77v45.65h-20.25v-82.13h20.25v10.93c6.59-8.84,16.55-13.18,26.36-13.18,18,0,30.22,12.05,30.22,34.23v50.15h-20.25v-45.65c0-13.66-6.91-19.77-16.72-19.77"/>
          <path d="M347.24,197.89c0-28.45,21.54-43.4,43.72-43.4s43.56,14.95,43.56,43.4-21.54,43.24-43.56,43.24-43.72-14.95-43.72-43.24m43.72,24.27c13.02,0,22.5-8.84,22.5-24.27s-9.48-24.43-22.5-24.43-22.66,8.84-22.66,24.43,9.48,24.27,22.66,24.27"/>
          <polygon points="438.32 156.75 459.53 156.75 480.43 215.57 501.32 156.75 522.21 156.75 491.68 238.88 468.69 238.88 438.32 156.75"/>
          <path d="M611.89,173.46c-10.29,0-19.61,6.11-19.61,19.77v45.65h-20.25v-82.13h20.25v10.93c6.59-8.84,16.55-13.18,26.36-13.18,18,0,30.22,12.05,30.22,34.23v50.15h-20.25v-45.65c0-13.66-6.91-19.77-16.72-19.77" style="fill: #ffa859;"/>
          <rect x="128" y="156.75" width="20.25" height="82.13"/>
          <rect x="534.71" y="156.75" width="20.25" height="82.13" style="fill: #ffa859;"/>
          <path d="M660.81,197.45c0-28.45,21.54-43.4,43.72-43.4s43.56,14.95,43.56,43.4-21.54,43.24-43.56,43.24-43.72-14.95-43.72-43.24m43.72,24.27c13.02,0,22.5-8.84,22.5-24.27s-9.48-24.43-22.5-24.43-22.66,8.84-22.66,24.43,9.48,24.27,22.66,24.27" style="fill: #ffa859;"/>
          <path d="M704.48,282.8v-20.8c12.75,0,23.12-10.37,23.12-23.12v-82.13h20.8v82.13c0,24.22-19.7,43.92-43.92,43.92" style="fill: #ffa859;"/>
          <path d="M930.95,154.05c-24.01,0-43.47,19.46-43.47,43.46s19.46,43.47,43.47,43.47,43.46-19.46,43.46-43.47-19.46-43.46-43.46-43.46m0,67.26c-13.14,0-23.8-10.66-23.8-23.8s10.66-23.8,23.8-23.8,23.8,10.66,23.8,23.8-10.66,23.8-23.8,23.8"/>
          <path d="M855.86,184.53c0-7.81-4.8-12.76-11.86-12.76s-12.91,4.65-14.26,14.11h-19.82c2.25-21.17,16.82-31.83,34.08-31.83,18.32,0,31.68,11.26,31.68,29.43,0,12.46-8.56,22.22-15.91,28.98l-10.81,9.46h28.23v16.96h-70.26l41.14-39.48c5.11-4.65,7.81-9.61,7.81-14.87"/>
          <path d="M982.95,231.82h19.67c2.55,12.01,10.51,15.46,17.87,15.46,8.86,0,15.46-5.56,15.46-15.16s-6.61-15.16-15.46-15.16h-6.76v-17.11h6.31c8.86,0,13.96-6,13.96-14.11s-5.26-13.96-13.96-13.96c-6.46,0-13.66,3.3-15.61,12.91h-19.67c2.25-20.27,18.16-30.63,35.28-30.63,19.37,0,33.63,10.96,33.63,29.43,0,11.56-5.56,19.52-13.36,24.32,9.01,4.51,15.31,12.61,15.31,25.52,0,20.12-15.16,31.68-35.13,31.68-18.02,0-34.83-10.06-37.53-33.18"/>
          <path d="M1108.54,154.05c-24.01,0-43.47,19.46-43.47,43.46s19.46,43.47,43.47,43.47,43.46-19.46,43.46-43.47-19.46-43.46-43.46-43.46m0,67.26c-13.14,0-23.8-10.66-23.8-23.8s10.66-23.8,23.8-23.8,23.8,10.66,23.8,23.8-10.66,23.8-23.8,23.8"/>
        </g>
      </g>
    </g>
  </g>
</svg>