<?xml version="1.0" encoding="UTF-8"?>
<svg id="Layer_2" data-name="Layer 2" xmlns="http://www.w3.org/2000/svg" xmlns:xlink="http://www.w3.org/1999/xlink" viewBox="0 0 2047 1946.67">
  <defs>
    <filter id="drop-shadow-1" filterUnits="userSpaceOnUse">
      <feOffset dx="1.07" dy="1.07"/>
      <feGaussianBlur result="blur" stdDeviation=".76"/>
      <feFlood flood-color="#000" flood-opacity=".75"/>
      <feComposite in2="blur" operator="in"/>
      <feComposite in="SourceGraphic"/>
    </filter>
    <filter id="drop-shadow-2" filterUnits="userSpaceOnUse">
      <feOffset dx="1.07" dy="1.07"/>
      <feGaussianBlur result="blur-2" stdDeviation=".76"/>
      <feFlood flood-color="#000" flood-opacity=".75"/>
      <feComposite in2="blur-2" operator="in"/>
      <feComposite in="SourceGraphic"/>
    </filter>
  </defs>
  <g id="Logos-IngCivilObrasCiviles">
    <g id="Logo-IngCivilObrasCiviles-Oficial-Negro">
      <rect y="0" width="2047" height="1946.67" style="fill: none; filter: url(#drop-shadow-1);"/>
      <path d="M683.22,1162.36l73.49-31.01v34.32l-73.49,34.32v-37.63Zm73.49-302.71l-73.49,12.4v37.63l73.49-13.73v-36.3Zm0-45.28l-73.49,9.3v37.63l73.49-10.3v-36.63Zm0-45.28l-73.49,6.2v37.63l73.49-6.86v-36.96Zm0-45.28l-73.49,3.1v37.63l73.49-3.43v-37.3Zm-155.99,441.87l73.49,34.32v-37.63l-73.49-31.01v34.32Zm0-44.95l73.49,30.89v-37.63l-73.49-27.91v34.65Zm0-269.72l73.49,10.3v-37.63l-73.49-9.3v36.63Zm73.49-75.72l-73.49-6.2v36.96l73.49,6.86v-37.63Zm0-48.38l-73.49-3.1v37.3l73.49,3.43v-37.63Zm839.14,192.25l-.91-20.76-58.36,2.05,.07,19.42,59.2-.71Zm-117.69-18.99l-58.38-2.66-1.3,16.63,59.03,4.06,.66-18.04Zm-116.59-7.83c-19.36-2.17-38.66-4.79-57.89-7.92l-2.4,13.74c19.39,3.62,38.87,6.72,58.41,9.37l1.88-15.2Zm-115.25-18.92c-19-4.24-37.86-9.07-56.5-14.64l-3.34,10.71c18.79,6.1,37.8,11.44,56.96,16.18l2.88-12.25Zm-168.1-52.14c16.87,10.52,34.63,19.44,52.76,27.35l3.83-9.08c-17.97-7.34-35.53-15.67-52.18-25.52l-4.42,7.25Zm-66.46-92.13l-5.73,.56c.88,10.19,3.99,20.11,8.58,29.14,4.59,9.06,10.58,17.29,17.26,24.79l5.25-4.81c-6.52-6.98-12.33-14.61-16.8-22.95-4.47-8.32-7.54-17.38-8.57-26.73Zm12.52-55.85l3.53,2.61c11.35-15.59,26.33-28.42,42.28-39.53l-1.69-2.5c-16.39,10.87-31.95,23.52-44.12,39.42Zm-113.49,317.5c-24.71,0-48.69-2.94-71.58-8.47v-32.1l-53.62,13.58c-4.85-2.22-9.62-4.56-14.32-7.02l67.94-15.86v-35.97l-73.49,15.51v33.34c-3.04-1.68-6.05-3.39-9.01-5.17v-28.18l-50.96-10.75c-3.94-3.79-7.78-7.67-11.48-11.67l62.44,11.66v-37.63l-73.49-12.4v25.64c-36.83-45.07-58.74-101.35-58.74-162.33,0-55.26,21.79-115.26,58.74-162.84v20.18l73.49-9.3v-37.63l-73.49,10.3v1.53c-42.68,50.49-68.15,116.86-68.15,177.77,0,70.17,27.96,134.32,73.97,183.21h0s0,0,0,0c4.62,4.91,9.42,9.67,14.4,14.26,0,0,0,0,0,0,4.97,4.58,10.1,9.01,15.4,13.25,.03,.03,.06,.05,.09,.07,2.62,2.1,5.27,4.15,7.97,6.17,.03,.02,.05,.04,.08,.06,2.71,2.02,5.46,4,8.25,5.94,.05,.03,.09,.06,.14,.09,2.69,1.86,5.41,3.68,8.17,5.46,.15,.1,.3,.2,.46,.3,2.83,1.82,5.7,3.6,8.6,5.33,0,0,0,0,0,0h0c8.19,4.88,16.65,9.39,25.36,13.51,.13,.06,.26,.12,.39,.18,2.1,.99,4.22,1.96,6.35,2.9,.19,.09,.39,.17,.59,.26,2.07,.91,4.16,1.81,6.26,2.68,.23,.09,.46,.19,.69,.28,2.09,.86,4.18,1.7,6.29,2.51,.22,.09,.45,.17,.67,.26,2.13,.82,4.28,1.61,6.43,2.38,.2,.07,.39,.14,.59,.21,2.2,.78,4.42,1.54,6.65,2.28,.15,.05,.3,.1,.45,.15,2.29,.75,4.6,1.48,6.92,2.18,.09,.03,.17,.05,.26,.08,2.41,.73,4.83,1.42,7.26,2.09,0,0,0,0,0,0h0c26.35,7.24,54.21,11.14,83.02,11.14,23.24,0,46.34-2.54,68.79-7.55v105.19c-22.26,3.41-44.98,5.14-67.61,5.14-25.05,0-49.59-2.09-73.42-6.09-6.17-1.03-12.29-2.2-18.36-3.48-5.83-1.24-11.6-2.6-17.34-4.06-3.13-.8-6.25-1.63-9.35-2.5-.04-.01-.08-.02-.12-.03-3.09-.86-6.16-1.76-9.22-2.69l-.12-.04c-3.07-.93-6.12-1.9-9.15-2.89-.02,0-.04-.01-.06-.02-3.05-1-6.09-2.04-9.11-3.11-3.02-1.07-6.03-2.17-9.02-3.3h0c-22.67-8.6-44.34-19-64.79-31.05h0c-114.67-67.56-190.9-186.25-190.9-321.11,0-126.55,74.74-254.25,190.56-325.92l65.13-19.24v-37.63l-73.49,24.02v27c-116.57,73.74-191.61,203.27-191.61,331.76,0,136.76,76.36,257.27,191.61,326.86v26.3l73.49,27.46v-18.39c2.99,1.1,5.99,2.17,9.01,3.22v15.18l21.99-8.22c5.44,1.56,10.93,3.01,16.46,4.37l-38.45,14.6v37.63l73.49-30.89v-14.19c23.64,3.84,47.95,5.86,72.75,5.86s49.06-1.98,73.07-5.88l3.95-.64v-125.13l-5.82,1.42c-23.53,5.73-47.88,8.64-72.37,8.64Zm-71.58-761.81l-73.49-34.32v37.63l73.49,31.01v-34.32Zm0,44.95l-73.49-30.89v37.63l73.49,27.91v-34.65Zm0,89.91l-73.49-24.02v37.63l73.49,21.71v-35.31Zm0,44.95l-73.49-20.59v37.63l73.49,18.61v-35.64Zm0,54.57c22.78-5.24,48.75-8.26,71.58-8.26,24.49,0,48.84,2.91,72.37,8.64l5.82,1.42v-125.82l-3.95-.64c-24.02-3.9-48.6-5.88-73.07-5.88-23.07,0-48.74,2.07-72.75,5.8v-19.73l-73.49-27.46v37.63l73.49,24.81v-5.74c23.96-3.8,49.7-5.9,72.75-5.9s45.35,1.73,67.61,5.14v105.88c-22.45-5.01-45.56-7.55-68.79-7.55s-48.67,2.93-71.62,8.04l-73.45-17.15v37.63l73.49,15.51v-26.36Zm0,35.34l-73.49-13.73v37.63l73.49,12.4v-36.3Zm0,44.95l-73.49-10.3v37.63l73.49,9.3v-36.63Zm0,44.95l-73.49-6.86v37.63l73.49,6.2v-36.96Zm0,44.95l-73.49-3.43v37.63l73.49,3.1v-37.3Zm0,44.95h-73.49v37.63h73.49v-37.63Zm-82.5-435.46l-73.49,30.89v34.65l73.49-27.91v-37.63Zm0,48.38l-73.49,27.46v34.98l73.49-24.81v-37.63Zm0,96.77l-73.49,20.59v35.64l73.49-18.61v-37.63Zm0,48.38l-73.49,17.16v35.97l73.49-15.51v-37.63Zm-73.49,98.42l73.49-12.41v-37.63l-73.49,13.73v36.3Zm73.49,46.74l-73.49,6.86v36.96l73.49-6.2v-37.63Zm0,48.38l-73.49,3.43v37.3l73.49-3.1v-37.63Zm0-435.46l-73.49,34.32v34.32l73.49-31.01v-37.63Zm0,483.85h-73.49v37.63h73.49v-37.63Zm831.94-75.84v-45.56c-11.95-.31-23.96-.5-36.06-.5-56.17,0-110.67,3.39-161.48,9.91v36.14h-16.46v-33.9c-26.3,3.79-51.52,8.44-75.32,13.93,18.26,43.36,28.29,90.55,28.29,139.9,0,27.83-3.2,54.96-9.25,81.11-47.16-9.61-88.09-22.04-120.42-36.55,2.51-14.39,3.85-29.15,3.85-44.21,0-37.53-8.13-73.27-22.78-105.8-38.54,20.61-60.7,44.67-60.7,70.37,0,76.19,194.43,137.96,434.27,137.96,56.47,0,110.42-3.43,159.91-9.66v82.77l1.54,11.66-1.54,.15v77.27c-71.16,12.08-149.28,18.76-231.24,18.76-94.01,0-182.95-8.79-262.14-24.43-50.91,51.7-116.8,90.51-191.33,110.5v-119.96c18.77-7.73,36.48-17.27,52.93-28.37,0,0,0,0,0,0-122.23-44.55-199.13-109.17-199.13-181.08,0-83.86,104.56-157.82,263.65-201.57-30.06-38.23-70.5-68.86-117.46-88.2v-120.65c105.78,28.38,194.15,94.65,246.96,181.9,15.73-2.34,31.78-4.41,48.09-6.22,22.51-29.79,41.77-77.28,51.82-107.12v-13.77h16.46v15.68c7.12,23.41,25.02,72.06,56.51,97,11.14-.25,22.35-.39,33.64-.39,16.99,0,33.8,.3,50.44,.87,30.99-23.31,49.28-67.9,56.95-90.48v-22.68h16.46v17.15c8.79,22.52,35.82,83.21,80.38,109.63,9.11,1.34,18.11,2.76,27.01,4.27v3.97s0,0,0,0h0c3.9,0,7.05,3.16,7.05,7.06v17.66s-7.94-1-7.94-1c-34.32-4.32-69.99-7.16-106.51-8.56v45.02h-16.46Zm-214-50.57v-19.07c-15.81,1.15-31.45,2.56-46.89,4.22-11.28,14.03-23.68,24.34-36.8,27.06,.5,1.02,.98,2.04,1.47,3.06,25.75-6.06,53.3-11.17,82.22-15.26Zm96.15-9.52c-9.67-2.57-18.47-7.08-26.45-12.93-17.91,.44-35.67,1.19-53.23,2.27v17.99c25.68-3.24,52.34-5.69,79.69-7.33Zm211.45,.73c-25.25-3.68-50.99-6.65-77.13-8.89v6.76c28.77,1.09,57.02,3.09,84.52,5.97-2.51-1.18-4.98-2.46-7.39-3.83Zm-93.59-10.2c-17.78-1.31-35.74-2.3-53.85-2.95-6.27,4.37-13.03,7.97-20.29,10.53,12.6-.34,25.29-.53,38.08-.53,12.09,0,24.11,.17,36.06,.48v-7.53Zm16.46-84.3v76.18c20.35,1.74,40.32,3.89,59.86,6.44-28.49-23.21-48.33-57.88-59.86-82.63Zm-59.2,72.38c14.4,.63,28.66,1.46,42.74,2.49v-66.95c-9.07,20.98-23.03,46.31-42.74,64.46Zm-83.78,8.13c8.28,3.98,17.31,6.33,27.16,6.33s18.98-2.24,27.35-6.03c-11.74-.28-23.53-.43-35.39-.43-6.39,0-12.77,.06-19.13,.14Zm-71.02-77.22v70.41c14-.86,28.17-1.52,42.47-1.97-19.8-19.13-33.61-46.12-42.47-68.44Zm-55.76,74.94c12.94-1.31,26.04-2.47,39.3-3.43v-74.89c-9.16,23.66-22.78,54.39-39.3,78.32Zm-55.51,16.23c2.29,4.03,4.54,8.08,6.68,12.19,9.35-.92,18.66-7.17,27.6-16.68-11.55,1.36-22.98,2.85-34.28,4.49Zm-78.48,435.07c-.57-.12-1.14-.24-1.71-.37,.57,.12,1.14,.24,1.71,.37Zm-104.72-28.56c-.16-.05-.32-.11-.48-.16,.16,.05,.32,.11,.48,.16Zm33.24,10.51c-.39-.11-.78-.23-1.17-.34,.39,.11,.78,.23,1.17,.34Zm34.99,9.54c-.54-.14-1.08-.27-1.62-.41,.54,.14,1.08,.27,1.62,.41Zm10.13-361.22c-3.2-6.47-6.64-12.82-10.36-19.01-14.77,5.41-29.34,11.33-43.57,17.99l-.68-1.51c14.4-6.33,29.1-11.92,43.97-16.97-4.05-6.71-8.41-13.22-13.03-19.56-32.22,8.74-62.54,18.83-90.55,30.2-53.96,21.9-96.2,47.27-125.54,75.42-29.35,28.16-44.23,57.74-44.23,87.93s14.88,59.77,44.23,87.93c29.34,28.15,71.58,53.52,125.54,75.42,112.17,45.51,261.5,70.58,420.49,70.58,76.73,0,151.32-5.83,221.84-17.33v-68.39l-48.09,4.67-1.9-22.07,49.99-6.03v-61.45c-48.14,5.61-98.71,8.45-150.5,8.45-116.94,0-227-14.51-309.92-40.85-40.89-12.99-73.15-28.23-95.87-45.3-25.14-18.88-37.88-39.48-37.88-61.22s12.75-42.34,37.88-61.22c8.17-6.14,17.6-12.03,28.19-17.68ZM338.02,1344.52h-17.92v132.33h17.92v-132.33Zm42.76,42.2c-.55-2.28-2-3.42-4.34-3.42h-9.88v93.55h16.53v-68.89c3.57-4,7.46-7.17,11.68-9.51,4.22-2.34,8.76-3.51,13.62-3.51,6.59,0,11.5,1.96,14.73,5.86,3.23,3.91,4.85,9.4,4.85,16.48v59.56h16.53v-59.56c0-5.29-.68-10.13-2.03-14.5-1.36-4.37-3.34-8.11-5.96-11.22-2.62-3.11-5.88-5.51-9.79-7.2-3.91-1.69-8.42-2.54-13.53-2.54-3.32,0-6.42,.35-9.28,1.06-2.86,.71-5.57,1.72-8.13,3.05-2.56,1.32-4.97,2.91-7.25,4.76-2.28,1.85-4.43,3.91-6.46,6.19l-1.29-10.16Zm142.4,.28c-2.89-1.72-6.09-3.03-9.6-3.92-3.51-.89-7.3-1.34-11.36-1.34-5.17,0-9.93,.71-14.27,2.12-4.34,1.42-8.08,3.43-11.22,6.05-3.14,2.62-5.59,5.79-7.34,9.51-1.75,3.73-2.63,7.87-2.63,12.42,0,5.66,1.29,10.64,3.88,14.91,2.59,4.28,6.19,7.71,10.8,10.3-1.97,.99-3.69,2.12-5.17,3.42s-2.72,2.66-3.74,4.11c-1.02,1.45-1.77,2.89-2.26,4.34-.49,1.45-.74,2.85-.74,4.2,0,3.51,.82,6.3,2.45,8.36,1.63,2.06,3.83,3.71,6.6,4.94-5.05,1.91-9.02,4.46-11.91,7.66-2.89,3.2-4.34,7.11-4.34,11.73,0,3.26,.85,6.39,2.54,9.37,1.69,2.99,4.23,5.62,7.62,7.9,3.38,2.28,7.63,4.09,12.74,5.45,5.11,1.35,11.08,2.03,17.92,2.03s12.97-.88,18.42-2.63c5.45-1.75,10.05-4.09,13.81-7.02,3.75-2.92,6.63-6.27,8.63-10.02,2-3.76,3-7.63,3-11.64,0-4.31-.91-7.82-2.72-10.53-1.82-2.71-4.2-4.83-7.16-6.37-2.96-1.54-6.33-2.65-10.11-3.32-3.79-.68-7.66-1.15-11.64-1.43-3.97-.28-7.85-.48-11.64-.6-3.79-.12-7.16-.43-10.11-.92-2.95-.49-5.34-1.31-7.16-2.45-1.82-1.14-2.72-2.82-2.72-5.03,0-1.42,.52-2.82,1.57-4.2,1.05-1.39,2.55-2.69,4.52-3.92,3.88,1.05,8,1.57,12.37,1.57,5.05,0,9.73-.71,14.04-2.12,4.31-1.42,8-3.45,11.08-6.09,3.08-2.65,5.49-5.83,7.25-9.56,1.75-3.72,2.63-7.86,2.63-12.42,0-4.92-1.05-9.42-3.14-13.48l10.62-1.39c2.59-.55,3.88-1.85,3.88-3.88v-6.09h-25.39Zm6.74,101.67c-1.29,2.03-3.16,3.79-5.59,5.26-2.43,1.48-5.4,2.62-8.91,3.42-3.51,.8-7.48,1.2-11.91,1.2s-8.51-.39-11.87-1.15c-3.36-.77-6.14-1.82-8.36-3.14-2.22-1.32-3.86-2.89-4.94-4.71-1.08-1.82-1.62-3.77-1.62-5.86,0-3.26,1.09-6.11,3.28-8.54,2.18-2.43,5-4.45,8.45-6.05,3.08,.43,6.28,.74,9.6,.92,3.32,.18,6.6,.37,9.83,.55,3.23,.18,6.29,.45,9.19,.79,2.89,.34,5.43,.91,7.62,1.71,2.18,.8,3.92,1.91,5.22,3.32,1.29,1.42,1.94,3.26,1.94,5.54,0,2.46-.65,4.71-1.94,6.74Zm-36.48-58.92c-2.53-.92-4.65-2.22-6.37-3.88-1.72-1.66-3.03-3.65-3.92-5.96-.89-2.31-1.34-4.85-1.34-7.62,0-5.73,1.74-10.28,5.22-13.67,3.48-3.39,8.54-5.08,15.19-5.08s11.62,1.69,15.1,5.08c3.48,3.39,5.22,7.94,5.22,13.67,0,2.77-.43,5.31-1.29,7.62-.86,2.31-2.16,4.29-3.88,5.96-1.72,1.66-3.85,2.95-6.37,3.88-2.53,.92-5.45,1.39-8.77,1.39s-6.25-.46-8.77-1.39Zm142.03,27.98c-.74-1.05-1.79-1.57-3.14-1.57-1.05,0-2.29,.48-3.74,1.43-1.45,.96-3.25,1.99-5.4,3.09-2.16,1.11-4.73,2.14-7.71,3.09-2.99,.96-6.54,1.43-10.67,1.43-4.43,0-8.44-.72-12.01-2.17-3.57-1.45-6.65-3.63-9.23-6.56-2.59-2.92-4.6-6.57-6.05-10.94-1.45-4.37-2.26-9.51-2.45-15.42h62.52c1.54,0,2.59-.43,3.14-1.29,.55-.86,.83-2.59,.83-5.17,0-6.65-.99-12.57-2.96-17.78-1.97-5.2-4.7-9.57-8.17-13.11-3.48-3.54-7.6-6.25-12.37-8.13-4.77-1.88-9.96-2.82-15.56-2.82-6.77,0-12.87,1.19-18.28,3.56-5.42,2.37-10.01,5.63-13.76,9.79-3.76,4.16-6.63,9.07-8.63,14.73-2,5.66-3,11.76-3,18.28,0,8.07,1.11,15.21,3.32,21.42,2.22,6.22,5.31,11.44,9.28,15.65,3.97,4.22,8.68,7.42,14.13,9.6s11.4,3.28,17.87,3.28c3.39,0,6.8-.29,10.25-.88,3.45-.58,6.79-1.46,10.02-2.63,3.23-1.17,6.26-2.66,9.1-4.48,2.83-1.81,5.26-3.96,7.3-6.42l-4.62-6Zm-59.84-37.86c1.11-8.13,3.95-14.48,8.54-19.07,4.59-4.59,10.82-6.88,18.7-6.88,3.75,0,7.11,.63,10.07,1.89,2.95,1.26,5.46,3.05,7.53,5.36,2.06,2.31,3.63,5.05,4.71,8.22,1.08,3.17,1.62,6.66,1.62,10.48h-51.16Zm100.29-33.15c-.55-2.28-2-3.42-4.34-3.42h-9.88v93.55h16.53v-68.89c3.57-4,7.46-7.17,11.68-9.51,4.22-2.34,8.76-3.51,13.62-3.51,6.59,0,11.5,1.96,14.73,5.86,3.23,3.91,4.85,9.4,4.85,16.48v59.56h16.53v-59.56c0-5.29-.68-10.13-2.03-14.5-1.36-4.37-3.34-8.11-5.96-11.22-2.62-3.11-5.88-5.51-9.79-7.2-3.91-1.69-8.42-2.54-13.53-2.54-3.32,0-6.42,.35-9.28,1.06-2.86,.71-5.57,1.72-8.13,3.05-2.56,1.32-4.97,2.91-7.25,4.76-2.28,1.85-4.43,3.91-6.46,6.19l-1.29-10.16Zm108.74-37.35c-.65-1.45-1.51-2.71-2.59-3.79-1.08-1.08-2.34-1.92-3.79-2.54-1.45-.61-2.97-.92-4.57-.92s-3.09,.31-4.48,.92c-1.39,.62-2.6,1.46-3.65,2.54-1.05,1.08-1.88,2.34-2.49,3.79-.62,1.45-.92,2.97-.92,4.57s.31,3.09,.92,4.48c.61,1.39,1.45,2.62,2.49,3.69,1.05,1.08,2.26,1.92,3.65,2.54,1.39,.62,2.88,.92,4.48,.92s3.12-.31,4.57-.92c1.45-.61,2.71-1.46,3.79-2.54,1.08-1.08,1.94-2.31,2.59-3.69s.97-2.88,.97-4.48-.32-3.12-.97-4.57Zm-18.98,33.94v93.55h16.44v-93.55h-16.44Zm114.69,74.43c-.74-1.05-1.79-1.57-3.14-1.57-1.05,0-2.29,.48-3.74,1.43-1.45,.96-3.25,1.99-5.4,3.09-2.16,1.11-4.73,2.14-7.71,3.09-2.99,.96-6.54,1.43-10.67,1.43-4.43,0-8.44-.72-12.01-2.17-3.57-1.45-6.65-3.63-9.23-6.56-2.59-2.92-4.6-6.57-6.05-10.94-1.45-4.37-2.26-9.51-2.45-15.42h62.52c1.54,0,2.59-.43,3.14-1.29,.55-.86,.83-2.59,.83-5.17,0-6.65-.99-12.57-2.96-17.78-1.97-5.2-4.7-9.57-8.17-13.11-3.48-3.54-7.6-6.25-12.37-8.13-4.77-1.88-9.96-2.82-15.56-2.82-6.77,0-12.87,1.19-18.28,3.56-5.42,2.37-10.01,5.63-13.76,9.79-3.76,4.16-6.63,9.07-8.63,14.73-2,5.66-3,11.76-3,18.28,0,8.07,1.11,15.21,3.32,21.42,2.22,6.22,5.31,11.44,9.28,15.65,3.97,4.22,8.68,7.42,14.13,9.6s11.4,3.28,17.87,3.28c3.39,0,6.8-.29,10.25-.88,3.45-.58,6.79-1.46,10.02-2.63,3.23-1.17,6.26-2.66,9.1-4.48,2.83-1.81,5.26-3.96,7.3-6.42l-4.62-6Zm-59.84-37.86c1.11-8.13,3.95-14.48,8.54-19.07,4.59-4.59,10.82-6.88,18.7-6.88,3.75,0,7.11,.63,10.07,1.89,2.95,1.26,5.46,3.05,7.53,5.36,2.06,2.31,3.63,5.05,4.71,8.22,1.08,3.17,1.62,6.66,1.62,10.48h-51.16Zm100.56-32.04c-.25-1.66-.71-2.83-1.39-3.51-.68-.68-1.91-1.02-3.69-1.02h-9.42v93.55h16.53v-59.1c1.17-3.2,2.48-6.05,3.92-8.54,1.45-2.49,3.08-4.59,4.89-6.28,1.82-1.69,3.88-2.97,6.19-3.83,2.31-.86,4.94-1.29,7.9-1.29,2.09,0,3.97,.18,5.63,.55s2.92,.55,3.79,.55c1.48,0,2.4-.77,2.77-2.31l1.2-12.28c-1.42-.92-3.03-1.6-4.85-2.03-1.82-.43-3.71-.65-5.68-.65-6.22,0-11.48,1.8-15.79,5.4-4.31,3.6-7.94,8.6-10.9,15.01l-1.11-14.22Zm73.14-44.79c-1.97,0-3.46,.32-4.48,.97s-1.96,1.68-2.82,3.09l-13.67,22.35h9.79c1.29,0,2.35-.2,3.19-.6,.83-.4,1.68-1.06,2.54-1.99l21.52-23.83h-16.07Zm-19.49,40.26v93.55h16.53v-93.55h-16.53Zm43.95,18.47c.55,.86,1.23,1.59,2.03,2.17,.8,.59,1.75,.88,2.86,.88,1.42,0,2.85-.51,4.29-1.52,1.45-1.02,3.17-2.15,5.17-3.42,2-1.26,4.37-2.4,7.11-3.42,2.74-1.02,6.14-1.52,10.2-1.52,6.03,0,10.62,1.86,13.76,5.59,3.14,3.73,4.71,9.22,4.71,16.48v7.3c-10.65,.25-19.64,1.22-26.96,2.91-7.33,1.69-13.27,3.86-17.82,6.51-4.56,2.65-7.85,5.68-9.88,9.1s-3.05,6.97-3.05,10.67c0,4.25,.69,7.93,2.08,11.04,1.39,3.11,3.26,5.68,5.63,7.71,2.37,2.03,5.16,3.56,8.36,4.57,3.2,1.02,6.62,1.52,10.25,1.52s6.82-.32,9.74-.97c2.92-.65,5.68-1.57,8.27-2.77,2.59-1.2,5.05-2.68,7.39-4.43,2.34-1.75,4.74-3.77,7.2-6.05l1.85,8.87c.49,1.54,1.17,2.57,2.03,3.09,.86,.52,2.09,.79,3.69,.79h7.3v-59.84c0-5.23-.71-10.03-2.12-14.41-1.42-4.37-3.51-8.09-6.28-11.17-2.77-3.08-6.19-5.48-10.25-7.2-4.06-1.72-8.71-2.59-13.94-2.59-7.26,0-13.88,1.23-19.85,3.69-5.97,2.46-11.54,6.19-16.71,11.17l2.96,5.26Zm50.14,52.36c-1.85,1.97-3.74,3.73-5.68,5.26-1.94,1.54-3.97,2.86-6.09,3.97-2.12,1.11-4.39,1.96-6.79,2.54-2.4,.59-5.05,.88-7.94,.88-2.16,0-4.17-.26-6.05-.79-1.88-.52-3.51-1.35-4.89-2.49-1.39-1.14-2.48-2.6-3.28-4.39-.8-1.78-1.2-3.91-1.2-6.37,0-2.59,.75-4.92,2.26-7.02,1.51-2.09,3.94-3.91,7.3-5.45,3.35-1.54,7.69-2.78,13.02-3.74,5.32-.95,11.77-1.55,19.35-1.8v19.39Zm182.01-3.23c-2.28,2.09-4.57,3.89-6.88,5.4-2.31,1.51-4.8,2.76-7.48,3.74-2.68,.99-5.6,1.71-8.77,2.17-3.17,.46-6.73,.69-10.67,.69-6.46,0-12.48-1.17-18.05-3.51-5.57-2.34-10.4-5.74-14.5-10.2-4.09-4.46-7.33-9.93-9.7-16.39-2.37-6.46-3.56-13.82-3.56-22.07s1.14-15.42,3.42-21.89c2.28-6.46,5.46-11.94,9.56-16.44,4.09-4.49,8.97-7.93,14.64-10.3,5.66-2.37,11.91-3.56,18.75-3.56,5.66,0,10.44,.6,14.31,1.8,3.88,1.2,7.11,2.54,9.7,4.02,2.59,1.48,4.68,2.82,6.28,4.02,1.6,1.2,2.96,1.8,4.06,1.8,.98,0,1.77-.2,2.35-.6,.58-.4,1.06-.91,1.43-1.52l5.91-8.22c-5.48-5.17-11.82-9.26-19.02-12.28-7.2-3.02-15.51-4.52-24.93-4.52s-18.38,1.65-26.32,4.94c-7.94,3.29-14.76,7.93-20.45,13.9-5.7,5.97-10.11,13.11-13.25,21.42s-4.71,17.45-4.71,27.43,1.51,19.12,4.52,27.43c3.02,8.31,7.26,15.44,12.74,21.38,5.48,5.94,12.1,10.56,19.85,13.85,7.76,3.29,16.38,4.94,25.86,4.94,10.96,0,20.3-1.75,28.03-5.26,7.73-3.51,14.3-8.4,19.72-14.68l-7.11-7.66c-.74-.8-1.6-1.2-2.59-1.2-1.05,0-2.09,.46-3.14,1.39Zm49.64-101.53c-.65-1.45-1.51-2.71-2.59-3.79-1.08-1.08-2.34-1.92-3.79-2.54-1.45-.61-2.97-.92-4.57-.92s-3.09,.31-4.48,.92c-1.39,.62-2.6,1.46-3.65,2.54-1.05,1.08-1.88,2.34-2.49,3.79-.62,1.45-.92,2.97-.92,4.57s.31,3.09,.92,4.48c.61,1.39,1.45,2.62,2.49,3.69,1.05,1.08,2.26,1.92,3.65,2.54,1.39,.62,2.88,.92,4.48,.92s3.12-.31,4.57-.92c1.45-.61,2.71-1.46,3.79-2.54,1.08-1.08,1.94-2.31,2.59-3.69s.97-2.88,.97-4.48-.32-3.12-.97-4.57Zm-18.98,33.94v93.55h16.44v-93.55h-16.44Zm110.72,0c-1.17,0-2.19,.32-3.05,.97-.86,.65-1.48,1.46-1.85,2.45l-24.01,60.21c-.8,2.28-1.48,4.49-2.03,6.65-.55,2.16-1.08,4.31-1.57,6.46-.49-2.15-1.02-4.31-1.57-6.46-.55-2.15-1.2-4.37-1.94-6.65l-23.73-60.21c-.31-.92-.89-1.72-1.75-2.4-.86-.68-1.97-1.02-3.32-1.02h-13.39l38.14,93.55h14.78l38.14-93.55h-12.84Zm47.88-33.94c-.65-1.45-1.51-2.71-2.59-3.79-1.08-1.08-2.34-1.92-3.79-2.54-1.45-.61-2.97-.92-4.57-.92s-3.09,.31-4.48,.92c-1.39,.62-2.6,1.46-3.65,2.54-1.05,1.08-1.88,2.34-2.49,3.79-.62,1.45-.92,2.97-.92,4.57s.31,3.09,.92,4.48c.61,1.39,1.45,2.62,2.49,3.69,1.05,1.08,2.26,1.92,3.65,2.54,1.39,.62,2.88,.92,4.48,.92s3.12-.31,4.57-.92c1.45-.61,2.71-1.46,3.79-2.54,1.08-1.08,1.94-2.31,2.59-3.69s.97-2.88,.97-4.48-.32-3.12-.97-4.57Zm-18.98,33.94v93.55h16.44v-93.55h-16.44Zm43.96-42.48v136.02h16.44v-136.02h-16.44Zm161.6,116.91c-.74-1.05-1.79-1.57-3.14-1.57-1.05,0-2.29,.48-3.74,1.43-1.45,.96-3.25,1.99-5.4,3.09-2.16,1.11-4.73,2.14-7.71,3.09-2.99,.96-6.54,1.43-10.67,1.43-4.43,0-8.44-.72-12.01-2.17-3.57-1.45-6.65-3.63-9.23-6.56-2.59-2.92-4.6-6.57-6.05-10.94-1.45-4.37-2.26-9.51-2.45-15.42h62.52c1.54,0,2.59-.43,3.14-1.29,.55-.86,.83-2.59,.83-5.17,0-6.65-.99-12.57-2.96-17.78-1.97-5.2-4.7-9.57-8.17-13.11-3.48-3.54-7.6-6.25-12.37-8.13-4.77-1.88-9.96-2.82-15.56-2.82-6.77,0-12.87,1.19-18.28,3.56-5.42,2.37-10.01,5.63-13.76,9.79-3.76,4.16-6.63,9.07-8.63,14.73-2,5.66-3,11.76-3,18.28,0,8.07,1.11,15.21,3.32,21.42,2.22,6.22,5.31,11.44,9.28,15.65,3.97,4.22,8.68,7.42,14.13,9.6s11.4,3.28,17.87,3.28c3.39,0,6.8-.29,10.25-.88,3.45-.58,6.79-1.46,10.02-2.63,3.23-1.17,6.26-2.66,9.1-4.48,2.83-1.81,5.26-3.96,7.3-6.42l-4.62-6Zm-59.84-37.86c1.11-8.13,3.95-14.48,8.54-19.07,4.59-4.59,10.82-6.88,18.7-6.88,3.75,0,7.11,.63,10.07,1.89,2.95,1.26,5.46,3.05,7.53,5.36,2.06,2.31,3.63,5.05,4.71,8.22,1.08,3.17,1.62,6.66,1.62,10.48h-51.16Zm100.29-33.15c-.55-2.28-2-3.42-4.34-3.42h-9.88v93.55h16.53v-68.89c3.57-4,7.46-7.17,11.68-9.51,4.22-2.34,8.76-3.51,13.62-3.51,6.59,0,11.5,1.96,14.73,5.86,3.23,3.91,4.85,9.4,4.85,16.48v59.56h16.53v-59.56c0-5.29-.68-10.13-2.03-14.5-1.36-4.37-3.34-8.11-5.96-11.22-2.62-3.11-5.88-5.51-9.79-7.2-3.91-1.69-8.42-2.54-13.53-2.54-3.32,0-6.42,.35-9.28,1.06-2.86,.71-5.57,1.72-8.13,3.05-2.56,1.32-4.97,2.91-7.25,4.76-2.28,1.85-4.43,3.91-6.46,6.19l-1.29-10.16Zm-1258.9,220.53c-5.07-12.64-12.2-23.61-21.41-32.91-9.2-9.3-20.29-16.62-33.26-21.96-12.97-5.35-27.36-8.02-43.16-8.02s-30.22,2.65-43.23,7.95c-13.02,5.3-24.15,12.6-33.4,21.89-9.25,9.3-16.41,20.27-21.48,32.91-5.07,12.64-7.6,26.31-7.6,41s2.53,28.36,7.6,41c5.07,12.64,12.22,23.64,21.48,32.98,9.25,9.34,20.38,16.66,33.4,21.96,13.02,5.3,27.42,7.95,43.23,7.95s30.19-2.65,43.16-7.95c12.97-5.3,24.06-12.62,33.26-21.96,9.2-9.34,16.34-20.34,21.41-32.98,5.07-12.64,7.6-26.31,7.6-41s-2.53-28.22-7.6-40.86Zm-44.56,68.12c-2.6,8.04-6.34,14.85-11.23,20.43-4.88,5.58-10.86,9.83-17.92,12.76-7.07,2.93-15.11,4.39-24.13,4.39s-17.22-1.46-24.34-4.39c-7.11-2.93-13.11-7.18-17.99-12.76-4.88-5.58-8.62-12.39-11.23-20.43-2.6-8.04-3.9-17.13-3.9-27.26s1.3-19.08,3.9-27.12c2.6-8.04,6.35-14.85,11.23-20.43s10.88-9.85,17.99-12.83c7.11-2.97,15.22-4.46,24.34-4.46s17.06,1.49,24.13,4.46c7.06,2.98,13.04,7.25,17.92,12.83,4.88,5.58,8.62,12.39,11.23,20.43,2.6,8.04,3.9,17.08,3.9,27.12s-1.3,19.22-3.9,27.26Zm116.17-134.36h-43.23v208.76h28.73c2.79,0,5.02-.56,6.69-1.67,1.67-1.12,2.88-3.16,3.63-6.14l1.53-7.25c2.23,2.51,4.53,4.84,6.9,6.97,2.37,2.14,5,3.97,7.88,5.51,2.88,1.53,6.04,2.72,9.48,3.56,3.44,.84,7.34,1.26,11.71,1.26,9.11,0,17.43-1.88,24.96-5.65,7.53-3.77,14.02-9.06,19.45-15.9s9.64-15.04,12.62-24.61c2.97-9.57,4.46-20.22,4.46-31.94,0-10.78-1.28-20.55-3.83-29.29-2.56-8.74-6.21-16.2-10.95-22.38-4.74-6.18-10.46-10.95-17.15-14.29s-14.13-5.02-22.31-5.02-15.6,1.6-22.24,4.81c-6.65,3.21-12.76,7.46-18.34,12.76v-79.49Zm0,108.08c3.81-4.46,7.67-7.86,11.57-10.18,3.9-2.32,8.51-3.49,13.81-3.49,4,0,7.55,.72,10.67,2.16,3.11,1.44,5.72,3.77,7.81,6.97,2.09,3.21,3.67,7.35,4.74,12.41,1.07,5.07,1.6,11.23,1.6,18.48,0,8.37-.7,15.41-2.09,21.13-1.39,5.72-3.32,10.32-5.79,13.81-2.46,3.49-5.42,6-8.86,7.53-3.44,1.53-7.21,2.3-11.3,2.3s-7.76-.74-11.57-2.23c-3.81-1.49-7.35-4-10.6-7.53v-61.36Zm155.21-33.75c-.37-1.86-.81-3.44-1.32-4.74-.51-1.3-1.26-2.35-2.23-3.14-.98-.79-2.19-1.37-3.63-1.74-1.44-.37-3.23-.56-5.37-.56h-25.66v144.61h43.23v-87.86c2.6-5.95,5.79-10.6,9.55-13.95,3.77-3.35,8.81-5.02,15.13-5.02,1.12,0,2.35,.07,3.7,.21,1.35,.14,2.67,.28,3.97,.42,1.3,.14,2.56,.26,3.77,.35,1.21,.09,2.18,.14,2.93,.14,1.86,0,3.32-.37,4.39-1.12,1.07-.74,1.83-2.14,2.3-4.18l2.79-31.8c-4.09-3.07-9.39-4.6-15.9-4.6-7.53,0-14.2,2.23-20.01,6.69-5.81,4.46-10.95,10.6-15.41,18.41l-2.23-12.13Zm71.4,23.43c1.3,2.05,2.97,3.81,5.02,5.3,2.04,1.49,4.55,2.23,7.53,2.23,3.35,0,6.23-.56,8.65-1.67,2.42-1.12,4.9-2.37,7.46-3.77,2.56-1.39,5.46-2.65,8.72-3.77,3.25-1.12,7.44-1.67,12.55-1.67,6.41,0,11.37,1.88,14.85,5.65,3.49,3.77,5.23,9.88,5.23,18.34v6.14c-16.55,.37-30.26,2.05-41.14,5.02-10.88,2.98-19.52,6.67-25.94,11.09-6.41,4.42-10.93,9.3-13.53,14.64-2.6,5.35-3.9,10.62-3.9,15.83,0,6.51,1.02,12.25,3.07,17.22,2.04,4.97,4.95,9.13,8.72,12.48,3.77,3.35,8.34,5.88,13.74,7.6,5.39,1.72,11.39,2.58,17.99,2.58,4.93,0,9.41-.4,13.46-1.19,4.04-.79,7.86-2,11.44-3.63,3.58-1.63,7.04-3.6,10.39-5.93,3.35-2.32,6.83-5.02,10.46-8.09l3.07,7.95c1.39,3.53,3.14,5.86,5.23,6.97s5.18,1.67,9.27,1.67h19.8v-90.37c0-8.27-1.3-15.9-3.9-22.87-2.6-6.97-6.34-12.99-11.23-18.06-4.88-5.07-10.83-9.02-17.85-11.85-7.02-2.83-14.9-4.25-23.64-4.25-12.18,0-23.59,1.88-34.24,5.65-10.65,3.77-20.34,9.51-29.08,17.22l7.81,13.53Zm70.01,72.24c-4.28,4.37-8.51,7.53-12.69,9.48s-9.06,2.93-14.64,2.93c-5.21,0-9.16-1-11.85-3-2.7-2-4.04-5.46-4.04-10.39,0-2.51,.63-4.83,1.88-6.97,1.26-2.14,3.51-4.04,6.76-5.72,3.25-1.67,7.67-3.07,13.25-4.18,5.58-1.12,12.69-1.86,21.34-2.23v20.08Zm171.39-89.39c-2.7-2.7-5.81-5.18-9.34-7.46-3.53-2.28-7.44-4.25-11.71-5.93-4.28-1.67-8.86-2.97-13.74-3.9-4.88-.93-9.93-1.39-15.13-1.39-9.58,0-17.94,1.23-25.1,3.7-7.16,2.46-13.11,5.79-17.85,9.97-4.74,4.18-8.3,9.04-10.67,14.57-2.37,5.53-3.56,11.37-3.56,17.5,0,6.6,.98,12.23,2.93,16.87,1.95,4.65,4.51,8.58,7.67,11.78,3.16,3.21,6.76,5.86,10.81,7.95,4.04,2.09,8.16,3.88,12.34,5.37,4.18,1.49,8.3,2.81,12.34,3.97,4.04,1.16,7.65,2.42,10.81,3.77,3.16,1.35,5.72,2.95,7.67,4.81,1.95,1.86,2.93,4.23,2.93,7.11,0,1.58-.33,3.12-.98,4.6-.65,1.49-1.67,2.84-3.07,4.04-1.39,1.21-3.26,2.16-5.58,2.86-2.32,.7-5.16,1.05-8.51,1.05-4.74,0-8.67-.56-11.78-1.67-3.12-1.12-5.84-2.32-8.16-3.63-2.33-1.3-4.49-2.51-6.48-3.63-2-1.12-4.25-1.67-6.76-1.67-2.7,0-4.91,.54-6.62,1.6-1.72,1.07-3.14,2.53-4.25,4.39l-10.04,15.9c2.79,2.51,6.14,4.86,10.04,7.04,3.9,2.19,8.16,4.07,12.76,5.65,4.6,1.58,9.37,2.84,14.29,3.77,4.93,.93,9.85,1.39,14.78,1.39,9.85,0,18.57-1.21,26.15-3.63,7.58-2.42,13.95-5.81,19.11-10.18,5.16-4.37,9.04-9.57,11.64-15.62,2.6-6.04,3.9-12.64,3.9-19.8,0-5.86-.95-10.88-2.86-15.06-1.91-4.18-4.44-7.74-7.6-10.67-3.16-2.93-6.74-5.39-10.74-7.39-4-2-8.09-3.74-12.27-5.23-4.18-1.49-8.28-2.83-12.27-4.04-4-1.21-7.58-2.49-10.74-3.84-3.16-1.35-5.7-2.9-7.6-4.67-1.91-1.76-2.86-4-2.86-6.69,0-3.72,1.46-6.62,4.39-8.72,2.93-2.09,7.13-3.14,12.62-3.14,3.81,0,7.2,.44,10.18,1.32,2.97,.88,5.65,1.84,8.02,2.86,2.37,1.02,4.58,1.98,6.62,2.86,2.04,.88,4.09,1.32,6.14,1.32s3.56-.37,4.81-1.12c1.26-.74,2.44-2,3.56-3.77l9.76-15.2Zm224.94,76.49c-1.3,.61-2.51,1.37-3.63,2.3-2.79,2.51-5.53,4.58-8.23,6.21-2.7,1.63-5.58,2.93-8.65,3.9-3.07,.98-6.37,1.67-9.9,2.09-3.53,.42-7.44,.63-11.71,.63-7.44,0-14.41-1.44-20.92-4.32-6.51-2.88-12.2-7.09-17.08-12.62-4.88-5.53-8.74-12.34-11.58-20.43-2.84-8.09-4.25-17.34-4.25-27.75s1.28-19.5,3.83-27.54c2.56-8.04,6.18-14.83,10.88-20.36,4.69-5.53,10.27-9.74,16.73-12.62,6.46-2.88,13.6-4.32,21.41-4.32,4.93,0,9.23,.37,12.9,1.12,3.67,.75,6.88,1.65,9.62,2.72,2.74,1.07,5.11,2.23,7.11,3.49,2,1.26,3.84,2.42,5.51,3.49,1.67,1.07,3.25,1.98,4.74,2.72,1.49,.75,3.07,1.12,4.74,1.12,2.51,0,4.46-.53,5.86-1.6,1.39-1.07,2.6-2.25,3.63-3.56l15.9-21.34c-3.81-3.9-8.18-7.53-13.11-10.88-4.93-3.35-10.32-6.21-16.18-8.58-5.86-2.37-12.16-4.23-18.9-5.58-6.74-1.35-13.92-2.02-21.55-2.02-14.97,0-28.68,2.56-41.14,7.67-12.46,5.11-23.15,12.27-32.07,21.48-8.93,9.2-15.85,20.15-20.78,32.84-4.93,12.69-7.39,26.61-7.39,41.77s2.28,28.66,6.83,41.35c4.55,12.69,11.09,23.66,19.59,32.91,8.51,9.25,18.87,16.5,31.1,21.76,12.22,5.25,26.05,7.88,41.49,7.88,16.83,0,31.4-2.72,43.72-8.16,12.32-5.44,22.57-13.5,30.75-24.2l-18.69-19.66c-1.02-1.02-2.09-1.74-3.21-2.16s-2.23-.63-3.35-.63c-1.39,0-2.74,.3-4.04,.91Zm91.48-142.45c-1.39-3.07-3.3-5.76-5.72-8.09-2.42-2.32-5.23-4.14-8.44-5.44-3.21-1.3-6.62-1.95-10.25-1.95s-6.83,.65-9.9,1.95c-3.07,1.3-5.79,3.12-8.16,5.44-2.37,2.32-4.23,5.02-5.58,8.09-1.35,3.07-2.02,6.37-2.02,9.9s.67,6.67,2.02,9.69c1.35,3.02,3.21,5.67,5.58,7.95,2.37,2.28,5.09,4.09,8.16,5.44,3.07,1.35,6.37,2.02,9.9,2.02s7.04-.67,10.25-2.02c3.21-1.35,6.02-3.16,8.44-5.44,2.42-2.28,4.32-4.93,5.72-7.95,1.39-3.02,2.09-6.25,2.09-9.69s-.7-6.83-2.09-9.9Zm-45.6,49.51v144.61h43.23v-144.61h-43.23Zm175.43,0c-2.79,0-5.21,.72-7.25,2.16-2.05,1.44-3.44,3.23-4.18,5.37l-20.92,64.85c-3.63,10.32-6.46,20.5-8.51,30.54-1.02-5.02-2.21-10.04-3.56-15.06-1.35-5.02-2.91-10.18-4.67-15.48l-20.08-64.85c-.75-2.14-2.16-3.93-4.25-5.37-2.09-1.44-4.67-2.16-7.74-2.16h-35.98l56.06,144.61h39.33l56.06-144.61h-34.31Zm94.97-49.51c-1.39-3.07-3.3-5.76-5.72-8.09-2.42-2.32-5.23-4.14-8.44-5.44-3.21-1.3-6.62-1.95-10.25-1.95s-6.83,.65-9.9,1.95c-3.07,1.3-5.79,3.12-8.16,5.44-2.37,2.32-4.23,5.02-5.58,8.09-1.35,3.07-2.02,6.37-2.02,9.9s.67,6.67,2.02,9.69c1.35,3.02,3.21,5.67,5.58,7.95,2.37,2.28,5.09,4.09,8.16,5.44,3.07,1.35,6.37,2.02,9.9,2.02s7.04-.67,10.25-2.02c3.21-1.35,6.02-3.16,8.44-5.44,2.42-2.28,4.32-4.93,5.72-7.95,1.39-3.02,2.09-6.25,2.09-9.69s-.7-6.83-2.09-9.9Zm-45.6,49.51v144.61h43.23v-144.61h-43.23Zm73.49-64.15v208.76h43.23v-208.76h-43.23Zm191.47,144.2c1.95,0,3.56-.23,4.81-.7,1.26-.46,2.25-1.3,3-2.51,.74-1.21,1.26-2.83,1.53-4.88,.28-2.04,.42-4.69,.42-7.95,0-10.41-1.6-19.73-4.81-27.96-3.21-8.23-7.67-15.18-13.39-20.85-5.72-5.67-12.55-9.99-20.5-12.97-7.95-2.97-16.71-4.46-26.29-4.46-11.07,0-20.99,1.91-29.77,5.72-8.79,3.81-16.27,8.97-22.45,15.48-6.18,6.51-10.93,14.09-14.22,22.73-3.3,8.65-4.95,17.8-4.95,27.47,0,12.83,1.93,24.08,5.79,33.75,3.86,9.67,9.11,17.76,15.76,24.27,6.65,6.51,14.41,11.41,23.29,14.71,8.88,3.3,18.38,4.95,28.52,4.95,4.93,0,10.11-.35,15.55-1.05,5.44-.7,10.88-1.95,16.32-3.77s10.74-4.32,15.9-7.53c5.16-3.21,9.97-7.37,14.43-12.48l-12.55-15.48c-1.77-2.51-4.37-3.77-7.81-3.77-2.6,0-5.09,.61-7.46,1.81-2.37,1.21-4.97,2.56-7.81,4.04-2.84,1.49-6.07,2.84-9.69,4.04-3.63,1.21-7.95,1.81-12.97,1.81-9.39,0-17.06-2.72-23.01-8.16-5.95-5.44-9.62-14.2-11.02-26.29h83.39Zm-82.84-25.1c1.49-8.83,4.55-15.6,9.2-20.29,4.65-4.69,11.06-7.04,19.24-7.04,4.65,0,8.6,.79,11.85,2.37,3.25,1.58,5.88,3.65,7.88,6.21,2,2.56,3.44,5.46,4.32,8.72,.88,3.26,1.32,6.6,1.32,10.04h-53.83Zm215.87-38.49c-2.7-2.7-5.81-5.18-9.34-7.46-3.53-2.28-7.44-4.25-11.71-5.93-4.28-1.67-8.86-2.97-13.74-3.9-4.88-.93-9.93-1.39-15.13-1.39-9.58,0-17.94,1.23-25.1,3.7-7.16,2.46-13.11,5.79-17.85,9.97-4.74,4.18-8.3,9.04-10.67,14.57-2.37,5.53-3.56,11.37-3.56,17.5,0,6.6,.98,12.23,2.93,16.87,1.95,4.65,4.51,8.58,7.67,11.78,3.16,3.21,6.76,5.86,10.81,7.95,4.04,2.09,8.16,3.88,12.34,5.37,4.18,1.49,8.3,2.81,12.34,3.97,4.04,1.16,7.65,2.42,10.81,3.77,3.16,1.35,5.72,2.95,7.67,4.81,1.95,1.86,2.93,4.23,2.93,7.11,0,1.58-.33,3.12-.98,4.6-.65,1.49-1.67,2.84-3.07,4.04-1.39,1.21-3.26,2.16-5.58,2.86-2.32,.7-5.16,1.05-8.51,1.05-4.74,0-8.67-.56-11.78-1.67-3.12-1.12-5.84-2.32-8.16-3.63-2.33-1.3-4.49-2.51-6.48-3.63-2-1.12-4.25-1.67-6.76-1.67-2.7,0-4.91,.54-6.62,1.6-1.72,1.07-3.14,2.53-4.25,4.39l-10.04,15.9c2.79,2.51,6.14,4.86,10.04,7.04,3.9,2.19,8.16,4.07,12.76,5.65,4.6,1.58,9.37,2.84,14.29,3.77,4.93,.93,9.85,1.39,14.78,1.39,9.85,0,18.57-1.21,26.15-3.63,7.58-2.42,13.95-5.81,19.11-10.18,5.16-4.37,9.04-9.57,11.64-15.62,2.6-6.04,3.9-12.64,3.9-19.8,0-5.86-.95-10.88-2.86-15.06-1.91-4.18-4.44-7.74-7.6-10.67-3.16-2.93-6.74-5.39-10.74-7.39-4-2-8.09-3.74-12.27-5.23-4.18-1.49-8.28-2.83-12.27-4.04-4-1.21-7.58-2.49-10.74-3.84-3.16-1.35-5.7-2.9-7.6-4.67-1.91-1.76-2.86-4-2.86-6.69,0-3.72,1.46-6.62,4.39-8.72,2.93-2.09,7.13-3.14,12.62-3.14,3.81,0,7.2,.44,10.18,1.32,2.97,.88,5.65,1.84,8.02,2.86,2.37,1.02,4.58,1.98,6.62,2.86,2.04,.88,4.09,1.32,6.14,1.32s3.56-.37,4.81-1.12c1.26-.74,2.44-2,3.56-3.77l9.76-15.2Z" style="filter: url(#drop-shadow-2);"/>
    </g>
  </g>
</svg>