<?xml version="1.0" encoding="UTF-8"?>
<svg id="Layer_2" data-name="Layer 2" xmlns="http://www.w3.org/2000/svg" xmlns:xlink="http://www.w3.org/1999/xlink" viewBox="0 0 2047 768.88">
  <defs>
    <clipPath id="clippath">
      <path d="M373.91,350.5l-100.34-24.97c-1.81-.45-3.48-.22-4.8,.53-1.81,1.03-38.31,21.59-39.65,22.4-1.73,1.05-2.83,3.01-2.83,5.52v118.42c0,4.45,3.48,8.92,7.77,9.99l100.34,24.97c1.84,.46,3.54,.22,4.87-.56,1.77-1.04,38.25-21.55,39.59-22.36,1.73-1.05,2.83-3.01,2.83-5.51v-118.42c0-4.45-3.48-8.92-7.77-9.99Z" style="fill: none;"/>
    </clipPath>
    <clipPath id="clippath-1">
      <path d="M393.96,350.5l100.34-24.97c1.81-.45,3.48-.22,4.8,.53,1.81,1.03,38.31,21.59,39.65,22.4,1.73,1.05,2.83,3.01,2.83,5.52v118.42c0,4.45-3.48,8.92-7.77,9.99l-100.34,24.97c-1.84,.46-3.54,.22-4.87-.56-1.77-1.04-38.25-21.55-39.59-22.36-1.73-1.05-2.83-3.01-2.83-5.51v-118.42c0-4.45,3.48-8.92,7.77-9.99Z" style="fill: none;"/>
    </clipPath>
    <clipPath id="clippath-2">
      <rect x="308.71" y="225.78" width="150.38" height="135.28" rx="17.81" ry="17.81" style="fill: none;"/>
    </clipPath>
    <linearGradient id="Degradado_sin_nombre_54" data-name="Degradado sin nombre 54" x1="305.01" y1="334.42" x2="337.87" y2="334.42" gradientUnits="userSpaceOnUse">
      <stop offset="0" stop-color="#161412" stop-opacity=".1"/>
      <stop offset=".08" stop-color="#2a2e31" stop-opacity=".29"/>
      <stop offset=".19" stop-color="#414d55" stop-opacity=".51"/>
      <stop offset=".3" stop-color="#546673" stop-opacity=".68"/>
      <stop offset=".41" stop-color="#637a8a" stop-opacity=".82"/>
      <stop offset=".53" stop-color="#6e889b" stop-opacity=".92"/>
      <stop offset=".65" stop-color="#7490a4" stop-opacity=".98"/>
      <stop offset=".79" stop-color="#7793a8"/>
    </linearGradient>
    <linearGradient id="Degradado_sin_nombre_64" data-name="Degradado sin nombre 64" x1="440.39" y1="342.78" x2="472.85" y2="342.78" gradientUnits="userSpaceOnUse">
      <stop offset=".07" stop-color="#7793a8"/>
      <stop offset=".16" stop-color="#7d98ac" stop-opacity=".96"/>
      <stop offset=".3" stop-color="#8fa6b7" stop-opacity=".84"/>
      <stop offset=".46" stop-color="#acbdca" stop-opacity=".64"/>
      <stop offset=".64" stop-color="#d5dde4" stop-opacity=".38"/>
      <stop offset=".8" stop-color="#fff" stop-opacity=".1"/>
    </linearGradient>
  </defs>
  <g id="Logo-CentroDocenciaCienciasBasicasIngenieria">
    <g id="Logo-CentroDocenciaCienciasBasicasIngenieria-Horizontal-Color-TextoNegro">
      <g id="Texto-CentroDocenciaCienciasBasicasIngenieria">
        <text transform="translate(786.03 254.79)" style="fill: #231f20; font-family: MyriadPro-Bold, &apos;Myriad Pro&apos;; font-size: 143.02px; font-weight: 700;"><tspan x="0" y="0" style="letter-spacing: -.02em;">C</tspan><tspan x="82.52" y="0">e</tspan><tspan x="158.03" y="0" style="letter-spacing: 0em;">n</tspan><tspan x="241.12" y="0">t</tspan><tspan x="293.61" y="0" style="letter-spacing: 0em;">r</tspan><tspan x="346.95" y="0">o de D</tspan><tspan x="747.54" y="0" style="letter-spacing: 0em;">o</tspan><tspan x="830.49" y="0" style="letter-spacing: 0em;">c</tspan><tspan x="893.56" y="0">encia </tspan></text>
        <text transform="translate(786.03 426.41)" style="fill: #231f20; font-family: MyriadPro-Bold, &apos;Myriad Pro&apos;; font-size: 143.02px; font-weight: 700;"><tspan x="0" y="0" style="letter-spacing: 0em;">de C</tspan><tspan x="273.02" y="0">iencias </tspan><tspan x="741.68" y="0" style="letter-spacing: 0em;">B</tspan><tspan x="828.34" y="0">ási</tspan><tspan x="1005.11" y="0" style="letter-spacing: 0em;">c</tspan><tspan x="1070.18" y="0" style="letter-spacing: 0em;">as</tspan></text>
        <text transform="translate(786.03 598.04)" style="fill: #231f20; font-family: MyriadPro-Bold, &apos;Myriad Pro&apos;; font-size: 143.02px; font-weight: 700;"><tspan x="0" y="0">pa</tspan><tspan x="161.04" y="0" style="letter-spacing: -.01em;">r</tspan><tspan x="213.95" y="0">a </tspan><tspan x="318.35" y="0" style="letter-spacing: 0em;">I</tspan><tspan x="359.54" y="0">ngeniería</tspan></text>
      </g>
      <g id="Logo-CentroDocenciaCienciasBasicasIngenieria-Oficial-Color">
        <rect width="767.8" height="768.88" style="fill: none;"/>
        <g id="logo_Cs_Basicas" data-name="logo Cs Basicas">
          <path d="M657.8,365.87l33.22-10.79-8.48-48.1-34.9,1.23-12.7-34.9,27.53-21.5-24.42-42.3-32.38,13.09-23.87-28.45,18.52-29.62-37.42-31.4-25.95,23.38-32.16-18.57,7.27-34.16-45.9-16.71-16.39,30.84-36.58-6.45-4.85-34.59h-48.84l-4.85,34.59-36.58,6.45-16.39-30.84-45.9,16.71,7.27,34.16-32.16,18.57-25.95-23.38-37.42,31.4,18.52,29.62-23.87,28.45-32.38-13.09-24.42,42.3,27.53,21.5-12.7,34.9-34.9-1.23-8.48,48.1,33.22,10.79v37.14l-33.22,10.79,8.48,48.1,34.9-1.23,12.7,34.9-27.53,21.5,24.42,42.3,32.38-13.09,23.87,28.45-18.52,29.62,37.42,31.4,25.95-23.38,32.16,18.57-7.27,34.16,45.9,16.71,16.39-30.84,36.58,6.45,4.85,34.59h48.84l4.85-34.59,36.58-6.45,16.39,30.84,45.9-16.71-7.27-34.16,32.16-18.57,25.95,23.38,37.42-31.4-18.52-29.62,23.87-28.45,32.38,13.09,24.42-42.3-27.53-21.5,12.7-34.9,34.9,1.23,8.48-48.1-33.22-10.79v-37.14Zm-273.9,216.76c-109.25,0-197.81-88.56-197.81-197.81s88.56-197.81,197.81-197.81,197.81,88.56,197.81,197.81-88.56,197.81-197.81,197.81Z" style="fill: #b8bdbf;"/>
          <g>
            <path d="M147.38,450.02c-.84-.84-2-2.89-2.68-5.76-1.92-8.16,3.36-13.83,11.66-15.79,9.94-2.34,16.82,2.1,18.51,9.24,.65,2.77,.45,5.03,.07,6.12l-5.49,.15c.31-1.22,.47-2.85,.03-4.74-1-4.24-4.93-6.79-11.41-5.26-5.84,1.37-8.85,5.04-7.73,9.8,.38,1.61,1.23,3.29,2,4.22l-4.95,2.02Z" style="fill: #1d1d1b;"/>
            <path d="M149.23,458.64l20.63-6.77,1.7,5.19-20.63,6.77-1.7-5.19Zm28.13-3.29c-1.77,.58-3.57-.04-4.13-1.75-.54-1.64,.54-3.2,2.32-3.75,1.85-.64,3.6,0,4.15,1.67,.55,1.67-.5,3.19-2.34,3.83Z" style="fill: #1d1d1b;"/>
            <path d="M163.76,473.36c-2.51,1.25-2.88,3.82-1.89,6.17,.72,1.72,1.6,3,2.7,4.13l-3.94,2.43c-1.51-1.31-2.77-3.17-3.69-5.35-2.31-5.51,.3-10.3,6.56-12.93,5.08-2.13,11.76-1.93,14.13,3.71,2.2,5.24-2,9.34-6.96,11.42-1.06,.45-2.05,.74-2.53,.86l-4.38-10.45Zm6.75,4.15c1.51-.64,3.83-2.23,2.86-4.55-.89-2.12-3.63-1.99-5.36-1.42l2.51,5.97Z" style="fill: #1d1d1b;"/>
            <path d="M177.68,489.55c2.37-1.32,4.35-2.5,5.98-3.5l2.31,4.15-2.48,1.67,.05,.09c1.55-.04,4.25,.51,5.67,3.06,1.75,3.14,.5,6.92-5.08,10.04l-11.25,6.27-2.66-4.78,10.51-5.86c2.44-1.36,3.73-2.98,2.76-4.71-.74-1.32-2.3-1.48-3.56-1.19-.42,.07-1.04,.33-1.58,.63l-10.94,6.09-2.66-4.78,12.92-7.2Z" style="fill: #1d1d1b;"/>
            <path d="M186.84,531.09c-.99-.49-2.41-1.74-3.61-3.45-3.26-4.65-1.85-10.07,3.75-14,5.2-3.64,11.48-3.73,15.23,1.63,.82,1.18,1.48,2.65,1.7,3.9l-4.6,2.17c-.08-.73-.38-1.71-1.21-2.89-1.65-2.36-4.8-2.44-7.68-.37-3.27,2.29-3.74,5.26-2.22,7.44,.74,1.06,1.54,1.73,2.34,2.18l-3.7,3.38Z" style="fill: #1d1d1b;"/>
            <path d="M191.14,537.4l16.85-13.69,3.45,4.24-16.85,13.69-3.45-4.24Zm25.1-13.12c-1.45,1.18-3.34,1.23-4.48-.16-1.09-1.34-.64-3.19,.83-4.33,1.49-1.26,3.36-1.29,4.47,.08,1.11,1.37,.68,3.16-.82,4.42Z" style="fill: #1d1d1b;"/>
            <path d="M207.62,556.12l1.35-1.74-.07-.08c-2.05,.36-3.96-.3-5.4-1.81-2.46-2.58-1.61-6.32,.9-8.71,4.08-3.89,8.87-2.79,13.13,1.74l.22-.21c.84-.8,1.68-2.29-.18-4.25-1.24-1.3-3.1-2.16-4.54-2.38l2.46-3.73c1.45,.3,3.89,1.31,6.1,3.63,4.04,4.24,2.25,8.54-1.45,12.06l-5.46,5.21c-1.51,1.44-2.91,2.87-3.65,3.83l-3.4-3.57Zm6.98-7.55c-1.95-2.11-4.1-3.15-6-1.34-1.25,1.19-1.22,2.45-.38,3.34,.94,.99,2.52,1.03,3.76,.34,.31-.19,.62-.44,.91-.72l1.7-1.62Z" style="fill: #1d1d1b;"/>
            <path d="M222.29,562.16c.27,1.23,1.26,3.27,2.48,4.33,1.25,1.08,2.23,1,2.96,.16s.67-1.59-.33-3.57c-1.75-3.52-1.21-6.28,.5-8.21,2.65-3.05,6.78-3.53,10.06-.68,1.55,1.34,2.55,2.98,2.93,4.19l-3.79,2.88c-.25-.92-.92-2.45-2.06-3.44-1.01-.87-2.01-.86-2.74-.03-.67,.77-.5,1.62,.52,3.74,1.59,3.27,1.29,5.76-.78,8.2-2.65,3.05-6.55,3.6-10.36,.3-1.74-1.51-2.88-3.32-3.3-4.86l3.91-3.02Z" style="fill: #1d1d1b;"/>
            <path d="M259.62,561.97c1.4,.48,4,1.83,6.29,3.31,2.81,1.81,4.32,3.26,5.1,5.29,.82,1.85,.74,4.23-.73,6.5-1.44,2.24-3.85,3.65-6.82,3.21l-.05,.07c1.82,2.28,2.15,5.56,.06,8.81-1.47,2.28-3.47,3.52-5.56,3.97-2.42,.5-5.43-.28-9.48-2.89-2.27-1.46-3.84-2.74-4.75-3.59l15.92-24.71Zm-8.83,23.73c.41,.37,.95,.72,1.74,1.22,2.09,1.34,4.56,1.56,6.26-1.09,1.64-2.54,.44-4.73-1.86-6.21l-1.57-1.01-4.57,7.09Zm7.19-11.16l1.51,.97c2.42,1.56,4.51,1.16,5.72-.7,1.23-1.9,.7-3.67-1.39-5.01-1-.64-1.62-.94-2.06-1.12l-3.78,5.86Z" style="fill: #1d1d1b;"/>
            <path d="M277.31,606.27l.68-2.09-.1-.05c-1.8,1.04-3.83,1.08-5.69,.16-3.19-1.58-3.67-5.39-2.14-8.49,2.5-5.05,7.38-5.66,12.93-2.86l.14-.28c.51-1.03,.79-2.73-1.63-3.93-1.61-.8-3.65-.97-5.08-.68l1.03-4.35c1.47-.21,4.1-.1,6.97,1.32,5.25,2.6,5.04,7.25,2.77,11.83l-3.35,6.77c-.93,1.87-1.75,3.69-2.12,4.85l-4.42-2.19Zm3.97-9.48c-2.56-1.32-4.93-1.55-6.09,.8-.77,1.55-.3,2.72,.79,3.27,1.22,.61,2.72,.11,3.65-.97,.22-.29,.43-.63,.61-.99l1.04-2.11Zm12.53-17.14l-6.93,4.1-3.38-1.67,5.77-4.68,4.54,2.25Z" style="fill: #1d1d1b;"/>
            <path d="M293.23,606.94c.67,1.06,2.31,2.64,3.82,3.21,1.55,.59,2.44,.17,2.83-.87,.4-1.04,.08-1.73-1.54-3.25-2.86-2.7-3.3-5.48-2.35-7.88,1.44-3.78,5.15-5.64,9.22-4.1,1.92,.73,3.43,1.92,4.2,2.93l-2.57,4.01c-.55-.78-1.71-1.98-3.12-2.52-1.24-.47-2.19-.12-2.58,.92-.36,.95,.09,1.7,1.77,3.33,2.62,2.52,3.19,4.97,2.09,7.97-1.44,3.78-4.92,5.64-9.62,3.85-2.15-.82-3.85-2.13-4.77-3.43l2.63-4.18Z" style="fill: #1d1d1b;"/>
            <path d="M310.17,619.26l6.27-20.79,5.23,1.58-6.27,20.79-5.23-1.58Zm13.42-24.94c-.54,1.79-2.08,2.9-3.8,2.38-1.65-.5-2.32-2.28-1.75-4.05,.53-1.88,2.05-2.95,3.74-2.44,1.69,.51,2.33,2.23,1.8,4.11Z" style="fill: #1d1d1b;"/>
            <path d="M337.13,625.61c-1.06,.31-2.95,.34-4.99-.12-5.54-1.24-8.16-6.2-6.66-12.87,1.39-6.2,5.96-10.49,12.35-9.06,1.4,.31,2.88,.96,3.89,1.74l-1.94,4.71c-.55-.49-1.43-1-2.84-1.32-2.81-.63-5.19,1.43-5.93,4.91-.87,3.9,.78,6.41,3.37,6.99,1.26,.28,2.3,.24,3.2,.03l-.46,4.99Z" style="fill: #1d1d1b;"/>
            <path d="M356.31,628.97l-.06-2.2h-.11c-1.35,1.56-3.25,2.27-5.32,2.02-3.53-.43-5.25-3.87-4.83-7.3,.69-5.6,5.09-7.78,11.26-6.98l.04-.31c.14-1.15-.16-2.84-2.84-3.17-1.78-.22-3.77,.3-5.02,1.04l-.47-4.44c1.32-.69,3.84-1.45,7.02-1.06,5.82,.72,7.16,5.17,6.53,10.24l-.92,7.49c-.25,2.07-.43,4.06-.39,5.27l-4.89-.6Zm.61-10.26c-2.85-.39-5.17,.17-5.49,2.77-.21,1.72,.61,2.67,1.83,2.82,1.36,.17,2.6-.8,3.12-2.12,.11-.34,.2-.74,.25-1.13l.29-2.34Z" style="fill: #1d1d1b;"/>
            <path d="M371.47,624.33c.99,.78,3.05,1.73,4.66,1.77,1.65,.05,2.36-.65,2.39-1.75,.03-1.11-.49-1.66-2.52-2.56-3.59-1.61-4.92-4.09-4.82-6.66,.11-4.04,3-7.02,7.35-6.9,2.05,.06,3.87,.69,4.93,1.38l-1.1,4.63c-.78-.55-2.27-1.31-3.78-1.35-1.33-.04-2.1,.61-2.13,1.72-.03,1.02,.64,1.57,2.77,2.57,3.3,1.51,4.65,3.64,4.6,6.84-.11,4.04-2.78,6.94-7.82,6.8-2.3-.06-4.33-.74-5.64-1.67l1.1-4.81Z" style="fill: #1d1d1b;"/>
            <path d="M401.65,615.55c-.32-2.82-.66-5.24-.96-7.22l4.72-.53,.59,2.97h.07c1.03-2.45,2.89-3.87,5.43-4.15,3.82-.43,7.72,3.28,8.5,10.17,.89,7.85-2.73,12.02-6.63,12.46-2.11,.24-3.87-.63-4.82-1.96h-.07s1.21,10.73,1.21,10.73l-5.43,.61-2.61-23.07Zm6.01,4.46c.06,.53,.15,1.01,.27,1.4,.56,1.77,1.97,2.99,3.54,2.82,2.36-.27,3.48-2.85,3.06-6.51-.39-3.44-1.93-5.9-4.36-5.63-1.54,.17-2.73,1.74-2.87,3.76-.03,.36-.02,.81,.03,1.2l.33,2.96Z" style="fill: #1d1d1b;"/>
            <path d="M441.47,623.72l-.8-2.05-.11,.02c-.74,1.94-2.28,3.25-4.32,3.72-3.47,.79-6.25-1.85-7.02-5.23-1.25-5.5,2.14-9.05,8.22-10.39l-.07-.3c-.26-1.13-1.11-2.62-3.74-2.02-1.75,.4-3.44,1.56-4.37,2.68l-1.95-4.02c1-1.09,3.12-2.67,6.24-3.38,5.72-1.3,8.49,2.43,9.62,7.41l1.68,7.36c.46,2.03,.98,3.97,1.42,5.1l-4.8,1.1Zm-2.91-9.85c-2.82,.6-4.8,1.92-4.22,4.47,.39,1.69,1.48,2.3,2.68,2.03,1.33-.3,2.17-1.63,2.22-3.06,0-.36-.06-.76-.15-1.15l-.52-2.29Z" style="fill: #1d1d1b;"/>
            <path d="M451.3,606c-.99-3.04-1.71-5-2.35-6.75l4.48-1.46,1.41,3.74,.14-.04c-.12-3.28,1.52-5.21,3.12-5.74,.48-.16,.72-.23,1.12-.27l1.97,6.04c-.4,.04-.88,.1-1.46,.29-1.92,.62-2.8,2.31-2.5,4.41,.07,.44,.2,.96,.36,1.47l3.41,10.47-5.2,1.69-4.51-13.85Z" style="fill: #1d1d1b;"/>
            <path d="M482.97,609.74l-1.15-1.87-.1,.04c-.38,2.04-1.67,3.61-3.58,4.43-3.27,1.4-6.48-.71-7.84-3.89-2.22-5.19,.49-9.29,6.23-11.69l-.12-.29c-.45-1.06-1.56-2.37-4.04-1.32-1.65,.71-3.11,2.15-3.82,3.42l-2.64-3.61c.79-1.26,2.59-3.18,5.53-4.44,5.39-2.3,8.79,.88,10.79,5.58l2.97,6.94c.82,1.92,1.67,3.73,2.31,4.76l-4.53,1.94Zm-4.63-9.18c-2.66,1.09-4.38,2.74-3.35,5.15,.68,1.59,1.87,2,3,1.52,1.26-.54,1.85-2,1.64-3.4-.07-.35-.2-.74-.35-1.1l-.92-2.16Z" style="fill: #1d1d1b;"/>
            <path d="M494.41,570.22l15,25.9-4.76,2.76-15-25.9,4.76-2.76Z" style="fill: #1d1d1b;"/>
            <path d="M509.7,578.7c-1.55-2.22-2.94-4.07-4.09-5.59l3.89-2.73,1.91,2.29,.09-.06c-.2-1.54,.07-4.28,2.46-5.95,2.94-2.07,6.83-1.21,10.51,4.02l7.39,10.54-4.48,3.14-6.91-9.85c-1.61-2.29-3.35-3.4-4.97-2.26-1.24,.87-1.23,2.44-.81,3.66,.11,.41,.43,1,.79,1.51l7.19,10.25-4.48,3.14-8.49-12.11Z" style="fill: #1d1d1b;"/>
            <path d="M539.27,546.48c.86,1.08,2.02,2.48,4.17,4.91l8.06,9.06c2.77,3.12,4.54,6.13,4.5,9.07-.09,2.82-1.64,5.03-3.58,6.75-1.72,1.53-3.93,2.72-5.85,2.95l-2.59-4.53c1.36-.14,3.38-.8,4.91-2.17,1.94-1.72,2.26-4.33-.39-7.32l-.94-1.06-.05,.05c.43,2.05-.15,3.94-1.66,5.28-3.25,2.89-8.45,1.7-12.62-2.98-4.63-5.21-4.84-10.97-1.62-13.83,1.8-1.6,3.78-1.64,5.64-.91l.05-.05-1.58-2.04,3.55-3.15Zm1.68,10.33c-.29-.33-.62-.64-.91-.86-1.48-1.06-3.05-1.27-4.18-.26-1.48,1.31-1.21,4.05,1.42,7,2.15,2.42,4.8,3.45,6.52,1.92,1.05-.93,1.11-2.54,.32-3.97-.22-.46-.66-1.02-1.05-1.45l-2.13-2.39Z" style="fill: #1d1d1b;"/>
            <path d="M558.06,545.72c2.2,1.74,4.68,.98,6.39-.92,1.25-1.39,2.03-2.72,2.59-4.2l3.88,2.53c-.55,1.93-1.69,3.86-3.28,5.62-4,4.43-9.45,4.11-14.5-.44-4.09-3.69-6.75-9.82-2.65-14.36,3.81-4.22,9.31-2.16,13.3,1.44,.86,.77,1.54,1.54,1.86,1.92l-7.59,8.41Zm.89-7.87c-1.22-1.1-3.65-2.52-5.34-.65-1.54,1.71-.26,4.13,1,5.45l4.34-4.81Z" style="fill: #1d1d1b;"/>
            <path d="M566.75,526.29c-2.2-1.58-4.11-2.87-5.7-3.93l2.78-3.85,2.56,1.54,.06-.09c-.7-1.39-1.34-4.07,.37-6.43,2.1-2.92,6.06-3.39,11.24,.35l10.45,7.53-3.2,4.43-9.76-7.04c-2.27-1.64-4.28-2.11-5.44-.51-.88,1.23-.36,2.71,.43,3.73,.24,.35,.74,.8,1.24,1.16l10.16,7.32-3.2,4.43-12-8.64Z" style="fill: #1d1d1b;"/>
            <path d="M572.82,493.91c1.6,.96,2.3,2.72,1.38,4.26-.89,1.48-2.77,1.69-4.35,.71-1.69-.97-2.36-2.71-1.46-4.22,.91-1.51,2.74-1.72,4.43-.74Zm20.91,19.1l-18.63-11.15,2.81-4.69,18.63,11.15-2.81,4.69Z" style="fill: #1d1d1b;"/>
            <path d="M595.33,492.42c2.59,1.08,4.77-.33,5.9-2.62,.83-1.68,1.22-3.17,1.36-4.75l4.42,1.39c0,2.01-.58,4.17-1.63,6.3-2.65,5.35-7.99,6.52-14.07,3.51-4.93-2.44-9.16-7.62-6.44-13.1,2.52-5.09,8.37-4.6,13.19-2.22,1.03,.51,1.9,1.06,2.31,1.34l-5.03,10.15Zm-1.28-7.82c-1.47-.73-4.19-1.44-5.31,.82-1.02,2.06,.87,4.04,2.44,4.98l2.87-5.8Z" style="fill: #1d1d1b;"/>
            <path d="M598.18,472.27c-2.98-1.15-4.95-1.84-6.72-2.44l1.7-4.39,3.79,1.27,.05-.13c-2.62-1.98-3.08-4.47-2.47-6.05,.18-.47,.27-.7,.5-1.04l5.92,2.29c-.23,.34-.48,.74-.7,1.31-.73,1.88,.02,3.63,1.84,4.72,.39,.23,.87,.45,1.37,.65l10.27,3.97-1.97,5.1-13.58-5.26Z" style="fill: #1d1d1b;"/>
            <path d="M590.71,443.25l5.13,6.21-1.13,3.6-5.51-4.97,1.52-4.84Zm27.18,17.49l-20.72-6.5,1.64-5.22,20.72,6.5-1.64,5.22Z" style="fill: #1d1d1b;"/>
            <path d="M624.42,436.59l-2.19-.17-.02,.11c1.43,1.51,1.94,3.47,1.48,5.5-.79,3.47-4.38,4.83-7.75,4.06-5.5-1.25-7.23-5.85-5.81-11.91l-.3-.07c-1.13-.26-2.84-.13-3.44,2.5-.4,1.75-.09,3.78,.52,5.1l-4.47,.02c-.55-1.38-1.06-3.97-.35-7.09,1.3-5.72,5.87-6.59,10.85-5.46l7.36,1.67c2.03,.46,4,.84,5.21,.93l-1.09,4.8Zm-10.14-1.64c-.68,2.8-.35,5.16,2.2,5.74,1.69,.38,2.72-.34,2.99-1.53,.3-1.33-.53-2.67-1.79-3.32-.33-.15-.71-.27-1.1-.36l-2.29-.52Z" style="fill: #1d1d1b;"/>
          </g>
          <g>
            <path d="M225.64,232.09c-.34,1.35-1.67,3.9-4.05,6.65-6.77,7.82-15.13,7.64-21.57,2.06-7.72-6.68-7.25-15.91-1.32-22.76,2.3-2.65,4.58-4.2,5.83-4.7l3.16,4.56c-1.34,.66-2.99,1.76-4.56,3.57-3.52,4.06-3.8,9.34,1.24,13.7,4.53,3.92,9.71,3.71,13.66-.86,1.34-1.54,2.48-3.55,2.95-4.9l4.66,2.69Z" style="fill: #1d1d1b;"/>
            <path d="M227.56,219.5c2.05,1.91,4.98,1.03,7.31-1.1,1.7-1.56,2.87-3.05,3.82-4.71l3.75,2.77c-1.04,2.15-2.73,4.31-4.89,6.29-5.43,4.98-11.42,4.69-16.01-.32-3.72-4.06-5.31-10.85,.25-15.95,5.17-4.74,10.83-2.52,14.46,1.44,.78,.85,1.37,1.69,1.64,2.11l-10.31,9.45Zm2.74-8.78c-1.11-1.21-3.49-2.76-5.79-.66-2.09,1.92-1.21,4.6-.11,6.06l5.89-5.4Z" style="fill: #1d1d1b;"/>
            <path d="M239.42,200.95c-1.58-2.2-3-4.02-4.19-5.52l4.76-3.42,1.99,2.23,.11-.08c-.08-1.64,.5-4.63,3.42-6.73,3.6-2.59,8.02-2.16,11.75,3.03l7.52,10.45-5.48,3.94-7.03-9.77c-1.63-2.27-3.54-3.25-5.52-1.82-1.51,1.09-1.66,2.78-1.3,4.05,.09,.43,.41,1.02,.77,1.53l7.31,10.17-5.48,3.94-8.63-12Z" style="fill: #1d1d1b;"/>
            <path d="M262.76,169.77l3.11,5.38,4.19-2.42,2.48,4.31-4.19,2.42,3.93,6.81c1.31,2.27,2.45,3,4.22,1.98,.73-.42,1.26-.83,1.64-1.15l2.59,4.4c-.59,.75-1.87,1.74-3.52,2.7-1.88,1.09-3.84,1.34-5.32,.91-1.72-.49-3.3-1.99-4.83-4.65l-4.44-7.69-2.5,1.44-2.48-4.31,2.5-1.44-2.35-4.08,4.98-4.61Z" style="fill: #1d1d1b;"/>
            <path d="M278.91,176.21c-1.37-2.89-2.35-4.74-3.23-6.38l5.25-2.49,1.91,3.52,.16-.08c-.35-3.32,1.49-5.67,3.37-6.56,.56-.27,.84-.4,1.32-.53l2.72,5.74c-.48,.13-1.04,.3-1.72,.62-2.25,1.07-3.2,2.99-2.71,5.07,.11,.44,.3,.94,.53,1.42l4.72,9.95-6.1,2.89-6.24-13.16Z" style="fill: #1d1d1b;"/>
            <path d="M317.6,164.25c2.66,7.49-1.43,12.81-6.91,14.76-5.98,2.13-11.98-.17-14.33-6.78-2.35-6.61,.5-12.38,7.06-14.72,6.28-2.23,11.99,.59,14.18,6.74Zm-14.73,5.48c1.25,3.51,3.65,5.63,6.37,4.66,2.47-.88,3.18-3.91,1.87-7.59-1.09-3.05-3.36-5.73-6.25-4.71-3.05,1.09-3.07,4.63-2,7.64Z" style="fill: #1d1d1b;"/>
            <path d="M351.2,136.29l4.29,24.67c.42,2.41,.95,4.93,1.29,6.36l-5.91,1.03-.85-3.1-.09,.02c-.94,2.64-3.31,4.32-6.06,4.79-5.07,.88-9.9-2.74-11.05-9.39-1.3-7.21,2.49-12.15,7.6-13.04,2.62-.46,4.84,.11,6.06,1.43l.09-.02-2.01-11.59,6.65-1.16Zm-3.4,19.88c-.06-.35-.19-.82-.29-1.17-.71-1.73-2.41-2.96-4.46-2.6-3.02,.52-4.12,3.51-3.54,6.88,.63,3.63,2.82,5.59,5.58,5.11,1.93-.33,3.23-1.91,3.29-3.86,.05-.5,0-.99-.09-1.56l-.49-2.8Z" style="fill: #1d1d1b;"/>
            <path d="M368.03,157.73c.37,2.78,3.19,3.97,6.33,3.8,2.31-.12,4.15-.53,5.94-1.2l1.13,4.52c-2.17,1-4.85,1.59-7.78,1.74-7.36,.39-11.8-3.65-12.15-10.44-.29-5.5,2.81-11.75,10.35-12.15,7.01-.37,9.95,4.95,10.23,10.31,.06,1.15-.02,2.18-.08,2.67l-13.97,.73Zm7.7-5.03c-.09-1.64-.94-4.35-4.04-4.19-2.84,.15-3.86,2.78-3.94,4.61l7.98-.42Z" style="fill: #1d1d1b;"/>
            <path d="M401.31,136.68c2.52-.1,5.76,.07,9.16,.47,5.64,.68,9.18,2.13,11.79,4.64,2.81,2.66,4.31,6.56,3.68,11.8-.68,5.69-3.23,9.36-6.38,11.44-3.44,2.22-8.35,2.89-14.17,2.19-3.48-.42-5.92-.94-7.57-1.36l3.51-29.18Zm3.83,25.06c.56,.2,1.48,.31,2.32,.41,6.08,.78,10.45-2.1,11.3-9.2,.79-6.17-2.44-9.86-8.21-10.56-1.5-.18-2.48-.16-3.07-.1l-2.34,19.44Z" style="fill: #1d1d1b;"/>
            <path d="M453.21,165.17c-2.01,7.69-8.39,9.78-14.02,8.31-6.14-1.61-9.81-6.88-8.03-13.67,1.78-6.79,7.38-9.96,14.13-8.19,6.44,1.69,9.58,7.24,7.93,13.55Zm-15.26-3.77c-.95,3.61-.15,6.71,2.64,7.44,2.53,.66,4.83-1.44,5.82-5.22,.82-3.14,.45-6.63-2.51-7.41-3.14-.82-5.14,2.1-5.95,5.19Z" style="fill: #1d1d1b;"/>
            <path d="M470.98,183.18c-1.31,.07-3.58-.33-5.99-1.26-6.55-2.52-9.2-8.11-6.74-14.49,2.28-5.93,8.21-9.21,15.75-6.31,1.66,.64,3.37,1.63,4.5,2.64l-2.8,4.3c-.62-.62-1.63-1.34-3.28-1.98-3.31-1.28-6.38,.26-7.61,3.59-1.44,3.73,.3,6.63,3.37,7.81,1.49,.57,2.75,.77,3.84,.77l-1.04,4.93Z" style="fill: #1d1d1b;"/>
            <path d="M483.34,180.04c-1.07,2.59,.78,5.03,3.59,6.46,2.06,1.05,3.86,1.61,5.75,1.92l-1.28,4.48c-2.38-.21-5-1.05-7.61-2.37-6.57-3.34-8.4-9.05-5.32-15.11,2.49-4.91,8.3-8.78,15.03-5.36,6.25,3.18,6.15,9.26,3.72,14.05-.52,1.03-1.1,1.88-1.41,2.27l-12.47-6.34Zm9.18-.51c.74-1.46,1.36-4.24-1.41-5.65-2.53-1.29-4.73,.48-5.71,2.03l7.13,3.62Z" style="fill: #1d1d1b;"/>
            <path d="M504.91,184.67c1.51-2.25,2.72-4.22,3.7-5.86l4.87,3.26-1.4,2.65,.11,.07c1.5-.65,4.51-1.15,7.5,.85,3.69,2.47,4.83,6.76,1.28,12.07l-7.16,10.7-5.61-3.75,6.69-10c1.55-2.33,1.8-4.46-.23-5.81-1.55-1.04-3.19-.58-4.25,.2-.37,.23-.81,.74-1.16,1.25l-6.96,10.41-5.61-3.75,8.22-12.29Z" style="fill: #1d1d1b;"/>
            <path d="M531.81,222.61c-1.26-.36-3.28-1.48-5.25-3.14-5.37-4.52-6.05-10.67-1.65-15.9,4.09-4.86,10.76-6.03,16.95-.82,1.36,1.14,2.65,2.64,3.4,3.96l-4.05,3.15c-.38-.79-1.1-1.8-2.46-2.94-2.72-2.29-6.11-1.84-8.37,.91-2.57,3.06-1.88,6.37,.63,8.49,1.22,1.03,2.35,1.63,3.38,1.98l-2.59,4.32Z" style="fill: #1d1d1b;"/>
            <path d="M534.7,226.26l15.22-15.48,4.81,4.73-15.22,15.48-4.81-4.73Zm24.43-14.9c-1.31,1.33-3.38,1.41-4.96-.15-1.52-1.49-1.47-3.57-.14-4.87,1.34-1.42,3.38-1.47,4.93,.05,1.55,1.53,1.51,3.54,.17,4.96Z" style="fill: #1d1d1b;"/>
            <path d="M552.04,244.82l1.39-1.72-.09-.1c-2.24,.05-4.39-1.03-6.07-2.99-2.86-3.34-2.14-7.41,.49-9.66,4.28-3.67,9.63-1.59,14.6,4.27l.24-.2c.88-.75,1.72-2.29-.45-4.82-1.44-1.69-3.55-2.98-5.15-3.48l2.49-3.78c1.62,.6,4.37,2.16,6.94,5.16,4.71,5.49,2.98,10.02-.9,13.34l-5.73,4.91c-1.58,1.36-3.04,2.73-3.81,3.67l-3.96-4.62Zm7.27-7.28c-2.28-2.73-4.71-4.27-6.7-2.56-1.32,1.13-1.2,2.55-.22,3.7,1.1,1.28,2.84,1.6,4.17,1.04,.33-.16,.66-.39,.96-.65l1.79-1.53Z" style="fill: #1d1d1b;"/>
          </g>
          <g id="Cub_Rojo" data-name="Cub Rojo">
            <g style="clip-path: url(#clippath);">
              <path d="M373.91,350.5l-100.34-24.97c-1.81-.45-3.48-.22-4.8,.53-1.81,1.03-38.31,21.59-39.65,22.4-1.73,1.05-2.83,3.01-2.83,5.52v118.42c0,4.45,3.48,8.92,7.77,9.99l100.34,24.97c1.84,.46,3.54,.22,4.87-.56,1.77-1.04,38.25-21.55,39.59-22.36,1.73-1.05,2.83-3.01,2.83-5.51v-118.42c0-4.45-3.48-8.92-7.77-9.99Z" style="fill: #a61737;"/>
              <g>
                <line x1="337.1" y1="503.79" x2="392.16" y2="472.5" style="fill: none; stroke: #82152c; stroke-miterlimit: 10; stroke-width: 14.29px;"/>
                <line x1="337.03" y1="503.16" x2="392.09" y2="471.87" style="fill: none; stroke: #84152d; stroke-miterlimit: 10; stroke-width: 13.62px;"/>
                <line x1="336.97" y1="502.53" x2="392.03" y2="471.24" style="fill: none; stroke: #85152d; stroke-miterlimit: 10; stroke-width: 12.95px;"/>
                <line x1="336.91" y1="501.91" x2="391.97" y2="470.61" style="fill: none; stroke: #87152e; stroke-miterlimit: 10; stroke-width: 12.28px;"/>
                <line x1="336.84" y1="501.28" x2="391.9" y2="469.98" style="fill: none; stroke: #89152e; stroke-miterlimit: 10; stroke-width: 11.61px;"/>
                <line x1="336.78" y1="500.65" x2="391.84" y2="469.35" style="fill: none; stroke: #8b152f; stroke-miterlimit: 10; stroke-width: 10.94px;"/>
                <line x1="336.72" y1="500.02" x2="391.78" y2="468.73" style="fill: none; stroke: #8c162f; stroke-miterlimit: 10; stroke-width: 10.26px;"/>
                <line x1="336.65" y1="499.39" x2="391.71" y2="468.1" style="fill: none; stroke: #8e1630; stroke-miterlimit: 10; stroke-width: 9.59px;"/>
                <line x1="336.59" y1="498.77" x2="391.65" y2="467.47" style="fill: none; stroke: #901630; stroke-miterlimit: 10; stroke-width: 8.92px;"/>
                <line x1="336.53" y1="498.14" x2="391.59" y2="466.84" style="fill: none; stroke: #911631; stroke-miterlimit: 10; stroke-width: 8.25px;"/>
                <line x1="336.46" y1="497.51" x2="391.52" y2="466.21" style="fill: none; stroke: #931631; stroke-miterlimit: 10; stroke-width: 7.58px;"/>
                <line x1="336.4" y1="496.88" x2="391.46" y2="465.58" style="fill: none; stroke: #951632; stroke-miterlimit: 10; stroke-width: 6.91px;"/>
                <line x1="336.34" y1="496.25" x2="391.4" y2="464.96" style="fill: none; stroke: #971632; stroke-miterlimit: 10; stroke-width: 6.24px;"/>
                <line x1="336.27" y1="495.62" x2="391.33" y2="464.33" style="fill: none; stroke: #981633; stroke-miterlimit: 10; stroke-width: 5.57px;"/>
                <line x1="336.21" y1="495" x2="391.27" y2="463.7" style="fill: none; stroke: #9a1633; stroke-miterlimit: 10; stroke-width: 4.9px;"/>
                <line x1="336.15" y1="494.37" x2="391.21" y2="463.07" style="fill: none; stroke: #9c1634; stroke-miterlimit: 10; stroke-width: 4.22px;"/>
                <line x1="336.08" y1="493.74" x2="391.14" y2="462.44" style="fill: none; stroke: #9d1734; stroke-miterlimit: 10; stroke-width: 3.55px;"/>
                <line x1="336.02" y1="493.11" x2="391.08" y2="461.81" style="fill: none; stroke: #9f1735; stroke-miterlimit: 10; stroke-width: 2.88px;"/>
                <line x1="335.96" y1="492.48" x2="391.01" y2="461.19" style="fill: none; stroke: #a11735; stroke-miterlimit: 10; stroke-width: 2.21px;"/>
                <line x1="335.89" y1="491.85" x2="390.95" y2="460.56" style="fill: none; stroke: #a31736; stroke-miterlimit: 10; stroke-width: 1.54px;"/>
                <line x1="335.83" y1="491.23" x2="390.89" y2="459.93" style="fill: none; stroke: #a41736; stroke-miterlimit: 10; stroke-width: .87px;"/>
                <line x1="335.77" y1="490.6" x2="390.82" y2="459.3" style="fill: none; stroke: #a61737; stroke-miterlimit: 10; stroke-width: .2px;"/>
              </g>
              <polygon points="215.44 344.72 264.72 312.97 380.17 347.02 322.89 377.86 211 352.55 215.44 344.72" style="fill: #82152c; opacity: .7;"/>
              <g>
                <line x1="338.45" y1="383.08" x2="391.36" y2="353.85" style="fill: none; stroke: #a61737; stroke-miterlimit: 10; stroke-width: 6.35px;"/>
                <line x1="338.35" y1="382.85" x2="391.39" y2="353.58" style="fill: none; stroke: #a81838; stroke-miterlimit: 10; stroke-width: 6.06px;"/>
                <line x1="338.24" y1="382.62" x2="391.42" y2="353.3" style="fill: none; stroke: #a91839; stroke-miterlimit: 10; stroke-width: 5.77px;"/>
                <line x1="338.14" y1="382.39" x2="391.45" y2="353.02" style="fill: none; stroke: #ab193a; stroke-miterlimit: 10; stroke-width: 5.47px;"/>
                <line x1="338.04" y1="382.16" x2="391.47" y2="352.74" style="fill: none; stroke: #ac193a; stroke-miterlimit: 10; stroke-width: 5.18px;"/>
                <line x1="337.94" y1="381.93" x2="391.5" y2="352.47" style="fill: none; stroke: #ae1a3b; stroke-miterlimit: 10; stroke-width: 4.89px;"/>
                <line x1="337.84" y1="381.7" x2="391.53" y2="352.19" style="fill: none; stroke: #af1b3c; stroke-miterlimit: 10; stroke-width: 4.59px;"/>
                <line x1="337.73" y1="381.47" x2="391.56" y2="351.91" style="fill: none; stroke: #b11b3d; stroke-miterlimit: 10; stroke-width: 4.3px;"/>
                <line x1="337.63" y1="381.24" x2="391.59" y2="351.63" style="fill: none; stroke: #b31c3e; stroke-miterlimit: 10; stroke-width: 4.01px;"/>
                <line x1="337.53" y1="381.01" x2="391.62" y2="351.36" style="fill: none; stroke: #b41d3f; stroke-miterlimit: 10; stroke-width: 3.71px;"/>
                <line x1="337.43" y1="380.78" x2="391.64" y2="351.08" style="fill: none; stroke: #b61d40; stroke-miterlimit: 10; stroke-width: 3.42px;"/>
                <line x1="337.33" y1="380.55" x2="391.67" y2="350.8" style="fill: none; stroke: #b71e40; stroke-miterlimit: 10; stroke-width: 3.13px;"/>
                <line x1="337.22" y1="380.32" x2="391.7" y2="350.52" style="fill: none; stroke: #b91e41; stroke-miterlimit: 10; stroke-width: 2.84px;"/>
                <line x1="337.12" y1="380.09" x2="391.73" y2="350.24" style="fill: none; stroke: #ba1f42; stroke-miterlimit: 10; stroke-width: 2.54px;"/>
                <line x1="337.02" y1="379.86" x2="391.76" y2="349.97" style="fill: none; stroke: #bc2043; stroke-miterlimit: 10; stroke-width: 2.25px;"/>
                <line x1="336.92" y1="379.63" x2="391.78" y2="349.69" style="fill: none; stroke: #be2044; stroke-miterlimit: 10; stroke-width: 1.96px;"/>
                <line x1="336.81" y1="379.4" x2="391.81" y2="349.41" style="fill: none; stroke: #bf2145; stroke-miterlimit: 10; stroke-width: 1.66px;"/>
                <line x1="336.71" y1="379.17" x2="391.84" y2="349.13" style="fill: none; stroke: #c12246; stroke-miterlimit: 10; stroke-width: 1.37px;"/>
                <line x1="336.61" y1="378.94" x2="391.87" y2="348.86" style="fill: none; stroke: #c22246; stroke-miterlimit: 10; stroke-width: 1.08px;"/>
                <line x1="336.51" y1="378.71" x2="391.9" y2="348.58" style="fill: none; stroke: #c42347; stroke-miterlimit: 10; stroke-width: .78px;"/>
                <line x1="336.41" y1="378.48" x2="391.93" y2="348.3" style="fill: none; stroke: #c52348; stroke-miterlimit: 10; stroke-width: .49px;"/>
                <line x1="336.3" y1="378.25" x2="391.95" y2="348.02" style="fill: none; stroke: #c72449; stroke-miterlimit: 10; stroke-width: .2px;"/>
              </g>
              <g>
                <line x1="379.73" y1="349.32" x2="322.45" y2="380.16" style="fill: none; opacity: .7; stroke: #82152c; stroke-miterlimit: 10; stroke-width: 6.35px;"/>
                <line x1="380.29" y1="349.28" x2="323.09" y2="380.09" style="fill: none; opacity: .71; stroke: #85162d; stroke-miterlimit: 10; stroke-width: 6.06px;"/>
                <line x1="380.85" y1="349.24" x2="323.72" y2="380.02" style="fill: none; opacity: .73; stroke: #88162f; stroke-miterlimit: 10; stroke-width: 5.77px;"/>
                <line x1="381.41" y1="349.2" x2="324.36" y2="379.95" style="fill: none; opacity: .74; stroke: #8c1730; stroke-miterlimit: 10; stroke-width: 5.47px;"/>
                <line x1="381.97" y1="349.16" x2="325" y2="379.88" style="fill: none; opacity: .76; stroke: #8f1732; stroke-miterlimit: 10; stroke-width: 5.18px;"/>
                <line x1="382.53" y1="349.12" x2="325.64" y2="379.81" style="fill: none; opacity: .77; stroke: #921833; stroke-miterlimit: 10; stroke-width: 4.89px;"/>
                <line x1="383.09" y1="349.08" x2="326.28" y2="379.74" style="fill: none; opacity: .79; stroke: #951934; stroke-miterlimit: 10; stroke-width: 4.59px;"/>
                <line x1="383.65" y1="349.04" x2="326.92" y2="379.68" style="fill: none; opacity: .8; stroke: #991936; stroke-miterlimit: 10; stroke-width: 4.3px;"/>
                <line x1="384.22" y1="349" x2="327.56" y2="379.61" style="fill: none; opacity: .81; stroke: #9c1a37; stroke-miterlimit: 10; stroke-width: 4.01px;"/>
                <line x1="384.78" y1="348.96" x2="328.2" y2="379.54" style="fill: none; opacity: .83; stroke: #9f1b38; stroke-miterlimit: 10; stroke-width: 3.71px;"/>
                <line x1="385.34" y1="348.92" x2="328.83" y2="379.47" style="fill: none; opacity: .84; stroke: #a21b3a; stroke-miterlimit: 10; stroke-width: 3.42px;"/>
                <line x1="385.9" y1="348.88" x2="329.47" y2="379.4" style="fill: none; opacity: .86; stroke: #a61c3b; stroke-miterlimit: 10; stroke-width: 3.13px;"/>
                <line x1="386.46" y1="348.84" x2="330.11" y2="379.33" style="fill: none; opacity: .87; stroke: #a91c3d; stroke-miterlimit: 10; stroke-width: 2.84px;"/>
                <line x1="387.02" y1="348.8" x2="330.75" y2="379.26" style="fill: none; opacity: .89; stroke: #ac1d3e; stroke-miterlimit: 10; stroke-width: 2.54px;"/>
                <line x1="387.58" y1="348.76" x2="331.39" y2="379.19" style="fill: none; opacity: .9; stroke: #af1e3f; stroke-miterlimit: 10; stroke-width: 2.25px;"/>
                <line x1="388.14" y1="348.72" x2="332.03" y2="379.12" style="fill: none; opacity: .91; stroke: #b31e41; stroke-miterlimit: 10; stroke-width: 1.96px;"/>
                <line x1="388.7" y1="348.68" x2="332.67" y2="379.05" style="fill: none; opacity: .93; stroke: #b61f42; stroke-miterlimit: 10; stroke-width: 1.66px;"/>
                <line x1="389.27" y1="348.64" x2="333.3" y2="378.98" style="fill: none; opacity: .94; stroke: #b92043; stroke-miterlimit: 10; stroke-width: 1.37px;"/>
                <line x1="389.83" y1="348.6" x2="333.94" y2="378.91" style="fill: none; opacity: .96; stroke: #bc2045; stroke-miterlimit: 10; stroke-width: 1.08px;"/>
                <line x1="390.39" y1="348.56" x2="334.58" y2="378.84" style="fill: none; opacity: .97; stroke: #c02146; stroke-miterlimit: 10; stroke-width: .78px;"/>
                <line x1="390.95" y1="348.52" x2="335.22" y2="378.78" style="fill: none; opacity: .99; stroke: #c32148; stroke-miterlimit: 10; stroke-width: .49px;"/>
                <line x1="335.86" y1="378.71" x2="391.51" y2="348.48" style="fill: none; stroke: #c62249; stroke-miterlimit: 10; stroke-width: .2px;"/>
              </g>
              <path d="M334.39,507.36l-100.34-24.97c-4.29-1.07-7.77-5.54-7.77-9.99v-118.42c0-4.45,3.48-7.19,7.77-6.12l100.34,24.97c4.29,1.07,7.77,5.54,7.77,9.99v118.42c0,4.45-3.48,7.19-7.77,6.12Z" style="fill: #82152c;"/>
              <path d="M305.03,480.94l-.94-.05-12.66-64.15,13.41,3.52v-3.4l-14.12-3.71-2.77-14.03c2.11-1.02,3.48-3.16,3.48-5.99,0-3.91-2.6-7.89-6.17-9.88v-15.14l-4.89-1.28v15.14c-3.57,.12-6.17,2.73-6.17,6.64,0,2.83,1.37,5.7,3.48,7.82l-2.77,12.57-14.12-3.71v3.4l13.41,3.52-12.66,57.5-.94-.44-1.21,5.51,.94,.44,1.24,.59,1.3,5.61,1-4.53,1.21-5.51,12.81-58.2,9.83,2.58,12.81,64.93,1.21,6.15,1,5.05,1.3-4.93,1.24,.07,.94,.05-1.21-6.15Zm-26.41-70.97l2.45-11.13c.57,.27,1.15,.48,1.76,.64s1.19,.25,1.76,.28l2.45,12.42-8.41-2.21Z" style="fill: #fafcfd;"/>
            </g>
          </g>
          <g id="Cubo_Amarillo" data-name="Cubo Amarillo">
            <g style="clip-path: url(#clippath-1);">
              <path d="M393.96,350.5l100.34-24.97c1.81-.45,3.48-.22,4.8,.53,1.81,1.03,38.31,21.59,39.65,22.4,1.73,1.05,2.83,3.01,2.83,5.52v118.42c0,4.45-3.48,8.92-7.77,9.99l-100.34,24.97c-1.84,.46-3.54,.22-4.87-.56-1.77-1.04-38.25-21.55-39.59-22.36-1.73-1.05-2.83-3.01-2.83-5.51v-118.42c0-4.45,3.48-8.92,7.77-9.99Z" style="fill: #a27917;"/>
              <g>
                <line x1="430.76" y1="506.9" x2="375.71" y2="475.6" style="fill: none; stroke: #815d13; stroke-miterlimit: 10; stroke-width: 7.02px;"/>
                <line x1="430.83" y1="506.27" x2="375.77" y2="474.98" style="fill: none; stroke: #835e13; stroke-miterlimit: 10; stroke-width: 6.72px;"/>
                <line x1="430.89" y1="505.64" x2="375.83" y2="474.35" style="fill: none; stroke: #846013; stroke-miterlimit: 10; stroke-width: 6.42px;"/>
                <line x1="430.95" y1="505.01" x2="375.9" y2="473.72" style="fill: none; stroke: #866114; stroke-miterlimit: 10; stroke-width: 6.13px;"/>
                <line x1="431.02" y1="504.39" x2="375.96" y2="473.09" style="fill: none; stroke: #876214; stroke-miterlimit: 10; stroke-width: 5.83px;"/>
                <line x1="431.08" y1="503.76" x2="376.02" y2="472.46" style="fill: none; stroke: #896414; stroke-miterlimit: 10; stroke-width: 5.53px;"/>
                <line x1="431.14" y1="503.13" x2="376.09" y2="471.83" style="fill: none; stroke: #8a6514; stroke-miterlimit: 10; stroke-width: 5.24px;"/>
                <line x1="431.21" y1="502.5" x2="376.15" y2="471.21" style="fill: none; stroke: #8c6614; stroke-miterlimit: 10; stroke-width: 4.94px;"/>
                <line x1="431.27" y1="501.87" x2="376.21" y2="470.58" style="fill: none; stroke: #8e6815; stroke-miterlimit: 10; stroke-width: 4.64px;"/>
                <line x1="431.34" y1="501.24" x2="376.28" y2="469.95" style="fill: none; stroke: #8f6915; stroke-miterlimit: 10; stroke-width: 4.34px;"/>
                <line x1="431.4" y1="500.62" x2="376.34" y2="469.32" style="fill: none; stroke: #916a15; stroke-miterlimit: 10; stroke-width: 4.05px;"/>
                <line x1="431.46" y1="499.99" x2="376.4" y2="468.69" style="fill: none; stroke: #926c15; stroke-miterlimit: 10; stroke-width: 3.75px;"/>
                <line x1="431.53" y1="499.36" x2="376.47" y2="468.06" style="fill: none; stroke: #946d15; stroke-miterlimit: 10; stroke-width: 3.45px;"/>
                <line x1="431.59" y1="498.73" x2="376.53" y2="467.44" style="fill: none; stroke: #956e15; stroke-miterlimit: 10; stroke-width: 3.16px;"/>
                <line x1="431.65" y1="498.1" x2="376.59" y2="466.81" style="fill: none; stroke: #977016; stroke-miterlimit: 10; stroke-width: 2.86px;"/>
                <line x1="431.72" y1="497.48" x2="376.66" y2="466.18" style="fill: none; stroke: #997116; stroke-miterlimit: 10; stroke-width: 2.56px;"/>
                <line x1="431.78" y1="496.85" x2="376.72" y2="465.55" style="fill: none; stroke: #9a7216; stroke-miterlimit: 10; stroke-width: 2.27px;"/>
                <line x1="431.84" y1="496.22" x2="376.78" y2="464.92" style="fill: none; stroke: #9c7416; stroke-miterlimit: 10; stroke-width: 1.97px;"/>
                <line x1="431.91" y1="495.59" x2="376.85" y2="464.29" style="fill: none; stroke: #9d7516; stroke-miterlimit: 10; stroke-width: 1.67px;"/>
                <line x1="431.97" y1="494.96" x2="376.91" y2="463.67" style="fill: none; stroke: #9f7617; stroke-miterlimit: 10; stroke-width: 1.37px;"/>
                <line x1="432.03" y1="494.33" x2="376.97" y2="463.04" style="fill: none; stroke: #a07817; stroke-miterlimit: 10; stroke-width: 1.08px;"/>
                <line x1="432.1" y1="493.71" x2="377.04" y2="462.41" style="fill: none; stroke: #a27917; stroke-miterlimit: 10; stroke-width: .78px;"/>
              </g>
              <polygon points="541.75 346.82 492.46 315.06 377.02 349.12 432 378.9 546.19 354.64 541.75 346.82" style="fill: #f9b510; opacity: .6;"/>
              <g>
                <line x1="429.44" y1="383.65" x2="376.52" y2="354.42" style="fill: none; stroke: #a27917; stroke-miterlimit: 10; stroke-width: .78px;"/>
                <line x1="429.54" y1="383.42" x2="376.49" y2="354.15" style="fill: none; opacity: .98; stroke: #a67c17; stroke-miterlimit: 10; stroke-width: .78px;"/>
                <line x1="429.64" y1="383.19" x2="376.47" y2="353.87" style="fill: none; opacity: .96; stroke: #aa7f16; stroke-miterlimit: 10; stroke-width: .78px;"/>
                <line x1="429.74" y1="382.96" x2="376.44" y2="353.59" style="fill: none; opacity: .94; stroke: #ae8216; stroke-miterlimit: 10; stroke-width: .78px;"/>
                <line x1="429.84" y1="382.73" x2="376.41" y2="353.31" style="fill: none; opacity: .92; stroke: #b38416; stroke-miterlimit: 10; stroke-width: .78px;"/>
                <line x1="429.95" y1="382.5" x2="376.38" y2="353.04" style="fill: none; opacity: .9; stroke: #b78715; stroke-miterlimit: 10; stroke-width: .78px;"/>
                <line x1="430.05" y1="382.27" x2="376.35" y2="352.76" style="fill: none; opacity: .89; stroke: #bb8a15; stroke-miterlimit: 10; stroke-width: .78px;"/>
                <line x1="430.15" y1="382.04" x2="376.33" y2="352.48" style="fill: none; opacity: .87; stroke: #bf8d15; stroke-miterlimit: 10; stroke-width: .78px;"/>
                <line x1="430.25" y1="381.81" x2="376.3" y2="352.2" style="fill: none; opacity: .85; stroke: #c39014; stroke-miterlimit: 10; stroke-width: .78px;"/>
                <line x1="430.36" y1="381.58" x2="376.27" y2="351.93" style="fill: none; opacity: .83; stroke: #c79314; stroke-miterlimit: 10; stroke-width: .78px;"/>
                <line x1="430.46" y1="381.35" x2="376.24" y2="351.65" style="fill: none; opacity: .81; stroke: #cb9614; stroke-miterlimit: 10; stroke-width: .78px;"/>
                <line x1="430.56" y1="381.12" x2="376.21" y2="351.37" style="fill: none; opacity: .79; stroke: #d09813; stroke-miterlimit: 10; stroke-width: .78px;"/>
                <line x1="430.66" y1="380.89" x2="376.18" y2="351.09" style="fill: none; opacity: .77; stroke: #d49b13; stroke-miterlimit: 10; stroke-width: .78px;"/>
                <line x1="430.76" y1="380.66" x2="376.16" y2="350.82" style="fill: none; opacity: .75; stroke: #d89e13; stroke-miterlimit: 10; stroke-width: .78px;"/>
                <line x1="430.87" y1="380.43" x2="376.13" y2="350.54" style="fill: none; opacity: .73; stroke: #dca112; stroke-miterlimit: 10; stroke-width: .78px;"/>
                <line x1="430.97" y1="380.2" x2="376.1" y2="350.26" style="fill: none; opacity: .71; stroke: #e0a412; stroke-miterlimit: 10; stroke-width: .78px;"/>
                <line x1="431.07" y1="379.97" x2="376.07" y2="349.98" style="fill: none; opacity: .7; stroke: #e4a712; stroke-miterlimit: 10; stroke-width: .78px;"/>
                <line x1="431.17" y1="379.74" x2="376.04" y2="349.7" style="fill: none; opacity: .68; stroke: #e8aa11; stroke-miterlimit: 10; stroke-width: .78px;"/>
                <line x1="431.27" y1="379.51" x2="376.02" y2="349.43" style="fill: none; opacity: .66; stroke: #edac11; stroke-miterlimit: 10; stroke-width: .78px;"/>
                <line x1="431.38" y1="379.28" x2="375.99" y2="349.15" style="fill: none; opacity: .64; stroke: #f1af11; stroke-miterlimit: 10; stroke-width: .78px;"/>
                <line x1="431.48" y1="379.05" x2="375.96" y2="348.87" style="fill: none; opacity: .62; stroke: #f5b210; stroke-miterlimit: 10; stroke-width: .78px;"/>
                <line x1="431.58" y1="378.82" x2="375.93" y2="348.59" style="fill: none; opacity: .6; stroke: #f9b510; stroke-miterlimit: 10; stroke-width: .78px;"/>
              </g>
              <path d="M433.47,507.36l100.34-24.97c4.29-1.07,7.77-5.54,7.77-9.99v-118.42c0-4.45-3.48-7.19-7.77-6.12l-100.34,24.97c-4.29,1.07-7.77,5.54-7.77,9.99v118.42c0,4.45,3.48,7.19,7.77,6.12Z" style="fill: #f9b510;"/>
              <path d="M490.4,420.84c-.44-1.41-.55-2.13-.57-3.08v-41.58l2.24-.57c.96-.25,1.75-1.24,1.75-2.2v-3.55c0-.96-.79-1.55-1.75-1.3l-17.18,4.42c-.96,.25-1.75,1.24-1.75,2.2v3.55c0,.96,.79,1.55,1.75,1.3l2.24-.57v42.15c-.05,.65-.22,1.34-.65,2.82l-27.57,64.17c0,2.84,2.33,4.57,5.17,3.84l58.8-15.12c2.84-.73,5.17-3.66,5.17-6.5l-27.64-49.97Z" style="fill: #9d163b;"/>
            </g>
          </g>
          <g id="Cubo_celeste" data-name="Cubo celeste">
            <g style="clip-path: url(#clippath-2);">
              <rect x="308.71" y="225.78" width="150.38" height="135.28" rx="17.81" ry="17.81" style="fill: #7793a8;"/>
              <rect x="305.01" y="299.79" width="32.86" height="69.27" style="fill: url(#Degradado_sin_nombre_54);"/>
              <rect x="440.39" y="293.42" width="32.46" height="98.72" style="fill: url(#Degradado_sin_nombre_64);"/>
              <rect x="308.71" y="181.83" width="150.38" height="135.28" rx="17.81" ry="17.81" style="fill: #b1d0e9;"/>
              <g id="Atomo">
                <g>
                  <ellipse cx="383.9" cy="271.44" rx="62.39" ry="10.74" style="fill: none; stroke: #1f3766; stroke-miterlimit: 10; stroke-width: 3.64px;"/>
                  <ellipse cx="383.9" cy="271.44" rx="14.65" ry="45.74" transform="translate(-76.9 364.84) rotate(-46.72)" style="fill: none; stroke: #1f3766; stroke-miterlimit: 10; stroke-width: 3.64px;"/>
                  <ellipse cx="383.9" cy="271.44" rx="45.74" ry="14.65" transform="translate(-81.68 337.01) rotate(-43.28)" style="fill: none; stroke: #1f3766; stroke-miterlimit: 10; stroke-width: 3.64px;"/>
                </g>
                <ellipse cx="383.9" cy="271.44" rx="8.66" ry="5.24" style="fill: #1f3766;"/>
              </g>
            </g>
          </g>
        </g>
      </g>
    </g>
  </g>
</svg>