<?xml version="1.0" encoding="UTF-8"?>
<svg id="Layer_2" data-name="Layer 2" xmlns="http://www.w3.org/2000/svg" viewBox="0 0 2047 764.96">
  <g id="Logos-FCI">
    <g id="Logo-FCI-Centrado-PantoneOrange021C">
      <rect width="2047" height="764.96" style="fill: none;"/>
      <g>
        <g>
          <polygon points="740.92 212.12 778.87 212.12 778.87 219.76 750.13 219.76 750.13 243.18 776.68 243.18 776.68 250.71 750.13 250.71 750.13 282.59 740.92 282.59 740.92 212.12" style="fill: #ff5100;"/>
          <path d="M822.46,270.45c0,4.4,.21,8.68,.75,12.14h-8.27l-.73-6.38h-.32c-2.82,3.98-8.25,7.53-15.47,7.53-10.23,0-15.47-7.22-15.47-14.53,0-12.24,10.88-18.92,30.42-18.82v-1.05c0-4.08-1.15-11.71-11.49-11.62-4.82,0-9.73,1.37-13.29,3.78l-2.09-6.18c4.18-2.61,10.35-4.39,16.72-4.39,15.49,0,19.24,10.57,19.24,20.59v18.92Zm-8.88-13.69c-10.04-.2-21.44,1.57-21.44,11.4,0,6.06,3.97,8.77,8.58,8.77,6.68,0,10.98-4.18,12.44-8.46,.31-1.05,.42-2.09,.42-2.93v-8.78Z" style="fill: #ff5100;"/>
          <path d="M873.39,280.81c-2.4,1.16-7.73,2.92-14.53,2.92-15.27,0-25.2-10.34-25.2-25.83s10.66-26.97,27.18-26.97c5.44,0,10.25,1.36,12.75,2.72l-2.08,7c-2.2-1.16-5.64-2.4-10.67-2.4-11.61,0-17.87,8.67-17.87,19.12,0,11.72,7.53,18.93,17.55,18.93,5.24,0,8.68-1.24,11.3-2.41l1.57,6.91Z" style="fill: #ff5100;"/>
          <path d="M926.5,268.69c0,5.33,.11,9.93,.41,13.91h-8.14l-.52-8.27h-.22c-2.29,4.08-7.73,9.4-16.72,9.4-7.95,0-17.46-4.49-17.46-22.17v-29.59h9.21v27.93c0,9.62,3.02,16.2,11.29,16.2,6.17,0,10.44-4.29,12.12-8.48,.52-1.24,.84-2.92,.84-4.7v-30.95h9.21v36.71Z" style="fill: #ff5100;"/>
          <rect x="941.76" y="208.35" width="9.19" height="74.23" style="fill: #ff5100;"/>
          <path d="M977.51,219.85v12.13h13.18v7h-13.18v27.29c0,6.28,1.78,9.83,6.91,9.83,2.51,0,3.97-.21,5.33-.62l.42,7c-1.78,.62-4.6,1.25-8.16,1.25-4.28,0-7.73-1.47-9.93-3.87-2.52-2.83-3.56-7.32-3.56-13.29v-27.61h-7.84v-7h7.84v-9.4l8.99-2.73Z" style="fill: #ff5100;"/>
          <path d="M1036.59,270.45c0,4.4,.2,8.68,.74,12.14h-8.27l-.72-6.38h-.32c-2.83,3.98-8.26,7.53-15.47,7.53-10.25,0-15.47-7.22-15.47-14.53,0-12.24,10.88-18.92,30.42-18.82v-1.05c0-4.08-1.14-11.71-11.5-11.62-4.81,0-9.72,1.37-13.27,3.78l-2.1-6.18c4.19-2.61,10.35-4.39,16.73-4.39,15.47,0,19.24,10.57,19.24,20.59v18.92Zm-8.89-13.69c-10.03-.2-21.44,1.57-21.44,11.4,0,6.06,3.98,8.77,8.58,8.77,6.69,0,10.98-4.18,12.45-8.46,.3-1.05,.41-2.09,.41-2.93v-8.78Z" style="fill: #ff5100;"/>
          <path d="M1095.03,208.35v61.17c0,4.5,.22,9.62,.42,13.07h-8.15l-.42-8.78h-.31c-2.72,5.64-8.79,9.93-17.04,9.93-12.25,0-21.76-10.35-21.76-25.71-.11-16.84,10.46-27.08,22.69-27.08,7.84,0,12.97,3.66,15.26,7.63h.21v-30.23h9.09Zm-9.09,44.23c0-1.15-.12-2.72-.42-3.87-1.36-5.75-6.38-10.56-13.27-10.56-9.52,0-15.17,8.37-15.17,19.46,0,10.25,5.12,18.7,14.95,18.7,6.18,0,11.82-4.18,13.49-10.96,.3-1.26,.42-2.52,.42-3.98v-8.78Z" style="fill: #ff5100;"/>
          <path d="M1176.17,208.35v61.17c0,4.5,.2,9.62,.42,13.07h-8.16l-.42-8.78h-.31c-2.72,5.64-8.79,9.93-17.04,9.93-12.23,0-21.75-10.35-21.75-25.71-.11-16.84,10.45-27.08,22.68-27.08,7.85,0,12.96,3.66,15.27,7.63h.21v-30.23h9.09Zm-9.09,44.23c0-1.15-.12-2.72-.43-3.87-1.35-5.75-6.37-10.56-13.28-10.56-9.51,0-15.16,8.37-15.16,19.46,0,10.25,5.13,18.7,14.96,18.7,6.18,0,11.81-4.18,13.48-10.96,.31-1.26,.43-2.52,.43-3.98v-8.78Z" style="fill: #ff5100;"/>
          <path d="M1196.65,258.97c.21,12.44,8.05,17.56,17.35,17.56,6.59,0,10.67-1.16,14.02-2.61l1.66,6.59c-3.23,1.47-8.89,3.23-16.93,3.23-15.58,0-24.89-10.34-24.89-25.61s8.99-27.19,23.73-27.19c16.63,0,20.9,14.42,20.9,23.73,0,1.89-.1,3.24-.3,4.29h-35.55Zm26.97-6.59c.11-5.74-2.4-14.84-12.75-14.84-9.42,0-13.39,8.47-14.13,14.84h26.88Z" style="fill: #ff5100;"/>
          <path d="M1315.53,280.39c-3.24,1.68-10.04,3.35-18.62,3.35-19.86,0-34.7-12.55-34.7-35.76s14.95-37.02,36.8-37.02c8.68,0,14.33,1.88,16.73,3.13l-2.3,7.43c-3.33-1.68-8.26-2.92-14.11-2.92-16.51,0-27.49,10.56-27.49,29.06,0,17.36,9.94,28.33,26.97,28.33,5.65,0,11.31-1.16,14.96-2.93l1.78,7.32Z" style="fill: #ff5100;"/>
          <path d="M1336.65,217.76c0,3.15-2.2,5.64-5.85,5.64-3.35,0-5.55-2.5-5.55-5.64s2.3-5.75,5.76-5.75,5.64,2.51,5.64,5.75m-10.24,14.22h9.2v50.61h-9.2v-50.61Z" style="fill: #ff5100;"/>
          <path d="M1355.99,258.97c.2,12.44,8.04,17.56,17.35,17.56,6.59,0,10.67-1.16,14.02-2.61l1.67,6.59c-3.23,1.47-8.89,3.23-16.93,3.23-15.58,0-24.89-10.34-24.89-25.61s8.99-27.19,23.73-27.19c16.64,0,20.92,14.42,20.92,23.73,0,1.89-.1,3.24-.31,4.29h-35.55Zm26.97-6.59c.11-5.74-2.41-14.84-12.76-14.84-9.4,0-13.38,8.47-14.11,14.84h26.88Z" style="fill: #ff5100;"/>
          <path d="M1403.25,245.68c0-5.32-.12-9.51-.43-13.69h8.16l.53,8.36h.2c2.52-4.71,8.37-9.41,16.74-9.41,6.99,0,17.87,4.19,17.87,21.53v30.11h-9.21v-29.17c0-8.15-3.02-14.95-11.71-14.95-5.95,0-10.66,4.29-12.33,9.4-.43,1.16-.64,2.72-.64,4.29v30.42h-9.19v-36.91Z" style="fill: #ff5100;"/>
          <path d="M1497.34,280.81c-2.39,1.16-7.73,2.92-14.52,2.92-15.27,0-25.2-10.34-25.2-25.83s10.66-26.97,27.17-26.97c5.44,0,10.26,1.36,12.76,2.72l-2.1,7c-2.19-1.16-5.63-2.4-10.67-2.4-11.6,0-17.87,8.67-17.87,19.12,0,11.72,7.53,18.93,17.56,18.93,5.23,0,8.68-1.24,11.3-2.41l1.56,6.91Z" style="fill: #ff5100;"/>
          <path d="M1518.37,217.76c0,3.15-2.21,5.64-5.87,5.64-3.34,0-5.55-2.5-5.55-5.64s2.3-5.75,5.75-5.75,5.66,2.51,5.66,5.75m-10.25,14.22h9.19v50.61h-9.19v-50.61Z" style="fill: #ff5100;"/>
          <path d="M1568.12,270.45c0,4.4,.21,8.68,.74,12.14h-8.26l-.74-6.38h-.3c-2.83,3.98-8.27,7.53-15.48,7.53-10.25,0-15.48-7.22-15.48-14.53,0-12.24,10.88-18.92,30.43-18.82v-1.05c0-4.08-1.16-11.71-11.5-11.62-4.81,0-9.72,1.37-13.29,3.78l-2.08-6.18c4.18-2.61,10.35-4.39,16.72-4.39,15.48,0,19.24,10.57,19.24,20.59v18.92Zm-8.88-13.69c-10.04-.2-21.44,1.57-21.44,11.4,0,6.06,3.97,8.77,8.57,8.77,6.7,0,10.98-4.18,12.44-8.46,.31-1.05,.43-2.09,.43-2.93v-8.78Z" style="fill: #ff5100;"/>
          <path d="M1581.71,273.29c2.83,1.66,7.64,3.56,12.24,3.56,6.59,0,9.72-3.24,9.72-7.53s-2.6-6.7-9.31-9.2c-9.21-3.35-13.48-8.27-13.48-14.34,0-8.15,6.68-14.84,17.46-14.84,5.12,0,9.62,1.36,12.34,3.14l-2.2,6.69c-1.98-1.25-5.65-3.04-10.35-3.04-5.43,0-8.36,3.15-8.36,6.91,0,4.18,2.93,6.06,9.52,8.67,8.67,3.25,13.27,7.64,13.27,15.17,0,8.99-7,15.26-18.81,15.26-5.55,0-10.67-1.47-14.23-3.55l2.2-6.91Z" style="fill: #ff5100;"/>
          <path d="M1690.13,208.35v61.17c0,4.5,.22,9.62,.42,13.07h-8.15l-.42-8.78h-.31c-2.72,5.64-8.78,9.93-17.05,9.93-12.23,0-21.75-10.35-21.75-25.71-.11-16.84,10.46-27.08,22.69-27.08,7.84,0,12.97,3.66,15.27,7.63h.2v-30.23h9.09Zm-9.09,44.23c0-1.15-.11-2.72-.42-3.87-1.36-5.75-6.38-10.56-13.27-10.56-9.52,0-15.18,8.37-15.18,19.46,0,10.25,5.14,18.7,14.97,18.7,6.17,0,11.81-4.18,13.48-10.96,.31-1.26,.42-2.52,.42-3.98v-8.78Z" style="fill: #ff5100;"/>
          <path d="M1710.62,258.97c.2,12.44,8.04,17.56,17.35,17.56,6.59,0,10.66-1.16,14.02-2.61l1.66,6.59c-3.23,1.47-8.89,3.23-16.93,3.23-15.58,0-24.89-10.34-24.89-25.61s8.99-27.19,23.73-27.19c16.63,0,20.9,14.42,20.9,23.73,0,1.89-.09,3.24-.31,4.29h-35.54Zm26.97-6.59c.11-5.74-2.4-14.84-12.75-14.84-9.4,0-13.38,8.47-14.11,14.84h26.87Z" style="fill: #ff5100;"/>
          <rect x="1780.04" y="208.35" width="9.21" height="74.23" style="fill: #ff5100;"/>
          <path d="M1840.27,270.45c0,4.4,.2,8.68,.73,12.14h-8.26l-.74-6.38h-.32c-2.82,3.98-8.25,7.53-15.47,7.53-10.23,0-15.47-7.22-15.47-14.53,0-12.24,10.88-18.92,30.43-18.82v-1.05c0-4.08-1.15-11.71-11.5-11.62-4.81,0-9.72,1.37-13.28,3.78l-2.09-6.18c4.19-2.61,10.35-4.39,16.72-4.39,15.49,0,19.25,10.57,19.25,20.59v18.92Zm-8.89-13.69c-10.04-.2-21.44,1.57-21.44,11.4,0,6.06,3.97,8.77,8.57,8.77,6.69,0,10.99-4.18,12.45-8.46,.31-1.05,.42-2.09,.42-2.93v-8.78Z" style="fill: #ff5100;"/>
        </g>
        <g>
          <rect x="740.91" y="330.82" width="37.76" height="167.4" style="fill: #ff5100;"/>
          <path d="M810.19,415.52c0-15.15-.49-27.81-.99-38.75h32.78l1.73,16.9h.76c4.97-7.97,17.13-19.63,37.5-19.63,24.83,0,43.47,16.65,43.47,52.41v71.78h-37.76v-67.33c0-15.64-5.47-26.32-19.12-26.32-10.44,0-16.65,7.23-19.38,14.16-.99,2.49-1.24,5.97-1.24,9.44v70.05h-37.76v-82.71Z" style="fill: #ff5100;"/>
          <path d="M1070.72,480.58c0,23.35-4.73,42.47-18.63,54.65-13.16,11.42-31.3,14.9-49.19,14.9-16.14,0-32.78-3.23-43.71-9.2l7.45-28.81c7.71,4.5,20.87,9.2,35.28,9.2,17.88,0,31.54-9.43,31.54-32.04v-7.7h-.5c-7.2,9.93-18.87,15.65-32.79,15.65-30.05,0-51.4-24.33-51.4-59.11,0-39.23,25.07-64.08,55.11-64.08,16.66,0,27.06,7.22,33.29,17.14h.5l1.24-14.42h32.78c-.5,7.96-.99,18.14-.99,36.28v67.54Zm-37.76-54.38c0-2.24-.26-4.72-.74-6.97-2.74-9.93-9.95-16.64-20.38-16.64-13.9,0-24.83,12.42-24.83,34.54,0,18.13,8.94,32.29,24.58,32.29,9.94,0,17.64-6.46,20.13-15.15,.98-2.99,1.24-6.97,1.24-10.18v-17.89Z" style="fill: #ff5100;"/>
          <path d="M1130.07,449.3c1.24,15.88,16.64,23.35,34.28,23.35,12.9,0,23.32-1.74,33.52-5.23l4.95,25.59c-12.42,5.22-27.57,7.71-43.96,7.71-41.22,0-64.81-23.85-64.81-62.1,0-30.78,19.36-64.84,61.34-64.84,39.23,0,54.14,30.56,54.14,60.62,0,6.45-.76,12.17-1.24,15.15l-78.23-.25Zm44.45-25.84c0-8.93-3.97-24.57-21.1-24.57-16.15,0-22.61,14.64-23.61,24.57h44.71Z" style="fill: #ff5100;"/>
          <path d="M1232.12,415.52c0-15.15-.5-27.81-1-38.75h32.79l1.73,16.9h.74c4.98-7.97,17.14-19.63,37.5-19.63,24.85,0,43.48,16.65,43.48,52.41v71.78h-37.75v-67.33c0-15.64-5.47-26.32-19.14-26.32-10.43,0-16.64,7.23-19.38,14.16-.99,2.49-1.24,5.97-1.24,9.44v70.05h-37.75v-82.71Z" style="fill: #ff5100;"/>
          <path d="M1396.28,360.87c-12.67,0-20.86-8.93-20.86-20.12s8.44-20.1,21.37-20.1,20.85,8.69,21.11,20.1c0,11.19-8.2,20.12-21.37,20.12h-.25Zm-18.63,15.9h37.75v121.45h-37.75v-121.45Z" style="fill: #ff5100;"/>
          <path d="M1474.75,449.3c1.24,15.88,16.66,23.35,34.28,23.35,12.91,0,23.36-1.74,33.53-5.23l4.96,25.59c-12.42,5.22-27.56,7.71-43.95,7.71-41.23,0-64.84-23.85-64.84-62.1,0-30.78,19.38-64.84,61.35-64.84,39.24,0,54.14,30.56,54.14,60.62,0,6.45-.75,12.17-1.25,15.15l-78.23-.25Zm44.46-25.84c0-8.93-3.97-24.57-21.11-24.57-16.14,0-22.58,14.64-23.6,24.57h44.71Z" style="fill: #ff5100;"/>
          <path d="M1577.07,416.75c0-17.87-.26-29.54-.99-39.99h32.29l1.48,22.62h.99c6.22-17.9,20.87-25.34,32.8-25.34,3.48,0,5.21,.27,7.94,.76v35.5c-3.23-.5-6.2-1-10.42-1-13.91,0-23.36,7.21-25.84,19.14-.5,2.46-.74,5.21-.74,8.44v61.34h-37.76l.26-81.48Z" style="fill: #ff5100;"/>
          <path d="M1671.18,376.77h37.76v121.45h-37.76v-121.45Zm59.34-52.4l-30.28,37.75h-25.84l21.35-37.75h34.77Z" style="fill: #ff5100;"/>
          <path d="M1840.31,468.91c0,11.42,.49,22.59,1.99,29.31h-34.03l-2.23-12.17h-.76c-7.94,9.68-20.35,14.89-34.77,14.89-24.6,0-39.25-17.87-39.25-37.25,0-31.54,28.33-46.44,71.29-46.44v-1.48c0-6.47-3.47-15.64-22.12-15.64-12.42,0-25.56,4.2-33.52,8.93l-6.95-24.09c8.46-4.73,25.08-10.94,47.19-10.94,40.47,0,53.16,23.85,53.16,52.41v42.47Zm-36.52-28.07c-19.86,0-35.27,4.72-35.27,19.13,0,9.7,6.45,14.4,14.9,14.4,9.21,0,17.14-6.2,19.63-13.9,.49-1.97,.74-4.22,.74-6.46v-13.16Z" style="fill: #ff5100;"/>
        </g>
        <g>
          <path d="M1537.81,562.95v73.64c0,18.66-3.45,31.96-10.34,39.92-6.9,7.97-16.59,11.95-29.04,11.95-6.63,0-12.93-1.15-18.9-3.42-5.97-2.28-10.88-6.15-14.71-11.56-3.84-5.42-5.76-12.67-5.76-21.74v-95.76c0-3.39-.08-5.65-.28-6.79-.18-1.15-.63-1.83-1.38-2.06-2.8-.59-4.94-1-6.42-1.26-1.47-.27-2.39-.56-2.76-.89-.36-.33-.55-1.06-.55-2.16,0-.66,.47-1.17,1.39-1.55,.92-.36,1.83-.55,2.7-.55,2.36,0,4.8,.17,7.3,.5,2.51,.34,5.21,.49,8.08,.49,4.06,0,7.74-.15,11.07-.49,3.32-.33,5.6-.5,6.85-.5,1.91,0,3.29,.14,4.13,.44,.86,.3,1.29,1,1.29,2.12,0,.95-.56,1.64-1.66,2.1-1.1,.44-2.88,.81-5.31,1.1-2.36,.3-4.11,.68-5.25,1.16-1.15,.47-2.14,1.75-2.99,3.81-.85,2.07-1.28,5.08-1.28,9.06v94.89c0,6.35,1.33,11.58,3.99,15.71,2.65,4.13,6.01,7.16,10.07,9.07,4.04,1.91,8.25,2.87,12.59,2.87,5.46,0,10.52-1.32,15.21-3.98,4.68-2.65,8.46-6.93,11.33-12.83,2.89-5.89,4.31-13.38,4.31-22.43v-78.52c0-6.85-.66-11.49-1.98-13.93-1.33-2.44-3.7-3.83-7.08-4.21-2.73-.29-4.46-.6-5.2-.92-.74-.34-1.1-1.16-1.1-2.5,0-2,1.36-2.99,4.09-2.99,.96,0,2.66,.17,5.09,.5,2.43,.34,5.08,.49,7.96,.49,3.97,0,7.31-.15,10.02-.49,2.68-.33,4.43-.5,5.24-.5,1.92,0,2.88,.99,2.88,2.99,0,.81-.21,1.38-.67,1.72-.44,.32-1.27,.61-2.49,.87-1.21,.26-2.63,.53-4.26,.83-2.44,.6-4.07,1.83-4.92,3.71-.85,1.88-1.27,5.91-1.27,12.11" style="fill: #ff5100;"/>
          <path d="M1608.47,634.06h-25.99c-1.92,0-3.3,.6-4.15,1.81-.85,1.23-1.97,4.57-3.38,10.02-1.55,6.56-2.79,11.89-3.75,15.97-.96,4.1-1.55,6.87-1.77,8.31-.22,1.43-.33,2.7-.33,3.81,0,3.39,2.17,5.41,6.51,6.08,3.24,.52,5.28,.92,6.09,1.21,.81,.3,1.21,.97,1.21,1.99,0,.89-.31,1.52-.93,1.88-.63,.37-1.6,.55-2.93,.55-1.18,0-3.32-.14-6.42-.44-3.09-.3-5.56-.44-7.4-.44-4.05,0-7.26,.14-9.62,.44-2.36,.29-3.39,.44-3.11,.44-1.62,0-2.42-.81-2.42-2.44,0-.94,.25-1.62,.77-1.99,.52-.36,1.43-.77,2.76-1.21,1.32-.44,2.44-1,3.37-1.66,.92-.66,1.56-1.62,1.94-2.87,3.32-10.03,6.23-19.62,8.74-28.76,2.5-9.13,5.51-20.49,9.01-34.06,3.49-13.55,6.78-26.46,9.84-38.7,3.06-12.24,5.55-21.97,7.46-29.2,.97-2.94,1.68-4.81,2.16-5.58,.49-.77,1.21-1.16,2.17-1.16,1.09,0,1.88,.34,2.31,1,.44,.66,.96,2.12,1.55,4.42,1.85,6.71,4.21,15.22,7.08,25.54,2.87,10.33,5.69,20.48,8.46,30.47,2.76,9.99,6.07,21.87,9.88,35.67,3.84,13.78,7.12,25.8,9.85,36.05,1.48,5.23,3.39,8.25,5.75,9.06,.67,.22,1.66,.52,2.99,.9,1.33,.37,2.28,.75,2.87,1.16,.59,.4,.89,.93,.89,1.61,0,1.17-1.59,1.76-4.76,1.76-1.62,0-3.88-.14-6.75-.44-2.87-.3-5.23-.44-7.07-.44-2.07,0-4.91,.14-8.51,.44-3.61,.29-6.11,.44-7.52,.44-2.58,0-3.87-.81-3.87-2.44,0-1.99,1.96-2.99,5.86-2.99s5.86-1.87,5.86-5.63c0-.88-2.39-10.61-7.18-29.2-1.25-4.85-2.3-7.97-3.15-9.34-.85-1.37-2.31-2.04-4.37-2.04m-13.83-59.72c-.74,0-1.26,.43-1.59,1.27-.34,.85-.92,2.9-1.72,6.14-5.53,22.33-8.74,35.32-9.62,38.98-.88,3.64-1.32,5.7-1.32,6.13,0,.81,.76,1.31,2.32,1.5,1.55,.18,5.3,.27,11.27,.27s9.85-.03,11.84-.11c1.98-.07,3.24-.22,3.76-.44,.52-.22,.77-.7,.77-1.44,0-.66-.22-1.86-.66-3.59-.45-1.73-1.51-5.62-3.21-11.67-1.7-6.04-3.03-10.89-3.98-14.54-.96-3.64-2.52-9.63-4.65-17.97-.74-3.01-1.8-4.53-3.21-4.53" style="fill: #ff5100;"/>
          <path d="M1668.07,610.73c0,25.13,3.39,43.48,10.17,55.02,6.78,11.54,15.2,17.3,25.21,17.3,12.75,0,21.13-9.69,25.11-29.07,.81-3.98,1.4-7.04,1.77-9.18,.37-2.14,.74-3.64,1.1-4.47,.37-.85,.92-1.27,1.65-1.27,1.26,0,2.15,.32,2.66,.99,.52,.66,.78,2.48,.78,5.42l-.22,28.97c0,2.2-.2,3.73-.6,4.59-.41,.85-1.21,1.64-2.38,2.37-2.2,1.85-6.18,3.48-11.89,4.92-5.71,1.45-11.25,2.16-16.64,2.16-10.33,0-19.69-3-28.09-9-8.4-6.01-14.97-14.65-19.68-25.94-4.72-11.27-7.07-24.61-7.07-40.03,0-11.34,1.32-21.69,3.97-31.02,2.66-9.31,6.35-17.24,11.06-23.77,4.72-6.52,10.47-11.59,17.26-15.21,6.79-3.61,14.22-5.42,22.33-5.42,5.97,0,11.66,.8,17.08,2.37,5.41,1.59,8.93,3.05,10.56,4.37,.88,.74,1.44,2.42,1.66,5.03,.22,2.62,.33,9.27,.33,19.96,0,5.16-.07,8.22-.22,9.18-.14,.96-.73,1.44-1.77,1.44s-1.88-.61-2.53-1.83c-.68-1.22-1.79-4.29-3.32-9.23-2.8-8.63-6.25-15.1-10.35-19.41-4.09-4.32-8.97-6.47-14.65-6.47-3.84,0-7.7,1.22-11.61,3.65-3.91,2.44-7.52,6.37-10.83,11.83-3.32,5.46-5.95,12.56-7.92,21.28-1.96,8.75-2.92,18.9-2.92,30.48" style="fill: #ff5100;"/>
          <path d="M1772.91,609.4v61.38c0,2.8,.74,4.95,2.21,6.47,1.47,1.5,3.98,2.52,7.52,3.04,2.06,.29,3.41,.65,4.03,1.09,.62,.45,.94,1.15,.94,2.12,0,1.46-1.02,2.2-3.1,2.2-.29,0-.78-.05-1.49-.17-.7-.11-1.72-.21-3.03-.34-1.33-.11-2.93-.2-4.82-.27-1.87-.08-5.1-.11-9.68-.11-4.05,0-7.52,.13-10.39,.44-2.88,.29-4.57,.44-5.09,.44-1.92,0-2.87-.88-2.87-2.66,0-1.62,1.03-2.54,3.09-2.76,2.59-.37,4.52-.91,5.8-1.61,1.29-.7,2.16-1.87,2.6-3.48,.44-1.62,.66-3.95,.66-6.97v-125.4c0-1.77-.44-3.04-1.32-3.81-.88-.79-2.61-1.39-5.2-1.84-3.16-.58-4.76-1.5-4.76-2.75s1.07-2.15,3.21-2.88c6.78-2.44,11.76-4.48,14.94-6.13,3.16-1.67,5.04-2.5,5.64-2.5,.73,0,1.1,1.04,1.1,3.11v67.11c0,1.03,.55,1.55,1.66,1.55,.29,0,2.02-1.39,5.2-4.14,3.16-2.76,6.7-5.22,10.61-7.36,3.91-2.13,8.07-3.21,12.49-3.21,6.94,0,12.9,2.23,17.87,6.7,4.97,4.45,7.61,10.95,7.9,19.51v63.26c0,3.6,.55,6.26,1.65,7.95,1.11,1.7,2.88,2.65,5.32,2.88,2.5,.21,4.15,.55,4.98,.99,.8,.44,1.21,1.18,1.21,2.22,0,1.46-1.07,2.2-3.2,2.2,.44,0-1.33-.14-5.31-.44-3.98-.31-7.78-.44-11.39-.44-4.58,0-8.29,.13-11.16,.44-2.89,.29-4.39,.44-4.54,.44-1.11,0-1.94-.21-2.49-.61-.55-.41-.84-1-.84-1.81,0-.89,.34-1.56,1-2,.66-.44,1.72-.77,3.2-.99,3.1-.45,5.2-1.22,6.31-2.34,1.1-1.09,1.66-3.12,1.66-6.07v-63.81c0-6.19-1.71-10.95-5.09-14.26-3.4-3.32-7.88-4.98-13.49-4.98-3.9,0-7.67,.92-11.28,2.76-3.62,1.85-6.56,4.35-8.84,7.47-2.28,3.14-3.43,6.58-3.43,10.34" style="fill: #ff5100;"/>
        </g>
        <g id="Simbolo-FCI-Color">
          <polygon points="379 211.82 456.48 347.68 534.93 212.37 457.45 76.5 379 211.82" style="fill: #ff5100;"/>
          <polygon points="361.11 211.8 439.97 76.72 283.56 76.51 204.7 211.59 361.11 211.8" style="fill: #ff5100;"/>
          <polygon points="630.32 347.47 708.7 212.12 552.3 212.47 473.9 347.83 630.32 347.47" style="fill: #ff5100;"/>
          <polygon points="552.02 498.07 708.44 498.08 629.76 362.9 473.35 362.89 552.02 498.07" style="fill: #ff5100;"/>
        </g>
      </g>
    </g>
  </g>
</svg>