<?xml version="1.0" encoding="UTF-8"?>
<svg id="Layer_2" data-name="Layer 2" xmlns="http://www.w3.org/2000/svg" viewBox="0 0 1023 855.71">
  <g id="Isotipos-FCI">
    <g id="Isotipo-FCI-Outline-PantoneOrange021C">
      <rect width="1023" height="855.71" style="fill: none;"/>
      <g>
        <path d="M230.35,85.59L102.3,304.94l253.97,.33L484.33,85.93l-253.99-.35Zm115.2,194.37l-202.23-.26L245.28,105.03l202.24,.28-101.97,174.65Z" style="fill: #ff5100;"/>
        <path d="M666.73,306.36l-127.3,219.8,253.99-.58,127.28-219.79-253.97,.56Zm115.42,196.4l-202.34,.46,101.41-175.1,202.33-.45-101.4,175.09Z" style="fill: #ff5100;"/>
        <polygon points="385.33 305.31 511.14 525.92 638.53 306.21 512.72 85.57 385.33 305.31" style="fill: #ff5100;"/>
        <polygon points="666.28 770.13 920.27 770.14 792.51 550.63 538.54 550.62 666.28 770.13" style="fill: #ff5100;"/>
      </g>
    </g>
  </g>
</svg>