<?xml version="1.0" encoding="UTF-8"?>
<svg id="Layer_2" data-name="Layer 2" xmlns="http://www.w3.org/2000/svg" xmlns:xlink="http://www.w3.org/1999/xlink" viewBox="0 0 2047 2047">
  <defs>
    <clipPath id="clippath">
      <rect x="173.73" y="705.25" width="1699.54" height="636.51" style="fill: none;"/>
    </clipPath>
  </defs>
  <g id="Logo-FCI-Fondo-Negro">
    <g>
      <rect width="2047" height="2047"/>
      <g>
        <polygon points="726.03 851.69 765.42 851.69 765.42 859.61 735.59 859.61 735.59 883.92 763.15 883.92 763.15 891.73 735.59 891.73 735.59 924.83 726.03 924.83 726.03 851.69" style="fill: #fff;"/>
        <g style="clip-path: url(#clippath);">
          <path d="M810.66,912.23c0,4.57,.22,9.01,.77,12.6h-8.59l-.76-6.62h-.33c-2.92,4.13-8.56,7.81-16.06,7.81-10.62,0-16.05-7.49-16.05-15.08,0-12.7,11.29-19.64,31.57-19.53v-1.09c0-4.23-1.19-12.16-11.93-12.06-5,0-10.1,1.42-13.79,3.92l-2.17-6.41c4.34-2.71,10.74-4.56,17.35-4.56,16.08,0,19.97,10.97,19.97,21.37v19.64Zm-9.21-14.21c-10.42-.21-22.25,1.63-22.25,11.83,0,6.29,4.12,9.1,8.9,9.1,6.94,0,11.39-4.34,12.91-8.78,.32-1.09,.43-2.17,.43-3.04v-9.11Z" style="fill: #fff;"/>
          <path d="M863.51,922.98c-2.49,1.2-8.03,3.03-15.08,3.03-15.85,0-26.15-10.74-26.15-26.8s11.06-27.99,28.21-27.99c5.64,0,10.64,1.41,13.24,2.82l-2.16,7.27c-2.28-1.2-5.86-2.49-11.08-2.49-12.05,0-18.55,8.99-18.55,19.84,0,12.17,7.81,19.65,18.22,19.65,5.43,0,9.01-1.29,11.72-2.5l1.63,7.17Z" style="fill: #fff;"/>
          <path d="M918.63,910.39c0,5.53,.11,10.3,.42,14.44h-8.45l-.54-8.58h-.23c-2.38,4.23-8.02,9.76-17.35,9.76-8.25,0-18.13-4.66-18.13-23v-30.71h9.56v28.98c0,9.98,3.14,16.82,11.71,16.82,6.4,0,10.84-4.46,12.58-8.8,.54-1.29,.87-3.03,.87-4.88v-32.12h9.56v38.09Z" style="fill: #fff;"/>
          <rect x="934.47" y="847.77" width="9.54" height="77.04" style="fill: #fff;"/>
          <path d="M971.58,859.71v12.59h13.68v7.27h-13.68v28.33c0,6.51,1.84,10.2,7.17,10.2,2.6,0,4.12-.22,5.53-.65l.43,7.27c-1.84,.65-4.78,1.3-8.47,1.3-4.45,0-8.02-1.52-10.3-4.01-2.61-2.93-3.7-7.6-3.7-13.79v-28.65h-8.14v-7.27h8.14v-9.76l9.33-2.83Z" style="fill: #fff;"/>
          <path d="M1032.88,912.23c0,4.57,.21,9.01,.77,12.6h-8.59l-.75-6.62h-.33c-2.93,4.13-8.57,7.81-16.06,7.81-10.64,0-16.06-7.49-16.06-15.08,0-12.7,11.29-19.64,31.57-19.53v-1.09c0-4.23-1.18-12.16-11.94-12.06-4.99,0-10.09,1.42-13.77,3.92l-2.18-6.41c4.34-2.71,10.75-4.56,17.36-4.56,16.06,0,19.97,10.97,19.97,21.37v19.64Zm-9.22-14.21c-10.41-.21-22.25,1.63-22.25,11.83,0,6.29,4.13,9.1,8.9,9.1,6.95,0,11.39-4.34,12.92-8.78,.31-1.09,.42-2.17,.42-3.04v-9.11Z" style="fill: #fff;"/>
          <path d="M1093.54,847.78v63.49c0,4.67,.23,9.98,.43,13.56h-8.46l-.43-9.11h-.32c-2.82,5.86-9.12,10.3-17.68,10.3-12.71,0-22.58-10.75-22.58-26.68-.11-17.48,10.86-28.11,23.55-28.11,8.14,0,13.46,3.8,15.84,7.92h.22v-31.37h9.44Zm-9.44,45.91c0-1.2-.12-2.82-.43-4.02-1.41-5.97-6.62-10.96-13.77-10.96-9.88,0-15.75,8.69-15.75,20.19,0,10.64,5.31,19.41,15.51,19.41,6.41,0,12.27-4.34,14-11.37,.31-1.31,.43-2.62,.43-4.13v-9.11Z" style="fill: #fff;"/>
          <path d="M1177.74,847.78v63.49c0,4.67,.2,9.98,.43,13.56h-8.47l-.43-9.11h-.32c-2.82,5.86-9.12,10.3-17.68,10.3-12.69,0-22.57-10.75-22.57-26.68-.11-17.48,10.85-28.11,23.54-28.11,8.14,0,13.45,3.8,15.85,7.92h.22v-31.37h9.44Zm-9.44,45.91c0-1.2-.12-2.82-.44-4.02-1.4-5.97-6.61-10.96-13.78-10.96-9.87,0-15.74,8.69-15.74,20.19,0,10.64,5.32,19.41,15.52,19.41,6.41,0,12.26-4.34,13.99-11.37,.32-1.31,.44-2.62,.44-4.13v-9.11Z" style="fill: #fff;"/>
          <path d="M1199,900.3c.22,12.91,8.36,18.23,18.01,18.23,6.84,0,11.07-1.2,14.56-2.71l1.72,6.84c-3.35,1.52-9.22,3.36-17.57,3.36-16.17,0-25.83-10.74-25.83-26.57s9.33-28.22,24.63-28.22c17.26,0,21.69,14.97,21.69,24.63,0,1.97-.1,3.37-.31,4.46h-36.9Zm27.99-6.84c.11-5.96-2.49-15.4-13.23-15.4-9.78,0-13.9,8.79-14.67,15.4h27.89Z" style="fill: #fff;"/>
          <path d="M1322.38,922.54c-3.36,1.74-10.42,3.48-19.32,3.48-20.61,0-36.01-13.02-36.01-37.11s15.51-38.42,38.19-38.42c9.01,0,14.87,1.96,17.36,3.25l-2.39,7.71c-3.46-1.74-8.57-3.03-14.65-3.03-17.14,0-28.53,10.96-28.53,30.16,0,18.01,10.31,29.41,27.99,29.41,5.87,0,11.73-1.2,15.52-3.04l1.84,7.6Z" style="fill: #fff;"/>
          <path d="M1344.29,857.54c0,3.27-2.28,5.86-6.07,5.86-3.48,0-5.76-2.59-5.76-5.86s2.39-5.97,5.98-5.97,5.86,2.6,5.86,5.97m-10.63,14.76h9.55v52.52h-9.55v-52.52Z" style="fill: #fff;"/>
          <path d="M1364.36,900.3c.21,12.91,8.35,18.23,18.01,18.23,6.84,0,11.07-1.2,14.55-2.71l1.73,6.84c-3.36,1.52-9.22,3.36-17.57,3.36-16.17,0-25.84-10.74-25.84-26.57s9.33-28.22,24.63-28.22c17.27,0,21.71,14.97,21.71,24.63,0,1.97-.1,3.37-.32,4.46h-36.9Zm27.99-6.84c.11-5.96-2.5-15.4-13.25-15.4-9.76,0-13.88,8.79-14.65,15.4h27.89Z" style="fill: #fff;"/>
          <path d="M1413.41,886.51c0-5.52-.12-9.87-.44-14.2h8.47l.55,8.68h.2c2.61-4.89,8.69-9.77,17.37-9.77,7.26,0,18.55,4.34,18.55,22.35v31.25h-9.56v-30.27c0-8.46-3.14-15.51-12.15-15.51-6.17,0-11.06,4.46-12.79,9.76-.44,1.2-.66,2.82-.66,4.46v31.57h-9.54v-38.31Z" style="fill: #fff;"/>
          <path d="M1511.06,922.98c-2.48,1.2-8.03,3.03-15.07,3.03-15.85,0-26.15-10.74-26.15-26.8s11.06-27.99,28.2-27.99c5.65,0,10.64,1.41,13.25,2.82l-2.18,7.27c-2.27-1.2-5.85-2.49-11.07-2.49-12.04,0-18.55,8.99-18.55,19.84,0,12.17,7.81,19.65,18.23,19.65,5.43,0,9.01-1.29,11.72-2.5l1.62,7.17Z" style="fill: #fff;"/>
          <path d="M1532.89,857.54c0,3.27-2.3,5.86-6.09,5.86-3.47,0-5.76-2.59-5.76-5.86s2.39-5.97,5.97-5.97,5.88,2.6,5.88,5.97m-10.64,14.76h9.54v52.52h-9.54v-52.52Z" style="fill: #fff;"/>
          <path d="M1584.52,912.23c0,4.57,.22,9.01,.77,12.6h-8.57l-.77-6.62h-.31c-2.94,4.13-8.59,7.81-16.07,7.81-10.63,0-16.07-7.49-16.07-15.08,0-12.7,11.29-19.64,31.58-19.53v-1.09c0-4.23-1.2-12.16-11.94-12.06-4.99,0-10.09,1.42-13.79,3.92l-2.16-6.41c4.34-2.71,10.75-4.56,17.35-4.56,16.07,0,19.97,10.97,19.97,21.37v19.64Zm-9.21-14.21c-10.42-.21-22.25,1.63-22.25,11.83,0,6.29,4.12,9.1,8.89,9.1,6.95,0,11.39-4.34,12.91-8.78,.32-1.09,.44-2.17,.44-3.04v-9.11Z" style="fill: #fff;"/>
          <path d="M1598.62,915.17c2.93,1.73,7.93,3.69,12.7,3.69,6.84,0,10.09-3.37,10.09-7.81s-2.7-6.96-9.66-9.55c-9.56-3.48-13.99-8.58-13.99-14.88,0-8.46,6.94-15.4,18.12-15.4,5.31,0,9.98,1.41,12.8,3.26l-2.28,6.95c-2.06-1.3-5.87-3.15-10.75-3.15-5.64,0-8.68,3.26-8.68,7.17,0,4.34,3.04,6.29,9.88,9,9,3.38,13.77,7.93,13.77,15.75,0,9.33-7.27,15.84-19.52,15.84-5.76,0-11.07-1.52-14.77-3.68l2.28-7.17Z" style="fill: #fff;"/>
          <path d="M1711.14,847.78v63.49c0,4.67,.23,9.98,.43,13.56h-8.46l-.43-9.11h-.32c-2.82,5.86-9.11,10.3-17.69,10.3-12.69,0-22.57-10.75-22.57-26.68-.11-17.48,10.86-28.11,23.55-28.11,8.14,0,13.46,3.8,15.85,7.92h.21v-31.37h9.44Zm-9.44,45.91c0-1.2-.11-2.82-.43-4.02-1.41-5.97-6.62-10.96-13.77-10.96-9.88,0-15.75,8.69-15.75,20.19,0,10.64,5.33,19.41,15.53,19.41,6.4,0,12.26-4.34,13.99-11.37,.32-1.31,.43-2.62,.43-4.13v-9.11Z" style="fill: #fff;"/>
          <path d="M1732.41,900.3c.21,12.91,8.35,18.23,18.01,18.23,6.84,0,11.07-1.2,14.56-2.71l1.72,6.84c-3.36,1.52-9.22,3.36-17.57,3.36-16.17,0-25.83-10.74-25.83-26.57s9.33-28.22,24.63-28.22c17.26,0,21.69,14.97,21.69,24.63,0,1.97-.09,3.37-.32,4.46h-36.89Zm27.99-6.84c.11-5.96-2.49-15.4-13.24-15.4-9.76,0-13.89,8.79-14.65,15.4h27.88Z" style="fill: #fff;"/>
          <rect x="1804.46" y="847.77" width="9.56" height="77.04" style="fill: #fff;"/>
          <path d="M1866.96,912.23c0,4.57,.21,9.01,.76,12.6h-8.57l-.77-6.62h-.33c-2.92,4.13-8.56,7.81-16.06,7.81-10.62,0-16.06-7.49-16.06-15.08,0-12.7,11.29-19.64,31.58-19.53v-1.09c0-4.23-1.19-12.16-11.94-12.06-4.99,0-10.09,1.42-13.78,3.92l-2.17-6.41c4.34-2.71,10.75-4.56,17.35-4.56,16.08,0,19.98,10.97,19.98,21.37v19.64Zm-9.22-14.21c-10.42-.21-22.25,1.63-22.25,11.83,0,6.29,4.12,9.1,8.89,9.1,6.95,0,11.4-4.34,12.92-8.78,.32-1.09,.43-2.17,.43-3.04v-9.11Z" style="fill: #fff;"/>
          <rect x="730.22" y="969.78" width="39.18" height="173.73" style="fill: #fff;"/>
          <path d="M802.12,1057.68c0-15.73-.51-28.86-1.02-40.22h34.02l1.8,17.54h.78c5.16-8.27,17.77-20.38,38.92-20.38,25.77,0,45.11,17.28,45.11,54.39v74.49h-39.18v-69.87c0-16.23-5.67-27.31-19.84-27.31-10.84,0-17.28,7.5-20.11,14.69-1.02,2.58-1.29,6.2-1.29,9.8v72.69h-39.18v-85.84Z" style="fill: #fff;"/>
          <path d="M1072.5,1125.21c0,24.23-4.91,44.08-19.33,56.72-13.66,11.85-32.49,15.46-51.05,15.46-16.75,0-34.02-3.35-45.36-9.55l7.73-29.9c8,4.67,21.66,9.55,36.61,9.55,18.56,0,32.74-9.79,32.74-33.25v-7.99h-.52c-7.47,10.3-19.58,16.24-34.03,16.24-31.19,0-53.34-25.25-53.34-61.35,0-40.71,26.02-66.5,57.2-66.5,17.29,0,28.09,7.49,34.55,17.79h.52l1.29-14.96h34.02c-.52,8.26-1.02,18.83-1.02,37.65v70.09Zm-39.18-56.44c0-2.32-.27-4.9-.77-7.23-2.84-10.3-10.32-17.27-21.15-17.27-14.43,0-25.77,12.89-25.77,35.84,0,18.82,9.28,33.51,25.51,33.51,10.31,0,18.31-6.71,20.89-15.73,1.01-3.1,1.28-7.23,1.28-10.56v-18.57Z" style="fill: #fff;"/>
          <path d="M1134.09,1092.74c1.29,16.48,17.27,24.23,35.58,24.23,13.38,0,24.2-1.81,34.79-5.42l5.14,26.56c-12.89,5.41-28.61,8-45.62,8-42.78,0-67.26-24.76-67.26-64.45,0-31.94,20.09-67.29,63.66-67.29,40.71,0,56.19,31.71,56.19,62.91,0,6.7-.78,12.63-1.29,15.73l-81.19-.26Zm46.13-26.81c0-9.27-4.12-25.5-21.9-25.5-16.76,0-23.47,15.19-24.51,25.5h46.41Z" style="fill: #fff;"/>
          <path d="M1240.01,1057.68c0-15.73-.52-28.86-1.03-40.22h34.03l1.8,17.54h.77c5.17-8.27,17.79-20.38,38.92-20.38,25.79,0,45.12,17.28,45.12,54.39v74.49h-39.17v-69.87c0-16.23-5.67-27.31-19.86-27.31-10.82,0-17.27,7.5-20.11,14.69-1.02,2.58-1.28,6.2-1.28,9.8v72.69h-39.17v-85.84Z" style="fill: #fff;"/>
          <path d="M1410.37,1000.97c-13.14,0-21.65-9.27-21.65-20.88s8.76-20.87,22.17-20.87,21.64,9.02,21.91,20.87c0,11.61-8.51,20.88-22.17,20.88h-.26Zm-19.33,16.5h39.17v126.05h-39.17v-126.05Z" style="fill: #fff;"/>
          <path d="M1491.81,1092.74c1.29,16.48,17.29,24.23,35.58,24.23,13.4,0,24.24-1.81,34.8-5.42l5.15,26.56c-12.89,5.41-28.6,8-45.61,8-42.79,0-67.29-24.76-67.29-64.45,0-31.94,20.11-67.29,63.67-67.29,40.72,0,56.19,31.71,56.19,62.91,0,6.7-.77,12.63-1.3,15.73l-81.19-.26Zm46.14-26.81c0-9.27-4.12-25.5-21.91-25.5-16.75,0-23.44,15.19-24.49,25.5h46.4Z" style="fill: #fff;"/>
          <path d="M1598,1058.96c0-18.55-.27-30.66-1.02-41.51h33.51l1.53,23.48h1.02c6.46-18.58,21.66-26.3,34.04-26.3,3.61,0,5.41,.28,8.24,.78v36.84c-3.35-.52-6.44-1.03-10.81-1.03-14.44,0-24.24,7.48-26.81,19.87-.52,2.56-.77,5.4-.77,8.76v63.66h-39.19l.27-84.56Z" style="fill: #fff;"/>
          <path d="M1695.67,1017.47h39.18v126.05h-39.18v-126.05Zm61.59-54.39l-31.43,39.17h-26.81l22.16-39.17h36.09Z" style="fill: #fff;"/>
          <path d="M1871.2,1113.09c0,11.85,.51,23.45,2.07,30.42h-35.32l-2.32-12.63h-.78c-8.24,10.04-21.12,15.45-36.08,15.45-25.53,0-40.73-18.55-40.73-38.66,0-32.74,29.41-48.2,73.99-48.2v-1.54c0-6.71-3.6-16.23-22.96-16.23-12.89,0-26.53,4.36-34.79,9.27l-7.21-25c8.78-4.91,26.03-11.36,48.98-11.36,42.01,0,55.17,24.75,55.17,54.39v44.07Zm-37.9-29.13c-20.62,0-36.6,4.9-36.6,19.85,0,10.06,6.7,14.94,15.46,14.94,9.56,0,17.79-6.44,20.38-14.43,.51-2.05,.77-4.38,.77-6.71v-13.66Z" style="fill: #fff;"/>
          <path d="M1555.95,1211.5v76.43c0,19.37-3.58,33.17-10.73,41.42-7.16,8.27-17.21,12.41-30.14,12.41-6.88,0-13.42-1.19-19.62-3.55-6.2-2.37-11.29-6.38-15.27-12-3.98-5.63-5.98-13.14-5.98-22.56v-99.38c0-3.51-.08-5.87-.29-7.05-.18-1.19-.65-1.9-1.43-2.14-2.91-.61-5.13-1.04-6.66-1.31-1.52-.28-2.48-.58-2.87-.92-.37-.34-.57-1.1-.57-2.24,0-.68,.49-1.22,1.44-1.6,.96-.38,1.9-.57,2.8-.57,2.45,0,4.98,.18,7.57,.52,2.6,.35,5.41,.51,8.38,.51,4.22,0,8.03-.16,11.48-.51,3.44-.34,5.81-.52,7.11-.52,1.98,0,3.41,.15,4.29,.45,.89,.31,1.34,1.04,1.34,2.2,0,.99-.58,1.71-1.73,2.18-1.14,.45-2.99,.84-5.51,1.14-2.44,.31-4.27,.7-5.45,1.21-1.19,.49-2.22,1.82-3.1,3.96-.89,2.15-1.33,5.28-1.33,9.4v98.47c0,6.59,1.38,12.02,4.14,16.3,2.75,4.29,6.23,7.43,10.45,9.42,4.2,1.98,8.56,2.98,13.07,2.98,5.66,0,10.92-1.37,15.78-4.13,4.86-2.75,8.78-7.19,11.76-13.32,3-6.12,4.47-13.88,4.47-23.28v-81.49c0-7.11-.68-11.93-2.06-14.45-1.38-2.54-3.84-3.98-7.35-4.37-2.83-.3-4.63-.62-5.4-.96-.77-.35-1.14-1.21-1.14-2.59,0-2.08,1.41-3.1,4.24-3.1,1,0,2.76,.18,5.29,.52,2.52,.35,5.28,.51,8.26,.51,4.12,0,7.58-.16,10.39-.51,2.78-.34,4.59-.52,5.43-.52,1.99,0,2.99,1.02,2.99,3.1,0,.84-.22,1.43-.69,1.79-.45,.33-1.32,.64-2.58,.9-1.25,.27-2.73,.55-4.42,.86-2.53,.62-4.22,1.9-5.1,3.86-.89,1.95-1.32,6.13-1.32,12.56" style="fill: #fff;"/>
          <path d="M1629.29,1285.29h-26.97c-1.99,0-3.42,.63-4.31,1.88-.89,1.27-2.05,4.74-3.51,10.4-1.61,6.81-2.9,12.34-3.89,16.58-1,4.25-1.6,7.13-1.84,8.62-.23,1.49-.34,2.8-.34,3.96,0,3.51,2.25,5.62,6.76,6.31,3.37,.54,5.48,.96,6.32,1.25,.84,.31,1.25,1.01,1.25,2.07,0,.92-.32,1.58-.97,1.96-.66,.39-1.66,.57-3.04,.57-1.23,0-3.44-.15-6.66-.45-3.21-.31-5.77-.46-7.68-.46-4.21,0-7.54,.15-9.98,.46-2.45,.3-3.52,.45-3.23,.45-1.68,0-2.51-.84-2.51-2.53,0-.98,.26-1.68,.8-2.07,.53-.37,1.49-.8,2.87-1.25,1.37-.46,2.54-1.03,3.5-1.72,.95-.68,1.62-1.68,2.01-2.98,3.44-10.4,6.47-20.36,9.07-29.85,2.59-9.47,5.72-21.26,9.35-35.35,3.63-14.07,7.04-27.46,10.21-40.16,3.17-12.7,5.76-22.8,7.74-30.3,1.01-3.05,1.74-4.99,2.24-5.79,.51-.8,1.25-1.21,2.25-1.21,1.13,0,1.96,.35,2.4,1.04,.46,.68,1,2.2,1.6,4.58,1.92,6.96,4.37,15.8,7.35,26.51,2.98,10.72,5.9,21.25,8.78,31.62,2.87,10.37,6.3,22.7,10.26,37.02,3.99,14.3,7.39,26.78,10.22,37.41,1.54,5.42,3.51,8.56,5.97,9.4,.69,.23,1.72,.54,3.11,.93,1.38,.39,2.36,.77,2.98,1.2,.61,.42,.92,.97,.92,1.67,0,1.22-1.65,1.83-4.94,1.83-1.68,0-4.02-.15-7.01-.45-2.98-.31-5.42-.46-7.34-.46-2.15,0-5.09,.15-8.84,.46-3.74,.3-6.34,.45-7.8,.45-2.68,0-4.01-.84-4.01-2.53,0-2.07,2.03-3.1,6.08-3.1s6.08-1.95,6.08-5.85c0-.91-2.48-11.01-7.45-30.3-1.3-5.04-2.39-8.27-3.26-9.69-.89-1.42-2.4-2.12-4.54-2.12m-14.35-61.98c-.77,0-1.31,.44-1.65,1.32-.35,.89-.95,3.01-1.79,6.37-5.74,23.18-9.07,36.66-9.98,40.46-.91,3.78-1.37,5.91-1.37,6.36,0,.84,.79,1.36,2.41,1.56,1.61,.18,5.5,.28,11.7,.28s10.22-.03,12.29-.11c2.06-.07,3.37-.23,3.9-.46,.53-.23,.8-.73,.8-1.49,0-.68-.23-1.93-.68-3.73-.46-1.8-1.57-5.83-3.33-12.11-1.76-6.27-3.15-11.3-4.13-15.09-1-3.78-2.61-10-4.82-18.65-.77-3.13-1.87-4.7-3.33-4.7" style="fill: #fff;"/>
          <path d="M1691.14,1261.08c0,26.09,3.51,45.12,10.55,57.1,7.04,11.97,15.77,17.95,26.17,17.95,13.24,0,21.93-10.05,26.06-30.17,.84-4.13,1.46-7.31,1.84-9.53,.39-2.22,.77-3.77,1.14-4.64,.39-.89,.96-1.32,1.72-1.32,1.31,0,2.23,.33,2.76,1.02,.54,.68,.81,2.57,.81,5.63l-.23,30.07c0,2.29-.21,3.87-.63,4.76-.42,.89-1.25,1.7-2.47,2.46-2.29,1.92-6.41,3.62-12.34,5.1-5.93,1.5-11.68,2.24-17.27,2.24-10.72,0-20.43-3.11-29.16-9.34-8.72-6.24-15.53-15.2-20.42-26.93-4.9-11.7-7.34-25.54-7.34-41.54,0-11.77,1.37-22.51,4.12-32.19,2.76-9.67,6.59-17.89,11.47-24.66,4.9-6.77,10.87-12.03,17.91-15.78,7.05-3.74,14.76-5.63,23.18-5.63,6.2,0,12.1,.83,17.73,2.46,5.62,1.65,9.27,3.16,10.96,4.54,.91,.77,1.49,2.51,1.72,5.22,.23,2.72,.34,9.62,.34,20.72,0,5.36-.07,8.53-.23,9.53-.15,1-.76,1.49-1.84,1.49s-1.95-.64-2.63-1.9c-.7-1.26-1.85-4.45-3.45-9.57-2.91-8.96-6.48-15.67-10.74-20.14-4.24-4.48-9.31-6.71-15.2-6.71-3.98,0-7.99,1.26-12.05,3.79-4.06,2.53-7.8,6.61-11.24,12.28-3.45,5.66-6.18,13.03-8.22,22.08-2.03,9.08-3.03,19.62-3.03,31.63" style="fill: #fff;"/>
          <path d="M1799.94,1259.7v63.7c0,2.91,.77,5.14,2.3,6.72,1.52,1.56,4.13,2.61,7.8,3.15,2.14,.3,3.54,.67,4.19,1.14,.65,.47,.98,1.19,.98,2.2,0,1.51-1.06,2.29-3.22,2.29-.3,0-.81-.06-1.55-.18-.73-.11-1.78-.22-3.15-.35-1.38-.11-3.04-.2-5-.28-1.94-.08-5.29-.11-10.04-.11-4.21,0-7.8,.14-10.78,.46-2.99,.3-4.74,.45-5.29,.45-1.99,0-2.98-.91-2.98-2.76,0-1.68,1.07-2.64,3.21-2.86,2.68-.39,4.69-.94,6.02-1.67,1.34-.73,2.24-1.94,2.7-3.62,.45-1.68,.68-4.09,.68-7.23v-130.14c0-1.84-.46-3.15-1.37-3.96-.91-.82-2.71-1.44-5.4-1.91-3.28-.6-4.94-1.56-4.94-2.85s1.11-2.23,3.33-2.99c7.04-2.53,12.2-4.65,15.51-6.36,3.28-1.73,5.23-2.59,5.85-2.59,.76,0,1.14,1.08,1.14,3.23v69.65c0,1.07,.57,1.6,1.72,1.6,.3,0,2.09-1.44,5.4-4.3,3.28-2.86,6.95-5.41,11.01-7.64,4.06-2.21,8.38-3.33,12.96-3.33,7.2,0,13.38,2.32,18.55,6.95,5.16,4.62,7.9,11.36,8.2,20.25v65.66c0,3.74,.57,6.49,1.72,8.26,1.15,1.76,2.99,2.75,5.52,2.99,2.59,.22,4.31,.57,5.17,1.02,.83,.46,1.25,1.23,1.25,2.31,0,1.51-1.11,2.29-3.32,2.29,.45,0-1.38-.15-5.52-.45-4.13-.32-8.07-.46-11.82-.46-4.75,0-8.61,.14-11.59,.46-3,.3-4.56,.45-4.71,.45-1.15,0-2.01-.22-2.58-.64-.57-.42-.87-1.04-.87-1.88,0-.92,.35-1.61,1.04-2.08,.68-.45,1.79-.8,3.32-1.02,3.22-.47,5.4-1.26,6.55-2.43,1.14-1.13,1.73-3.24,1.73-6.3v-66.22c0-6.43-1.77-11.36-5.29-14.8-3.52-3.44-8.18-5.17-14-5.17-4.05,0-7.96,.96-11.71,2.86-3.75,1.92-6.81,4.51-9.18,7.76-2.37,3.26-3.56,6.83-3.56,10.73" style="fill: #fff;"/>
          <polygon points="354.72 845.77 435.17 986.84 516.63 846.34 436.18 705.25 354.72 845.77" style="fill: #fff;"/>
          <polygon points="336.14 845.74 418.03 705.48 255.61 705.26 173.73 845.53 336.14 845.74" style="fill: #fff;"/>
          <polygon points="615.68 986.62 697.07 846.08 534.66 846.44 453.26 986.99 615.68 986.62" style="fill: #fff;"/>
          <polygon points="534.38 1143 696.79 1143.01 615.1 1002.64 452.69 1002.63 534.38 1143" style="fill: #fff;"/>
        </g>
      </g>
    </g>
  </g>
</svg>