<?xml version="1.0" encoding="UTF-8"?>
<svg id="Layer_2" data-name="Layer 2" xmlns="http://www.w3.org/2000/svg" viewBox="0 0 2048 2048">
  <g id="Layer_1-2" data-name="Layer 1">
    <g id="Logo-SomosIngenieriaUACh-FondoPantoneOrange021C">
      <rect x="0" width="2048" height="2048" style="fill: #fd5205;"/>
      <g>
        <g>
          <path d="M726.94,1087.33c-6.6-2.99-11.79-7.15-15.56-12.5-3.77-5.35-5.78-11.32-6.03-17.91h13.95c.63,6.34,3.46,11.91,8.49,16.7,5.03,4.79,12.38,7.18,22.07,7.18,8.92,0,16-2.27,21.22-6.81,5.21-4.54,7.83-10.29,7.83-17.26,0-5.6-1.45-10.11-4.34-13.53-2.89-3.42-6.48-5.97-10.75-7.65-4.27-1.68-10.18-3.51-17.73-5.5-8.8-2.36-15.78-4.66-20.93-6.91-5.16-2.24-9.55-5.72-13.2-10.45-3.65-4.72-5.47-11.13-5.47-19.22,0-6.72,1.76-12.72,5.28-18.01,3.52-5.28,8.49-9.42,14.9-12.41,6.41-2.99,13.77-4.48,22.07-4.48,12.19,0,22.03,2.96,29.51,8.86,7.48,5.91,11.79,13.53,12.92,22.86h-14.33c-.88-5.35-3.84-10.11-8.86-14.27-5.03-4.17-11.82-6.25-20.37-6.25-7.92,0-14.52,2.08-19.8,6.25-5.28,4.17-7.92,9.86-7.92,17.07,0,5.48,1.45,9.89,4.34,13.25,2.89,3.36,6.5,5.91,10.84,7.65,4.34,1.74,10.21,3.61,17.63,5.6,8.55,2.36,15.47,4.7,20.75,7s9.74,5.82,13.39,10.54c3.64,4.73,5.47,11.07,5.47,19.03,0,6.1-1.64,11.88-4.9,17.35-3.27,5.47-8.11,9.89-14.52,13.25-6.41,3.36-14.08,5.04-23.01,5.04s-16.31-1.49-22.91-4.48Z" style="fill: #fff;"/>
          <path d="M836.69,1085.55c-7.73-4.29-13.83-10.38-18.29-18.29-4.46-7.9-6.69-17.13-6.69-27.71s2.26-19.81,6.79-27.71c4.52-7.9,10.69-13.99,18.48-18.29,7.79-4.29,16.53-6.43,26.21-6.43s18.45,2.14,26.31,6.43c7.85,4.29,14.02,10.39,18.48,18.29,4.46,7.9,6.7,17.14,6.7,27.71s-2.26,19.66-6.79,27.61c-4.53,7.96-10.75,14.09-18.67,18.38-7.92,4.29-16.72,6.44-26.4,6.44s-18.39-2.15-26.12-6.44Zm44.98-9.52c5.78-3.05,10.47-7.65,14.05-13.81,3.58-6.16,5.38-13.71,5.38-22.67s-1.76-16.51-5.28-22.67c-3.52-6.16-8.17-10.76-13.95-13.81-5.79-3.05-12.07-4.57-18.86-4.57s-13.08,1.53-18.86,4.57c-5.78,3.05-10.4,7.65-13.86,13.81-3.46,6.16-5.19,13.71-5.19,22.67s1.73,16.51,5.19,22.67c3.46,6.16,8.04,10.76,13.77,13.81,5.72,3.05,11.97,4.57,18.76,4.57s13.07-1.52,18.86-4.57Z" style="fill: #fff;"/>
          <path d="M1090.9,998.05c7.61,7.53,11.41,18.44,11.41,32.74v59.71h-13.01v-58.21c0-11.07-2.71-19.53-8.11-25.38-5.41-5.84-12.76-8.77-22.06-8.77s-17.42,3.17-23.2,9.52c-5.79,6.34-8.67,15.55-8.67,27.61v55.23h-13.01v-58.21c0-11.07-2.71-19.53-8.11-25.38-5.41-5.84-12.83-8.77-22.25-8.77s-17.42,3.17-23.2,9.52c-5.79,6.34-8.68,15.55-8.68,27.61v55.23h-13.2v-101.87h13.2v17.54c3.27-6.34,7.92-11.16,13.96-14.46,6.03-3.29,12.76-4.94,20.18-4.94,8.92,0,16.75,2.12,23.48,6.34,6.72,4.23,11.6,10.45,14.62,18.66,2.76-8.08,7.51-14.27,14.24-18.56,6.73-4.29,14.36-6.44,22.91-6.44,12.07,0,21.9,3.76,29.51,11.29Z" style="fill: #fff;"/>
          <path d="M1150.49,1085.55c-7.73-4.29-13.83-10.38-18.29-18.29-4.46-7.9-6.69-17.13-6.69-27.71s2.26-19.81,6.79-27.71c4.52-7.9,10.69-13.99,18.48-18.29,7.79-4.29,16.53-6.43,26.21-6.43s18.45,2.14,26.31,6.43c7.85,4.29,14.02,10.39,18.48,18.29,4.46,7.9,6.7,17.14,6.7,27.71s-2.26,19.66-6.79,27.61c-4.53,7.96-10.75,14.09-18.67,18.38-7.92,4.29-16.72,6.44-26.4,6.44s-18.39-2.15-26.12-6.44Zm44.98-9.52c5.78-3.05,10.47-7.65,14.05-13.81,3.58-6.16,5.38-13.71,5.38-22.67s-1.76-16.51-5.28-22.67c-3.52-6.16-8.17-10.76-13.95-13.81-5.79-3.05-12.07-4.57-18.86-4.57s-13.08,1.53-18.86,4.57c-5.78,3.05-10.4,7.65-13.86,13.81-3.46,6.16-5.19,13.71-5.19,22.67s1.73,16.51,5.19,22.67c3.46,6.16,8.04,10.76,13.77,13.81,5.72,3.05,11.97,4.57,18.76,4.57s13.07-1.52,18.86-4.57Z" style="fill: #fff;"/>
          <path d="M1259.12,1083.88c-7.48-5.41-11.66-12.78-12.54-22.11h13.58c.63,5.72,3.36,10.35,8.2,13.9,4.84,3.55,11.34,5.32,19.52,5.32,7.17,0,12.79-1.68,16.88-5.04,4.09-3.36,6.13-7.52,6.13-12.5,0-3.48-1.13-6.34-3.4-8.58s-5.12-4.01-8.58-5.32c-3.46-1.3-8.14-2.7-14.05-4.2-7.67-1.99-13.89-3.98-18.67-5.97-4.78-1.99-8.83-4.94-12.16-8.86-3.33-3.92-5-9.17-5-15.77,0-4.97,1.51-9.58,4.52-13.81,3.02-4.23,7.29-7.59,12.82-10.07,5.53-2.49,11.82-3.73,18.86-3.73,11.06,0,19.99,2.77,26.78,8.3,6.79,5.54,10.43,13.15,10.94,22.86h-13.2c-.38-5.97-2.73-10.79-7.07-14.46-4.34-3.67-10.28-5.5-17.82-5.5-6.67,0-12.07,1.56-16.22,4.66-4.15,3.11-6.22,6.97-6.22,11.57,0,3.98,1.23,7.25,3.68,9.79,2.45,2.55,5.5,4.54,9.15,5.97,3.64,1.43,8.55,3.02,14.71,4.76,7.42,1.99,13.33,3.92,17.73,5.78,4.4,1.87,8.17,4.6,11.32,8.21,3.14,3.61,4.78,8.4,4.9,14.37,0,5.48-1.51,10.36-4.52,14.65-3.02,4.29-7.23,7.68-12.64,10.17-5.41,2.49-11.63,3.73-18.67,3.73-11.82,0-21.47-2.71-28.95-8.12Z" style="fill: #fff;"/>
          <path d="M277.5,1184.72v129.67h-21.5v-129.67h21.5Z" style="fill: #fff;"/>
          <path d="M380.18,1214.95c6.47,3.36,11.53,8.34,15.18,14.93,3.64,6.59,5.47,14.55,5.47,23.88v60.64h-21.31v-57.47c0-9.2-2.33-16.26-6.98-21.18-4.65-4.91-11-7.37-19.05-7.37s-14.43,2.46-19.14,7.37c-4.71,4.92-7.07,11.97-7.07,21.18v57.47h-21.5v-102.81h21.5v11.75c3.52-4.23,8.02-7.52,13.48-9.89,5.47-2.36,11.28-3.54,17.45-3.54,8.17,0,15.49,1.68,21.97,5.04Z" style="fill: #fff;"/>
          <path d="M491.45,1214.67c6.22,3.17,11.09,7.12,14.62,11.85v-14.93h21.69v104.48c0,9.45-2.01,17.88-6.04,25.28-4.03,7.4-9.84,13.22-17.44,17.45-7.61,4.23-16.69,6.34-27.25,6.34-14.08,0-25.77-3.27-35.08-9.79-9.31-6.53-14.59-15.39-15.84-26.59h21.31c1.63,5.35,5.12,9.67,10.47,12.97,5.34,3.29,11.72,4.94,19.14,4.94,8.67,0,15.68-2.61,21.03-7.84,5.34-5.22,8.02-12.82,8.02-22.76v-17.17c-3.65,4.85-8.58,8.93-14.81,12.22-6.22,3.29-13.29,4.94-21.21,4.94-9.05,0-17.32-2.27-24.8-6.81-7.48-4.54-13.39-10.88-17.73-19.03-4.34-8.15-6.51-17.38-6.51-27.71s2.17-19.46,6.51-27.43c4.34-7.96,10.25-14.15,17.73-18.56,7.48-4.41,15.75-6.62,24.8-6.62,8.04,0,15.18,1.58,21.4,4.76Zm10.18,29.76c-2.95-5.22-6.82-9.2-11.6-11.94-4.78-2.74-9.93-4.11-15.47-4.11s-10.69,1.34-15.46,4.01c-4.78,2.67-8.64,6.59-11.6,11.75-2.96,5.16-4.43,11.29-4.43,18.38s1.47,13.31,4.43,18.66c2.95,5.35,6.85,9.42,11.69,12.22,4.84,2.8,9.96,4.2,15.37,4.2s10.69-1.37,15.47-4.11c4.78-2.74,8.64-6.75,11.6-12.03,2.95-5.29,4.43-11.48,4.43-18.56s-1.48-13.25-4.43-18.47Z" style="fill: #fff;"/>
          <path d="M650.51,1270.92h-79.39c.63,8.21,3.71,14.8,9.24,19.78,5.53,4.98,12.32,7.46,20.37,7.46,11.57,0,19.74-4.79,24.52-14.37h23.2c-3.14,9.45-8.83,17.2-17.06,23.23-8.24,6.03-18.45,9.05-30.65,9.05-9.93,0-18.83-2.21-26.69-6.62-7.86-4.41-14.02-10.63-18.48-18.66-4.46-8.02-6.69-17.32-6.69-27.89s2.17-19.87,6.51-27.89c4.34-8.02,10.43-14.21,18.29-18.56,7.85-4.35,16.88-6.53,27.06-6.53s18.54,2.12,26.21,6.34c7.67,4.23,13.64,10.17,17.91,17.82,4.27,7.65,6.41,16.45,6.41,26.4,0,3.86-.25,7.34-.76,10.45Zm-21.69-17.17c-.13-7.84-2.95-14.11-8.49-18.84-5.53-4.72-12.38-7.09-20.56-7.09-7.42,0-13.77,2.33-19.05,7-5.28,4.66-8.42,10.98-9.43,18.94h57.52Z" style="fill: #fff;"/>
          <path d="M746.79,1214.95c6.47,3.36,11.53,8.34,15.18,14.93,3.64,6.59,5.47,14.55,5.47,23.88v60.64h-21.31v-57.47c0-9.2-2.33-16.26-6.98-21.18-4.65-4.91-11-7.37-19.05-7.37s-14.43,2.46-19.14,7.37c-4.71,4.92-7.07,11.97-7.07,21.18v57.47h-21.5v-102.81h21.5v11.75c3.52-4.23,8.02-7.52,13.48-9.89,5.47-2.36,11.28-3.54,17.45-3.54,8.17,0,15.49,1.68,21.97,5.04Z" style="fill: #fff;"/>
          <path d="M795.91,1194.05c-2.64-2.61-3.96-5.84-3.96-9.7s1.32-7.09,3.96-9.7,5.91-3.92,9.81-3.92,6.98,1.3,9.62,3.92,3.96,5.85,3.96,9.7-1.32,7.09-3.96,9.7-5.85,3.92-9.62,3.92-7.16-1.31-9.81-3.92Zm20.37,17.54v102.81h-21.5v-102.81h21.5Z" style="fill: #fff;"/>
          <path d="M939.04,1270.92h-79.39c.63,8.21,3.71,14.8,9.24,19.78,5.53,4.98,12.32,7.46,20.37,7.46,11.57,0,19.74-4.79,24.52-14.37h23.2c-3.14,9.45-8.83,17.2-17.06,23.23-8.24,6.03-18.45,9.05-30.65,9.05-9.93,0-18.83-2.21-26.69-6.62-7.86-4.41-14.02-10.63-18.48-18.66-4.46-8.02-6.69-17.32-6.69-27.89s2.17-19.87,6.51-27.89,10.43-14.21,18.29-18.56c7.85-4.35,16.88-6.53,27.06-6.53s18.54,2.12,26.21,6.34c7.67,4.23,13.64,10.17,17.91,17.82,4.27,7.65,6.41,16.45,6.41,26.4,0,3.86-.25,7.34-.76,10.45Zm-21.69-17.17c-.13-7.84-2.95-14.11-8.49-18.84-5.53-4.72-12.38-7.09-20.56-7.09-7.42,0-13.77,2.33-19.05,7-5.28,4.66-8.42,10.98-9.43,18.94h57.52Z" style="fill: #fff;"/>
          <path d="M994.96,1214.29c5.21-2.92,11.41-4.38,18.57-4.38v22.02h-5.47c-8.43,0-14.81,2.12-19.14,6.34-4.34,4.23-6.51,11.57-6.51,22.02v54.11h-21.5v-102.81h21.5v14.93c3.14-5.22,7.32-9.3,12.54-12.22Z" style="fill: #fff;"/>
          <path d="M1063.5,1183.97l-41.68,20.34v-15.67l41.68-22.76v18.1Zm-8.68,27.61v102.81h-21.5v-102.81h21.5Z" style="fill: #fff;"/>
          <path d="M1082.46,1235.1c4.34-7.96,10.25-14.15,17.73-18.56,7.48-4.41,15.75-6.62,24.8-6.62,8.17,0,15.3,1.58,21.4,4.76,6.1,3.17,10.97,7.12,14.62,11.85v-14.93h21.69v102.81h-21.69v-15.3c-3.65,4.85-8.61,8.89-14.9,12.13-6.29,3.23-13.45,4.85-21.5,4.85-8.93,0-17.1-2.27-24.52-6.81-7.42-4.54-13.3-10.88-17.63-19.03-4.34-8.15-6.51-17.38-6.51-27.71s2.17-19.46,6.51-27.43Zm74.11,9.33c-2.95-5.22-6.82-9.2-11.6-11.94-4.78-2.74-9.93-4.11-15.47-4.11s-10.69,1.34-15.46,4.01c-4.78,2.67-8.64,6.59-11.6,11.75-2.96,5.16-4.43,11.29-4.43,18.38s1.47,13.31,4.43,18.66c2.95,5.35,6.85,9.42,11.69,12.22,4.84,2.8,9.96,4.2,15.37,4.2s10.69-1.37,15.47-4.11c4.78-2.74,8.64-6.75,11.6-12.03,2.95-5.29,4.43-11.48,4.43-18.56s-1.48-13.25-4.43-18.47Z" style="fill: #fff;"/>
          <path d="M1296.21,1182.3v74.45c0,6.1,1.35,10.91,4.05,14.46s7.07,5.32,13.11,5.32,10.49-1.77,13.39-5.32c2.89-3.55,4.34-8.36,4.34-14.46v-74.45h41.68v74.45c0,12.56-2.64,23.29-7.92,32.19-5.28,8.9-12.51,15.58-21.69,20.06-9.18,4.48-19.43,6.71-30.74,6.71s-21.34-2.24-30.08-6.71c-8.74-4.48-15.56-11.13-20.46-19.96-4.9-8.83-7.36-19.59-7.36-32.28v-74.45h41.68Z" style="fill: #fff;"/>
          <path d="M1476.5,1294.43h-44.51l-6.6,19.96h-43.94l48.84-132.1h48.28l48.66,132.1h-44.13l-6.6-19.96Zm-10.19-31.16l-12.07-36.76-12.07,36.76h24.14Z" style="fill: #fff;"/>
          <path d="M1540.9,1213.27c5.34-10.2,12.98-18.13,22.91-23.79,9.93-5.66,21.62-8.49,35.08-8.49,11.57,0,21.91,2.15,31.02,6.44s16.53,10.35,22.25,18.19,9.52,16.98,11.41,27.43h-44.13c-2.01-4.35-4.87-7.74-8.58-10.17-3.71-2.43-7.95-3.64-12.73-3.64-7.04,0-12.61,2.61-16.69,7.84-4.09,5.22-6.13,12.25-6.13,21.09s2.04,15.86,6.13,21.08c4.08,5.22,9.65,7.84,16.69,7.84,4.78,0,9.02-1.21,12.73-3.64,3.71-2.42,6.57-5.81,8.58-10.17h44.13c-1.89,10.45-5.69,19.59-11.41,27.43-5.72,7.84-13.14,13.9-22.25,18.19s-19.46,6.44-31.02,6.44c-13.45,0-25.15-2.83-35.08-8.49-9.93-5.66-17.57-13.59-22.91-23.79-5.34-10.2-8.01-21.83-8.01-34.89s2.67-24.69,8.01-34.89Z" style="fill: #fff;"/>
          <path d="M1781.72,1220.54c6.85,8.09,10.28,19.03,10.28,32.84v61.01h-41.68v-55.79c0-4.98-1.35-8.92-4.05-11.85-2.71-2.92-6.32-4.38-10.84-4.38s-8.3,1.46-10.94,4.38c-2.64,2.93-3.96,6.87-3.96,11.85v55.79h-41.87v-138.07h41.87v48.89c3.27-4.97,7.64-9.02,13.11-12.13,5.47-3.11,11.97-4.66,19.52-4.66,12.19,0,21.72,4.04,28.57,12.13Z" style="fill: #fff;"/>
        </g>
        <g>
          <polygon points="1533.22 782.97 1546.97 772.15 1562.04 782.56 1533.22 782.97" style="fill: #fff; fill-rule: evenodd;"/>
          <polygon points="1551.83 768.2 1567.6 755.87 1565.98 778.11 1551.83 768.2" style="fill: #fff; fill-rule: evenodd;"/>
          <polygon points="1542.12 768.61 1527.27 780 1526.24 757.38 1542.12 768.61" style="fill: #fff; fill-rule: evenodd;"/>
          <path d="M1546.87,764.77c0,.3-15.98-11.43-15.98-11.43l33.17-2.02s-17.19,13.15-17.19,13.45Z" style="fill: #fff; fill-rule: evenodd;"/>
          <path d="M1499.89,931.69l-8.8-5.49-8.8,5.49,2.51-10.06-7.94-6.67,10.34-.73,3.89-9.61,3.89,9.61,10.34,.73-7.94,6.67,2.51,10.06Zm0,32.41l-8.8-5.49-8.8,5.49,2.51-10.06-7.94-6.67,10.34-.73,3.89-9.61,3.89,9.61,10.34,.73-7.94,6.67,2.51,10.06Zm0,32.41l-8.8-5.49-8.8,5.49,2.51-10.06-7.94-6.67,10.34-.73,3.89-9.61,3.89,9.61,10.34,.73-7.94,6.67,2.51,10.06Zm0,32.41l-8.8-5.49-8.8,5.49,2.51-10.06-7.94-6.67,10.34-.73,3.89-9.61,3.89,9.61,10.34,.73-7.94,6.67,2.51,10.06Zm84.84-97.22l-8.8-5.49-8.8,5.49,2.51-10.06-7.94-6.67,10.34-.73,3.89-9.61,3.89,9.61,10.34,.73-7.94,6.67,2.51,10.06Zm0,32.41l-8.8-5.49-8.8,5.49,2.51-10.06-7.94-6.67,10.34-.73,3.89-9.61,3.89,9.61,10.34,.73-7.94,6.67,2.51,10.06Zm0,32.41l-8.8-5.49-8.8,5.49,2.51-10.06-7.94-6.67,10.34-.73,3.89-9.61,3.89,9.61,10.34,.73-7.94,6.67,2.51,10.06Zm0,32.41l-8.8-5.49-8.8,5.49,2.51-10.06-7.94-6.67,10.34-.73,3.89-9.61,3.89,9.61,10.34,.73-7.94,6.67,2.51,10.06Zm-41.3-97.22l-8.8-5.49-8.8,5.49,2.51-10.06-7.94-6.67,10.34-.73,3.89-9.61,3.89,9.61,10.34,.73-7.94,6.67,2.51,10.06Zm0,32.41l-8.8-5.49-8.8,5.49,2.51-10.06-7.94-6.67,10.34-.73,3.89-9.61,3.89,9.61,10.34,.73-7.94,6.67,2.51,10.06Zm0,32.41l-8.8-5.49-8.8,5.49,2.51-10.06-7.94-6.67,10.34-.73,3.89-9.61,3.89,9.61,10.34,.73-7.94,6.67,2.51,10.06Zm0,32.41l-8.8-5.49-8.8,5.49,2.51-10.06-7.94-6.67,10.34-.73,3.89-9.61,3.89,9.61,10.34,.73-7.94,6.67,2.51,10.06Zm0,32.41l-8.8-5.49-8.8,5.49,2.51-10.06-7.94-6.67,10.34-.73,3.89-9.61,3.89,9.61,10.34,.73-7.94,6.67,2.51,10.06Zm192.31-347.62c.88,.63,1.25,1.54,1.71,2.63l2.42,5.76c.96,2.25,1.42,3.5,1.96,3.71,.92,.38,1.75,.33,1.75,.96,0,.38-.21,.42-.71,.42-.71,0-1.59-.13-2.54-.13-.63,0-1.21,.13-1.84,.13-.83,0-.92-.46-1.29-1.38l-3.75-9.47c-.58-1.46-1.04-1.88-2.34-1.88h-.42c-.33,0-.54,.25-.54,.58v8.22c0,1.63,.04,2.63,1.84,2.63,.67,0,.92,.21,.92,.71,0,.33-.33,.58-.83,.58-.42,0-1.63-.25-3.8-.25s-3.46,.25-3.96,.25c-.58,0-.88-.25-.88-.67,0-.79,.83-.5,1.63-.71,1.33-.33,1.33-.75,1.33-2.54v-19.11c0-1.33-.08-1.67-.92-1.92-1.08-.29-1.96,.08-1.96-.75,0-.54,.38-.58,1.13-.58,.33,0,1.29,.17,2.75,.17,2.09,0,4.09-.25,5.97-.25,4.46,0,6.84,2.59,6.84,6.47,0,3.34-1.71,5.8-4.46,6.42Zm-5.59-1.5c0,.88,.5,.96,1.92,.96,2.84,0,4.34-1.84,4.34-5.3s-1.46-5.67-4.17-5.67c-1.92,0-2.09,.71-2.09,2.09v7.93Zm-23.61-8.05v14.56c0,5.09,1,7.76,5.42,7.76,2.21,0,3.88-.79,4.88-2.21,1-1.5,1.04-3.5,1.04-6.38v-10.1c0-3.17-.04-4.8-.75-5.38-.75-.58-2.25,0-2.25-.92,0-.38,.25-.58,.71-.58,.5,0,1.42,.13,2.84,.13,1.5,0,2.46-.13,2.88-.13,.58,0,.88,.17,.88,.58,0,.5-.38,.58-1.21,.58-1.75,0-1.84,1.42-1.84,5.59v10.26c0,2.88-.04,5.05-1.13,6.92-1.17,2-3.5,3.13-6.72,3.13-3.55,0-5.92-.92-7.34-3-1.13-1.63-1.21-3.63-1.21-6.17v-14.64c0-1.38-.04-1.67-.92-1.92-1.08-.33-1.92,.08-1.92-.75,0-.33,.25-.58,.63-.58,.42,0,1.75,.33,4.13,.33s3.71-.33,4.13-.33,.63,.25,.63,.58c0,.88-.96,.46-1.96,.75-.83,.25-.92,.58-.92,1.92Zm-7.73-3.84l-.25,5.51c-.04,.92-.17,1.17-.58,1.17-.75,0-.71-1.17-1.21-2.8-.75-1.79-1.96-2.04-4.51-2.04h-.67c-.33,0-.54,.38-.54,.67v20.44c0,1.75,.04,2.13,1.13,2.5,.96,.33,1.84-.08,1.84,.83,0,.33-.29,.58-.88,.58-.88,0-2.21-.29-3.96-.29s-3.09,.29-3.96,.29c-.58,0-.88-.25-.88-.67,0-.83,.92-.46,1.84-.75,1.08-.33,1.13-.71,1.13-2.5v-20.32c0-.33-.21-.79-.54-.79h-1.17c-1.71,0-2.71,.67-3.75,2-1,1.67-1.38,2.67-2.04,2.67-.29,0-.46-.04-.46-.58,0-.04,.08-.38,.17-.71l1.04-4.25c.29-1.25,.29-2.13,.83-2.13,.5,0,.46,1.38,.96,1.42,.29,.29,.96,.38,1.96,.38,.79,0,1.79-.04,3-.04h5.13c1.38,0,2.46,.08,3.25,.08,.63,0,1.08-.04,1.33-.21,.75-.46,.92-1.67,1.33-1.67,.33,0,.46,.5,.46,.75v.46Zm-23.64,3.84v19.11c0,1.75,.04,2.17,1.13,2.5,.96,.29,1.84-.08,1.84,.83,0,.33-.29,.58-.88,.58-.5,0-1.79-.25-3.96-.25s-3.46,.25-3.96,.25c-.58,0-.88-.25-.88-.67,0-.79,.83-.5,1.63-.71,1.33-.33,1.33-.75,1.33-2.54v-19.11c0-1.33-.08-1.67-.92-1.92-1.08-.29-1.96,.08-1.96-.75,0-.33,.21-.58,.63-.58s1.75,.33,4.13,.33,3.67-.33,4.13-.33c.38,0,.63,.25,.63,.58,0,.75-.75,.5-1.79,.71-1.04,.21-1.08,.63-1.08,1.96Zm-16.61,11.01l-.67-.29c-.13-.04-.21-.08-.29-.08-.33,0-.38,.25-.38,.79v7.8c0,1.42,.04,1.92,.83,2.29,1.04,.46,2-.08,2,.92,0,.33-.33,.63-.88,.63s-1.88-.29-3.96-.29c-1.96,0-3.21,.29-3.8,.29-.37,0-.62-.12-.75-.32-.09,.25-.35,.32-.84,.32-.71,0-1.84-.25-3.5-.25-2.34,0-3.75,.21-4.3,.21-.5,0-.71-.13-.71-.5s.33-.67,.83-.67c1.38,0,1.71-.25,1.71-1,0-.38-.13-1-.38-1.88l-1.63-5.34c-.08-.29-.29-.33-.63-.33h-5.17c-.17,0-.42,.17-.46,.38l-1,3.71c-.42,1.63-.63,2.71-.63,3.21,0,.83,.33,1,1.08,1.13,1.13,.17,1.67,.29,1.67,.92,0,.38-.25,.5-.71,.5-.58,0-1.84-.25-3.63-.25-1.21,0-2.17,.21-2.75,.21-.5,0-.75-.21-.75-.54,0-.88,1.25-.33,2.09-.96,.75-.54,1.04-1.59,1.5-3.09l6.63-21.52c.21-.63,.25-1,.71-1,.58,0,.63,.79,1,1.96l6.3,19.86c.58,1.92,.96,3.05,2.04,3.75,.61,.42,1.2,.44,1.43,.66,.12-.57,.84-.34,1.57-.53,1.25-.33,1.25-1,1.25-2.88v-18.81c0-1.21-.08-1.63-.88-1.88-1.04-.33-1.88,.04-1.88-.79,0-.42,.29-.58,.79-.58,.21,0,1.29,.13,3.3,.13h.67c.96,0,2.34-.08,4.17-.08,4.84,0,7.26,2.59,7.26,7.63,0,4.21-2.63,7.34-5.71,7.34-.75,0-1.59-.29-2.59-.75Zm-1.38-2.92c0,1.21,1.13,1.79,2.17,1.79,1.88,0,3.59-2.21,3.59-5.67,0-3.75-1.79-6.26-3.8-6.26-1.71,0-1.96,.58-1.96,2.04v8.09Zm-18.4-4.38c-.08-.25-.17-.38-.25-.38s-.21,.13-.25,.33l-1.96,7.38c-.04,.21-.04,.38-.04,.42,0,.13,.13,.25,.29,.25h4.17c.17,0,.38-.17,.38-.33,0-.13-.04-.25-.08-.42l-2.25-7.26Zm-29.53,6.13c0-7.76,5.59-13.85,12.56-13.85,3.05,0,5.67,.96,6.17,1.54,.29,.29,.54,1.84,.54,4.3,0,.46-.13,.75-.33,.75-.38,0-.75-.63-1.38-1.67-1.5-2.46-3-3.8-5.17-3.8-4.51,0-8.09,5.13-8.09,12.93,0,7.22,3.59,12.43,7.72,12.43,2.59,0,4.25-1.42,5.55-4.3,.67-1.5,.96-2.38,1.46-2.38,.25,0,.46,.29,.46,.88,0,.33-.13,1.54-.13,3.55s-2.96,3.59-7.17,3.59c-7.01,0-12.18-6.13-12.18-13.97Zm-25.82-6.59c0-4.3,2.84-7.26,7.38-7.26,2.34,0,4.38,.79,4.76,1.29,.21,.25,.33,1.79,.33,4.55,0,.58-.21,.88-.54,.88-.58,0-.63-.79-1.21-2.21-.88-2.21-1.75-3.42-3.71-3.42-2.46,0-4,1.67-4,4.3,0,2.21,1.25,3.42,3.88,4.8,4.46,2.34,6.97,4.46,6.97,9.18s-3.38,8.47-8.05,8.47c-3.67,0-6.17-1.21-6.17-3.59,0-.96,.08-1.84,.08-2.63,0-.63-.04-1-.04-1.08,0-.88,.25-1.29,.63-1.29,.75,0,.54,1.33,1,2.92,.83,2.8,2.88,4.46,5.01,4.46,2.5,0,4.51-2.13,4.51-5.01,0-2.54-1.59-4.51-4.76-6.3-3.38-1.92-6.05-3.17-6.05-8.05Zm-12.85,.46c-.08-.25-.17-.38-.25-.38s-.21,.13-.25,.33l-1.96,7.38c-.04,.21-.04,.38-.04,.42,0,.13,.13,.25,.29,.25h4.17c.17,0,.38-.17,.38-.33,0-.13-.04-.25-.08-.42l-2.25-7.26Zm2.04-5.76l6.3,19.86c.58,1.92,.96,3.05,2.04,3.75,.79,.54,1.54,.42,1.54,.92,0,.46-.25,.58-.88,.58-.71,0-1.84-.25-3.5-.25-2.34,0-3.75,.21-4.3,.21-.5,0-.71-.13-.71-.5s.33-.67,.83-.67c1.38,0,1.71-.25,1.71-1,0-.38-.13-1-.38-1.88l-1.63-5.34c-.08-.29-.29-.33-.63-.33h-5.17c-.17,0-.42,.17-.46,.38l-1,3.71c-.42,1.63-.63,2.71-.63,3.21,0,.83,.33,1,1.08,1.13,1.13,.17,1.67,.29,1.67,.92,0,.38-.25,.5-.71,.5-.58,0-1.84-.25-3.63-.25-1.21,0-2.17,.21-2.75,.21-.5,0-.75-.21-.75-.54,0-.88,1.25-.33,2.09-.96,.75-.54,1.04-1.59,1.5-3.09l6.63-21.52c.21-.63,.25-1,.71-1,.58,0,.63,.79,1,1.96Zm-8.77-1.79l-.25,5.51c-.04,.92-.17,1.17-.58,1.17-.75,0-.71-1.17-1.21-2.8-.75-1.79-1.96-2.04-4.51-2.04h-.67c-.33,0-.54,.38-.54,.67v20.44c0,1.75,.04,2.13,1.13,2.5,.96,.33,1.84-.08,1.84,.83,0,.33-.29,.58-.88,.58-.88,0-2.21-.29-3.96-.29s-3.09,.29-3.96,.29c-.58,0-.88-.25-.88-.67,0-.83,.92-.46,1.84-.75,1.08-.33,1.13-.71,1.13-2.5v-20.32c0-.33-.21-.79-.54-.79h-1.17c-1.71,0-2.71,.67-3.75,2-1,1.67-1.38,2.67-2.04,2.67-.29,0-.46-.04-.46-.58,0-.04,.08-.38,.17-.71l1.04-4.25c.29-1.25,.29-2.13,.83-2.13,.5,0,.46,1.38,.96,1.42,.29,.29,.96,.38,1.96,.38,.79,0,1.79-.04,3-.04h5.13c1.38,0,2.46,.08,3.25,.08,.63,0,1.08-.04,1.33-.21,.75-.46,.92-1.67,1.33-1.67,.33,0,.46,.5,.46,.75v.46Zm-25.8,13.39c.88,.63,1.25,1.54,1.71,2.63l2.42,5.76c.96,2.25,1.42,3.5,1.96,3.71,.92,.38,1.75,.33,1.75,.96,0,.38-.21,.42-.71,.42-.71,0-1.59-.13-2.54-.13-.63,0-1.21,.13-1.84,.13-.83,0-.92-.46-1.29-1.38l-3.75-9.47c-.58-1.46-1.04-1.88-2.34-1.88h-.42c-.33,0-.54,.25-.54,.58v8.22c0,1.63,.04,2.63,1.84,2.63,.67,0,.92,.21,.92,.71,0,.33-.33,.58-.83,.58-.42,0-1.63-.25-3.8-.25s-3.46,.25-3.96,.25c-.58,0-.88-.25-.88-.67,0-.79,.83-.5,1.63-.71,1.33-.33,1.33-.75,1.33-2.54v-19.11c0-1.33-.08-1.67-.92-1.92-1.08-.29-1.96,.08-1.96-.75,0-.54,.38-.58,1.13-.58,.33,0,1.29,.17,2.75,.17,2.09,0,4.09-.25,5.97-.25,4.46,0,6.84,2.59,6.84,6.47,0,3.34-1.71,5.8-4.46,6.42Zm-5.59-1.5c0,.88,.5,.96,1.92,.96,2.84,0,4.34-1.84,4.34-5.3s-1.46-5.67-4.17-5.67c-1.92,0-2.09,.71-2.09,2.09v7.93Zm-9.57-9.89v3.59c0,.71-.08,1.04-.46,1.04-.75,0-.54-1.75-2.04-3.13-1.13-1.04-2.8-1.58-5.09-1.58s-2.34,.58-2.34,2.54v6.88c0,.71,0,.83,.75,.83h1.88c1.71,0,3.13-.38,3.5-.75,1.13-1.08,.58-2.54,1.46-2.54,.38,0,.5,.17,.5,.58,0,1.04-.21,2.46-.21,4.13,0,1.96,.13,3.17,.13,3.55,0,.5-.21,.75-.5,.75-.71,0-.54-1.29-1.42-2.92-.67-1.25-1.75-1.38-3.5-1.38h-1.84c-.58,0-.75,.17-.75,.75v8.59c0,2.29,.54,2.67,3,2.67,2.59,0,3.96-.33,5.26-2.38,1-1.54,1.33-2.88,2-2.88,.17,0,.42,.25,.42,.38,0,0-.04,.29-.08,.75l-.46,4.05c-.13,1.29-.08,1.46-1.29,1.46-1.71,0-5.3-.33-10.64-.33-2.46,0-3.75,.21-4.09,.21-.63,0-.92-.21-.92-.67,0-.75,.75-.5,1.79-.67,1.21-.17,1.25-.96,1.25-2.59v-19.11c0-1.25,0-1.67-.79-1.92-.92-.29-1.79,.08-1.79-.75,0-.38,.25-.58,.71-.58,.33,0,2.38,.17,6.22,.17,4.88,0,7.63-.17,8.18-.17,1.13,0,1.17,.38,1.17,1.25v.17Zm-31.08,11.51c-.33,0-.54,.21-.54,.54v8.55c0,2.13,.88,3.13,3.38,3.13,3.3,0,5.34-2.29,5.34-6.34,0-3.55-1.92-5.88-5.59-5.88h-2.59Zm6.88-1.04c3.5,.71,5.46,3.25,5.46,7.13,0,4.46-3.09,7.63-7.8,7.63-3,0-5.46-.63-7.51-.63-1.54,0-2.59,.25-3.13,.25-.5,0-.79-.25-.79-.67,0-.46,.29-.63,1-.63,1.25,0,1.63-.67,1.63-1.79,0-.12,.04-.38,.04-.83v-19.11c0-1.13-.38-1.63-1.13-1.63-.54,0-1.04,.21-1.46,.21-.33,0-.5-.21-.5-.58,0-.83,2.63-1.29,7.8-1.29,6.97,0,10.47,1.92,10.47,6.42,0,2.75-1.29,4.46-4.09,5.51Zm-7.43-1.59c0,1.21,.04,1.29,1.29,1.29h.54c3.59,0,5.67-1.79,5.67-4.96,0-3.42-1.79-5.3-5.09-5.3-2.13,0-2.42,.5-2.42,2v6.97Zm-11.37-7.05v19.11c0,1.75,.04,2.17,1.13,2.5,.96,.29,1.84-.08,1.84,.83,0,.33-.29,.58-.88,.58-.5,0-1.79-.25-3.96-.25s-3.46,.25-3.96,.25c-.58,0-.88-.25-.88-.67,0-.79,.83-.5,1.63-.71,1.34-.33,1.34-.75,1.34-2.54v-19.11c0-1.33-.08-1.67-.92-1.92-1.08-.29-1.96,.08-1.96-.75,0-.33,.21-.58,.63-.58s1.75,.33,4.13,.33,3.67-.33,4.13-.33c.38,0,.63,.25,.63,.58,0,.75-.75,.5-1.79,.71-1.04,.21-1.08,.63-1.08,1.96Zm-17.21,0v19.11c0,1.79,.96,2.71,2.71,2.71s3.13-.75,4.3-2.29c1.25-1.67,1.71-2.79,2.17-2.79,.17,0,.38,.21,.38,.33,0,.04,0,.33-.04,.75l-.42,3.92c-.04,.38-.08,.58-.08,.71,0,.46-.29,.71-.83,.71-1.75,0-5.13-.38-10.05-.38-2.17,0-3.46,.25-3.96,.25-.58,0-.88-.25-.88-.67,0-.79,.83-.5,1.63-.71,1.33-.33,1.33-.75,1.33-2.54v-19.11c0-1.25-.04-1.67-.83-1.92-1-.33-1.79,.08-1.79-.75,0-.33,.21-.58,.54-.58,.42,0,1.59,.33,3.84,.33,2.5,0,3.84-.33,4.25-.33,.38,0,.63,.25,.63,.58,0,.75-.75,.5-1.79,.71-1.04,.21-1.08,.63-1.08,1.96Zm279.72,205.61h3.77c.75,0,1.1,.09,1.1,.48,0,.79-1.84,.57-3.29,2.15-1.1,1.18-1.67,2.94-1.67,5.35s.61,2.46,2.68,2.46h7.24c.75,0,.88,0,.88-.79v-1.97c0-1.8-.39-3.29-.79-3.69-1.14-1.18-2.68-.61-2.68-1.54,0-.39,.18-.53,.61-.53,1.1,0,2.59,.22,4.34,.22,2.06,0,3.33-.13,3.73-.13,.53,0,.79,.22,.79,.53,0,.75-1.36,.57-3.07,1.49-1.32,.7-1.45,1.84-1.45,3.69v1.93c0,.61,.18,.79,.79,.79h9.04c2.41,0,2.81-.57,2.81-3.16,0-2.72-.35-4.17-2.5-5.53-1.62-1.05-3.03-1.4-3.03-2.11,0-.18,.26-.44,.39-.44,0,0,.31,.04,.79,.09l4.26,.48c1.36,.13,1.54,.09,1.54,1.36,0,1.8-.35,5.57-.35,11.19,0,2.59,.22,3.95,.22,4.3,0,.66-.22,.97-.7,.97-.79,0-.53-.79-.7-1.89-.18-1.27-1.01-1.32-2.72-1.32h-20.09c-1.32,0-1.76,0-2.02,.83-.31,.97,.09,1.89-.79,1.89-.39,0-.61-.26-.61-.75,0-.35,.18-2.5,.18-6.54,0-5.13-.18-8.03-.18-8.6,0-1.18,.39-1.23,1.32-1.23h.18Zm1.93,30.71h20.09c1.89,0,2.85-1.01,2.85-2.85s-.79-3.29-2.41-4.52c-1.75-1.32-2.94-1.8-2.94-2.28,0-.18,.22-.39,.35-.39,.04,0,.35,0,.79,.04l4.12,.44c.39,.04,.61,.09,.75,.09,.48,0,.75,.31,.75,.88,0,1.84-.39,5.4-.39,10.57,0,2.28,.26,3.64,.26,4.17,0,.61-.26,.92-.7,.92-.83,0-.53-.88-.75-1.71-.35-1.4-.79-1.4-2.68-1.4h-20.09c-1.32,0-1.76,.04-2.02,.88-.35,1.05,.09,1.89-.79,1.89-.35,0-.61-.22-.61-.57,0-.44,.35-1.67,.35-4.04,0-2.63-.35-4.04-.35-4.48,0-.4,.26-.66,.61-.66,.79,0,.53,.79,.75,1.89,.22,1.1,.66,1.14,2.06,1.14Zm0,14.14h20.09c1.84,0,2.28-.04,2.63-1.18,.31-1.01-.09-1.93,.88-1.93,.35,0,.61,.31,.61,.92,0,.53-.26,1.89-.26,4.17s.26,3.64,.26,4.17c0,.61-.26,.92-.7,.92-.83,0-.53-.88-.75-1.71-.35-1.4-.79-1.4-2.68-1.4h-20.09c-1.4,0-1.75,.09-2.02,.97-.31,1.14,.09,2.06-.79,2.06-.35,0-.61-.22-.61-.66s.35-1.84,.35-4.34-.35-3.86-.35-4.34c0-.39,.26-.66,.61-.66,.79,0,.53,.79,.75,1.89,.22,1.1,.66,1.14,2.06,1.14Zm0,29.17h7.99c.39,0,.57-.18,.57-.57v-9.96c0-.35-.26-.53-.61-.53h-7.94c-1.4,0-1.76,.04-2.02,.92-.31,1.14,.09,2.06-.79,2.06-.35,0-.61-.22-.61-.66s.35-1.84,.35-4.34-.35-3.86-.35-4.34c0-.39,.26-.66,.61-.66,.79,0,.53,.79,.75,1.89s.66,1.14,2.06,1.14h20.09c1.84,0,2.28,0,2.63-1.14,.31-1.01-.09-1.97,.88-1.97,.35,0,.61,.35,.61,.97,0,.53-.26,1.84-.26,4.12s.26,3.64,.26,4.17c0,.61-.26,.97-.7,.97-.83,0-.53-.88-.75-1.71-.35-1.4-.79-1.4-2.68-1.4h-9.39c-.35,0-.61,.18-.61,.53v9.96c0,.35,.26,.57,.61,.57h9.39c1.84,0,2.28-.04,2.63-1.18,.31-1.01-.09-1.93,.88-1.93,.35,0,.61,.31,.61,.92,0,.53-.26,1.89-.26,4.17s.26,3.64,.26,4.17c0,.61-.26,.92-.7,.92-.83,0-.53-.88-.75-1.71-.35-1.4-.79-1.4-2.68-1.4h-20.09c-1.4,0-1.76,.09-2.02,.97-.31,1.14,.09,2.06-.79,2.06-.35,0-.61-.22-.61-.66s.35-1.84,.35-4.34-.35-3.86-.35-4.34c0-.4,.26-.66,.61-.66,.79,0,.53,.79,.75,1.89s.66,1.14,2.06,1.14Zm10.35,32.37c-8.16,0-14.57-5.88-14.57-13.21,0-3.2,1.01-5.97,1.62-6.49,.31-.31,1.93-.57,4.52-.57,.48,0,.79,.13,.79,.35,0,.39-.66,.79-1.76,1.45-2.59,1.58-3.99,3.16-3.99,5.44,0,4.74,5.4,8.51,13.6,8.51,7.59,0,13.07-3.77,13.07-8.12,0-2.72-1.49-4.48-4.52-5.84-1.58-.7-2.5-1.01-2.5-1.54,0-.26,.31-.48,.92-.48,.35,0,1.62,.13,3.73,.13s3.77,3.12,3.77,7.55c0,7.37-6.45,12.81-14.7,12.81Zm-12.83,21.12l3.77,.13c.75,.03,1.09,.13,1.08,.52-.03,.79-1.86,.51-3.36,2.03-1.14,1.15-1.77,2.88-1.85,5.29-.08,2.32,.53,2.48,2.59,2.55l7.23,.25c.75,.03,.88,.03,.9-.76l.07-1.97c.06-1.8-.28-3.3-.66-3.71-1.1-1.22-2.65-.71-2.62-1.63,.01-.39,.19-.52,.63-.5,1.1,.04,2.58,.31,4.33,.37,2.06,.07,3.34-.02,3.73,0,.53,.02,.78,.25,.77,.55-.03,.75-1.38,.52-3.12,1.38-1.34,.66-1.51,1.79-1.58,3.63l-.07,1.93c-.02,.61,.15,.8,.76,.82l9.03,.32c2.41,.08,2.83-.47,2.92-3.06,.09-2.72-.21-4.18-2.31-5.61-1.59-1.11-2.98-1.51-2.95-2.21,0-.18,.28-.43,.41-.42,0,0,.31,.05,.79,.12l4.24,.63c1.35,.18,1.53,.14,1.49,1.41-.06,1.8-.55,5.56-.74,11.17-.09,2.59,.08,3.95,.07,4.3-.02,.66-.25,.96-.74,.94-.79-.03-.5-.81-.64-1.91-.13-1.28-.96-1.35-2.67-1.41l-20.08-.7c-1.32-.05-1.75-.06-2.05,.76-.34,.95,.02,1.89-.85,1.86-.39-.01-.6-.28-.59-.77,.01-.35,.26-2.49,.4-6.53,.18-5.13,.1-8.03,.12-8.6,.04-1.18,.44-1.21,1.36-1.18h.18Zm7.51,46.11l-16.91-11.41c-.76-.52-1.26-.64-1.68-.02-.37,.55-.31,1.17-.6,1.6-.15,.22-.49,.25-.82,.03-.95-.64,.45-4.2,4.15-9.69,4.66-6.91,12.45-7.95,19.47-3.22,7.09,4.78,8.82,11.88,3.94,19.11-1.28,1.89-2.69,3.21-3.55,4.48-.76,1.13-1.19,2.32-1.81,3.23-.34,.51-.73,.62-1.1,.37-.69-.47,.05-1.02,.34-1.84,.49-1.36,.13-1.61-1.43-2.66Zm1.15-3.98c2.51,1.69,3.75,1.89,5.22-.29,3.14-4.66,1.1-10.42-5.44-14.84-6.15-4.15-12.62-4.12-15.64,.35-1.69,2.51-1.23,3.24,.18,4.2l15.68,10.57Zm-46.89,1.29v20.09c0,1.89,1.01,2.85,2.85,2.85s3.29-.79,4.52-2.41c1.32-1.75,1.8-2.94,2.28-2.94,.18,0,.39,.22,.39,.35,0,.04,0,.35-.04,.79l-.44,4.12c-.04,.39-.09,.61-.09,.75,0,.48-.31,.75-.88,.75-1.84,0-5.4-.39-10.57-.39-2.28,0-3.64,.26-4.17,.26-.61,0-.92-.26-.92-.7,0-.83,.88-.53,1.71-.75,1.4-.35,1.4-.79,1.4-2.68v-20.09c0-1.32-.04-1.76-.88-2.02-1.05-.35-1.89,.09-1.89-.79,0-.35,.22-.61,.57-.61,.44,0,1.67,.35,4.04,.35,2.63,0,4.04-.35,4.48-.35,.39,0,.66,.26,.66,.61,0,.79-.79,.53-1.89,.75-1.1,.22-1.14,.66-1.14,2.06Zm-21.51,3.9c-.09-.26-.18-.39-.26-.39s-.22,.13-.26,.35l-2.06,7.77c-.04,.22-.04,.39-.04,.44,0,.13,.13,.26,.31,.26h4.39c.18,0,.39-.18,.39-.35,0-.13-.04-.26-.09-.44l-2.37-7.63Zm2.15-6.05l6.63,20.88c.61,2.02,1.01,3.2,2.15,3.95,.83,.57,1.62,.44,1.62,.97,0,.48-.26,.61-.92,.61-.75,0-1.93-.26-3.69-.26-2.46,0-3.95,.22-4.52,.22-.53,0-.75-.13-.75-.53s.35-.7,.88-.7c1.45,0,1.8-.26,1.8-1.05,0-.39-.13-1.05-.39-1.97l-1.71-5.62c-.09-.31-.31-.35-.66-.35h-5.44c-.18,0-.44,.18-.48,.39l-1.05,3.9c-.44,1.71-.66,2.85-.66,3.38,0,.88,.35,1.05,1.14,1.18,1.18,.18,1.76,.31,1.76,.97,0,.39-.26,.53-.75,.53-.61,0-1.93-.26-3.82-.26-1.27,0-2.28,.22-2.9,.22-.53,0-.79-.22-.79-.57,0-.92,1.32-.35,2.19-1.01,.79-.57,1.1-1.67,1.58-3.25l6.98-22.64c.22-.66,.26-1.05,.75-1.05,.61,0,.66,.83,1.05,2.06Zm-21.05,12.2c.92,.66,1.32,1.62,1.8,2.76l2.54,6.05c1.01,2.37,1.49,3.69,2.06,3.91,.97,.39,1.84,.35,1.84,1.01,0,.39-.22,.44-.75,.44-.75,0-1.67-.13-2.68-.13-.66,0-1.27,.13-1.93,.13-.88,0-.97-.48-1.36-1.45l-3.95-9.96c-.61-1.54-1.1-1.97-2.46-1.97h-.44c-.35,0-.57,.26-.57,.61v8.64c0,1.71,.04,2.76,1.93,2.76,.7,0,.97,.22,.97,.75,0,.35-.35,.61-.88,.61-.44,0-1.71-.26-3.99-.26s-3.64,.26-4.17,.26c-.61,0-.92-.26-.92-.7,0-.83,.88-.53,1.71-.75,1.4-.35,1.4-.79,1.4-2.68v-20.09c0-1.4-.09-1.76-.97-2.02-1.14-.31-2.06,.09-2.06-.79,0-.57,.39-.61,1.18-.61,.35,0,1.36,.18,2.9,.18,2.19,0,4.3-.26,6.27-.26,4.69,0,7.2,2.72,7.2,6.8,0,3.51-1.8,6.1-4.69,6.76Zm-5.88-1.58c0,.92,.53,1.01,2.02,1.01,2.98,0,4.56-1.93,4.56-5.57s-1.54-5.97-4.39-5.97c-2.02,0-2.19,.75-2.19,2.19v8.34Zm-10.42-12.5l-.26,5.79c-.04,.97-.18,1.23-.61,1.23-.79,0-.75-1.23-1.27-2.94-.79-1.89-2.06-2.15-4.74-2.15h-.7c-.35,0-.57,.39-.57,.7v21.5c0,1.84,.04,2.24,1.18,2.63,1.01,.35,1.93-.09,1.93,.88,0,.35-.31,.61-.92,.61-.92,0-2.33-.31-4.17-.31s-3.25,.31-4.17,.31c-.61,0-.92-.26-.92-.7,0-.88,.97-.48,1.93-.79,1.14-.35,1.18-.75,1.18-2.63v-21.37c0-.35-.22-.83-.57-.83h-1.23c-1.8,0-2.85,.7-3.95,2.11-1.05,1.75-1.45,2.81-2.15,2.81-.31,0-.48-.04-.48-.61,0-.04,.09-.39,.18-.75l1.1-4.48c.31-1.32,.31-2.24,.88-2.24,.53,0,.48,1.45,1.01,1.49,.31,.31,1.01,.39,2.06,.39,.83,0,1.89-.04,3.16-.04h5.4c1.45,0,2.59,.09,3.42,.09,.66,0,1.14-.04,1.4-.22,.79-.48,.97-1.76,1.4-1.76,.35,0,.48,.53,.48,.79v.48Zm-39.25,7.46c0-4.52,2.98-7.63,7.77-7.63,2.46,0,4.61,.83,5,1.36,.22,.26,.35,1.89,.35,4.78,0,.61-.22,.92-.57,.92-.61,0-.66-.83-1.27-2.33-.92-2.33-1.84-3.6-3.9-3.6-2.59,0-4.21,1.75-4.21,4.52,0,2.33,1.32,3.6,4.08,5.05,4.69,2.46,7.33,4.69,7.33,9.65s-3.55,8.91-8.47,8.91c-3.86,0-6.49-1.27-6.49-3.77,0-1.01,.09-1.93,.09-2.76,0-.66-.04-1.05-.04-1.14,0-.92,.26-1.36,.66-1.36,.79,0,.57,1.4,1.05,3.07,.88,2.94,3.03,4.69,5.26,4.69,2.63,0,4.74-2.24,4.74-5.26,0-2.68-1.67-4.74-5-6.63-3.55-2.02-6.36-3.33-6.36-8.47Zm-21.15-3.42v15.31c0,5.35,1.05,8.16,5.7,8.16,2.33,0,4.08-.83,5.13-2.33,1.05-1.58,1.1-3.69,1.1-6.71v-10.62c0-3.33-.04-5.05-.79-5.66-.79-.61-2.37,0-2.37-.97,0-.39,.26-.61,.75-.61,.53,0,1.49,.13,2.98,.13,1.58,0,2.59-.13,3.03-.13,.61,0,.92,.18,.92,.61,0,.53-.39,.61-1.27,.61-1.84,0-1.93,1.49-1.93,5.88v10.79c0,3.03-.04,5.31-1.18,7.28-1.23,2.11-3.69,3.29-7.06,3.29-3.73,0-6.23-.97-7.72-3.16-1.18-1.71-1.27-3.82-1.27-6.49v-15.4c0-1.45-.04-1.76-.97-2.02-1.14-.35-2.02,.09-2.02-.79,0-.35,.26-.61,.66-.61,.44,0,1.84,.35,4.34,.35s3.9-.35,4.34-.35,.66,.26,.66,.61c0,.92-1.01,.48-2.06,.79-.88,.26-.97,.61-.97,2.02Zm-19.97,3.9c-.09-.26-.18-.39-.26-.39s-.22,.13-.26,.35l-2.06,7.77c-.04,.22-.04,.39-.04,.44,0,.13,.13,.26,.31,.26h4.39c.18,0,.39-.18,.39-.35,0-.13-.04-.26-.09-.44l-2.37-7.63Zm2.15-6.05l6.63,20.88c.61,2.02,1.01,3.2,2.15,3.95,.83,.57,1.62,.44,1.62,.97,0,.48-.26,.61-.92,.61-.75,0-1.93-.26-3.69-.26-2.46,0-3.95,.22-4.52,.22-.53,0-.75-.13-.75-.53s.35-.7,.88-.7c1.45,0,1.8-.26,1.8-1.05,0-.39-.13-1.05-.39-1.97l-1.71-5.62c-.09-.31-.31-.35-.66-.35h-5.44c-.18,0-.44,.18-.48,.39l-1.05,3.9c-.44,1.71-.66,2.85-.66,3.38,0,.88,.35,1.05,1.14,1.18,1.18,.18,1.76,.31,1.76,.97,0,.39-.26,.53-.75,.53-.61,0-1.93-.26-3.82-.26-1.27,0-2.28,.22-2.9,.22-.53,0-.79-.22-.79-.57,0-.92,1.32-.35,2.19-1.01,.79-.57,1.1-1.67,1.58-3.25l6.98-22.64c.22-.66,.26-1.05,.75-1.05,.61,0,.66,.83,1.05,2.06Zm-58.81,22.24v-20.4c0-.92-.18-1.4-.92-1.4-.66,0-1.14,.39-1.67,.39-.26,0-.48-.26-.48-.66,0-1.14,3.73-1.97,10.35-1.97,8.34,0,13.56,5.88,13.56,14.35s-4.91,13.95-13.65,13.95c-2.28,0-4.17-.44-5.7-.44-1.36,0-2.59,.31-3.69,.31-.61,0-.92-.26-.92-.7,0-.83,.88-.53,1.71-.75,1.4-.35,1.4-.79,1.4-2.68Zm3.95-1.27c0,3.03,.53,4.17,3.16,4.17,5.62,0,9.26-4.91,9.26-12.81,0-7.41-3.64-12.77-9.04-12.77-3.03,0-3.38,.79-3.38,2.5v18.91Zm-21.51-14.92c-.09-.26-.18-.39-.26-.39s-.22,.13-.26,.35l-2.06,7.77c-.04,.22-.04,.39-.04,.44,0,.13,.13,.26,.31,.26h4.39c.18,0,.39-.18,.39-.35,0-.13-.04-.26-.09-.44l-2.37-7.63Zm2.15-6.05l6.63,20.88c.61,2.02,1.01,3.2,2.15,3.95,.83,.57,1.62,.44,1.62,.97,0,.48-.26,.61-.92,.61-.75,0-1.93-.26-3.69-.26-2.46,0-3.95,.22-4.52,.22-.53,0-.75-.13-.75-.53s.35-.7,.88-.7c1.45,0,1.8-.26,1.8-1.05,0-.39-.13-1.05-.4-1.97l-1.71-5.62c-.09-.31-.31-.35-.66-.35h-5.44c-.18,0-.44,.18-.48,.39l-1.05,3.9c-.44,1.71-.66,2.85-.66,3.38,0,.88,.35,1.05,1.14,1.18,1.18,.18,1.76,.31,1.76,.97,0,.39-.26,.53-.75,.53-.61,0-1.93-.26-3.82-.26-1.27,0-2.28,.22-2.9,.22-.53,0-.79-.22-.79-.57,0-.92,1.32-.35,2.19-1.01,.79-.57,1.1-1.67,1.58-3.25l6.98-22.64c.22-.66,.26-1.05,.75-1.05,.61,0,.66,.83,1.05,2.06Zm-40.62,14.27l8.94-18.34c.4-.83,.46-1.34-.21-1.67-.59-.29-1.2-.15-1.67-.38-.24-.12-.32-.45-.15-.8,.5-1.03,4.22-.14,10.17,2.76,7.49,3.65,9.61,11.23,5.9,18.84-3.75,7.69-10.53,10.39-18.38,6.56-2.05-1-3.55-2.22-4.93-2.89-1.22-.6-2.46-.86-3.45-1.34-.55-.27-.71-.64-.52-1.03,.37-.75,1.02-.09,1.86,.08,1.42,.3,1.61-.09,2.43-1.79Zm4.11,.59c-1.33,2.72-1.35,3.98,1.01,5.13,5.05,2.46,10.47-.36,13.94-7.46,3.25-6.66,2.32-13.07-2.53-15.44-2.72-1.33-3.38-.77-4.13,.77l-8.29,17Zm-2.26-27.32l-17.04,10.65c-1.56,.98-1.91,1.25-1.6,2.4,.27,1.02,1.1,1.59,.28,2.1-.3,.19-.68,.07-1.01-.46-.28-.45-.78-1.74-1.99-3.67-1.21-1.93-2.15-2.95-2.43-3.4-.33-.52-.27-.92,.11-1.15,.71-.44,.91,.47,1.54,1.06,1.04,1,1.41,.77,3.01-.23l17.04-10.65c1.19-.74,1.44-1,1.2-1.89-.34-1.13-1.17-1.7-.42-2.17,.3-.19,.64-.14,.87,.23,.23,.37,.68,1.75,2,3.87,1.33,2.12,2.34,3.09,2.6,3.5,.21,.33,.13,.7-.17,.88-.67,.42-.86-.39-1.63-1.2-.77-.81-1.16-.62-2.35,.13Zm-9.21-21.67c4.44-.86,8.06,1.47,8.98,6.17,.47,2.41,.06,4.68-.38,5.17-.22,.27-1.79,.7-4.63,1.26-.6,.12-.95-.04-1.01-.38-.12-.6,.69-.81,2.04-1.69,2.11-1.35,3.18-2.5,2.79-4.52-.49-2.54-2.53-3.8-5.24-3.27-2.28,.44-3.28,1.98-4.17,4.97-1.52,5.08-3.21,8.09-8.08,9.03-5.04,.98-9.42-1.79-10.36-6.61-.74-3.79,0-6.62,2.46-7.09,.99-.19,1.91-.28,2.73-.44,.65-.13,1.03-.24,1.11-.26,.9-.18,1.39,0,1.46,.39,.15,.77-1.27,.83-2.81,1.62-2.72,1.42-4.03,3.87-3.6,6.06,.5,2.58,3.1,4.22,6.07,3.65,2.63-.51,4.33-2.54,5.55-6.17,1.3-3.87,2.06-6.88,7.1-7.86Zm-5.58-11.42c-.66,.92-1.62,1.32-2.76,1.8l-6.05,2.54c-2.37,1.01-3.69,1.49-3.9,2.06-.39,.97-.35,1.84-1.01,1.84-.39,0-.44-.22-.44-.75,0-.75,.13-1.67,.13-2.68,0-.66-.13-1.27-.13-1.93,0-.88,.48-.97,1.45-1.36l9.96-3.95c1.54-.61,1.97-1.1,1.97-2.46v-.44c0-.35-.26-.57-.61-.57h-8.64c-1.71,0-2.76,.04-2.76,1.93,0,.7-.22,.97-.75,.97-.35,0-.61-.35-.61-.88,0-.44,.26-1.71,.26-3.99s-.26-3.64-.26-4.17c0-.61,.26-.92,.7-.92,.83,0,.53,.88,.75,1.71,.35,1.4,.79,1.4,2.68,1.4h20.09c1.4,0,1.76-.09,2.02-.97,.31-1.14-.09-2.06,.79-2.06,.57,0,.61,.39,.61,1.18,0,.35-.18,1.36-.18,2.9,0,2.19,.26,4.3,.26,6.27,0,4.69-2.72,7.2-6.8,7.2-3.51,0-6.1-1.8-6.76-4.69Zm1.58-5.88c-.92,0-1.01,.53-1.01,2.02,0,2.98,1.93,4.56,5.57,4.56s5.97-1.54,5.97-4.39c0-2.02-.75-2.19-2.19-2.19h-8.34Zm10.4-12.22h-3.77c-.75,0-1.1-.09-1.1-.48,0-.79,1.84-.57,3.29-2.15,1.1-1.18,1.67-2.94,1.67-5.35s-.61-2.46-2.68-2.46h-7.24c-.75,0-.88,0-.88,.79v1.97c0,1.8,.39,3.29,.79,3.69,1.14,1.18,2.68,.61,2.68,1.54,0,.39-.18,.53-.61,.53-1.1,0-2.59-.22-4.34-.22-2.06,0-3.33,.13-3.73,.13-.53,0-.79-.22-.79-.53,0-.75,1.36-.57,3.07-1.49,1.32-.7,1.45-1.84,1.45-3.69v-1.93c0-.61-.18-.79-.79-.79h-9.04c-2.41,0-2.81,.57-2.81,3.16,0,2.72,.35,4.17,2.5,5.53,1.62,1.05,3.03,1.4,3.03,2.11,0,.18-.26,.44-.39,.44,0,0-.31-.04-.79-.09l-4.26-.48c-1.36-.13-1.54-.09-1.54-1.36,0-1.8,.35-5.57,.35-11.19,0-2.59-.22-3.95-.22-4.3,0-.66,.22-.97,.7-.97,.79,0,.53,.79,.7,1.89,.18,1.27,1.01,1.32,2.72,1.32h20.09c1.32,0,1.75,0,2.02-.83,.31-.97-.09-1.89,.79-1.89,.39,0,.61,.26,.61,.75,0,.35-.18,2.5-.18,6.54,0,5.13,.18,8.03,.18,8.6,0,1.18-.39,1.23-1.32,1.23h-.18Zm-2.23-22.31l-23.47-7.68c-.53-.18-.79-.35-.79-.57,0-.39,.92-.57,2.02-.97l20.53-7.06c2.19-.75,3.55-1.14,3.99-2.02,.31-.61,.04-1.76,.7-1.76,.39,0,.66,.22,.66,.7,0,.26-.26,2.02-.26,5.48,0,1.36,.22,2.37,.22,2.85,0,.44-.13,.61-.53,.61-1.23,0-.13-2.24-1.89-2.24-.44,0-1.05,.13-1.84,.39l-14.08,4.87c-.66,.22-.97,.35-.97,.53s.35,.35,.97,.53l12.81,3.77c1.36,.39,2.33,.57,2.85,.57,2.24,0,.97-2.59,2.24-2.59,.35,0,.61,.31,.61,.83,0,.44-.26,1.45-.26,3.07,0,1.8,.18,2.81,.18,3.03,0,.57-.18,.83-.57,.83-.88,0-.44-1.05-.79-1.76-.35-.7-1.14-1.05-2.33-1.45Zm.31-25.02h-20.09c-1.84,0-2.28,.04-2.63,1.18-.31,1.01,.09,1.93-.88,1.93-.35,0-.61-.31-.61-.92,0-.53,.26-1.89,.26-4.17s-.26-3.64-.26-4.17c0-.61,.26-.92,.7-.92,.83,0,.53,.88,.75,1.71,.35,1.4,.79,1.4,2.68,1.4h20.09c1.4,0,1.76-.09,2.02-.97,.31-1.14-.09-2.06,.79-2.06,.35,0,.61,.22,.61,.66s-.35,1.84-.35,4.34,.35,3.86,.35,4.34c0,.39-.26,.66-.61,.66-.79,0-.53-.79-.75-1.89-.22-1.1-.66-1.14-2.06-1.14Zm3.43-33.94v5.62c0,.39-.04,.48-.44,.75l-19.09,11.76c-.04,.18,.18,.26,.44,.26h12.02c1.23,0,1.97-.04,2.24-.04,3.16,0,3.55-.13,3.55-2.54,0-.44,.26-.79,.61-.79,.39,0,.66,.44,.66,1.14,0,.79-.13,1.75-.13,3.03s.13,2.11,.13,2.72-.26,.97-.66,.97c-.48,0-.57-.18-.57-.75v-.44c0-1.54-1.4-1.67-4.61-1.67h-21.89c-.57,0-1.1-.31-1.1-.66,0-.31,.26-.57,.7-.83l23.52-14.43c.04-.18-.18-.26-.44-.26h-17.07c-3.29,0-4.26,.18-4.26,1.93,0,.26,.04,.53,.04,.79,0,.35-.26,.61-.7,.61-.39,0-.66-.39-.66-1.14,0-.79,.18-1.8,.18-3.03,0-1.1-.18-2.02-.18-2.81,0-.7,.26-1.05,.66-1.05,.48,0,.7,.22,.7,.83v.39c0,1.8,1.23,1.93,4.65,1.93h18.25c1.32,0,1.75-.04,2.02-.88,.31-1.05-.04-2.02,.79-2.02,.39,0,.61,.22,.61,.61Zm-3.42-20.67h-15.31c-5.35,0-8.16,1.05-8.16,5.7,0,2.33,.83,4.08,2.33,5.13,1.58,1.05,3.69,1.1,6.71,1.1h10.62c3.33,0,5.05-.04,5.66-.79,.61-.79,0-2.37,.97-2.37,.39,0,.61,.26,.61,.75,0,.53-.13,1.49-.13,2.98,0,1.58,.13,2.59,.13,3.03,0,.61-.18,.92-.61,.92-.53,0-.61-.39-.61-1.27,0-1.84-1.49-1.93-5.88-1.93h-10.79c-3.03,0-5.31-.04-7.28-1.18-2.11-1.23-3.29-3.69-3.29-7.06,0-3.73,.97-6.23,3.16-7.72,1.71-1.18,3.82-1.27,6.49-1.27h15.4c1.45,0,1.76-.04,2.02-.97,.35-1.14-.09-2.02,.79-2.02,.35,0,.61,.26,.61,.66,0,.44-.35,1.84-.35,4.34s.35,3.9,.35,4.34-.26,.66-.61,.66c-.92,0-.48-1.01-.79-2.06-.26-.88-.61-.97-2.02-.97Zm179.55,1.82c-2.26,8.07,4.3,.16,6.78,.12-1.11-2.2-5.51-.85-6.78-.12Zm83.69,36.31c2.02,2.2-5.96-13.54-10.6-14.69-13.1-3.25-15.48,11.44-15.15,22.07,.1,3.14-2.43,4.83-4.34,5.15-6.77,1.13-12.16,6.74,2.07,1.26,7.01,0,1.17-3.37,4.04-9.79,2.12-4.75,12.9-9.66,12.9-9.61,0,.05,7.36,1.56,11.08,5.62Zm-63.29-19.85c1.45,5.96-7.74,5.45-6.85,12,.85,6.19,12.96,9.33,10.99,15.25-.32,.97-15.87-.26-10.46,3.71,5.8-2.42,12.57-.64,13.57,.41,.74-.45,1.5-.65,1.5-1.54,0-2.66-2.92-6.88-5.86-10.16-2.64-2.95,2.63-9.15,7.1-12.59,4.71-3.35-7.21-14.66-9.98-7.09Zm-19.29,4.98c-1.49,.77-1.1,7.5,6.33-1.19,.93-1.08,1.87-1.33,3.27-1.64,2.91-.63,6.21-5.79,3.3-8.92-.21-.33-2.35-1.18-2.26-.97,.04,.09-1.94-2.6-2.54-3.49l-.6,.15c3.71,2.85-.24,8.75-2.17,4.14-.29-.69-2.07,5.5-2.74,5.24l-4.45,4.15c3.8-.28,3.08,1.89,1.84,2.53Zm82.84,28.25c1.18-2.95,1.02-4.97,1.01-4.97,0,0-1.76,3.99-4,6.29-2.23,2.29-3.71,1.77-5.09,1.79-.75-.95-1.45-1.87-3.75-1.45-2.53,.46-3.76,1.14-5.66,2.97,0,0,4.29-3.62,6.71-1.5,.4,.35,.49,.66,1,.9,.07,.16,.2,.38,.39,.69,3.54,.38,7.66-1.09,9.39-4.72Zm-81.46-24.06c-1.2,.57-2.6,.85-4.07,.85-4.85,0-8.78-3.38-8.78-7.54,0-.49,2.17-1.12,2.27-1.58l2.13-8.39s-.07-1.32,.05-2.28c.12-.96,.51-1.5,.51-1.5-9-3.55-4.44-13.13-3.38-14.61,.96-1.34-.14,6.25,3.1,7.38,1.88,.66,3.18,.6,4.04,.56,0,0,3.84-1.55,6.6-1.37,2.76,.18,6.05,2.74,6.32,2.38,8.63,.67,7.16-8.38,8.63-8.82,.81-.24,3.14,10.63-.32,12.04l13.26,6.55s13.18,1.5,27.5,6.28c4.31,1.44,11.09-.51,14.55,1.61,2.91,1.78,8.38,8.06,8.38,8.06,3.41,3.96,6.27,15.02,4.98,21.2-2.48,11.89-12.08,12.29-13.93,12.28-1.62,2.7-3.79,1.83-7.65,1.4-6.6-.2-11.48,0-18.81-.03-3.76,0-1.56-4.06-2.66-4.06h-41.85c-2.92,0-1.49-2.6-.74-5.26,.79-2.81,.07-4.4,2.77-5.52,1.94-.8,.94-.66,1.84-2.68,.62-1.4,1-2.45-.48-5.32-1.49-2.87-2.54-3.62-2.79-5.19-.42-2.71,.2-7.47-1.44-6.45l-.05,.02Zm-12.11,53.24c-2.26,8.07,4.3,.16,6.78,.12-1.11-2.2-5.51-.85-6.78-.12Zm84.38,35.1c2.02,2.2-5.96-13.54-10.6-14.69-13.1-3.25-15.48,11.44-15.15,22.07,.1,3.14-2.43,4.83-4.34,5.15-6.77,1.13-12.16,6.74,2.07,1.26,7.01,0,1.17-3.37,4.04-9.79,2.12-4.75,12.9-9.66,12.9-9.61s7.36,1.56,11.08,5.62Zm-63.29-19.85c1.45,5.96-7.74,5.45-6.85,12,.85,6.19,12.96,9.33,10.99,15.25-.32,.97-15.87-.26-10.46,3.71,5.8-2.42,12.57-.64,13.57,.41,.74-.45,1.5-.65,1.5-1.54,0-2.66-2.92-6.88-5.86-10.16-2.64-2.95,2.63-9.15,7.1-12.59,4.71-3.35-7.21-14.66-9.98-7.09Zm-19.68,5.87c-1.49,.77-1.1,7.5,6.33-1.19,.93-1.08,1.87-1.33,3.27-1.64,2.91-.63,6.21-5.79,3.3-8.92-.21-.33-2.35-1.18-2.26-.97,.04,.09-1.94-2.6-2.54-3.49l-.59,.15c3.71,2.85-.24,8.75-2.18,4.14-.29-.69-2.07,5.5-2.74,5.24l-4.45,4.15c3.8-.28,3.08,1.89,1.84,2.53Zm82.84,28.25c1.18-2.95,1.02-4.97,1.01-4.97,0,0-1.76,3.99-4,6.29-2.23,2.29-3.71,1.77-5.09,1.79-.75-.95-1.45-1.87-3.75-1.45-2.53,.46-3.76,1.14-5.66,2.97,0,0,4.29-3.62,6.71-1.5,.4,.35,.49,.66,1,.9,.07,.16,.2,.38,.39,.69,3.54,.38,7.66-1.09,9.39-4.72Zm-81.46-24.06c-1.2,.57-2.6,.85-4.07,.85-4.85,0-8.78-3.38-8.78-7.54,0-.49,2.17-1.12,2.27-1.58l2.13-8.39s-.07-1.32,.05-2.28c.12-.96,.51-1.5,.51-1.5-9-3.55-4.44-13.13-3.38-14.61,.96-1.34-.14,6.25,3.1,7.38,1.88,.66,3.18,.6,4.04,.56,0,0,3.84-1.55,6.6-1.37,2.76,.18,6.05,2.74,6.32,2.38,8.63,.67,7.16-8.38,8.63-8.82,.81-.24,3.14,10.63-.32,12.04l13.26,6.55s13.18,1.5,27.5,6.28c4.31,1.44,11.09-.51,14.55,1.61,2.91,1.78,8.38,8.06,8.38,8.06,3.41,3.96,6.27,15.02,4.98,21.2-2.48,11.89-12.08,12.29-13.93,12.28-1.62,2.7-3.79,1.83-7.65,1.4-5.37-.15-11.48,0-18.81-.03-3.76,0-1.56-4.06-2.66-4.06h-41.85c-2.92,0-1.49-2.6-.74-5.26,.79-2.81,.07-4.4,2.77-5.52,1.94-.8,.94-.66,1.84-2.68,.62-1.4,1-2.45-.48-5.32-1.49-2.87-2.54-3.62-2.79-5.19-.42-2.71,.2-7.47-1.44-6.45l-.05,.02Zm-93.77-212.85h8.77c.65,0,1.18,.53,1.18,1.18v8.77c0,.65-.53,1.18-1.18,1.18l-1.16-1.83h-6.8s0-6.71,0-6.71l-1.99-1.41c0-.65,.53-1.18,1.18-1.18Zm-20.36,11.69l-3.09-1.05h-1.74v-4.1l-1.37-2.92c0-.37,.2-.7,.46-.73l5.73-1.8c.25-.03,.46,.24,.46,.61v9.25c0,.37-.2,.7-.46,.73Zm218.69,208v-126.29h-128.6v164.97h89.92c21.36,0,38.68-17.32,38.68-38.68Zm0-131.31v-153.54h-128.59v153.54c5.89-2.01,25.89-5.49,42.92-7.07,4.37-6.47,8.7-15.1,6.14-25.83-2.15,.01-1.56,1.55-3.78,1.55-2.22,0-.83,.46-3.06,.46-1.11,0-1.45,.03-1.78,0-.33-.03-.65-.13-1.74-.37-2.17-.49-.9-2.4-3.07-2.89-2.17-.49-.72-.33-2.55-1.61-1.83-1.27-2.09,.72-3.91-.55-.9-.63-1.19-.81-1.4-1.06-.21-.26-.34-.58-.96-1.52-1.23-1.86-2.01-.22-3.24-2.08-1.23-1.86-1.72-1.53-2.15-3.71-.43-2.18-.23-4.34-.67-6.52-.43-2.18,.64-1.75,1.01-3.94,.38-2.19-.77-1.09-.4-3.28,.38-2.19,2.03-.54,3.11-2.48,1.08-1.94-1.22-1.63-.14-3.58,1.08-1.94,2.19,.51,3.84-.98s-1.04-2.35,.61-3.84c1.65-1.49,3.67-9.01,2.99-11.12-.68-2.12,.8-1.52,1.2-3.71,.4-2.19,1.95-.8,2.35-2.99,.4-2.19-1.66-1.61-.52-3.52,1.14-1.91,2.8,.49,3.94-1.43,1.14-1.91-.67-1.1,1.06-2.5,1.72-1.41,1.01-.34,2.74-1.75,1.72-1.41-.46-2.42,1.64-3.15,2.04-.71,.8-1.17,2.64-1.86-.69-2.33-.14-.57-.76-2.71-.62-2.14,2.14-1.03,1.52-3.16-.62-2.14-.33-.31-.95-2.44-.62-2.14-1.5-.99-1.06-3.17,.44-2.18,3.17-3.61,4.41-5.45,1.24-1.84,1.95-4.54-.7-5.08,1.24-1.84,.73-2.07,2.57-3.32,1.84-1.24,2.93,1.94,4.78,.7,1.84-1.24,.04-3.83,2.22-4.27,2.18-.44,2.04,2.67,4.22,2.23,2.18-.44,.96-.21,3.14,.23,2.18,.44,1.31,.95,3.49,1.39,2.18,.44,2.07-2.19,3.91-.94,1.84,1.24,1.38,.36,3.23,1.6,1.84,1.24-.67,2.31,.57,4.16,1.24,1.84,.87,1.04,2.11,2.88,1.24,1.84,3.27,.02,3.71,2.2,.44,2.18-.85,1.68-.41,3.86,.44,2.18,1.29,1.07,.66,3.21-.62,2.14,.14,.44-.49,2.58-.62,2.14,.42,5.55,2.52,6.27,2.1,.73,.8,1.29,2.52,2.7,1.72,1.41,.91,.46,2.64,1.87,1.72,1.41-.71,1.7,.43,3.61,1.14,1.91,1.93,.03,3.07,1.94,1.14,1.91-1.39,1.28-.99,3.47,.4,2.19,2.7,.66,3.1,2.85,.4,2.19,.59,1.14-.09,3.26-.68,2.12-1.35,.23-2.03,2.35-.68,2.12-.32,.56-1.01,2.68-.66,2.04,1.05,1.12,.57,2.94,.27-.15,.64-.19,1.16,.04,2.04,.88-.58,3.5,1.46,4.38,2.04,.88,1.79-1.49,3.44,0,1.65,1.49,.99,.11,2.64,1.61,1.65,1.49,.19,1.17,1.27,3.11,1.08,1.94,1.09,.35,2.17,2.29,1.08,1.94,1.16,.95,1.53,3.14,.38,2.19-.93,1.12-.55,3.31,.38,2.19,2.1,1.56,1.68,3.74-.42,2.18-3.33,3.62-3.75,5.81-.42,2.18,1,1.51-.19,3.39-1.19,1.88-1.6,.39-2.79,2.27-1.19,1.88-.6,.31-2.39,1.64-1.79,1.33,.04,2.02-1.75,3.35-1.79,1.33-.91,.71-3.06,1.3-2.15,.58-1.59-1.01-3.74-.43-2.15,.58-.55,3.24-2.78,3.25-2.22,0-.84-1.33-3.06-1.32-2.22,0-.83,.8-3.06,.81-2.22,0-.83-.68-3.06-.67-2.22,0,.2-1.46-2.02-1.45-.46,0-1.12,.35-1.34,.51-2.2,10.29,1.45,18.92,5.59,25.33,20.57,1.15,32.89,3.66,47.44,7.52Zm-131.9-153.54h-126.26l-.02,153.9c5.28-2,20.53-4.83,20.53-4.83l5.95-56.71c-.58-.31-1.47-1.2-1.39-2.16,.08-.99,1.83-1.8,1.83-1.8l4.02-37.18c0-.26,.34-.43,.35-.44,.86-.25,6.41-1.5,6.61-1.46,1.33,.18,2.16,.39,2.95,.52,.47,.1,.56,.23,.61,.5,0,.05,.95,5.44,.96,5.38,1.41-.2,2.7-.35,3.77-.5,.05-.3,.62-7.05,.99-7.4,.17-.21,.49-.15,3.67-.41,.03-.72,.04-34.18,.03-35.08-1.16-.22-1.53-1.2-1.56-1.84-.03-.55,.48-1.93,1.92-1.93,.21,0,.81,.08,1.22,.46-.55-.38-1.94-.17-1.98,1.2-.01,.39,.46,1.33,1.35,1.33,.76,0,1.21-.57,1.3-.99-.04,1.03-.84,1.57-1.3,1.71,.07,.59,1.62,34.71,1.64,34.92,1.61-.1,3.96-.31,4.32-.29,.45,.03,1.7,.57,2.21,.68,.27,1.54,.51,3.39,.8,4.82,.69-.11,5.36-.5,6.47-.52,.2-1.5,.44-3.81,.56-4.62,.06-.33,.33-.38,.54-.38,.5,0,9.43,.72,9.91,.78,.35,.02,.45,.22,.5,.62,.12,1.01,.26,2.96,.44,4.07,1.06,.13,5.79,.66,5.78,.66-.02,0,.32-2.57,.45-3.26,.29-.09,1.15-.42,1.84-.55,2.14,.47,4.52,1.04,6.16,1.43,.14,.06,2.24,.57,2.28,.81,0,0-1.48,2.89-.92,7.35l3.79,30.28s1.63,.55,1.74,1.73c.05,.57-.67,1.56-1.5,1.94l7.13,56.56s15.16,3.16,20.34,4.28v-153.61Zm135.21,284.85c0,23.19-18.8,41.99-41.99,41.99h-180.85c-23.19,0-41.99-18.8-41.99-41.99l.05-288.16h264.76v288.16Zm-221.22-228.97l1.28,.09-.92-4.92-1.06-.24,.69,5.07Zm19.77-1.44l-.9-6-1.06-.29,.69,6.25,1.27,.04Zm-21.68-3.61c-2.08,.96-2.68,1.63-3.48,2.83-1.14,1.7-1.52,10.74-1.6,12.55-.09,2.08,.04,1.32-.15,3.36-.19,2.04-.36,4.26-.55,6.3-.19,2.04,.47,.15,.28,2.19-.19,2.04-.5,.92-.69,2.96-.19,2.04,1.15,.69,.95,2.73-.12,1.22,1.18,1.47,.77,2.7,0,1.04,1.76,.63,2.59,.76,7.36-.89,17.62-1.6,29.65-1.36,11.07,.05,24.98,1.43,29.6,2.39-.33-4.73-1.12-10.48-1.12-10.48l-3.71-1.61-.5-8.73c0-.65,.54-1.09,1.2-.98l2.26,.64c-.15-4.18-1.17-14.08-1.43-14.97-1.34-.3-4.23-1.08-5.16-1.25-.08,.4-.6,4.3-.87,6.42-.04,.28-.21,.46-.61,.4-1.85-.32-5.15-.85-7.13-1.12-.33-.09-.68-.23-.73-.49-.13-1.1-.54-6.63-.62-6.67-.09-.05-5.12-.57-8.02-.81-.11,1.29-.61,4.63-.83,6.4-.05,.32-.6,.64-.94,.64-2.7,.12-9.1,.19-9.99,.19-.41-5.83-5.38-7.07-6.66-6.99-.65,.04-1.44,.06-2.44,.14-.12,1.1-.64,6.17-.76,7.07-.03,.21-.19,.37-.44,.42-.23,.05-6.57,.36-7.86,.55-.14-.01-.47-3.6-1.03-6.16Zm25.8,96.3c-1.56-25.08,25.16-24.7,23.78,.55,0,0,12.16,1.56,12.61,1.43,.98-.28,1.1-1.42,.96-2.43-.08-.62-.87-10.91-.84-11.39,.09-1.36-4.75-44.27-4.75-44.27-5.48-1.64-21.18-2.11-30.96-2.22-.25,.04-.55,.07-.89,.07-6.38,.08-21.93,.83-29.73,2.02,0,0-1.69,1.08-1.84,3.7-.07,.89-1.5,2.33-1.67,4.37-.17,2.04,.68,2.67,.51,4.72-.17,2.04,.49-.11,.32,1.93-.17,2.04-.92,4.67,1,5.39,1.2,.45,2.13,2.17-.66,2.51-.49,.17-.85,.05-.87,.41-.1,2.05,1.03,2.32,.93,4.37-.1,2.05-.8,.79-.9,2.84-.04,.76,.91,3.96-.19,4.38-.19,.35-.09,2.28-.1,2.67-.01,.62,2.39,3.48,2.05,4.29-.48,1.15,.82,2.31,1.49,2.06,.99-.37,5.51,2.09-.29,2.78-.63,.27-.93,.63-.71,1.17,.76,1.9,1.55-.04,2.98,1.42,1.43,1.47-.27,2.31,1.16,3.78,1.43,1.47,2.13-.28,4.06,.42,1.93,.69,1.4,2.67,3.33,3.36,.73,.26,19.15-.45,19.25-.31Zm155.98-64.97c-.52-.22-.9-.18-1.16-.04,.48-1.81-1.22-.9-.57-2.94,.68-2.12,.32-.56,1.01-2.68,.68-2.12,1.35-.23,2.03-2.35,.68-2.12,.49-1.07,.09-3.26-.4-2.19-2.7-.66-3.1-2.85-.4-2.19,2.13-1.56,.99-3.47-1.14-1.91-1.93-.03-3.07-1.94-1.14-1.91,1.3-2.2-.43-3.61-1.72-1.41-.91-.46-2.64-1.87-1.72-1.41-.42-1.97-2.52-2.7-2.1-.73-3.14-4.14-2.52-6.27,.62-2.14-.14-.44,.49-2.58,.62-2.14-.22-1.03-.66-3.21-.44-2.18,.85-1.68,.41-3.86-.44-2.18-2.47-.35-3.71-2.2-1.24-1.84-.87-1.04-2.11-2.89-1.24-1.84,1.28-2.91-.57-4.16-1.84-1.24-2.35,3.86-4.19,2.61-1.84-1.24-4.09-.95-4.13-.45-.15,2.22-3.47-2.02-3.62,.2-.15,2.22-.94,.46-1.19,2.67-.25,2.21-2.19,.48-2.44,2.69-.25,2.21-2.52,2.86-2.77,5.07-.25,2.21-.22,2.28-.47,4.49-.25,2.21,1.7,.74,2.99,2.56,1.28,1.82-3.38,1.9-2.09,3.72,1.28,1.82,1.78,1.17,3.07,2.99,1.28,1.82-7.24,3.89-1.86,7.77,1.8,1.3-3.27,5.12-5.97-.3-1.2-2.39-6.27,3.59-2.99,6.57,1.65,1.5,2.39,2.39-5.08,4.78-2.12,.68,1.79,5.97-3.88,7.17,0,0-2.39,5.97,2.39,4.78,5.38-2.09,2.71,.47,3.84,2.39,1.13,1.92-.83,3.16,.3,5.08,1.13,1.92-4.71,1.67-3.58,3.58,1.13,1.92,4.19,4.03,2.69,5.68-5.53,6.05,3.65,4.06,4.78,5.97,1.13,1.92,6.31,2.39,3.62,6.87-1.14,1.91,8.37,.05,9.26,2.09,.89,2.04,5.38-2.93,6.27-.9,.89,2.04,6.58-3.98,7.47-1.94,.89,2.04,6.13-1.59,7.02,.45,.89,2.04,2.99-.1,3.88,1.94,.89,2.04,4.79-4.73,5.68-2.69,.89,2.04,4.03-.6,8.22-5.08,1.22-1.31,1.69-6.01,3.44-5.08,.42-2.18-1.76-3.89-2.14-6.09-.38-2.19,2.44-.02,2.06-2.21-.38-2.19-.45-1.2-1.53-3.14-1.08-1.94-1.09-.35-2.17-2.29-1.08-1.94,.38-1.62-1.27-3.11-1.65-1.49-.99-.11-2.64-1.61-1.65-1.49-1.4,.87-3.44,0-2.04-.88,.58-3.5-1.46-4.38Zm-34.69,63.84l21.59,.07c-1.26-4.41-6.13-11.01-5.22-20.57-.99-.99-.78,.53-1.58,.86-.43-.22-1.77-.9-2.04-.9-.25,0-.54,1.38-1.09,1.13-.62-.28-1.07-1.7-1.09-1.78,0-.02-1.14-.05-2.27,.09-.14,3.25-2.38,.46-2.23,1.15-2.01,.19-2.32-.6-2.48-.59-.32,.01-1.12,14.64-3.59,20.54Zm132.33,172.02c-.01,30.98-35.4,60.83-67.21,60.84h-102.4c-.54-.04-15.28-.79-18.28,10.46l-2.5,9.39-2.6-9.37c-3.14-11.32-16.72-10.51-17.1-10.49h-99.35c-31.92,.03-68.68-29.92-68.27-60.89v-376s377.7,0,377.7,0v376.06Zm-5.29,0v-370.77h-367.13v370.77c-.37,27.27,33.2,55.57,62.98,55.55h99.17c7.31-.43,15.62,2.48,19.84,8.75,4.46-6.46,13.44-9.16,20.99-8.75h102.23c29.51,0,61.91-28.08,61.92-55.55Z" style="fill: #fff; fill-rule: evenodd;"/>
        </g>
      </g>
    </g>
  </g>
</svg>