<?xml version="1.0" encoding="UTF-8"?>
<svg id="Layer_2" data-name="Layer 2" xmlns="http://www.w3.org/2000/svg" viewBox="0 0 2047 894.09">
  <g id="Logos-IngCivilIndustrial">
    <g id="Logo-IngCivilIndustrial-Oficial-Negro">
      <rect y="0" width="2047" height="894.09" style="fill: none;"/>
      <g>
        <g>
          <path d="M1052.12,330.1h-12.2v-87.17h12.2v87.17Z"/>
          <path d="M1114.25,330.1h-11.95v-40.22c0-10.83-2.12-15.19-8.09-15.19-3.74,0-7.35,2.12-9.71,5.98v49.44h-11.95v-65.38h11.95v4.48c2.62-3.36,7.1-5.85,12.7-5.85,12.58,0,17.06,8.1,17.06,24.53v42.21Z"/>
          <path d="M1174.6,324.37c0,18.68-6.85,27.65-26.65,29.76l-3.36-9.59c14.44-1.87,18.06-6.1,18.06-18.43v-.5c-3.11,3.49-6.35,5.85-12.2,5.85-11.83,0-19.67-8.72-19.67-34.74,0-21.79,7.6-33.37,20.55-33.37,4.61,0,8.09,1.49,11.33,4.86v-3.49h11.95v59.65Zm-11.95-10.09v-33.87c-2.62-3.98-6.6-5.85-10.34-5.85-6.23,0-9.46,6.1-9.46,21.54,0,17.06,3.24,24.16,10.09,24.16,3.98,0,7.6-2.49,9.71-5.98Z"/>
          <path d="M1237.62,297.23c0,1.12,0,2.99-.12,4.23h-34.25c.75,12.95,5.35,18.55,12.33,18.55,5.48,0,8.09-1.37,11.83-4.86l7.35,7.6c-4.48,4.98-11.08,8.72-19.43,8.72-15.57,0-24.03-13.2-24.03-33.75,0-22.91,9.46-34.37,23.29-34.37,13.07,0,23.04,11.08,23.04,33.87Zm-12.2-6.1c-.37-9.71-4.36-16.56-11.08-16.56-6.1,0-9.96,5.35-10.96,16.56h22.04Z"/>
          <path d="M1295.47,330.1h-11.95v-40.22c0-10.83-2.12-15.19-8.09-15.19-3.74,0-7.35,2.12-9.71,5.98v49.44h-11.95v-65.38h11.95v4.48c2.62-3.36,7.1-5.85,12.7-5.85,12.58,0,17.06,8.1,17.06,24.53v42.21Z"/>
          <path d="M1327.63,247.16c0,3.98-3.36,7.35-7.35,7.35s-7.47-3.36-7.47-7.35,3.36-7.47,7.47-7.47,7.35,3.36,7.35,7.47Zm-1.37,82.94h-11.95v-65.38h11.95v65.38Z"/>
          <path d="M1389.22,297.23c0,1.12,0,2.99-.12,4.23h-34.25c.75,12.95,5.35,18.55,12.33,18.55,5.48,0,8.09-1.37,11.83-4.86l7.35,7.6c-4.48,4.98-11.08,8.72-19.43,8.72-15.57,0-24.03-13.2-24.03-33.75,0-22.91,9.46-34.37,23.29-34.37,13.07,0,23.04,11.08,23.04,33.87Zm-12.2-6.1c-.37-9.71-4.36-16.56-11.08-16.56-6.1,0-9.96,5.35-10.96,16.56h22.04Z"/>
          <path d="M1437.85,265.6l-2.87,11.95c-2.36-1.37-4.61-1.99-8.34-1.99-3.36,0-6.6,1.12-9.34,5.11v49.44h-11.96v-65.38h11.96v4.48c2.61-3.36,6.72-5.85,11.58-5.85,4.11,0,6.97,1,8.97,2.24Z"/>
          <path d="M1464.31,330.1h-11.95v-65.38h11.95v65.38Zm16.69-94.02l-18.06,19.92h-10.21l11.45-19.92h16.81Z"/>
          <path d="M1522.92,330.1h-11.96v-4.48c-3.36,3.86-7.6,5.85-13.45,5.85-9.59,0-17.81-7.22-17.81-21.92s8.84-21.42,21.29-21.42c3.99,0,7.35,.87,9.96,2.12v-6.35c0-6.35-2.12-9.34-8.47-9.34-4.11,0-7.84,1.12-12.82,4.11l-5.11-9.09c5.98-3.98,12.83-6.23,18.8-6.23,14.07,0,19.55,4.98,19.55,19.55v47.2Zm-11.96-15.57v-13.07c-2.86-1.74-5.35-2.49-9.84-2.49-5.6,0-9.47,3.24-9.47,10.34,0,7.72,3.11,11.33,8.22,11.33s8.84-2.24,11.08-6.1Z"/>
          <path d="M1643,309.43c-2.74,13.07-8.84,22.04-23.16,22.04-18.8,0-25.65-20.05-25.65-44.83s7.6-45.08,26.03-45.08c14.57,0,20.55,8.84,22.66,21.29l-12.33,3.11c-1.62-7.85-3.99-12.08-10.71-12.08-10.58,0-13.07,17.18-13.07,32.5,0,16.06,3.36,32.75,13.94,32.75,5.85,0,8.59-3.98,10.96-13.32l11.33,3.61Z"/>
          <path d="M1672.7,247.16c0,3.98-3.36,7.35-7.35,7.35s-7.47-3.36-7.47-7.35,3.36-7.47,7.47-7.47,7.35,3.36,7.35,7.47Zm-1.37,82.94h-11.95v-65.38h11.95v65.38Z"/>
          <path d="M1732.56,264.72l-16.31,65.38h-13.82l-16.44-65.38h12.2l7.97,35.24c1,4.23,2.87,13.32,3.36,16.44,.5-3.11,2.37-12.45,3.24-16.69l7.6-34.99h12.2Z"/>
          <path d="M1760.5,247.16c0,3.98-3.36,7.35-7.35,7.35s-7.47-3.36-7.47-7.35,3.36-7.47,7.47-7.47,7.35,3.36,7.35,7.47Zm-1.37,82.94h-11.95v-65.38h11.95v65.38Z"/>
          <path d="M1790.55,330.1h-11.95v-84.55l11.95-6.23v90.78Z"/>
          <path d="M1065.02,512.64h-19.51v-139.37h19.51v139.37Z"/>
          <path d="M1165.12,512.64h-19.11v-64.31c0-17.32-3.38-24.29-12.94-24.29-5.97,0-11.75,3.39-15.53,9.56v79.04h-19.11v-104.53h19.11v7.17c4.18-5.38,11.35-9.36,20.31-9.36,20.11,0,27.28,12.94,27.28,39.22v67.49Z"/>
          <path d="M1262.47,512.64h-19.11v-6.97c-4.98,5.38-10.15,9.16-19.51,9.16-18.91,0-31.46-13.94-31.46-55.55,0-34.84,12.15-53.36,32.85-53.36,7.37,0,12.94,2.39,18.12,7.76v-36.24l19.11-9.96v145.14Zm-19.11-25.29v-54.15c-4.18-6.37-10.55-9.36-16.53-9.36-9.96,0-15.13,9.76-15.13,34.45,0,27.27,5.18,38.62,16.13,38.62,6.37,0,12.14-3.98,15.53-9.56Z"/>
          <path d="M1359.82,512.64h-19.11v-7.17c-4.18,5.38-11.35,9.36-20.31,9.36-20.11,0-27.28-12.94-27.28-39.22v-67.49h19.11v64.31c0,17.32,3.39,24.29,12.94,24.29,5.97,0,11.75-3.39,15.53-9.56v-79.04h19.11v104.53Z"/>
          <path d="M1448.7,483.98c0,19.91-12.14,30.86-32.45,30.86-11.15,0-22.9-4.38-32.06-11.15l7.37-15.93c9.56,5.97,17.32,8.96,24.29,8.96,8.56,0,13.74-4.58,13.74-11.35,0-7.37-5.57-11.15-20.11-19.51-12.94-7.57-21.7-14.34-21.7-30.86,0-18.12,10.95-29.07,29.86-29.07,10.55,0,20.71,3.78,28.47,9.76l-7.76,16.13c-6.77-4.78-14.53-7.77-21.1-7.77-7.17,0-10.35,3.98-10.35,9.16,0,6.37,2.99,9.56,17.12,17.72,15.73,9.16,24.69,15.93,24.69,33.05Z"/>
          <path d="M1520.16,492.34l-2.19,17.72c-4.58,2.99-9.96,4.78-17.12,4.78-13.94,0-20.11-9.76-20.11-26.68v-62.12h-11.35v-17.92h11.35v-30.46l19.12-10.15v40.62h20.11v17.92h-20.11v60.33c0,7.37,2.79,10.35,7.96,10.35s9.55-1.99,12.34-4.38Z"/>
          <path d="M1597.85,409.51l-4.58,19.11c-3.78-2.19-7.37-3.18-13.34-3.18-5.38,0-10.55,1.79-14.93,8.16v79.04h-19.12v-104.53h19.12v7.17c4.18-5.38,10.75-9.36,18.52-9.36,6.57,0,11.15,1.59,14.34,3.58Z"/>
          <path d="M1643.17,380.04c0,6.37-5.38,11.75-11.74,11.75s-11.95-5.38-11.95-11.75,5.38-11.95,11.95-11.95,11.74,5.38,11.74,11.95Zm-2.19,132.6h-19.11v-104.53h19.11v104.53Z"/>
          <path d="M1735.47,512.64h-19.12v-7.17c-5.38,6.17-12.15,9.36-21.5,9.36-15.33,0-28.47-11.55-28.47-35.04s14.14-34.25,34.05-34.25c6.37,0,11.74,1.39,15.93,3.39v-10.15c0-10.15-3.38-14.93-13.54-14.93-6.57,0-12.54,1.79-20.51,6.57l-8.17-14.53c9.56-6.37,20.51-9.96,30.06-9.96,22.5,0,31.26,7.96,31.26,31.26v75.46Zm-19.12-24.89v-20.9c-4.58-2.79-8.56-3.98-15.73-3.98-8.96,0-15.13,5.18-15.13,16.53,0,12.34,4.98,18.12,13.14,18.12s14.14-3.58,17.72-9.76Z"/>
          <path d="M1785.92,512.64h-19.11v-135.19l19.11-9.96v145.14Z"/>
        </g>
        <g>
          <path d="M1195.8,656.42c0,11.7-6.53,18.83-16.85,18.83s-16.86-7.39-16.86-18.32v-42.83h8.43v42.48c0,4.99,2.15,10.15,8.43,10.15,6.62,0,8.51-5.42,8.51-10.06v-42.57h8.34v42.31Z"/>
          <path d="M1243.09,674.31h-9.2l-3.53-15.91h-13.07l-3.44,15.91h-8.94l14.79-60.2h8.69l14.71,60.2Zm-14.45-23.91l-2.24-10.15c-.86-3.96-2.15-10.92-2.58-13.16-.43,2.24-1.72,9.12-2.58,13.16l-2.24,10.15h9.63Z"/>
          <path d="M1284.15,660.04c-1.89,9.03-6.11,15.22-16,15.22-12.99,0-17.72-13.84-17.72-30.96s5.25-31.13,17.97-31.13c10.06,0,14.19,6.11,15.65,14.71l-8.51,2.15c-1.12-5.42-2.75-8.34-7.4-8.34-7.31,0-9.03,11.87-9.03,22.45s2.32,22.61,9.63,22.61c4.04,0,5.94-2.75,7.57-9.2l7.83,2.49Z"/>
          <path d="M1323.81,674.31h-8.26v-27.78c0-7.48-1.46-10.49-5.59-10.49-2.58,0-5.07,1.46-6.71,4.13v34.14h-8.26v-58.39l8.26-4.3v20.64c1.81-2.32,4.9-4.04,8.77-4.04,8.69,0,11.78,5.59,11.78,16.94v29.15Z"/>
          <path d="M1376.45,647.13h-18.92v-8.6h18.92v8.6Z"/>
          <path d="M1445,614.11l-15.57,60.2h-6.28l-15.48-60.2h9.2l6.97,30.19c.69,3.1,2.24,10.58,2.66,12.73,.43-2.15,1.98-9.55,2.67-12.73l6.88-30.19h8.94Z"/>
          <path d="M1479.83,674.31h-8.25v-3.1c-2.32,2.66-5.25,4.04-9.29,4.04-6.62,0-12.3-4.99-12.3-15.13s6.11-14.79,14.71-14.79c2.75,0,5.07,.6,6.88,1.46v-4.39c0-4.38-1.46-6.45-5.85-6.45-2.84,0-5.42,.77-8.86,2.84l-3.53-6.28c4.13-2.75,8.86-4.3,12.99-4.3,9.72,0,13.5,3.44,13.5,13.5v32.59Zm-8.25-10.75v-9.03c-1.98-1.21-3.7-1.72-6.79-1.72-3.87,0-6.53,2.24-6.53,7.14,0,5.33,2.15,7.83,5.68,7.83s6.11-1.55,7.65-4.22Z"/>
          <path d="M1501,674.31h-8.25v-58.39l8.25-4.3v62.69Z"/>
          <path d="M1542.81,674.31h-8.25v-3.01c-2.15,2.32-4.39,3.96-8.43,3.96-8.17,0-13.59-6.02-13.59-23.99,0-15.05,5.24-23.05,14.19-23.05,3.18,0,5.59,1.03,7.83,3.36v-15.65l8.25-4.3v62.69Zm-8.25-10.92v-23.39c-1.81-2.75-4.56-4.04-7.14-4.04-4.3,0-6.53,4.22-6.53,14.88,0,11.78,2.24,16.68,6.97,16.68,2.75,0,5.25-1.72,6.71-4.13Z"/>
          <path d="M1564.98,617.04c0,2.75-2.32,5.08-5.08,5.08s-5.16-2.32-5.16-5.08,2.32-5.16,5.16-5.16,5.08,2.32,5.08,5.16Zm-.95,57.27h-8.26v-45.15h8.26v45.15Z"/>
          <path d="M1606.06,629.16l-11.27,45.15h-9.55l-11.35-45.15h8.43l5.5,24.34c.69,2.92,1.98,9.2,2.32,11.35,.35-2.15,1.63-8.6,2.24-11.52l5.25-24.16h8.43Z"/>
          <path d="M1625.09,617.04c0,2.75-2.32,5.08-5.07,5.08s-5.16-2.32-5.16-5.08,2.32-5.16,5.16-5.16,5.07,2.32,5.07,5.16Zm-.95,57.27h-8.25v-45.15h8.25v45.15Z"/>
          <path d="M1664.35,674.31h-8.26v-3.1c-2.32,2.66-5.24,4.04-9.29,4.04-6.62,0-12.3-4.99-12.3-15.13s6.11-14.79,14.71-14.79c2.75,0,5.07,.6,6.88,1.46v-4.39c0-4.38-1.46-6.45-5.85-6.45-2.84,0-5.42,.77-8.86,2.84l-3.53-6.28c4.13-2.75,8.86-4.3,12.99-4.3,9.72,0,13.5,3.44,13.5,13.5v32.59Zm-8.26-10.75v-9.03c-1.98-1.21-3.7-1.72-6.79-1.72-3.87,0-6.54,2.24-6.54,7.14,0,5.33,2.15,7.83,5.68,7.83s6.1-1.55,7.65-4.22Z"/>
        </g>
        <path d="M829.65,420.97l-38.4,3.75c-10.52-109.2-97.38-196.06-206.58-206.58l3.75-38.4c127.52,12.29,228.95,113.72,241.24,241.24Z"/>
        <path d="M652.79,537.5v34.54h-40.32c-4.45-11.54-13.61-20.7-25.15-25.15v-40.32h34.54v-119.05h-119.05v34.54h-40.31c-4.45-11.54-13.61-20.7-25.15-25.15v-40.32h34.53v-119.05h-119.05v119.05h53.02v40.32c-16.43,6.33-28.11,22.23-28.11,40.9s11.68,34.57,28.11,40.9v124.83h124.81c6.33,16.43,22.23,28.11,40.9,28.11s34.57-11.68,40.9-28.11h40.32v53.01h119.05v-119.05h-119.05Zm-78.72-112.9h10.03v59.31h-10.03v-59.31Zm-16.2,12.43h10.03v46.88h-10.03v-46.88Zm-16.2-12.43h10.03v59.31h-10.03v-59.31Zm-16.2,16.88h10.03v42.43h-10.03v-42.43Zm30.35,105.41c-11.54,4.45-20.7,13.61-25.15,25.15h-93.32v-93.33c11.54-4.45,20.7-13.61,25.15-25.15h40.31v53.01h53.01v40.32Zm-43.57-49.76v-100.17h5.29v94.88h94.88v5.29h-100.17Z"/>
        <g>
          <path d="M360.6,228.71c53-49,123.87-78.95,201.74-78.95s148.74,29.95,201.74,78.95l42.7-42.7c-63.95-59.9-149.9-96.6-244.43-96.6s-180.49,36.7-244.43,96.6l42.7,42.7Z"/>
          <path d="M823.37,202.61l-42.7,42.7c49,53,78.95,123.87,78.95,201.74s-29.95,148.74-78.95,201.74l42.7,42.7c59.9-63.95,96.6-149.9,96.6-244.43s-36.7-180.49-96.6-244.43Z"/>
          <path d="M764.07,665.38c-53,49-123.87,78.95-201.74,78.95s-148.74-29.95-201.74-78.95l-42.7,42.7c63.95,59.9,149.9,96.6,244.43,96.6s180.49-36.7,244.43-96.6l-42.7-42.7Z"/>
          <path d="M344,648.78c-49-53-78.95-123.87-78.95-201.74s29.95-148.74,78.95-201.74l-42.7-42.7c-59.9,63.95-96.6,149.9-96.6,244.43s36.7,180.49,96.6,244.43l42.7-42.7Z"/>
        </g>
        <rect x="986.55" y="558.34" width="855.75" height="13.7"/>
      </g>
    </g>
  </g>
</svg>