<?xml version="1.0" encoding="UTF-8"?>
<svg id="Layer_2" data-name="Layer 2" xmlns="http://www.w3.org/2000/svg" viewBox="0 0 2047 1407.96">
  <g id="Logos-IngCivilElectronica">
    <g id="Logo-IngCivilElectronica-Oficial-Blanco">
      <rect width="2047" height="1407.96" style="fill: none;"/>
      <path d="M1646.7,1120.28c1.13-.35,2.26-.69,3.39-1.04,.26,.85-3.04,2.06-3.39,1.04Zm-892.01-407.29c-.35,.82-.53,1.29-.75,1.74-7.11,14.97-10.2,30.71-9.36,47.29,.73,14.34,4.4,27.83,11.11,40.46,18.55,34.87,55.83,56.43,97.59,53.45,17.12-1.22,32.96-6.6,47.47-15.87,37.96-24.24,54.72-70.08,41.24-112.97-.69-2.21-1.46-4.4-2.24-6.75,22.44-12.12,44.72-24.15,67.06-36.22,.74,.88,1.34,1.57,1.9,2.27,5.56,6.94,12.18,12.67,19.85,17.14,17.39,10.11,36.08,13.4,55.85,9.99,18.13-3.13,33.55-11.34,45.71-25.35,19.47-22.45,20.68-54.29,2.86-78.07-9.77-13.04-22.72-21.59-38.17-26.46-2.9-.91-5.87-1.59-8.86-2.4v-75.57c.95-.21,1.74-.41,2.53-.57,4.01-.79,8.05-1.46,12.02-2.38,16.13-3.74,31.41-9.71,45.84-17.82,21.74-12.2,40.16-28.1,53.86-49.1,9.94-15.23,16.41-31.71,17.31-50.11,.8-16.34-3.05-31.45-12.07-45.12-11.03-16.72-26.78-27.26-45.39-33.82-21.11-7.45-42.83-8.38-64.77-5.3-18.55,2.61-36.17,8.34-52.94,16.76-16.31,8.19-31.04,18.54-43.85,31.56-2.14,2.17-4.21,4.42-6.38,6.71-18.78-7.69-37.47-15.35-56.35-23.08,.28-1.23,.52-2.3,.77-3.38,4.32-18.32-3.08-36.2-19.22-45.9-10.25-6.16-21.5-8.19-33.31-6.98-20.37,2.09-36.97,11.16-49.47,27.41-6.63,8.63-10.49,18.46-11.05,29.4-.29,5.65,.5,11.22,2.57,16.54,.39,1.01,.73,2.05,1.12,3.14-19.56,14.32-38.89,28.48-58.32,42.7-1.08-1.57-1.93-2.84-2.81-4.08-5.94-8.33-13.46-14.81-22.75-19.12-15.92-7.39-32.09-7.09-48.29-1.1-14.42,5.33-26.47,14.19-36.36,25.84-18.41,21.69-27.76,46.64-26.33,75.33,.51,10.24,2.73,20.06,7.08,29.31,8.14,17.33,21.12,29.1,39.96,33.88,.67,.17,1.3,.46,2.09,.74-1.53,18.74-3.04,37.34-4.55,55.96-.97,.2-1.66,.36-2.35,.48-13.18,2.37-22.99,9.74-30.17,20.75-7.44,11.42-9.93,24.05-8.4,37.51,1.59,13.99,7.5,25.77,18.21,35.03,14.61,12.63,35.74,13.57,51.35,2.21,2.87-2.09,5.45-4.58,8.38-7.07,13.45,10.21,27.02,20.51,40.77,30.96m198.82-227.45c8.35-5.23,16.56-10.36,24.87-15.56,21.86,27,51.48,36.2,84.54,37.19,.71,2.48,.88,69.02,.2,72.98-20.39,2.01-38.02,10.05-52.28,25.53-19.93-11.04-39.81-22.05-59.84-33.15,16.11-28.54,18.78-57.35,2.5-86.99m-12.45,100.63c20.06,11.11,40.05,22.19,60.33,33.43-3.4,7.02-5.53,14.29-6.37,21.96-.83,7.61,.24,15.04,1.99,22.57-22.69,12.26-45.22,24.44-67.89,36.68-17.4-23.84-40.61-37.93-69.69-42.47v-32.48c32.47-2.39,59.68-15.42,81.62-39.71m-61.5-207.71c8.81-1.43,17.24-4,25.08-8.34,7.85-4.35,14.71-9.9,20.53-17.01,17.88,7.31,35.61,14.57,53.54,21.91-1.39,2.64-2.7,5.04-3.94,7.47-6.4,12.53-10.3,25.75-10.84,39.87-.38,9.91,1.15,19.54,4.58,28.85,.49,1.33,.95,2.66,1.51,4.22-8.9,5.56-17.71,11.07-26.76,16.72-17.41-17.77-38.92-26.07-63.7-27.52v-66.17Zm-112.71,315.86c-14.17-10.76-28.07-21.32-42.17-32.02,3.3-12.19,3.35-24.36-.76-36.57,18.45-11.54,36.8-23.01,55.44-34.67,15.94,20.57,37.38,31.09,62.93,34.24v32.19c-30.31,1.5-55.37,13.73-75.44,36.83m10.56-276.61c21.55-15.79,42.97-31.48,64.52-47.27,6.22,4.06,13.01,6.44,20.17,7.7,.74,2.16,.98,62.46,.24,67.06-15.07,1.71-29.37,6.32-42.8,13.56-13.48,7.27-25.03,16.9-34.7,28.92-4.94-2.1-9.71-4.13-14.68-6.25,8.98-20.6,12.1-41.68,7.24-63.72m-61.48,193.23c-4.75-6.04-10.26-10.66-17.02-13.98,1.62-19.98,3.23-39.8,4.83-59.64,25.45-5.2,43.79-20.13,58.31-41.05,4.36,1.84,8.73,3.67,13.34,5.62-12.65,24.29-15.22,49.04-4.49,74.68-18.31,11.45-36.48,22.81-54.98,34.38m1042.83,487.63c-4.02,3.8-5.58,11.78-6.81,17.1-2.62,11.27-6.33,22.3-8.8,33.78-4.9,22.77-12.9,45.3-17.38,68.13-1.96,9.97,1.88,17.48,13.74,14.88,9.59-2.1,11.58-13.51,16.19-20.96,9.25-14.97,23.71-29.11,38.63-37.55,7.72-4.36,18.36-11.2,15.94,2.4-1.51,8.47-6.05,15.91-8.55,24.08-3.52,11.5-6.65,25.35,9.38,25.36,14.22,0,17.11-8.71,17.35-20.98,.22-10.9,3.26-20.73,7.95-30.05,3.32-6.62,9.62-18.68,3.03-25.47-6.71-6.91-21.98-1.42-29.3,.57-9.92,2.69-19.17,7.38-27.91,12.63-2.43,1.46-18.19,15.25-19.55,13.39-2.6-3.57,5.36-23.19,6.4-27.26,2.84-11.07,6-21.85,8.58-32.87,2.54-10.87,9.65-19.23-4.93-21.78,.21-1.68-12.76,3.47-13.95,4.59Zm-190.53,129.44c.23-6,1.62-12.04,1.86-17.91,.13-3.17-1.19-7.17-.35-10.28,.38-1.43,3.45-4.83,3.52-5.39,.45-4-1.91-2.64-4-5.96-2.44-3.87-1.95-11.07-2.98-15.7-1.79-8.03,.15-19.51-5.21-26.63-4.32-5.74-18.13-3.06-19.6-9.59-1.6-7.12,8.68-13.19-6.79-10.78-9.76,1.52-14.74,10.01-22.96,14.2-4.06,2.07-6.96,.47-8.6,5.88-.53,1.73,1.86,2.51,1.55,3.7-.31,1.2-1,2.76-1.6,4.3-3.55,9.08-8.66,17.12-11.52,26.69-1.96,6.57-4.28,12.28-7.22,18.42-2.45,5.13-2.36,5.13-6.97,7.89-3.29,1.97-7.9,3.04-9.81,6.58-4.6,8.52,3.33,12.77,4.68,19.2,1.62,7.67-6.17,18.31-6.55,26.3-.46,9.75,10.04,10.77,15.34,3.34,4.33-6.08,4.73-17.87,7.61-24.89,3.17-7.72,4.79-13.35,12.79-16.75,9.01-3.82,18.57-8.11,28.17-10.53,3.07-.77,16.43-4.75,18.99-3.54,6.52,3.09-4.32,47.13,8.46,45.63,11.11-.03,10.9-16.76,11.19-24.21Zm-52.22-49.43c4.52-8.65,7.47-22.5,19.1-15.66,8.16,4.8,16.51,24.6,8.51,31.21-2.23,1.84-34.19,6.67-34.05,7.54-7.55,0,4.1-18.62,6.44-23.09Zm-72.24-25.74c-3.7,12.89-5.83,26.29-9.23,39.43-2.1,8.11-4.85,17.08-8.38,24.43-3.43,7.15-11.13,18.96-18.42,22.49-19.69,9.53-28.64-30.45-28.81-41.76-.18-11.73,3.01-25.76,1.05-37.1-.98-5.7-8.3-10.64-14.24-11.99-20.29-4.61-8.94,52.33-8.01,62.75,1.4,15.56,6.62,37.66,22.03,45.04,10.75,5.15,24.22,1.42,33.58-5.15,2.6-1.82,4.6-3.51,6.85-5.72,1.39-1.36,8-11.44,8.76-11.66,5.62-1.6,1.87,20.63,5.12,24.49,5.27,6.26,23.39-4.44,24.48-11.24,.51-3.22-3.68-7.26-4.17-11.09-.74-5.81,1.13-14.81,1.86-20.66,1.47-11.65,3.23-23.25,6.72-34.41,2.77-8.83,14.53-54.09-1.44-51.96-11.93,.92-14.92,14.17-17.77,24.12Zm230.63,79.41c5.07-2.79,10.89-5.03,15.91-7.99,4.08-2.41,12.08-5.38,14.31-9.7,3.96-7.64-3.02-8.83-8.54-6.69-4.88,1.89-8.51,5.62-12.7,8.34-9.14,5.93-21.62,9.29-32.28,10.53-11.77,1.37-23.26-1.11-31.96-9.48-3.29-3.17-8.64-7.48-10.2-11.71-1.05-2.84-.71-10.58-.77-13.77-.39-20.42,12.43-44.86,31.36-53.44,6.72-3.05,31.45-10.58,36.46-1.49,2.03,3.69-4.15,10-5.95,12.97-2.73,4.51-3.59,8.83-4.66,14.1-2.44,12-5.27,27.18,11.4,22.44,9.76-2.78,12.33-12.38,15.16-21.36,3.41-10.83,5.51-24.76,2.73-36.01-3.38-13.67-15.21-13.73-27.3-12.55-11.26,1.1-20.19,2.48-29.81,8.24-8.17,4.9-16.26,8.94-23.53,15.17-17.35,14.87-34.11,37.12-31.93,61.51,1.03,11.5,6.22,22.78,14.94,30.37,10.87,9.47,25.69,9.39,39.43,9.39,.01,5.14,35.47-7.5,37.95-8.87Zm-24.3-113.01c.26,.85-3.04,2.06-3.39,1.04,1.13-.35,2.26-.69,3.39-1.04Zm-215.83-135.9c-6.32,2.55-12.39,5.98-18.1,9.73-8.34,5.49-15.15,12.73-19.26,21.91-3.13,7.01-6.76,14.27-7.62,21.71-1.76,15.27-2.24,30.9,4.8,45.25,3.55,7.24,7.86,14.32,12.98,20.52,4.39,5.31,9.93,9.86,16.81,12.3,5.94,2.11,11.55,5.42,17.63,6.85,24.77,5.8,49.28,4.97,73.3-4.15,1.15-.44,3.95,.54,4.31,1.48,1.11,2.97,3.09,3.26,5.68,3.17,3.53-.12,7.09-.38,10.58-.02,6.56,.68,6.69,.64,9.31-5.71,4.13-10.01,8.5-19.93,12.66-29.93,1.33-3.2,3.51-4.34,6.92-4.32,18.94,.09,37.87,.02,56.81,.06,2.25,0,4.57,.12,6.71,.71,1.31,.36,2.81,1.51,3.42,2.71,1.77,3.51,3.14,7.23,4.66,10.87,2.93,7.03,5.78,14.1,8.84,21.07,.89,2.04,2.05,3.79,5.19,2.92,4.7-1.3,9.56-2.14,14.4-2.76,2.77-.36,3.87-1.49,3.34-4.1-.34-1.64-.82-3.29-1.5-4.82-5.85-13.11-11.87-26.15-17.62-39.31-5.18-11.84-10.02-23.84-15.15-35.71-7.1-16.43-14.42-32.76-21.46-49.22-1.48-3.45-3.59-5.22-7.32-5.18-7.21,.07-14.42-.02-21.62,.21-1.25,.04-3.11,.99-3.59,2.03-4.05,8.81-7.91,17.71-11.71,26.63-4.31,10.11-8.45,20.29-12.77,30.4-4.36,10.21-8.85,20.37-13.3,30.55-3.5,8.01-6.96,16.04-10.56,24.01-.99,2.19-2.52,3.32-4.25,.5-1.59-2.58-3.12-1.86-5.21-.41-4.38,3.04-8.69,6.48-13.55,8.49-13.15,5.44-26.87,8.39-41.28,7.67-22.65-1.13-42.95-12.92-50.42-36.19-4.57-14.24-4.66-28.45-.36-42.84,4.84-16.19,15.16-26.98,30.79-32.92,22.24-8.45,43.51-4.83,64.16,5.39,3.88,1.92,7.39,4.57,11.12,6.8,3.1,1.85,4.88,1.14,4.95-2.03,.11-5.08,.21-10.19-.18-15.24-.12-1.62-1.44-4.01-2.8-4.54-16.94-6.63-34.38-10.91-51.36-10.28-14.06-.31-26.58,.97-38.37,5.73Zm139.33,83.58c-6.5,.04-7.63-1.49-5.05-7.55,7.16-16.83,14.36-33.64,21.5-50.48,.54-1.28,.45-2.87,1.13-4.04,.71-1.22,1.86-2.64,3.07-2.93,.75-.18,2.42,1.37,2.91,2.48,3.57,8.13,6.88,16.38,10.41,24.53,4.08,9.43,8.34,18.79,12.45,28.21,.73,1.67,1.27,3.44,1.64,5.22,.64,3.08-1.07,4.59-3.46,4.53-15.81,0-30.2-.06-44.59,.03Zm-791.76-7.77c0-18.93,.02-37.87-.01-56.8,0-5.44,1.11-6.85,6.67-6.83,16.81,.06,33.62,.21,50.43,.5,3.56,.06,4.94-1.5,4.97-4.72,.02-2.39-.28-4.79-.12-7.16,.19-2.87-1.11-4.28-3.78-4.55-1.68-.17-3.39-.11-5.08-.11-44.37-.03-88.74-.09-133.11,0-1.44,0-3.68,1.18-4.17,2.38-1.48,3.6-3.51,3.64-6.71,2.49-5.16-1.86-10.39-4.04-15.76-4.73-15.38-1.96-30.78-3.35-46.33-.53-11.67,2.12-22.53,5.73-32.48,12.24-10.92,7.15-18.98,16.72-24.4,28.47-5.77,12.51-6.75,25.88-5.81,39.39,1.18,16.86,7.32,31.71,19.18,43.95,9.72,10.03,21.94,15.82,35.26,18.89,27.4,6.31,54.13,3.09,80.04-7.42,1.75-.71,3.8-2.96,4.02-4.71,.61-4.86,.41-9.84,.34-14.77-.02-1.14-.54-2.72-1.36-3.24-.62-.39-2.34,.3-3.17,.99-7.38,6.17-16.11,9.84-25.04,12.7-10.55,3.38-21.59,4.36-32.69,3.7-12.11-.72-23.49-4.25-32.73-12.06-7.42-6.27-13.12-14.26-16.07-23.89-4.46-14.57-4.81-29.16-.19-43.7,2.28-7.15,5.57-14.06,10.98-19.33,10.21-9.94,22.52-15.68,36.88-16.96,19.77-1.77,37.72,3.18,54.33,13.79,2.28,1.46,4.93,2.35,7.41,3.5,.51-2.48,1.74-5.08,1.38-7.43-1.02-6.67,2.92-7.8,8.4-7.66,11.72,.3,23.45,.32,35.17,.05,10.02-.23,10.45,.07,10.43,9.83-.08,31.79-.03,63.59-.04,95.38,0,5.79-.04,11.59-.05,17.38,0,2.73,.87,4.07,4.07,3.78,4.48-.4,9.02-.35,13.53-.15,5.81,.26,5.87,.4,5.88-5.42,.03-19.08,.01-38.15,.01-57.23-.09,0-.17,0-.26,0Zm403.08-57.31c.82,.92,1.78,1.75,2.45,2.77,7.07,10.65,14.11,21.32,21.12,32.01,6.73,10.26,13.39,20.57,20.11,30.83,10.44,15.93,20.85,31.87,31.39,47.73,2.36,3.55,4.44,7.68,9.97,7.27,5.2-.39,10.43-.48,15.65-.52,6.19-.04,6.32-.09,6.33-6.39,.03-26.29,.08-52.57,.09-78.86,0-17.1-.04-34.2-.11-51.3-.02-4.7-1.16-5.78-5.73-5.82-3.81-.03-7.63-.06-11.44,0-3.96,.06-5.16,1.51-4.95,5.57,.15,2.82,.23,5.65,.25,8.47,.2,30.66,.4,61.31,.48,91.97,0,1.46-1.11,2.92-1.7,4.37-1.2-.81-2.82-1.36-3.55-2.48-3.84-5.9-7.32-12.03-11.17-17.92-8.46-12.94-17.12-25.75-25.59-38.69-10.17-15.54-20.09-31.25-30.46-46.65-1.51-2.24-4.81-4.35-7.44-4.56-7.43-.61-14.95-.15-22.43-.2-5.96-.04-7.19,1.01-7.21,7.1-.04,9.75,.08,19.5,.1,29.25,.04,21.89,.05,43.78,.08,65.67,.02,11.73-.01,23.46,.09,35.19,.04,4.79,1.13,5.56,5.89,5.37,4.22-.16,8.5-.41,12.67,.06,3.21,.36,3.68-.95,3.63-3.49-.12-5.93-.2-11.86-.23-17.79-.18-31.08-.36-62.17-.47-93.25,0-1.84,.54-3.68,.83-5.52,.46-.06,.91-.12,1.37-.17Zm-201.43,46.76c1.21,8.2,2.24,16.44,3.68,24.6,1.97,11.15,7.58,20.77,15.09,28.8,8.97,9.59,20.1,16.41,33.13,19.46,22.72,5.32,45.27,5.55,67.51-2.57,20.66-7.54,34.64-22.21,40.36-42.91,5.64-20.43,5.23-41.2-4.63-61.09-9.99-20.15-27.22-30.37-47.76-35.71-8.2-2.13-17.1-2.13-25.68-2.09-12.28,.06-24.29,1.76-36.15,5.88-15.46,5.38-27.13,15.2-35.07,28.76-6.45,11.02-10.16,23.5-9.38,36.76-.37,.03-.74,.07-1.11,.1Zm32.87-30.37c7.12-13.29,19-21.23,33.85-24.34,14.19-2.97,28.19-1.6,41.63,3.43,7.75,2.9,14.15,8.27,18.99,15.05,9.91,13.88,12.66,29.6,10.68,46.21-.79,6.66-2.3,13.28-4.08,19.75-.91,3.31-2.74,6.56-4.86,9.29-9.09,11.67-20.68,19.7-35.7,20.96-8.5,.72-17.33,.85-25.68-.62-17.42-3.08-30.7-12.86-37.43-29.44-3.17-7.82-3.85-16.65-5.65-25.02,.35-.06,.71-.12,1.06-.19-1.14-12.44,1.44-24.39,7.18-35.1Zm-27.91,100.05c-4.91-4.42-9.96-8.7-14.76-13.23-14.67-13.83-29.23-27.77-43.87-41.63-2.3-2.18-1.88-3.63,.92-4.56,8.54-2.81,15.95-7.2,22.89-13.12,12.07-10.29,15.87-33.4,4.78-47.31-7.53-9.45-18.18-14.73-29.77-16.35-13.37-1.87-27.01-2.03-40.54-2.52-10.98-.4-21.98-.19-32.97-.26-2.82-.02-4.16,1.4-4.18,4.16-.04,5.78-.1,11.57-.1,17.36,.02,32.92,.06,65.84,.09,98.76,0,6.22-.04,12.43-.08,18.65-.02,2.87,.66,4.36,4.22,3.96,4.74-.53,9.65-.72,14.36-.1,4.67,.62,5.24-1.32,5.17-5.14-.27-15.25-.34-30.51-.5-45.76-.05-4.89,.64-5.79,5.46-5.89,6.76-.14,13.52-.2,20.28-.03,1.54,.04,3.4,.79,4.51,1.85,9.2,8.72,18.29,17.56,27.34,26.43,7.76,7.6,15.27,15.47,23.23,22.84,3.04,2.81,5.91,6.24,11.14,5.89,6.6-.44,13.26,.06,19.9,.08,1.46,0,2.92-.32,5.57-.63-1.63-1.82-2.29-2.69-3.09-3.41Zm-114.42-117.89c-.04-3.62,1.91-5.41,5.17-5.26,13.93,.65,28.06,.28,41.7,2.66,14.79,2.58,22.87,14.33,18.52,30.24-3.29,12.03-11.48,19.13-23.59,20.42-12.29,1.3-24.73,1.2-37.1,1.68-3.71,.15-4.77-1.76-4.63-5.33,.26-6.62,.07-13.26,.07-19.88-.04,0-.08,0-.12,0,0-8.18,.06-16.35-.03-24.53Zm-669.16,50.75c0,22.18,.05,44.37-.06,66.55-.02,3.32,1.05,4.41,4.4,4.41,33.34-.07,66.68,.01,100.02,0,10.76,0,10.71-.06,10.56-11.24-.05-3.42-1.07-5.02-4.96-4.99-25.71,.17-51.43,.12-77.14,.11-2.24,0-4.61,.16-6.69-.5-1.16-.37-2.58-2.28-2.59-3.51-.11-14.69,.04-29.38,.08-44.07,.01-4.54,1.15-5.76,5.69-5.76,23.59,0,47.19-.01,70.78-.01q8.09,0,8.31-8.12c.22-7.89,.22-8.11-7.73-8.11-23.31,0-46.62,.14-69.93,.32-5.34,.04-6.94-1.25-6.99-6.52-.08-9.47-.13-18.93-.16-28.4-.02-4.38,1.13-5.59,5.45-5.6,25.01-.03,50.01-.23,75.02,.07,12.92,.16,10.54,.49,11.02-11.64,.13-3.39-1.66-4.91-5.04-4.6-1.12,.1-2.26,.11-3.38,.11-34.05-.01-68.1-.02-102.15-.07-3.52,0-4.66,1.72-4.65,5.02,.06,22.18,.03,44.36,.03,66.55,.04,0,.07,0,.11,0Zm242.56-.38c0,21.34,.05,42.68-.03,64.01-.03,7.36-.17,7.3,7,7.29,32.22-.03,64.44-.03,96.65-.04,13.65,0,10.58,1,11.08-10.92,.17-4.13-1.4-5.31-5.43-5.27-21.9,.21-43.81,.22-65.71,.21-5.78,0-11.58-.11-17.33-.6-1.17-.1-3.08-2.16-3.1-3.34-.15-14.4,.06-28.81,0-43.21-.02-6.03,.34-6.77,6.36-6.78,24.02-.03,48.04,.01,72.06,.12,6.11,.03,6.68-.43,6.41-6.78q-.39-9.28-9.64-9.3c-18.94-.01-37.87,0-56.81-.01-4.5,0-9.01,.08-13.51-.06-3.49-.11-5-1.56-4.86-5.61,.35-9.87,.05-19.76-.11-29.64-.06-3.74,1.29-5.14,5.46-5.12,26.7,.11,53.39,.21,80.09,.31,5.17,.02,5.94-.75,5.97-5.78,.01-2.26,.08-4.52,.12-6.78,.05-2.76-1.08-4.02-4.07-4.01-35.47,.06-70.94,.06-106.41-.05-3.62-.01-4.67,1.49-4.66,4.81,.06,22.19,.03,44.37,.03,66.56,.13,0,.27,0,.4,0Zm886.2-.09c0,16.95,.02,33.91,0,50.86-.01,6.36-.86,7.1-7.08,6.92-4.09-.12-8.19-.13-12.29-.15-2.93-.02-4.53,1.25-4.21,4.4,.11,1.12,.05,2.26,.06,3.39,.05,5.95,.38,6.18,6.18,6.14,19.63-.15,39.26-.24,58.89-.29,5.47-.01,5.91-.35,5.71-5.61-.03-.7-.04-1.41-.03-2.12,.01-5.33-.66-5.95-6.17-5.92-4.1,.03-8.2,.12-12.28-.05-4.5-.19-5.76-1.72-5.54-6.07,.13-2.54,.22-5.08,.21-7.62-.05-31.92-.1-63.84-.22-95.76-.01-3.85,1.71-5.35,5.44-5.18,4.09,.18,8.19,.17,12.28,.2,5.39,.04,6.45-.85,6.49-5.38,.08-8.15-.34-8.78-6.49-8.79-18.36,0-36.73,.3-55.09-.02-11.05-.19-9.37,.76-9.49,9.31-.05,3.68,1.5,5.18,5.05,5.05,4.52-.16,9.04-.13,13.55-.37,3.92-.21,5.2,1.64,5.18,5.35-.09,17.23-.04,34.46-.04,51.7h-.11Zm-999.32,.74c0,22.45,.03,44.9-.04,67.35,0,2.41,.85,3.25,3.21,3.25,30.78,.02,61.57,.21,92.35,.1,12.48-.04,10.74,1.87,10.74-11.69,0-2.87-1.05-4.49-4.24-4.43-5.64,.12-11.29,.04-16.93,.07-18.92,.09-37.83,.2-56.75,.3-3.69,.02-4.84-2.1-4.84-5.46,.02-32.91,0-65.82,.01-98.72,0-5.79,.02-11.58,.28-17.36,.19-4.16-.73-5.46-4.83-5.45-4.09,0-8.18,.12-12.27,.15-6.38,.05-6.89,.59-6.89,7.06,.01,21.61,0,43.22,0,64.83,.07,0,.13,0,.2,0ZM1445.61,347.56c-9.59,11.89-22.59,22.37-37.46,31.25,7.1,22,12.17,44.48,15.04,67.41,2.36,18.79,3.34,37.64,2.87,56.6-.35,14.23-1.47,28.38-3.32,42.46-2.8,21.31-7.39,42.26-13.56,62.86-8.69,28.98-20.33,56.73-34.75,83.32-15.94,29.41-34.86,56.78-56.54,82.24-28.93,33.98-61.83,63.59-98.39,89.14-29.74,20.79-61.27,38.42-94.48,53.06-24.36,10.74-49.41,19.48-75.15,26.26-19.59,5.16-39.42,9.11-59.48,11.88-14.88,2.05-29.85,3.42-44.87,4.15-14.42,.7-28.83,.88-43.24,.28-14.4-.6-28.76-1.73-43.08-3.53-19.91-2.51-39.56-6.21-58.99-11.18-22.91-5.86-45.21-13.5-66.84-23.07-34.74-15.37-66.7-35.14-95.09-60.48-26.42-23.59-48.23-50.84-64.7-82.25-12.09-23.05-20.41-47.44-25.87-72.87-3.73-17.4-6.56-34.94-8.36-52.64-1.99-19.67-2.51-39.4-1.83-59.13,1.23-35.79,6.66-70.96,16.36-105.46,11.55-41.11,28.58-79.78,51.21-116,19.83-31.74,43.32-60.48,70.4-86.28,27.53-26.23,57.94-48.56,90.99-67.35,28.79-16.37,59.06-29.39,90.31-40.21,30.35-10.51,61.18-19.26,92.65-25.71,20.03-4.1,40.22-7.24,60.57-9.22,14.75-1.43,29.54-2.51,44.39-2.28,10.33,.16,20.67-.04,30.98,.34,14.91,.56,29.76,2.11,44.51,4.38,22.16,3.41,43.92,8.5,65.19,15.63,29.73,9.96,57.67,23.52,83.63,41.14,18.94,12.86,36.29,27.58,52.07,44.16,2.48,2.61,4.87,5.31,7.27,7.99,56.34-16.44,110.09-2.72,122.72,32.71,6.61,18.58,1.22,40.02-15.2,60.37Zm-64.3,126.73c-1.72-26.34-6.45-52.13-14.13-77.39-16.16,4.83-32.38,7.44-47.72,7.44-9.05,0-17.78-.86-26.01-2.59-25.58-5.38-43.32-18.58-49.93-37.17-10.93-30.68,12.34-68.27,53.87-92.65-16.88-18.52-35.78-34.7-56.73-48.47-24.23-15.93-50.25-28.11-77.85-36.95-21.17-6.78-42.81-11.44-64.86-14.32-18.49-2.41-37.05-3.5-55.67-3.45-18.62,.06-37.17,1.26-55.67,3.43-37.89,4.45-74.88,12.91-111.21,24.37-25.26,7.97-50.1,17.05-74.14,28.2-19.87,9.21-38.99,19.81-57.33,31.81-19.89,13.02-38.62,27.53-56.1,43.65-20.51,18.92-38.97,39.67-55.31,62.29-13.63,18.85-25.58,38.72-35.84,59.59-12.43,25.3-22.2,51.6-29.26,78.9-5.3,20.51-9.07,41.3-11.19,62.38-1.55,15.47-2.4,30.98-2.22,46.52,.16,14.21,1.08,28.38,2.66,42.51,2.41,21.68,6.5,43.02,12.35,64.03,4.62,16.6,10.93,32.54,18.86,47.83,12.71,24.52,29.03,46.41,48.57,65.91,22.24,22.2,47.51,40.29,75.18,55.1,20.05,10.73,40.97,19.45,62.6,26.42,18.99,6.12,38.33,10.83,58,14.2,16.63,2.85,33.37,4.77,50.22,5.76,12.57,.74,25.13,1.19,37.7,.82,18.49-.55,36.93-1.93,55.28-4.48,34.24-4.76,67.55-13.13,99.95-25.14,17.84-6.61,35.16-14.38,52.11-23.03,24.54-12.53,47.98-26.85,70.2-43.14,47.25-34.63,87.29-76.13,119.12-125.39,19.29-29.85,34.69-61.6,45.9-95.34,7.27-21.87,12.56-44.22,15.81-67.04,3.52-24.78,4.4-49.66,2.77-74.64Zm14.31-164.27c-4.84-.57-75.25-.35-77.55,.28v24.03c.52,.14,.8,.29,1.09,.29,25.06,.01,50.12,.01,75.17,0,.4,0,.81-.1,1.2-.17,.09-.02,.17-.09,.24-.16,.08-.07,.13-.16,.2-.23,.53-6.07,.3-21.81-.36-24.04Z" style="fill: #fff;"/>
    </g>
  </g>
</svg>