<?xml version="1.0" encoding="UTF-8"?>
<svg id="Layer_2" data-name="Layer 2" xmlns="http://www.w3.org/2000/svg" viewBox="0 0 2047 2047">
  <g id="Logos-IngCivilConstruccion">
    <g id="Logo-IngCivilConstruccion-Oficial-Blanco">
      <rect width="2047" height="2047" style="fill: none;"/>
      <g>
        <g>
          <path d="M828.7,323.89l12.82-3.47c-1.37-5.06-2.58-8.46-3.64-10.2-1.06-1.74-2.3-2.94-3.73-3.6-.81-.39-1.77-.43-2.87-.13-1.64,.44-2.75,1.61-3.36,3.49-1.1,3.3-.99,7.39,.33,12.26l.45,1.65Z" style="fill: #fff;"/>
          <path d="M750.13,1686.43c-1.11-.45-2.16-.53-3.13-.23-1.5,.48-3.08,1.75-4.75,3.81-1.67,2.06-3.5,5.52-5.49,10.37-2.18,5.33-3.41,9.44-3.67,12.32-.27,2.88,.04,5.17,.93,6.88,.46,.85,1.29,1.53,2.5,2.03,2.65,1.08,6.01,.03,10.06-3.17l9.11-22.24c-.48-5.19-2.33-8.45-5.55-9.77Z" style="fill: #fff;"/>
          <path d="M1245.91,1730.53c-.67,2.06-.73,3.95-.17,5.65,.46,1.43,1.38,2.51,2.75,3.27,1.04,.59,2.26,.65,3.66,.2,1.55-.5,3.07-1.95,4.55-4.35l-4.7-14.55c-3.04,3.41-5.07,6.67-6.09,9.77Z" style="fill: #fff;"/>
          <path d="M1356.66,1658.39c-1.07,.56-1.79,1.32-2.17,2.26-.59,1.46-.62,3.49-.11,6.09,.51,2.6,2,6.22,4.46,10.85,2.71,5.09,5.08,8.66,7.13,10.7,2.04,2.05,4.01,3.27,5.88,3.68,.95,.2,2-.01,3.16-.62,2.53-1.34,3.86-4.6,4-9.76l-11.28-21.22c-4.29-2.96-7.99-3.61-11.06-1.98Z" style="fill: #fff;"/>
          <path d="M966.51,299.57l13.25-.93c-.37-5.23-.91-8.8-1.61-10.71-.71-1.91-1.69-3.33-2.97-4.25-.72-.54-1.65-.76-2.79-.68-1.69,.12-3.01,1.04-3.97,2.78-1.71,3.03-2.39,7.06-2.04,12.09l.12,1.71Z" style="fill: #fff;"/>
          <path d="M796.15,1734.56c-.44,1.43-.32,2.85,.37,4.26,.52,1.08,1.48,1.83,2.88,2.27,1.55,.48,3.63,.17,6.22-.93l4.53-14.6c-4.45,1.04-7.98,2.54-10.6,4.49-1.74,1.3-2.87,2.81-3.4,4.52Z" style="fill: #fff;"/>
          <path d="M590.66,1599.52c.74-1.89,.94-3.61,.6-5.14-.18-.88-.73-1.67-1.63-2.37-1.34-1.03-2.95-1.21-4.81-.55-3.29,1.13-6.47,3.69-9.55,7.69l-1.04,1.36,10.54,8.09c3.19-4.15,5.16-7.18,5.9-9.08Z" style="fill: #fff;"/>
          <polygon points="952.71 1757.11 972.68 1758.58 964.52 1735.1 952.71 1757.11" style="fill: #fff;"/>
          <path d="M781.98,347.59c1.81,1.28,3.54,1.63,5.21,1.05,1.85-.64,3.09-2.03,3.73-4.15,.64-2.12,.1-5.62-1.6-10.51-1.92-5.5-3.92-9.01-6.01-10.53-1.5-1.13-3.14-1.39-4.92-.76-1.78,.62-2.98,2.05-3.58,4.28-.6,2.23,.09,6.17,2.06,11.83,1.6,4.58,3.31,7.51,5.12,8.79Z" style="fill: #fff;"/>
          <path d="M1652.28,711.03c-.56,1.58-.51,3.05,.14,4.39,.65,1.31,1.55,2.23,2.71,2.75,1.55,.65,3.31,.73,5.28,.23,3.06-.78,8.82-3.25,17.27-7.4,4.97-2.44,8.24-4.4,9.82-5.86,1.58-1.47,2.53-2.95,2.85-4.45,.24-1.06,.06-2.21-.55-3.43-.73-1.49-1.92-2.49-3.57-3.01-1.65-.51-4.21-.12-7.7,1.17-3.48,1.29-8.18,3.39-14.08,6.29-3.13,1.54-5.95,3.18-8.47,4.92-1.92,1.34-3.16,2.81-3.72,4.39Z" style="fill: #fff;"/>
          <path d="M789.39,382.62c2.26,.64,5.89,.09,10.91-1.66,4.27-1.49,7.43-3.24,9.48-5.23,2.05-1.99,2.71-4.02,1.99-6.08-.27-.77-.72-1.33-1.37-1.69-1.15-.63-2.63-.82-4.42-.58-1.79,.25-6.32,1.64-13.57,4.18-3.13,1.09-5.12,2.08-5.95,2.96-1.42,1.57-1.84,3.16-1.27,4.79,.55,1.57,1.95,2.67,4.21,3.32Z" style="fill: #fff;"/>
          <path d="M1098.16,321.46c1.62,.18,3.6-.52,5.93-2.11l1.65-15.2c-4.17,1.87-7.35,4.02-9.54,6.43-1.45,1.61-2.27,3.31-2.47,5.09-.16,1.49,.23,2.86,1.18,4.11,.71,.96,1.8,1.52,3.25,1.68Z" style="fill: #fff;"/>
          <path d="M518.47,523.09c1.05,1.07,2.36,1.63,3.93,1.68,1.2,.05,2.32-.44,3.36-1.47,1.16-1.14,1.86-3.12,2.1-5.93l-10.75-10.87c-1.17,4.42-1.52,8.24-1.03,11.46,.33,2.15,1.13,3.85,2.39,5.12Z" style="fill: #fff;"/>
          <path d="M1189.7,305.45c-.14-2.03-.68-3.67-1.64-4.92-.54-.72-1.37-1.2-2.48-1.45-1.65-.37-3.19,.14-4.59,1.54-2.5,2.41-4.3,6.08-5.39,11.01l-.37,1.67,12.97,2.87c1.13-5.12,1.63-8.69,1.5-10.73Z" style="fill: #fff;"/>
          <path d="M566.06,441.4c-.95,.74-1.53,1.61-1.75,2.6-.33,1.54-.01,3.54,.95,6.01,.96,2.47,3.06,5.77,6.29,9.91,3.55,4.54,6.51,7.64,8.88,9.3,2.37,1.66,4.52,2.53,6.43,2.6,.97,.03,1.97-.36,3-1.16,2.26-1.76,3-5.2,2.24-10.3l-14.8-18.93c-4.75-2.16-8.49-2.17-11.24-.02Z" style="fill: #fff;"/>
          <path d="M453.32,571.51l1.33,1.07,8.34-10.34c-4.08-3.29-7.06-5.33-8.94-6.11-1.88-.78-3.59-1.02-5.13-.72-.89,.16-1.69,.69-2.4,1.58-1.06,1.32-1.28,2.92-.67,4.8,1.05,3.32,3.54,6.56,7.47,9.72Z" style="fill: #fff;"/>
          <path d="M616.78,422.18l11.05-7.38c-2.91-4.36-5.15-7.2-6.7-8.5-1.56-1.31-3.12-2.05-4.68-2.22-.89-.11-1.81,.16-2.76,.79-1.41,.94-2.1,2.4-2.07,4.38,.01,3.48,1.42,7.31,4.22,11.51l.95,1.42Z" style="fill: #fff;"/>
          <path d="M1418.02,1626.49c-1.54-1.33-3.08-2.1-4.64-2.3-.89-.12-1.82,.12-2.78,.74-1.42,.92-2.14,2.37-2.15,4.34-.05,3.48,1.29,7.34,4.02,11.59l.93,1.44,11.18-7.18c-2.83-4.41-5.02-7.28-6.55-8.62Z" style="fill: #fff;"/>
          <path d="M1023.5,204.7c-452.21,0-818.8,366.59-818.8,818.8s366.59,818.8,818.8,818.8,818.8-366.59,818.8-818.8S1475.71,204.7,1023.5,204.7Zm688.68,481.57l6.49,13.2-22.34-7.03-1.86-3.77,17.71-2.39Zm-35.34-37.5c.55-2,1.73-3.51,3.55-4.54,1.81-1.03,3.73-1.27,5.74-.73,2.01,.54,3.53,1.72,4.56,3.54,1.04,1.84,1.28,3.77,.72,5.77-.57,2-1.76,3.52-3.57,4.55-1.81,1.03-3.73,1.26-5.73,.69-2-.57-3.52-1.76-4.55-3.57-1.03-1.81-1.27-3.72-.71-5.72Zm2.57,36c6.04,1.26,10.52,4.85,13.44,10.78,1.75,3.57,2.46,7.34,2.13,11.31-.33,3.97-1.8,7.59-4.41,10.85s-5.93,5.88-9.96,7.86c-5.81,2.86-11.41,3.77-16.77,2.75-6.49-1.24-11.28-5-14.37-11.28-3.03-6.17-3.2-11.98-.51-17.44,2.69-5.46,6.88-9.59,12.58-12.39,5.87-2.89,11.83-3.7,17.87-2.44Zm-47.25,555.74c-7.06,19.73-15.05,39.02-23.92,57.82h-65.91v-57.82h89.83Zm-25.03-3.76v-57.81h43.62c-4.87,19.64-10.64,38.92-17.26,57.81h-26.36Zm-64.8,171.51v-44.59h30.33c-9.51,15.29-19.62,30.18-30.33,44.59Zm28.43,58.29c.19,2.08-.38,3.92-1.71,5.53-1.33,1.61-3.02,2.51-5.08,2.71-2.06,.2-3.9-.37-5.5-1.69-1.61-1.33-2.52-3.02-2.73-5.1-.21-2.07,.34-3.91,1.67-5.52,1.35-1.63,3.05-2.54,5.13-2.73,2.08-.19,3.92,.38,5.53,1.71,1.61,1.33,2.51,3.02,2.69,5.1Zm-92.87-106.64v-57.82h125.47v6.34c-8.69,17.62-18.15,34.8-28.36,51.48h-97.12Zm-64.8,61.58v-57.81h125.47v49.57c-2.09,2.76-4.19,5.52-6.32,8.24h-119.15Zm116.15,3.76c-15.98,20.08-33.13,39.19-51.34,57.22v-57.22h51.34Zm-180.58,57.82v-57.82h125.47v57.82h-125.47Zm124.77,3.76c-19.02,18.48-39.17,35.8-60.34,51.85v-51.85h60.34Zm-189.58,57.82v-57.82h125.47v54.72c-1.4,1.05-2.84,2.06-4.25,3.1h-121.22Zm116.07,3.76c-16.52,11.88-33.63,23-51.27,33.31v-33.31h51.27Zm-180.5,57.81v-57.81h125.47v35.54c-13.77,7.93-27.87,15.36-42.25,22.27h-83.22Zm75.17,3.76c-3.56,1.65-7.14,3.27-10.74,4.86v-4.86h10.74Zm-550.23-3.76c-13.42-6.45-26.57-13.37-39.45-20.71v-37.11h125.47v57.81h-86.02Zm18.78,3.76v4.86c-3.6-1.59-7.17-3.21-10.73-4.86h10.73Zm-121.22-65.34c-1.41-1.04-2.84-2.05-4.25-3.1v-54.72h125.47v57.82h-121.22Zm59.22,3.76v34.97c-18.63-10.77-36.66-22.45-54.06-34.97h54.06Zm-183.38-123.16h54.14v57.82h-2.19c-18.44-18.21-35.79-37.52-51.95-57.82Zm14.12,87.28c-.03,2.08-.8,3.85-2.29,5.31-1.49,1.46-3.27,2.17-5.36,2.14-2.09-.03-3.85-.8-5.31-2.29-1.46-1.49-2.17-3.27-2.15-5.34,.02-2.07,.78-3.84,2.27-5.3,1.49-1.46,3.28-2.18,5.36-2.17,2.09,.01,3.85,.76,5.31,2.25,1.48,1.52,2.2,3.31,2.17,5.4Zm-17.12-91.04c-2.14-2.73-4.23-5.48-6.32-8.25v-49.57h125.47v57.81h-119.14Zm-42.27-61.58v.8c-11.62-18.92-22.31-38.48-31.97-58.62h131.38v57.82h-99.41Zm32.18,3.76v44.58c-10.71-14.41-20.82-29.29-30.32-44.58h30.32Zm0-123.16v57.82h-65.91c-8.87-18.8-16.86-38.09-23.92-57.82h89.82Zm-91.15-3.76c-6.62-18.89-12.39-38.17-17.26-57.81h46.41v57.81h-29.15Zm158.39-550.45v57.81h-131.01c9.56-19.86,20.13-39.14,31.59-57.81h99.41Zm-97.06-3.77c9.36-15.01,19.3-29.62,29.82-43.77v43.77h-29.82Zm159.06-57.81v57.81h-125.47v-48.77c2.3-3.03,4.59-6.06,6.94-9.05h118.52Zm-115.49-3.77c16.21-20.3,33.62-39.61,52.12-57.81h1.37v57.81h-53.49Zm311.97-180.97v57.81h-125.47v-36.3c13.43-7.65,27.16-14.82,41.17-21.51h84.3Zm-76.24-3.77c2.99-1.38,5.99-2.72,9-4.05v4.05h-9Zm649.85,65.35c1.78,1.3,3.58,2.58,5.35,3.9v53.91h-125.47v-57.81h120.13Zm-55.33-3.77v-32.51c17.24,10.08,33.98,20.92,50.17,32.51h-50.17Zm125.47,65.35v57.81h-125.47v-57.81h125.47Zm-61.04-3.77v-51.04c20.86,15.82,40.73,32.87,59.51,51.04h-59.51Zm118.53,65.35c2.35,2.99,4.65,6.02,6.94,9.05v48.77h-125.47v-57.81h118.53Zm-53.73-3.77v-56.42c17.97,17.79,34.9,36.63,50.69,56.42h-50.69Zm96.62,65.35c11.47,18.67,22.03,37.96,31.59,57.81h-128.21v-57.81h96.62Zm-32.18-3.77v-43.78c10.53,14.16,20.47,28.77,29.83,43.78h-29.83Zm-841.19,496.41v57.81h-125.47v-57.81h125.47Zm-63.47-3.76v-57.82h125.47v57.82h-125.47Zm192.71,184.74h-125.47v-57.82h125.47v57.82Zm62,3.76v57.81h-125.47v-57.81h125.47Zm-129.24-65.34h-125.47v-57.82h125.47v57.82Zm-129.24-57.82v57.82h-125.47v-57.82h125.47Zm-58.23,61.58h125.47v57.82h-125.47v-57.82Zm62,61.58h125.47v57.81h-125.47v-57.81Zm67.24,61.58h125.47v57.82h-125.47v-57.82Zm62,61.58h125.47v57.82h-125.47v-57.82Zm67.24-3.76v-57.82h123.03v57.82h-123.03Zm62,3.76h125.47v57.82h-125.47v-57.82Zm64.8-3.76v-57.82h125.47v57.82h-125.47Zm0,65.34h125.47v57.81h-125.47v-57.81Zm64.44-3.76v-57.82h125.47v57.82h-125.47Zm64.8-61.58v-57.82h125.47v57.82h-125.47Zm64.44-61.58v-57.81h125.47v57.81h-125.47Zm0,65.34h125.47v57.82h-125.47v-57.82Zm64.8-3.76v-57.82h125.47v57.82h-125.47Zm64.44-61.58v-57.81h125.47v57.81h-125.47Zm64.8-61.58v-57.82h125.47v57.82h-125.47Zm-64.8-61.58v-57.82h125.47v57.82h-125.47Zm129.24,0v-57.82h125.47v57.82h-125.47Zm61.04-61.58h-125.47v-57.81h125.47v57.81Zm-64.8-61.58h-125.47v-51.6c-1.26-.25-2.49-.5-3.76-.76v27.72c.94,9.58,1.87,19.02,2.8,28.4h62.01v57.81h-92.6c-.03,1.25-.06,2.51-.08,3.76h27.89v57.82h-27.11c0,1.25,.01,2.51,0,3.76h91.91v57.82h-125.47v-57.82h33.19c-1.12-1.26-2.24-2.52-3.34-3.76h-39.01c-.2,1.25-.39,2.51-.59,3.76h5.98v57.82h-74.9c.52,1.21,1.06,2.48,1.61,3.76h8.49v57.81h-125.47v-30.76c-1.34-1.1-2.58-2.31-3.77-3.56v34.33h-125.47v-57.81h.24c-.34-1.26-.72-2.52-1.14-3.76h-61.11v-57.82h32.4c-.56-1.25-1.12-2.51-1.68-3.76h-97.96v-57.82h72.19c-.56-1.25-1.11-2.51-1.67-3.76h-3.29v-7.4c-1.26-2.83-2.51-5.66-3.77-8.49v15.89h-125.47v-57.81h91.15c-.3-1.25-.59-2.51-.85-3.76h-28.3v-57.82h30.56c.39-1.26,.81-2.51,1.25-3.76h-93.81v-35.85c-1.32-1.44-2.58-2.87-3.77-4.32v40.17h-125.47v-57.82h115.01c-.44-1.25-.82-2.5-1.14-3.76h-51.88v-57.81h69.72c.64-1.27,1.28-2.54,1.9-3.77h-4.38v-57.81h111.92c.14-1.26,.28-2.51,.37-3.77h-50.3v-57.81h39.83c-.52-1.26-1.07-2.51-1.63-3.77h-100.2v-57.81h29.2c-1.3-.98-2.35-2.2-3.01-3.77h-93.42v-57.81h118.87c.85-1.32,1.68-2.6,2.47-3.77h-54.11v-57.81h123.7c.59,.38,1.18,.76,1.77,1.14v52.59c1.26,.26,2.51,.53,3.77,.81v-50.98c27.72,17.78,55.97,35.89,84.38,54.26h-71.8c3.55,1.09,7.05,2.33,10.51,3.77h35.13v17.79c1.25,.58,2.51,1.12,3.77,1.69v-19.47h28.19c8.77,5.68,17.55,11.37,26.32,17.09,3.7,2.42,5.45,7.83,9.28,13.62,13.13-.71,25.66,3.48,26.36,21.79,3.36-.95,7.27-3.29,8.63-2.26,30.29,22.92,60.54,45.91,91.08,69.16,1.65,1.26,3.3,2.51,4.95,3.77,19.8,15.08,39.74,30.29,59.9,45.66,.9,.69,1.8,1.37,2.7,2.06,4.4,3.36,8.8,6.71,13.22,10.09,1.64,1.25,3.29,2.51,4.94,3.77,7.73,5.9,15.49,11.82,23.3,17.77-16.26,3.38-28.2,5.86-40.13,8.34,.39,1.91,.79,3.81,1.18,5.72,8.59-1.86,17.14-4.93,25.79-5.26,9.26-.34,21.2-1.26,27.33,3.75,2.34,1.91,4.47,4.09,6.46,6.44,1.31,1.55,2.56,3.18,3.76,4.86,3.65,5.1,6.87,10.7,10.05,16.18,.44,.76,.88,1.5,1.32,2.25,.31,.53,.62,1.08,.94,1.6,2.24,3.78,1.02,9.61,1.49,16.05,2.98,1.61,9.36,5.06,14.57,7.88,9.52-4.8,18.38-9.26,27.87-14.04,1.61,3.03,3.05,5.74,4.44,8.34,1.31,2.46,2.57,4.82,3.76,7.08,.87,1.64,1.73,3.26,2.59,4.87,.21-.84,.42-1.68,.63-2.51,14.38,9.61,28.76,19.23,43.5,29.08-.33,.27,.73-.24,1.23-1.07,10.81-18.24,20.51-36.8,28.62-55.77h48.91v57.81h-114.01c.3,1.25,.59,2.51,.89,3.76h48.69v57.82h-35.07c.29,1.24,.59,2.51,.89,3.76h98.62v57.82Zm-448.38-554.23v-57.81h125.47v52.23c-5.67,1.66-11.27,3.53-16.81,5.58h-108.66Zm99.04,3.77c-11.8,4.86-23.33,10.48-34.6,16.77v-16.77h34.6Zm-38.37,0v18.94c-12.13,6.94-24,14.55-35.65,22.68-9.08,6.33-18.12,11.97-27.36,16.2h-62.46v-57.81h125.47Zm-72.36,61.58c-14.41,4.89-29.48,5.79-46.11,0h46.11Zm7.92-65.35h-123.03v-57.81h123.03v57.81Zm-134.44,61.58h-55.83v-57.81h125.47v57.39c-3.27-1.24-6.58-2.4-9.92-3.39-32.73-9.6-48.13-9.27-66.36-.45,2.19,1.41,4.44,2.85,6.64,4.26Zm69.64-123.16h-125.47v-57.81h125.47v57.81Zm-62,3.77v57.81h-125.47v-57.81h125.47Zm-67.24,61.58v57.81h-125.47v-57.81h125.47Zm-62,61.58v57.81h-125.47v-57.81h125.47Zm-67.24,61.58v57.81h-125.47v-57.81h125.47Zm3.77,180.97v-57.81h125.47v57.81h-125.47Zm63.47,3.77v57.81h-125.47v-57.81h125.47Zm0-65.35h-125.47v-57.81h125.47v57.81Zm-129.24-57.81v57.81h-125.47v-57.81h125.47Zm-63.47,61.58h125.47v57.81h-125.47v-57.81Zm63.47,61.58v57.81h-125.47v-57.81h125.47Zm-63.47,61.58h125.47v57.81h-125.47v-57.81Zm876.26-123.16h24.64v57.81h-28.61c3.5-18.76,4.91-38.01,3.97-57.81Zm-.2-3.77c-.37-5.82-.87-11.66-1.67-17.58-1.82-13.41-4.23-26.91-7.31-40.24h98.62v57.81h-89.63Zm24.83-61.58h-34.67c-3.52-14.6-7.91-28.95-13.36-42.72-2.05-5.18-4.33-10.18-6.73-15.09h54.76v57.81Zm-29.4,126.93h94.2v57.81h-112.08c7.8-18.81,13.91-38.06,17.88-57.81Zm33.16-3.77v-57.81h125.47v57.81h-125.47Zm64.8-61.58v-57.81h125.47v57.81h-125.47Zm60.67-61.58h-125.47v-57.81h125.47v57.81Zm-64.44-61.58h-121.39c-1.31-2.56-2.69-5.06-4.09-7.54v-50.27h125.47v57.81Zm-64.8-61.58h-102.23c-7.36-7.36-15.13-14.38-23.24-21.09v-36.72h125.47v57.81Zm-64.44,3.77v43.86c-9.69-15.96-21.18-30.5-34.06-43.86h34.06Zm0-65.35h-122.84c-.88-.39-1.75-.81-2.63-1.19v-56.62h125.47v57.81Zm-64.8,3.77v33.62c-8.44-6.81-17.22-13.32-26.25-19.57-7.68-5.31-15.61-9.98-23.75-14.05h49.99Zm64.2,199.34c1.13,8.4,2.75,16.73,2.6,25.61-14.86-58.13-38.06-112.13-85.31-150.57-47.06-38.29-100.98-58.06-163.27-42.5,28.7-16.38,58.84-17.66,90.04-9.49,82.7,21.66,144.52,91.82,155.93,176.95Zm-128.64-205.74c-18.33-7.25-37.68-11.49-58.04-12.18-23.65-.8-46.03,2.26-67.44,8.16v-51.16h125.47v55.18Zm133,495.28v-57.82h125.47v57.82h-125.47Zm64.44-61.58v-57.81h125.47v57.81h-125.47Zm64.8-61.58v-57.81h125.47v57.81h-125.47Zm64.44-61.58v-57.81h109.14c4.6,18.96,8.38,38.24,11.27,57.81h-120.41Zm64.8-61.58v-57.81h26.07c6.65,18.89,12.45,38.17,17.35,57.81h-43.42Zm-64.8-61.58v-57.81h65.54c8.9,18.79,16.92,38.08,24.01,57.81h-89.54Zm-197.44-307.9h-125.47v-57.81h81.5c14.98,7.15,29.66,14.84,43.97,23.08v34.73Zm-64.8,3.77v57.81h-125.47v-57.81h125.47Zm-64.44-3.77h-125.47v-57.81h125.47v57.81Zm-64.8,3.77v57.81h-125.47v-57.81h125.47Zm-64.44-3.77h-125.47v-57.81h125.47v57.81Zm-64.8,3.77v57.81h-125.47v-57.81h125.47Zm-64.44-3.77h-123.03v-57.81h123.03v57.81Zm-64.8-61.58h-125.47v-5.7c39.91-17.34,81.89-30.79,125.47-39.8v45.51Zm-129.24,65.35v57.81h-125.47v-53.91c1.77-1.32,3.56-2.6,5.35-3.9h120.13Zm-62,61.58v57.81h-125.47v-57.81h125.47Zm-67.24-3.77h-59.51c18.78-18.18,38.65-35.23,59.51-51.04v51.04Zm-129.24,188.51v57.81h-89.54c7.09-19.73,15.11-39.02,24.01-57.81h65.53Zm-62,61.58v57.81h-46.21c4.9-19.64,10.69-38.92,17.35-57.81h28.87Zm62,61.58v57.81h-120.4c2.88-19.57,6.66-38.85,11.27-57.81h109.14Zm-62,61.58v57.81h-64.52c.99-19.51,2.89-38.79,5.58-57.81h58.93Zm-63.47,61.58h125.47v57.81h-125.47v-57.81Zm67.24,61.58h125.47v57.82h-125.47v-57.82Zm62,61.58h125.47v57.82h-125.47v-57.82Zm63.47,61.58v57.81h-125.47v-57.81h125.47Zm3.77,304.14v-57.82h125.47v57.82h-125.47Zm58.23,3.76v51.85c-21.17-16.05-41.31-33.37-60.33-51.85h60.33Zm133.01,123.16h125.47v46.32c-43.58-9.02-85.56-22.47-125.47-39.8v-6.51Zm67.24-3.76v-57.81h123.03v57.81h-123.03Zm62,3.76h125.47v57.23h3.77v-57.23h125.47v47.07c-41.19,8.27-83.77,12.63-127.36,12.63s-86.17-4.36-127.35-12.63v-47.07Zm194.04-3.76v-57.81h125.47v57.81h-125.47Zm64.44,3.76h125.47v6.51c-39.91,17.34-81.89,30.79-125.47,39.81v-46.32Zm448.75-373.24h-125.47v-57.81h125.47v57.81Zm-64.8-61.58h-125.47v-57.82h125.47v57.82Zm-60.67-61.58v-57.82h125.47v57.82h-125.47Zm64.44-61.58v-57.81h125.47v57.81h-125.47Zm64.8-61.58v-57.81h56.14c2.69,19.02,4.6,38.3,5.58,57.81h-61.72Zm56.66-342.29l1.57-.89,9.44,16.66-31.49,17.85c-2.8,1.59-4.41,2.93-4.82,4.02-.41,1.09-.13,2.62,.83,4.58l-1.53,.87-12.17-21.46,1.53-.87c1.05,1.72,2.3,2.74,3.75,3.04,.97,.2,2.86-.5,5.67-2.09l23.2-13.15c2.81-1.59,4.41-2.93,4.83-4.02,.41-1.09,.14-2.61-.81-4.54Zm-10.67-23.38c2.55,3.97,3.58,7.78,3.08,11.4-.5,3.63-1.98,6.23-4.45,7.81-1.56,1-3.11,1.33-4.65,.98-1.54-.35-2.8-1.29-3.78-2.82-1.04-1.62-1.36-3.3-.97-5.04,.4-1.74,1.88-3.61,4.46-5.62,1.62-1.27,2.57-2.44,2.85-3.51,.28-1.07,.15-2.03-.4-2.88-.85-1.31-2.26-1.99-4.26-2.03-3.02-.07-6.72,1.29-11.07,4.08-3.62,2.32-6.71,5.11-9.28,8.38-2.57,3.27-4.01,6.42-4.35,9.46-.21,2.26,.34,4.42,1.66,6.48,.86,1.34,1.99,2.42,3.4,3.22,1.4,.8,3.51,1.46,6.32,1.98l-.17,1.91c-4.56,.37-8.54-.26-11.93-1.9-3.39-1.64-6.06-3.98-8.01-7.02-3.29-5.13-3.98-10.47-2.09-16.01,1.9-5.55,5.56-10.06,10.99-13.54,5.24-3.36,10.74-4.91,16.51-4.67,6.96,.3,12.34,3.4,16.13,9.33Zm-44.85-49.42c6.96-.17,12.53,2.57,16.72,8.23,2.81,3.8,4.08,7.52,3.83,11.17-.25,3.65-1.56,6.35-3.92,8.09-1.49,1.1-3.02,1.53-4.57,1.29-1.56-.24-2.88-1.1-3.97-2.57-1.14-1.54-1.58-3.2-1.3-4.96,.28-1.76,1.64-3.73,4.08-5.9,1.53-1.38,2.4-2.61,2.62-3.7,.21-1.09,.01-2.04-.59-2.85-.93-1.26-2.39-1.84-4.39-1.74-3.02,.13-6.61,1.73-10.78,4.81-3.46,2.55-6.35,5.55-8.7,8.98-2.34,3.43-3.58,6.68-3.71,9.73-.06,2.27,.64,4.39,2.09,6.35,.95,1.28,2.15,2.28,3.6,2.99,1.46,.71,3.6,1.23,6.44,1.56l-.04,1.91c-4.52,.67-8.53,.31-12.02-1.1-3.49-1.41-6.31-3.56-8.46-6.47-3.62-4.9-4.67-10.18-3.15-15.84,1.52-5.66,4.88-10.41,10.06-14.25,5-3.7,10.39-5.62,16.16-5.75Zm-37.47-50.76c.23-1.03-.22-2.4-1.34-4.1l1.37-1.18,12.16,14.09-23.63,20.39c-2.47,2.13-3.96,3.61-4.47,4.47-.51,.85-.74,1.69-.67,2.51,.06,.82,.39,1.57,.96,2.23,.76,.89,1.69,1.49,2.78,1.8,1.49,.43,3.81,.5,6.94,.2l18.49-15.95c2.61-2.26,4.04-3.9,4.26-4.93s-.22-2.4-1.34-4.1l1.37-1.18,12.16,14.09-27.07,23.35c-2.64,2.28-4.07,3.94-4.3,5-.23,1.06,.22,2.41,1.34,4.06l-1.33,1.15-12.16-14.09,4.62-3.99c-3.4,.05-6.26-.36-8.58-1.24-2.32-.88-4.37-2.34-6.13-4.38-1.68-1.95-2.58-4.2-2.69-6.74-.11-2.55,.41-4.77,1.56-6.67,1.16-1.9,3.73-4.57,7.73-8.02l13.72-11.84c2.61-2.25,4.04-3.9,4.26-4.93Zm-34.68-36.46c-.14-.74-.71-1.71-1.69-2.93l1.27-1.28,13.21,13.18-7.31,7.33c5.48-1.2,9.57-1.55,12.28-1.03,2.71,.52,4.81,1.52,6.3,3.02,1.29,1.29,1.93,2.71,1.91,4.28-.02,1.57-.76,3.08-2.2,4.53-1.54,1.55-3.11,2.37-4.71,2.48-1.6,.1-2.93-.37-3.99-1.43-1.22-1.22-1.89-2.67-2.01-4.35-.12-1.68-.21-2.65-.28-2.9-.09-.37-.29-.7-.59-1-.67-.67-1.56-1.04-2.66-1.14-1.73-.16-3.56,.25-5.49,1.21-2.97,1.5-5.8,3.6-8.49,6.3l-7.42,7.43-1.89,1.97c-1.31,1.31-2.07,2.24-2.28,2.77-.34,.9-.39,1.76-.14,2.59,.25,.83,.99,1.92,2.21,3.28l-1.24,1.24-17.46-17.42,1.24-1.24c1.52,1.29,2.86,1.85,4.01,1.69,1.15-.16,3.13-1.65,5.93-4.46l17.84-17.88c1.84-1.84,2.92-3.11,3.24-3.8,.41-.88,.55-1.68,.41-2.42Zm-32.21-28.51c5,.56,9.63,.6,13.9,.13,4.27-.47,8.52-1.47,12.74-2.99l1.21,1.07-11.09,12.49,8.11,7.2-3.21,3.62-8.11-7.2-18.71,21.08c-1.75,1.97-2.79,3.33-3.11,4.06-.33,.73-.42,1.48-.26,2.25,.15,.76,.42,1.32,.81,1.67,1.58,1.4,4.15,1.53,7.71,.37l.38,1.78c-6.13,2.92-11.4,2.42-15.84-1.52-2.17-1.93-3.47-4.15-3.89-6.69-.43-2.54-.19-4.73,.71-6.58,.49-1.04,2.36-3.39,5.6-7.04l16.38-18.45-4.46-3.96,1.13-1.28Zm-48.44,8.41c.66,3.27,1.89,5.62,3.67,7.04,1.22,.97,2.52,1.39,3.9,1.26,1.37-.13,2.49-.73,3.34-1.81,.97-1.22,1.43-2.58,1.38-4.08-.06-1.5-.69-4.21-1.9-8.13-1.75-5.8-2.63-9.87-2.64-12.21-.02-3.43,.97-6.4,2.98-8.93,2.19-2.75,5.12-4.49,8.79-5.21,3.67-.72,7.31,.35,10.9,3.21,1.94,1.54,3.43,3.5,4.49,5.89,.38,.93,.79,1.57,1.22,1.91,.46,.37,.9,.56,1.34,.59s1.31-.15,2.63-.56l1.3,1.03-9.13,12.65-1.3-1.03c1.33-4.85,1.68-8.61,1.07-11.26-.62-2.65-1.75-4.64-3.41-5.96-1.04-.83-2.22-1.19-3.51-1.08-1.3,.11-2.31,.63-3.04,1.55-.55,.69-.82,1.55-.82,2.6-.02,1.69,.84,5.3,2.57,10.81,1.73,5.52,2.48,9.63,2.26,12.35-.23,2.71-1.21,5.17-2.95,7.36-1.58,1.99-3.63,3.54-6.14,4.66-2.51,1.12-5.08,1.47-7.71,1.05-2.62-.42-5.02-1.5-7.22-3.25-1.71-1.36-3.56-3.71-5.56-7.05-.54-.89-.95-1.45-1.23-1.67-.84-.67-2.05-.59-3.62,.24l-1.26-1,9.61-13.33,1.3,1.03c-1.53,4.28-1.97,8.05-1.3,11.32Zm-48.31-40.07l14.59-21.27c1.95-2.85,2.91-4.8,2.86-5.86-.04-1.06-.82-2.26-2.34-3.62l1.02-1.49,15.35,10.53-3.34,4.87c3.37-.77,6.27-1.02,8.69-.76,2.43,.26,4.66,1.09,6.7,2.49,2.44,1.68,4.01,3.74,4.69,6.21,.68,2.46,.6,4.88-.25,7.27-.62,1.83-2.42,4.91-5.4,9.26l-10.06,14.66c-1.99,2.9-2.96,4.89-2.93,5.96,.03,1.07,.82,2.27,2.36,3.6l-1,1.45-19.05-13.07,1-1.45c1.55,.79,2.98,.9,4.28,.33,.89-.38,2.25-1.89,4.07-4.55l11.49-16.76c2.12-3.09,3.33-5.12,3.64-6.09,.31-.97,.33-1.88,.06-2.71-.27-.84-.76-1.5-1.46-1.98-2.31-1.58-5.59-1.41-9.84,.54l-13.84,20.18c-1.93,2.82-2.9,4.78-2.89,5.9,0,1.11,.66,2.25,1.95,3.41l-.99,1.45-19.05-13.07,.99-1.45c1.69,.92,3.17,1.19,4.43,.79,.86-.28,2.29-1.87,4.28-4.77Zm-13.33-51.23c3.44,1.98,6.14,4.71,8.08,8.19,1.95,3.48,2.74,7.3,2.4,11.46-.34,4.16-1.64,8.19-3.87,12.08-3.23,5.62-7.36,9.5-12.38,11.64-6.07,2.59-12.14,2.15-18.21-1.34-5.96-3.42-9.34-8.15-10.16-14.18-.82-6.03,.36-11.8,3.52-17.3,3.26-5.67,7.75-9.68,13.46-12.01,5.71-2.33,11.44-1.85,17.17,1.44Zm-96.68-31.07c2.63-5.74,6.62-10.51,11.99-14.28,5.36-3.78,11.25-5.92,17.66-6.43,6.41-.51,12.48,.55,18.23,3.18,4.23,1.94,8.29,4.9,12.16,8.89,2.23,2.31,3.73,3.64,4.46,3.98,.95,.43,1.93,.46,2.94,.08,1.01-.38,1.97-1.27,2.87-2.69l1.73,.79-9.55,20.88-1.73-.79c1.19-6.04,.67-11.33-1.55-15.86-2.23-4.53-5.59-7.82-10.09-9.88-3.76-1.72-7.71-2.22-11.83-1.49-4.13,.73-7.72,2.5-10.76,5.33-3.91,3.62-7.12,8.17-9.63,13.64-2.46,5.39-4.03,10.61-4.69,15.66-.66,5.05-.06,9.37,1.81,12.97,1.86,3.59,5.11,6.45,9.73,8.56,3.79,1.73,7.65,2.49,11.56,2.28,3.91-.21,8.54-1.55,13.89-4.01l-2.38,5.2c-4.99,1.98-9.67,2.92-14.06,2.84-4.38-.09-9.02-1.25-13.9-3.49-6.43-2.94-11.54-6.84-15.36-11.7-3.81-4.86-5.97-10.32-6.47-16.39-.5-6.07,.49-11.82,2.99-17.27Zm-13.29,86.5c3.01,1.33,6.02,2.68,9.01,4.05h-9.01v-4.05Zm-81.12-85.97c1.9,.37,3.39,.17,4.47-.59,.73-.52,1.61-2.47,2.63-5.84l7.48-24.68c1-3.3,1.32-5.45,.96-6.45-.36-1-1.47-1.91-3.33-2.74l.52-1.73,17.81,5.39-1.71,5.66c2.98-1.75,5.67-2.87,8.06-3.35,2.39-.48,4.77-.37,7.14,.35,2.84,.86,4.95,2.36,6.35,4.5,1.39,2.14,2.05,4.47,1.96,7-.04,1.93-.82,5.42-2.35,10.46l-5.15,17.02c-1.02,3.37-1.35,5.55-.99,6.56,.36,1.01,1.47,1.92,3.33,2.72l-.51,1.68-22.11-6.7,.51-1.68c1.72,.28,3.11-.04,4.18-.98,.73-.63,1.57-2.48,2.5-5.57l5.89-19.45c1.08-3.58,1.63-5.89,1.63-6.91,0-1.02-.25-1.89-.77-2.6-.51-.72-1.18-1.2-1.99-1.44-2.68-.81-5.75,.35-9.22,3.49l-7.09,23.42c-.99,3.27-1.32,5.44-.97,6.49,.34,1.06,1.31,1.95,2.9,2.66l-.51,1.68-22.12-6.69,.51-1.68Zm-41.33-30.12c1.65-7.44,4.97-12.91,9.97-16.43,5-3.51,10.19-4.67,15.6-3.47,4.52,1,8.02,3.72,10.53,8.16,2.5,4.44,3.08,10.33,1.72,17.67l-24.47-5.42c-1.02,5.98-.48,11,1.61,15.07,1.61,3.13,3.96,5.03,7.04,5.71,1.91,.42,3.76,.27,5.55-.45,1.79-.72,3.89-2.27,6.28-4.64l1.39,1.41c-3.51,4.39-6.95,7.29-10.33,8.69-3.38,1.4-6.99,1.68-10.84,.83-6.61-1.47-11.06-5.12-13.33-10.96-1.83-4.71-2.07-10.1-.73-16.17Zm-6.79,74.64c43.58,9.02,85.56,22.47,125.47,39.81v5.7h-125.47v-45.51Zm-3.76,45.51h-125.47v-56.43h-3.77v56.43h-125.47v-46.26c41.19-8.27,83.77-12.63,127.35-12.63s86.17,4.36,127.36,12.63v46.26Zm-70.92-117.5c.38-3.46,2.2-6.42,5.48-8.86,3.28-2.44,10.17-5.42,20.67-8.93l.5-4.56c.37-3.43,.42-5.61,.15-6.54-.28-.93-.9-1.78-1.86-2.56-.96-.78-2.09-1.23-3.39-1.38-2.1-.23-3.89,.05-5.35,.85-.9,.49-1.4,1.13-1.49,1.9-.07,.68,.29,1.57,1.09,2.67,1.08,1.52,1.55,2.94,1.41,4.23-.17,1.59-.91,2.87-2.21,3.86-1.3,.99-2.91,1.38-4.82,1.17-2.04-.22-3.68-1.02-4.92-2.4-1.24-1.38-1.78-2.89-1.6-4.54,.25-2.33,1.42-4.46,3.5-6.38,2.07-1.92,4.83-3.27,8.25-4.04,3.43-.77,6.92-.97,10.48-.58,4.3,.47,7.61,1.75,9.92,3.85,2.31,2.1,3.72,4.26,4.23,6.48,.31,1.41,.19,4.56-.34,9.44l-1.92,17.63c-.23,2.07-.28,3.39-.18,3.94,.11,.55,.31,.97,.6,1.27,.3,.3,.65,.47,1.07,.51,.84,.09,1.77-.41,2.77-1.52l1.33,1.32c-1.88,2.22-3.74,3.78-5.59,4.67-1.85,.9-3.88,1.23-6.08,.99-2.59-.28-4.55-1.11-5.87-2.48-1.33-1.37-2.01-3.31-2.07-5.8-6.07,4.29-11.3,6.19-15.71,5.71-2.59-.28-4.65-1.37-6.18-3.25-1.53-1.89-2.16-4.11-1.88-6.66Zm-17.56-61.09l14.68,.73-16.99,16.12-4.2-.21,6.5-16.65Zm-15.47,66.04c2.02,.04,3.55-.48,4.57-1.53,.69-.72,1.11-2.68,1.27-5.9l1.33-26.64c.16-3.22-.11-5.3-.82-6.23-.71-.93-2.12-1.51-4.26-1.75l.09-1.81,19.12,.95-1.8,36.15c-.16,3.22,.11,5.29,.82,6.23,.7,.93,2.14,1.52,4.31,1.76l-.08,1.76-24.64-1.23,.09-1.76Zm-27.49-44.18l.17,10.35c2.95-4.77,5.55-7.95,7.81-9.53,2.25-1.58,4.44-2.39,6.55-2.43,1.82-.03,3.29,.51,4.4,1.61,1.11,1.11,1.68,2.68,1.71,4.74,.04,2.18-.47,3.88-1.5,5.11-1.04,1.22-2.31,1.85-3.81,1.87-1.72,.03-3.23-.5-4.52-1.59-1.29-1.09-2.05-1.69-2.28-1.82-.33-.19-.71-.28-1.13-.27-.95,.01-1.83,.39-2.67,1.12-1.32,1.13-2.3,2.72-2.95,4.79-.99,3.18-1.45,6.67-1.39,10.48l.17,10.5,.09,2.73c.03,1.86,.16,3.04,.4,3.56,.4,.87,.99,1.51,1.76,1.9,.77,.4,2.07,.63,3.9,.69l.03,1.76-24.66,.4-.03-1.76c1.98-.2,3.32-.76,4-1.7,.68-.94,1-3.4,.93-7.37l-.41-25.25c-.04-2.6-.2-4.26-.47-4.97-.34-.91-.82-1.57-1.45-1.98-.62-.41-1.72-.69-3.29-.83l-.03-1.81,18.66-.3Zm-60.49,8.08c3.79-4.79,8.45-7.38,13.97-7.77,4.61-.32,8.75,1.28,12.41,4.83,3.66,3.54,5.89,9.03,6.67,16.45l-25,1.76c.72,6.02,2.66,10.68,5.83,13.99,2.43,2.54,5.22,3.7,8.37,3.47,1.95-.14,3.68-.81,5.2-2.01,1.51-1.2,3.08-3.28,4.7-6.23l1.73,.96c-2.11,5.21-4.59,8.97-7.43,11.27-2.84,2.31-6.23,3.6-10.16,3.87-6.76,.48-12.06-1.76-15.9-6.71-3.09-3.99-4.85-9.09-5.29-15.3-.54-7.6,1.09-13.8,4.88-18.59Zm-35.84-21.44c1.27-1.65,2.94-2.61,5.01-2.87,2.1-.26,3.97,.25,5.61,1.54,1.64,1.29,2.59,2.96,2.85,5.03,.26,2.07-.25,3.92-1.54,5.56-1.29,1.64-2.96,2.59-5.03,2.85-2.07,.26-3.92-.25-5.56-1.52-1.64-1.27-2.58-2.94-2.84-5.01-.26-2.07,.24-3.93,1.51-5.58Zm14.55,18.23l4.51,35.92c.4,3.2,1.03,5.19,1.88,5.99,.85,.8,2.37,1.12,4.55,.98l.22,1.74-24.48,3.07-.22-1.75c2-.32,3.41-1.08,4.24-2.3,.55-.82,.63-2.84,.23-6.03l-3.32-26.46c-.4-3.2-1.03-5.19-1.88-5.99-.86-.79-2.36-1.12-4.5-.99l-.23-1.79,19-2.39Zm-59.32,9.31l1.1,5.81c1.83-2.94,3.69-5.17,5.59-6.71,1.89-1.54,4.06-2.54,6.49-3,2.91-.55,5.48-.21,7.71,1.04,2.23,1.25,3.89,3.01,4.99,5.29,.86,1.73,1.78,5.18,2.77,10.36l3.33,17.47c.66,3.45,1.38,5.55,2.16,6.28,.79,.73,2.19,1.02,4.22,.86l.33,1.73-22.7,4.32-.33-1.73c1.65-.55,2.73-1.48,3.25-2.81,.36-.9,.24-2.93-.37-6.1l-3.8-19.96c-.7-3.68-1.29-5.97-1.76-6.88-.47-.9-1.1-1.55-1.89-1.95-.79-.4-1.6-.52-2.43-.36-2.75,.52-4.94,2.98-6.55,7.36l4.58,24.04c.64,3.36,1.36,5.43,2.15,6.2,.79,.78,2.06,1.12,3.8,1.02l.33,1.73-22.69,4.32-.33-1.73c1.85-.55,3.08-1.41,3.68-2.59,.41-.81,.28-2.94-.37-6.39l-4.83-25.34c-.65-3.39-1.36-5.44-2.14-6.15-.78-.71-2.19-1.01-4.22-.89l-.34-1.78,18.28-3.48Zm-59.38,19.9c2.8-5.43,6.87-8.87,12.21-10.31,4.46-1.21,8.83-.42,13.11,2.35,4.28,2.77,7.51,7.73,9.71,14.86l-24.19,6.55c1.86,5.77,4.67,9.97,8.42,12.6,2.88,2.02,5.84,2.62,8.89,1.79,1.89-.51,3.46-1.5,4.71-2.97,1.26-1.47,2.39-3.81,3.41-7.02l1.88,.61c-1.07,5.52-2.78,9.68-5.12,12.49-2.34,2.81-5.42,4.73-9.22,5.76-6.54,1.77-12.17,.59-16.89-3.53-3.8-3.32-6.51-7.99-8.14-13.99-1.99-7.35-1.59-13.75,1.21-19.18Zm-54.1,15.86c2.36-4.29,6.25-7.38,11.66-9.27,2.86-1,6.02-1.43,9.48-1.3l14.52-5.08,1.77,5.07-8.26,2.88c2.03,.98,3.56,1.98,4.57,3.01,1.32,1.4,2.29,3.01,2.93,4.82,1.07,3.08,1.15,6.04,.24,8.89-.92,2.86-2.62,5.43-5.11,7.74-2.49,2.3-4.87,3.85-7.15,4.64-.18,.06-2.05,.63-5.61,1.7-1.38,.48-2.39,1.34-3.01,2.58-.62,1.24-.71,2.48-.27,3.74,.39,1.11,1.13,1.87,2.22,2.28,1.09,.41,2.59,.28,4.5-.38l7.95-2.88c6.46-2.26,11.15-3.1,14.07-2.54,4.16,.75,6.96,3.18,8.38,7.26,.91,2.61,.94,5.27,.09,7.96-.85,2.7-2.41,5.01-4.67,6.93-3.44,2.89-7.74,5.24-12.9,7.05-3.87,1.35-7.54,2.21-11,2.58-3.46,.36-6.12,.12-7.97-.73-1.85-.85-3.03-2.02-3.55-3.49-.49-1.41-.41-2.87,.26-4.36,.67-1.5,2.31-3.13,4.93-4.91-4.69-.57-7.64-2.61-8.86-6.11-.74-2.12-.65-4.47,.28-7.03,.93-2.57,2.91-5.21,5.93-7.92-4.65-.07-8.32-1.01-11.02-2.82-2.7-1.81-4.62-4.34-5.75-7.56-1.47-4.21-1.03-8.47,1.34-12.76Zm-46.75,15.6l2.39,5.41c1.12-3.27,2.43-5.87,3.92-7.8,1.5-1.93,3.38-3.39,5.64-4.39,2.71-1.2,5.29-1.44,7.74-.73,2.45,.71,4.47,2.06,6.05,4.03,1.23,1.49,2.91,4.64,5.04,9.47l7.19,16.26c1.42,3.22,2.6,5.09,3.53,5.62,.93,.53,2.36,.49,4.3-.11l.71,1.61-21.13,9.35-.71-1.61c1.49-.91,2.33-2.06,2.53-3.47,.15-.95-.43-2.91-1.74-5.86l-8.22-18.58c-1.52-3.43-2.6-5.53-3.27-6.3-.66-.78-1.42-1.27-2.28-1.48-.86-.21-1.67-.14-2.45,.2-2.56,1.13-4.14,4.02-4.72,8.66l9.9,22.38c1.38,3.13,2.55,4.98,3.5,5.56,.95,.58,2.26,.62,3.93,.13l.71,1.61-21.13,9.35-.71-1.61c1.68-.96,2.68-2.07,3-3.36,.22-.88-.39-2.93-1.81-6.14l-10.43-23.59c-1.4-3.16-2.56-4.99-3.48-5.51-.92-.52-2.36-.49-4.31,.09l-.73-1.65,17.02-7.53Zm-36.89-5.38l.85,1.59-1.94,1.03c-1.7,.9-2.9,1.93-3.62,3.08-.54,.8-.76,1.8-.67,3.01,.05,.86,.85,2.75,2.41,5.69l20.43,38.49c1.59,2.99,2.74,4.77,3.47,5.35,.73,.57,1.72,.88,2.98,.93,1.26,.05,2.71-.36,4.35-1.23l1.94-1.03,.85,1.6-30.59,16.24-.85-1.6,1.94-1.03c1.7-.9,2.9-1.93,3.62-3.08,.53-.8,.74-1.79,.63-2.99-.05-.86-.85-2.75-2.41-5.69l-20.43-38.49c-1.59-2.99-2.74-4.78-3.45-5.36-.71-.58-1.7-.89-2.96-.95-1.26-.05-2.71,.36-4.35,1.23l-1.94,1.03-.85-1.59,30.59-16.24Zm19.94,123.98v34.16h-52.96c17.06-12.21,34.73-23.62,52.96-34.16Zm-96.9-48.13c.92-6.04,3.68-10.59,8.29-13.67,3.85-2.57,8.24-3.22,13.17-1.95,4.94,1.27,9.58,4.93,13.94,10.99l-20.84,13.91c3.61,4.88,7.61,7.96,12,9.26,3.37,1,6.37,.62,9-1.13,1.62-1.09,2.8-2.52,3.52-4.32,.72-1.79,1.05-4.37,1-7.74l1.98-.03c.75,5.57,.45,10.06-.87,13.47-1.33,3.41-3.63,6.21-6.9,8.4-5.63,3.76-11.35,4.44-17.14,2.04-4.66-1.94-8.72-5.49-12.17-10.67-4.23-6.34-5.89-12.52-4.96-18.56Zm-35.24-6.9l32.37,41.41c2.19,2.8,3.56,4.39,4.11,4.78,.87,.69,1.75,1.01,2.65,.97,.9-.04,2.1-.57,3.62-1.59l.99,1.27-12.89,14.85-4.45-5.7c-.1,3.63-.55,6.4-1.35,8.31-.8,1.91-2.1,3.57-3.9,4.97-4.59,3.59-9.83,4.38-15.7,2.36-4.76-1.65-9.04-4.9-12.83-9.75-3.03-3.87-5.07-7.87-6.14-11.97-1.06-4.11-1.04-7.85,.06-11.23,1.1-3.38,2.98-6.11,5.65-8.2,1.72-1.34,3.51-2.2,5.36-2.58,1.86-.37,4.19-.32,7.01,.16l-8.48-10.85c-2.15-2.74-3.56-4.31-4.23-4.69-.89-.5-1.78-.69-2.68-.57-.9,.12-2.19,.85-3.88,2.17l-1.26-1.62,15.97-12.49Zm-74.73,92.74c1.56-3.15,3.61-5.98,6.16-8.5,3.08-3.05,6.16-4.8,9.25-5.27,3.09-.47,5.65-.2,7.7,.8,1.28,.65,3.66,2.72,7.11,6.22l12.47,12.6c1.47,1.48,2.44,2.36,2.94,2.63,.49,.27,.95,.38,1.36,.34,.41-.04,.77-.21,1.07-.51,.6-.59,.79-1.63,.57-3.1l1.87-.2c.54,2.86,.57,5.29,.1,7.29-.47,2-1.49,3.78-3.07,5.34-1.85,1.83-3.73,2.83-5.63,2.99-1.9,.16-3.84-.52-5.81-2.05-.5,7.41-2.33,12.67-5.47,15.79-1.85,1.83-3.99,2.75-6.42,2.75-2.43,0-4.55-.92-6.36-2.75-2.45-2.48-3.59-5.76-3.42-9.85,.17-4.09,2.21-11.31,6.11-21.68l-3.23-3.26c-2.43-2.45-4.09-3.87-4.99-4.24-.89-.37-1.95-.43-3.16-.17-1.21,.26-2.28,.85-3.2,1.76-1.51,1.49-2.41,3.05-2.72,4.68-.19,1.01,0,1.8,.54,2.35,.48,.49,1.4,.77,2.76,.84,1.86,.13,3.25,.65,4.17,1.58,1.12,1.14,1.65,2.52,1.6,4.15-.06,1.64-.76,3.13-2.13,4.48-1.46,1.44-3.12,2.21-4.97,2.3-1.85,.1-3.36-.45-4.53-1.63-1.65-1.67-2.56-3.91-2.74-6.73-.18-2.82,.51-5.8,2.07-8.95Zm-34.3,5.75l42.2,37.96c2.4,2.16,4.18,3.26,5.35,3.3,1.17,.04,2.53-.7,4.08-2.24l1.31,1.18-16.5,18.34-1.31-1.18c1.3-1.54,1.87-3.05,1.7-4.52-.12-.99-1.38-2.55-3.78-4.71l-35.15-31.62c-2.37-2.13-4.14-3.22-5.31-3.26-1.17-.04-2.52,.69-4.05,2.2l-1.34-1.21,12.81-14.24Zm-15.47,47.34c2.9-3.6,6.9-5.53,11.99-5.8,5.09-.27,10.62,1.84,16.59,6.32l-15.73,19.51c4.9,3.57,9.64,5.32,14.21,5.25,3.51-.05,6.26-1.31,8.25-3.77,1.23-1.52,1.92-3.25,2.07-5.17,.15-1.93-.3-4.49-1.36-7.69l1.88-.62c2.38,5.09,3.44,9.47,3.2,13.12-.25,3.65-1.61,7.01-4.08,10.08-4.25,5.27-9.5,7.63-15.74,7.07-5.03-.46-9.96-2.64-14.8-6.54-5.93-4.78-9.36-10.19-10.29-16.23-.93-6.04,.35-11.21,3.82-15.52Zm-37.45,52.71l25.7,17.71c2.68,1.85,4.5,2.91,5.45,3.19,.95,.28,1.82,.29,2.6,.01,.78-.27,1.42-.77,1.92-1.5,.67-.97,1.01-2.01,1.04-3.14,.04-1.55-.48-3.81-1.56-6.77l-20.11-13.86c-2.84-1.96-4.79-2.92-5.85-2.87-1.06,.04-2.27,.82-3.63,2.33l-1.49-1.03,10.56-15.32,29.44,20.29c2.87,1.98,4.84,2.94,5.92,2.9,1.08-.05,2.28-.82,3.59-2.33l1.45,1-10.56,15.32-5.03-3.47c.91,3.27,1.23,6.15,.97,8.62-.26,2.47-1.16,4.82-2.69,7.04-1.46,2.12-3.41,3.55-5.84,4.31-2.44,.75-4.72,.81-6.85,.17-2.13-.64-5.37-2.46-9.71-5.45l-14.92-10.29c-2.84-1.96-4.79-2.92-5.85-2.88-1.06,.04-2.27,.82-3.63,2.34l-1.49-1.03,10.56-15.32Zm-26.23,38.96c2.38-4.08,5.3-6.72,8.75-7.93,3.46-1.21,6.45-1.07,8.98,.41,1.6,.94,2.6,2.17,2.99,3.7,.39,1.53,.13,3.08-.79,4.66-.97,1.66-2.32,2.71-4.05,3.15-1.73,.44-4.07-.03-7.03-1.42-1.87-.87-3.34-1.18-4.43-.94-1.08,.24-1.88,.79-2.39,1.66-.79,1.35-.74,2.92,.13,4.71,1.31,2.73,4.21,5.39,8.68,8,3.71,2.17,7.61,3.65,11.69,4.45,4.08,.8,7.55,.65,10.4-.43,2.11-.84,3.78-2.32,5.01-4.43,.8-1.38,1.24-2.87,1.32-4.49,.08-1.61-.29-3.79-1.11-6.53l1.78-.72c2.4,3.89,3.65,7.72,3.73,11.48,.08,3.76-.78,7.21-2.61,10.33-3.07,5.26-7.51,8.31-13.31,9.15-5.8,.84-11.49-.37-17.06-3.62-5.37-3.13-9.26-7.32-11.67-12.57-2.9-6.33-2.58-12.53,.96-18.61Zm-24.55,45.17c1.11-2.21,2.72-4.08,4.84-5.61,.83-.57,1.37-1.1,1.62-1.59,.26-.52,.37-1,.31-1.43-.06-.43-.42-1.25-1.09-2.46l.74-1.48,14.25,6.34-.74,1.48c-5.02-.3-8.77,.13-11.24,1.27-2.47,1.15-4.18,2.67-5.13,4.56-.6,1.2-.71,2.41-.33,3.66,.38,1.25,1.09,2.13,2.14,2.66,.79,.4,1.69,.48,2.71,.27,1.66-.33,5.01-1.91,10.06-4.74,5.04-2.82,8.92-4.41,11.62-4.74,2.7-.34,5.31,.12,7.81,1.38,2.27,1.14,4.21,2.82,5.83,5.05,1.61,2.23,2.48,4.67,2.61,7.32,.13,2.65-.44,5.23-1.69,7.73-.98,1.95-2.9,4.25-5.76,6.89-.76,.71-1.22,1.23-1.38,1.55-.48,.96-.16,2.13,.98,3.5l-.72,1.44-15.02-6.66,.75-1.48c4.5,.62,8.28,.27,11.35-1.05,3.07-1.32,5.11-3,6.14-5.04,.7-1.4,.85-2.75,.43-4.07-.41-1.32-1.23-2.29-2.45-2.9-1.4-.7-2.82-.87-4.28-.51-1.46,.36-3.98,1.54-7.56,3.53-5.32,2.91-9.12,4.6-11.41,5.09-3.35,.72-6.47,.36-9.35-1.09-3.14-1.58-5.45-4.09-6.9-7.54-1.46-3.44-1.16-7.22,.9-11.32Zm6.26,98.91l.83-2.04c.72-1.78,.99-3.34,.79-4.69-.1-.96-.58-1.85-1.44-2.69-.59-.62-2.42-1.56-5.5-2.81l-40.38-16.37c-2.78-1.13-4.51-1.74-5.21-1.85-1.18-.13-2.22,.1-3.12,.68-1.31,.8-2.37,2.2-3.18,4.19l-.83,2.04-1.68-.68,20.83-51.38,18.15,7.36-.7,1.72c-4.79-.92-8.47-.99-11.05-.18-2.57,.8-4.9,2.47-6.98,5-1.23,1.47-2.78,4.53-4.67,9.18l-2.57,6.34,24.99,10.13,.49-1.22c1.58-3.89,1.5-7.21-.23-9.95-1.74-2.74-4.89-5.32-9.46-7.74l.7-1.72,32.14,13.03-.7,1.72c-3.65-1.06-6.82-1.46-9.53-1.2-2.7,.26-4.75,1-6.15,2.23-1.39,1.23-2.68,3.3-3.87,6.23l17.29,7.01c3.38,1.37,5.51,2.07,6.38,2.08,.87,.02,1.71-.26,2.51-.85,.8-.59,1.56-1.76,2.27-3.51l1.49-3.67c2.33-5.73,2.86-10.87,1.61-15.4-1.25-4.53-4.29-8.65-9.11-12.37l.68-1.68,18.39,10.67-21.51,53.05-1.67-.68Zm15.59,265.58h64.55v57.82h-59.04c-2.67-19.03-4.54-38.3-5.5-57.82Zm126.55,61.58v57.82h-109.33c-4.58-18.96-8.32-38.25-11.18-57.82h120.52Zm-96.42,346.21c-4.64-1.64-8.9-5.29-12.78-10.96-3.24-4.73-5.11-8.81-5.62-12.26-.69-4.7-.2-8.69,1.5-11.98,1.69-3.29,4.81-6.49,9.35-9.6l26.75-18.34c3.14-2.15,4.98-3.67,5.5-4.54,.52-.88,.72-1.9,.59-3.07-.13-1.17-1-2.9-2.61-5.19l1.49-1.02,19.33,28.2-1.49,1.02-.97-1.41c-1.45-2.12-2.67-3.43-3.66-3.92-.99-.49-1.98-.63-2.99-.44-1.01,.2-3.07,1.37-6.19,3.5l-26.75,18.34c-4.89,3.35-7.87,5.94-8.95,7.76-1.08,1.83-1.56,3.94-1.45,6.35,.11,2.41,1.05,4.9,2.82,7.48,2.03,2.96,4.42,5.02,7.17,6.19,2.76,1.17,5.66,1.47,8.7,.9,3.05-.57,7.47-2.84,13.27-6.82l22.28-15.27c2.44-1.67,4.02-3.13,4.71-4.35,.7-1.23,.98-2.37,.85-3.43-.21-1.63-1.07-3.55-2.58-5.75l1.49-1.02,12.95,18.9-1.49,1.02-.78-1.13c-1.05-1.53-2.23-2.6-3.55-3.19-1.32-.59-2.75-.7-4.3-.31-1.1,.24-2.76,1.13-4.99,2.65l-20.75,14.22c-6.42,4.4-11.34,7.16-14.77,8.26-3.43,1.1-7.46,.84-12.1-.8Zm53.53,65.71c-.24,1.04,.2,2.4,1.34,4.09l-1.34,1.14-14.99-17.58,1.34-1.14c1.29,1.16,2.64,1.64,4.04,1.43,.96-.13,2.66-1.24,5.12-3.33l15.46-13.18c2.85-2.43,4.55-4.07,5.11-4.93,.55-.86,.81-1.73,.76-2.61-.04-.88-.34-1.64-.89-2.29-1.82-2.13-5.03-2.81-9.64-2.05l-18.62,15.88c-2.6,2.22-4.04,3.87-4.32,4.94-.28,1.07,.05,2.34,1,3.8l-1.34,1.14-14.99-17.58,1.34-1.14c1.39,1.33,2.75,1.98,4.07,1.92,.9-.05,2.7-1.21,5.37-3.49l19.63-16.73c2.63-2.24,4.06-3.87,4.29-4.91,.23-1.03-.21-2.4-1.32-4.1l1.37-1.18,12.08,14.17-4.5,3.83c3.45,.14,6.32,.65,8.59,1.53,2.27,.89,4.21,2.27,5.82,4.15,1.92,2.26,2.89,4.66,2.91,7.21,.02,2.56-.69,4.87-2.13,6.95-1.07,1.6-3.62,4.11-7.63,7.54l-13.53,11.54c-2.68,2.28-4.14,3.94-4.38,4.99Zm29.38,32.87l-1.26,1.23-17.25-17.64,1.26-1.23c1.46,1.4,2.93,2.06,4.4,1.98,.99-.06,2.64-1.21,4.94-3.47l19.07-18.65c2.3-2.26,3.51-3.96,3.63-5.13,.12-1.16-.53-2.55-1.94-4.18l1.29-1.27,13.39,13.69-25.87,25.32c-2.3,2.25-3.51,3.96-3.63,5.12-.12,1.16,.54,2.57,1.98,4.22Zm25.01,27.69l-1.71-1.53,12.25-36.62c1.47-4.41,2.2-7.4,2.19-8.94,0-1.13-.43-2.29-1.33-3.49l1.21-1.35,18.05,16.24-1.21,1.34c-1.14-1.02-2.1-1.51-2.88-1.47-1.06,.01-1.92,.38-2.57,1.1-.8,.9-1.79,3.06-2.94,6.49l-5.87,17.78,14.37-6.98c4.11-1.99,6.76-3.64,7.93-4.95,.68-.75,.95-1.61,.83-2.57-.12-.96-.85-2.09-2.18-3.38l1.21-1.34,11.11,10-1.21,1.34c-1.2-.82-2.43-1.2-3.69-1.16-1.27,.04-4.01,1.05-8.24,3.03l-35.31,16.46Zm55.81,41.68c-3.66-.16-7.05-1.44-10.17-3.84-5.37-4.12-7.85-9.31-7.44-15.57,.34-5.04,2.4-10.02,6.19-14.95,4.64-6.04,9.97-9.6,15.99-10.67,6.01-1.07,11.22,.08,15.61,3.46,3.67,2.82,5.69,6.77,6.08,11.85,.39,5.08-1.59,10.66-5.92,16.73l-19.87-15.27c-3.46,4.98-5.09,9.76-4.91,14.33,.14,3.51,1.45,6.23,3.96,8.16,1.55,1.19,3.29,1.84,5.22,1.95,1.93,.11,4.48-.41,7.65-1.54l.66,1.86c-5.04,2.49-9.39,3.66-13.04,3.5Zm63.43,2.96c-.45-1.62-.74-2.55-.86-2.79-.16-.34-.42-.63-.78-.86-.79-.52-1.73-.71-2.83-.58-1.73,.19-3.44,.96-5.14,2.29-2.61,2.06-4.96,4.69-7.05,7.87l-5.77,8.77-1.46,2.31c-1.02,1.55-1.58,2.6-1.68,3.16-.16,.95-.03,1.81,.39,2.57,.41,.76,1.36,1.68,2.83,2.77l-.97,1.47-20.61-13.56,.97-1.47c1.75,.96,3.17,1.24,4.27,.85,1.09-.39,2.73-2.24,4.92-5.56l13.89-21.1c1.43-2.17,2.24-3.63,2.41-4.38,.23-.94,.2-1.76-.08-2.45-.28-.69-1.03-1.54-2.25-2.54l.99-1.51,15.59,10.26-5.69,8.65c5.12-2.28,9.06-3.44,11.82-3.48,2.75-.04,5.01,.53,6.78,1.69,1.52,1,2.43,2.27,2.72,3.81,.29,1.54-.12,3.16-1.25,4.88-1.2,1.83-2.57,2.95-4.12,3.37-1.55,.42-2.95,.23-4.2-.6-1.44-.95-2.39-2.23-2.84-3.86Zm41.25,18.09c-1.03-2.52-2.46-4.3-4.3-5.34-1.16-.65-2.38-.82-3.64-.51-1.26,.31-2.18,.99-2.76,2-.43,.76-.56,1.67-.4,2.69,.25,1.67,1.67,5.1,4.25,10.27,2.58,5.17,3.97,9.12,4.18,11.83,.21,2.71-.38,5.29-1.75,7.73-1.25,2.21-3.02,4.07-5.33,5.58-2.31,1.5-4.78,2.26-7.44,2.26s-5.2-.69-7.64-2.06c-1.9-1.07-4.11-3.1-6.61-6.08-.68-.79-1.17-1.27-1.48-1.45-.93-.53-2.12-.26-3.54,.81l-1.4-.79,7.38-14.68,1.45,.82c-.83,4.46-.67,8.26,.51,11.39,1.17,3.13,2.75,5.25,4.74,6.37,1.36,.77,2.71,.98,4.05,.63s2.34-1.12,3.01-2.31c.77-1.36,1-2.78,.71-4.25-.29-1.47-1.34-4.05-3.16-7.73-2.65-5.45-4.16-9.33-4.54-11.64-.56-3.38-.05-6.48,1.53-9.29,1.73-3.06,4.35-5.24,7.86-6.53,3.51-1.29,7.27-.81,11.27,1.45,2.15,1.21,3.94,2.91,5.37,5.1,.53,.86,1.03,1.42,1.51,1.69,.51,.29,.98,.41,1.41,.38,.43-.04,1.27-.36,2.51-.97l1.45,.82-7.01,13.93-1.45-.82c.54-5,.3-8.77-.73-11.29Zm21.12,53.14c.28,1.13,1.36,2.24,3.26,3.33l-.78,1.58-22.13-10.9,.78-1.58c1.84,.84,3.44,.97,4.81,.41,.91-.39,2.09-2.02,3.51-4.91l11.79-23.92c1.43-2.89,2-4.91,1.72-6.04-.28-1.13-1.35-2.23-3.22-3.3l.8-1.62,17.18,8.47-16,32.47c-1.43,2.89-2,4.9-1.72,6.04Zm14.7-47.84c-1.87-.92-3.14-2.36-3.8-4.32-.66-1.96-.54-3.88,.38-5.75,.92-1.87,2.37-3.14,4.34-3.82,1.97-.68,3.89-.56,5.76,.36,1.9,.93,3.18,2.39,3.84,4.37,.66,1.98,.53,3.9-.39,5.77s-2.37,3.13-4.35,3.79c-1.98,.66-3.9,.53-5.77-.4Zm46.04,72.21c.48,.76,1.54,1.55,3.18,2.36l-.61,1.49-19.28-3.83,2.74-6.69c-3.2,1.72-5.83,2.7-7.88,2.95-2.05,.25-4.14-.06-6.25-.92-5.39-2.21-8.67-6.37-9.83-12.47-.93-4.96-.23-10.28,2.11-15.98,1.86-4.55,4.32-8.31,7.36-11.26,3.04-2.96,6.3-4.8,9.78-5.52,3.48-.72,6.79-.44,9.92,.84,2.02,.83,3.65,1.95,4.9,3.38,1.25,1.42,2.36,3.48,3.33,6.17l5.22-12.75c1.32-3.22,1.98-5.22,1.98-6,0-1.02-.28-1.89-.83-2.61-.55-.72-1.82-1.48-3.81-2.3l.78-1.9,18.76,7.68-19.92,48.64c-1.35,3.28-2.05,5.26-2.12,5.94-.17,1.09,0,2.02,.47,2.78Zm65.61-3.63l-5.25,16.94c-.62,1.99-.93,3.27-.93,3.83,0,.56,.11,1.02,.35,1.36,.23,.35,.55,.58,.96,.71,.81,.25,1.81-.07,3.01-.96l1.05,1.55c-2.27,1.82-4.4,2.99-6.38,3.52-1.99,.53-4.04,.46-6.15-.2-2.49-.77-4.25-1.95-5.29-3.56-1.04-1.6-1.35-3.63-.92-6.09-6.77,3.05-12.28,3.92-16.51,2.61-2.49-.77-4.3-2.23-5.45-4.37-1.14-2.15-1.33-4.45-.57-6.9,1.03-3.33,3.39-5.88,7.08-7.65,3.68-1.77,11.02-3.38,22-4.82l1.36-4.39c1.02-3.3,1.48-5.43,1.39-6.39-.09-.97-.54-1.92-1.34-2.87-.8-.94-1.82-1.61-3.06-2-2.02-.62-3.82-.69-5.41-.2-.98,.31-1.59,.84-1.82,1.58-.2,.65-.02,1.6,.55,2.83,.77,1.7,.96,3.18,.57,4.42-.47,1.52-1.44,2.65-2.91,3.37s-3.12,.8-4.95,.23c-1.96-.61-3.42-1.71-4.37-3.3-.96-1.59-1.19-3.18-.7-4.77,.69-2.24,2.24-4.1,4.65-5.59,2.4-1.49,5.36-2.29,8.87-2.39,3.51-.11,6.98,.37,10.4,1.43,4.14,1.28,7.14,3.17,9,5.68,1.87,2.5,2.84,4.89,2.92,7.17,.03,1.44-.68,4.52-2.14,9.21Zm61.65,39.05c.61,.66,1.79,1.25,3.54,1.76l-.34,1.58-19.66-.39,1.52-7.07c-2.85,2.25-5.26,3.68-7.24,4.29-1.98,.61-4.08,.67-6.31,.19-5.7-1.23-9.65-4.74-11.87-10.55-1.78-4.71-2.03-10.08-.73-16.1,1.04-4.81,2.79-8.93,5.27-12.38,2.47-3.45,5.36-5.83,8.66-7.15,3.3-1.32,6.6-1.63,9.91-.91,2.13,.46,3.94,1.28,5.42,2.46,1.48,1.19,2.93,3.02,4.36,5.49l2.9-13.46c.73-3.41,1.03-5.49,.9-6.25-.18-1.01-.61-1.81-1.28-2.43-.67-.61-2.05-1.14-4.15-1.59l.43-2,19.82,4.27-11.07,51.38c-.75,3.47-1.1,5.55-1.04,6.22,.03,1.1,.35,1.99,.95,2.65Zm116.33,17.78l-31.96-2.36,.13-1.81,1.31,.1c2.57,.19,4.39-.03,5.49-.67,.75-.47,1.17-1.19,1.24-2.16,.04-.59-.01-1.19-.16-1.83-.04-.3-.44-1.55-1.19-3.76l-2.9-8.49-23.33-1.72-3.25,6.22c-1.07,2.08-1.65,3.81-1.76,5.21-.14,1.85,.51,3.27,1.94,4.26,.84,.59,2.97,1.13,6.39,1.65l-.13,1.8-21.97-1.62,.13-1.81c2.4-.18,4.42-1.02,6.06-2.51,1.65-1.5,3.77-4.68,6.39-9.54l27.51-50.97,.93,.07,19.83,55.93c1.89,5.3,3.52,8.67,4.89,10.11,1.03,1.09,2.54,1.79,4.55,2.1l-.13,1.81Zm51.16-1.05l-.19-6.1c-2.11,2.67-4.22,4.63-6.37,5.89-2.14,1.25-4.56,1.92-7.26,2.01-2.57,.08-4.88-.64-6.94-2.16-2.05-1.52-3.45-3.32-4.2-5.42-.75-2.09-1.21-5.78-1.37-11.05l-.56-18.11c-.11-3.45-.49-5.59-1.15-6.42-.66-.82-2-1.34-4.03-1.53l-.06-1.81,18.6-.57,.97,31.2c.1,3.25,.31,5.35,.65,6.28s.85,1.64,1.54,2.1c.68,.47,1.46,.69,2.34,.66,1.17-.03,2.23-.38,3.14-1.02,1.28-.89,2.79-2.64,4.54-5.27l-.76-24.41c-.1-3.45-.48-5.59-1.15-6.42-.66-.82-2-1.34-4.04-1.54l-.05-1.81,18.6-.58,1.1,35.74c.11,3.49,.5,5.65,1.18,6.49,.67,.84,2.01,1.35,4,1.51l.06,1.76-18.6,.58Zm66.43-11.65c-1,2.57-2.57,4.63-4.73,6.17-2.16,1.54-4.63,2.47-7.41,2.77-2.17,.24-5.14-.13-8.92-1.09-1.01-.25-1.69-.35-2.05-.31-1.07,.11-1.87,1.02-2.4,2.72l-1.6,.17-2.56-16.23,1.65-.18c1.92,4.11,4.27,7.1,7.05,8.96,2.77,1.86,5.3,2.66,7.56,2.42,1.55-.17,2.77-.79,3.66-1.85,.88-1.06,1.25-2.28,1.1-3.64-.17-1.55-.8-2.84-1.9-3.87-1.09-1.03-3.45-2.51-7.07-4.44-5.33-2.89-8.82-5.16-10.47-6.81-2.43-2.42-3.81-5.23-4.16-8.44-.38-3.5,.48-6.79,2.58-9.89,2.1-3.1,5.44-4.89,10-5.39,2.46-.27,4.91,.07,7.34,1.02,.93,.39,1.67,.56,2.22,.49,.58-.06,1.04-.23,1.37-.51,.33-.28,.82-1.03,1.47-2.25l1.65-.18,2.42,15.41-1.65,.18c-2.48-4.38-4.87-7.3-7.17-8.75-2.3-1.45-4.51-2.06-6.61-1.83-1.33,.14-2.41,.71-3.25,1.71-.84,.99-1.2,2.07-1.07,3.24,.09,.88,.51,1.68,1.24,2.42,1.18,1.21,4.33,3.17,9.44,5.87,5.11,2.7,8.54,5.09,10.29,7.18,1.75,2.09,2.78,4.52,3.08,7.31,.28,2.52-.08,5.07-1.08,7.63Zm34.59,1.57c-2.85,.48-5.41,.1-7.65-1.15-2.25-1.25-3.81-2.81-4.69-4.68-.51-1.04-1.17-3.96-1.99-8.78l-4.14-24.32-5.87,1-.29-1.69c3.56-3.54,6.49-7.13,8.8-10.76,2.3-3.63,4.18-7.57,5.64-11.81l1.59-.27,2.81,16.47,10.69-1.82,.81,4.77-10.69,1.82,4.74,27.78c.44,2.6,.85,4.26,1.22,4.97,.37,.71,.9,1.25,1.58,1.61,.69,.36,1.29,.5,1.81,.41,2.09-.35,3.79-2.28,5.11-5.78l1.63,.82c-1.55,6.61-5.25,10.41-11.09,11.4Zm55.41-48.9c-.75,1.42-1.86,2.3-3.31,2.65-1.68,.4-3.27,.21-4.76-.57-1.49-.78-2.37-1.21-2.62-1.29-.36-.11-.75-.12-1.16-.03-.92,.22-1.71,.78-2.37,1.67-1.04,1.38-1.66,3.16-1.85,5.31-.28,3.32,.02,6.83,.9,10.53l2.43,10.22,.68,2.65c.43,1.81,.82,2.94,1.16,3.39,.58,.76,1.3,1.26,2.13,1.47,.84,.22,2.16,.17,3.95-.16l.41,1.71-24,5.71-.41-1.71c1.89-.62,3.08-1.46,3.54-2.53,.47-1.07,.24-3.53-.68-7.4l-5.85-24.57c-.6-2.53-1.11-4.12-1.53-4.76-.53-.81-1.14-1.35-1.84-1.62-.7-.27-1.83-.3-3.39-.1l-.42-1.76,18.15-4.32,2.4,10.08c1.85-5.3,3.71-8.96,5.57-10.99,1.86-2.03,3.81-3.29,5.87-3.78,1.78-.42,3.32-.21,4.64,.63,1.33,.84,2.22,2.26,2.7,4.25,.51,2.12,.38,3.9-.37,5.31Zm63.87,16.4c-1.33,1.58-3.04,2.7-5.14,3.38-2.48,.8-4.6,.85-6.38,.14-1.77-.71-3.19-2.2-4.26-4.45-3.79,6.39-7.79,10.27-12,11.63-2.48,.8-4.8,.65-6.97-.45-2.17-1.1-3.64-2.87-4.44-5.31-1.07-3.32-.61-6.76,1.39-10.33,1.99-3.57,7.07-9.1,15.22-16.6l-1.41-4.37c-1.06-3.28-1.91-5.3-2.54-6.03-.63-.74-1.55-1.27-2.74-1.58s-2.42-.27-3.65,.13c-2.02,.65-3.53,1.64-4.54,2.96-.62,.82-.82,1.6-.58,2.34,.21,.65,.9,1.32,2.08,2,1.61,.95,2.61,2.05,3.02,3.29,.49,1.52,.34,2.99-.45,4.43-.79,1.44-2.09,2.45-3.92,3.04-1.95,.63-3.78,.57-5.48-.18-1.69-.75-2.8-1.92-3.31-3.5-.72-2.23-.53-4.65,.59-7.25,1.11-2.6,3.07-4.95,5.88-7.06,2.81-2.11,5.92-3.71,9.33-4.81,4.12-1.33,7.66-1.51,10.63-.53,2.96,.97,5.14,2.37,6.51,4.18,.85,1.16,2.03,4.08,3.55,8.76l5.45,16.87c.64,1.98,1.12,3.21,1.44,3.67,.32,.46,.68,.77,1.07,.91,.39,.15,.79,.16,1.19,.03,.81-.26,1.44-1.1,1.91-2.52l1.75,.67c-.81,2.79-1.87,4.98-3.19,6.55Zm18.03-5.64l-.65-1.64c1.85-.8,3.03-1.9,3.53-3.29,.33-.93-.1-2.9-1.29-5.9l-17.42-43.96c-1.18-2.96-2.28-4.73-3.3-5.28-1.02-.56-2.56-.5-4.61,.17l-.66-1.68,17.8-7.06,20.92,52.77c1.19,2.99,2.3,4.77,3.32,5.33,1.03,.56,2.58,.49,4.66-.19l.65,1.64-22.93,9.09Zm93.31-41.29l-3.39-6.38c-.73,3.56-1.65,6.21-2.77,7.95-1.12,1.74-2.69,3.14-4.7,4.21-5.15,2.74-10.44,2.6-15.88-.42-4.4-2.46-8.04-6.4-10.93-11.84-2.31-4.34-3.63-8.63-3.95-12.86-.33-4.23,.34-7.92,2.01-11.05,1.67-3.14,4-5.5,6.99-7.09,1.93-1.02,3.84-1.56,5.73-1.61,1.89-.05,4.18,.41,6.87,1.38l-6.46-12.17c-1.64-3.08-2.75-4.86-3.34-5.36-.79-.65-1.64-.99-2.54-1.03-.9-.03-2.31,.45-4.21,1.46l-.96-1.81,17.9-9.51,24.66,46.42c1.67,3.13,2.74,4.94,3.22,5.43,.73,.82,1.55,1.3,2.44,1.41,.89,.11,2.17-.2,3.84-.94l.76,1.42-15.27,12.37Zm56.91-37.82c-1.38,3.39-3.74,6.15-7.05,8.27-5.7,3.66-11.42,4.24-17.17,1.74-4.63-2.02-8.62-5.65-11.98-10.88-4.12-6.41-5.67-12.63-4.64-18.65,1.03-6.02,3.87-10.53,8.52-13.52,3.89-2.5,8.3-3.07,13.21-1.72,4.91,1.35,9.49,5.1,13.75,11.23l-21.09,13.55c3.52,4.94,7.47,8.1,11.83,9.47,3.35,1.06,6.35,.73,9.01-.97,1.64-1.06,2.84-2.48,3.59-4.26,.75-1.78,1.13-4.35,1.13-7.73h1.98c.65,5.59,.28,10.08-1.11,13.46Zm87.85-67.03c-1.92,3.94-4.92,7.65-9,11.15-5.37,4.6-11.06,7.6-17.07,9.02-6.01,1.42-11.87,1.08-17.59-1.02-5.71-2.09-10.52-5.42-14.42-9.97-4.11-4.8-6.75-10.43-7.93-16.88-1.17-6.46-.65-12.7,1.59-18.72,2.23-6.03,5.75-11.09,10.55-15.21,3.54-3.03,7.93-5.46,13.18-7.29,3.04-1.06,4.87-1.85,5.48-2.38,.79-.68,1.23-1.56,1.31-2.64,.08-1.08-.33-2.32-1.23-3.73l1.44-1.24,14.93,17.44-1.45,1.24c-4.99-3.62-10-5.37-15.04-5.25-5.04,.12-9.45,1.79-13.21,5-3.14,2.69-5.25,6.06-6.32,10.11-1.08,4.05-.97,8.05,.31,12.01,1.64,5.07,4.42,9.89,8.34,14.47,3.85,4.5,7.93,8.12,12.24,10.84,4.3,2.72,8.48,3.99,12.52,3.81,4.04-.18,7.99-1.92,11.86-5.23,3.16-2.71,5.48-5.89,6.92-9.53,1.45-3.64,2.18-8.41,2.2-14.29l3.72,4.34c-.3,5.36-1.41,10.01-3.33,13.94Zm46.31-43.97l-1.27-1.21c.95-1.34,1.32-2.68,1.1-4.01-.21-1.01-1.51-2.64-3.9-4.9l-14.79-14c-2.74-2.6-4.56-4.12-5.46-4.57-.9-.45-1.78-.6-2.65-.46-.88,.14-1.61,.53-2.22,1.17-.9,.95-1.44,2.17-1.64,3.69-.2,1.52,.03,3.56,.67,6.15l17.77,16.82c2.36,2.24,4.01,3.46,4.94,3.67,1.23,.31,2.6-.14,4.11-1.36l1.27,1.21-15.92,16.81-1.27-1.21c1.18-1.53,1.67-2.95,1.47-4.26-.14-.9-1.47-2.54-4.01-4.94l-33.7-31.9c-2.51-2.37-4.28-3.62-5.33-3.74-1.05-.12-2.37,.46-3.94,1.75l-1.31-1.24,12.79-13.51,19.19,18.17c-.19-3.64,.03-6.58,.68-8.85,.64-2.26,1.73-4.21,3.27-5.84,1.97-2.08,4.25-3.3,6.83-3.66,2.58-.36,4.9-.03,6.95,1,2.06,1.03,4.97,3.33,8.76,6.92l12.95,12.25c2.53,2.4,4.33,3.66,5.41,3.78,1.07,.12,2.38-.46,3.91-1.75l1.28,1.21-15.92,16.81Zm25.91-28.79l-1.35-1.12c1.24-1.6,1.73-3.13,1.5-4.59-.17-.98-1.49-2.49-3.98-4.54l-20.58-16.97c-2.48-2.05-4.31-3.07-5.48-3.06-1.17,0-2.48,.8-3.95,2.37l-1.39-1.15,12.18-14.77,27.92,23.03c2.49,2.05,4.32,3.08,5.48,3.07,1.17,0,2.49-.82,3.98-2.41l1.35,1.12-15.69,19.03Zm22.04-27.12l-1.41-1.06c1.16-1.65,1.59-3.2,1.29-4.65-.21-.97-1.6-2.42-4.18-4.36l-37.82-28.39c-2.55-1.92-4.41-2.84-5.58-2.78-1.16,.06-2.45,.91-3.84,2.55l-1.44-1.08,11.49-15.31,45.39,34.07c2.58,1.94,4.45,2.87,5.62,2.81,1.17-.06,2.46-.93,3.87-2.6l1.41,1.06-14.81,19.73Zm35.06-46.8c-3.74,5.65-8.74,8.49-15.01,8.52-5.05,.02-10.17-1.69-15.36-5.12-6.35-4.2-10.28-9.26-11.77-15.19-1.49-5.93-.71-11.2,2.34-15.81,2.55-3.86,6.35-6.15,11.39-6.9,5.04-.74,10.74,.83,17.11,4.73l-13.82,20.9c5.21,3.1,10.09,4.39,14.65,3.89,3.49-.38,6.11-1.89,7.85-4.52,1.08-1.63,1.6-3.41,1.57-5.34-.03-1.93-.72-4.44-2.08-7.53l1.81-.79c2.85,4.85,4.32,9.1,4.42,12.76,.1,3.66-.94,7.13-3.11,10.42Zm-7.31-266.02h-109.34v-57.82h120.52c-2.86,19.57-6.61,38.85-11.18,57.82Zm11.71-61.58h-56.25v-57.82h61.75c-.96,19.51-2.84,38.79-5.5,57.82Zm52.61-342.66c-1.53,1.17-4.75,2.72-9.66,4.66l-16.53,6.54c-3.27,1.29-5.19,2.39-5.76,3.3-.57,.91-.59,2.34-.06,4.3l-1.64,.65-8.5-21.48,1.64-.65c.85,1.52,1.97,2.41,3.36,2.66,.95,.18,2.92-.32,5.92-1.5l18.89-7.48c3.48-1.38,5.62-2.38,6.43-3.02,.8-.63,1.32-1.37,1.56-2.22,.24-.85,.21-1.67-.11-2.46-1.03-2.6-3.85-4.29-8.46-5.06l-22.75,9c-3.18,1.26-5.08,2.35-5.69,3.27-.62,.93-.71,2.23-.28,3.92l-1.64,.65-8.5-21.48,1.64-.65c.89,1.72,1.97,2.76,3.24,3.13,.87,.25,2.94-.27,6.21-1.56l23.98-9.49c3.21-1.27,5.09-2.36,5.65-3.26,.55-.9,.58-2.34,.08-4.31l1.68-.67,6.85,17.31-5.5,2.17c3.22,1.24,5.77,2.65,7.63,4.23,1.86,1.57,3.25,3.51,4.17,5.81,1.09,2.75,1.23,5.34,.42,7.77-.81,2.42-2.23,4.38-4.26,5.89Z" style="fill: #fff;"/>
          <path d="M869.86,1724c-1.18-.25-2.22-.14-3.12,.33-1.39,.73-2.73,2.26-4.01,4.58-1.28,2.32-2.48,6.04-3.58,11.17-1.21,5.63-1.7,9.89-1.45,12.78,.24,2.88,.95,5.08,2.13,6.61,.6,.76,1.54,1.28,2.81,1.55,2.8,.6,5.92-1.02,9.35-4.88l5.06-23.49c-1.38-5.02-3.78-7.91-7.18-8.64Z" style="fill: #fff;"/>
          <path d="M1628.86,1414.38c-1.94-.6-3.67-.68-5.17-.23-.87,.25-1.61,.85-2.24,1.79-.93,1.41-1.01,3.03-.21,4.84,1.35,3.2,4.14,6.2,8.35,8.98l1.42,.94,7.33-11.08c-4.37-2.89-7.53-4.64-9.48-5.25Z" style="fill: #fff;"/>
          <path d="M1368.81,412.2c.42,1.63,1.27,2.82,2.57,3.56,1.27,.73,2.53,.99,3.78,.77,1.65-.33,3.16-1.25,4.52-2.76,2.11-2.36,5.5-7.62,10.19-15.78,2.76-4.8,4.38-8.25,4.88-10.35,.49-2.1,.45-3.86-.12-5.28-.4-1.01-1.19-1.86-2.37-2.54-1.44-.83-2.99-.99-4.64-.5-1.66,.49-3.57,2.25-5.73,5.27-2.17,3.02-4.89,7.38-8.17,13.08-1.74,3.02-3.16,5.96-4.27,8.81-.85,2.18-1.06,4.09-.64,5.72Z" style="fill: #fff;"/>
        </g>
        <g>
          <path d="M882.45,1253.57c-.04,.07-.06,.15-.1,.22,.04-.07,.08-.14,.12-.21h-.03Z" style="fill: #fff;"/>
          <path d="M1028.65,1177.5c2-5.17,1.49-11.31,2.14-17.01-9.09,15.42-13.85,31.62-20.65,46.91-21.12,47.49-40.57,95.26-34.31,148.92,1.7,14.57,4.68,29,7.07,43.5-6.52-1.46-11.35-3.92-12.99-7.76-9.4-21.91-22.62-43.48-25.98-66.41-6.7-45.72,6.06-88.39,33.3-126.38,30.41-42.4,46.73-89.67,46.74-142.05,0-10.02-2.5-20.05-3.84-30.07-1.78,.22-3.55,.45-5.33,.67,0,9.52,.08,19.05-.02,28.57-.12,12.49,1.36,25.3-.91,37.4-7.32,39-23.44,74.6-46.35,106.91-21.19,29.89-32.92,61.86-31.7,99.41,.82,25.02,7.34,51.01-5.37,75.6-2.39,4.62,.19,11.72,.16,17.68-.02,4.56-.54,9.12-.84,13.68-43.41-51.77-28.33-109.54-18.34-166.75-2.21-.2-4.41-.4-6.62-.59-5.08,27.03-10.16,54.07-15.25,81.1-1.88-.25-3.75-.5-5.63-.75-8.42-21.64-12.59-43.53-1.59-66.29-3.21,5.32-6.43,10.64-9.64,15.96-2.41-1.44-4.82-2.88-7.23-4.31,.4-5.82-.91-12.48,1.47-17.31,14.59-29.61,29.17-59.29,45.47-87.97,11.55-20.32,25.81-39.09,38.85-58.55-1.71-1.13-3.42-2.27-5.13-3.4-24.29,36.86-48.57,73.72-72.86,110.59-1.49-.62-2.99-1.23-4.48-1.85,5.54-14.77,11.08-29.54,16.61-44.31-3.45,3.31-8.36,6.15-9.66,10.15-5.41,16.69-10.13,33.65-14.1,50.74-2.84,12.21-4.09,24.8-6.05,37.22-1.54,.03-3.08,.06-4.62,.08-1.96-4.74-4.5-9.33-5.78-14.25-9.34-35.93,.64-68.83,16.32-100.76,19.07-38.83,39.18-77.2,56.57-116.77,5.45-12.39,5.6-26.77,17.36-36.59,3.02-2.52,4.12-8.89,3.95-13.41-.49-13.42-1.91-26.81-3.28-40.18-.35-3.37-1.88-6.62-2.87-9.93-1.89,1.68-3.79,3.35-5.68,5.03,1.84,10.3,4.94,20.57,5.13,30.89,.16,8.72-2.03,17.88-5.01,26.18-3.66,10.18-9.8,19.44-13.85,29.51-5.93,14.77-9.91,30.38-16.56,44.78-17.25,37.31-35.62,74.1-53.28,111.22-3.19,6.71-5.12,14.01-7.63,21.04-1.4-.28-2.8-.57-4.2-.85v-49.48s0,0,0,0h0s0,0,0,0h0s-.27,.46-.27,.46c1.58-5.43,2.51-11.17,4.86-16.25,10.21-22.01,20.84-43.83,31.31-65.72,3.63-2.95,7.25-5.89,10.88-8.84-10.64-8.51-.05-13.33,3.89-18.14,20.01-24.36,27.56-52.56,23.64-83.03-3.04-23.57,5.7-42.55,16.81-61.61,4.32-7.4,7.96-15.19,11.91-22.81-25.81,14.36-45.9,62.78-40.34,89.87,6.25,30.42-10.67,70.39-36.16,86.83-14.17,9.14-27.15,20.27-41.85,28.38-9.53,5.26-18.35,19.84-32.27,7.42-1.06,3.84-2.11,7.63-3.61,13.07-6.5-5.47-11.49-9.66-17.58-14.77-1.42,6.78-2.46,11.76-3.82,18.27-14.29-8.6-22.67-25.72-42.77-17.18,6.84,7.76,13.24,15.02,19.64,22.29,.59-.5,1.18-.99,1.77-1.49-1.55-4.72-3.11-9.44-4.66-14.17,.98-.51,1.96-1.03,2.94-1.54,9.19,6.91,18.38,13.82,28.66,21.56,1.16-6.27,1.89-10.26,2.64-14.29,6.16,1.82,13.4,6.4,16.42,4.45,16.18-10.46,15.42,.25,15.38,11-9.92,26.21-8.83,52.64-.55,78.85,1.13,3.58,7.04,5.66,10.74,8.43,3.04-.52,6.08-1.04,9.12-1.57,1.89,3.62,3.92,7.18,5.58,10.91,16.04,36.01,31.9,72.11,48.1,108.05,2.64,5.86,7.19,10.85,9.97,16.67,5.25,10.95,11.67,21.79,14.37,33.42,6.44,27.74,20.08,44.08,41.69,46.32-1.86-16.63-7.81-33.65,4.04-51.88,15.68,21.38,22.35,47.26,49.59,56.87-5.07-28.75-9.87-55.93-14.66-83.12,1.58-.26,3.16-.52,4.75-.77,2.76,1.77,5.52,3.55,8.29,5.32-15.18-32.19,.88-60.84,9.47-89.43,7.36-24.5,19.23-47.62,28.52-71.57Z" style="fill: #fff;"/>
          <path d="M885.62,1162.1c-.07,.18-.13,.36-.2,.53,.12-.12,.26-.24,.38-.36l-.18-.18Z" style="fill: #fff;"/>
          <path d="M1207.7,1291.41c-3.05-.17-6.11-.34-9.16-.51,0-6.07-.47-12.19,.09-18.2,1.5-16.05,6.55-32.45,4.58-47.99-4.01-31.62-8.64-63.83-18.88-93.79-7.94-23.21-24.53-43.55-37.97-64.72-2.24-3.52-8.06-4.77-12.23-7.07,3.8,9.7,9.46,16.02,14.77,22.62,21.35,26.56,32.94,58.2,40.2,90.4,6.33,28.02,5.96,57.58,8.05,86.5,.21,2.88-3.11,6.02-4.79,9.04-2.7-2.1-6.19-3.68-7.97-6.39-5.14-7.85-9.6-16.15-14.33-24.27-1.52,.48-3.03,.97-4.55,1.45,12.71,34.01,43.51,63.58,29.41,104.17-53.01-15.12-98.83-74.69-101.49-134.18-1.43-31.88,2.69-63.97,2.49-95.96-.13-20.21-3.48-24.78-14.17-30.48,15.37,29.98,8.83,58.73,4.63,87.56-9.01,61.84,9.1,113.46,58.55,153.03,8.41,6.73,16.65,13.66,28.67,23.55h-19.85c12.26,1.35,24.5,3.15,36.73,3.13,4.39,0,11.82-5.4,12.66-9.42,4.48-21.44,6.98-43.29,11.01-64.84,.8-4.26,5.29-7.83,9.6-13.84-2.09-4.63-5.99-13.31-10.66-23.68-1.97,19.62-3.68,36.75-5.4,53.88Z" style="fill: #fff;"/>
          <path d="M696.42,1027.19c3.38-8.38,8.19-16.23,12.82-24.05,6.78-11.46,15.9-13.66,28.2-7.83,9.8,4.65,20.51,7.4,32.43,11.55-4.61-7.41-7.47-12.02-10.34-16.63,1.18-1.24,2.37-2.48,3.55-3.72,15.84,3.16,31.68,6.33,51.25,10.24,6.22-5.18,23.18-12.25,25.94-22.98,6.81-26.47,12.63-55.01-6.4-80.66-2.53-3.41-1.22-9.66-1.69-14.6,1.14-.06,2.29-.12,3.43-.18-5.96-9.87-11.91-19.73-17.27-28.6-6.73,1.81-12.96,3.48-19.18,5.15,20.88,39.71,26.52,80.09,3.37,120.82-2.62,4.61-11.06,8.93-16.32,8.42-11.67-1.12-23.04-5.4-35.62-8.67,1.31,6.73,2.3,11.81,4.15,21.32-15.3-5.91-24.28-24.09-37.41-29.16-6.11,12.53-18.16,42.15-25.39,58.99-8.3,19.36-1.5,35.87,13.87,52.13,3.76-7.13,7.12-13.49,11.39-21.6-16.88,.24-26.39-16.09-20.79-29.96Z" style="fill: #fff;"/>
          <path d="M798.58,855.05c.19-.05,.39-.11,.59-.16-.06-.11-.11-.22-.16-.33l-.42,.48Z" style="fill: #fff;"/>
          <path d="M1131.61,1348.54c4.88,13.01,1.88,16.92-12.57,17.52-21.45,.9-37.84-9.78-45.17-27.89-9.28-22.92-15.96-47.54-19.41-72.03-5.19-36.83,4.46-72.75,13.46-108.33,8.65-34.22,9.13-68.18-4.72-101.23-2.32-5.54-7.77-9.76-11.78-14.59-1.41,1.1-2.82,2.2-4.23,3.3,17.68,24.5,22.88,52.37,19.26,81.13-2.72,21.61-10.46,42.55-14.27,64.08-7.36,41.6-10.21,83.52,1.88,124.72,4.23,14.41,12.18,27.72,19.18,43.17-13,.84-25.13,1.61-37.2,2.39,14.17,.39,28.35,.63,42.49,1.41,4.34,.24,8.87,1.71,12.83,3.62,17.21,8.3,33.84,5.76,51.53-.9-2.74-6.41-4.92-11.52-7.42-17.38,5.02-.68,8.96-1.21,12.8-1.71-7.04-3.45-14.12-6.96-23.39-11.54,3.14,6.6,5.25,10.3,6.72,14.24Z" style="fill: #fff;"/>
          <path d="M1148.27,1345.84c.23,.11,.47,.23,.7,.34,0,0,.02-.02,.03-.03h4.76c-1.43-.16-2.85-.33-4.28-.47-.4,.05-.81,.11-1.21,.16Z" style="fill: #fff;"/>
          <path d="M1293.55,1044.51c-4.15,2.16-8.35,4.34-8.57,4.46,7.45,24.49,14.47,47.57,21.67,71.25-19.46,3.9-28.51-3.95-34.21-18.22-5.74-14.37-10.71-29.34-18.58-42.52-23.94-40.06-64.42-52.94-106.8-61.56-3.44-.7-7.76,2.94-11.68,4.57,.28,1.18,.56,2.35,.83,3.53,2.4,.38,4.79,1.06,7.19,1.1,46.26,.64,80.74,22.42,105.88,59.94,19.46,29.04,25.52,62.09,26.5,96.41,.2,6.94,1.15,13.86,1.75,20.78,1.94-.18,3.88-.35,5.82-.53-1.97-20.01-3.94-40.01-6.05-61.45,12.4,2.51,24.16,4.88,36.29,7.34-7.04-29.86-13.46-57.12-20.05-85.08Z" style="fill: #fff;"/>
          <path d="M903.38,812.09c-1.12,.89-2.23,1.78-3.35,2.67,2.26,2.17,4.19,4.97,6.85,6.4,7.49,4.02,15.75,6.74,22.86,11.29,22.51,14.39,27.43,57.26,20.36,79.77-1.84,5.86-.28,12.79-.28,19.23,2.58,.49,5.16,.97,7.75,1.46,2.79-8.46,3.43-18.84,8.87-24.95,8.33-9.34,8.45-17.99,5.4-28.55-1.61-5.57-2.6-11.41-3.08-17.19-2.63-31.99-15.71-46.33-43.29-47.55-7.39-.33-14.73-1.69-22.1-2.58Z" style="fill: #fff;"/>
          <path d="M1200.67,1075.73c-1.41,.94-2.83,1.88-4.24,2.82,4.28,5.38,8.27,11.02,12.88,16.1,25.84,28.47,41.59,60.96,40.3,100.26-.89,26.99-1.88,53.99-3.37,80.95-.17,3.11-3.9,6.02-7.26,10.87,3.61,4.07,8.81,9.93,14,15.79,.28-40.69-4.81-80.39,7.11-121.66-7.62-39.51-24.44-77.68-59.42-105.13Z" style="fill: #fff;"/>
          <path d="M882.45,1253.57s.03,.02,.03,.02c0-.02,0-.04,0-.06,0,.02-.01,.03-.02,.05Z" style="fill: #fff;"/>
          <path d="M932.4,1196.49c36.87-38.66,49.83-87.81,58.85-138.34,1.15-6.43-2.32-13.69-3.65-20.57-6.65,22.08-8.5,43.5-13.88,64-11.56,44.06-33.29,82.03-69.44,111.5-11.89,9.69-24.13,21.85-21.82,40.44,3.26-6.07,5.45-13.17,10.03-18,12.8-13.49,27.07-25.58,39.91-39.04Z" style="fill: #fff;"/>
          <path d="M849.74,751.86c7.75,3.7,15.32,8,23.42,10.66,21.75,7.14,40.35,25.82,67.05,18.08-10.02-2.06-18.78-2.56-26.45-5.7-15.34-6.28-30.66-13.02-44.95-21.35-27.17-15.84-58.54-14.97-87.57-23.23-4.55-1.3-11.87,3.36-16.47,7.05-4.55,3.65-7.28,9.57-12.42,16.74,10.11-2.19,18.69-2.26,25.4-5.82,25.02-13.29,48.49-7.64,71.99,3.57Z" style="fill: #fff;"/>
          <path d="M798.6,855.02s.4-.45,.4-.45c-.37-.13-.74-.26-1.11-.39,.24,.28,.48,.56,.71,.84Z" style="fill: #fff;"/>
          <path d="M786.37,825.85c-6.39-2.09-12.66-4.69-19.18-6.15-15.33-3.42-21.04-13.51-19.87-28.1,.59-7.31,3.07-14.47,3.65-21.78,.25-3.13-2.15-6.47-3.34-9.72-17.41,5.34-20.25,11.71-16.98,38.18-2.91,15.06,13.1,12.49,18.43,19.84,1.66,2.3,2.74,5.02,4.09,7.54-2.51-.17-5.03-.49-7.52-.38-.53,.02-.98,1.66-1.65,2.9,2.96,2.39,5.94,4.78,7.5,6.05,4.34-3.33,8.2-8.25,12.87-9.22,3.43-.71,11.57,4.13,11.4,5.88-1.71,17.22,10.96,19.38,22.12,23.28-5.85-6.96-11.73-13.89-17.89-21.16,2.28-2.56,4.33-4.86,6.38-7.16Z" style="fill: #fff;"/>
          <path d="M1083.35,926.74c9.01-.68,23.29,1.67,24.86,18.61,11.76-3.18,15.13-8.54,5.24-16.22-5.68-4.41-12.73-8.87-19.55-9.6-14.75-1.57-29.78-.25-44.65-1.01-22.46-1.14-22.45-1.47-20.32,22.67,12.68-28.55,36-13.05,54.43-14.44Z" style="fill: #fff;"/>
          <path d="M1082.26,978.03c28.95,6.43,37.21,2.39,45.64-26.61-11.4,24.79-31.18,21.04-51.13,16.67-3.12-.68-6.18-1.7-9.33-2.12-15.63-2.06-31.16-3.26-44.91,8.29,20.96-11.06,40.23-.56,59.72,3.77Z" style="fill: #fff;"/>
          <path d="M1032.68,1360.99c-4.85-6.85-9.73-13.68-14.6-20.51-1.32,.74-2.63,1.48-3.95,2.22,5.2,13.98,10.4,27.97,15.6,41.95-.95,.5-1.89,1-2.84,1.5-6.68-6.31-13.36-12.61-20.05-18.92,10.42,13.8,17.71,32.17,42.65,30.91-7.34-10.41-13.63-18.38-18.64-27.08-1.28-2.22,1.17-6.6,2.06-10.07,1.04-.07,2.09-.13,3.13-.2-1.02-.03-2.03-.05-3.05-.08,0,0-.33,.3-.31,.28Z" style="fill: #fff;"/>
          <path d="M996.49,808.02c-7.28,1.11-13.78,4.11-17.18,2.03-3.14-1.92-2.94-9.28-4.03-13.55h-31.09c-.36,1.91-.72,3.82-1.09,5.74,20.11,7.2,40.22,14.39,62.48,22.36-4.24-7.74-7.26-13.24-9.09-16.58Z" style="fill: #fff;"/>
          <path d="M930.51,1070.85c-1.36-.54-2.73-1.08-4.09-1.62-1.04,1.5-2.3,2.89-3.09,4.52-12.1,24.93-24.32,49.81-36,74.94-1.73,3.72-1.18,8.49-1.5,12.87,12.99-24.35,26.19-48.56,38.9-73.02,2.82-5.43,3.9-11.77,5.77-17.69Z" style="fill: #fff;"/>
          <path d="M885.57,1162.04c.04,.05,.22,.23,.22,.23,.02-.23,.02-.48,.04-.71-.09,.16-.17,.32-.26,.48Z" style="fill: #fff;"/>
          <path d="M1118.58,1152.97c.75,31.98,11.8,63.62,31.12,88.14-10.07-28.52-21.12-59.82-31.12-88.14Z" style="fill: #fff;"/>
          <g>
            <path d="M754.64,808.46c-8.68-9.57-19.35-17.22-19.06,3.45,.48,34.72,14.6,50.96,14.6,50.96-.24-13.79,1.83-22.92,4.52-28.96,3.55,23.84,13.33,35.17,13.33,35.17-.65-36.97,15.33-40.53,15.33-40.53,0,0-23.12-34.31-28.72-20.09Z" style="fill: #fff;"/>
            <path d="M752.35,951.42s-12.08,6.78-14.66,22.28c-2.58,15.49,5.55,24.12,5.55,24.12l14.03-3.14s-12.16-26.69-4.92-43.25Z" style="fill: #fff;"/>
            <path d="M732,945.34s-12.08,6.78-14.66,22.28c-2.58,15.49,5.55,24.12,5.55,24.12l14.03-3.14s-12.16-26.69-4.92-43.25Z" style="fill: #fff;"/>
          </g>
          <g>
            <line x1="672.81" y1="775.2" x2="735.9" y2="770.38" style="fill: #fff;"/>
            <line x1="686.04" y1="802.21" x2="732.98" y2="782.45" style="fill: #fff;"/>
            <line x1="774.3" y1="782.45" x2="846.76" y2="798.76" style="fill: #fff;"/>
            <line x1="763.68" y1="787.53" x2="843.17" y2="830.84" style="fill: #fff;"/>
          </g>
        </g>
      </g>
    </g>
  </g>
</svg>