<?xml version="1.0" encoding="UTF-8"?>
<svg id="Layer_2" data-name="Layer 2" xmlns="http://www.w3.org/2000/svg" xmlns:xlink="http://www.w3.org/1999/xlink" viewBox="0 0 5762.5 2049.88">
  <defs>
    <clipPath id="clippath">
      <path d="M996.86,934.47l-267.51-66.58c-4.84-1.2-9.28-.59-12.81,1.41-4.82,2.73-102.13,57.55-105.71,59.72-4.61,2.79-7.55,8.03-7.55,14.71v315.72c0,11.86,9.28,23.79,20.72,26.64l267.51,66.58c4.92,1.22,9.43,.57,12.98-1.51,4.72-2.76,101.97-57.45,105.55-59.63,4.61-2.79,7.54-8.03,7.54-14.7v-315.72c0-11.86-9.28-23.79-20.72-26.64Z" style="fill: none;"/>
    </clipPath>
    <clipPath id="clippath-1">
      <path d="M1050.32,934.47l267.51-66.58c4.84-1.2,9.28-.59,12.81,1.41,4.82,2.73,102.13,57.55,105.71,59.72,4.61,2.79,7.55,8.03,7.55,14.71v315.72c0,11.86-9.28,23.79-20.72,26.64l-267.51,66.58c-4.92,1.22-9.43,.57-12.98-1.51-4.72-2.76-101.97-57.45-105.55-59.63-4.61-2.79-7.54-8.03-7.54-14.7v-315.72c0-11.86,9.28-23.79,20.72-26.64Z" style="fill: none;"/>
    </clipPath>
    <clipPath id="clippath-2">
      <rect x="823.04" y="601.95" width="400.91" height="360.66" rx="17.81" ry="17.81" style="fill: none;"/>
    </clipPath>
    <linearGradient id="Degradado_sin_nombre_54" data-name="Degradado sin nombre 54" x1="813.18" y1="891.59" x2="900.78" y2="891.59" gradientUnits="userSpaceOnUse">
      <stop offset="0" stop-color="#161412" stop-opacity=".1"/>
      <stop offset=".08" stop-color="#2a2e31" stop-opacity=".29"/>
      <stop offset=".19" stop-color="#414d55" stop-opacity=".51"/>
      <stop offset=".3" stop-color="#546673" stop-opacity=".68"/>
      <stop offset=".41" stop-color="#637a8a" stop-opacity=".82"/>
      <stop offset=".53" stop-color="#6e889b" stop-opacity=".92"/>
      <stop offset=".65" stop-color="#7490a4" stop-opacity=".98"/>
      <stop offset=".79" stop-color="#7793a8"/>
    </linearGradient>
    <linearGradient id="Degradado_sin_nombre_64" data-name="Degradado sin nombre 64" x1="1174.12" y1="913.88" x2="1260.65" y2="913.88" gradientUnits="userSpaceOnUse">
      <stop offset=".07" stop-color="#7793a8"/>
      <stop offset=".16" stop-color="#7d98ac" stop-opacity=".96"/>
      <stop offset=".3" stop-color="#8fa6b7" stop-opacity=".84"/>
      <stop offset=".46" stop-color="#acbdca" stop-opacity=".64"/>
      <stop offset=".64" stop-color="#d5dde4" stop-opacity=".38"/>
      <stop offset=".8" stop-color="#fff" stop-opacity=".1"/>
    </linearGradient>
  </defs>
  <g id="Logo-CentroDocenciaCienciasBasicasIngenieria">
    <g id="Logo-CentroDocenciaCienciasBasicasIngenieria-Horizontal-Color-TextoNegro">
      <g>
        <g>
          <path d="M2325.58,643.83c-10.9,5.25-36.73,11.71-69.42,11.71-94.05,0-142.48-58.93-142.48-136.43,0-92.83,66.19-144.09,148.53-144.09,31.89,0,56.1,6.05,67,12.11l-12.92,48.43c-12.11-5.25-29.46-10.09-51.66-10.09-48.44,0-86.38,29.46-86.38,90.01,0,54.49,32.29,88.8,86.78,88.8,18.97,0,39.15-3.63,51.66-8.88l8.88,48.43Z"/>
          <path d="M2404.28,571.98c1.62,25.43,27.04,37.54,55.7,37.54,20.99,0,37.94-2.83,54.49-8.48l8.07,41.57c-20.18,8.48-44.8,12.51-71.44,12.51-67,0-105.35-38.75-105.35-100.5,0-50.05,31.08-105.35,99.7-105.35,63.77,0,87.99,49.65,87.99,98.48,0,10.49-1.21,19.78-2.02,24.22h-127.14Zm72.25-41.98c0-14.93-6.46-39.96-34.71-39.96-25.83,0-36.33,23.81-37.94,39.96h72.65Z"/>
          <path d="M2570.16,516.68c0-24.62-.81-45.21-1.61-62.97h53.28l2.83,27.45h1.21c8.07-12.92,27.85-31.89,60.95-31.89,40.36,0,70.63,27.04,70.63,85.16v116.65h-61.35v-109.38c0-25.43-8.88-42.78-31.08-42.78-16.95,0-27.04,11.71-31.48,23.01-1.62,4.04-2.02,9.69-2.02,15.34v113.82h-61.35v-134.41Z"/>
          <path d="M2873.28,400.44v53.28h43.99v45.21h-43.99v71.44c0,23.81,6.05,34.71,24.22,34.71,8.48,0,12.51-.4,18.16-1.61l.4,46.42c-7.67,2.83-22.6,5.25-39.55,5.25-19.78,0-36.33-6.86-46.42-16.95-11.3-11.71-16.95-30.68-16.95-58.53v-80.72h-26.23v-45.21h26.23v-36.73l60.14-16.55Z"/>
          <path d="M2952.79,518.7c0-29.06-.4-48.03-1.61-64.98h52.47l2.42,36.33h1.62c10.09-29.06,33.9-41.17,53.28-41.17,5.65,0,8.47,.4,12.91,1.21v57.72c-4.84-.81-9.69-1.61-16.55-1.61-22.6,0-37.94,12.11-41.98,31.08-.81,4.04-1.21,8.88-1.21,13.72v100.1h-61.35v-132.39Z"/>
          <path d="M3298.28,550.18c0,72.25-51.26,105.35-104.14,105.35-57.72,0-102.12-37.94-102.12-101.71s41.98-104.94,105.75-104.94c60.14,0,100.5,41.57,100.5,101.31Zm-142.88,2.02c0,33.9,14.13,59.33,40.36,59.33,24.22,0,39.15-23.81,39.15-59.74,0-29.06-11.3-58.93-39.15-58.93s-40.36,30.27-40.36,59.33Z"/>
          <path d="M3609.06,364.52v227.64c0,22.2,.81,45.61,1.62,58.93h-54.49l-2.42-28.66h-1.21c-12.11,21.8-36.33,33.1-61.76,33.1-46.82,0-84.36-39.96-84.36-101.31-.41-66.6,41.17-105.35,88.39-105.35,24.62,0,43.19,8.88,52.07,22.2h.81v-106.56h61.35Zm-61.35,172.75c0-3.23,0-7.67-.81-11.3-3.63-16.14-16.95-29.87-35.92-29.87-28.25,0-42.38,25.02-42.38,56.1,0,33.5,16.55,54.49,41.98,54.49,17.76,0,32.29-12.11,35.92-29.46,.81-4.44,1.21-9.28,1.21-14.13v-25.83Z"/>
          <path d="M3705.52,571.98c1.62,25.43,27.04,37.54,55.7,37.54,20.99,0,37.94-2.83,54.49-8.48l8.07,41.57c-20.18,8.48-44.8,12.51-71.44,12.51-67,0-105.35-38.75-105.35-100.5,0-50.05,31.08-105.35,99.7-105.35,63.77,0,87.99,49.65,87.99,98.48,0,10.49-1.21,19.78-2.02,24.22h-127.14Zm72.25-41.98c0-14.93-6.46-39.96-34.71-39.96-25.83,0-36.33,23.81-37.94,39.96h72.65Z"/>
          <path d="M3954.95,383.08c22.6-3.63,52.07-6.05,82.74-6.05,52.07,0,85.97,9.69,111.8,29.06,28.25,20.99,46.01,54.49,46.01,102.52,0,52.07-18.97,87.99-44.8,110.19-28.66,23.81-72.65,35.12-125.93,35.12-31.88,0-54.89-2.02-69.83-4.04V383.08Zm61.35,221.59c5.25,1.21,14.13,1.21,21.39,1.21,56.1,.4,92.83-30.27,92.83-95.26,0-56.51-33.1-86.38-86.38-86.38-13.32,0-22.6,1.21-27.85,2.42v178Z"/>
          <path d="M4428.8,550.18c0,72.25-51.26,105.35-104.13,105.35-57.72,0-102.12-37.94-102.12-101.71s41.98-104.94,105.75-104.94c60.14,0,100.5,41.57,100.5,101.31Zm-142.88,2.02c0,33.9,14.13,59.33,40.36,59.33,24.22,0,39.15-23.81,39.15-59.74,0-29.06-11.3-58.93-39.15-58.93s-40.36,30.27-40.36,59.33Z"/>
          <path d="M4616.07,645.84c-10.9,5.25-31.48,9.28-54.89,9.28-63.77,0-104.54-39.15-104.54-100.91,0-57.72,39.55-104.94,113.02-104.94,16.14,0,33.9,2.83,46.82,7.67l-9.68,45.61c-7.27-3.23-18.16-6.05-34.31-6.05-32.29,0-53.28,23.01-52.87,55.3,0,35.92,24.22,55.3,54.08,55.3,14.53,0,25.83-2.42,35.12-6.46l7.26,45.21Z"/>
          <path d="M4693.16,571.98c1.61,25.43,27.04,37.54,55.7,37.54,20.99,0,37.94-2.83,54.49-8.48l8.07,41.57c-20.18,8.48-44.8,12.51-71.44,12.51-67,0-105.35-38.75-105.35-100.5,0-50.05,31.08-105.35,99.7-105.35,63.77,0,87.99,49.65,87.99,98.48,0,10.49-1.21,19.78-2.02,24.22h-127.14Zm72.25-41.98c0-14.93-6.46-39.96-34.71-39.96-25.83,0-36.33,23.81-37.94,39.96h72.65Z"/>
          <path d="M4859.04,516.68c0-24.62-.81-45.21-1.62-62.97h53.28l2.82,27.45h1.21c8.07-12.92,27.85-31.89,60.95-31.89,40.36,0,70.63,27.04,70.63,85.16v116.65h-61.35v-109.38c0-25.43-8.88-42.78-31.08-42.78-16.95,0-27.04,11.71-31.48,23.01-1.62,4.04-2.02,9.69-2.02,15.34v113.82h-61.35v-134.41Z"/>
          <path d="M5243.69,645.84c-10.9,5.25-31.48,9.28-54.89,9.28-63.77,0-104.54-39.15-104.54-100.91,0-57.72,39.55-104.94,113.02-104.94,16.14,0,33.9,2.83,46.82,7.67l-9.68,45.61c-7.27-3.23-18.16-6.05-34.31-6.05-32.29,0-53.28,23.01-52.87,55.3,0,35.92,24.22,55.3,54.08,55.3,14.53,0,25.83-2.42,35.12-6.46l7.26,45.21Z"/>
          <path d="M5340.95,398.83c0,16.95-12.51,30.68-33.1,30.68-19.37,0-31.89-13.72-31.89-30.68s12.91-30.68,32.69-30.68,31.88,13.32,32.29,30.68Zm-63.37,252.27v-197.37h61.35v197.37h-61.35Z"/>
          <path d="M5552.45,603.46c0,18.57,.81,36.73,3.23,47.63h-55.3l-3.63-19.78h-1.21c-12.91,15.74-33.1,24.22-56.51,24.22-39.96,0-63.77-29.06-63.77-60.54,0-51.26,46.01-75.48,115.84-75.48v-2.42c0-10.9-5.65-25.83-35.92-25.83-20.18,0-41.57,6.86-54.49,14.93l-11.3-39.56c13.72-7.67,40.77-17.76,76.69-17.76,65.79,0,86.38,38.75,86.38,85.57v69.02Zm-59.33-45.61c-32.29,0-57.31,7.67-57.31,31.08,0,15.74,10.49,23.41,24.22,23.41,14.93,0,27.85-10.09,31.89-22.6,.81-3.23,1.21-6.86,1.21-10.49v-21.39Z"/>
        </g>
        <g>
          <path d="M2315.49,848.86v227.64c0,22.2,.81,45.61,1.61,58.93h-54.49l-2.42-28.66h-1.21c-12.11,21.8-36.33,33.1-61.75,33.1-46.82,0-84.36-39.96-84.36-101.31-.4-66.6,41.17-105.35,88.39-105.35,24.62,0,43.19,8.88,52.07,22.2h.81v-106.56h61.35Zm-61.35,172.75c0-3.23,0-7.67-.81-11.3-3.63-16.14-16.95-29.87-35.92-29.87-28.25,0-42.38,25.02-42.38,56.1,0,33.5,16.55,54.49,41.98,54.49,17.76,0,32.29-12.11,35.92-29.46,.81-4.44,1.21-9.28,1.21-14.13v-25.83Z"/>
          <path d="M2410.74,1056.32c1.62,25.43,27.04,37.54,55.7,37.54,20.99,0,37.94-2.83,54.49-8.48l8.07,41.57c-20.18,8.48-44.8,12.51-71.44,12.51-67,0-105.35-38.75-105.35-100.5,0-50.05,31.08-105.35,99.7-105.35,63.77,0,87.99,49.65,87.99,98.48,0,10.49-1.21,19.78-2.02,24.22h-127.14Zm72.25-41.98c0-14.93-6.46-39.96-34.71-39.96-25.83,0-36.33,23.81-37.94,39.96h72.65Z"/>
          <path d="M2857.14,1128.17c-10.9,5.25-36.73,11.71-69.42,11.71-94.05,0-142.48-58.93-142.48-136.43,0-92.83,66.19-144.09,148.53-144.09,31.89,0,56.1,6.05,67,12.11l-12.92,48.43c-12.11-5.25-29.46-10.09-51.66-10.09-48.43,0-86.38,29.46-86.38,90.01,0,54.49,32.29,88.8,86.78,88.8,18.97,0,39.15-3.63,51.66-8.88l8.88,48.43Z"/>
          <path d="M2958.04,883.17c0,16.95-12.51,30.68-33.1,30.68-19.37,0-31.88-13.72-31.88-30.68s12.91-30.68,32.69-30.68,31.89,13.32,32.29,30.68Zm-63.37,252.27v-197.37h61.35v197.37h-61.35Z"/>
          <path d="M3052.48,1056.32c1.62,25.43,27.04,37.54,55.7,37.54,20.99,0,37.94-2.83,54.49-8.48l8.07,41.57c-20.18,8.48-44.8,12.51-71.44,12.51-67,0-105.35-38.75-105.35-100.5,0-50.05,31.08-105.35,99.7-105.35,63.77,0,87.99,49.65,87.99,98.48,0,10.49-1.21,19.78-2.02,24.22h-127.14Zm72.25-41.98c0-14.93-6.46-39.96-34.71-39.96-25.83,0-36.33,23.81-37.94,39.96h72.65Z"/>
          <path d="M3218.36,1001.03c0-24.62-.81-45.21-1.61-62.97h53.28l2.83,27.45h1.21c8.07-12.92,27.85-31.89,60.95-31.89,40.36,0,70.64,27.04,70.64,85.16v116.65h-61.35v-109.38c0-25.43-8.88-42.78-31.08-42.78-16.95,0-27.04,11.71-31.48,23.01-1.62,4.04-2.02,9.69-2.02,15.34v113.82h-61.35v-134.41Z"/>
          <path d="M3603.01,1130.19c-10.9,5.25-31.48,9.28-54.89,9.28-63.77,0-104.54-39.15-104.54-100.91,0-57.72,39.56-104.94,113.02-104.94,16.14,0,33.9,2.83,46.82,7.67l-9.69,45.61c-7.26-3.23-18.16-6.05-34.31-6.05-32.29,0-53.28,23.01-52.87,55.3,0,35.92,24.22,55.3,54.09,55.3,14.53,0,25.83-2.42,35.11-6.46l7.26,45.21Z"/>
          <path d="M3700.27,883.17c0,16.95-12.51,30.68-33.1,30.68-19.37,0-31.89-13.72-31.89-30.68s12.92-30.68,32.69-30.68,31.89,13.32,32.29,30.68Zm-63.37,252.27v-197.37h61.35v197.37h-61.35Z"/>
          <path d="M3911.77,1087.81c0,18.57,.81,36.73,3.23,47.63h-55.3l-3.63-19.78h-1.21c-12.92,15.74-33.1,24.22-56.51,24.22-39.96,0-63.77-29.06-63.77-60.54,0-51.26,46.01-75.48,115.84-75.48v-2.42c0-10.9-5.65-25.83-35.92-25.83-20.18,0-41.57,6.86-54.49,14.93l-11.3-39.56c13.72-7.67,40.77-17.76,76.69-17.76,65.79,0,86.38,38.75,86.38,85.57v69.02Zm-59.33-45.61c-32.29,0-57.31,7.67-57.31,31.08,0,15.74,10.49,23.41,24.22,23.41,14.93,0,27.85-10.09,31.89-22.6,.81-3.23,1.21-6.86,1.21-10.49v-21.39Z"/>
          <path d="M3960.19,1082.16c11.3,6.86,34.71,14.53,52.88,14.53s26.23-6.05,26.23-16.14-6.05-15.34-28.66-23.01c-41.17-13.72-56.91-35.92-56.51-59.33,0-37.13,31.48-64.98,80.32-64.98,23,0,43.19,5.65,55.3,11.71l-10.49,42.38c-8.88-4.84-26.24-11.3-42.78-11.3-14.93,0-23.41,6.05-23.41,15.74s7.67,14.53,31.88,23.01c37.54,12.92,52.88,32.29,53.28,60.95,0,37.13-28.66,64.18-85.16,64.18-25.83,0-48.84-6.05-63.77-14.13l10.9-43.59Z"/>
          <path d="M4219.31,867.03c16.14-2.83,48.43-5.65,79.51-5.65,37.54,0,60.54,3.63,80.73,15.34,18.97,10.09,32.29,28.66,32.29,53.68s-14.13,46.01-44.8,57.72v.81c31.08,8.07,54.08,31.89,54.08,66.6,0,25.02-11.3,44.4-28.25,58.12-19.78,15.74-52.88,24.62-106.96,24.62-30.27,0-52.88-2.02-66.6-4.04v-267.2Zm60.95,104.13h20.18c32.69,0,49.65-13.32,49.65-33.5s-15.74-31.48-43.59-31.48c-13.72,0-21.39,.81-26.24,1.61v63.37Zm0,120.68c6.05,.81,13.32,.81,23.81,.81,27.85,0,52.47-10.9,52.47-39.56,0-27.04-24.62-37.94-55.3-37.94h-20.99v76.69Z"/>
          <path d="M4626.15,1087.81c0,18.57,.81,36.73,3.23,47.63h-55.3l-3.63-19.78h-1.21c-12.91,15.74-33.1,24.22-56.51,24.22-39.96,0-63.77-29.06-63.77-60.54,0-51.26,46.01-75.48,115.84-75.48v-2.42c0-10.9-5.65-25.83-35.92-25.83-20.18,0-41.57,6.86-54.49,14.93l-11.3-39.56c13.72-7.67,40.77-17.76,76.69-17.76,65.79,0,86.38,38.75,86.38,85.57v69.02Zm-59.33-45.61c-32.29,0-57.31,7.67-57.31,31.08,0,15.74,10.49,23.41,24.22,23.41,14.93,0,27.85-10.09,31.89-22.6,.81-3.23,1.21-6.86,1.21-10.49v-21.39Zm40.36-190.11l-49.24,61.35h-41.98l34.71-61.35h56.51Z"/>
          <path d="M4674.58,1082.16c11.3,6.86,34.71,14.53,52.88,14.53s26.23-6.05,26.23-16.14-6.05-15.34-28.66-23.01c-41.17-13.72-56.91-35.92-56.51-59.33,0-37.13,31.48-64.98,80.32-64.98,23,0,43.19,5.65,55.3,11.71l-10.49,42.38c-8.88-4.84-26.24-11.3-42.78-11.3-14.93,0-23.41,6.05-23.41,15.74s7.67,14.53,31.88,23.01c37.54,12.92,52.88,32.29,53.28,60.95,0,37.13-28.66,64.18-85.16,64.18-25.83,0-48.84-6.05-63.77-14.13l10.9-43.59Z"/>
          <path d="M4913.52,883.17c0,16.95-12.51,30.68-33.1,30.68-19.37,0-31.89-13.72-31.89-30.68s12.91-30.68,32.69-30.68,31.88,13.32,32.29,30.68Zm-63.37,252.27v-197.37h61.35v197.37h-61.35Z"/>
          <path d="M5108.87,1130.19c-10.9,5.25-31.48,9.28-54.89,9.28-63.77,0-104.54-39.15-104.54-100.91,0-57.72,39.55-104.94,113.02-104.94,16.14,0,33.9,2.83,46.82,7.67l-9.68,45.61c-7.27-3.23-18.16-6.05-34.31-6.05-32.29,0-53.28,23.01-52.87,55.3,0,35.92,24.22,55.3,54.08,55.3,14.53,0,25.83-2.42,35.12-6.46l7.26,45.21Z"/>
          <path d="M5308.65,1087.81c0,18.57,.81,36.73,3.23,47.63h-55.3l-3.63-19.78h-1.21c-12.91,15.74-33.1,24.22-56.51,24.22-39.96,0-63.77-29.06-63.77-60.54,0-51.26,46.01-75.48,115.84-75.48v-2.42c0-10.9-5.65-25.83-35.92-25.83-20.18,0-41.57,6.86-54.49,14.93l-11.3-39.56c13.72-7.67,40.77-17.76,76.69-17.76,65.79,0,86.38,38.75,86.38,85.57v69.02Zm-59.33-45.61c-32.29,0-57.31,7.67-57.31,31.08,0,15.74,10.49,23.41,24.22,23.41,14.93,0,27.85-10.09,31.89-22.6,.81-3.23,1.21-6.86,1.21-10.49v-21.39Z"/>
          <path d="M5357.08,1082.16c11.3,6.86,34.71,14.53,52.88,14.53s26.23-6.05,26.23-16.14-6.05-15.34-28.66-23.01c-41.17-13.72-56.91-35.92-56.51-59.33,0-37.13,31.48-64.98,80.32-64.98,23,0,43.19,5.65,55.3,11.71l-10.49,42.38c-8.88-4.84-26.24-11.3-42.78-11.3-14.93,0-23.41,6.05-23.41,15.74s7.67,14.53,31.88,23.01c37.54,12.92,52.88,32.29,53.28,60.95,0,37.13-28.66,64.18-85.16,64.18-25.83,0-48.84-6.05-63.77-14.13l10.9-43.59Z"/>
        </g>
        <g>
          <path d="M2124.18,1488.6c0-25.83-.81-47.63-1.61-66.19h53.28l2.83,27.45h.81c14.53-20.58,37.13-31.89,65.79-31.89,43.19,0,81.94,37.54,81.94,100.5,0,71.85-45.61,105.75-89.6,105.75-23.81,0-42.38-9.69-51.26-22.6h-.81v98.08h-61.35v-211.1Zm61.35,46.42c0,4.84,.4,8.88,1.21,12.92,4.04,16.55,18.16,29.06,35.92,29.06,26.64,0,42.38-22.2,42.38-55.7,0-31.48-14.13-55.3-41.57-55.3-17.36,0-32.69,12.92-36.73,31.08-.81,3.23-1.21,7.27-1.21,10.9v27.04Z"/>
          <path d="M2529.81,1572.15c0,18.57,.81,36.73,3.23,47.63h-55.3l-3.63-19.78h-1.21c-12.92,15.74-33.1,24.22-56.51,24.22-39.96,0-63.77-29.06-63.77-60.54,0-51.26,46.01-75.48,115.84-75.48v-2.42c0-10.9-5.65-25.83-35.92-25.83-20.18,0-41.57,6.86-54.49,14.93l-11.3-39.56c13.72-7.67,40.77-17.76,76.69-17.76,65.79,0,86.38,38.75,86.38,85.57v69.02Zm-59.33-45.61c-32.29,0-57.32,7.67-57.32,31.08,0,15.74,10.49,23.41,24.22,23.41,14.93,0,27.85-10.09,31.89-22.6,.81-3.23,1.21-6.86,1.21-10.49v-21.39Z"/>
          <path d="M2578.64,1487.39c0-29.06-.4-48.03-1.61-64.98h52.47l2.42,36.33h1.62c10.09-29.06,33.9-41.17,53.28-41.17,5.65,0,8.48,.4,12.92,1.21v57.72c-4.84-.81-9.69-1.61-16.55-1.61-22.6,0-37.94,12.11-41.98,31.08-.81,4.04-1.21,8.88-1.21,13.72v100.1h-61.35v-132.39Z"/>
          <path d="M2892.25,1572.15c0,18.57,.81,36.73,3.23,47.63h-55.3l-3.63-19.78h-1.21c-12.91,15.74-33.1,24.22-56.51,24.22-39.96,0-63.77-29.06-63.77-60.54,0-51.26,46.01-75.48,115.84-75.48v-2.42c0-10.9-5.65-25.83-35.92-25.83-20.18,0-41.57,6.86-54.49,14.93l-11.3-39.56c13.72-7.67,40.77-17.76,76.69-17.76,65.79,0,86.38,38.75,86.38,85.57v69.02Zm-59.33-45.61c-32.29,0-57.32,7.67-57.32,31.08,0,15.74,10.49,23.41,24.22,23.41,14.93,0,27.85-10.09,31.88-22.6,.81-3.23,1.21-6.86,1.21-10.49v-21.39Z"/>
          <path d="M3086.39,1347.74v272.04h-61.35v-272.04h61.35Z"/>
          <path d="M3138.85,1485.37c0-24.62-.81-45.21-1.61-62.97h53.28l2.83,27.45h1.21c8.07-12.92,27.85-31.89,60.95-31.89,40.36,0,70.64,27.04,70.64,85.16v116.65h-61.35v-109.38c0-25.43-8.88-42.78-31.08-42.78-16.95,0-27.04,11.71-31.48,23.01-1.62,4.04-2.02,9.69-2.02,15.34v113.82h-61.35v-134.41Z"/>
          <path d="M3562.25,1591.12c0,37.94-7.67,69.02-30.27,88.8-21.39,18.57-50.86,24.22-79.92,24.22-26.23,0-53.28-5.25-71.04-14.93l12.11-46.82c12.51,7.27,33.9,14.93,57.31,14.93,29.06,0,51.26-15.34,51.26-52.07v-12.51h-.81c-11.7,16.14-30.68,25.43-53.28,25.43-48.84,0-83.55-39.56-83.55-96.06,0-63.77,40.77-104.14,89.61-104.14,27.04,0,43.99,11.71,54.09,28.25h.8l2.02-23.81h53.28c-.81,12.92-1.62,29.46-1.62,58.93v109.79Zm-61.35-88.39c0-3.63-.41-7.67-1.21-11.3-4.44-16.14-16.14-27.04-33.1-27.04-22.6,0-40.36,20.18-40.36,56.1,0,29.46,14.53,52.47,39.96,52.47,16.14,0,28.66-10.49,32.69-24.62,1.61-4.84,2.02-11.3,2.02-16.55v-29.06Z"/>
          <path d="M3658.7,1540.67c1.62,25.43,27.04,37.54,55.7,37.54,20.99,0,37.94-2.83,54.49-8.48l8.07,41.57c-20.18,8.48-44.8,12.51-71.44,12.51-67,0-105.35-38.75-105.35-100.5,0-50.05,31.08-105.35,99.7-105.35,63.77,0,87.99,49.65,87.99,98.48,0,10.49-1.21,19.78-2.02,24.22h-127.14Zm72.25-41.98c0-14.93-6.46-39.96-34.71-39.96-25.83,0-36.33,23.81-37.94,39.96h72.65Z"/>
          <path d="M3824.59,1485.37c0-24.62-.81-45.21-1.62-62.97h53.28l2.82,27.45h1.21c8.07-12.92,27.85-31.89,60.95-31.89,40.36,0,70.63,27.04,70.63,85.16v116.65h-61.35v-109.38c0-25.43-8.88-42.78-31.08-42.78-16.95,0-27.04,11.71-31.48,23.01-1.62,4.04-2.02,9.69-2.02,15.34v113.82h-61.35v-134.41Z"/>
          <path d="M4124.48,1367.52c0,16.95-12.51,30.68-33.1,30.68-19.37,0-31.89-13.72-31.89-30.68s12.91-30.68,32.69-30.68,31.88,13.32,32.29,30.68Zm-63.37,252.27v-197.37h61.35v197.37h-61.35Z"/>
          <path d="M4218.92,1540.67c1.61,25.43,27.04,37.54,55.7,37.54,20.99,0,37.94-2.83,54.49-8.48l8.07,41.57c-20.18,8.48-44.8,12.51-71.44,12.51-67,0-105.35-38.75-105.35-100.5,0-50.05,31.08-105.35,99.7-105.35,63.77,0,87.99,49.65,87.99,98.48,0,10.49-1.21,19.78-2.02,24.22h-127.14Zm72.25-41.98c0-14.93-6.46-39.96-34.71-39.96-25.83,0-36.33,23.81-37.94,39.96h72.65Z"/>
          <path d="M4384.8,1487.39c0-29.06-.41-48.03-1.62-64.98h52.47l2.42,36.33h1.62c10.09-29.06,33.9-41.17,53.28-41.17,5.65,0,8.48,.4,12.92,1.21v57.72c-4.85-.81-9.69-1.61-16.55-1.61-22.6,0-37.94,12.11-41.98,31.08-.81,4.04-1.21,8.88-1.21,13.72v100.1h-61.35v-132.39Z"/>
          <path d="M4538.17,1619.78v-197.37h61.35v197.37h-61.35Zm96.06-283.34l-49.24,61.35h-41.98l34.71-61.35h56.51Z"/>
          <path d="M4813.03,1572.15c0,18.57,.81,36.73,3.23,47.63h-55.3l-3.63-19.78h-1.21c-12.91,15.74-33.1,24.22-56.51,24.22-39.96,0-63.77-29.06-63.77-60.54,0-51.26,46.01-75.48,115.84-75.48v-2.42c0-10.9-5.65-25.83-35.92-25.83-20.18,0-41.57,6.86-54.49,14.93l-11.3-39.56c13.72-7.67,40.77-17.76,76.69-17.76,65.79,0,86.38,38.75,86.38,85.57v69.02Zm-59.33-45.61c-32.29,0-57.31,7.67-57.31,31.08,0,15.74,10.49,23.41,24.22,23.41,14.93,0,27.85-10.09,31.89-22.6,.81-3.23,1.21-6.86,1.21-10.49v-21.39Z"/>
        </g>
      </g>
      <g id="Logo-CentroDocenciaCienciasBasicasIngenieria-Oficial-Color">
        <rect y="0" width="5762.5" height="2049.88" style="fill: none;"/>
        <g id="logo_Cs_Basicas" data-name="logo Cs Basicas">
          <path d="M1753.73,975.43l88.57-28.75-22.61-128.24-93.06,3.27-33.87-93.05,73.39-57.31-65.11-112.77-86.33,34.9-63.65-75.85,49.36-78.96-99.75-83.7-69.18,62.32-85.75-49.51,19.38-91.08-122.36-44.54-43.7,82.23-97.52-17.19-12.94-92.21h-130.22l-12.94,92.21-97.52,17.19-43.7-82.23-122.36,44.54,19.38,91.08-85.75,49.51-69.18-62.32-99.75,83.7,49.36,78.96-63.65,75.85-86.33-34.9-65.11,112.77,73.39,57.31-33.87,93.05-93.06-3.27-22.61,128.24,88.57,28.75v99.02l-88.57,28.75,22.61,128.24,93.06-3.27,33.87,93.05-73.39,57.31,65.11,112.77,86.33-34.9,63.65,75.85-49.36,78.96,99.75,83.7,69.18-62.32,85.75,49.51-19.38,91.08,122.36,44.54,43.7-82.23,97.52,17.19,12.94,92.21h130.22l12.94-92.21,97.52-17.19,43.7,82.23,122.36-44.54-19.38-91.08,85.75-49.51,69.18,62.32,99.75-83.7-49.36-78.96,63.65-75.85,86.33,34.9,65.11-112.77-73.39-57.31,33.87-93.05,93.06,3.27,22.61-128.24-88.57-28.75v-99.02Zm-730.23,577.9c-291.26,0-527.38-236.12-527.38-527.38S732.24,498.57,1023.5,498.57s527.38,236.12,527.38,527.38-236.12,527.38-527.38,527.38Z" style="fill: #b8bdbf;"/>
          <g>
            <path d="M392.92,1199.79c-2.23-2.23-5.34-7.71-7.14-15.36-5.12-21.75,8.96-36.88,31.08-42.09,26.5-6.24,44.86,5.6,49.34,24.64,1.73,7.37,1.21,13.41,.19,16.31l-14.62,.39c.82-3.25,1.26-7.59,.07-12.63-2.66-11.29-13.13-18.09-30.42-14.02-15.56,3.66-23.6,13.44-20.61,26.13,1.01,4.29,3.28,8.78,5.32,11.26l-13.21,5.38Z" style="fill: #1d1d1b;"/>
            <path d="M397.86,1222.77l55-18.05,4.55,13.85-55,18.05-4.55-13.85Zm75-8.77c-4.72,1.55-9.51-.11-11-4.66-1.44-4.37,1.43-8.54,6.19-10,4.92-1.72,9.59-.02,11.05,4.45,1.46,4.46-1.32,8.51-6.24,10.22Z" style="fill: #1d1d1b;"/>
            <path d="M436.59,1262.01c-6.69,3.33-7.67,10.18-5.03,16.46,1.93,4.6,4.25,7.99,7.19,11.02l-10.5,6.48c-4.04-3.5-7.39-8.44-9.84-14.27-6.16-14.68,.79-27.47,17.5-34.48,13.54-5.68,31.35-5.14,37.66,9.89,5.86,13.97-5.34,24.91-18.55,30.45-2.84,1.19-5.46,1.98-6.74,2.31l-11.69-27.85Zm18,11.06c4.04-1.69,10.21-5.95,7.62-12.14-2.37-5.66-9.67-5.3-14.3-3.78l6.68,15.91Z" style="fill: #1d1d1b;"/>
            <path d="M473.72,1305.17c6.31-3.51,11.59-6.68,15.95-9.32l6.16,11.06-6.6,4.45,.14,.25c4.14-.11,11.33,1.37,15.11,8.15,4.67,8.38,1.34,18.46-13.56,26.76l-29.99,16.71-7.09-12.73,28.03-15.61c6.52-3.63,9.94-7.95,7.37-12.56-1.96-3.52-6.12-3.94-9.49-3.17-1.12,.18-2.76,.88-4.21,1.69l-29.17,16.25-7.09-12.73,34.44-19.18Z" style="fill: #1d1d1b;"/>
            <path d="M498.13,1415.93c-2.65-1.31-6.42-4.63-9.61-9.19-8.69-12.41-4.93-26.86,10-37.32,13.87-9.71,30.6-9.95,40.61,4.34,2.2,3.14,3.94,7.07,4.54,10.4l-12.28,5.79c-.21-1.96-1.02-4.55-3.22-7.69-4.4-6.28-12.79-6.5-20.49-.99-8.73,6.11-9.98,14.01-5.91,19.83,1.98,2.83,4.1,4.62,6.24,5.82l-9.87,9.02Z" style="fill: #1d1d1b;"/>
            <path d="M509.6,1432.75l44.92-36.51,9.19,11.31-44.92,36.51-9.19-11.31Zm66.91-34.97c-3.86,3.14-8.92,3.29-11.94-.43-2.9-3.57-1.71-8.49,2.2-11.55,3.98-3.36,8.95-3.44,11.91,.21,2.96,3.65,1.81,8.42-2.17,11.78Z" style="fill: #1d1d1b;"/>
            <path d="M553.54,1482.67l3.6-4.63-.2-.21c-5.46,.96-10.57-.79-14.4-4.82-6.55-6.87-4.28-16.85,2.4-23.22,10.88-10.37,23.65-7.44,35.01,4.65l.6-.57c2.23-2.12,4.47-6.12-.49-11.32-3.31-3.47-8.27-5.76-12.1-6.35l6.55-9.95c3.88,.81,10.37,3.5,16.25,9.68,10.78,11.32,6,22.77-3.86,32.16l-14.57,13.88c-4.03,3.84-7.75,7.65-9.74,10.21l-9.06-9.51Zm18.61-20.12c-5.21-5.63-10.94-8.39-15.99-3.57-3.34,3.18-3.25,6.54-1,8.9,2.51,2.64,6.71,2.75,10.03,.91,.82-.51,1.66-1.18,2.43-1.92l4.54-4.33Z" style="fill: #1d1d1b;"/>
            <path d="M592.65,1498.77c.71,3.28,3.36,8.71,6.61,11.54,3.33,2.89,5.95,2.65,7.89,.42,1.94-2.24,1.78-4.25-.87-9.53-4.67-9.39-3.23-16.76,1.34-21.88,7.06-8.14,18.06-9.4,26.82-1.8,4.13,3.58,6.81,7.95,7.82,11.18l-10.1,7.69c-.66-2.45-2.46-6.53-5.5-9.16-2.68-2.33-5.36-2.3-7.3-.07-1.78,2.06-1.34,4.32,1.37,9.97,4.25,8.7,3.43,15.36-2.09,21.86-7.06,8.14-17.47,9.6-27.61,.8-4.63-4.02-7.67-8.86-8.8-12.97l10.41-8.05Z" style="fill: #1d1d1b;"/>
            <path d="M692.16,1498.24c3.74,1.28,10.65,4.89,16.78,8.84,7.5,4.83,11.51,8.69,13.6,14.12,2.19,4.93,1.98,11.27-1.93,17.34-3.85,5.97-10.26,9.73-18.18,8.57l-.13,.2c4.86,6.09,5.74,14.82,.16,23.48-3.91,6.07-9.25,9.39-14.81,10.6-6.45,1.34-14.47-.73-25.27-7.69-6.05-3.89-10.24-7.3-12.66-9.56l42.44-65.88Zm-23.54,63.27c1.08,.98,2.53,1.91,4.63,3.26,5.56,3.58,12.15,4.16,16.7-2.9,4.36-6.77,1.17-12.62-4.95-16.57l-4.19-2.7-12.18,18.91Zm19.17-29.75l4.03,2.6c6.45,4.16,12.03,3.1,15.24-1.87,3.27-5.07,1.86-9.79-3.7-13.37-2.66-1.71-4.32-2.5-5.5-2.98l-10.07,15.62Z" style="fill: #1d1d1b;"/>
            <path d="M739.33,1616.37l1.8-5.58-.26-.13c-4.8,2.78-10.2,2.88-15.18,.41-8.51-4.21-9.8-14.36-5.7-22.64,6.67-13.48,19.67-15.1,34.48-7.64l.37-.74c1.37-2.76,2.11-7.28-4.34-10.47-4.3-2.13-9.74-2.58-13.54-1.81l2.74-11.59c3.92-.57,10.94-.27,18.59,3.52,14.01,6.93,13.44,19.33,7.4,31.53l-8.93,18.04c-2.47,4.99-4.66,9.85-5.65,12.92l-11.77-5.83Zm10.58-25.28c-6.82-3.51-13.15-4.13-16.25,2.13-2.05,4.14-.81,7.26,2.11,8.71,3.27,1.62,7.24,.28,9.73-2.58,.59-.76,1.15-1.68,1.62-2.63l2.78-5.62Zm33.41-45.68l-18.47,10.94-9.02-4.47,15.37-12.47,12.12,6Z" style="fill: #1d1d1b;"/>
            <path d="M781.78,1618.14c1.79,2.84,6.15,7.03,10.18,8.56,4.12,1.57,6.5,.45,7.55-2.32,1.05-2.77,.21-4.6-4.09-8.65-7.62-7.2-8.8-14.62-6.27-21,3.83-10.07,13.73-15.04,24.57-10.92,5.11,1.94,9.13,5.12,11.19,7.8l-6.84,10.7c-1.47-2.08-4.56-5.28-8.32-6.71-3.32-1.26-5.83-.32-6.88,2.45-.97,2.54,.23,4.52,4.72,8.89,6.99,6.71,8.5,13.24,5.56,21.24-3.83,10.07-13.11,15.03-25.65,10.25-5.74-2.18-10.25-5.67-12.73-9.15l7.01-11.14Z" style="fill: #1d1d1b;"/>
            <path d="M826.93,1650.98l16.71-55.42,13.95,4.21-16.71,55.42-13.95-4.21Zm35.77-66.49c-1.44,4.76-5.53,7.73-10.12,6.34-4.41-1.33-6.18-6.07-4.65-10.8,1.41-5.02,5.48-7.87,9.97-6.51,4.5,1.36,6.22,5.95,4.81,10.97Z" style="fill: #1d1d1b;"/>
            <path d="M898.82,1667.92c-2.84,.82-7.87,.91-13.29-.31-14.78-3.31-21.75-16.52-17.76-34.31,3.7-16.52,15.9-27.98,32.92-24.16,3.74,.84,7.68,2.57,10.36,4.63l-5.17,12.55c-1.48-1.3-3.82-2.68-7.56-3.51-7.48-1.68-13.82,3.82-15.8,13.08-2.33,10.4,2.07,17.08,8.99,18.63,3.37,.75,6.14,.65,8.53,.09l-1.21,13.32Z" style="fill: #1d1d1b;"/>
            <path d="M949.94,1676.88l-.15-5.86-.29-.04c-3.61,4.21-8.67,6.09-14.19,5.41-9.42-1.16-14-10.31-12.87-19.47,1.83-14.92,13.56-20.75,30.02-18.61l.1-.82c.38-3.05-.42-7.56-7.56-8.44-4.76-.58-10.05,.79-13.38,2.77l-1.25-11.84c3.51-1.84,10.23-3.87,18.7-2.83,15.51,1.91,19.08,13.79,17.42,27.3l-2.45,19.97c-.68,5.52-1.14,10.83-1.05,14.06l-13.04-1.6Zm1.62-27.35c-7.6-1.05-13.77,.45-14.63,7.39-.56,4.58,1.64,7.12,4.87,7.52,3.62,.44,6.93-2.13,8.33-5.66,.31-.92,.53-1.96,.66-3.02l.76-6.23Z" style="fill: #1d1d1b;"/>
            <path d="M990.37,1664.52c2.63,2.09,8.12,4.61,12.43,4.73,4.41,.12,6.28-1.72,6.37-4.68,.08-2.96-1.32-4.42-6.72-6.82-9.57-4.29-13.13-10.9-12.84-17.77,.3-10.77,8-18.73,19.6-18.4,5.46,.15,10.31,1.83,13.14,3.68l-2.93,12.35c-2.07-1.48-6.04-3.48-10.07-3.6-3.55-.1-5.61,1.62-5.69,4.58-.08,2.72,1.71,4.19,7.39,6.84,8.81,4.03,12.39,9.7,12.25,18.22-.3,10.77-7.42,18.51-20.84,18.13-6.13-.17-11.55-1.98-15.03-4.44l2.95-12.83Z" style="fill: #1d1d1b;"/>
            <path d="M1070.84,1641.09c-.85-7.53-1.77-13.98-2.56-19.25l12.58-1.42,1.57,7.92,.19-.02c2.74-6.5,7.71-10.28,14.48-11.05,10.19-1.15,20.58,8.75,22.65,27.1,2.37,20.94-7.28,32.03-17.67,33.21-5.62,.64-10.32-1.69-12.84-5.22l-.19,.02,3.23,28.58-14.48,1.64-6.95-61.52Zm16.01,11.89c.16,1.41,.4,2.7,.71,3.73,1.5,4.72,5.24,7.98,9.44,7.51,6.29-.71,9.27-7.6,8.17-17.36-1.04-9.17-5.16-15.74-11.64-15.01-4.1,.46-7.29,4.64-7.64,10.04-.08,.96-.05,2.15,.07,3.21l.89,7.88Z" style="fill: #1d1d1b;"/>
            <path d="M1177,1662.89l-2.13-5.46-.28,.06c-1.96,5.18-6.09,8.67-11.51,9.91-9.25,2.11-16.67-4.94-18.72-13.94-3.34-14.66,5.71-24.13,21.91-27.7l-.18-.81c-.68-3-2.97-6.97-9.98-5.37-4.67,1.07-9.18,4.16-11.65,7.15l-5.2-10.71c2.68-2.92,8.31-7.12,16.63-9.01,15.24-3.48,22.63,6.49,25.66,19.76l4.48,19.62c1.24,5.42,2.61,10.57,3.79,13.58l-12.81,2.92Zm-7.77-26.27c-7.51,1.59-12.8,5.11-11.25,11.91,1.03,4.5,3.96,6.14,7.14,5.41,3.55-.81,5.79-4.36,5.91-8.15-.02-.97-.17-2.03-.4-3.07l-1.4-6.12Z" style="fill: #1d1d1b;"/>
            <path d="M1203.2,1615.64c-2.64-8.1-4.55-13.33-6.27-18l11.94-3.89,3.76,9.98,.36-.12c-.32-8.73,4.04-13.89,8.33-15.29,1.27-.42,1.91-.62,2.99-.73l5.25,16.09c-1.08,.1-2.33,.26-3.88,.77-5.11,1.66-7.47,6.17-6.66,11.76,.18,1.18,.53,2.56,.97,3.92l9.1,27.91-13.86,4.52-12.03-36.92Z" style="fill: #1d1d1b;"/>
            <path d="M1287.62,1625.6l-3.07-4.99-.26,.11c-1.01,5.45-4.44,9.62-9.55,11.8-8.73,3.73-17.28-1.89-20.91-10.38-5.91-13.83,1.31-24.76,16.61-31.17l-.33-.76c-1.21-2.83-4.16-6.33-10.78-3.51-4.41,1.88-8.29,5.73-10.18,9.11l-7.03-9.62c2.11-3.35,6.91-8.49,14.75-11.84,14.37-6.14,23.42,2.35,28.77,14.87l7.91,18.51c2.19,5.12,4.45,9.94,6.15,12.69l-12.08,5.16Zm-12.33-24.47c-7.1,2.9-11.68,7.31-8.94,13.73,1.81,4.25,4.99,5.34,7.99,4.05,3.35-1.43,4.92-5.32,4.36-9.07-.2-.95-.53-1.96-.94-2.94l-2.47-5.77Z" style="fill: #1d1d1b;"/>
            <path d="M1318.14,1520.26l39.98,69.05-12.7,7.35-39.98-69.05,12.7-7.35Z" style="fill: #1d1d1b;"/>
            <path d="M1358.9,1542.85c-4.14-5.91-7.84-10.84-10.92-14.9l10.36-7.27,5.1,6.11,.24-.17c-.54-4.11,.19-11.41,6.55-15.88,7.85-5.51,18.22-3.24,28.01,10.72l19.71,28.11-11.93,8.37-18.42-26.27c-4.28-6.11-8.93-9.07-13.25-6.04-3.3,2.31-3.29,6.5-2.17,9.76,.3,1.09,1.16,2.66,2.11,4.01l19.17,27.34-11.93,8.37-22.63-32.28Z" style="fill: #1d1d1b;"/>
            <path d="M1437.74,1456.95c2.3,2.87,5.38,6.62,11.12,13.08l21.48,24.15c7.4,8.32,12.1,16.34,12.01,24.18-.25,7.51-4.38,13.4-9.54,17.99-4.59,4.08-10.48,7.26-15.6,7.85l-6.9-12.08c3.64-.38,9-2.14,13.08-5.78,5.16-4.59,6.03-11.54-1.05-19.5l-2.52-2.83-.14,.13c1.15,5.47-.41,10.5-4.42,14.07-8.67,7.71-22.54,4.52-33.64-7.95-12.35-13.89-12.92-29.23-4.32-36.88,4.8-4.27,10.09-4.38,15.03-2.43l.14-.13-4.21-5.45,9.46-8.41Zm4.48,27.54c-.79-.89-1.64-1.7-2.42-2.29-3.94-2.84-8.14-3.38-11.15-.7-3.94,3.5-3.23,10.8,3.77,18.67,5.74,6.46,12.81,9.21,17.39,5.13,2.79-2.49,2.97-6.76,.85-10.58-.58-1.23-1.77-2.71-2.79-3.86l-5.67-6.37Z" style="fill: #1d1d1b;"/>
            <path d="M1487.83,1454.93c5.86,4.64,12.48,2.61,17.04-2.45,3.34-3.7,5.42-7.25,6.92-11.2l10.34,6.75c-1.45,5.14-4.49,10.28-8.74,14.98-10.67,11.82-25.21,10.96-38.65-1.17-10.9-9.83-17.99-26.18-7.07-38.28,10.15-11.25,24.82-5.76,35.45,3.83,2.28,2.06,4.11,4.1,4.95,5.11l-20.24,22.42Zm2.36-20.99c-3.25-2.93-9.73-6.71-14.23-1.73-4.11,4.56-.69,11.01,2.66,14.54l11.57-12.81Z" style="fill: #1d1d1b;"/>
            <path d="M1511.01,1403.12c-5.86-4.22-10.96-7.66-15.21-10.49l7.4-10.27,6.83,4.09,.17-.23c-1.86-3.7-3.57-10.84,.97-17.14,5.61-7.78,16.15-9.04,29.98,.92l27.85,20.07-8.52,11.82-26.03-18.76c-6.05-4.36-11.41-5.63-14.5-1.35-2.35,3.27-.97,7.22,1.16,9.93,.64,.93,1.97,2.13,3.31,3.1l27.08,19.52-8.52,11.82-31.98-23.05Z" style="fill: #1d1d1b;"/>
            <path d="M1527.19,1316.81c4.27,2.55,6.14,7.25,3.68,11.37-2.36,3.95-7.39,4.52-11.61,1.88-4.52-2.59-6.29-7.23-3.88-11.26,2.41-4.03,7.29-4.58,11.81-1.98Zm55.75,50.92l-49.67-29.73,7.48-12.51,49.67,29.73-7.49,12.51Z" style="fill: #1d1d1b;"/>
            <path d="M1587.2,1312.81c6.9,2.88,12.72-.87,15.74-6.97,2.21-4.47,3.26-8.45,3.62-12.65l11.78,3.69c0,5.35-1.54,11.12-4.35,16.79-7.06,14.26-21.29,17.38-37.52,9.35-13.16-6.51-24.41-20.33-17.18-34.94,6.72-13.58,22.32-12.27,35.16-5.91,2.76,1.37,5.07,2.83,6.15,3.58l-13.4,27.07Zm-3.42-20.85c-3.93-1.94-11.18-3.83-14.16,2.19-2.72,5.5,2.32,10.78,6.5,13.28l7.66-15.47Z" style="fill: #1d1d1b;"/>
            <path d="M1594.8,1259.11c-7.95-3.07-13.21-4.9-17.91-6.52l4.53-11.72,10.11,3.4,.14-.36c-6.97-5.27-8.21-11.92-6.58-16.12,.48-1.25,.73-1.88,1.33-2.78l15.79,6.11c-.6,.9-1.27,1.98-1.86,3.5-1.94,5.01,.06,9.69,4.9,12.59,1.03,.61,2.32,1.21,3.65,1.72l27.38,10.59-5.26,13.59-36.21-14.01Z" style="fill: #1d1d1b;"/>
            <path d="M1574.87,1181.73l13.67,16.55-3.01,9.61-14.7-13.25,4.05-12.9Zm72.47,46.64l-55.24-17.32,4.36-13.91,55.24,17.32-4.36,13.91Z" style="fill: #1d1d1b;"/>
            <path d="M1664.74,1163.98l-5.85-.45-.06,.28c3.82,4.02,5.18,9.24,3.95,14.66-2.11,9.26-11.67,12.88-20.67,10.83-14.66-3.34-19.28-15.6-15.48-31.74l-.81-.18c-3-.68-7.57-.35-9.16,6.67-1.06,4.67-.23,10.08,1.4,13.59l-11.91,.04c-1.47-3.68-2.82-10.57-.92-18.89,3.47-15.24,15.65-17.58,28.93-14.56l19.62,4.47c5.42,1.23,10.66,2.23,13.88,2.47l-2.91,12.81Zm-27.05-4.39c-1.82,7.45-.94,13.75,5.87,15.3,4.5,1.02,7.25-.91,7.97-4.09,.81-3.55-1.42-7.11-4.78-8.86-.88-.4-1.9-.73-2.94-.96l-6.12-1.39Z" style="fill: #1d1d1b;"/>
          </g>
          <g>
            <path d="M601.56,618.77c-.92,3.59-4.46,10.39-10.81,17.73-18.05,20.85-40.33,20.36-57.51,5.48-20.59-17.82-19.33-42.42-3.53-60.68,6.12-7.07,12.2-11.2,15.55-12.53l8.43,12.15c-3.57,1.77-7.97,4.69-12.15,9.52-9.38,10.83-10.13,24.9,3.3,36.52,12.08,10.46,25.89,9.89,36.43-2.29,3.56-4.12,6.62-9.46,7.87-13.07l12.43,7.16Z" style="fill: #1d1d1b;"/>
            <path d="M606.69,585.21c5.48,5.1,13.29,2.75,19.48-2.93,4.54-4.16,7.64-8.13,10.18-12.55l9.99,7.39c-2.76,5.75-7.29,11.5-13.04,16.78-14.49,13.28-30.45,12.5-42.7-.85-9.92-10.82-14.16-28.93,.67-42.54,13.79-12.64,28.86-6.71,38.54,3.85,2.08,2.27,3.66,4.52,4.36,5.64l-27.49,25.2Zm7.3-23.4c-2.96-3.23-9.32-7.36-15.42-1.76-5.58,5.12-3.21,12.26-.28,16.16l15.71-14.4Z" style="fill: #1d1d1b;"/>
            <path d="M638.32,535.74c-4.22-5.86-8-10.72-11.17-14.72l12.69-9.12,5.3,5.95,.29-.21c-.22-4.36,1.34-12.33,9.12-17.93,9.61-6.91,21.38-5.75,31.33,8.09l20.04,27.87-14.61,10.51-18.73-26.04c-4.35-6.05-9.44-8.67-14.73-4.86-4.04,2.9-4.43,7.42-3.46,10.8,.24,1.14,1.08,2.72,2.05,4.07l19.49,27.1-14.61,10.51-23.02-32Z" style="fill: #1d1d1b;"/>
            <path d="M700.53,452.61l8.28,14.36,11.18-6.45,6.62,11.49-11.18,6.45,10.47,18.15c3.49,6.05,6.52,7.99,11.24,5.27,1.95-1.12,3.37-2.22,4.38-3.07l6.9,11.73c-1.58,2-4.97,4.64-9.38,7.19-5.02,2.9-10.23,3.58-14.17,2.43-4.59-1.32-8.8-5.31-12.88-12.39l-11.83-20.51-6.67,3.84-6.62-11.48,6.67-3.84-6.27-10.87,13.27-12.3Z" style="fill: #1d1d1b;"/>
            <path d="M743.59,469.78c-3.65-7.7-6.25-12.62-8.6-17.01l14.01-6.65,5.1,9.37,.43-.2c-.93-8.86,3.96-15.12,8.99-17.5,1.5-.71,2.25-1.07,3.52-1.41l7.26,15.29c-1.28,.34-2.77,.79-4.59,1.65-5.99,2.84-8.53,7.98-7.21,13.51,.29,1.17,.8,2.51,1.4,3.79l12.59,26.52-16.26,7.71-16.65-35.08Z" style="fill: #1d1d1b;"/>
            <path d="M846.74,437.89c7.1,19.96-3.81,34.15-18.42,39.35-15.95,5.67-31.95-.44-38.22-18.07-6.27-17.62,1.32-33.01,18.83-39.24,16.73-5.95,31.97,1.57,37.8,17.96Zm-39.28,14.6c3.33,9.37,9.74,15.01,16.99,12.43,6.58-2.34,8.48-10.43,4.99-20.24-2.9-8.14-8.96-15.28-16.65-12.55-8.14,2.9-8.18,12.33-5.32,20.36Z" style="fill: #1d1d1b;"/>
            <path d="M936.31,363.37l11.43,65.78c1.11,6.41,2.52,13.14,3.43,16.95l-15.75,2.74-2.28-8.26-.23,.04c-2.5,7.04-8.81,11.5-16.16,12.78-13.53,2.35-26.38-7.31-29.46-25.04-3.46-19.22,6.63-32.39,20.27-34.76,7-1.22,12.9,.28,16.16,3.8l.23-.04-5.37-30.91,17.73-3.08Zm-9.05,53c-.16-.93-.5-2.2-.78-3.11-1.88-4.6-6.42-7.9-11.9-6.94-8.05,1.4-10.99,9.36-9.43,18.34,1.68,9.68,7.52,14.91,14.86,13.64,5.13-.89,8.61-5.1,8.78-10.3,.13-1.34,.02-2.65-.24-4.16l-1.3-7.46Z" style="fill: #1d1d1b;"/>
            <path d="M981.2,420.51c.98,7.42,8.5,10.58,16.89,10.14,6.15-.32,11.07-1.41,15.84-3.2l3,12.05c-5.79,2.67-12.94,4.23-20.74,4.64-19.62,1.03-31.45-9.74-32.4-27.82-.77-14.66,7.49-31.33,27.59-32.38,18.68-.98,26.53,13.19,27.28,27.5,.16,3.07-.05,5.81-.22,7.12l-37.24,1.95Zm20.52-13.4c-.23-4.37-2.5-11.61-10.78-11.17-7.57,.4-10.28,7.41-10.5,12.29l21.28-1.11Z" style="fill: #1d1d1b;"/>
            <path d="M1069.93,364.39c6.71-.27,15.36,.18,24.41,1.27,15.04,1.81,24.47,5.68,31.42,12.36,7.49,7.1,11.49,17.48,9.81,31.46-1.82,15.16-8.6,24.96-17.02,30.5-9.18,5.93-22.27,7.7-37.78,5.83-9.28-1.12-15.8-2.49-20.19-3.62l9.35-77.8Zm10.21,66.8c1.49,.54,3.95,.83,6.19,1.1,16.2,2.07,27.86-5.59,30.13-24.52,2.1-16.44-6.5-26.3-21.89-28.15-4-.48-6.63-.44-8.19-.27l-6.23,51.83Z" style="fill: #1d1d1b;"/>
            <path d="M1208.28,440.36c-5.37,20.5-22.37,26.08-37.38,22.15-16.38-4.29-26.15-18.35-21.41-36.45,4.74-18.09,19.68-26.54,37.66-21.83,17.18,4.5,25.54,19.29,21.13,36.13Zm-40.69-10.05c-2.52,9.62-.4,17.88,7.04,19.83,6.76,1.77,12.88-3.85,15.52-13.92,2.19-8.36,1.2-17.67-6.7-19.74-8.36-2.19-13.7,5.59-15.86,13.83Z" style="fill: #1d1d1b;"/>
            <path d="M1255.66,488.36c-3.49,.18-9.55-.89-15.96-3.35-17.45-6.72-24.53-21.62-17.98-38.63,6.08-15.8,21.88-24.55,41.99-16.81,4.42,1.7,8.98,4.35,12.01,7.03l-7.46,11.46c-1.65-1.65-4.33-3.57-8.75-5.27-8.84-3.4-17.01,.68-20.3,9.56-3.83,9.94,.8,17.69,8.97,20.83,3.98,1.53,7.33,2.06,10.25,2.04l-2.78,13.14Z" style="fill: #1d1d1b;"/>
            <path d="M1288.63,480.01c-2.85,6.92,2.08,13.41,9.58,17.22,5.49,2.79,10.3,4.3,15.32,5.13l-3.42,11.94c-6.35-.57-13.32-2.79-20.29-6.33-17.52-8.91-22.39-24.13-14.19-40.28,6.65-13.09,22.13-23.41,40.07-14.29,16.67,8.48,16.41,24.68,9.92,37.45-1.39,2.74-2.94,5.01-3.75,6.06l-33.24-16.9Zm24.47-1.37c1.98-3.9,3.62-11.31-3.76-15.06-6.75-3.43-12.61,1.29-15.23,5.41l19,9.66Z" style="fill: #1d1d1b;"/>
            <path d="M1346.13,492.34c4.01-6,7.24-11.25,9.87-15.61l12.99,8.69-3.72,7.05,.3,.2c4.01-1.73,12.02-3.07,19.99,2.26,9.84,6.58,12.88,18.01,3.4,32.18l-19.08,28.53-14.96-10,17.83-26.67c4.14-6.2,4.81-11.88-.6-15.5-4.13-2.76-8.5-1.56-11.33,.54-.99,.62-2.17,1.97-3.09,3.34l-18.56,27.75-14.96-10,21.91-32.77Z" style="fill: #1d1d1b;"/>
            <path d="M1417.84,593.5c-3.36-.97-8.74-3.96-13.99-8.38-14.31-12.05-16.13-28.44-4.39-42.39,10.9-12.95,28.7-16.07,45.18-2.19,3.62,3.05,7.07,7.04,9.05,10.57l-10.79,8.4c-1.02-2.1-2.93-4.79-6.55-7.84-7.24-6.1-16.3-4.9-22.31,2.42-6.86,8.15-5.01,16.98,1.69,22.62,3.26,2.74,6.25,4.34,9.02,5.28l-6.91,11.51Z" style="fill: #1d1d1b;"/>
            <path d="M1425.56,603.22l40.59-41.28,12.83,12.61-40.58,41.28-12.83-12.61Zm65.12-39.72c-3.49,3.55-9.01,3.76-13.23-.39-4.05-3.98-3.93-9.51-.36-12.97,3.57-3.8,9.01-3.93,13.14,.14,4.14,4.07,4.01,9.43,.45,13.22Z" style="fill: #1d1d1b;"/>
            <path d="M1471.79,652.71l3.71-4.58-.23-.27c-5.97,.13-11.71-2.75-16.18-7.96-7.63-8.9-5.7-19.75,1.31-25.76,11.41-9.78,25.68-4.24,38.92,11.39l.63-.54c2.34-2,4.58-6.11-1.19-12.85-3.85-4.49-9.46-7.95-13.73-9.28l6.65-10.07c4.33,1.59,11.64,5.76,18.5,13.76,12.56,14.65,7.94,26.72-2.4,35.58l-15.28,13.1c-4.22,3.62-8.11,7.27-10.16,9.8l-10.56-12.31Zm19.37-19.41c-6.07-7.27-12.56-11.38-17.86-6.83-3.51,3-3.21,6.81-.59,9.86,2.93,3.41,7.56,4.28,11.12,2.79,.87-.44,1.76-1.04,2.57-1.73l4.76-4.08Z" style="fill: #1d1d1b;"/>
          </g>
          <g id="Cub_Rojo" data-name="Cub Rojo">
            <g style="clip-path: url(#clippath);">
              <path d="M996.86,934.47l-267.51-66.58c-4.84-1.2-9.28-.59-12.81,1.41-4.82,2.73-102.13,57.55-105.71,59.72-4.61,2.79-7.55,8.03-7.55,14.71v315.72c0,11.86,9.28,23.79,20.72,26.64l267.51,66.58c4.92,1.22,9.43,.57,12.98-1.51,4.72-2.76,101.97-57.45,105.55-59.63,4.61-2.79,7.54-8.03,7.54-14.7v-315.72c0-11.86-9.28-23.79-20.72-26.64Z" style="fill: #a61737;"/>
              <g>
                <line x1="898.73" y1="1343.14" x2="1045.52" y2="1259.7" style="fill: none; stroke: #82152c; stroke-miterlimit: 10; stroke-width: 14.29px;"/>
                <line x1="898.56" y1="1341.47" x2="1045.35" y2="1258.03" style="fill: none; stroke: #84152d; stroke-miterlimit: 10; stroke-width: 13.62px;"/>
                <line x1="898.39" y1="1339.79" x2="1045.18" y2="1256.35" style="fill: none; stroke: #85152d; stroke-miterlimit: 10; stroke-width: 12.95px;"/>
                <line x1="898.22" y1="1338.12" x2="1045.01" y2="1254.68" style="fill: none; stroke: #87152e; stroke-miterlimit: 10; stroke-width: 12.28px;"/>
                <line x1="898.05" y1="1336.44" x2="1044.84" y2="1253" style="fill: none; stroke: #89152e; stroke-miterlimit: 10; stroke-width: 11.61px;"/>
                <line x1="897.88" y1="1334.77" x2="1044.67" y2="1251.33" style="fill: none; stroke: #8b152f; stroke-miterlimit: 10; stroke-width: 10.94px;"/>
                <line x1="897.71" y1="1333.09" x2="1044.5" y2="1249.65" style="fill: none; stroke: #8c162f; stroke-miterlimit: 10; stroke-width: 10.26px;"/>
                <line x1="897.54" y1="1331.42" x2="1044.33" y2="1247.98" style="fill: none; stroke: #8e1630; stroke-miterlimit: 10; stroke-width: 9.59px;"/>
                <line x1="897.37" y1="1329.74" x2="1044.16" y2="1246.3" style="fill: none; stroke: #901630; stroke-miterlimit: 10; stroke-width: 8.92px;"/>
                <line x1="897.2" y1="1328.07" x2="1043.99" y2="1244.63" style="fill: none; stroke: #911631; stroke-miterlimit: 10; stroke-width: 8.25px;"/>
                <line x1="897.03" y1="1326.39" x2="1043.82" y2="1242.95" style="fill: none; stroke: #931631; stroke-miterlimit: 10; stroke-width: 7.58px;"/>
                <line x1="896.87" y1="1324.72" x2="1043.66" y2="1241.28" style="fill: none; stroke: #951632; stroke-miterlimit: 10; stroke-width: 6.91px;"/>
                <line x1="896.7" y1="1323.04" x2="1043.49" y2="1239.6" style="fill: none; stroke: #971632; stroke-miterlimit: 10; stroke-width: 6.24px;"/>
                <line x1="896.53" y1="1321.37" x2="1043.32" y2="1237.93" style="fill: none; stroke: #981633; stroke-miterlimit: 10; stroke-width: 5.57px;"/>
                <line x1="896.36" y1="1319.69" x2="1043.15" y2="1236.26" style="fill: none; stroke: #9a1633; stroke-miterlimit: 10; stroke-width: 4.9px;"/>
                <line x1="896.19" y1="1318.02" x2="1042.98" y2="1234.58" style="fill: none; stroke: #9c1634; stroke-miterlimit: 10; stroke-width: 4.22px;"/>
                <line x1="896.02" y1="1316.34" x2="1042.81" y2="1232.91" style="fill: none; stroke: #9d1734; stroke-miterlimit: 10; stroke-width: 3.55px;"/>
                <line x1="895.85" y1="1314.67" x2="1042.64" y2="1231.23" style="fill: none; stroke: #9f1735; stroke-miterlimit: 10; stroke-width: 2.88px;"/>
                <line x1="895.68" y1="1312.99" x2="1042.47" y2="1229.56" style="fill: none; stroke: #a11735; stroke-miterlimit: 10; stroke-width: 2.21px;"/>
                <line x1="895.51" y1="1311.32" x2="1042.3" y2="1227.88" style="fill: none; stroke: #a31736; stroke-miterlimit: 10; stroke-width: 1.54px;"/>
                <line x1="895.34" y1="1309.64" x2="1042.13" y2="1226.21" style="fill: none; stroke: #a41736; stroke-miterlimit: 10; stroke-width: .87px;"/>
                <line x1="895.17" y1="1307.97" x2="1041.96" y2="1224.53" style="fill: none; stroke: #a61737; stroke-miterlimit: 10; stroke-width: .2px;"/>
              </g>
              <polygon points="574.37 919.05 705.77 834.39 1013.56 925.19 860.85 1007.4 562.53 939.91 574.37 919.05" style="fill: #82152c; opacity: .7;"/>
              <g>
                <line x1="902.33" y1="1021.31" x2="1043.4" y2="943.4" style="fill: none; stroke: #a61737; stroke-miterlimit: 10; stroke-width: 6.35px;"/>
                <line x1="902.06" y1="1020.7" x2="1043.47" y2="942.66" style="fill: none; stroke: #a81838; stroke-miterlimit: 10; stroke-width: 6.06px;"/>
                <line x1="901.78" y1="1020.09" x2="1043.55" y2="941.92" style="fill: none; stroke: #a91839; stroke-miterlimit: 10; stroke-width: 5.77px;"/>
                <line x1="901.51" y1="1019.47" x2="1043.62" y2="941.18" style="fill: none; stroke: #ab193a; stroke-miterlimit: 10; stroke-width: 5.47px;"/>
                <line x1="901.24" y1="1018.86" x2="1043.7" y2="940.44" style="fill: none; stroke: #ac193a; stroke-miterlimit: 10; stroke-width: 5.18px;"/>
                <line x1="900.97" y1="1018.25" x2="1043.77" y2="939.7" style="fill: none; stroke: #ae1a3b; stroke-miterlimit: 10; stroke-width: 4.89px;"/>
                <line x1="900.69" y1="1017.63" x2="1043.85" y2="938.96" style="fill: none; stroke: #af1b3c; stroke-miterlimit: 10; stroke-width: 4.59px;"/>
                <line x1="900.42" y1="1017.02" x2="1043.92" y2="938.22" style="fill: none; stroke: #b11b3d; stroke-miterlimit: 10; stroke-width: 4.3px;"/>
                <line x1="900.15" y1="1016.41" x2="1044" y2="937.48" style="fill: none; stroke: #b31c3e; stroke-miterlimit: 10; stroke-width: 4.01px;"/>
                <line x1="899.88" y1="1015.79" x2="1044.07" y2="936.74" style="fill: none; stroke: #b41d3f; stroke-miterlimit: 10; stroke-width: 3.71px;"/>
                <line x1="899.6" y1="1015.18" x2="1044.15" y2="936" style="fill: none; stroke: #b61d40; stroke-miterlimit: 10; stroke-width: 3.42px;"/>
                <line x1="899.33" y1="1014.56" x2="1044.22" y2="935.26" style="fill: none; stroke: #b71e40; stroke-miterlimit: 10; stroke-width: 3.13px;"/>
                <line x1="899.06" y1="1013.95" x2="1044.3" y2="934.52" style="fill: none; stroke: #b91e41; stroke-miterlimit: 10; stroke-width: 2.84px;"/>
                <line x1="898.79" y1="1013.34" x2="1044.37" y2="933.78" style="fill: none; stroke: #ba1f42; stroke-miterlimit: 10; stroke-width: 2.54px;"/>
                <line x1="898.51" y1="1012.72" x2="1044.45" y2="933.04" style="fill: none; stroke: #bc2043; stroke-miterlimit: 10; stroke-width: 2.25px;"/>
                <line x1="898.24" y1="1012.11" x2="1044.53" y2="932.3" style="fill: none; stroke: #be2044; stroke-miterlimit: 10; stroke-width: 1.96px;"/>
                <line x1="897.97" y1="1011.5" x2="1044.6" y2="931.56" style="fill: none; stroke: #bf2145; stroke-miterlimit: 10; stroke-width: 1.66px;"/>
                <line x1="897.7" y1="1010.88" x2="1044.68" y2="930.82" style="fill: none; stroke: #c12246; stroke-miterlimit: 10; stroke-width: 1.37px;"/>
                <line x1="897.42" y1="1010.27" x2="1044.75" y2="930.08" style="fill: none; stroke: #c22246; stroke-miterlimit: 10; stroke-width: 1.08px;"/>
                <line x1="897.15" y1="1009.66" x2="1044.83" y2="929.34" style="fill: none; stroke: #c42347; stroke-miterlimit: 10; stroke-width: .78px;"/>
                <line x1="896.88" y1="1009.04" x2="1044.9" y2="928.6" style="fill: none; stroke: #c52348; stroke-miterlimit: 10; stroke-width: .49px;"/>
                <line x1="896.61" y1="1008.43" x2="1044.98" y2="927.86" style="fill: none; stroke: #c72449; stroke-miterlimit: 10; stroke-width: .2px;"/>
              </g>
              <g>
                <line x1="1012.38" y1="931.32" x2="859.67" y2="1013.53" style="fill: none; opacity: .7; stroke: #82152c; stroke-miterlimit: 10; stroke-width: 6.35px;"/>
                <line x1="1013.87" y1="931.22" x2="861.37" y2="1013.35" style="fill: none; opacity: .71; stroke: #85162d; stroke-miterlimit: 10; stroke-width: 6.06px;"/>
                <line x1="1015.37" y1="931.11" x2="863.07" y2="1013.16" style="fill: none; opacity: .73; stroke: #88162f; stroke-miterlimit: 10; stroke-width: 5.77px;"/>
                <line x1="1016.87" y1="931" x2="864.78" y2="1012.98" style="fill: none; opacity: .74; stroke: #8c1730; stroke-miterlimit: 10; stroke-width: 5.47px;"/>
                <line x1="1018.36" y1="930.9" x2="866.48" y2="1012.79" style="fill: none; opacity: .76; stroke: #8f1732; stroke-miterlimit: 10; stroke-width: 5.18px;"/>
                <line x1="1019.86" y1="930.79" x2="868.18" y2="1012.61" style="fill: none; opacity: .77; stroke: #921833; stroke-miterlimit: 10; stroke-width: 4.89px;"/>
                <line x1="1021.35" y1="930.68" x2="869.88" y2="1012.43" style="fill: none; opacity: .79; stroke: #951934; stroke-miterlimit: 10; stroke-width: 4.59px;"/>
                <line x1="1022.85" y1="930.58" x2="871.59" y2="1012.24" style="fill: none; opacity: .8; stroke: #991936; stroke-miterlimit: 10; stroke-width: 4.3px;"/>
                <line x1="1024.34" y1="930.47" x2="873.29" y2="1012.06" style="fill: none; opacity: .81; stroke: #9c1a37; stroke-miterlimit: 10; stroke-width: 4.01px;"/>
                <line x1="1025.84" y1="930.36" x2="874.99" y2="1011.87" style="fill: none; opacity: .83; stroke: #9f1b38; stroke-miterlimit: 10; stroke-width: 3.71px;"/>
                <line x1="1027.34" y1="930.26" x2="876.69" y2="1011.69" style="fill: none; opacity: .84; stroke: #a21b3a; stroke-miterlimit: 10; stroke-width: 3.42px;"/>
                <line x1="1028.83" y1="930.15" x2="878.4" y2="1011.5" style="fill: none; opacity: .86; stroke: #a61c3b; stroke-miterlimit: 10; stroke-width: 3.13px;"/>
                <line x1="1030.33" y1="930.04" x2="880.1" y2="1011.32" style="fill: none; opacity: .87; stroke: #a91c3d; stroke-miterlimit: 10; stroke-width: 2.84px;"/>
                <line x1="1031.82" y1="929.94" x2="881.8" y2="1011.13" style="fill: none; opacity: .89; stroke: #ac1d3e; stroke-miterlimit: 10; stroke-width: 2.54px;"/>
                <line x1="1033.32" y1="929.83" x2="883.5" y2="1010.95" style="fill: none; opacity: .9; stroke: #af1e3f; stroke-miterlimit: 10; stroke-width: 2.25px;"/>
                <line x1="1034.82" y1="929.72" x2="885.21" y2="1010.76" style="fill: none; opacity: .91; stroke: #b31e41; stroke-miterlimit: 10; stroke-width: 1.96px;"/>
                <line x1="1036.31" y1="929.62" x2="886.91" y2="1010.58" style="fill: none; opacity: .93; stroke: #b61f42; stroke-miterlimit: 10; stroke-width: 1.66px;"/>
                <line x1="1037.81" y1="929.51" x2="888.61" y2="1010.4" style="fill: none; opacity: .94; stroke: #b92043; stroke-miterlimit: 10; stroke-width: 1.37px;"/>
                <line x1="1039.3" y1="929.4" x2="890.32" y2="1010.21" style="fill: none; opacity: .96; stroke: #bc2045; stroke-miterlimit: 10; stroke-width: 1.08px;"/>
                <line x1="1040.8" y1="929.3" x2="892.02" y2="1010.03" style="fill: none; opacity: .97; stroke: #c02146; stroke-miterlimit: 10; stroke-width: .78px;"/>
                <line x1="1042.3" y1="929.19" x2="893.72" y2="1009.84" style="fill: none; opacity: .99; stroke: #c32148; stroke-miterlimit: 10; stroke-width: .49px;"/>
                <line x1="895.42" y1="1009.66" x2="1043.79" y2="929.08" style="fill: none; stroke: #c62249; stroke-miterlimit: 10; stroke-width: .2px;"/>
              </g>
              <path d="M891.5,1352.65l-267.51-66.58c-11.45-2.85-20.72-14.77-20.72-26.64v-315.72c0-11.86,9.28-19.17,20.72-16.32l267.51,66.58c11.45,2.85,20.72,14.77,20.72,26.64v315.72c0,11.86-9.28,19.17-20.72,16.32Z" style="fill: #82152c;"/>
              <path d="M813.22,1282.23l-2.5-.14-33.75-171.03,35.75,9.39v-9.07l-37.64-9.88-7.38-37.4c5.63-2.71,9.29-8.43,9.29-15.98,0-10.42-6.94-21.03-16.45-26.33v-40.37l-13.04-3.42v40.37c-9.51,.32-16.45,7.28-16.45,17.7,0,7.55,3.66,15.19,9.29,20.86l-7.38,33.52-37.64-9.88v9.07l35.75,9.39-33.75,153.31-2.5-1.18-3.24,14.7,2.5,1.18,3.32,1.56,3.46,14.95,2.66-12.07,3.24-14.7,34.16-155.17,26.2,6.88,34.16,173.11,3.24,16.4,2.66,13.47,3.46-13.13,3.32,.18,2.5,.14-3.24-16.4Zm-70.41-189.21l6.53-29.67c1.51,.71,3.08,1.29,4.68,1.71,1.6,.42,3.17,.66,4.68,.75l6.53,33.1-22.42-5.89Z" style="fill: #fafcfd;"/>
            </g>
          </g>
          <g id="Cubo_Amarillo" data-name="Cubo Amarillo">
            <g style="clip-path: url(#clippath-1);">
              <path d="M1050.32,934.47l267.51-66.58c4.84-1.2,9.28-.59,12.81,1.41,4.82,2.73,102.13,57.55,105.71,59.72,4.61,2.79,7.55,8.03,7.55,14.71v315.72c0,11.86-9.28,23.79-20.72,26.64l-267.51,66.58c-4.92,1.22-9.43,.57-12.98-1.51-4.72-2.76-101.97-57.45-105.55-59.63-4.61-2.79-7.54-8.03-7.54-14.7v-315.72c0-11.86,9.28-23.79,20.72-26.64Z" style="fill: #a27917;"/>
              <g>
                <line x1="1148.45" y1="1351.43" x2="1001.66" y2="1267.99" style="fill: none; stroke: #815d13; stroke-miterlimit: 10; stroke-width: 7.02px;"/>
                <line x1="1148.62" y1="1349.75" x2="1001.83" y2="1266.32" style="fill: none; stroke: #835e13; stroke-miterlimit: 10; stroke-width: 6.72px;"/>
                <line x1="1148.79" y1="1348.08" x2="1002" y2="1264.64" style="fill: none; stroke: #846013; stroke-miterlimit: 10; stroke-width: 6.42px;"/>
                <line x1="1148.95" y1="1346.4" x2="1002.16" y2="1262.97" style="fill: none; stroke: #866114; stroke-miterlimit: 10; stroke-width: 6.13px;"/>
                <line x1="1149.12" y1="1344.73" x2="1002.33" y2="1261.29" style="fill: none; stroke: #876214; stroke-miterlimit: 10; stroke-width: 5.83px;"/>
                <line x1="1149.29" y1="1343.05" x2="1002.5" y2="1259.62" style="fill: none; stroke: #896414; stroke-miterlimit: 10; stroke-width: 5.53px;"/>
                <line x1="1149.46" y1="1341.38" x2="1002.67" y2="1257.94" style="fill: none; stroke: #8a6514; stroke-miterlimit: 10; stroke-width: 5.24px;"/>
                <line x1="1149.63" y1="1339.7" x2="1002.84" y2="1256.27" style="fill: none; stroke: #8c6614; stroke-miterlimit: 10; stroke-width: 4.94px;"/>
                <line x1="1149.8" y1="1338.03" x2="1003.01" y2="1254.59" style="fill: none; stroke: #8e6815; stroke-miterlimit: 10; stroke-width: 4.64px;"/>
                <line x1="1149.97" y1="1336.35" x2="1003.18" y2="1252.92" style="fill: none; stroke: #8f6915; stroke-miterlimit: 10; stroke-width: 4.34px;"/>
                <line x1="1150.14" y1="1334.68" x2="1003.35" y2="1251.24" style="fill: none; stroke: #916a15; stroke-miterlimit: 10; stroke-width: 4.05px;"/>
                <line x1="1150.31" y1="1333" x2="1003.52" y2="1249.57" style="fill: none; stroke: #926c15; stroke-miterlimit: 10; stroke-width: 3.75px;"/>
                <line x1="1150.48" y1="1331.33" x2="1003.69" y2="1247.89" style="fill: none; stroke: #946d15; stroke-miterlimit: 10; stroke-width: 3.45px;"/>
                <line x1="1150.65" y1="1329.65" x2="1003.86" y2="1246.22" style="fill: none; stroke: #956e15; stroke-miterlimit: 10; stroke-width: 3.16px;"/>
                <line x1="1150.82" y1="1327.98" x2="1004.02" y2="1244.54" style="fill: none; stroke: #977016; stroke-miterlimit: 10; stroke-width: 2.86px;"/>
                <line x1="1150.98" y1="1326.3" x2="1004.19" y2="1242.87" style="fill: none; stroke: #997116; stroke-miterlimit: 10; stroke-width: 2.56px;"/>
                <line x1="1151.15" y1="1324.63" x2="1004.36" y2="1241.19" style="fill: none; stroke: #9a7216; stroke-miterlimit: 10; stroke-width: 2.27px;"/>
                <line x1="1151.32" y1="1322.95" x2="1004.53" y2="1239.52" style="fill: none; stroke: #9c7416; stroke-miterlimit: 10; stroke-width: 1.97px;"/>
                <line x1="1151.49" y1="1321.28" x2="1004.7" y2="1237.84" style="fill: none; stroke: #9d7516; stroke-miterlimit: 10; stroke-width: 1.67px;"/>
                <line x1="1151.66" y1="1319.6" x2="1004.87" y2="1236.17" style="fill: none; stroke: #9f7617; stroke-miterlimit: 10; stroke-width: 1.37px;"/>
                <line x1="1151.83" y1="1317.93" x2="1005.04" y2="1234.49" style="fill: none; stroke: #a07817; stroke-miterlimit: 10; stroke-width: 1.08px;"/>
                <line x1="1152" y1="1316.25" x2="1005.21" y2="1232.82" style="fill: none; stroke: #a27917; stroke-miterlimit: 10; stroke-width: .78px;"/>
              </g>
              <polygon points="1444.35 924.64 1312.94 839.97 1005.16 930.77 1151.73 1010.18 1456.18 945.5 1444.35 924.64" style="fill: #f9b510; opacity: .6;"/>
              <g>
                <line x1="1144.9" y1="1022.83" x2="1003.83" y2="944.92" style="fill: none; stroke: #a27917; stroke-miterlimit: 10; stroke-width: .78px;"/>
                <line x1="1145.18" y1="1022.22" x2="1003.76" y2="944.18" style="fill: none; opacity: .98; stroke: #a67c17; stroke-miterlimit: 10; stroke-width: .78px;"/>
                <line x1="1145.45" y1="1021.61" x2="1003.68" y2="943.44" style="fill: none; opacity: .96; stroke: #aa7f16; stroke-miterlimit: 10; stroke-width: .78px;"/>
                <line x1="1145.72" y1="1020.99" x2="1003.61" y2="942.7" style="fill: none; opacity: .94; stroke: #ae8216; stroke-miterlimit: 10; stroke-width: .78px;"/>
                <line x1="1145.99" y1="1020.38" x2="1003.53" y2="941.96" style="fill: none; opacity: .92; stroke: #b38416; stroke-miterlimit: 10; stroke-width: .78px;"/>
                <line x1="1146.27" y1="1019.77" x2="1003.46" y2="941.22" style="fill: none; opacity: .9; stroke: #b78715; stroke-miterlimit: 10; stroke-width: .78px;"/>
                <line x1="1146.54" y1="1019.15" x2="1003.38" y2="940.48" style="fill: none; opacity: .89; stroke: #bb8a15; stroke-miterlimit: 10; stroke-width: .78px;"/>
                <line x1="1146.81" y1="1018.54" x2="1003.31" y2="939.74" style="fill: none; opacity: .87; stroke: #bf8d15; stroke-miterlimit: 10; stroke-width: .78px;"/>
                <line x1="1147.08" y1="1017.93" x2="1003.23" y2="939" style="fill: none; opacity: .85; stroke: #c39014; stroke-miterlimit: 10; stroke-width: .78px;"/>
                <line x1="1147.36" y1="1017.31" x2="1003.16" y2="938.26" style="fill: none; opacity: .83; stroke: #c79314; stroke-miterlimit: 10; stroke-width: .78px;"/>
                <line x1="1147.63" y1="1016.7" x2="1003.08" y2="937.52" style="fill: none; opacity: .81; stroke: #cb9614; stroke-miterlimit: 10; stroke-width: .78px;"/>
                <line x1="1147.9" y1="1016.09" x2="1003.01" y2="936.78" style="fill: none; opacity: .79; stroke: #d09813; stroke-miterlimit: 10; stroke-width: .78px;"/>
                <line x1="1148.17" y1="1015.47" x2="1002.93" y2="936.04" style="fill: none; opacity: .77; stroke: #d49b13; stroke-miterlimit: 10; stroke-width: .78px;"/>
                <line x1="1148.45" y1="1014.86" x2="1002.86" y2="935.3" style="fill: none; opacity: .75; stroke: #d89e13; stroke-miterlimit: 10; stroke-width: .78px;"/>
                <line x1="1148.72" y1="1014.24" x2="1002.78" y2="934.56" style="fill: none; opacity: .73; stroke: #dca112; stroke-miterlimit: 10; stroke-width: .78px;"/>
                <line x1="1148.99" y1="1013.63" x2="1002.71" y2="933.82" style="fill: none; opacity: .71; stroke: #e0a412; stroke-miterlimit: 10; stroke-width: .78px;"/>
                <line x1="1149.26" y1="1013.02" x2="1002.63" y2="933.08" style="fill: none; opacity: .7; stroke: #e4a712; stroke-miterlimit: 10; stroke-width: .78px;"/>
                <line x1="1149.54" y1="1012.4" x2="1002.56" y2="932.34" style="fill: none; opacity: .68; stroke: #e8aa11; stroke-miterlimit: 10; stroke-width: .78px;"/>
                <line x1="1149.81" y1="1011.79" x2="1002.48" y2="931.6" style="fill: none; opacity: .66; stroke: #edac11; stroke-miterlimit: 10; stroke-width: .78px;"/>
                <line x1="1150.08" y1="1011.18" x2="1002.41" y2="930.86" style="fill: none; opacity: .64; stroke: #f1af11; stroke-miterlimit: 10; stroke-width: .78px;"/>
                <line x1="1150.35" y1="1010.56" x2="1002.33" y2="930.12" style="fill: none; opacity: .62; stroke: #f5b210; stroke-miterlimit: 10; stroke-width: .78px;"/>
                <line x1="1150.63" y1="1009.95" x2="1002.26" y2="929.38" style="fill: none; opacity: .6; stroke: #f9b510; stroke-miterlimit: 10; stroke-width: .78px;"/>
              </g>
              <path d="M1155.67,1352.65l267.51-66.58c11.45-2.85,20.72-14.77,20.72-26.64v-315.72c0-11.86-9.28-19.17-20.72-16.32l-267.51,66.58c-11.45,2.85-20.72,14.77-20.72,26.64v315.72c0,11.86,9.28,19.17,20.72,16.32Z" style="fill: #f9b510;"/>
              <path d="M1307.45,1121.98c-1.17-3.77-1.47-5.67-1.53-8.2v-110.85l5.96-1.53c2.57-.66,4.66-3.3,4.66-5.86v-9.48c0-2.57-2.1-4.12-4.66-3.46l-45.8,11.78c-2.57,.66-4.66,3.3-4.66,5.86v9.48c0,2.57,2.1,4.12,4.66,3.46l5.96-1.53v112.38c-.14,1.72-.57,3.58-1.72,7.51l-73.51,171.09c0,7.58,6.2,12.19,13.78,10.24l156.77-40.32c7.58-1.95,13.78-9.75,13.78-17.33l-73.7-133.22Z" style="fill: #9d163b;"/>
            </g>
          </g>
          <g id="Cubo_celeste" data-name="Cubo celeste">
            <g style="clip-path: url(#clippath-2);">
              <rect x="823.04" y="601.95" width="400.91" height="360.66" rx="17.81" ry="17.81" style="fill: #7793a8;"/>
              <rect x="813.18" y="799.25" width="87.6" height="184.67" style="fill: url(#Degradado_sin_nombre_54);"/>
              <rect x="1174.12" y="782.29" width="86.53" height="263.2" style="fill: url(#Degradado_sin_nombre_64);"/>
              <rect x="823.04" y="484.76" width="400.91" height="360.66" rx="17.81" ry="17.81" style="fill: #b1d0e9;"/>
              <g id="Atomo">
                <g>
                  <ellipse cx="1023.5" cy="723.69" rx="166.32" ry="28.64" style="fill: none; stroke: #1f3766; stroke-miterlimit: 10; stroke-width: 3.64px;"/>
                  <ellipse cx="1023.5" cy="723.69" rx="39.07" ry="121.93" transform="translate(-205.03 972.68) rotate(-46.72)" style="fill: none; stroke: #1f3766; stroke-miterlimit: 10; stroke-width: 3.64px;"/>
                  <ellipse cx="1023.5" cy="723.69" rx="121.93" ry="39.07" transform="translate(-217.76 898.5) rotate(-43.28)" style="fill: none; stroke: #1f3766; stroke-miterlimit: 10; stroke-width: 3.64px;"/>
                </g>
                <ellipse cx="1023.5" cy="723.69" rx="23.08" ry="13.96" style="fill: #1f3766;"/>
              </g>
            </g>
          </g>
        </g>
      </g>
    </g>
  </g>
</svg>