<?xml version="1.0" encoding="UTF-8"?>
<svg id="Layer_2" data-name="Layer 2" xmlns="http://www.w3.org/2000/svg" viewBox="0 0 2047 1187.77">
  <g id="Logos-IngNaval">
    <g id="Logo-IngNaval-Oficial-Pantone2758C">
      <rect y="0" width="2047" height="1187.77" style="fill: none;"/>
      <path d="M1943.57,514.47s-219.46,228.62-946.41,119.43c-12.23-1.84-54.69-8.61-84.86-12.22-132.18-15.8-506.13-46.91-703.04,75.94,0,0,59.71-250.1,1000.94-117.95,13.62,1.91,66.2,8.43,106.68,11.04,147.42,9.51,502.91,21.09,626.69-76.26Zm-451.04-57.25h-10.48v86.02h10.48v-86.02Zm-343.84,42.11c0-10.46-.28-19.61-.84-27.45h.39c4.58,7.24,9.78,15.03,15.62,23.4l33.75,47.95h10.48v-86.02h-10.55v45.78c0,8.69,.28,17.23,.83,25.58h-.38c-5.14-8.02-10.35-15.82-15.62-23.4l-33.75-47.96h-10.41v86.02h10.48v-43.9Zm223.69,34.46h-44.08v-29.89h37.09v-9.46h-37.09v-27.76h41.72v-9.46h-52.2v86.02h54.56v-9.45Zm-134.08-.52c3.81,3.69,8.53,6.53,14.17,8.55,5.63,2.01,12.15,3.03,19.51,3.03,2.49,0,5-.13,7.56-.38,2.54-.26,4.94-.61,7.16-1.03,2.23-.43,4.22-.89,5.95-1.38,1.73-.49,3.05-.97,3.95-1.44v-41.6h-30.08v9.45h19.61v25.59c-1.87,.47-4.01,.83-6.42,1.09-2.41,.26-4.85,.38-7.32,.38-5.34,0-10.2-.67-14.56-2.02-4.36-1.35-8.07-3.44-11.14-6.26-3.06-2.83-5.42-6.41-7.1-10.74s-2.51-9.47-2.51-15.43,1.01-11.39,3.03-15.91c2.01-4.52,4.71-8.28,8.1-11.28,3.38-3,7.3-5.24,11.73-6.71,4.44-1.48,9.1-2.23,13.99-2.23,3.34,0,6.68,.29,10.02,.88,3.35,.57,6.31,1.29,8.87,2.15v-9.26c-.99-.43-2.2-.83-3.67-1.23-1.45-.38-3.04-.71-4.76-.99-1.71-.28-3.51-.49-5.4-.64-1.89-.16-3.77-.22-5.66-.22-6.98,0-13.38,1.1-19.18,3.31-5.81,2.2-10.76,5.34-14.85,9.41-4.1,4.07-7.23,8.99-9.39,14.72-2.16,5.75-3.24,12.13-3.24,19.16,0,6.47,.99,12.34,2.96,17.61,1.97,5.27,4.86,9.75,8.68,13.44Zm162.57-33.94c0-10.46-.29-19.61-.85-27.45h.4c4.57,7.24,9.78,15.03,15.61,23.4l33.76,47.95h10.48v-86.02h-10.55v45.78c0,8.69,.27,17.23,.83,25.58h-.38c-5.15-8.02-10.35-15.82-15.63-23.4l-33.74-47.96h-10.41v86.02h10.48v-43.9Zm298.9,43.9h-11.25l35.04-86.02h9.06l35.02,86.02h-11.38l-10.26-25.91h-35.96l-10.28,25.91Zm14.01-35.36h28.52l-3.26-8.1c-3.53-8.91-7.13-18.63-10.8-29.19h-.25c-3.85,10.71-7.51,20.44-11,29.19l-3.22,8.1Zm-28.27-71.09h-11.2l-9.38,15.88h8.93l11.65-15.88Zm-569.16,20.43h-10.48v86.02h10.48v-86.02Zm571.95,471.64h50.67v-296.8c-15.86,4.56-32.75,8.94-50.67,13.08v283.72Zm-90.87-385.63h-10.48v-86.02h22.29c3.76,0,6.97,.15,9.6,.43,2.63,.27,5.04,.71,7.22,1.32,5.98,1.63,10.57,4.4,13.74,8.32,3.17,3.92,4.75,8.82,4.75,14.69,0,3.47-.56,6.58-1.66,9.32-1.12,2.74-2.68,5.13-4.7,7.14-2,2.01-4.43,3.65-7.22,4.95-2.81,1.28-5.94,2.23-9.36,2.82v.26l25.46,36.77h-10.48l-26.49-35.61h-12.66v35.61Zm0-45.06h10.35c3.22,0,5.96-.11,8.23-.33,2.27-.21,4.32-.6,6.12-1.16,3.64-1.11,6.43-2.89,8.41-5.33,1.98-2.44,2.95-5.63,2.95-9.58-.02-3.69-.97-6.66-2.81-8.91-1.84-2.25-4.41-3.87-7.65-4.85-1.55-.47-3.4-.82-5.53-1.03-2.16-.21-4.86-.31-8.16-.31h-11.9v31.5Zm-28.47,35.61h-44.1v-29.89h37.09v-9.46h-37.09v-27.76h41.72v-9.46h-52.2v86.02h54.58v-9.45Zm106.38-76.57h-10.48v86.02h10.48v-86.02Zm-895.75,581.94c0,2.01-.1,4.1-.32,6.25-.21,2.16-.58,4.1-1.11,5.86-.8,2.81-1.94,5.38-3.43,7.68-1.49,2.31-3.34,4.29-5.57,5.94-2.23,1.65-4.84,2.92-7.84,3.82-3.01,.89-6.45,1.35-10.32,1.35-7.13,0-12.84-1.49-17.17-4.46-4.33-2.97-7.42-7.03-9.29-12.19-.74-2.06-1.28-4.36-1.62-6.89-.34-2.52-.52-4.98-.52-7.36v-66.12h-12.99v65.8c0,2.86,.18,5.81,.52,8.83,.34,3.03,.92,5.87,1.71,8.53,1.13,3.66,2.68,7.04,4.7,10.15,2.02,3.11,4.61,5.79,7.77,8.05,3.15,2.26,6.93,4.02,11.35,5.3,4.4,1.27,9.52,1.91,15.37,1.91s11.43-.69,15.97-2.08c4.54-1.38,8.43-3.29,11.67-5.74,3.25-2.43,5.87-5.34,7.88-8.68,2.02-3.34,3.54-6.97,4.55-10.91,.58-2.34,1-4.86,1.27-7.57,.26-2.71,.4-5.31,.4-7.8v-65.8h-12.99v66.12Zm-136.25,6.19c-1.17-13.75-2.44-27.49-3.85-41.21-1.33-13.73-2.9-27.44-4.41-41.15-1.4-12.2-2.93-24.39-4.55-36.57,4.71,4.01,9.39,8.06,14.2,11.96,5.98,4.9,11.91,9.87,17.99,14.66-5.43-5.52-11.01-10.87-16.54-16.28-5.5-5.44-11.19-10.67-16.79-15.99l-3.33-3.17,.35,4.69c1.03,13.76,2.21,27.51,3.52,41.25,1.36,13.73,2.68,27.46,4.23,41.17,1.47,13.72,3.08,27.42,4.79,41.11,1.86,13.68,3.44,27.38,5.53,41.03l.14,.93,.85-.04c6.94-.3,13.87-.55,20.81-.99-6.63-.42-13.26-.67-19.88-.95-.79-13.51-2.05-26.96-3.04-40.45Zm314.99-116.49v-285.81c-.62-.09-1.26-.19-1.89-.28h-50.5v129.57c0,16.96,.86,44.05,2.57,81.25h-1.28c-12.83-22.67-29.51-48.61-50.03-77.83l-94.08-132.99h-54.95v286.09h52.38v-129.57c0-19.24-.86-46.4-2.57-81.46h1.29c17.53,30.07,34.49,56.52,50.89,79.32l93.23,131.71h54.95Zm-329.43-64.85c-2.25-3.29-4.58-6.71-7.01-10.27-2.39-3.57-5.33-6.95-8.1-10.61-11.5-14.36-25.95-29.37-43.01-44.26-15.43-13.45-33.13-26.73-52.46-39.59-.03,1.19-.05,1.88-.05,1.88,0,0-.02-.72-.06-1.95-2.02-1.34-3.97-2.71-6.03-4.04-21.77-14.17-45.65-27.65-70.89-40.53-25.24-12.89-51.99-24.92-79.63-35.92-13.38-5.33-26.9-10.24-40.74-14.79,2.82-.9,5.78-1.72,8.65-2.59,11.47,3.96,22.88,8.15,33.98,12.63,1.29,.52,2.56,1.07,3.84,1.6-.09-3.39-.22-8.29-.39-14.52-.06-2.97-.12-6.34-.19-9.9,.49-.12,.96-.25,1.45-.37-.07,3.71-.14,7.19-.2,10.28-.17,6.3-.3,11.24-.39,14.63,22.7,9.25,44.71,19.2,65.81,29.74,1.37-.08,2.92-.16,4.84-.27,6.08-.22,14.77-.76,25.19-1.01,4.63-.11,9.64-.26,14.88-.41-5.76-3.3-11.61-6.57-17.55-9.81-23.49-12.82-48.33-25.09-74.02-36.47-5.53-2.46-11.14-4.82-16.75-7.15,2.81-.68,5.71-1.3,8.57-1.96,3.42,1.47,6.88,2.91,10.26,4.43,25.78,11.55,50.67,23.98,74.23,36.97,8.2,4.48,16.15,9.09,23.97,13.75,3.92-.1,7.91-.18,12.03-.24,5.75-.1,11.72-.16,17.74-.2-.03-1.54-.05-3.1-.07-4.69-14.17-8.97-29.08-17.75-44.61-26.32-19.55-10.64-40.1-20.84-61.31-30.41,2.88-.54,5.76-1.09,8.67-1.62,18.96,8.84,37.33,18.18,54.93,27.86,14.73,8.15,28.81,16.63,42.25,25.31,0-.11,0-.22,0-.34-.11-9.62-.28-20.04-.44-30.99-10.76-7.36-21.96-14.61-33.61-21.68-4.35-2.64-8.77-5.24-13.23-7.84,2.54-.33,5.08-.66,7.64-.97,2.67,1.59,5.44,3.14,8.07,4.75,10.75,6.58,21.1,13.36,31.05,20.27-.13-9.39-.24-19.17-.29-29.22,1.58-.14,3.11-.31,4.7-.45-.06,11.24-.18,22.17-.33,32.56,15.28,10.79,29.5,21.87,42.43,33.06,5.46-5.6,11.01-11.27,16.63-16.99,2.97-2.97,5.92-5.9,8.87-8.85-14.14-14.18-30.5-28.02-48.48-41.24,2.27-.17,4.5-.36,6.79-.52,16.35,12.6,31.24,25.79,44.21,39.23,5.25-5.22,10.45-10.37,15.49-15.26,3.62-3.55,7.15-6.92,10.57-10.18-3.35-4.36-6.78-8.66-10.5-12.72-1.13-1.33-2.38-2.54-3.54-3.83,1.51-.05,3.02-.1,4.53-.14,.51,.6,1.07,1.14,1.57,1.75,3.62,4.08,6.95,8.4,10.21,12.78,3.91-3.71,7.63-7.22,11.03-10.48,1.69-1.62,3.33-3.16,4.89-4.62,1.19-.02,2.38-.02,3.58-.04-1.95,2.15-4.01,4.4-6.29,6.82-3.36,3.56-6.98,7.46-10.82,11.57,1.13,1.55,2.29,3.08,3.41,4.64l7.07,11.02c2.19,3.77,4.13,7.69,6.2,11.53,2.21,3.77,3.54,7.97,5.35,11.93,1.85,3.96,3.11,8.14,4.39,12.3l1.96,6.23c.54,2.11,.9,4.26,1.36,6.39,.8,4.28,1.97,8.49,2.15,12.86,.29,4.34,1.01,8.65,.88,12.99l-.36,13.01-.12-12.99c-.02-4.32-.94-8.6-1.33-12.89-.26-3.73-1.23-7.34-2.08-10.96-1.33,.07-4.32,.24-8.74,.49-4.32,.16-10,.47-16.63,.73,5.34,8.47,9.91,16.81,13.59,24.76,1.47,3.42,2.89,6.73,4.26,9.93,1.25,3.24,2.2,6.47,3.25,9.51,2.27,6.04,3.25,11.91,4.57,17.07,2,10.48,2.95,18.84,2.94,24.54,.19,5.7,.29,8.74,.29,8.74,0,0-.2-3.03-.59-8.72-.16-5.71-1.47-13.99-3.68-24.32-1.44-5.1-2.55-10.89-4.96-16.82-1.12-2.99-2.14-6.15-3.46-9.33-1.44-3.13-2.93-6.37-4.47-9.72-4.06-8.19-9.09-16.79-14.94-25.51-1.76,.06-3.5,.12-5.37,.16-10.42,.24-22.58,.71-35.61,.87-.25,0-.53,0-.79,0,2.76,2.65,5.5,5.3,8.1,7.95,13.44,13.61,24.59,27.21,33.6,39.86,4.27,6.49,8.46,12.43,11.65,18.36,1.64,2.93,3.37,5.66,4.73,8.42,1.35,2.77,2.63,5.41,3.85,7.91,.39,.74,.72,1.47,1.07,2.2,1.75,.21,3.31,.41,4.55,.54,2.29,.29,3.6,.53,3.6,.53,0,0-1.31,.24-3.6,.53-1,.1-2.25,.27-3.6,.43,1.48,3.39,2.62,6.61,3.77,9.45,1.68,3.99,2.72,7.52,3.54,10.38,1.7,5.71,2.6,8.75,2.6,8.75,0,0-1-3.01-2.88-8.66-.9-2.83-2.05-6.32-3.86-10.24-1.29-2.87-2.54-6.14-4.16-9.58-1.49,.18-3.09,.36-4.88,.5-2.71,.24-5.8,.44-9.02,.61,7.96,12.36,13.59,24.16,17.37,34.28,1.77,5.76,3.72,10.79,4.44,15.44,.91,4.59,1.95,8.44,2.07,11.67,.61,6.41,.93,9.83,.93,9.83,0,0-.41-3.41-1.17-9.8-.19-3.22-1.33-7.04-2.34-11.58-.83-4.6-2.89-9.57-4.79-15.24-4.11-10.22-10.15-22.11-18.67-34.49-5.54,.26-11.53,.43-17.58,.44-.85,0-1.7-.02-2.55-.03,6.14,6.84,11.7,13.65,16.53,20.34,10.33,14.17,17.47,27.77,22.24,39.39,4.3,11.82,6.5,21.47,7.32,28.13,.66,6.68,1.02,10.24,1.02,10.24,0,0-.44-3.55-1.25-10.21-.97-6.62-3.39-16.2-7.93-27.82-5.01-11.44-12.41-24.75-22.97-38.55-5.4-7.09-11.61-14.3-18.5-21.56-8.33-.15-16.34-.54-22.65-1.1-3.92-.31-7.19-.8-9.48-1.04-.34-.04-.61-.08-.91-.12,.87,.76,1.8,1.51,2.66,2.27,17.06,15.16,31.29,30.62,42.53,45.35,2.72,3.75,5.59,7.21,7.92,10.86,2.36,3.63,4.64,7.13,6.82,10.49,2.08,3.42,3.84,6.85,5.65,10.05,.89,1.61,1.76,3.18,2.6,4.71,.73,1.59,1.44,3.15,2.13,4.66,1.37,3.03,2.67,5.89,3.9,8.58,1.19,2.71,1.97,5.38,2.87,7.8,1.75,4.85,3.24,8.98,3.96,12.47,1.73,6.89,2.66,10.57,2.66,10.57,0,0-1-3.65-2.89-10.5-.79-3.47-2.37-7.56-4.22-12.36-.96-2.39-1.79-5.03-3.03-7.7-1.28-2.66-2.63-5.48-4.07-8.46-.72-1.49-1.46-3.02-2.22-4.58-.88-1.51-1.77-3.05-2.69-4.63-1.87-3.14-3.69-6.5-5.84-9.86Zm-134.31-156c7.77,4.76,15.32,9.58,22.68,14.46-.1-4.43-.21-9.15-.31-14.17-6.05-.05-12.05-.1-17.83-.21-1.54-.02-3.02-.06-4.54-.08Zm15.42,40.98c1-1.13,2.51-2.85,4.56-5.18,.95-1.03,1.99-2.19,3.12-3.45-.08-3.83-.18-8.09-.29-12.81-10.29-6.68-20.99-13.27-32.07-19.74-7.8-.2-15.18-.44-21.8-.59-10.42-.25-19.11-.78-25.19-1.01-1.37-.08-2.56-.14-3.66-.2,2.93,1.47,5.9,2.9,8.79,4.39,23.71,12.11,45.99,25.11,66.56,38.59Zm8.06,5.36c-.09-3.06-.2-7.06-.34-11.97,0,0,0-.02,0-.03-.83,.76-1.68,1.53-2.4,2.21-2.29,2.04-3.98,3.56-5.11,4.56,2.65,1.74,5.26,3.48,7.85,5.23Zm105.48,37.07c-9.64-12.99-21.8-26.46-36.25-39.87-12.58-11.64-26.95-23.18-42.64-34.42-4.33,4.11-8.44,7.99-12.17,11.57-.86,.83-1.66,1.57-2.5,2.36,19.95,13.85,38.09,28.07,53.78,42.41,6.49,5.9,12.41,11.84,18,17.76,2.49-.05,5.01-.09,7.54-.09,4.84,0,9.66,.12,14.24,.29Zm-76.26-83.04c-2.45,0-4.87,.02-7.32,.03-.24,0-.48,0-.73,0,1.62,1.15,3.17,2.32,4.76,3.47,1.09-1.16,2.17-2.31,3.3-3.5Zm28.09-.23c-7.04,.1-14.24,.16-21.57,.2-2.14,2.08-4.24,4.11-6.31,6.08,15.42,11.4,29.55,23.07,41.93,34.86,14.91,14.11,27.22,28.48,36.74,42.23,4.33,.2,8.41,.45,11.93,.76,1.37,.11,2.54,.25,3.73,.38-.28-.54-.53-1.07-.83-1.61-1.27-2.46-2.61-5.05-4.01-7.77-1.42-2.71-3.21-5.38-4.91-8.25-3.3-5.81-7.62-11.61-12-17.95-9.27-12.32-20.65-25.52-34.13-38.87-3.38-3.36-6.9-6.72-10.55-10.08Zm19.07-40.33c6.58,7.04,12.65,14.13,18.12,21.23,3.94,5.11,7.44,10.22,10.74,15.3,7.37,.27,13.62,.63,18.3,.8,4.4,.25,7.38,.41,8.72,.49-.13-.55-.26-1.09-.38-1.64-.51-2.09-.93-4.21-1.52-6.28l-2.11-6.12c-1.38-4.08-2.73-8.17-4.67-12.04-1.9-3.87-3.32-7.96-5.6-11.63-2.15-3.73-4.16-7.54-6.43-11.2l-7.16-10.75c-1.02-1.37-2.08-2.71-3.1-4.08-3.11,3.32-6.32,6.73-9.7,10.23-4.87,5.1-10,10.37-15.21,15.68Zm-27.79,27.92c2.81,2.48,5.48,4.97,8.16,7.45,1.98,.03,4.04,.03,5.98,.07,13.03,.16,25.19,.63,35.61,.87,1.22,.03,2.32,.07,3.49,.11-3.04-4.41-6.24-8.85-9.75-13.3-5.47-6.93-11.56-13.81-18.14-20.63-2.92,2.97-5.82,5.94-8.76,8.92-5.58,5.57-11.11,11.09-16.58,16.51Zm-7.41,7.28c3.56,.02,6.98,.07,10.47,.11-1.86-1.64-3.65-3.29-5.56-4.93-1.64,1.62-3.28,3.24-4.9,4.82Zm-39.47-7.86c3.95,2.58,7.8,5.19,11.62,7.82,2.86-.01,5.7-.03,8.57-.04,4.18,.02,8.31,.04,12.46,.06,.17-.18,.33-.35,.5-.53,2.34-2.46,4.84-5.01,7.28-7.52-12.27-10.26-25.67-20.41-40-30.36-.15,9.93-.3,19.47-.4,28.28,0,.78-.02,1.52-.03,2.29Zm-.12,7.87c1.44,0,2.91-.01,4.36-.02-1.44-.94-2.85-1.89-4.31-2.82-.02,.97-.03,1.89-.05,2.84Zm-.43,20.74c2.81,1.88,5.64,3.75,8.39,5.64,.89-.96,1.74-1.89,2.69-2.89,3.42-3.62,7.1-7.59,11-11.77-1.99-1.4-3.91-2.82-5.94-4.21-1.06-.72-2.18-1.43-3.25-2.15-4.19-.02-8.41-.03-12.55-.06-.11,5.52-.22,10.66-.34,15.45Zm-.36,15.27c1.8-2.01,3.78-4.22,5.98-6.63-1.88-1.26-3.82-2.5-5.74-3.75-.09,3.74-.17,7.21-.24,10.38Zm50.48,54.54c.5-.07,1.05-.15,1.73-.24,2.29-.23,5.56-.73,9.48-1.04,4.99-.44,11.08-.77,17.51-.97-5.15-5.19-10.53-10.39-16.36-15.59-15.95-14.22-34.38-28.24-54.68-41.91-3.03,2.81-5.81,5.33-8.2,7.51,0,.33-.02,.7-.02,1.03-.14,5.06-.26,9.14-.35,12.23,18.69,12.69,35.76,25.76,50.89,38.96Zm.3-495.45c25.28-7.44,46.34-13.64,61.09-17.97,9.48-2.85,16.29-4.9,19.98-6.01v76.03c-2.07-.21-4.77-.48-8.11-.81-4.01-.42-8.91-.71-14.48-1.43-5.57-.73-11.85-1.55-18.71-2.32-6.81-1.09-14.18-2.28-21.98-3.53-7.7-1.71-15.92-3.07-24.21-5.31-8.38-1.91-16.82-4.58-25.33-7.44-4.17-1.65-8.43-3.19-12.59-4.96-4.05-2.01-8.26-3.76-12.2-5.98-1.56-.92-3.15-1.78-4.73-2.66-2.29,.66-4.61,1.32-6.93,1.99,2.96,1.93,6.05,3.66,9.08,5.49,2.5,1.38,5.08,2.57,7.67,3.73,.05-1.85,.08-2.83,.08-2.83,0,0,.03,1.01,.08,2.9,1.63,.73,3.26,1.45,4.86,2.22,4.31,1.77,8.69,3.29,12.99,4.92,8.74,2.81,17.39,5.42,25.92,7.24,8.44,2.25,16.82,3.22,24.66,4.63,7.91,.94,15.38,1.83,22.28,2.65,6.92,.55,13.27,.95,18.9,1.29,5.62,.35,10.54,.32,14.58,.46,3.37,.05,6.1,.1,8.18,.13v24.27c2.92,.31,4.52,.47,4.52,.47,0,0-1.61-.05-4.52-.15v30.46c2.03,.05,3.15,.07,3.15,.07,0,0-1.12,.03-3.15,.07v25.88c2.03-.97,3.15-1.51,3.15-1.51,0,0-1.13,.62-3.15,1.73v19.26c2.92,.6,4.52,.93,4.52,.93,0,0-1.6-.24-4.52-.68v53.75c2.05,.05,3.15,.08,3.15,.08,0,0-1.1,.03-3.15,.08v22.46c24.48-.95,50.2-1.47,77.37-1.47,90.17,0,190.77,5.56,300.43,16.5,47.74-51.49,89.98-139.02,58.66-280.42,0,0-103.12-98.5-436.46-162.35v48.17c9.94,2.6,20.07,5.05,30.09,8.12,20.11,6.55,40.85,12.4,61.05,19.73,10.06,3.76,20.13,7.53,30.15,11.28l15,5.62c4.91,2.05,9.81,4.1,14.68,6.14,9.76,4.05,19.4,8.19,28.87,12.38,9.49,4.15,18.91,8.13,27.89,12.68,18.15,8.68,35.49,17.48,51.95,25.75,16.23,8.72,31.32,17.45,45.27,25.41,6.96,3.99,13.64,7.82,19.98,11.46,6.27,3.77,12.04,7.67,17.55,11.16,10.92,7.14,20.43,13.37,28.27,18.5,15.58,10.38,24.33,16.51,24.33,16.51,0,0-9.83-4.31-26.79-12.18-8.43-4-18.66-8.86-30.4-14.43-11.59-5.82-24.99-11.74-39.54-18.27-14.57-6.5-30.26-13.68-46.79-21.36-16.83-7.05-34.59-14.4-52.75-22.43-18.14-8.1-37.63-14.64-56.8-22.77-4.83-1.94-9.68-3.89-14.54-5.85l-14.84-5.32c-9.91-3.56-19.86-7.14-29.81-10.72-19.78-7.5-40.05-13.49-59.74-20.22-7.77-2.26-15.45-4.6-23.09-6.94v101.6c-3.72,.94-10.63,2.7-20.26,5.14-14.87,3.87-36.12,9.4-61.62,16.04-19.61,5.24-41.75,11.15-65.42,17.48,1.62,1.08,3.25,2.13,4.96,3.08,22.12-6.35,42.83-12.3,61.28-17.6Zm351.29,674.91l43.42,106.58h-14.12l-12.71-32.1h-44.57l-12.71,32.1h-13.94l43.41-106.58h11.23Zm7.95,52.75c-4.37-11.05-8.83-23.1-13.37-36.18h-.3c-4.76,13.28-9.3,25.33-13.62,36.17l-3.99,10.04h35.33l-4.04-10.03ZM245.86,629.7c-15.89-9.85-30.95-20.91-44.52-33.42-22.18-20.37-40.53-44.1-54.53-69.07-14.11-24.96-23.78-51.13-30.35-76.46-6.57-25.37-10.07-49.95-11.76-72.69-3.34-45.56,.55-83.58,4.18-109.82,3.79-26.29,7.79-40.95,7.79-40.95,0,0-3.68,14.75-6.88,41.07-1.69,14.07-3.21,31.57-3.7,51.66,.45,.28,.97,.61,1.62,1.02,.94,.71,2.3,1.25,3.9,1.85,1.59,.62,3.37,1.41,5.53,1.88,2.77,.81,6.04,1.49,9.66,2.06,.05-1.24,.06-2.55,.11-3.76,.83-17.47,2.65-32.62,4.63-45,4.05-24.77,8.42-38.45,8.42-38.45,0,0-4.05,13.79-7.51,38.59-1.8,13.28-3.33,29.9-3.59,48.94,1.24,.17,2.51,.34,3.83,.49,4.62,.53,9.84,.85,15.32,1.09,.06-3.04,.11-6.11,.24-9.02,.73-16.76,2.42-31.3,4.3-43.18,3.81-23.77,7.97-36.91,7.97-36.91,0,0-3.84,13.24-7.06,37.04-1.85,13.94-3.36,31.7-3.25,52.16,1.02,.04,1.96,.1,3.01,.13,6.26,.21,13.05,.17,20.1,0-1.59-21.65-.92-40.35,.18-54.74,1.83-22.2,4.85-34.59,4.85-34.59,0,0-2.55,12.49-3.79,34.67-.8,14.42-.92,33.09,1.16,54.62,.64-.02,1.23-.02,1.87-.04,8.65-.23,17.76-.79,27.19-1.29-.62-5.66-1.11-11.18-1.4-16.4-.79-14.85-.39-27.82,.39-38.45,1.64-21.28,4.72-33.11,4.72-33.11,0,0-2.6,11.94-3.65,33.18-.52,10.6-.58,23.52,.58,38.25,.42,5.21,1.06,10.73,1.82,16.37,10.64-.65,21.65-1.53,32.81-2.57-.21-1.07-.44-2.13-.64-3.19-1.15-6.24-1.98-12.53-2.63-18.83-1.28-12.61-1.63-25.29-1.15-37.93,.48-12.63,1.82-25.25,4.4-37.6-2.13,12.44-2.97,25.05-3.15,37.64-.13,12.59,.57,25.18,2.17,37.64,.8,6.23,1.83,12.43,3.09,18.57,.23,1.15,.51,2.3,.75,3.45,6.95-.66,13.93-1.36,20.93-2.12,7.43-.72,14.84-1.52,22.2-2.33-.71-2.54-1.41-5.09-1.98-7.58-5.75-25.5-4.05-47.5-1.74-62.31,2.44-14.91,5.69-22.95,5.69-22.95,0,0-2.78,8.2-4.64,23.1-1.86,14.81-2.44,36.58,3.68,61.44,.65,2.61,1.43,5.27,2.25,7.93,11.41-1.29,22.65-2.65,33.45-4.03,6.48-.84,12.73-1.64,18.86-2.43-1.66-3.34-3.21-6.65-4.29-10.08-.93-2.73-2.12-5.33-2.79-8.04-.68-2.7-1.35-5.35-2.01-7.95-2.26-10.45-3.07-20.29-2.62-28.94,.16-8.66,1.54-16.11,2.77-22.17,2.81-12.08,6.04-18.43,6.04-18.43,0,0-.7,1.62-1.66,4.78-1.05,3.13-2.16,7.84-3.33,13.86-.95,6.05-1.99,13.46-1.78,21.98-.06,8.51,1.17,18.08,3.58,28.21,.71,2.51,1.43,5.07,2.16,7.68,.72,2.61,1.95,5.11,2.92,7.74,1.26,3.7,3.11,7.24,5.03,10.83,7.04-.91,13.78-1.78,20.16-2.6,.1-6.95,.19-13.72,.26-20.1,.42-21.72,.76-39.81,1.01-52.48,.34-12.67,.53-19.91,.53-19.91,0,0,.19,7.24,.53,19.91,.24,12.67,.59,30.76,1.01,52.48,.06,6.24,.15,12.84,.25,19.63,1.56-.2,3.2-.41,4.71-.61,23.62-3.18,41-5.53,47.38-6.39-4.87-5.4-9.19-11.04-12.83-16.81-4.98-8.24-8.64-16.61-11.07-24.61-2.52-7.99-3.54-15.64-3.88-22.39-.33-6.75-.03-12.65,.61-17.44,1.27-9.6,3.35-14.76,3.35-14.76,0,0-1.61,5.31-2.29,14.86-.66,9.49-.11,23.39,5.14,38.78,2.62,7.67,6.44,15.63,11.49,23.39,5.22,7.68,11.72,15,19,22.02,7.59,6.68,15.81,13.24,25.02,18.65,.39,.27,.83,.47,1.23,.72,8.34-2.28,16.58-4.53,24.68-6.75,4.99-1.33,9.91-2.65,14.78-3.95l1.87,1.34c.93,.72,1.94,1.29,2.92,1.92-6.02,1.73-12.11,3.48-18.31,5.26-6.58,1.85-13.3,3.74-20.04,5.63,2.3,1.22,4.64,2.41,6.92,3.7,4.8,2.48,9.83,4.57,14.73,6.88,5.04,2.03,10.09,4.07,15.11,6.1,5.14,1.75,10.25,3.49,15.33,5.22,.8,.24,1.59,.46,2.39,.69,.06-2.97,.12-5.78,.17-8.31,.21-7.44,.36-12.9,.45-15.95,.05,.02,.11,.05,.16,.07,.09,3.07,.24,8.49,.45,15.88,.05,2.65,.11,5.59,.18,8.72,8.98,2.66,17.88,5.22,26.65,7.1,9.94,2.46,19.7,4.2,28.92,6.08,9.25,1.71,18.07,2.92,26.18,4.26,8.16,1.04,15.63,2,22.26,2.85,6.62,.94,12.45,1.29,17.22,1.82,4.45,.47,7.97,.83,10.5,1.1v.32c-2.55-.09-6.1-.2-10.58-.36-4.8-.26-10.65-.29-17.33-.86-6.68-.5-14.23-1.02-22.45-1.82-8.19-1.06-17.09-1.97-26.46-3.38-9.34-1.57-19.25-2.92-29.32-5.38-8.38-1.7-16.9-4.02-25.49-6.45,.2,10.04,.45,22.01,.72,35.5,.04,3.61,.1,7.44,.15,11.25,17.44,.17,33.88,.32,48.83,.47,25.53,.42,46.8,.77,61.69,1.01,9.62,.22,16.53,.38,20.25,.46v.14c-3.72,.08-10.62,.24-20.25,.46-14.89,.24-36.16,.59-61.69,1.01-14.93,.14-31.35,.3-48.77,.47,.06,4.1,.12,8.38,.19,12.68,11.4,3.17,22.48,6.27,33.07,8.96,11.71,2.97,22.82,5.68,33.12,7.99,13.76,3.1,25.95,5.8,36.17,7.98,5.28-2.58,9.99-4.89,14.05-6.88,6.45-3.1,11.22-5.39,14.11-6.78v.22c-2.81,1.55-7.42,4.08-13.62,7.5-3.51,1.9-7.56,4.08-12,6.48,4.07,.86,7.83,1.64,11.17,2.3,6.35,1.31,11.22,2.31,14.45,2.98v.26c-3.27-.49-8.2-1.23-14.64-2.19-3.89-.58-8.34-1.31-13.22-2.14-8.65,4.67-18.82,10.17-30.17,16.3-15.29,8.08-32.7,17.46-51.36,27.27,9.3,4.29,18.19,8.64,26.6,12.97,1.75,.02,3.63,.04,5.34,.06,24.18,.42,44.33,.77,58.43,1.01,8.95,.22,15.45,.37,19.01,.46v.15c-3.57,.09-10.06,.24-19.01,.46-13.98,.24-33.9,.59-57.79,1,4.5,2.38,8.9,4.76,13.09,7.12,9.48,5.33,18.01,10.65,25.64,15.77-1.29,.08-2.58,.16-3.86,.24-7.06-4.31-14.85-8.76-23.27-13.3-6.02-3.25-12.41-6.5-19.07-9.74-14.1,.15-29.39,.37-45.6,.54,.05,10.16,.09,20.42,.14,30.7-1.81,.23-3.65,.45-5.44,.68,.05-10.48,.09-20.96,.14-31.32-2.2,.02-4.41,.04-6.64,.05-10.36,5.39-20.92,10.89-31.56,16.43,2.67,1.45,5.38,2.84,8.04,4.33,6.8,3.87,13.59,7.76,20.27,11.85-2.62,.37-5.28,.72-7.86,1.1-4.94-2.88-9.9-5.71-14.88-8.51-3.66-2.03-7.4-3.93-11.09-5.89-4.95,2.58-9.9,5.15-14.86,7.73-11.51,5.86-23,11.72-34.36,17.5,1.52,.69,3,1.45,4.51,2.15-2.87,.64-5.66,1.3-8.46,1.96-.73-.32-1.43-.68-2.16-1-1.88,.96-3.73,1.9-5.6,2.85-7.54,1.86-14.85,3.77-21.88,5.73,7.08-3.68,14.25-7.42,21.53-11.2-6.51-2.8-13.05-5.53-19.65-8.13l-17-6.58-4.12-1.6c-.05,11.51-.17,22.61-.31,33.31-1.36,.43-2.76,.85-4.1,1.28-.15-11.65-.29-23.76-.34-36.38,0-.03,0-.05,0-.08l-7.99-3.64c-11.24-4.93-21.94-10.72-32.35-16.82-3.33-1.98-6.52-4.13-9.74-6.23-4.62-.02-9.28-.04-13.82-.05-15.59-.16-30.61-.31-44.86-.45,9.21,9.05,19.14,17.6,29.79,25.41,19.98,14.64,42.11,27.04,65.37,36.76,2.75,1.09,5.48,2.24,8.22,3.38-2.68,.89-5.32,1.78-7.91,2.69-.82-.34-1.62-.7-2.45-1.02-23.56-9.98-45.99-22.69-66.26-37.69-12.16-9-23.34-19-33.62-29.58-10.8-.11-21.24-.22-30.89-.31-5.03-.09-9.83-.17-14.49-.25,14.58,20.1,32.57,38.67,53.16,54.59,15.63,12.13,32.74,22.63,50.59,31.87-2.06,.95-4.09,1.9-6.07,2.85-16.77-9-32.87-19.11-47.66-30.7-21.49-16.76-40.25-36.36-55.22-57.59-.26-.37-.48-.76-.74-1.13-8.4-.14-16.09-.28-22.98-.4,2.23,3.56,4.4,7.14,6.82,10.64,15.12,21.89,34.07,42.17,55.85,59.67,12,9.65,24.86,18.43,38.24,26.47,2.17-.04,4.36-.09,6.61-.13,1.84-.02,3.84-.05,5.74-.07-1.98,1.05-3.91,2.1-5.8,3.15-.51-.01-1-.02-1.51-.03,.26,.15,.52,.29,.78,.43-1.82,1.01-3.6,2.03-5.35,3.04-2.12-1.25-4.3-2.4-6.39-3.7-15.07-.3-27.81-.56-37.3-.75-6.17-.17-10.95-.31-14.17-.4,9.98,7.98,20.53,15.34,31.55,22.03-1.53,1.13-3.01,2.25-4.46,3.38Zm274.95-133.79c2.22-1.13,4.49-2.28,6.68-3.4,1.18-.6,2.31-1.16,3.48-1.76-3.36-1.43-6.76-2.85-10.2-4.27,.01,3.13,.03,6.27,.04,9.43Zm15.72-2.78c-2.3,1.2-4.53,2.39-6.87,3.6-2.9,1.51-5.88,3.06-8.83,4.59,0,.57,0,1.14,0,1.7,13.58,.14,26.53,.31,38.68,.46-7.36-3.47-15.04-6.92-22.99-10.36Zm-16.25-67.88c.17,11.81,.32,24.26,.38,37.15,.03,6.26,.06,12.63,.09,19.07,5.2,2.21,10.29,4.46,15.29,6.72,20.03-10.12,38.92-19.4,55.26-27.59,10.69-5.24,20.32-9.95,28.69-14.05-1.89-.32-3.83-.65-5.85-1-8.48-1.37-18.01-3.16-28.38-5.23-10.38-2.03-21.58-4.46-33.42-7.12-5.9-1.39-11.97-2.82-18.17-4.28-4.54-1.2-9.22-2.44-13.89-3.67Zm-150.35-60.98c.05,12.56,.11,25.54,.17,38.7,3.84-.01,7.67-.03,11.51-.04,24.01,.09,47.98,.17,71.24,.26-5.35-2.1-10.67-4.3-15.92-6.7-12.89-5.9-25.57-12.4-37.31-20.11-10.25-6.61-19.64-13.99-27.97-22.16-.6,.16-1.19,.33-1.79,.49,.02,3.19,.06,6.32,.07,9.57Zm.14,138.27c8.61-.03,17.25-.07,25.91-.1,8.83,.03,17.65,.07,26.44,.1-3.04-1.37-6.06-2.79-9.12-4.13-14.2-6.24-28.62-12.08-43.14-17.4-.03,7.24-.06,14.41-.09,21.53Zm96.16,21.16c-2.02-1.05-4.01-2.17-6.04-3.21-8.66-4.41-17.42-8.61-26.23-12.71-12.59,.05-25.27,.1-37.98,.14-8.66-.03-17.31-.07-25.93-.1-.03,7.57-.06,15.05-.09,22.41,7.59,3.13,15.26,6.15,23.07,9.02,7.99,3.2,15.89,6.59,23.74,10.07,12.48-6.49,25.16-13.09,37.85-19.7,3.88-1.98,7.75-3.95,11.62-5.92Zm31.78-16.18c-2.46,.01-4.85,.04-7.34,.05-14.43,.05-29.34,.11-44.46,.17,5.47,2.67,10.95,5.33,16.36,8.11,3.12,1.62,6.18,3.34,9.28,5,8.8-4.48,17.52-8.92,26.16-13.32Zm17.79-23.08c-3.38-1.38-6.8-2.75-10.25-4.13-14.94-5.91-30.54-11.66-46.5-17.12-7.98-2.72-16.07-5.38-24.21-7.89-4.34-1.27-8.14-3.03-12.24-4.52-4.01-1.6-8.12-3-12.03-4.87-14.04-6-27.54-13.23-40.39-21.17,.04,8.17,.07,16.37,.11,24.58-.04,8.74-.07,17.46-.11,26.16,15.35,5.47,30.39,11.49,45.3,17.94,6.75,2.94,13.43,6.04,20.09,9.18,18.78,.07,37.31,.14,55.1,.21,5.56,.02,10.98,.06,16.39,.1,2.92-1.49,5.79-2.95,8.68-4.42,.02-4.71,.04-9.4,.06-14.05Zm.49-60.24c-.33-.09-.65-.17-.98-.26-6.36-1.86-12.82-3.76-19.36-5.67-6.48-2.12-13.09-4.14-19.67-6.41-3.49-1.23-6.99-2.48-10.49-3.75-27.26,.1-55.69,.2-84.2,.3-3.83-.01-7.65-.03-11.48-.04,.01,3.43,.03,6.9,.04,10.35,13.47,8.37,27.71,15.95,42.59,22.18,3.85,1.84,7.88,3.27,11.83,4.87,3.95,1.47,7.97,3.34,11.84,4.48,8.2,2.6,16.3,5.32,24.3,8.12,16.01,5.6,31.62,11.49,46.6,17.54,2.87,1.16,5.69,2.33,8.5,3.51,.03-5.73,.05-11.42,.08-17.01,.05-13.29,.22-26.08,.39-38.2Zm.24-16.49c-11.28,.11-22.97,.22-34.96,.33-.19,0-.38,0-.57,0,5.49,1.89,11,3.68,16.41,5.51,6.4,1.94,12.72,3.85,18.95,5.73,.06-3.91,.12-7.83,.17-11.58Zm-132.74-56.82c-2.27,.62-4.52,1.24-6.79,1.86,7.67,7.1,16.25,13.59,25.35,19.33,11.52,7.43,24.05,13.71,36.8,19.41,9.33,4.36,18.92,8.16,28.5,11.75,4.64,.02,9.34,.03,13.9,.05,12.01,.11,23.72,.23,35.02,.34,.05-3.8,.11-7.62,.15-11.22,.28-13.7,.52-25.82,.73-35.95-1.27-.36-2.52-.69-3.8-1.06-5.18-1.7-10.39-3.41-15.63-5.13-5.14-2.01-10.3-4.03-15.46-6.05-5-2.42-10.1-4.62-14.99-7.21-3.79-2.19-7.66-4.21-11.37-6.47-23.62,6.64-48,13.49-72.42,20.35Zm-14.41-37.87c.15,10.42,.3,21.31,.41,32.72l1.33,1.29c.44,.46,.94,.89,1.39,1.35,3.28-.92,6.55-1.84,9.83-2.76,22.96-6.28,45.87-12.54,68.18-18.64-8.28-5.3-15.84-11.43-22.82-17.73-2.13-2.07-4.16-4.19-6.11-6.35-2.28,.49-6.01,1.29-11.05,2.37-8.68,1.7-21.06,4.3-36.01,6.88-1.65,.28-3.43,.59-5.14,.88Zm-172.68,191c-13.86-20.2-24.31-41.71-31.68-62.93-3.42-9.84-6.11-19.57-8.38-29.17-6.88,1.79-13.05,3.4-18.49,4.81,2.46,10.42,5.44,21.01,9.2,31.68,6.6,18.82,15.62,37.75,26.89,56,6.72-.12,14.23-.25,22.45-.39Zm-40.48-93.81c-.28-1.22-.58-2.44-.84-3.65-7.24-.12-13.75-.22-19.46-.32,.63,3.12,1.23,6.21,1.96,9.37,5.39-1.59,11.52-3.39,18.35-5.4Zm3.4-1c2.68-.79,5.44-1.6,8.31-2.44-3.09-.05-6.08-.1-8.97-.15,.2,.86,.45,1.73,.66,2.59Zm86.42,94.15c-5.54-5.93-10.89-11.98-15.76-18.27-14.77-18.96-26.26-39.39-34.62-59.71-2.54-6.13-4.74-12.22-6.78-18.28-4.45-.07-8.8-.14-12.96-.21-5.58,1.45-10.87,2.83-15.83,4.12,2.37,9.47,5.17,19.07,8.68,28.74,7.87,21.74,19,43.62,33.53,64.17,5.22-.09,10.67-.18,16.36-.28,8.6-.09,17.85-.18,27.38-.28Zm-58.07-99.13c-.05-.14-.09-.29-.14-.43-.6,.16-1.17,.3-1.77,.46,.62,0,1.27-.02,1.9-.03Zm158.67,4.04c-22.18-.08-44.07-.16-65.01-.24-.37,0-.73,0-1.1-.01,3.44,4.37,6.88,8.74,10.7,12.78,4.02,4.78,8.7,8.93,13.1,13.34,4.81,3.97,9.28,8.35,14.41,11.92l7.51,5.59,7.86,5.08c5.14,3.55,10.76,6.32,16.17,9.42,4.78,2.58,9.74,4.8,14.65,7.14-.03-7.97-.07-15.97-.1-23.97,.04-9.3,.08-18.58,.12-27.82-6.38-4.11-12.46-8.56-18.3-13.22Zm18.32,7.09c0-2.34,.02-4.69,.03-7.02-3.39-.01-6.78-.02-10.16-.04,3.29,2.44,6.67,4.79,10.13,7.06Zm-24.54-12.29c-4.95-4.28-9.73-8.68-14.15-13.31-5.8-6-11.03-12.34-15.72-18.85-8.88,2.43-17.67,4.83-26.29,7.19-6.7,1.79-13.29,3.55-19.79,5.29,1.38,2.54,2.79,5.07,4.35,7.5,2.48,4.32,5.36,8.39,8.24,12.44,1.52-.01,3.02-.03,4.55-.04,18.99-.07,38.76-.14,58.8-.21Zm-79.81-18.65c-12.34,3.3-24.23,6.47-35.57,9.5,1.38,3.29,2.81,6.57,4.37,9.87,13.51-.13,27.73-.27,42.5-.41-2.31-3.4-4.57-6.82-6.55-10.42-1.71-2.78-3.26-5.64-4.75-8.54Zm-39.11,10.45c-8.4,2.24-16.51,4.41-24.2,6.47-2.02,.53-3.97,1.03-5.94,1.55,.15,.43,.28,.86,.43,1.29,.88-.01,1.72-.03,2.61-.04,9.69-.09,20-.19,30.8-.3-1.33-3-2.53-5.97-3.72-8.96Zm86.33,107.91c-14.08-9.84-27.07-20.83-38.47-32.81-15.95-16.63-28.69-35.15-38.32-53.88-1.47-2.86-2.74-5.72-4.07-8.58-11.43-.11-22.35-.21-32.55-.31-.55,0-1.06-.02-1.6-.03,1.98,5.53,4.12,11.08,6.52,16.65,8.53,19.92,20.19,39.75,34.7,58.35,5.73,7.32,12.07,14.32,18.71,21.12,15.34-.16,31.56-.32,48.53-.49,2.15,0,4.38-.02,6.56-.03Zm9.04-.04c15.73-.06,31.84-.12,48.17-.19-.03-7.78-.07-15.63-.1-23.54-5.68-2.81-11.48-5.37-17.04-8.4-5.51-3.2-11.22-6.06-16.47-9.71l-8-5.24-7.65-5.75c-5.22-3.68-9.79-8.18-14.68-12.28-4.49-4.54-9.24-8.82-13.34-13.73-4.36-4.67-8.14-9.82-12.02-14.88-.24-.35-.47-.7-.71-1.04-15.19-.15-29.85-.29-43.76-.42,1.1,2.23,2.11,4.46,3.3,6.68,9.75,18.27,22.57,36.17,38.21,52.44,12.88,13.4,27.82,25.47,44.08,36.07Zm48.28,25.47c-.03-6.72-.06-13.52-.09-20.42-13.65-.05-27.2-.1-40.45-.16,.96,.58,1.87,1.23,2.85,1.8,12.01,7.18,24.67,13.23,37.69,18.77Zm.09-172.25c-16.88,4.61-33.62,9.19-50.04,13.68,4.42,5.77,9.24,11.41,14.48,16.83,5.63,5.81,11.74,11.35,18.24,16.58,5.68-.02,11.37-.04,17.09-.06,.06-13.17,.11-26.15,.17-38.72,.01-2.82,.04-5.53,.06-8.31Zm-17.57-39.28c.15,.29,.31,.57,.46,.86,1.31,2.68,3.28,5.03,4.91,7.6,1.79,2.48,3.3,5.2,5.37,7.56,2.02,2.39,4.06,4.81,6.12,7.25l.83,.99c.1-9.46,.23-18.55,.35-27.3-5.74,.99-11.76,2-18.04,3.04Zm-56.74,8.06c2.89,8.36,6.55,16.84,11.24,25.21,2.91,5.22,6.28,10.34,9.91,15.39,17.43-4.9,35.25-9.9,53.2-14.94,0-.82,.01-1.65,.02-2.46l-1.13-1.11-3.16-3.82c-2.08-2.56-4.13-5.09-6.16-7.59-2.06-2.48-3.56-5.34-5.33-7.94-1.62-2.7-3.57-5.17-4.85-7.97-.35-.73-.71-1.44-1.07-2.16-6.55,1.06-13.26,2.1-20.24,3.09-10.47,1.48-21.36,2.93-32.41,4.32Zm-46.94,4.98c.76,3.25,1.59,6.48,2.54,9.67,1.64,6.05,3.7,11.97,5.88,17.83,1.17,2.9,2.26,5.84,3.49,8.71l3.91,8.53c.85,1.66,1.72,3.31,2.58,4.97,6.76-1.94,13.62-3.91,20.6-5.92,8.09-2.27,16.32-4.58,24.65-6.92-3.27-4.85-6.33-9.77-8.97-14.74-4.73-8.9-8.36-17.88-11.15-26.69-7.67,.95-15.4,1.87-23.16,2.73-6.81,.67-13.6,1.27-20.37,1.83Zm-36.11,2.44c1.34,8.85,3.12,18.1,5.59,27.69,2.59,9.98,6,20.3,10.17,30.7,11.17-3.21,22.87-6.57,35.02-10.06-.73-1.48-1.48-2.96-2.21-4.44l-3.83-8.74c-1.2-2.94-2.26-5.95-3.4-8.91-2.11-5.99-4.11-12.04-5.67-18.19-.95-3.39-1.75-6.81-2.5-10.25-11.28,.91-22.41,1.67-33.18,2.2Zm-31.76,.67c1.12,10.35,2.69,21.25,5.02,32.73,2.29,11.15,5.4,22.77,9.3,34.57,2-.59,3.98-1.17,6.04-1.78,7.53-2.16,15.47-4.44,23.7-6.81-4.02-10.51-7.26-20.91-9.7-30.95-2.41-9.82-4.02-19.27-5.17-28.3-.09,0-.19,.01-.28,.02-9.49,.48-18.68,.63-27.4,.54-.51,0-.99-.02-1.5-.03Zm-25.93-1.06c.18,13.54,1.07,28.22,3.1,43.84,1.25,9.41,3.01,19.17,5.27,29.09,5.42-.09,11.19-.18,17.32-.28,3.6-1.06,7.28-2.14,11.11-3.27-3.75-11.97-6.72-23.73-8.85-35-2.22-11.73-3.6-22.85-4.5-33.37-7.22-.09-14.17-.3-20.57-.76-1-.06-1.89-.18-2.86-.25Zm-21.36-2.81c-.15,15.93,.58,33.48,2.92,52.43,.97,7.69,2.34,15.64,3.93,23.69,5.67-.09,12.14-.2,19.34-.32-2.07-9.83-3.68-19.47-4.79-28.77-1.91-15.84-2.48-30.74-2.31-44.42-5.57-.48-10.87-1.1-15.54-1.94-1.23-.21-2.4-.44-3.55-.67Zm-17.69,76.65c3.17-.07,10.46-.24,21.1-.48-1.45-7.95-2.69-15.8-3.55-23.38-2.2-19.26-2.51-37.12-1.96-53.23-3.74-.82-7.1-1.73-9.93-2.75-2.15-.6-3.93-1.52-5.48-2.3-1.57-.73-2.88-1.39-3.79-2.2-.58-.44-1.05-.79-1.46-1.1-.42,17.39-.08,36.68,1.68,57.61,.78,8.99,1.96,18.33,3.39,27.82Zm2.98,17.12c3.12-.94,10.14-3.05,20.36-6.13-.77-3.52-1.4-6.97-2.04-10.43-10.74-.24-18.09-.41-21.28-.48,.85,5.61,1.85,11.29,2.97,17.04Zm26.6,82.37c3.42-.08,10.07-.24,19.5-.47,2.6-.04,5.48-.09,8.48-.15-10.66-17.89-18.94-36.46-25.11-54.8-3.65-10.83-6.52-21.56-8.87-32.09-10.33,2.62-17.43,4.42-20.58,5.22,1.73,8.85,3.68,17.8,6.16,26.88,4.99,18.35,11.73,37.05,20.43,55.4Zm77.73,98.91c3.22-.09,8.1-.23,14.48-.41,8.68-.18,20.08-.41,33.48-.68-11.02-7.03-21.67-14.55-31.71-22.7-22.06-17.88-41.25-38.61-56.54-60.94-3.05-4.42-5.89-8.91-8.62-13.43-3.32-.06-6.47-.11-9.31-.16-9.37-.22-16-.38-19.44-.47,3.13,6.59,6.48,13.15,10.15,19.62,13.88,24.52,31.99,47.73,53.85,67.64,4.38,4.01,9.01,7.78,13.67,11.52ZM501.53,311.44l-5.51-3.83-5.08-4.3c-6.49-5.92-12.38-12.47-16.24-19.91-3.95-7.35-6.58-15.09-7.79-22.71-1.29-7.62-.99-15.04-.2-21.78,1.68-13.53,5.63-24.47,8.86-31.8,3.2-7.39,5.64-11.33,5.64-11.33,0,0-2.84,3.67-6.6,10.87-1.9,3.59-3.97,8.07-5.96,13.38-2.04,5.29-3.88,11.48-4.98,18.44-1.09,6.93-1.73,14.65-.7,22.75,.96,8.08,3.34,16.54,7.56,24.44,4.04,8.03,10.21,15.09,16.99,21.44l5.3,4.61,3.85,2.76c2.27-.61,4.52-1.21,6.76-1.81-.62-.42-1.3-.76-1.9-1.21Zm601.39,757.55c-2.01,.34-4.02,.61-6,.8-2.01,.19-3.88,.28-5.64,.28-6.52,0-12.41-.84-17.72-2.55-5.28-1.71-9.82-4.32-13.56-7.84-3.77-3.54-6.69-7.99-8.72-13.39-2.04-5.39-3.05-11.75-3.05-19.08s1.1-13.84,3.3-19.4c2.2-5.54,5.2-10.19,9.02-13.94,3.82-3.74,8.31-6.56,13.51-8.45,5.2-1.88,10.76-2.82,16.73-2.82,3.88,0,7.73,.36,11.53,1.07,3.82,.72,7.35,1.61,10.57,2.67v-11.47c-1.21-.52-2.67-1.03-4.38-1.51-1.71-.48-3.55-.88-5.53-1.24-1.98-.34-4.07-.61-6.25-.78-2.17-.19-4.4-.29-6.63-.29-8.42,0-16.04,1.4-22.81,4.18-6.77,2.79-12.55,6.69-17.28,11.67-4.76,4.99-8.39,10.98-10.92,17.93-2.53,6.96-3.77,14.58-3.77,22.86s1.18,16,3.58,22.66c2.39,6.67,5.92,12.31,10.57,16.94,4.62,4.61,10.37,8.16,17.22,10.63,6.85,2.46,14.72,3.7,23.58,3.7,4.35,0,8.61-.33,12.74-1,4.15-.66,7.79-1.6,10.92-2.82v-11.47c-1.51,.54-3.22,1.02-5.12,1.47-1.9,.45-3.88,.85-5.89,1.2Zm245.22-266.92c-8.84,24.37-16.25,46.18-22.24,65.43h-.86c-6.84-22.24-14.4-44.48-22.66-66.71l-28.87-79.12h-53.46l80.4,207.19h50.25l80.18-207.19h-53.88l-28.87,80.4Zm281.59,100.49c.29,9.84,.57,18.6,.86,26.3h-45.75l-2.14-22.02h-.86c-2.85,2.99-6.27,6.06-10.26,9.2-3.99,3.14-8.55,6.09-13.69,8.87-5.13,2.78-10.83,5.03-17.1,6.73-6.27,1.71-13.04,2.57-20.31,2.57-9.84,0-19.03-1.54-27.59-4.6-8.55-3.06-15.89-7.48-22.02-13.26-6.14-5.77-10.94-12.75-14.43-20.95-3.5-8.2-5.24-17.35-5.24-27.47,0-11.12,2.03-21.1,6.09-29.94,4.06-8.83,9.73-16.32,17-22.45,7.27-6.12,15.96-10.8,26.08-14,10.12-3.21,21.31-4.81,33.57-4.81,8.98,0,17.24,.57,24.8,1.71,7.55,1.15,14.18,2.49,19.89,4.06v-8.34c0-4.85-.82-9.51-2.46-14-1.64-4.49-4.28-8.48-7.91-11.97-3.63-3.5-8.38-6.27-14.22-8.34-5.85-2.07-12.97-3.1-21.38-3.1-10.26,0-20.52,1.14-30.79,3.42-10.26,2.28-21.38,5.7-33.36,10.26v-39.56c10.41-4.56,21.45-8.05,33.14-10.48,11.69-2.43,23.95-3.7,36.78-3.85,15.11,0,28.33,1.85,39.66,5.56,11.33,3.71,20.81,8.81,28.44,15.29,7.62,6.49,13.32,14.15,17.1,22.99,3.77,8.84,5.67,18.46,5.67,28.87v78.04c0,13.68,.14,25.44,.42,35.28Zm-51.1-62.01c-4.85-1.13-10.41-2.17-16.68-3.1-6.27-.93-12.61-1.39-19.03-1.39-12.4,0-22.21,2.46-29.4,7.38-7.2,4.91-10.8,12.44-10.8,22.55,0,4.71,.82,8.81,2.46,12.3,1.64,3.5,3.85,6.38,6.63,8.66,2.78,2.28,6.02,3.99,9.73,5.13,3.71,1.15,7.63,1.71,11.76,1.71,5.13,0,9.98-.67,14.54-2.03,4.56-1.35,8.77-3.06,12.62-5.13,3.85-2.07,7.3-4.38,10.37-6.95,3.06-2.57,5.66-5.06,7.81-7.48v-31.65Zm-389.36,62.01c.29,9.84,.57,18.6,.86,26.3h-45.76l-2.13-22.02h-.86c-2.86,2.99-6.27,6.06-10.27,9.2-3.99,3.14-8.55,6.09-13.68,8.87-5.13,2.78-10.84,5.03-17.11,6.73-6.27,1.71-13.04,2.57-20.31,2.57-9.83,0-19.03-1.54-27.58-4.6-8.55-3.06-15.89-7.48-22.02-13.26-6.13-5.77-10.94-12.75-14.43-20.95-3.5-8.2-5.24-17.35-5.24-27.47,0-11.12,2.03-21.1,6.09-29.94,4.06-8.83,9.73-16.32,17-22.45,7.27-6.12,15.96-10.8,26.09-14,10.12-3.21,21.31-4.81,33.57-4.81,8.98,0,17.25,.57,24.81,1.71,7.55,1.15,14.18,2.49,19.88,4.06v-8.34c0-4.85-.82-9.51-2.46-14-1.64-4.49-4.27-8.48-7.9-11.97-3.64-3.5-8.38-6.27-14.23-8.34-5.85-2.07-12.97-3.1-21.38-3.1-10.26,0-20.52,1.14-30.78,3.42-10.26,2.28-21.38,5.7-33.36,10.26v-39.56c10.4-4.56,21.45-8.05,33.14-10.48,11.69-2.43,23.94-3.7,36.78-3.85,15.11,0,28.33,1.85,39.66,5.56,11.34,3.71,20.81,8.81,28.44,15.29,7.62,6.49,13.33,14.15,17.11,22.99,3.77,8.84,5.66,18.46,5.66,28.87v78.04c0,13.68,.14,25.44,.43,35.28Zm-51.1-62.01c-4.85-1.13-10.41-2.17-16.68-3.1-6.27-.93-12.61-1.39-19.03-1.39-12.4,0-22.21,2.46-29.4,7.38-7.19,4.91-10.8,12.44-10.8,22.55,0,4.71,.82,8.81,2.46,12.3,1.64,3.5,3.85,6.38,6.63,8.66,2.78,2.28,6.02,3.99,9.73,5.13,3.7,1.15,7.62,1.71,11.76,1.71,5.14,0,9.98-.67,14.54-2.03,4.56-1.35,8.77-3.06,12.62-5.13,3.84-2.07,7.3-4.38,10.36-6.95,3.06-2.57,5.66-5.06,7.81-7.48v-31.65Zm115.28,166.66c-2.45-1.97-5.09-3.33-7.98-4.1-2.86-.77-5.72-1.16-8.58-1.16s-5.34,.32-7.73,.95c-2.39,.65-4.62,1.5-6.69,2.59-2.06,1.1-3.96,2.39-5.67,3.91-1.71,1.51-3.22,3.15-4.62,4.9h-.22v-50.02h-12.35v115.34h12.35v-53.76c2.86-4.14,6.25-7.4,10.18-9.77,3.93-2.35,8.09-3.54,12.44-3.54,5.26,0,9.02,1.54,11.34,4.62,2.31,3.08,3.47,7.66,3.47,13.77v48.67h12.35v-50.66c0-5.53-.77-10.04-2.31-13.55-1.54-3.49-3.52-6.23-5.97-8.2Z" style="fill: #001e61;"/>
    </g>
  </g>
</svg>