<?xml version="1.0" encoding="UTF-8"?>
<svg id="Layer_2" data-name="Layer 2" xmlns="http://www.w3.org/2000/svg" viewBox="0 0 2047 411.2">
  <g id="Logos-FCI">
    <g id="Logo-FCI-Horizontal-Outline-Negro">
      <rect width="2047" height="411.2" style="fill: none;"/>
      <g>
        <g>
          <g>
            <polygon points="577.06 135.36 603.41 135.36 603.41 140.66 583.45 140.66 583.45 156.92 601.9 156.92 601.9 162.15 583.45 162.15 583.45 184.3 577.06 184.3 577.06 135.36"/>
            <path d="M633.69,175.87c0,3.06,.15,6.03,.52,8.43h-5.75l-.51-4.43h-.22c-1.96,2.76-5.73,5.23-10.75,5.23-7.1,0-10.74-5.01-10.74-10.09,0-8.5,7.55-13.14,21.13-13.07v-.73c0-2.83-.8-8.13-7.98-8.07-3.35,0-6.76,.95-9.23,2.62l-1.45-4.29c2.9-1.81,7.18-3.05,11.61-3.05,10.76,0,13.36,7.34,13.36,14.3v13.14Zm-6.17-9.51c-6.97-.14-14.89,1.09-14.89,7.92,0,4.21,2.76,6.09,5.96,6.09,4.64,0,7.62-2.9,8.64-5.88,.22-.73,.29-1.45,.29-2.04v-6.1Z"/>
            <path d="M669.05,183.06c-1.67,.8-5.37,2.03-10.09,2.03-10.6,0-17.5-7.18-17.5-17.94s7.4-18.73,18.87-18.73c3.78,0,7.12,.94,8.86,1.89l-1.44,4.86c-1.52-.8-3.92-1.67-7.41-1.67-8.06,0-12.41,6.02-12.41,13.28,0,8.14,5.23,13.15,12.19,13.15,3.64,0,6.03-.86,7.84-1.67l1.09,4.8Z"/>
            <path d="M705.93,174.64c0,3.7,.07,6.89,.28,9.66h-5.65l-.36-5.74h-.15c-1.59,2.83-5.37,6.53-11.61,6.53-5.52,0-12.13-3.12-12.13-15.39v-20.55h6.39v19.39c0,6.68,2.1,11.25,7.84,11.25,4.28,0,7.25-2.98,8.42-5.89,.36-.86,.58-2.02,.58-3.27v-21.49h6.39v25.49Z"/>
            <rect x="716.53" y="132.74" width="6.38" height="51.55"/>
            <path d="M741.36,140.73v8.43h9.15v4.86h-9.15v18.95c0,4.36,1.23,6.83,4.8,6.83,1.74,0,2.76-.15,3.7-.43l.29,4.86c-1.23,.43-3.2,.87-5.67,.87-2.97,0-5.37-1.02-6.89-2.68-1.75-1.96-2.47-5.09-2.47-9.23v-19.17h-5.44v-4.86h5.44v-6.53l6.25-1.89Z"/>
            <path d="M782.38,175.87c0,3.06,.14,6.03,.51,8.43h-5.75l-.5-4.43h-.22c-1.96,2.76-5.73,5.23-10.75,5.23-7.12,0-10.75-5.01-10.75-10.09,0-8.5,7.55-13.14,21.13-13.07v-.73c0-2.83-.79-8.13-7.99-8.07-3.34,0-6.75,.95-9.21,2.62l-1.46-4.29c2.91-1.81,7.19-3.05,11.62-3.05,10.75,0,13.36,7.34,13.36,14.3v13.14Zm-6.17-9.51c-6.97-.14-14.89,1.09-14.89,7.92,0,4.21,2.77,6.09,5.96,6.09,4.65,0,7.62-2.9,8.65-5.88,.21-.73,.28-1.45,.28-2.04v-6.1Z"/>
            <path d="M822.96,132.74v42.48c0,3.12,.15,6.68,.29,9.07h-5.66l-.29-6.1h-.22c-1.89,3.92-6.1,6.89-11.83,6.89-8.5,0-15.11-7.19-15.11-17.85-.07-11.7,7.26-18.81,15.76-18.81,5.44,0,9,2.54,10.6,5.3h.15v-20.99h6.31Zm-6.31,30.72c0-.8-.08-1.89-.29-2.69-.94-3.99-4.43-7.33-9.21-7.33-6.61,0-10.54,5.81-10.54,13.51,0,7.12,3.55,12.99,10.38,12.99,4.29,0,8.21-2.9,9.37-7.61,.21-.88,.29-1.75,.29-2.77v-6.1Z"/>
            <path d="M879.31,132.74v42.48c0,3.12,.14,6.68,.29,9.07h-5.67l-.29-6.1h-.22c-1.89,3.92-6.1,6.89-11.83,6.89-8.49,0-15.1-7.19-15.1-17.85-.07-11.7,7.26-18.81,15.75-18.81,5.45,0,9,2.54,10.6,5.3h.15v-20.99h6.31Zm-6.31,30.72c0-.8-.08-1.89-.3-2.69-.94-3.99-4.43-7.33-9.22-7.33-6.6,0-10.53,5.81-10.53,13.51,0,7.12,3.56,12.99,10.39,12.99,4.29,0,8.2-2.9,9.36-7.61,.22-.88,.3-1.75,.3-2.77v-6.1Z"/>
            <path d="M893.53,167.89c.15,8.64,5.59,12.2,12.05,12.2,4.58,0,7.41-.8,9.74-1.81l1.15,4.57c-2.24,1.02-6.17,2.25-11.76,2.25-10.82,0-17.28-7.18-17.28-17.78s6.25-18.88,16.48-18.88c11.55,0,14.52,10.02,14.52,16.48,0,1.31-.07,2.25-.21,2.98h-24.69Zm18.73-4.58c.07-3.99-1.67-10.31-8.85-10.31-6.54,0-9.3,5.88-9.81,10.31h18.66Z"/>
            <path d="M976.08,182.77c-2.25,1.17-6.97,2.33-12.93,2.33-13.79,0-24.1-8.71-24.1-24.83s10.38-25.71,25.55-25.71c6.03,0,9.95,1.31,11.62,2.17l-1.6,5.16c-2.31-1.17-5.73-2.03-9.8-2.03-11.47,0-19.09,7.33-19.09,20.18,0,12.05,6.9,19.68,18.73,19.68,3.93,0,7.85-.8,10.39-2.04l1.23,5.09Z"/>
            <path d="M990.75,139.28c0,2.18-1.52,3.92-4.06,3.92-2.33,0-3.86-1.73-3.86-3.92s1.6-3.99,4-3.99,3.92,1.74,3.92,3.99m-7.11,9.88h6.39v35.14h-6.39v-35.14Z"/>
            <path d="M1004.18,167.89c.14,8.64,5.59,12.2,12.05,12.2,4.58,0,7.41-.8,9.73-1.81l1.16,4.57c-2.25,1.02-6.17,2.25-11.76,2.25-10.82,0-17.29-7.18-17.29-17.78s6.25-18.88,16.48-18.88c11.55,0,14.53,10.02,14.53,16.48,0,1.31-.07,2.25-.22,2.98h-24.69Zm18.73-4.58c.07-3.99-1.67-10.31-8.86-10.31-6.53,0-9.29,5.88-9.8,10.31h18.66Z"/>
            <path d="M1037,158.66c0-3.7-.08-6.6-.3-9.5h5.67l.37,5.81h.14c1.75-3.27,5.81-6.54,11.62-6.54,4.86,0,12.41,2.91,12.41,14.95v20.91h-6.39v-20.26c0-5.66-2.1-10.38-8.13-10.38-4.13,0-7.4,2.98-8.56,6.53-.3,.8-.44,1.89-.44,2.98v21.13h-6.38v-25.63Z"/>
            <path d="M1102.33,183.06c-1.66,.8-5.37,2.03-10.09,2.03-10.6,0-17.5-7.18-17.5-17.94s7.4-18.73,18.87-18.73c3.78,0,7.12,.94,8.86,1.89l-1.46,4.86c-1.52-.8-3.91-1.67-7.41-1.67-8.05,0-12.41,6.02-12.41,13.28,0,8.14,5.23,13.15,12.2,13.15,3.63,0,6.03-.86,7.84-1.67l1.09,4.8Z"/>
            <path d="M1116.94,139.28c0,2.18-1.54,3.92-4.07,3.92-2.32,0-3.85-1.73-3.85-3.92s1.6-3.99,3.99-3.99,3.93,1.74,3.93,3.99m-7.12,9.88h6.38v35.14h-6.38v-35.14Z"/>
            <path d="M1151.49,175.87c0,3.06,.15,6.03,.51,8.43h-5.73l-.51-4.43h-.21c-1.97,2.76-5.75,5.23-10.75,5.23-7.12,0-10.75-5.01-10.75-10.09,0-8.5,7.55-13.14,21.13-13.07v-.73c0-2.83-.8-8.13-7.99-8.07-3.34,0-6.75,.95-9.23,2.62l-1.44-4.29c2.9-1.81,7.19-3.05,11.61-3.05,10.75,0,13.36,7.34,13.36,14.3v13.14Zm-6.17-9.51c-6.97-.14-14.89,1.09-14.89,7.92,0,4.21,2.76,6.09,5.95,6.09,4.65,0,7.62-2.9,8.64-5.88,.22-.73,.3-1.45,.3-2.04v-6.1Z"/>
            <path d="M1160.92,177.83c1.96,1.15,5.31,2.47,8.5,2.47,4.58,0,6.75-2.25,6.75-5.23s-1.81-4.65-6.46-6.39c-6.39-2.33-9.36-5.74-9.36-9.95,0-5.66,4.64-10.31,12.12-10.31,3.55,0,6.68,.94,8.57,2.18l-1.52,4.65c-1.38-.87-3.93-2.11-7.19-2.11-3.77,0-5.81,2.18-5.81,4.8,0,2.9,2.04,4.21,6.61,6.02,6.02,2.26,9.21,5.31,9.21,10.54,0,6.24-4.86,10.6-13.06,10.6-3.85,0-7.41-1.02-9.88-2.46l1.52-4.8Z"/>
            <path d="M1236.21,132.74v42.48c0,3.12,.15,6.68,.29,9.07h-5.66l-.29-6.1h-.22c-1.89,3.92-6.1,6.89-11.84,6.89-8.49,0-15.1-7.19-15.1-17.85-.07-11.7,7.26-18.81,15.76-18.81,5.44,0,9,2.54,10.6,5.3h.14v-20.99h6.31Zm-6.31,30.72c0-.8-.07-1.89-.29-2.69-.94-3.99-4.43-7.33-9.21-7.33-6.61,0-10.54,5.81-10.54,13.51,0,7.12,3.57,12.99,10.39,12.99,4.28,0,8.2-2.9,9.36-7.61,.22-.88,.29-1.75,.29-2.77v-6.1Z"/>
            <path d="M1250.44,167.89c.14,8.64,5.59,12.2,12.05,12.2,4.58,0,7.41-.8,9.74-1.81l1.15,4.57c-2.25,1.02-6.17,2.25-11.76,2.25-10.82,0-17.28-7.18-17.28-17.78s6.24-18.88,16.48-18.88c11.55,0,14.52,10.02,14.52,16.48,0,1.31-.06,2.25-.22,2.98h-24.68Zm18.73-4.58c.07-3.99-1.67-10.31-8.86-10.31-6.53,0-9.29,5.88-9.8,10.31h18.66Z"/>
            <rect x="1298.65" y="132.74" width="6.39" height="51.55"/>
            <path d="M1340.47,175.87c0,3.06,.14,6.03,.51,8.43h-5.73l-.51-4.43h-.22c-1.96,2.76-5.73,5.23-10.75,5.23-7.1,0-10.75-5.01-10.75-10.09,0-8.5,7.55-13.14,21.13-13.07v-.73c0-2.83-.8-8.13-7.99-8.07-3.34,0-6.75,.95-9.22,2.62l-1.45-4.29c2.91-1.81,7.19-3.05,11.61-3.05,10.76,0,13.37,7.34,13.37,14.3v13.14Zm-6.17-9.51c-6.97-.14-14.89,1.09-14.89,7.92,0,4.21,2.76,6.09,5.95,6.09,4.65,0,7.63-2.9,8.65-5.88,.22-.73,.29-1.45,.29-2.04v-6.1Z"/>
          </g>
          <rect x="577.06" y="217.79" width="26.22" height="116.25"/>
          <path d="M625.16,276.6c0-10.52-.34-19.31-.69-26.91h22.76l1.2,11.74h.52c3.45-5.54,11.89-13.63,26.04-13.63,17.24,0,30.19,11.56,30.19,36.4v49.84h-26.22v-46.75c0-10.86-3.8-18.28-13.28-18.28-7.25,0-11.56,5.02-13.45,9.83-.69,1.73-.86,4.15-.86,6.55v48.64h-26.22v-57.44Z"/>
          <path d="M806.08,321.78c0,16.21-3.28,29.5-12.94,37.95-9.14,7.93-21.74,10.34-34.16,10.34-11.21,0-22.76-2.24-30.35-6.39l5.17-20.01c5.35,3.12,14.49,6.39,24.5,6.39,12.42,0,21.9-6.55,21.9-22.25v-5.34h-.35c-5,6.89-13.1,10.87-22.77,10.87-20.87,0-35.69-16.9-35.69-41.05,0-27.24,17.41-44.5,38.27-44.5,11.57,0,18.79,5.01,23.12,11.91h.35l.86-10.01h22.76c-.35,5.53-.69,12.6-.69,25.19v46.9Zm-26.22-37.77c0-1.56-.18-3.28-.51-4.84-1.9-6.89-6.91-11.55-14.15-11.55-9.65,0-17.24,8.63-17.24,23.98,0,12.59,6.21,22.42,17.07,22.42,6.9,0,12.25-4.49,13.98-10.52,.68-2.07,.86-4.84,.86-7.07v-12.42Z"/>
          <path d="M847.29,300.06c.86,11.03,11.55,16.21,23.8,16.21,8.96,0,16.19-1.21,23.28-3.63l3.44,17.77c-8.62,3.62-19.15,5.35-30.53,5.35-28.63,0-45.01-16.56-45.01-43.12,0-21.37,13.44-45.02,42.6-45.02,27.24,0,37.6,21.22,37.6,42.09,0,4.48-.52,8.45-.86,10.52l-54.32-.17Zm30.87-17.94c0-6.2-2.76-17.06-14.65-17.06-11.21,0-15.7,10.17-16.4,17.06h31.05Z"/>
          <path d="M918.16,276.6c0-10.52-.35-19.31-.69-26.91h22.77l1.2,11.74h.51c3.46-5.54,11.91-13.63,26.04-13.63,17.26,0,30.19,11.56,30.19,36.4v49.84h-26.21v-46.75c0-10.86-3.8-18.28-13.29-18.28-7.24,0-11.55,5.02-13.45,9.83-.69,1.73-.86,4.15-.86,6.55v48.64h-26.21v-57.44Z"/>
          <path d="M1032.16,238.65c-8.8,0-14.49-6.2-14.49-13.97s5.86-13.96,14.84-13.96,14.48,6.04,14.66,13.96c0,7.77-5.7,13.97-14.84,13.97h-.17Zm-12.94,11.04h26.21v84.34h-26.21v-84.34Z"/>
          <path d="M1086.65,300.06c.86,11.03,11.57,16.21,23.81,16.21,8.97,0,16.22-1.21,23.29-3.63l3.44,17.77c-8.62,3.62-19.14,5.35-30.52,5.35-28.63,0-45.02-16.56-45.02-43.12,0-21.37,13.45-45.02,42.6-45.02,27.25,0,37.6,21.22,37.6,42.09,0,4.48-.52,8.45-.87,10.52l-54.33-.17Zm30.87-17.94c0-6.2-2.76-17.06-14.66-17.06-11.21,0-15.68,10.17-16.39,17.06h31.04Z"/>
          <path d="M1157.7,277.46c0-12.41-.18-20.52-.69-27.77h22.42l1.02,15.71h.68c4.32-12.43,14.49-17.6,22.77-17.6,2.41,0,3.62,.19,5.51,.52v24.65c-2.24-.35-4.31-.69-7.23-.69-9.66,0-16.22,5.01-17.94,13.29-.35,1.71-.51,3.62-.51,5.86v42.6h-26.22l.18-56.58Z"/>
          <path d="M1223.05,249.7h26.22v84.34h-26.22v-84.34Zm41.21-36.39l-21.03,26.21h-17.94l14.82-26.21h24.15Z"/>
          <path d="M1340.5,313.68c0,7.93,.34,15.69,1.38,20.35h-23.63l-1.55-8.45h-.52c-5.51,6.72-14.13,10.34-24.14,10.34-17.08,0-27.26-12.41-27.26-25.87,0-21.9,19.68-32.25,49.5-32.25v-1.03c0-4.49-2.41-10.86-15.36-10.86-8.62,0-17.75,2.92-23.28,6.2l-4.83-16.73c5.88-3.28,17.42-7.6,32.77-7.6,28.11,0,36.91,16.56,36.91,36.4v29.49Zm-25.36-19.49c-13.79,0-24.49,3.28-24.49,13.28,0,6.73,4.48,10,10.34,10,6.39,0,11.91-4.31,13.63-9.65,.34-1.37,.51-2.93,.51-4.49v-9.14Z"/>
        </g>
        <g>
          <path d="M259.49,41.13l-54.79,93.86,108.67,.14,54.79-93.85-108.67-.15Zm49.29,83.17l-86.53-.11,43.63-74.73,86.53,.12-43.63,74.73Z"/>
          <path d="M446.21,135.59l-54.47,94.05,108.67-.25,54.46-94.04-108.67,.24Zm49.38,84.04l-86.58,.2,43.39-74.92,86.57-.19-43.39,74.92Z"/>
          <polygon points="325.8 135.14 379.64 229.54 434.14 135.53 380.31 41.12 325.8 135.14"/>
          <polygon points="446.02 334.03 554.69 334.03 500.03 240.11 391.36 240.1 446.02 334.03"/>
        </g>
      </g>
      <g>
        <path d="M1484.68,166.33v98.4c0,24.94-4.61,42.7-13.81,53.33-9.22,10.65-22.16,15.97-38.8,15.97-8.86,0-17.28-1.53-25.26-4.57-7.98-3.05-14.54-8.22-19.65-15.45-5.13-7.24-7.7-16.92-7.7-29.05v-127.95c0-4.52-.11-7.55-.37-9.07-.24-1.53-.84-2.45-1.84-2.76-3.74-.78-6.6-1.34-8.57-1.69-1.96-.36-3.19-.75-3.69-1.19-.48-.44-.74-1.41-.74-2.89,0-.88,.63-1.57,1.85-2.07,1.24-.49,2.45-.74,3.61-.74,3.16,0,6.41,.23,9.75,.67,3.35,.45,6.96,.65,10.79,.65,5.43,0,10.34-.2,14.78-.65,4.43-.44,7.48-.67,9.16-.67,2.55,0,4.39,.19,5.52,.58,1.15,.4,1.72,1.34,1.72,2.83,0,1.27-.75,2.2-2.22,2.8-1.47,.58-3.85,1.08-7.09,1.47-3.15,.4-5.5,.9-7.02,1.56-1.53,.63-2.86,2.34-3.99,5.09-1.14,2.77-1.71,6.79-1.71,12.1v126.78c0,8.48,1.78,15.47,5.33,20.98,3.54,5.52,8.03,9.57,13.45,12.12,5.4,2.55,11.02,3.84,16.83,3.84,7.29,0,14.06-1.77,20.32-5.32,6.26-3.54,11.31-9.26,15.14-17.15,3.86-7.87,5.76-17.87,5.76-29.97v-104.92c0-9.16-.88-15.36-2.65-18.61-1.78-3.27-4.94-5.12-9.46-5.63-3.65-.39-5.96-.8-6.95-1.24-.99-.45-1.47-1.56-1.47-3.34,0-2.67,1.82-3.99,5.46-3.99,1.28,0,3.55,.23,6.81,.67,3.24,.45,6.79,.65,10.64,.65,5.31,0,9.76-.2,13.38-.65,3.58-.44,5.91-.67,7-.67,2.56,0,3.85,1.32,3.85,3.99,0,1.08-.28,1.84-.89,2.3-.58,.43-1.7,.82-3.32,1.16-1.62,.34-3.52,.71-5.69,1.1-3.25,.8-5.44,2.45-6.57,4.96-1.14,2.51-1.7,7.9-1.7,16.17"/>
        <path d="M1579.09,261.34h-34.72c-2.56,0-4.41,.81-5.55,2.42-1.14,1.64-2.64,6.1-4.51,13.38-2.07,8.76-3.73,15.89-5.01,21.34-1.28,5.47-2.07,9.18-2.36,11.1-.3,1.91-.44,3.61-.44,5.09,0,4.52,2.9,7.23,8.7,8.12,4.33,.69,7.05,1.24,8.14,1.61,1.08,.4,1.61,1.29,1.61,2.66,0,1.19-.42,2.03-1.25,2.52-.84,.5-2.14,.74-3.92,.74-1.58,0-4.43-.19-8.57-.58-4.13-.4-7.43-.59-9.89-.59-5.41,0-9.7,.19-12.85,.59-3.16,.39-4.54,.58-4.16,.58-2.16,0-3.23-1.08-3.23-3.25,0-1.26,.33-2.16,1.03-2.66,.69-.47,1.91-1.03,3.69-1.61,1.77-.59,3.27-1.33,4.5-2.22,1.22-.88,2.09-2.16,2.59-3.84,4.43-13.39,8.32-26.21,11.67-38.43,3.34-12.2,7.36-27.37,12.04-45.51,4.67-18.11,9.06-35.35,13.15-51.71,4.08-16.35,7.41-29.36,9.96-39.01,1.29-3.93,2.24-6.42,2.89-7.46,.65-1.03,1.61-1.56,2.9-1.56,1.46,0,2.52,.45,3.09,1.34,.59,.88,1.28,2.84,2.07,5.9,2.47,8.97,5.63,20.34,9.46,34.13,3.84,13.8,7.6,27.36,11.31,40.71,3.69,13.35,8.11,29.23,13.21,47.66,5.13,18.41,9.51,34.47,13.16,48.17,1.98,6.98,4.53,11.02,7.68,12.1,.89,.3,2.22,.7,4,1.2,1.77,.5,3.04,1,3.84,1.54,.78,.53,1.19,1.25,1.19,2.15,0,1.57-2.13,2.35-6.35,2.35-2.16,0-5.18-.19-9.03-.58-3.84-.4-6.98-.59-9.45-.59-2.77,0-6.56,.19-11.38,.59-4.82,.39-8.16,.58-10.05,.58-3.44,0-5.17-1.08-5.17-3.25,0-2.66,2.61-3.99,7.83-3.99s7.83-2.51,7.83-7.53c0-1.18-3.19-14.18-9.6-39.01-1.67-6.48-3.08-10.65-4.2-12.48-1.14-1.83-3.09-2.73-5.84-2.73m-18.48-79.79c-.99,0-1.69,.57-2.13,1.7-.45,1.14-1.22,3.87-2.3,8.21-7.39,29.84-11.67,47.19-12.85,52.09-1.18,4.87-1.77,7.61-1.77,8.19,0,1.08,1.02,1.75,3.1,2.01,2.07,.24,7.08,.36,15.06,.36s13.16-.04,15.82-.14c2.65-.09,4.33-.3,5.02-.59,.69-.3,1.03-.94,1.03-1.92,0-.88-.3-2.48-.88-4.8-.59-2.32-2.02-7.5-4.29-15.59-2.27-8.08-4.05-14.55-5.32-19.43-1.28-4.87-3.36-12.87-6.21-24.01-.99-4.03-2.41-6.06-4.29-6.06"/>
        <path d="M1658.73,230.16c0,33.58,4.52,58.1,13.59,73.51,9.06,15.41,20.31,23.11,33.69,23.11,17.04,0,28.23-12.95,33.55-38.84,1.08-5.32,1.88-9.41,2.36-12.27,.5-2.86,.99-4.86,1.47-5.97,.5-1.14,1.24-1.7,2.21-1.7,1.69,0,2.87,.43,3.55,1.32,.69,.88,1.05,3.31,1.05,7.24l-.3,38.71c0,2.95-.27,4.99-.81,6.13-.55,1.14-1.61,2.19-3.18,3.17-2.95,2.47-8.25,4.66-15.89,6.57-7.64,1.94-15.03,2.89-22.23,2.89-13.8,0-26.3-4-37.54-12.03-11.22-8.03-20-19.57-26.29-34.67-6.31-15.06-9.45-32.88-9.45-53.49,0-15.15,1.77-28.98,5.31-41.45,3.55-12.45,8.48-23.04,14.77-31.75,6.31-8.72,13.99-15.49,23.06-20.32,9.07-4.82,19-7.24,29.84-7.24,7.98,0,15.58,1.07,22.82,3.17,7.23,2.13,11.94,4.07,14.11,5.84,1.18,.99,1.92,3.23,2.22,6.72,.3,3.5,.44,12.39,.44,26.67,0,6.9-.09,10.98-.3,12.27-.19,1.28-.97,1.92-2.36,1.92s-2.51-.82-3.38-2.45c-.9-1.63-2.39-5.74-4.44-12.33-3.74-11.53-8.35-20.18-13.82-25.94-5.46-5.77-11.98-8.65-19.57-8.65-5.13,0-10.28,1.63-15.51,4.88-5.22,3.25-10.05,8.52-14.48,15.81-4.44,7.29-7.96,16.78-10.58,28.43-2.61,11.69-3.91,25.26-3.91,40.72"/>
        <path d="M1797.33,112.84c.97,0,1.47,1.39,1.47,4.16v89.67c0,1.38,.74,2.07,2.22,2.07,.39,0,2.7-1.85,6.95-5.53,4.23-3.68,8.95-6.97,14.18-9.83,5.23-2.85,10.78-4.29,16.69-4.29,9.27,0,17.23,2.98,23.88,8.95,6.64,5.95,10.17,14.63,10.56,26.07v84.53c0,4.81,.74,8.36,2.21,10.63,1.48,2.27,3.85,3.54,7.1,3.85,3.34,.29,5.55,.74,6.65,1.32,1.07,.59,1.61,1.58,1.61,2.97,0,1.95-1.43,2.95-4.28,2.95,.58,0-1.78-.19-7.1-.58-5.32-.42-10.39-.59-15.21-.59-6.12,0-11.08,.18-14.92,.59-3.86,.39-5.87,.58-6.07,.58-1.48,0-2.59-.28-3.33-.82-.74-.55-1.12-1.34-1.12-2.42,0-1.19,.45-2.08,1.34-2.67,.88-.58,2.3-1.03,4.28-1.32,4.14-.6,6.95-1.63,8.43-3.12,1.47-1.46,2.22-4.17,2.22-8.11v-85.25c0-8.28-2.28-14.63-6.81-19.06-4.54-4.43-10.53-6.65-18.03-6.65-5.21,0-10.25,1.24-15.07,3.68-4.83,2.47-8.76,5.81-11.82,9.99-3.05,4.19-4.58,8.79-4.58,13.81"/>
        <path d="M1798.8,228.38v82.01c0,3.74,.99,6.62,2.96,8.65,1.96,2.01,5.32,3.36,10.05,4.06,2.75,.39,4.56,.87,5.39,1.46,.83,.61,1.26,1.53,1.26,2.83,0,1.95-1.37,2.95-4.14,2.95-.39,0-1.04-.07-2-.23-.94-.14-2.29-.28-4.05-.45-1.78-.14-3.92-.26-6.44-.36-2.49-.11-6.82-.14-12.93-.14-5.42,0-10.05,.18-13.88,.59-3.85,.39-6.1,.58-6.81,.58-2.56,0-3.84-1.18-3.84-3.55,0-2.16,1.38-3.4,4.13-3.68,3.46-.5,6.03-1.21,7.75-2.15,1.72-.94,2.88-2.49,3.48-4.66,.58-2.16,.88-5.27,.88-9.31V139.44c0-2.36-.59-4.06-1.77-5.09-1.18-1.06-3.49-1.85-6.95-2.46-4.23-.77-6.35-2.01-6.35-3.67s1.43-2.87,4.29-3.85c9.06-3.25,15.71-5.98,19.96-8.19,4.23-2.23,6.73-3.34,7.53-3.34"/>
      </g>
    </g>
  </g>
</svg>