<?xml version="1.0" encoding="UTF-8"?>
<svg id="Layer_2" data-name="Layer 2" xmlns="http://www.w3.org/2000/svg" viewBox="0 0 2047 2617.82">
  <g id="Logos-IngCivilMecanica">
    <g id="Logo-IngCivilMecanica-Oficial-Negro">
      <rect width="2047" height="2617.82" style="fill: none;"/>
      <g>
        <path d="M523.03,1671.57c2.11-14.95,4.03-29.93,6.4-44.85,1.69-10.66,1.67-19.51-8.81-27.13-9.53-6.93-16.69-17.09-25.1-25.62-10.87-11.02-21.71-22.1-33.11-32.56-2.69-2.47-7.47-3.11-11.42-3.7-11.02-1.66-22.1-2.97-33.18-4.21-7.58-.85-15.21-1.36-22.81-1.99-7.9-.66-15.81-1.2-23.7-1.95-22.65-2.14-35.57-16.86-46.2-35.09-6.13-10.52-13.73-20.17-20.07-30.58-1.77-2.9-2.64-7.42-1.81-10.65,3.72-14.47,8.14-28.77,12.42-43.1,6.37-21.33,13.57-42.45,18.85-64.05,1.9-7.76,.49-16.94-1.53-24.93-6.54-25.86-14.08-51.47-21.21-77.19-4.47-16.11-8.91-32.22-13.31-48.34-1.57-5.76-5.46-8.52-10.54-11.78-11.22-7.19-21.19-16.34-31.62-24.75-14.77-11.9-29.85-23.46-44.03-36.02-3.86-3.42-6.93-9.91-7.02-15.06-.57-31.77-.86-63.58,.19-95.33,.43-12.95,4.37-25.8,6.93-38.65,.38-1.9,1.51-4.15,3.02-5.23,10.71-7.63,21.42-15.31,32.5-22.37,11.61-7.4,23.64-14.15,35.51-21.15,2.27-1.34,4.48-3.22,6.95-3.75,19.27-4.16,25.47-18.02,27.78-35.57,.83-6.27,3.79-12.29,6.06-18.32,8.87-23.59,18.58-46.89,26.38-70.83,2.52-7.75,2.07-17.7-.38-25.6-7.18-23.16-15.98-45.81-24.27-68.62-3.29-9.05-7.2-17.87-10.2-27.01-.89-2.72-.72-6.84,.77-9.13,11.18-17.15,22.93-33.93,34.27-50.98,6.18-9.29,12.24-18.69,17.75-28.39,6.46-11.37,15.97-16.76,28.85-16.97,10.29-.17,20.59-.9,30.87-.76,3.56,.05,7.07,2.03,10.63,3.05,3.03,.87,6.07,2.29,9.13,2.34,15.89,.27,31.8,.6,47.67,0,5.25-.2,11.31-1.93,15.41-5.06,13.77-10.5,26.83-21.93,40.13-33.03,11.63-9.7,15.16-21.78,13.62-36.96-2.45-24.25-3.02-48.69-4.46-73.05-.79-13.32,10.55-17.55,18.46-23.84,7.71-6.13,16.6-10.81,25.1-15.9,18.82-11.28,37.8-22.29,56.55-33.67,10.54-6.4,20.47-6.35,31.7-.91,13.38,6.47,27.66,11.05,41.46,16.67,11.68,4.76,23.33,9.62,34.81,14.83,17.57,7.98,33.41,6.36,50.98-2.71,13.69-7.07,30.34-8.66,45.84-11.89,19.8-4.13,39.8-7.35,59.64-11.31,2.15-.43,4.4-2.82,5.64-4.88,7.34-12.15,14.63-24.36,21.5-36.78,8.48-15.34,16.66-30.85,24.7-46.42,2.88-5.59,6.64-8.14,13.18-8.09,33.25,.29,66.51,.09,99.77,.3,4.3,.03,8.57,1.54,12.88,2.2,5.41,.83,11,2.67,16.22,1.94,8.67-1.2,12.28,2.73,14.92,10.02,6.97,19.27,14.34,38.4,21.51,57.6,.51,1.36,.83,2.81,1.1,4.25,2.52,13.13,13.42,23.91,27.21,25.56,32.09,3.84,62.49,13.89,92.84,24.28,6.03,2.06,11.94,4.52,18.05,6.27,2.38,.68,5.35,.48,7.74-.28,28.43-9.1,56.81-18.38,85.2-27.61,2.24-.73,4.89-.84,6.68-2.15,18.12-13.26,32.47-4.98,47.25,6.88,8.12,6.51,18.37,10.28,27.24,15.95,10.23,6.54,19.95,13.9,30,20.73,3.88,2.63,8.17,4.65,12.09,7.22,7.93,5.18,12.2,12.21,11.99,22.11-.31,14.12,.57,28.27-.01,42.37-.38,9.22-2.11,18.44-3.86,27.53-2.22,11.47-2.9,21.15,8.64,29.59,9.93,7.26,17.15,18.14,25.94,27.06,10.47,10.62,20.98,21.26,32.24,31,3.31,2.86,9.18,3.28,13.99,3.81,25.67,2.81,51.38,5.27,77.06,7.93,22.2,2.3,35.07,16.74,45.67,34.62,6.35,10.71,14.06,20.62,20.54,31.26,1.76,2.9,2.46,7.48,1.61,10.76-3.73,14.45-8.15,28.72-12.41,43.04-4.09,13.74-8.27,27.45-12.42,41.18-2.29,7.57-5.7,15.01-6.59,22.74-.92,7.9-.67,16.42,1.32,24.09,6.78,26.08,14.68,51.86,21.92,77.82,4.47,16,8.57,32.11,12.73,48.19,1.59,6.15,5.63,8.98,11.11,12.29,10.64,6.41,20.15,14.81,29.64,22.96,12,10.31,23.51,21.19,35.24,31.82,.43,.39,.88,.89,1.41,1.04,16.45,4.66,16.15,17.45,15.91,31.02-.47,26.77,.08,53.56-.19,80.34-.05,5.12-1.96,10.22-2.92,15.35-.91,4.85-2.49,9.73-2.41,14.57,.16,10.24-2.34,17.4-12.66,22.66-12.41,6.34-23.06,16.03-35.08,23.24-13.03,7.82-26.42,15.27-40.32,21.35-11.23,4.91-14.32,15.18-18.36,24.36-4.17,9.47-4.72,20.48-8.24,30.32-7.99,22.34-17.56,44.13-24.92,66.66-2.65,8.12-3.09,18.43-.57,26.5,7.93,25.43,17.62,50.31,26.9,75.31,2.74,7.38,6.74,14.29,9.42,21.69,.93,2.57,.54,6.55-.89,8.88-8.07,13.15-16.42,26.13-25.07,38.9-11.49,16.96-22.95,33.97-35.33,50.28-2.87,3.78-9.38,6.69-14.24,6.72-17.5,.13-35.34,2.26-52.2-5.12-2.25-.99-5.23-.4-7.87-.4-14.42,.04-28.84,.1-43.26,.23-3.23,.03-7.07-.69-9.57,.77-12.38,7.22-25.06,14.21-36.31,22.98-7.24,5.64-12.02,14.35-18.21,21.42-6.25,7.14-8.22,15.42-7.63,24.57,1.44,22.6,1.7,45.36,4.76,67.73,2.39,17.53-6.14,26.97-18.99,35.09-8.13,5.14-16.27,10.27-24.53,15.21-19.08,11.42-38.28,22.64-57.34,34.08-9.73,5.84-19.18,5.36-29.43,.91-15.29-6.64-31.05-12.18-46.49-18.48-12.51-5.11-24.81-10.71-37.25-15.99-15.39-6.54-28.97-1.9-43.61,4.53-14.28,6.28-30.27,8.96-45.72,12.24-20.07,4.27-40.37,7.47-60.51,11.47-2.19,.43-4.54,2.72-5.78,4.77-7.51,12.4-14.94,24.87-21.98,37.54-8.24,14.83-16.23,29.8-23.99,44.89-3.2,6.22-7.49,8.96-14.64,8.9-33.25-.25-66.52,.33-99.76-.34-10.63-.22-21.28-3.02-31.72-5.47-2.33-.55-4.38-4.35-5.65-7.08-8.78-18.88-17.32-37.88-25.92-56.84-.72-1.6-1.54-3.19-1.96-4.88-4.2-16.63-14.47-25.53-31.45-27.54-30.31-3.59-58.95-13.55-87.69-23.14-6.32-2.11-12.49-4.71-18.88-6.6-2.39-.71-5.38-.64-7.77,.12-29.01,9.21-57.97,18.61-86.93,27.96-1.96,.63-4.21,.88-5.8,2.04-17.91,12.94-32.05,4.52-46.62-6.97-8.19-6.45-18.42-10.25-27.28-15.93-14.96-9.59-30.09-19.06-44.02-30.02-4.82-3.79-7.89-11.59-8.88-18.01-1.47-9.48-.38-19.35-.38-29.06-1.02-.1-2.04-.2-3.06-.3Zm503.8-398.42c-1.14-.02-2.27-.05-3.41-.07-.93,5.29-2.61,10.58-2.64,15.87-.16,23.53,.11,47.07,.29,70.6,.3,39.41,.13,78.83,1.2,118.22,.55,20.24,8.79,26.8,29.01,26.83,5.09,0,10.98,.03,11.32,6.81,.37,7.27-5.94,7.12-10.8,7.15-26.77,.16-53.55,.13-80.32,0-4.62-.02-10.28,.2-10.6-6.46-.36-7.37,5.79-7.89,10.57-7.32,22.72,2.7,31.66-16.56,31.6-34.24-.21-57.35,.47-114.7,.44-172.05-.01-17.89-.56-35.83-2.24-53.62-.58-6.14-4.65-12.36-8.35-17.7-4.53-6.54-8.9-14.63-19.91-8.08-1.83,1.09-7.79-4.77-11.84-7.42,3.66-1.74,7.18-4.37,11.02-4.98,4.53-.72,9.33,.54,14.02,.54,16.76-.02,33.53-.5,50.28-.1,3.11,.07,7.37,2.66,8.98,5.35,5.56,9.27,10.61,18.91,15.08,28.77,11.88,26.19,23.11,52.68,35.04,78.85,17.15,37.63,34.63,75.1,52.14,112.56,1.38,2.96,4.05,5.33,6.12,7.97,2.64-2.89,6.18-5.37,7.75-8.76,6.15-13.29,11.37-27.01,17.5-40.31,10.83-23.48,21.98-46.81,33.22-70.1,3.35-6.94,4.17-13.61-.59-19.95-6.15-8.19-12.2-16.54-19.21-23.97-10.66-11.31-22.5-21.53-33.12-32.87-12.55-13.4-24.24-27.6-36.48-41.3-16.8-18.8-33.76-37.47-50.68-56.17-2.76-3.05-5.72-5.91-8.57-8.88-12.08-12.58-24.3-25.02-36.17-37.79-13.17-14.17-25.89-28.76-39.04-42.96-11.38-12.29-23.24-24.15-34.59-36.46-9.68-10.5-18.93-21.38-28.39-32.08-13.54-15.3-26.88-30.79-40.76-45.77-4.25-4.59-9.77-10.7-15.11-11.13-26.96-2.14-52.02,5.83-70.98,24.68-11.06,11-18.44,26.54-24.87,41.19-12.9,29.39-14.54,60.89-13.7,92.62,.55,20.78,3.24,41.14,11.6,60.24,4.42,10.11,8.91,21,16.24,28.85,13.55,14.49,29.14,26.56,49.28,32.15,31.93,8.86,84.17,9.53,111.69-30.08,6.18-8.89,13.04-17.34,20.15-25.51,1.9-2.19,5.87-2.58,8.89-3.8,.41,3.54,1.26,7.1,1.04,10.6-.11,1.74-2.12,3.4-3.35,5.04-4.25,5.63-8.75,11.08-12.79,16.86-14.1,20.18-33.16,34.19-56.15,41.83-31.93,10.61-64.56,12.57-97.23,2.48-17.78-5.49-35.38-12.22-49-24.95-11.44-10.7-21.83-23.09-30.36-36.25-33.14-51.1-32.62-105.65-12.01-160.6,9.14-24.35,25.55-44.85,46.91-60.39,22.32-16.24,45.99-29.69,74.59-31.47,3-.19,8.14-2.82,8.24-4.54,.18-3.16-2.02-7.08-4.36-9.65-20.3-22.33-40.93-44.36-61.29-66.63-11.67-12.76-22.82-25.99-34.55-38.7-15.7-17.02-31.77-33.71-47.6-50.6-12.37-13.2-24.58-26.55-37-39.7-1.45-1.53-4.75-3.57-5.55-3.02-1.89,1.32-3.01,3.96-4,6.26-.54,1.26-.24,2.9-.23,4.37,.07,58.86,.07,117.71,.27,176.57,.06,16.46,.18,32.95,1.3,49.36,.82,11.95,7.23,17.87,19.08,20.18,2.59,.5,5.25,.65,7.89,.95,5.95,.66,13.19,1.04,12.2,8.96-.28,2.23-8.45,4.89-13.02,4.94-32.36,.39-64.74,.15-97.1,.09-2.64,0-5.61,.52-7.85-.49-3.08-1.38-5.6-4-8.36-6.08,2.87-2.32,5.61-4.82,8.66-6.86,1.06-.72,2.99,0,4.32-.5,7.51-2.78,15.07-5.49,22.33-8.83,1.53-.7,2.49-3.93,2.66-6.08,1.5-19.04,3.85-38.1,3.87-57.16,.06-52.08-.87-104.17-1.44-156.25-.12-10.89-.27-21.78-.67-32.65-.3-8.1-2.7-15.01-11.47-17.95-5.78-1.94-12.1-3.37-16.94-6.79-8.43-5.95-13.52-2.23-18.47,4.24-12.42,16.23-25.38,32.08-37.04,48.84-12.68,18.21-24.74,36.93-35.94,56.08-8.87,15.17-16.1,31.32-23.95,47.09-3.25,6.53-6.79,12.99-9.21,19.84-5.96,16.87-11.72,33.83-16.85,50.96-6.27,20.96-12.85,41.92-17.35,63.3-3.92,18.64-5.81,37.8-7.42,56.83-4.72,55.78-4.86,111.46,6.27,166.66,3.76,18.65,6.45,37.68,12.09,55.76,9.42,30.2,19.07,60.56,31.9,89.38,11.83,26.57,26.99,51.85,42.53,76.53,15.38,24.43,31.66,48.59,50.14,70.7,17.65,21.11,38.08,40.03,58.37,58.74,13.06,12.04,28.02,22.02,42.27,32.74,4.19,3.16,9.59,4.97,13.16,8.64,10.65,10.93,22.55,19.38,37.38,23.74,4.05,1.19,8,3.97,11.07,6.97,18.2,17.8,40.1,28.71,64.47,34.87,18.54,4.68,37.65,7.45,55.77,13.32,38.82,12.58,78.57,17.38,119.1,17.94,26.73,.36,53.75,3.82,80.11,.99,45.82-4.93,91.43-12.64,136.74-21.23,21.44-4.07,42.24-12.19,62.86-19.76,15.68-5.76,30.89-13.02,45.83-20.56,17.3-8.72,34.3-18.09,51-27.92,12.13-7.14,23.4-15.75,35.35-23.22,15.22-9.51,30.83-18.39,46.1-27.82,8.57-5.3,8.55-8.18,1.81-15.89-7.72-8.83-15.09-17.96-22.68-26.89-4.93-5.8-9.67-11.82-15.08-17.15-8.16-8.04-17.38-15.05-25.17-23.41-11.59-12.44-22.23-25.76-33.49-38.51-1.76-1.99-4.68-2.95-7.07-4.38-1.52,2.67-4.42,5.38-4.35,8.01,.6,22.58,1.31,45.18,3.09,67.69,.34,4.22,4.82,9.73,8.83,11.67,6.33,3.07,14.08,3.07,20.83,5.47,3.28,1.17,5.67,4.86,8.46,7.41-2.9,1.88-5.62,4.18-8.76,5.5-2.02,.85-4.64,.32-6.99,.34-26.18,.17-52.36,.35-78.53,.48-8.53,.04-17.13,.57-25.56-.36-3-.33-5.61-4.3-8.39-6.61,2.83-2.36,5.54-4.9,8.58-6.96,1.02-.69,2.87-.16,4.34-.2,19.57-.55,28.23-9.34,28.39-29.22,.17-20.6,.17-41.19,.13-61.79-.04-18.24-.12-36.47-.49-54.7-.06-3-.95-6.7-2.86-8.8-5.3-5.85-11.33-11.03-17.08-16.46-6.32-5.97-10.35-5.52-14,2.17-5.4,11.38-10.34,22.98-15.55,34.46-8.36,18.39-16.79,36.75-25.17,55.13-13.12,28.8-26.14,57.65-39.48,86.34-1.12,2.41-4.54,5.48-6.6,5.28-2.7-.26-6.29-2.93-7.48-5.5-17.04-37-33.7-74.17-50.52-111.28-15.48-34.17-31.06-68.3-46.55-102.46-3.71-8.18-7.28-16.43-10.91-24.65Zm-179.22-484.02c4.91,5.16,10.28,10.66,15.5,16.3,15.66,16.91,14.57,46.19-1.83,62.37-2.29,2.26-3.98,6.86-3.36,9.84,.53,2.55,4.48,5.46,7.43,6.25,15.27,4.07,30.89,6.87,46.03,11.34,21.53,6.36,41.15,16.92,59.4,30.01,2.61,1.87,5.14,4.11,8.07,5.21,26.31,9.82,45.63,29.2,65.94,47.38,11.55,10.34,22.81,21.85,36.24,29.03,13.26,7.09,23.54,17.19,34.6,26.39,26.38,21.93,52.69,43.06,87.74,49.87,24.34,4.73,46.47-2.37,66.22-13.97,15-8.81,26.53-23.49,39.8-35.33,1.89-1.69,4.96-2.07,7.48-3.05,.19,2.35,1.44,5.47,.39,6.92-9.45,12.98-19.16,25.78-29.08,38.41-7.59,9.67-16.42,18.49-22.99,28.77-2.41,3.77-2.13,12.8,.73,15.8,14.16,14.89,32.59,23.65,51.38,31.33,4.96,2.03,9.21,4.32,6.78,9.81-.7,1.57-7.05,1.47-10.55,.8-11.72-2.25-23.21-6.29-34.99-7.41-12.41-1.17-24.57,1.68-34.81,9.97-22.13,17.9-40.03,39.6-56.3,62.71-4.46,6.33-3.43,12.53,2.55,18.11,9.03,8.42,17.97,16.98,26.34,26.05,9.12,9.88,17.31,20.61,26.32,30.59,12.17,13.48,22.48,30.62,45.26,25.43,1.08-.25,2.34,.15,3.49,.37,8.76,1.69,14.54,8.11,13.28,16.86-2.21,15.37,7.27,23.1,17.99,30.49,3.57,2.46,7.4,4.83,10.23,8.02,4.71,5.32,9.35,4.72,11.95-.78,5.84-12.37,11.68-24.43,12.08-39.13,.55-20.29-2.11-42.08,13.37-59.18,6.92-7.64,11.28-17.69,22.02-21.85,6.16-2.39,6.58-8.7,1.34-13.61-16.81-15.73-30.43-33.05-39.58-54.93-7.3-17.48-10.93-35.34-13.44-53.39-4.12-29.63-1.47-59.41,5.3-88.53,3.05-13.08,8.51-25.61,13.09-38.32,.65-1.81,2.42-3.28,3.81-4.77,5.42-5.8,10.41-12.14,16.48-17.16,8.02-6.64,16.11-14.62,25.59-17.82,24.95-8.41,50.56-14.99,76.11-21.46,21.02-5.32,42.37-9.34,63.5-14.22,2.55-.59,6.79-3.07,6.7-4.43-.69-10.35,.15-21.87-4.3-30.57-4-7.82-12.55-13.45-15.28-23.01-.6-2.09-4.29-4.08-6.88-4.68-14.34-3.31-22.94-13.36-30.21-24.99-3.67-5.87-8.3-6.46-10.89-.41-2.73,6.38-7.5,8.89-13.41,11.55-10.11,4.56-20.96,8.99-28.99,16.24-10.27,9.27-17.88,21.42-26.94,32.07-12.45,14.65-25.22,29.03-37.78,43.58-9.37,10.85-17.83,22.64-28.17,32.48-12.93,12.31-26.87,24.65-46.26,24.62-27.31-.04-55.37,5.15-80.87-10.28-9.74-5.9-20.5-10.19-29.94-16.5-16.84-11.27-34.44-17.42-54.79-12.51-1.7,.41-3.68,1.09-5.19,.59-2.53-.84-5.56-2.02-6.84-4.04-.68-1.07,1.32-4.92,3.07-6.28,21.1-16.49,44.94-22.77,71.11-16.46,26.32,6.34,48.77,21.05,71.54,34.99,10.93,6.69,22.71,11.35,36.02,7.37,15.13-4.53,28.19-12.28,39.06-23.93,9.57-10.26,19.78-19.93,29.52-30.04,2.99-3.1,5.4-6.77,8.06-10.19,7.38-9.46,14.77-18.91,22.12-28.39,1.59-2.05,3.07-4.17,4.56-6.29,4.52-6.41,8.31-13.53,13.71-19.08,6.69-6.88,14.67-12.53,22.18-18.61,5.6-4.54,11.32-8.93,17.39-13.71-16.04-6.44-35.8-1.74-44.13,11.3-12.16,19.04-23.66,38.54-34.61,58.31-3.63,6.56-8.75,9.18-15.09,10.74-1.88,.46-4.13-.59-6.22-.95,.6-2.1,.74-4.49,1.88-6.24,2.85-4.36,7.68-7.99,9-12.68,4.56-16.26,10.32-31.73,20.9-45.15,4.87-6.18,7.98-14.58,14.09-18.78,15.68-10.77,27.17-24.84,37.38-41.02-11.67,0-23.31,.24-34.93-.18-2.76-.1-5.43-2.43-8.14-3.74,1.73-2.35,3.15-6.37,5.26-6.77,9.38-1.78,18.97-2.42,28.46-3.68,8.78-1.16,17.53-2.58,26.29-3.89-.05-1.26-.11-2.51-.16-3.77-19.4-1.95-38.8-3.89-61.15-6.14,5.15-4.05,8.93-6.68,12.28-9.78,2.37-2.19,4.17-5.01,6.22-7.55-2.7-1.31-5.38-3.72-8.09-3.75-18.91-.16-32.29-11.89-44.54-23.35-12.13-11.35-24.78-20-41.17-21.27-10.27-.79-18.17-5.23-26.65-10.22-14.63-8.62-28.19-20.69-47.31-18.24-2.63,.34-5.54-1.51-8.32-2.35-.03-.8-.07-1.61-.1-2.41,2.71-1.33,5.3-3.04,8.15-3.92,20.33-6.3,37.79-.93,53.72,12.59,4.5,3.82,10.57,6.25,16.31,8.02,11.64,3.58,24.36,4.62,35.13,9.81,10.02,4.83,18.5,13.26,26.93,20.91,9.3,8.43,18.06,17.19,35.17,16.35-4.29-5.98-6.48-11.45-10.52-14.17-9.88-6.65-20.29-12.76-31.1-17.76-16.73-7.73-33.86-15.11-44.72-30.6-7.38-10.53-17.85-18.28-21.74-32.29-5.77-20.76-7.09-41.72-8.61-62.74-.73-10.18-5.14-17.93-10.93-25.23-6.02-7.58-12.71-14.67-19.53-21.55-3.23-3.25-7.5-5.45-11.21-8.25-12.47-9.41-27.46-7.4-41.58-9.1-42.63-5.13-80.35,10.48-117.17,28.79-27.03,13.44-53.13,28.82-80.45,41.61-20.15,9.44-41.63,16.03-62.46,24.03-4.64,1.78-9.04,4.16-13.56,6.26,.2,.96,.4,1.93,.59,2.89,5.97,.96,11.97,1.78,17.91,2.91,19.48,3.72,25.92,10.08,25.53,24.97-.35,13.3,.47,13.84,14.13,14.31,21.74,.74,43.47,1.67,65.18,2.95,7.9,.47,11.72-1.44,12.51-10.27,2.11-23.69,7.7-33.41,34.64-39.51,11.33-2.57,23.13-3.1,33.63-4.43-20.09-4.01-41.16-8.21-62.23-12.41,.05-1.25,.1-2.49,.15-3.74,4.65-.7,9.3-1.98,13.95-1.99,25.87-.08,51.74,.23,77.6,.2,5.97,0,12.98,1.36,15.78-6.41,2.87-7.96-1.4-13.52-6.93-18.47-.88-.78-1.83-1.48-2.71-2.27-4.34-3.91-2.44-7.04,1.85-8.57,2.85-1.02,6.43-.93,9.48-.34,19.68,3.84,38.87,8.97,55.79,20.58,6.15,4.22,9.82,9.24,9.64,16.64-.19,7.65-6.04,11.02-12.04,12.22-12.32,2.47-24.84,4.31-37.37,5.24-11.49,.86-23.1,.18-34.66,.18-.39,1.25-.78,2.49-1.17,3.74,3.23,2.11,6.43,4.28,9.71,6.31,10.1,6.23,20.73,11.76,30.09,18.94,3.33,2.56,5.84,9.8,4.63,13.6-1.16,3.64-7.3,6.92-11.83,8.04-14.51,3.59-29.28,6.17-43.97,9.02-7.34,1.42-7.63,5.67-4.14,10.79,5.29,7.75,11.33,14.99,16.53,22.8,12.63,18.97,30.67,35.49,31.18,60.34,.27,13.32,1.29,28.26-3.99,39.71-10.76,23.34-28.08,39.81-57.47,38.63-27.37-1.1-54.4-2.19-81.4-8.29-41.81-9.45-84.11-16.73-126.26-24.62-11.76-2.2-23.74-3.26-35.59-5-18.9-2.77-37.79-5.66-56.96-8.54Zm685.99,219.35c-.54-.42-1.09-.84-1.63-1.26-3.74,9.45-7.76,18.81-10.94,28.44-.58,1.77,1.67,5.79,3.65,6.86,6.14,3.31,5.03,7.14,1.91,11.53-1.7,2.39-3.41,4.89-5.58,6.8-2.85,2.52-6.16,4.51-9.28,6.72-.78-3.68-2.25-7.37-2.23-11.05,.06-13.51,1.01-27.04,.68-40.53-.07-3-5.43-8.68-5.88-8.45-5.48,2.91-12.52,5.59-15.2,10.49-4.54,8.29-6.05,18.2-9.24,27.29-1.12,3.17-3.31,6.02-5.27,8.84-1.99,2.86-4.03,5.77-6.53,8.15-2.89,2.75-6.32,4.94-9.51,7.37-1.03-3.85-3-7.75-2.83-11.55,.19-4.26,3.89-8.69,3.25-12.59-.98-5.93-4.38-11.46-6.75-17.16-3.66,2.39-7.5,4.57-10.94,7.25-2.53,1.97-5.2,4.24-6.66,6.99-5.74,10.73-13.74,21.23-15.77,32.72-2.33,13.24,.04,27.53,1.9,41.15,.7,5.14,4.61,11.29,8.94,14.15,6.18,4.1,7.99,8.83,7.79,15.41-.1,3.22-.63,6.61,.15,9.64,1.38,5.35,4.08,8.35,10.17,4.2,2.61-1.78,6.61-3.01,9.58-2.44,5.22,1.01,7.26-.92,9.55-5.16,1.49-2.75,5.07-4.37,7.71-6.49,1.66,3.31,5.29,7.07,4.66,9.87-3.9,17.31-12.83,31.83-26.09,43.85-4.3,3.89-8.91,8.76-10.45,14.04-2.15,7.36-2.04,15.53-1.99,23.35,.06,9.32,.22,18.24-8.27,24.72-2.48,1.89-4.02,5-6.07,7.48-6.68,8.1-13.67,15.97-20.04,24.3-9.19,12.01-20.69,22.92-23.36,38.64-3.21,18.9-7.03,37.32-16.73,54.32-6.01,10.53-10.13,22.39-3.08,34.33,5.19,8.8,10.28,17.95,17.06,25.47,12.76,14.15,26.64,27.31,40.19,40.75q16.81,16.67,35.13,1.1c.45-.38,.97-.68,1.38-1.1,12.22-12.7,25.09-24.85,36.44-38.28,10.89-12.89,20.36-27.02,30.17-40.8,9.8-13.76,19.86-27.39,28.68-41.77,7.18-11.7,12.68-24.42,18.94-36.68,7.19-14.09,15.42-27.75,21.3-42.37,6.54-16.28,10.38-33.63,16.4-50.14,9.75-26.72,16.77-54.1,20.36-82.22,3.42-26.78,6.68-53.69,7.79-80.63,1.86-45.2-.62-90.26-10.29-134.7-2.81-12.91-3.8-26.24-7.1-39-3.66-14.13-8.95-27.85-13.67-41.7-2.55-7.48-5.38-14.86-8.08-22.29-.89,.18-1.77,.35-2.66,.53-.59,2.11-1.64,4.21-1.71,6.34-.33,11.15-1.06,22.36-.3,33.45,.41,5.9,1.88,13.64,5.86,16.96,7.24,6.03,7.83,13.15,8.68,21.08,1.63,15.33,1.52,30.1-10.72,41.84-.4,.38-.64,1-.81,1.55-5.1,16.82-18.97,24.19-33.66,29.76-7.42,2.81-12.28,6.87-14.25,14.1-3.49,12.77-14.18,22.83-13.84,37.01,0,.12-.98,.27-3.55,.93,.94-10.94,1.82-21.18,2.69-31.42Zm-467.25-216.77c21.61,.51,42.39-1.6,62.69-9.18,17.26-6.44,25.21-27.02,14.36-41.83-4.43-6.04-11.9-9.89-18.13-14.55-24.64-18.42-53.3-26.67-82.99-31.66-17.09-2.87-34.4-4.83-51.69-5.94-19.03-1.21-38.27-2.53-57.21-1.05-41.59,3.23-83.04,8.34-124.57,12.41-30.12,2.95-60.3,5.37-90.43,8.29-3.18,.31-6.19,2.41-9.27,3.68,1.63,3.15,2.85,6.63,5,9.38,3.37,4.3,8.51,7.54,10.88,12.24,5.1,10.1,9.04,13.23,20.43,13.09,5.55-.07,11.2-.53,16.65,.23,21.1,2.92,42.45,2.59,63.39,8.59,17.32,4.96,35.85,5.64,53.81,8.45,36.52,5.71,72.99,11.8,109.54,17.3,25.79,3.88,51.68,7.06,77.53,10.55Zm521.41,24.06c-1.31-5.85-1.51-10.74-3.47-14.76-8.35-17.1-17.21-33.95-25.91-50.88-3.08-6-5.6-12.41-9.45-17.88-11.09-15.74-22.61-31.18-34.19-46.57-9.93-13.19-19.85-26.42-30.4-39.11-5.99-7.2-13.45-13.15-19.87-20.01-21.48-22.92-45.6-42.73-71.08-60.93-11.98-8.55-24.34-16.58-36.72-24.55-2.39-1.54-7.09-3.21-8.25-2.15-2.14,1.98-3.12,5.89-3.36,9.09-.31,4.31,.86,8.7,.85,13.05-.04,24.63-.45,49.26-.32,73.89,.11,19.24,11.43,32.7,25.03,44.33,3.15,2.7,8.5,3.51,12.95,3.91,24.79,2.21,45.23,12.04,58.61,33.62,3.73,6.01,7.79,9.91,14.87,10.77,10.74,1.31,18.01,7.19,23.38,16.67,2.31,4.07,7.1,7.31,11.48,9.5,10.84,5.42,20.7,11.1,28.2,21.57,4.86,6.78,13.86,10.74,21.37,15.38,3.37,2.08,7.94,2.16,11.41,4.14,11.04,6.29,21.81,13.04,34.85,20.92Zm-863.32-268.11c4.82,1.58,7.41,2.6,10.09,3.28,15.63,3.97,31.34,7.66,46.92,11.83,14.64,3.91,28.93,9.66,43.79,12.09,15.27,2.5,31.02,2.21,46.57,2.73,24.13,.8,46.77-4.37,65.9-19.75,16.55-13.3,19.8-33.01,3.38-47.53-11.89-10.52-24.83-18.52-40.83-20.98-3.7-.57-7.62-1.8-10.69-3.84-8.27-5.5-17.05-6.29-26.18-3.68-23.27,6.68-46.34,14.09-68.03,24.95-20.38,10.21-40.44,21.08-60.49,31.94-3.34,1.81-5.91,5.01-10.43,8.96Zm429.59,551.96c.65-1.25,1.3-2.49,1.95-3.74-7.28-5.26-13.97-11.78-21.96-15.51-18.9-8.82-34.17-22.19-49.82-35.45-15.89-13.46-28.33-31.79-50.18-37.32-.8-.2-1.46-.96-2.19-1.44-20.7-13.42-36.89-32.99-59.49-43.81-14.09-6.75-28.26-13.33-42.46-19.85-1.53-.7-3.51-.96-5.18-.72-1.84,.27-4.77,1.01-5.08,2.14-.54,1.92-.11,4.94,1.16,6.39,4.61,5.21,9.9,9.8,14.66,14.89,13.41,14.32,26.73,28.72,39.99,43.18,10.47,11.42,22.4,21.91,30.85,34.68,15,22.69,35.59,32.9,61.83,34.68,10.21,.7,20.65,1.74,30.4,4.61,15.43,4.54,30.33,10.87,45.56,16.13,3.08,1.07,6.63,.8,9.96,1.14Zm344.06-263.28c6.88,9.43,12.96,11.24,25.6,7.25,11.33-3.57,20.83-.84,28.85,7.2,4.8,4.81,15.55,8.41,20.4,5.5,7.61-4.56,3.25-10.74,1.83-16.42-.57-2.27-1.23-4.55-2.21-6.67-6.18-13.44-17.18-17.07-30.32-10.71-6.01,2.91-12.45,5-18.85,6.97-8.04,2.47-16.23,4.44-25.3,6.88Zm-321.01-195.76c.06-1.47,.12-2.95,.18-4.42-8.29-3.02-16.36-7.37-24.91-8.8-23.8-3.99-39.9,2.58-38.29,30.59,.07,1.17,.18,2.34,.17,3.51-.04,5.47,2.8,7.88,8.12,8.16,5.13,.27,7.11-2.16,8.15-7.01,2.59-11.98,6.18-15.05,18.27-16.5,5.23-.63,10.59-.41,15.75-1.36,4.3-.79,8.38-2.74,12.56-4.17Zm412.83,283.83c-.86-7.43-1.25-14.2-2.63-20.77-.46-2.19-3.2-4.85-5.39-5.43-1.82-.49-5.14,1.16-6.46,2.88-4.56,5.95-9.52,11.92-12.41,18.69-2.38,5.58-2.81,12.32-2.72,18.53,.1,6.24,1.65,12.51,3.11,18.64,.55,2.31,2.24,4.72,4.12,6.18,.84,.66,4.18-.34,5.08-1.56,8.41-11.36,15.51-23.38,17.3-37.16Zm-125.1,105.51c1.56,2.42,3.12,4.83,4.68,7.25,2.11-2.1,5.31-3.83,6.14-6.35,4.97-14.94,9.6-30.01,13.8-45.19,.68-2.47-1.34-5.69-2.12-8.57-2.43,1.54-5.82,2.5-7.12,4.7-8.59,14.58-13.52,30.38-15.39,48.15Zm-887.92-367.49c13.65,0,25.25,.21,36.82-.26,1.53-.06,4.49-4.9,4.15-5.31-5.34-6.37-11.06-12.43-16.86-18.39-.52-.53-2.59-.37-3.3,.23-7.67,6.42-15.9,12.4-20.81,23.73Zm816.33,521.25c.29,8.89,5.95,12.64,11.62,8.52,9.43-6.85,18.02-15.04,19.56-27.69,.21-1.72-.67-4.83-1.74-5.19-2.23-.74-5.64-1.02-7.29,.22-5.96,4.46-11.77,9.26-16.88,14.66-2.84,2.99-4.17,7.41-5.27,9.49Zm.06-35.14c-7.38-12.66-14.65-25.89-22.92-38.46-1.24-1.89-7.15-.71-10.91-.95,.93,4.14,.85,11.21,2.97,11.94,11.2,3.9,14.16,13.17,17.46,22.63,1.06,3.04,2.16,6.21,4,8.78,1.07,1.49,3.67,2.64,5.51,2.54,1.03-.06,1.89-2.99,3.89-6.48Zm68.7,19.44c-.52-.73-1.39-3.27-2.76-3.58-2.3-.53-5.77-.55-7.26,.82-4.68,4.3-9.06,9.06-12.78,14.2-2.72,3.77-.8,6.8,3.83,7.23,5.74,.54,18.65-11.54,18.97-18.67Zm21.09-351.8c-9.57-11.15-25.32-10.65-43.62,0h43.62Zm48.9-11.55c-1.28-2.47-1.54-3.9-2.34-4.36-7.19-4.02-14.39-8.04-21.81-11.59-1.08-.52-4.09,.99-4.81,2.31-.65,1.2,.02,4.41,1.11,5.06,6.54,3.88,13.24,7.57,20.19,10.61,1.73,.76,4.62-1.15,7.67-2.03Zm-125.99,346.45c8.22-11.35,3.9-23.78-9.58-27.88,3.39,9.86,6.19,18.01,9.58,27.88Zm-11.21-30.79c1.17-7.52-.33-13.58-9.1-16.39-2.62,9.08,3.23,12.74,9.1,16.39Zm34.6,73.63c-.19,1.4-.39,2.81-.58,4.21,2.87,.98,5.74,1.95,8.6,2.93,.1-2.38,.2-4.76,.3-7.14h-8.33Zm-307.79-313.9c3.3,6.08,5.51,13.21,10.13,18.02,8.3,8.64,17.99,15.98,27.21,23.72,27.14,22.76,57.98,20.97,89.25,12.29,8.47-2.35,16.76-7.43,23.63-13.08,17-13.97,33.18-28.93,49.55-43.66,1.93-1.74,2.99-4.46,4.45-6.73-2.77-1.11-5.59-3.24-8.31-3.13-6.14,.26-12.21,1.72-18.34,2.52-16.1,2.1-32.15,4.04-47.7-3.2-9.3-4.33-11.2-11.43-3.57-16.54,6.31-4.22,13.03-7.98,19.97-11.06,13.55-6.01,26.8-2.61,40.45,1.16,14.03,3.88,28.6,5.95,43.03,8.17,14.46,2.23,22.56-7.83,30.27-17.55,1.33-1.67,.04-5.42-.03-8.21-2.26,.68-5.06,.74-6.7,2.15-11,9.49-23.08,8.89-35.65,4.33-22.88-8.31-45.12-18.8-69.76-21.22-14.69-1.44-29.78-2.87-42.91,5.58-12.78,8.23-22.42,19.69-29.28,33.43-5.13,10.29-3.32,17.72,5.73,24.47,13.06,9.74,25.8,19.89,40.56,31.33-4.93,2.22-9.22,5.49-13.8,5.95-10.2,1.03-20.59,1.42-30.81,.7-28.05-1.98-52-14.47-74.48-30.26-.96,.28-1.93,.55-2.89,.83Zm192.31-79.87c3.03-1.3,6.54-2.81,12.81-5.5-8.29-2.61-14.15-4.46-20.07-6.32,4.56-12.37,18.23-19.82,29.53-17.57,7.15,1.42,14.47,2.15,21.76,2.65,9.8,.67,26.29,9.44,27.36,15.79,.44,2.6-1.03,6.34-2.91,8.36-5.54,5.96-12.02,11.06-17.59,17-5.77,6.16-13.2,8.56-20.52,4.42-10.22-5.78-20-12.35-30.37-18.83Zm24.68-10.19c.09,9.91,4.74,15.58,10.77,14.77,2-.27,5.04-2.55,5.3-4.26,.8-5.24-7-16.21-10.7-15.26-2.54,.66-4.43,3.85-5.38,4.75Zm-65.49-71.2c.61,3,2.08,7.27,4.39,8.24,8.6,3.61,17.52,6.8,26.61,8.85,14.28,3.23,28.82,5.26,43.18,8.15,3.33,.67,6.43,2.66,9.56,4.18,5.15,2.5,10.06,5.65,15.42,7.54,7.75,2.72,11.03-.58,9.47-8.72-1.64-8.55-11.49-17.53-22.3-18.6-14.28-1.42-28.67-2.09-43.02-2.41-8.92-.2-17.45-.12-25.06-6.07-3.32-2.59-7.92-3.54-12.6-5.51-2.13,1.57-5.85,3.36-5.64,4.35Z"/>
        <g>
          <path d="M525.83,2114.35h-15.85v-117.02h15.85v117.02Z"/>
          <path d="M564.78,2043.64c1.79-2.02,3.7-3.84,5.71-5.48,2.01-1.63,4.14-3.03,6.4-4.2,2.27-1.18,4.66-2.07,7.19-2.69,2.53-.63,5.27-.95,8.21-.95,4.52,0,8.51,.75,11.96,2.25,3.46,1.51,6.34,3.62,8.65,6.37,2.32,2.75,4.08,6.06,5.27,9.92,1.2,3.87,1.8,8.14,1.8,12.83v52.67h-14.61v-52.67c0-6.26-1.43-11.12-4.29-14.58-2.86-3.46-7.2-5.18-13.02-5.18-4.31,0-8.32,1.04-12.05,3.1-3.73,2.07-7.18,4.88-10.33,8.41v60.92h-14.61v-82.73h8.74c2.07,0,3.35,1.01,3.84,3.02l1.15,8.99Z"/>
          <path d="M712.01,2034.9v5.39c0,1.8-1.13,2.93-3.42,3.42l-9.39,1.23c1.85,3.59,2.78,7.57,2.78,11.92,0,4.02-.79,7.69-2.33,10.98-1.55,3.29-3.69,6.11-6.41,8.45-2.72,2.34-5.99,4.13-9.79,5.39-3.82,1.25-7.95,1.88-12.41,1.88-3.87,0-7.51-.46-10.95-1.39-1.73,1.09-3.08,2.25-3.99,3.47-.93,1.22-1.4,2.46-1.4,3.72,0,1.96,.81,3.45,2.41,4.45s3.72,1.72,6.33,2.16c2.62,.44,5.6,.71,8.94,.82s6.78,.28,10.3,.53c3.51,.24,6.94,.67,10.28,1.27s6.33,1.58,8.94,2.93c2.62,1.36,4.72,3.25,6.33,5.64,1.6,2.4,2.41,5.5,2.41,9.31,0,3.53-.88,6.97-2.65,10.28s-4.32,6.27-7.63,8.86c-3.33,2.58-7.39,4.66-12.22,6.22-4.81,1.55-10.24,2.32-16.28,2.32s-11.33-.6-15.85-1.8c-4.52-1.2-8.28-2.8-11.27-4.82-3-2.01-5.25-4.34-6.74-6.98s-2.25-5.4-2.25-8.29c0-4.08,1.28-7.54,3.84-10.37,2.56-2.82,6.07-5.08,10.54-6.77-2.45-1.09-4.4-2.54-5.83-4.37-1.45-1.82-2.17-4.29-2.17-7.38,0-1.2,.22-2.44,.65-3.72s1.1-2.56,2.01-3.84c.89-1.28,2-2.49,3.3-3.63s2.82-2.15,4.57-3.02c-4.08-2.29-7.26-5.32-9.55-9.11s-3.42-8.18-3.42-13.19c0-4.02,.77-7.69,2.32-10.98,1.55-3.29,3.72-6.1,6.49-8.41,2.78-2.31,6.09-4.1,9.92-5.36,3.84-1.25,8.04-1.88,12.62-1.88,3.59,0,6.94,.39,10.04,1.19,3.1,.79,5.93,1.94,8.49,3.47h22.46Zm-14.78,83.95c0-2.02-.57-3.65-1.71-4.9-1.15-1.25-2.68-2.24-4.61-2.94s-4.18-1.21-6.74-1.52c-2.55-.29-5.27-.52-8.13-.69-2.86-.16-5.76-.33-8.69-.49-2.94-.16-5.77-.44-8.5-.82-3.04,1.42-5.54,3.2-7.47,5.34-1.93,2.16-2.9,4.67-2.9,7.56,0,1.85,.48,3.58,1.43,5.19,.96,1.6,2.41,2.99,4.37,4.16,1.96,1.18,4.42,2.09,7.38,2.78,2.97,.68,6.47,1.03,10.5,1.03s7.43-.36,10.52-1.07c3.11-.71,5.74-1.71,7.89-3.02s3.8-2.86,4.94-4.66c1.15-1.79,1.71-3.78,1.71-5.95Zm-26.21-44.91c2.93,0,5.52-.41,7.75-1.23,2.24-.81,4.11-1.95,5.64-3.42,1.52-1.47,2.66-3.23,3.42-5.27s1.15-4.29,1.15-6.74c0-5.06-1.54-9.09-4.61-12.08-3.08-2.99-7.53-4.49-13.35-4.49s-10.36,1.51-13.44,4.49c-3.08,3-4.61,7.02-4.61,12.08,0,2.45,.39,4.7,1.19,6.74,.79,2.04,1.94,3.8,3.47,5.27,1.53,1.47,3.4,2.62,5.63,3.42,2.24,.82,4.82,1.23,7.77,1.23Z"/>
          <path d="M792.94,2102.76c-1.79,2.17-3.95,4.07-6.45,5.67-2.51,1.6-5.19,2.93-8.05,3.96-2.86,1.04-5.81,1.81-8.86,2.33-3.05,.51-6.07,.77-9.06,.77-5.71,0-10.98-.97-15.8-2.9-4.82-1.93-8.99-4.77-12.5-8.5-3.5-3.73-6.24-8.34-8.2-13.84-1.96-5.5-2.94-11.81-2.94-18.94,0-5.77,.89-11.16,2.66-16.16,1.77-5.02,4.31-9.36,7.63-13.03,3.32-3.68,7.37-6.55,12.16-8.65,4.8-2.09,10.19-3.15,16.17-3.15,4.95,0,9.54,.84,13.76,2.5,4.21,1.66,7.86,4.06,10.94,7.19,3.08,3.13,5.49,6.99,7.23,11.59,1.73,4.6,2.61,9.84,2.61,15.72,0,2.29-.24,3.82-.73,4.58s-1.42,1.13-2.78,1.13h-55.28c.16,5.24,.88,9.77,2.17,13.64,1.28,3.86,3.05,7.09,5.34,9.67s5.01,4.52,8.17,5.8c3.15,1.28,6.7,1.92,10.61,1.92,3.65,0,6.79-.43,9.43-1.27,2.64-.85,4.91-1.76,6.82-2.74s3.5-1.9,4.78-2.74,2.38-1.27,3.3-1.27c1.2,0,2.13,.46,2.78,1.39l4.08,5.31Zm-11.76-38.79c0-3.37-.48-6.46-1.43-9.27-.95-2.8-2.34-5.22-4.17-7.26s-4.04-3.62-6.65-4.73c-2.62-1.11-5.58-1.68-8.9-1.68-6.97,0-12.48,2.03-16.53,6.09s-6.58,9.67-7.56,16.86h45.24Z"/>
          <path d="M825.77,2043.64c1.79-2.02,3.7-3.84,5.71-5.48,2.01-1.63,4.14-3.03,6.4-4.2,2.27-1.18,4.66-2.07,7.19-2.69,2.53-.63,5.27-.95,8.21-.95,4.52,0,8.51,.75,11.96,2.25,3.46,1.51,6.34,3.62,8.65,6.37,2.32,2.75,4.08,6.06,5.27,9.92,1.2,3.87,1.8,8.14,1.8,12.83v52.67h-14.61v-52.67c0-6.26-1.43-11.12-4.29-14.58s-7.2-5.18-13.02-5.18c-4.31,0-8.32,1.04-12.05,3.1-3.73,2.07-7.18,4.88-10.33,8.41v60.92h-14.61v-82.73h8.74c2.07,0,3.35,1.01,3.84,3.02l1.15,8.99Z"/>
          <path d="M921.63,2005.66c0,1.42-.28,2.74-.86,3.96-.57,1.23-1.33,2.32-2.28,3.27-.96,.95-2.07,1.7-3.35,2.25-1.29,.55-2.63,.82-4.05,.82s-2.74-.27-3.96-.82-2.3-1.3-3.23-2.25-1.66-2.04-2.2-3.27c-.55-1.22-.82-2.54-.82-3.96s.27-2.76,.82-4.04c.55-1.29,1.28-2.4,2.2-3.35,.93-.96,2.01-1.7,3.23-2.25s2.54-.82,3.96-.82,2.76,.27,4.05,.82c1.28,.55,2.39,1.29,3.35,2.25s1.71,2.06,2.28,3.35c.58,1.28,.86,2.63,.86,4.04Zm-3.11,25.97v82.73h-14.53v-82.73h14.53Z"/>
          <path d="M1009.5,2102.76c-1.79,2.17-3.95,4.07-6.45,5.67-2.51,1.6-5.19,2.93-8.05,3.96-2.86,1.04-5.81,1.81-8.86,2.33-3.05,.51-6.07,.77-9.06,.77-5.71,0-10.98-.97-15.8-2.9-4.82-1.93-8.99-4.77-12.5-8.5-3.5-3.73-6.24-8.34-8.2-13.84-1.96-5.5-2.94-11.81-2.94-18.94,0-5.77,.89-11.16,2.66-16.16,1.77-5.02,4.31-9.36,7.63-13.03,3.32-3.68,7.37-6.55,12.16-8.65,4.8-2.09,10.19-3.15,16.17-3.15,4.95,0,9.54,.84,13.76,2.5,4.21,1.66,7.86,4.06,10.94,7.19s5.49,6.99,7.23,11.59c1.73,4.6,2.61,9.84,2.61,15.72,0,2.29-.24,3.82-.73,4.58s-1.42,1.13-2.78,1.13h-55.28c.16,5.24,.88,9.77,2.17,13.64,1.28,3.86,3.05,7.09,5.34,9.67s5.01,4.52,8.17,5.8c3.15,1.28,6.7,1.92,10.61,1.92,3.65,0,6.79-.43,9.43-1.27,2.64-.85,4.91-1.76,6.82-2.74s3.5-1.9,4.78-2.74,2.38-1.27,3.3-1.27c1.2,0,2.13,.46,2.78,1.39l4.08,5.31Zm-11.76-38.79c0-3.37-.48-6.46-1.43-9.27-.95-2.8-2.34-5.22-4.17-7.26-1.82-2.04-4.04-3.62-6.65-4.73-2.62-1.11-5.58-1.68-8.9-1.68-6.97,0-12.48,2.03-16.53,6.09-4.06,4.06-6.58,9.67-7.56,16.86h45.24Z"/>
          <path d="M1042.41,2048.21c2.62-5.66,5.82-10.08,9.64-13.27,3.81-3.18,8.46-4.78,13.96-4.78,1.75,0,3.41,.2,5.02,.58,1.61,.38,3.04,.98,4.3,1.8l-1.07,10.85c-.33,1.36-1.15,2.05-2.44,2.05-.76,0-1.89-.16-3.35-.49-1.47-.33-3.14-.49-4.98-.49-2.62,0-4.94,.38-6.98,1.15-2.05,.76-3.87,1.89-5.48,3.38-1.6,1.51-3.05,3.35-4.33,5.55-1.28,2.21-2.43,4.73-3.47,7.56v52.26h-14.61v-82.73h8.32c1.58,0,2.67,.31,3.27,.91s1,1.63,1.22,3.1l.98,12.58Z"/>
          <path d="M1120.31,1996.03l-19.02,21.06c-.76,.82-1.52,1.41-2.25,1.76-.74,.36-1.68,.53-2.82,.53h-8.65l12.08-19.76c.76-1.25,1.59-2.16,2.49-2.74,.91-.57,2.22-.85,3.96-.85h14.21Zm-16.82,35.6v82.73h-14.61v-82.73h14.61Z"/>
          <path d="M1125.13,2043.31c4.57-4.41,9.5-7.7,14.78-9.88s11.14-3.27,17.56-3.27c4.62,0,8.74,.76,12.34,2.29,3.59,1.53,6.61,3.65,9.06,6.37,2.44,2.73,4.3,6.02,5.55,9.88,1.25,3.87,1.88,8.11,1.88,12.74v52.92h-6.45c-1.42,0-2.51-.23-3.27-.7-.76-.46-1.36-1.37-1.8-2.73l-1.63-7.84c-2.18,2.01-4.31,3.8-6.37,5.34-2.07,1.55-4.25,2.86-6.53,3.93-2.29,1.06-4.72,1.88-7.31,2.44-2.6,.58-5.46,.86-8.62,.86s-6.24-.45-9.07-1.35c-2.82-.89-5.29-2.25-7.38-4.04-2.09-1.8-3.76-4.07-4.98-6.83-1.22-2.75-1.83-6-1.83-9.75,0-3.27,.89-6.41,2.69-9.43,1.79-3.02,4.7-5.7,8.74-8.05,4.02-2.33,9.28-4.25,15.76-5.75,6.48-1.51,14.43-2.36,23.84-2.57v-6.46c0-6.42-1.39-11.28-4.17-14.57-2.77-3.29-6.83-4.94-12.16-4.94-3.6,0-6.6,.45-9.03,1.34-2.42,.91-4.52,1.91-6.28,3.02-1.77,1.12-3.29,2.13-4.57,3.02-1.29,.91-2.55,1.35-3.81,1.35-.97,0-1.82-.26-2.53-.77-.71-.52-1.3-1.16-1.79-1.92l-2.62-4.66Zm46.95,33.81c-6.7,.22-12.4,.74-17.1,1.59-4.71,.84-8.55,1.94-11.52,3.3s-5.12,2.97-6.46,4.82c-1.33,1.84-2,3.92-2,6.21,0,2.17,.35,4.06,1.06,5.63,.71,1.58,1.68,2.88,2.9,3.88s2.67,1.75,4.33,2.2c1.66,.47,3.45,.7,5.34,.7,2.56,0,4.91-.26,7.02-.77,2.13-.52,4.12-1.27,6.01-2.25,1.88-.98,3.68-2.15,5.39-3.51,1.71-1.36,3.39-2.91,5.02-4.66v-17.14Z"/>
          <path d="M1335.82,2090.19c.86,0,1.63,.35,2.28,1.06l6.29,6.78c-4.8,5.55-10.6,9.87-17.44,12.98-6.83,3.11-15.09,4.66-24.78,4.66-8.39,0-16.01-1.46-22.87-4.37-6.86-2.91-12.71-6.99-17.56-12.25-4.84-5.26-8.59-11.55-11.27-18.9-2.66-7.35-4-15.43-4-24.26s1.4-16.91,4.17-24.26c2.78-7.35,6.69-13.67,11.72-18.94,5.03-5.28,11.06-9.38,18.08-12.29,7.02-2.91,14.78-4.36,23.27-4.36s15.68,1.33,22.05,4c6.37,2.66,11.98,6.28,16.82,10.85l-5.22,7.27c-.33,.55-.75,.99-1.27,1.34-.52,.36-1.21,.53-2.08,.53-.98,0-2.18-.53-3.6-1.59-1.42-1.06-3.26-2.25-5.55-3.56-2.28-1.3-5.14-2.49-8.57-3.54-3.42-1.07-7.65-1.59-12.66-1.59-6.04,0-11.56,1.05-16.57,3.14-5.02,2.09-9.33,5.13-12.95,9.11-3.62,3.97-6.45,8.81-8.45,14.54-2.02,5.71-3.02,12.16-3.02,19.35s1.05,13.8,3.14,19.52c2.09,5.71,4.95,10.55,8.57,14.49,3.62,3.94,7.9,6.95,12.83,9.02,4.92,2.07,10.24,3.1,15.97,3.1,3.48,0,6.62-.2,9.42-.61,2.8-.4,5.4-1.05,7.77-1.92,2.37-.86,4.57-1.97,6.61-3.3s4.07-2.92,6.09-4.78c.93-.82,1.85-1.22,2.78-1.22Z"/>
          <path d="M1377.79,2005.66c0,1.42-.28,2.74-.86,3.96-.57,1.23-1.33,2.32-2.28,3.27-.96,.95-2.07,1.7-3.35,2.25-1.29,.55-2.63,.82-4.05,.82s-2.74-.27-3.96-.82-2.3-1.3-3.23-2.25-1.66-2.04-2.2-3.27c-.55-1.22-.82-2.54-.82-3.96s.27-2.76,.82-4.04c.55-1.29,1.28-2.4,2.2-3.35,.93-.96,2.01-1.7,3.23-2.25s2.54-.82,3.96-.82,2.76,.27,4.05,.82c1.28,.55,2.39,1.29,3.35,2.25,.95,.95,1.71,2.06,2.28,3.35,.58,1.28,.86,2.63,.86,4.04Zm-3.11,25.97v82.73h-14.53v-82.73h14.53Z"/>
          <path d="M1469.41,2031.63l-33.73,82.73h-13.06l-33.73-82.73h11.84c1.2,0,2.17,.31,2.93,.91s1.29,1.3,1.56,2.12l20.98,53.25c.65,2.02,1.22,3.98,1.71,5.88,.49,1.91,.95,3.82,1.39,5.71,.44-1.9,.91-3.81,1.4-5.71,.49-1.9,1.09-3.86,1.79-5.88l21.23-53.25c.33-.86,.87-1.59,1.64-2.16,.76-.58,1.66-.86,2.69-.86h11.35Z"/>
          <path d="M1501.26,2005.66c0,1.42-.28,2.74-.86,3.96-.57,1.23-1.33,2.32-2.28,3.27-.96,.95-2.07,1.7-3.35,2.25-1.29,.55-2.63,.82-4.05,.82s-2.74-.27-3.96-.82-2.3-1.3-3.23-2.25c-.93-.95-1.66-2.04-2.2-3.27-.55-1.22-.82-2.54-.82-3.96s.27-2.76,.82-4.04c.55-1.29,1.28-2.4,2.2-3.35,.93-.96,2.01-1.7,3.23-2.25s2.54-.82,3.96-.82,2.76,.27,4.05,.82c1.28,.55,2.39,1.29,3.35,2.25s1.71,2.06,2.28,3.35c.58,1.28,.86,2.63,.86,4.04Zm-3.11,25.97v82.73h-14.53v-82.73h14.53Z"/>
          <path d="M1537.02,1994.07v120.29h-14.53v-120.29h14.53Z"/>
        </g>
        <g>
          <path d="M708.27,2175.61v178.47h-36.5v-102.65c0-2.37,.07-4.94,.19-7.71,.12-2.78,.35-5.6,.68-8.45l-47.41,91.75c-1.46,2.86-3.45,5.02-5.93,6.49-2.5,1.47-5.33,2.2-8.52,2.2h-5.63c-3.18,0-6.03-.73-8.52-2.2s-4.47-3.63-5.94-6.49l-47.4-92c.24,2.94,.45,5.82,.61,8.64s.24,5.41,.24,7.78v102.65h-36.49v-178.47h31.6c1.8,0,3.37,.04,4.72,.13,1.34,.08,2.55,.33,3.61,.73s2.02,1.04,2.88,1.9c.85,.86,1.69,2.06,2.51,3.61l45.94,90.52c1.63,3.11,3.21,6.33,4.71,9.67,1.52,3.35,2.96,6.78,4.35,10.3,1.39-3.6,2.84-7.11,4.35-10.54,1.51-3.44,3.12-6.7,4.83-9.8l45.82-90.15c.81-1.55,1.65-2.75,2.51-3.61,.85-.86,1.81-1.49,2.88-1.9,1.06-.4,2.27-.65,3.61-.73,1.35-.09,2.92-.13,4.72-.13h31.6Z"/>
          <path d="M765.85,2297.37c1.23,10.61,4.45,18.31,9.67,23.09,5.24,4.78,11.96,7.17,20.22,7.17,4.41,0,8.2-.53,11.39-1.59s6.02-2.25,8.52-3.56c2.49-1.3,4.78-2.49,6.86-3.54,2.08-1.07,4.26-1.59,6.54-1.59,3.02,0,5.31,1.1,6.86,3.3l11.03,13.6c-3.92,4.48-8.15,8.14-12.67,10.96-4.54,2.81-9.19,5.02-13.97,6.61-4.78,1.59-9.55,2.69-14.33,3.3-4.78,.62-9.33,.93-13.65,.93-8.9,0-17.25-1.45-25.05-4.35-7.8-2.9-14.61-7.21-20.45-12.92-5.85-5.71-10.46-12.82-13.84-21.31-3.39-8.5-5.08-18.38-5.08-29.64,0-8.5,1.44-16.53,4.34-24.14,2.9-7.59,7.07-14.24,12.5-19.96s12-10.25,19.72-13.6,16.44-5.02,26.15-5.02c8.41,0,16.11,1.3,23.09,3.92,6.98,2.62,12.98,6.41,18.01,11.4,5.02,4.97,8.94,11.08,11.76,18.31,2.81,7.22,4.23,15.41,4.23,24.55,0,2.87-.13,5.19-.37,6.99-.25,1.79-.7,3.22-1.35,4.29-.65,1.06-1.53,1.79-2.63,2.2-1.1,.4-2.51,.61-4.23,.61h-73.25Zm47.77-22.05c0-3.02-.38-5.95-1.16-8.81-.79-2.86-2.05-5.41-3.81-7.66-1.76-2.25-4.06-4.07-6.91-5.45s-6.33-2.08-10.42-2.08c-7.19,0-12.82,2.06-16.91,6.18-4.08,4.12-6.77,10.07-8.08,17.82h47.28Z"/>
          <path d="M959.98,2257.19c-1.15,1.4-2.25,2.5-3.3,3.3-1.06,.82-2.57,1.23-4.53,1.23s-3.58-.45-5.09-1.35c-1.51-.89-3.2-1.9-5.08-3-1.88-1.1-4.08-2.1-6.61-3-2.53-.89-5.68-1.35-9.43-1.35-4.66,0-8.68,.86-12.06,2.57-3.39,1.71-6.18,4.17-8.39,7.35-2.21,3.18-3.84,7.09-4.91,11.7-1.06,4.61-1.59,9.82-1.59,15.62,0,12.16,2.34,21.52,7.05,28.05s11.17,9.79,19.41,9.79c4.42,0,7.91-.56,10.47-1.66,2.57-1.1,4.77-2.32,6.55-3.68,1.8-1.34,3.46-2.58,4.96-3.73,1.52-1.15,3.41-1.71,5.69-1.71,3.02,0,5.31,1.1,6.86,3.3l11.03,13.6c-3.92,4.48-8.04,8.14-12.37,10.96-4.33,2.81-8.76,5.02-13.3,6.61-4.53,1.59-9.09,2.69-13.65,3.3-4.57,.62-9.02,.93-13.35,.93-7.77,0-15.17-1.47-22.24-4.42-7.06-2.93-13.26-7.2-18.62-12.79-5.34-5.6-9.6-12.48-12.74-20.65-3.14-8.16-4.71-17.47-4.71-27.92,0-9.15,1.36-17.7,4.1-25.66,2.74-7.96,6.77-14.87,12.13-20.7,5.34-5.85,11.96-10.44,19.84-13.79,7.89-3.35,17.01-5.02,27.39-5.02s18.69,1.59,26.21,4.78c7.51,3.18,14.29,7.83,20.33,13.96l-10.04,13.35Z"/>
          <path d="M983.02,2244.7c7.68-6.78,16.19-11.82,25.54-15.13,9.35-3.32,19.37-4.96,30.07-4.96,7.68,0,14.59,1.24,20.77,3.73,6.16,2.5,11.39,5.97,15.67,10.42,4.29,4.45,7.58,9.74,9.86,15.86,2.29,6.13,3.44,12.83,3.44,20.09v79.38h-17.4c-3.6,0-6.31-.49-8.15-1.47s-3.37-3.02-4.59-6.12l-2.69-6.99c-3.18,2.7-6.25,5.07-9.19,7.11-2.93,2.04-5.98,3.77-9.12,5.2-3.15,1.43-6.5,2.5-10.04,3.18-3.56,.7-7.49,1.05-11.82,1.05-5.8,0-11.07-.76-15.8-2.27-4.73-1.52-8.76-3.74-12.06-6.67-3.3-2.94-5.86-6.6-7.66-10.96-1.8-4.37-2.69-9.41-2.69-15.13,0-4.58,1.15-9.21,3.42-13.91,2.29-4.7,6.25-8.99,11.89-12.86,5.63-3.88,13.23-7.13,22.78-9.74,9.55-2.62,21.59-4.09,36.13-4.42v-5.39c0-7.43-1.53-12.79-4.59-16.11-3.06-3.3-7.42-4.96-13.04-4.96-4.49,0-8.17,.49-11.03,1.47s-5.41,2.08-7.66,3.32c-2.25,1.22-4.43,2.32-6.55,3.3s-4.66,1.47-7.59,1.47c-2.62,0-4.82-.65-6.62-1.96s-3.26-2.86-4.41-4.66l-6.86-11.88Zm68.35,57.68c-7.59,.33-13.84,.98-18.74,1.96-4.91,.98-8.78,2.2-11.64,3.68-2.87,1.47-4.84,3.14-5.94,5.03-1.1,1.88-1.66,3.92-1.66,6.12,0,4.33,1.19,7.37,3.56,9.13,2.37,1.76,5.83,2.63,10.42,2.63,4.9,0,9.18-.85,12.86-2.57,3.68-1.71,7.38-4.48,11.15-8.32v-17.65Zm32.71-128.73l-31.85,32.21c-1.89,1.89-3.68,3.21-5.4,3.98-1.71,.79-4,1.17-6.86,1.17h-22.78l16.67-30.01c1.39-2.37,3.02-4.18,4.9-5.44s4.73-1.9,8.57-1.9h36.75Z"/>
          <path d="M1147.64,2240.77c2.45-2.28,4.98-4.41,7.6-6.37,2.61-1.95,5.41-3.61,8.39-4.96,2.98-1.34,6.21-2.4,9.67-3.18,3.47-.77,7.25-1.16,11.33-1.16,6.94,0,13.09,1.2,18.43,3.61,5.36,2.41,9.87,5.76,13.53,10.04,3.68,4.29,6.46,9.39,8.33,15.31,1.88,5.92,2.82,12.35,2.82,19.29v80.72h-37.98v-80.72c0-6.21-1.43-11.05-4.29-14.52-2.86-3.47-7.07-5.21-12.62-5.21-4.17,0-8.07,.88-11.7,2.64-3.63,1.76-7.17,4.14-10.59,7.17v90.64h-37.98v-127.03h23.53c4.73,0,7.83,2.13,9.3,6.37l2.2,7.35Z"/>
          <path d="M1295,2192.27c0,3.02-.61,5.86-1.84,8.51-1.22,2.66-2.89,4.98-5.02,6.98-2.13,2.01-4.59,3.6-7.42,4.78-2.81,1.19-5.81,1.78-9,1.78s-6-.59-8.69-1.78c-2.69-1.18-5.08-2.77-7.17-4.78-2.08-2-3.72-4.32-4.91-6.98-1.18-2.65-1.78-5.49-1.78-8.51s.6-6.01,1.78-8.7c1.19-2.69,2.82-5.06,4.91-7.1s4.47-3.63,7.17-4.78c2.69-1.15,5.58-1.71,8.69-1.71s6.18,.57,9,1.71c2.82,1.15,5.29,2.74,7.42,4.78,2.13,2.04,3.8,4.41,5.02,7.1,1.23,2.69,1.84,5.6,1.84,8.7Zm-3.92,34.78v127.03h-37.98v-127.03h37.98Z"/>
          <path d="M1411,2257.19c-1.15,1.4-2.25,2.5-3.3,3.3-1.06,.82-2.57,1.23-4.53,1.23s-3.58-.45-5.09-1.35c-1.51-.89-3.2-1.9-5.08-3-1.88-1.1-4.08-2.1-6.61-3-2.53-.89-5.68-1.35-9.43-1.35-4.66,0-8.68,.86-12.06,2.57-3.39,1.71-6.18,4.17-8.39,7.35-2.21,3.18-3.84,7.09-4.91,11.7-1.06,4.61-1.59,9.82-1.59,15.62,0,12.16,2.34,21.52,7.05,28.05,4.7,6.53,11.17,9.79,19.41,9.79,4.42,0,7.91-.56,10.47-1.66,2.57-1.1,4.77-2.32,6.55-3.68,1.8-1.34,3.46-2.58,4.96-3.73,1.52-1.15,3.41-1.71,5.69-1.71,3.02,0,5.31,1.1,6.86,3.3l11.03,13.6c-3.92,4.48-8.04,8.14-12.37,10.96-4.33,2.81-8.76,5.02-13.3,6.61-4.53,1.59-9.09,2.69-13.65,3.3-4.57,.62-9.02,.93-13.35,.93-7.77,0-15.17-1.47-22.24-4.42-7.06-2.93-13.26-7.2-18.62-12.79-5.34-5.6-9.6-12.48-12.74-20.65-3.14-8.16-4.71-17.47-4.71-27.92,0-9.15,1.36-17.7,4.1-25.66,2.74-7.96,6.77-14.87,12.13-20.7,5.34-5.85,11.96-10.44,19.84-13.79,7.89-3.35,17.01-5.02,27.39-5.02s18.69,1.59,26.21,4.78,14.29,7.83,20.33,13.96l-10.04,13.35Z"/>
          <path d="M1434.02,2244.7c7.68-6.78,16.19-11.82,25.54-15.13,9.35-3.32,19.37-4.96,30.07-4.96,7.68,0,14.59,1.24,20.77,3.73,6.16,2.5,11.39,5.97,15.67,10.42,4.29,4.45,7.58,9.74,9.86,15.86,2.29,6.13,3.44,12.83,3.44,20.09v79.38h-17.4c-3.6,0-6.31-.49-8.15-1.47s-3.37-3.02-4.59-6.12l-2.69-6.99c-3.18,2.7-6.25,5.07-9.19,7.11-2.93,2.04-5.98,3.77-9.12,5.2-3.15,1.43-6.5,2.5-10.04,3.18-3.56,.7-7.49,1.05-11.82,1.05-5.8,0-11.07-.76-15.8-2.27-4.73-1.52-8.76-3.74-12.06-6.67-3.3-2.94-5.86-6.6-7.66-10.96-1.8-4.37-2.69-9.41-2.69-15.13,0-4.58,1.15-9.21,3.42-13.91,2.29-4.7,6.25-8.99,11.89-12.86,5.63-3.88,13.23-7.13,22.78-9.74,9.55-2.62,21.59-4.09,36.13-4.42v-5.39c0-7.43-1.53-12.79-4.59-16.11-3.06-3.3-7.42-4.96-13.04-4.96-4.49,0-8.17,.49-11.03,1.47s-5.41,2.08-7.66,3.32c-2.25,1.22-4.43,2.32-6.55,3.3s-4.66,1.47-7.59,1.47c-2.62,0-4.82-.65-6.62-1.96s-3.26-2.86-4.41-4.66l-6.86-11.88Zm68.35,57.68c-7.59,.33-13.84,.98-18.74,1.96-4.91,.98-8.78,2.2-11.64,3.68-2.87,1.47-4.84,3.14-5.94,5.03-1.1,1.88-1.66,3.92-1.66,6.12,0,4.33,1.19,7.37,3.56,9.13,2.37,1.76,5.83,2.63,10.42,2.63,4.9,0,9.18-.85,12.86-2.57,3.68-1.71,7.38-4.48,11.15-8.32v-17.65Z"/>
        </g>
      </g>
    </g>
  </g>
</svg>